G04*
G04 #@! TF.GenerationSoftware,Altium Limited,Altium Designer,18.0.7 (293)*
G04*
G04 Layer_Color=8388736*
%FSLAX25Y25*%
%MOIN*%
G70*
G01*
G75*
G04:AMPARAMS|DCode=25|XSize=9.84mil|YSize=39.37mil|CornerRadius=4.92mil|HoleSize=0mil|Usage=FLASHONLY|Rotation=90.000|XOffset=0mil|YOffset=0mil|HoleType=Round|Shape=RoundedRectangle|*
%AMROUNDEDRECTD25*
21,1,0.00984,0.02953,0,0,90.0*
21,1,0.00000,0.03937,0,0,90.0*
1,1,0.00984,0.01476,0.00000*
1,1,0.00984,0.01476,0.00000*
1,1,0.00984,-0.01476,0.00000*
1,1,0.00984,-0.01476,0.00000*
%
%ADD25ROUNDEDRECTD25*%
G04:AMPARAMS|DCode=26|XSize=9.84mil|YSize=74.8mil|CornerRadius=4.92mil|HoleSize=0mil|Usage=FLASHONLY|Rotation=0.000|XOffset=0mil|YOffset=0mil|HoleType=Round|Shape=RoundedRectangle|*
%AMROUNDEDRECTD26*
21,1,0.00984,0.06496,0,0,0.0*
21,1,0.00000,0.07480,0,0,0.0*
1,1,0.00984,0.00000,-0.03248*
1,1,0.00984,0.00000,-0.03248*
1,1,0.00984,0.00000,0.03248*
1,1,0.00984,0.00000,0.03248*
%
%ADD26ROUNDEDRECTD26*%
G04:AMPARAMS|DCode=27|XSize=39.37mil|YSize=19.68mil|CornerRadius=4.92mil|HoleSize=0mil|Usage=FLASHONLY|Rotation=0.000|XOffset=0mil|YOffset=0mil|HoleType=Round|Shape=RoundedRectangle|*
%AMROUNDEDRECTD27*
21,1,0.03937,0.00984,0,0,0.0*
21,1,0.02953,0.01968,0,0,0.0*
1,1,0.00984,0.01476,-0.00492*
1,1,0.00984,-0.01476,-0.00492*
1,1,0.00984,-0.01476,0.00492*
1,1,0.00984,0.01476,0.00492*
%
%ADD27ROUNDEDRECTD27*%
%ADD28O,0.03937X0.01968*%
G04:AMPARAMS|DCode=29|XSize=39.37mil|YSize=35.43mil|CornerRadius=8.86mil|HoleSize=0mil|Usage=FLASHONLY|Rotation=270.000|XOffset=0mil|YOffset=0mil|HoleType=Round|Shape=RoundedRectangle|*
%AMROUNDEDRECTD29*
21,1,0.03937,0.01772,0,0,270.0*
21,1,0.02165,0.03543,0,0,270.0*
1,1,0.01772,-0.00886,-0.01083*
1,1,0.01772,-0.00886,0.01083*
1,1,0.01772,0.00886,0.01083*
1,1,0.01772,0.00886,-0.01083*
%
%ADD29ROUNDEDRECTD29*%
G04:AMPARAMS|DCode=30|XSize=70.08mil|YSize=137.8mil|CornerRadius=17.52mil|HoleSize=0mil|Usage=FLASHONLY|Rotation=0.000|XOffset=0mil|YOffset=0mil|HoleType=Round|Shape=RoundedRectangle|*
%AMROUNDEDRECTD30*
21,1,0.07008,0.10276,0,0,0.0*
21,1,0.03504,0.13780,0,0,0.0*
1,1,0.03504,0.01752,-0.05138*
1,1,0.03504,-0.01752,-0.05138*
1,1,0.03504,-0.01752,0.05138*
1,1,0.03504,0.01752,0.05138*
%
%ADD30ROUNDEDRECTD30*%
G04:AMPARAMS|DCode=31|XSize=74.8mil|YSize=55.12mil|CornerRadius=13.78mil|HoleSize=0mil|Usage=FLASHONLY|Rotation=270.000|XOffset=0mil|YOffset=0mil|HoleType=Round|Shape=RoundedRectangle|*
%AMROUNDEDRECTD31*
21,1,0.07480,0.02756,0,0,270.0*
21,1,0.04724,0.05512,0,0,270.0*
1,1,0.02756,-0.01378,-0.02362*
1,1,0.02756,-0.01378,0.02362*
1,1,0.02756,0.01378,0.02362*
1,1,0.02756,0.01378,-0.02362*
%
%ADD31ROUNDEDRECTD31*%
G04:AMPARAMS|DCode=32|XSize=62.99mil|YSize=55.12mil|CornerRadius=13.78mil|HoleSize=0mil|Usage=FLASHONLY|Rotation=270.000|XOffset=0mil|YOffset=0mil|HoleType=Round|Shape=RoundedRectangle|*
%AMROUNDEDRECTD32*
21,1,0.06299,0.02756,0,0,270.0*
21,1,0.03543,0.05512,0,0,270.0*
1,1,0.02756,-0.01378,-0.01772*
1,1,0.02756,-0.01378,0.01772*
1,1,0.02756,0.01378,0.01772*
1,1,0.02756,0.01378,-0.01772*
%
%ADD32ROUNDEDRECTD32*%
G04:AMPARAMS|DCode=33|XSize=13.78mil|YSize=53.15mil|CornerRadius=6.89mil|HoleSize=0mil|Usage=FLASHONLY|Rotation=270.000|XOffset=0mil|YOffset=0mil|HoleType=Round|Shape=RoundedRectangle|*
%AMROUNDEDRECTD33*
21,1,0.01378,0.03937,0,0,270.0*
21,1,0.00000,0.05315,0,0,270.0*
1,1,0.01378,-0.01968,0.00000*
1,1,0.01378,-0.01968,0.00000*
1,1,0.01378,0.01968,0.00000*
1,1,0.01378,0.01968,0.00000*
%
%ADD33ROUNDEDRECTD33*%
G04:AMPARAMS|DCode=34|XSize=31.5mil|YSize=31.5mil|CornerRadius=7.87mil|HoleSize=0mil|Usage=FLASHONLY|Rotation=90.000|XOffset=0mil|YOffset=0mil|HoleType=Round|Shape=RoundedRectangle|*
%AMROUNDEDRECTD34*
21,1,0.03150,0.01575,0,0,90.0*
21,1,0.01575,0.03150,0,0,90.0*
1,1,0.01575,0.00787,0.00787*
1,1,0.01575,0.00787,-0.00787*
1,1,0.01575,-0.00787,-0.00787*
1,1,0.01575,-0.00787,0.00787*
%
%ADD34ROUNDEDRECTD34*%
G04:AMPARAMS|DCode=35|XSize=31.5mil|YSize=31.5mil|CornerRadius=7.87mil|HoleSize=0mil|Usage=FLASHONLY|Rotation=0.000|XOffset=0mil|YOffset=0mil|HoleType=Round|Shape=RoundedRectangle|*
%AMROUNDEDRECTD35*
21,1,0.03150,0.01575,0,0,0.0*
21,1,0.01575,0.03150,0,0,0.0*
1,1,0.01575,0.00787,-0.00787*
1,1,0.01575,-0.00787,-0.00787*
1,1,0.01575,-0.00787,0.00787*
1,1,0.01575,0.00787,0.00787*
%
%ADD35ROUNDEDRECTD35*%
G04:AMPARAMS|DCode=36|XSize=31.5mil|YSize=31.5mil|CornerRadius=7.87mil|HoleSize=0mil|Usage=FLASHONLY|Rotation=135.000|XOffset=0mil|YOffset=0mil|HoleType=Round|Shape=RoundedRectangle|*
%AMROUNDEDRECTD36*
21,1,0.03150,0.01575,0,0,135.0*
21,1,0.01575,0.03150,0,0,135.0*
1,1,0.01575,0.00000,0.01114*
1,1,0.01575,0.01114,0.00000*
1,1,0.01575,0.00000,-0.01114*
1,1,0.01575,-0.01114,0.00000*
%
%ADD36ROUNDEDRECTD36*%
G04:AMPARAMS|DCode=37|XSize=39.37mil|YSize=35.43mil|CornerRadius=8.86mil|HoleSize=0mil|Usage=FLASHONLY|Rotation=0.000|XOffset=0mil|YOffset=0mil|HoleType=Round|Shape=RoundedRectangle|*
%AMROUNDEDRECTD37*
21,1,0.03937,0.01772,0,0,0.0*
21,1,0.02165,0.03543,0,0,0.0*
1,1,0.01772,0.01083,-0.00886*
1,1,0.01772,-0.01083,-0.00886*
1,1,0.01772,-0.01083,0.00886*
1,1,0.01772,0.01083,0.00886*
%
%ADD37ROUNDEDRECTD37*%
G04:AMPARAMS|DCode=38|XSize=17.72mil|YSize=35.43mil|CornerRadius=4.43mil|HoleSize=0mil|Usage=FLASHONLY|Rotation=0.000|XOffset=0mil|YOffset=0mil|HoleType=Round|Shape=RoundedRectangle|*
%AMROUNDEDRECTD38*
21,1,0.01772,0.02657,0,0,0.0*
21,1,0.00886,0.03543,0,0,0.0*
1,1,0.00886,0.00443,-0.01329*
1,1,0.00886,-0.00443,-0.01329*
1,1,0.00886,-0.00443,0.01329*
1,1,0.00886,0.00443,0.01329*
%
%ADD38ROUNDEDRECTD38*%
G04:AMPARAMS|DCode=39|XSize=31.5mil|YSize=31.5mil|CornerRadius=4.72mil|HoleSize=0mil|Usage=FLASHONLY|Rotation=270.000|XOffset=0mil|YOffset=0mil|HoleType=Round|Shape=RoundedRectangle|*
%AMROUNDEDRECTD39*
21,1,0.03150,0.02205,0,0,270.0*
21,1,0.02205,0.03150,0,0,270.0*
1,1,0.00945,-0.01102,-0.01102*
1,1,0.00945,-0.01102,0.01102*
1,1,0.00945,0.01102,0.01102*
1,1,0.00945,0.01102,-0.01102*
%
%ADD39ROUNDEDRECTD39*%
G04:AMPARAMS|DCode=40|XSize=31.5mil|YSize=31.5mil|CornerRadius=4.72mil|HoleSize=0mil|Usage=FLASHONLY|Rotation=0.000|XOffset=0mil|YOffset=0mil|HoleType=Round|Shape=RoundedRectangle|*
%AMROUNDEDRECTD40*
21,1,0.03150,0.02205,0,0,0.0*
21,1,0.02205,0.03150,0,0,0.0*
1,1,0.00945,0.01102,-0.01102*
1,1,0.00945,-0.01102,-0.01102*
1,1,0.00945,-0.01102,0.01102*
1,1,0.00945,0.01102,0.01102*
%
%ADD40ROUNDEDRECTD40*%
G04:AMPARAMS|DCode=41|XSize=13.78mil|YSize=19.68mil|CornerRadius=3.45mil|HoleSize=0mil|Usage=FLASHONLY|Rotation=0.000|XOffset=0mil|YOffset=0mil|HoleType=Round|Shape=RoundedRectangle|*
%AMROUNDEDRECTD41*
21,1,0.01378,0.01280,0,0,0.0*
21,1,0.00689,0.01968,0,0,0.0*
1,1,0.00689,0.00345,-0.00640*
1,1,0.00689,-0.00345,-0.00640*
1,1,0.00689,-0.00345,0.00640*
1,1,0.00689,0.00345,0.00640*
%
%ADD41ROUNDEDRECTD41*%
%ADD42R,0.01378X0.01181*%
G04:AMPARAMS|DCode=43|XSize=19.68mil|YSize=21.65mil|CornerRadius=1.97mil|HoleSize=0mil|Usage=FLASHONLY|Rotation=270.000|XOffset=0mil|YOffset=0mil|HoleType=Round|Shape=RoundedRectangle|*
%AMROUNDEDRECTD43*
21,1,0.01968,0.01772,0,0,270.0*
21,1,0.01575,0.02165,0,0,270.0*
1,1,0.00394,-0.00886,-0.00787*
1,1,0.00394,-0.00886,0.00787*
1,1,0.00394,0.00886,0.00787*
1,1,0.00394,0.00886,-0.00787*
%
%ADD43ROUNDEDRECTD43*%
G04:AMPARAMS|DCode=45|XSize=13.19mil|YSize=34.25mil|CornerRadius=1.32mil|HoleSize=0mil|Usage=FLASHONLY|Rotation=270.000|XOffset=0mil|YOffset=0mil|HoleType=Round|Shape=RoundedRectangle|*
%AMROUNDEDRECTD45*
21,1,0.01319,0.03161,0,0,270.0*
21,1,0.01055,0.03425,0,0,270.0*
1,1,0.00264,-0.01581,-0.00528*
1,1,0.00264,-0.01581,0.00528*
1,1,0.00264,0.01581,0.00528*
1,1,0.00264,0.01581,-0.00528*
%
%ADD45ROUNDEDRECTD45*%
G04:AMPARAMS|DCode=46|XSize=23.62mil|YSize=45.28mil|CornerRadius=5.91mil|HoleSize=0mil|Usage=FLASHONLY|Rotation=90.000|XOffset=0mil|YOffset=0mil|HoleType=Round|Shape=RoundedRectangle|*
%AMROUNDEDRECTD46*
21,1,0.02362,0.03347,0,0,90.0*
21,1,0.01181,0.04528,0,0,90.0*
1,1,0.01181,0.01673,0.00591*
1,1,0.01181,0.01673,-0.00591*
1,1,0.01181,-0.01673,-0.00591*
1,1,0.01181,-0.01673,0.00591*
%
%ADD46ROUNDEDRECTD46*%
G04:AMPARAMS|DCode=47|XSize=21.65mil|YSize=43.31mil|CornerRadius=5.41mil|HoleSize=0mil|Usage=FLASHONLY|Rotation=90.000|XOffset=0mil|YOffset=0mil|HoleType=Round|Shape=RoundedRectangle|*
%AMROUNDEDRECTD47*
21,1,0.02165,0.03248,0,0,90.0*
21,1,0.01083,0.04331,0,0,90.0*
1,1,0.01083,0.01624,0.00541*
1,1,0.01083,0.01624,-0.00541*
1,1,0.01083,-0.01624,-0.00541*
1,1,0.01083,-0.01624,0.00541*
%
%ADD47ROUNDEDRECTD47*%
G04:AMPARAMS|DCode=48|XSize=21.65mil|YSize=43.31mil|CornerRadius=5.41mil|HoleSize=0mil|Usage=FLASHONLY|Rotation=0.000|XOffset=0mil|YOffset=0mil|HoleType=Round|Shape=RoundedRectangle|*
%AMROUNDEDRECTD48*
21,1,0.02165,0.03248,0,0,0.0*
21,1,0.01083,0.04331,0,0,0.0*
1,1,0.01083,0.00541,-0.01624*
1,1,0.01083,-0.00541,-0.01624*
1,1,0.01083,-0.00541,0.01624*
1,1,0.01083,0.00541,0.01624*
%
%ADD48ROUNDEDRECTD48*%
G04:AMPARAMS|DCode=49|XSize=31.5mil|YSize=23.62mil|CornerRadius=5.91mil|HoleSize=0mil|Usage=FLASHONLY|Rotation=270.000|XOffset=0mil|YOffset=0mil|HoleType=Round|Shape=RoundedRectangle|*
%AMROUNDEDRECTD49*
21,1,0.03150,0.01181,0,0,270.0*
21,1,0.01968,0.02362,0,0,270.0*
1,1,0.01181,-0.00591,-0.00984*
1,1,0.01181,-0.00591,0.00984*
1,1,0.01181,0.00591,0.00984*
1,1,0.01181,0.00591,-0.00984*
%
%ADD49ROUNDEDRECTD49*%
G04:AMPARAMS|DCode=50|XSize=23.62mil|YSize=43.31mil|CornerRadius=2.36mil|HoleSize=0mil|Usage=FLASHONLY|Rotation=225.000|XOffset=0mil|YOffset=0mil|HoleType=Round|Shape=RoundedRectangle|*
%AMROUNDEDRECTD50*
21,1,0.02362,0.03858,0,0,225.0*
21,1,0.01890,0.04331,0,0,225.0*
1,1,0.00472,-0.02032,0.00696*
1,1,0.00472,-0.00696,0.02032*
1,1,0.00472,0.02032,-0.00696*
1,1,0.00472,0.00696,-0.02032*
%
%ADD50ROUNDEDRECTD50*%
%ADD51R,0.02992X0.09449*%
G04:AMPARAMS|DCode=54|XSize=47.24mil|YSize=47.24mil|CornerRadius=11.81mil|HoleSize=0mil|Usage=FLASHONLY|Rotation=270.000|XOffset=0mil|YOffset=0mil|HoleType=Round|Shape=RoundedRectangle|*
%AMROUNDEDRECTD54*
21,1,0.04724,0.02362,0,0,270.0*
21,1,0.02362,0.04724,0,0,270.0*
1,1,0.02362,-0.01181,-0.01181*
1,1,0.02362,-0.01181,0.01181*
1,1,0.02362,0.01181,0.01181*
1,1,0.02362,0.01181,-0.01181*
%
%ADD54ROUNDEDRECTD54*%
G04:AMPARAMS|DCode=55|XSize=94.49mil|YSize=137.8mil|CornerRadius=7.09mil|HoleSize=0mil|Usage=FLASHONLY|Rotation=90.000|XOffset=0mil|YOffset=0mil|HoleType=Round|Shape=RoundedRectangle|*
%AMROUNDEDRECTD55*
21,1,0.09449,0.12362,0,0,90.0*
21,1,0.08032,0.13780,0,0,90.0*
1,1,0.01417,0.06181,0.04016*
1,1,0.01417,0.06181,-0.04016*
1,1,0.01417,-0.06181,-0.04016*
1,1,0.01417,-0.06181,0.04016*
%
%ADD55ROUNDEDRECTD55*%
G04:AMPARAMS|DCode=56|XSize=118.11mil|YSize=137.8mil|CornerRadius=11.81mil|HoleSize=0mil|Usage=FLASHONLY|Rotation=90.000|XOffset=0mil|YOffset=0mil|HoleType=Round|Shape=RoundedRectangle|*
%AMROUNDEDRECTD56*
21,1,0.11811,0.11417,0,0,90.0*
21,1,0.09449,0.13780,0,0,90.0*
1,1,0.02362,0.05709,0.04724*
1,1,0.02362,0.05709,-0.04724*
1,1,0.02362,-0.05709,-0.04724*
1,1,0.02362,-0.05709,0.04724*
%
%ADD56ROUNDEDRECTD56*%
G04:AMPARAMS|DCode=57|XSize=47.24mil|YSize=125.98mil|CornerRadius=11.81mil|HoleSize=0mil|Usage=FLASHONLY|Rotation=90.000|XOffset=0mil|YOffset=0mil|HoleType=Round|Shape=RoundedRectangle|*
%AMROUNDEDRECTD57*
21,1,0.04724,0.10236,0,0,90.0*
21,1,0.02362,0.12598,0,0,90.0*
1,1,0.02362,0.05118,0.01181*
1,1,0.02362,0.05118,-0.01181*
1,1,0.02362,-0.05118,-0.01181*
1,1,0.02362,-0.05118,0.01181*
%
%ADD57ROUNDEDRECTD57*%
G04:AMPARAMS|DCode=58|XSize=86.61mil|YSize=220.47mil|CornerRadius=21.65mil|HoleSize=0mil|Usage=FLASHONLY|Rotation=90.000|XOffset=0mil|YOffset=0mil|HoleType=Round|Shape=RoundedRectangle|*
%AMROUNDEDRECTD58*
21,1,0.08661,0.17717,0,0,90.0*
21,1,0.04331,0.22047,0,0,90.0*
1,1,0.04331,0.08858,0.02165*
1,1,0.04331,0.08858,-0.02165*
1,1,0.04331,-0.08858,-0.02165*
1,1,0.04331,-0.08858,0.02165*
%
%ADD58ROUNDEDRECTD58*%
G04:AMPARAMS|DCode=59|XSize=93.31mil|YSize=95.67mil|CornerRadius=9.33mil|HoleSize=0mil|Usage=FLASHONLY|Rotation=0.000|XOffset=0mil|YOffset=0mil|HoleType=Round|Shape=RoundedRectangle|*
%AMROUNDEDRECTD59*
21,1,0.09331,0.07701,0,0,0.0*
21,1,0.07465,0.09567,0,0,0.0*
1,1,0.01866,0.03732,-0.03850*
1,1,0.01866,-0.03732,-0.03850*
1,1,0.01866,-0.03732,0.03850*
1,1,0.01866,0.03732,0.03850*
%
%ADD59ROUNDEDRECTD59*%
G04:AMPARAMS|DCode=60|XSize=51.18mil|YSize=78.74mil|CornerRadius=12.8mil|HoleSize=0mil|Usage=FLASHONLY|Rotation=0.000|XOffset=0mil|YOffset=0mil|HoleType=Round|Shape=RoundedRectangle|*
%AMROUNDEDRECTD60*
21,1,0.05118,0.05315,0,0,0.0*
21,1,0.02559,0.07874,0,0,0.0*
1,1,0.02559,0.01280,-0.02657*
1,1,0.02559,-0.01280,-0.02657*
1,1,0.02559,-0.01280,0.02657*
1,1,0.02559,0.01280,0.02657*
%
%ADD60ROUNDEDRECTD60*%
G04:AMPARAMS|DCode=61|XSize=78.74mil|YSize=78.74mil|CornerRadius=19.68mil|HoleSize=0mil|Usage=FLASHONLY|Rotation=0.000|XOffset=0mil|YOffset=0mil|HoleType=Round|Shape=RoundedRectangle|*
%AMROUNDEDRECTD61*
21,1,0.07874,0.03937,0,0,0.0*
21,1,0.03937,0.07874,0,0,0.0*
1,1,0.03937,0.01968,-0.01968*
1,1,0.03937,-0.01968,-0.01968*
1,1,0.03937,-0.01968,0.01968*
1,1,0.03937,0.01968,0.01968*
%
%ADD61ROUNDEDRECTD61*%
G04:AMPARAMS|DCode=62|XSize=55.12mil|YSize=64.57mil|CornerRadius=5.51mil|HoleSize=0mil|Usage=FLASHONLY|Rotation=90.000|XOffset=0mil|YOffset=0mil|HoleType=Round|Shape=RoundedRectangle|*
%AMROUNDEDRECTD62*
21,1,0.05512,0.05354,0,0,90.0*
21,1,0.04409,0.06457,0,0,90.0*
1,1,0.01102,0.02677,0.02205*
1,1,0.01102,0.02677,-0.02205*
1,1,0.01102,-0.02677,-0.02205*
1,1,0.01102,-0.02677,0.02205*
%
%ADD62ROUNDEDRECTD62*%
%ADD63O,0.06693X0.01378*%
G04:AMPARAMS|DCode=64|XSize=54.72mil|YSize=55.12mil|CornerRadius=13.68mil|HoleSize=0mil|Usage=FLASHONLY|Rotation=90.000|XOffset=0mil|YOffset=0mil|HoleType=Round|Shape=RoundedRectangle|*
%AMROUNDEDRECTD64*
21,1,0.05472,0.02776,0,0,90.0*
21,1,0.02736,0.05512,0,0,90.0*
1,1,0.02736,0.01388,0.01368*
1,1,0.02736,0.01388,-0.01368*
1,1,0.02736,-0.01388,-0.01368*
1,1,0.02736,-0.01388,0.01368*
%
%ADD64ROUNDEDRECTD64*%
G04:AMPARAMS|DCode=67|XSize=23.62mil|YSize=31.5mil|CornerRadius=5.91mil|HoleSize=0mil|Usage=FLASHONLY|Rotation=270.000|XOffset=0mil|YOffset=0mil|HoleType=Round|Shape=RoundedRectangle|*
%AMROUNDEDRECTD67*
21,1,0.02362,0.01968,0,0,270.0*
21,1,0.01181,0.03150,0,0,270.0*
1,1,0.01181,-0.00984,-0.00591*
1,1,0.01181,-0.00984,0.00591*
1,1,0.01181,0.00984,0.00591*
1,1,0.01181,0.00984,-0.00591*
%
%ADD67ROUNDEDRECTD67*%
%ADD68O,0.03347X0.00787*%
%ADD69O,0.00787X0.03347*%
G04:AMPARAMS|DCode=70|XSize=98.43mil|YSize=47.24mil|CornerRadius=11.81mil|HoleSize=0mil|Usage=FLASHONLY|Rotation=180.000|XOffset=0mil|YOffset=0mil|HoleType=Round|Shape=RoundedRectangle|*
%AMROUNDEDRECTD70*
21,1,0.09843,0.02362,0,0,180.0*
21,1,0.07480,0.04724,0,0,180.0*
1,1,0.02362,-0.03740,0.01181*
1,1,0.02362,0.03740,0.01181*
1,1,0.02362,0.03740,-0.01181*
1,1,0.02362,-0.03740,-0.01181*
%
%ADD70ROUNDEDRECTD70*%
G04:AMPARAMS|DCode=71|XSize=98.43mil|YSize=47.24mil|CornerRadius=11.81mil|HoleSize=0mil|Usage=FLASHONLY|Rotation=90.000|XOffset=0mil|YOffset=0mil|HoleType=Round|Shape=RoundedRectangle|*
%AMROUNDEDRECTD71*
21,1,0.09843,0.02362,0,0,90.0*
21,1,0.07480,0.04724,0,0,90.0*
1,1,0.02362,0.01181,0.03740*
1,1,0.02362,0.01181,-0.03740*
1,1,0.02362,-0.01181,-0.03740*
1,1,0.02362,-0.01181,0.03740*
%
%ADD71ROUNDEDRECTD71*%
G04:AMPARAMS|DCode=72|XSize=17.72mil|YSize=35.43mil|CornerRadius=4.43mil|HoleSize=0mil|Usage=FLASHONLY|Rotation=270.000|XOffset=0mil|YOffset=0mil|HoleType=Round|Shape=RoundedRectangle|*
%AMROUNDEDRECTD72*
21,1,0.01772,0.02657,0,0,270.0*
21,1,0.00886,0.03543,0,0,270.0*
1,1,0.00886,-0.01329,-0.00443*
1,1,0.00886,-0.01329,0.00443*
1,1,0.00886,0.01329,0.00443*
1,1,0.00886,0.01329,-0.00443*
%
%ADD72ROUNDEDRECTD72*%
G04:AMPARAMS|DCode=75|XSize=70.08mil|YSize=137.8mil|CornerRadius=17.52mil|HoleSize=0mil|Usage=FLASHONLY|Rotation=90.000|XOffset=0mil|YOffset=0mil|HoleType=Round|Shape=RoundedRectangle|*
%AMROUNDEDRECTD75*
21,1,0.07008,0.10276,0,0,90.0*
21,1,0.03504,0.13780,0,0,90.0*
1,1,0.03504,0.05138,0.01752*
1,1,0.03504,0.05138,-0.01752*
1,1,0.03504,-0.05138,-0.01752*
1,1,0.03504,-0.05138,0.01752*
%
%ADD75ROUNDEDRECTD75*%
%ADD76R,0.05906X0.03740*%
G04:AMPARAMS|DCode=77|XSize=27.56mil|YSize=59.06mil|CornerRadius=6.89mil|HoleSize=0mil|Usage=FLASHONLY|Rotation=180.000|XOffset=0mil|YOffset=0mil|HoleType=Round|Shape=RoundedRectangle|*
%AMROUNDEDRECTD77*
21,1,0.02756,0.04528,0,0,180.0*
21,1,0.01378,0.05906,0,0,180.0*
1,1,0.01378,-0.00689,0.02264*
1,1,0.01378,0.00689,0.02264*
1,1,0.01378,0.00689,-0.02264*
1,1,0.01378,-0.00689,-0.02264*
%
%ADD77ROUNDEDRECTD77*%
%ADD78O,0.01102X0.03347*%
%ADD79O,0.03347X0.01102*%
%ADD80R,0.06693X0.06693*%
G04:AMPARAMS|DCode=81|XSize=27.56mil|YSize=59.06mil|CornerRadius=6.89mil|HoleSize=0mil|Usage=FLASHONLY|Rotation=270.000|XOffset=0mil|YOffset=0mil|HoleType=Round|Shape=RoundedRectangle|*
%AMROUNDEDRECTD81*
21,1,0.02756,0.04528,0,0,270.0*
21,1,0.01378,0.05906,0,0,270.0*
1,1,0.01378,-0.02264,-0.00689*
1,1,0.01378,-0.02264,0.00689*
1,1,0.01378,0.02264,0.00689*
1,1,0.01378,0.02264,-0.00689*
%
%ADD81ROUNDEDRECTD81*%
G04:AMPARAMS|DCode=82|XSize=132.28mil|YSize=191.34mil|CornerRadius=6.61mil|HoleSize=0mil|Usage=FLASHONLY|Rotation=0.000|XOffset=0mil|YOffset=0mil|HoleType=Round|Shape=RoundedRectangle|*
%AMROUNDEDRECTD82*
21,1,0.13228,0.17811,0,0,0.0*
21,1,0.11906,0.19134,0,0,0.0*
1,1,0.01323,0.05953,-0.08906*
1,1,0.01323,-0.05953,-0.08906*
1,1,0.01323,-0.05953,0.08906*
1,1,0.01323,0.05953,0.08906*
%
%ADD82ROUNDEDRECTD82*%
G04:AMPARAMS|DCode=83|XSize=9.45mil|YSize=35.43mil|CornerRadius=0.94mil|HoleSize=0mil|Usage=FLASHONLY|Rotation=0.000|XOffset=0mil|YOffset=0mil|HoleType=Round|Shape=RoundedRectangle|*
%AMROUNDEDRECTD83*
21,1,0.00945,0.03354,0,0,0.0*
21,1,0.00756,0.03543,0,0,0.0*
1,1,0.00189,0.00378,-0.01677*
1,1,0.00189,-0.00378,-0.01677*
1,1,0.00189,-0.00378,0.01677*
1,1,0.00189,0.00378,0.01677*
%
%ADD83ROUNDEDRECTD83*%
G04:AMPARAMS|DCode=84|XSize=9.45mil|YSize=35.43mil|CornerRadius=0.94mil|HoleSize=0mil|Usage=FLASHONLY|Rotation=270.000|XOffset=0mil|YOffset=0mil|HoleType=Round|Shape=RoundedRectangle|*
%AMROUNDEDRECTD84*
21,1,0.00945,0.03354,0,0,270.0*
21,1,0.00756,0.03543,0,0,270.0*
1,1,0.00189,-0.01677,-0.00378*
1,1,0.00189,-0.01677,0.00378*
1,1,0.00189,0.01677,0.00378*
1,1,0.00189,0.01677,-0.00378*
%
%ADD84ROUNDEDRECTD84*%
G04:AMPARAMS|DCode=85|XSize=35.43mil|YSize=74.8mil|CornerRadius=3.54mil|HoleSize=0mil|Usage=FLASHONLY|Rotation=0.000|XOffset=0mil|YOffset=0mil|HoleType=Round|Shape=RoundedRectangle|*
%AMROUNDEDRECTD85*
21,1,0.03543,0.06772,0,0,0.0*
21,1,0.02835,0.07480,0,0,0.0*
1,1,0.00709,0.01417,-0.03386*
1,1,0.00709,-0.01417,-0.03386*
1,1,0.00709,-0.01417,0.03386*
1,1,0.00709,0.01417,0.03386*
%
%ADD85ROUNDEDRECTD85*%
%ADD86R,0.22835X0.22835*%
%ADD87O,0.01102X0.03150*%
%ADD88O,0.03150X0.01102*%
%ADD89R,0.09055X0.09055*%
%ADD90C,0.06299*%
%ADD91C,0.05512*%
%ADD92C,0.05906*%
%ADD93O,0.06299X0.03543*%
%ADD94C,0.23622*%
%ADD95C,0.01181*%
%ADD96C,0.05118*%
G36*
X1274139Y63189D02*
X1272244D01*
X1281910Y93133D01*
X1283805D01*
X1274139Y63189D01*
D02*
G37*
G36*
X1390996Y74637D02*
Y64355D01*
X1387537D01*
Y74637D01*
X1379719Y91931D01*
X1383652D01*
X1389290Y78048D01*
X1394928Y91931D01*
X1398861D01*
X1390996Y74637D01*
D02*
G37*
G36*
X1331629Y64355D02*
X1328123D01*
X1317083Y85582D01*
Y64355D01*
X1313577Y64355D01*
Y91931D01*
X1317083Y91931D01*
X1328170Y70562D01*
Y91931D01*
X1331629D01*
Y64355D01*
D02*
G37*
G36*
X1437239Y88946D02*
X1426057Y88946D01*
Y80086D01*
X1435817Y80086D01*
Y77101D01*
X1426057Y77101D01*
Y67340D01*
X1437428Y67340D01*
Y64355D01*
X1422598Y64355D01*
Y91931D01*
X1437239Y91931D01*
Y88946D01*
D02*
G37*
G36*
X1418571Y88946D02*
X1411274D01*
Y64355D01*
X1407816D01*
Y88946D01*
X1400614D01*
Y91931D01*
X1418571D01*
Y88946D01*
D02*
G37*
G36*
X1369390Y91883D02*
X1369722D01*
X1370054Y91836D01*
X1370907Y91694D01*
X1371807Y91504D01*
X1372754Y91172D01*
X1373655Y90699D01*
X1374460Y90083D01*
X1374555Y89988D01*
X1374744Y89751D01*
X1375076Y89325D01*
X1375408Y88709D01*
X1375739Y87903D01*
X1376071Y86956D01*
X1376260Y85819D01*
X1376355Y84539D01*
Y84445D01*
Y84208D01*
X1376308Y83876D01*
X1376213Y83402D01*
X1376118Y82881D01*
X1375929Y82313D01*
X1375692Y81696D01*
X1375360Y81128D01*
X1375313Y81081D01*
X1375171Y80891D01*
X1374981Y80607D01*
X1374697Y80275D01*
X1374318Y79944D01*
X1373892Y79564D01*
X1373370Y79185D01*
X1372802Y78854D01*
X1372897Y78806D01*
X1373133Y78759D01*
X1373465Y78569D01*
X1373892Y78333D01*
X1374365Y78048D01*
X1374839Y77622D01*
X1375360Y77148D01*
X1375787Y76532D01*
X1375834Y76437D01*
X1375976Y76200D01*
X1376118Y75869D01*
X1376355Y75348D01*
X1376545Y74732D01*
X1376687Y73974D01*
X1376829Y73168D01*
X1376877Y72268D01*
Y72220D01*
Y72126D01*
Y71936D01*
X1376829Y71652D01*
Y71368D01*
X1376782Y70989D01*
X1376640Y70136D01*
X1376403Y69236D01*
X1376024Y68241D01*
X1375502Y67293D01*
X1375218Y66867D01*
X1374839Y66440D01*
X1374744Y66345D01*
X1374460Y66109D01*
X1373986Y65777D01*
X1373370Y65398D01*
X1372517Y65019D01*
X1371523Y64687D01*
X1370385Y64450D01*
X1369722Y64403D01*
X1369059Y64355D01*
X1360909D01*
Y91931D01*
X1369153D01*
X1369390Y91883D01*
D02*
G37*
G36*
X1307512Y64355D02*
X1304006D01*
Y91931D01*
X1307512D01*
Y64355D01*
D02*
G37*
G36*
X1288939Y67340D02*
X1299742D01*
Y64355D01*
X1285433D01*
Y91931D01*
X1288939D01*
Y67340D01*
D02*
G37*
G36*
X1346980Y92262D02*
X1347359Y92215D01*
X1347785Y92168D01*
X1348733Y91931D01*
X1349823Y91552D01*
X1350391Y91315D01*
X1350960Y91030D01*
X1351528Y90699D01*
X1352049Y90272D01*
X1352571Y89798D01*
X1353044Y89277D01*
X1353092Y89230D01*
X1353139Y89135D01*
X1353281Y88946D01*
X1353423Y88709D01*
X1353613Y88424D01*
X1353850Y88045D01*
X1354039Y87619D01*
X1354276Y87098D01*
X1354513Y86529D01*
X1354750Y85866D01*
X1354939Y85155D01*
X1355129Y84397D01*
X1355319Y83592D01*
X1355413Y82692D01*
X1355508Y81744D01*
X1355556Y80702D01*
Y75679D01*
Y75632D01*
Y75442D01*
Y75158D01*
X1355508Y74732D01*
X1355461Y74258D01*
X1355413Y73737D01*
X1355366Y73121D01*
X1355271Y72505D01*
X1354987Y71083D01*
X1354560Y69662D01*
X1354276Y68951D01*
X1353945Y68241D01*
X1353566Y67625D01*
X1353139Y67009D01*
X1353092Y66961D01*
X1353044Y66867D01*
X1352902Y66724D01*
X1352713Y66535D01*
X1352428Y66298D01*
X1352144Y66061D01*
X1351765Y65777D01*
X1351386Y65493D01*
X1350912Y65208D01*
X1350391Y64924D01*
X1349870Y64687D01*
X1349254Y64450D01*
X1348591Y64261D01*
X1347880Y64118D01*
X1347122Y64024D01*
X1346316Y63976D01*
X1345890D01*
X1345606Y64024D01*
X1345274Y64071D01*
X1344848Y64118D01*
X1343900Y64355D01*
X1342810Y64687D01*
X1342242Y64924D01*
X1341673Y65208D01*
X1341105Y65540D01*
X1340583Y65966D01*
X1340062Y66393D01*
X1339588Y66914D01*
X1339541Y66961D01*
X1339494Y67056D01*
X1339351Y67246D01*
X1339209Y67483D01*
X1339020Y67767D01*
X1338783Y68146D01*
X1338593Y68572D01*
X1338356Y69093D01*
X1338120Y69662D01*
X1337883Y70278D01*
X1337646Y70941D01*
X1337456Y71699D01*
X1337314Y72505D01*
X1337172Y73405D01*
X1337077Y74305D01*
X1337030Y75300D01*
Y80465D01*
Y80512D01*
Y80702D01*
Y80986D01*
X1337077Y81365D01*
X1337125Y81839D01*
X1337172Y82407D01*
X1337219Y82976D01*
X1337314Y83639D01*
X1337599Y85013D01*
X1338072Y86482D01*
X1338309Y87193D01*
X1338641Y87856D01*
X1339020Y88519D01*
X1339446Y89135D01*
X1339494Y89183D01*
X1339541Y89277D01*
X1339683Y89419D01*
X1339920Y89656D01*
X1340157Y89893D01*
X1340441Y90130D01*
X1340820Y90414D01*
X1341247Y90746D01*
X1341673Y91030D01*
X1342194Y91315D01*
X1342763Y91552D01*
X1343379Y91836D01*
X1344042Y92025D01*
X1344705Y92168D01*
X1345463Y92262D01*
X1346269Y92310D01*
X1346695D01*
X1346980Y92262D01*
D02*
G37*
G36*
X1347616Y42416D02*
X1346789D01*
Y48153D01*
X1345354Y47523D01*
Y48304D01*
X1347488Y49237D01*
X1347616D01*
Y42416D01*
D02*
G37*
G36*
X1337670Y49284D02*
X1337740D01*
X1337822Y49272D01*
X1338009Y49237D01*
X1338207Y49179D01*
X1338417Y49086D01*
X1338626Y48957D01*
X1338720Y48887D01*
X1338813Y48794D01*
X1338836Y48771D01*
X1338883Y48701D01*
X1338965Y48596D01*
X1339046Y48444D01*
X1339128Y48258D01*
X1339209Y48025D01*
X1339256Y47768D01*
X1339279Y47477D01*
Y47465D01*
Y47430D01*
X1339268Y47372D01*
Y47302D01*
X1339244Y47197D01*
X1339221Y47080D01*
X1339186Y46952D01*
X1339151Y46800D01*
X1339093Y46625D01*
X1339023Y46450D01*
X1338941Y46252D01*
X1338836Y46042D01*
X1338720Y45821D01*
X1338580Y45588D01*
X1338417Y45343D01*
X1338230Y45086D01*
X1336726Y43116D01*
X1339536D01*
Y42416D01*
X1335735D01*
Y43022D01*
X1337670Y45588D01*
Y45599D01*
X1337694Y45611D01*
X1337740Y45693D01*
X1337822Y45798D01*
X1337915Y45937D01*
X1338009Y46089D01*
X1338113Y46252D01*
X1338207Y46404D01*
X1338277Y46555D01*
X1338288Y46579D01*
X1338300Y46625D01*
X1338335Y46695D01*
X1338370Y46800D01*
X1338393Y46929D01*
X1338428Y47057D01*
X1338440Y47208D01*
X1338452Y47372D01*
Y47383D01*
Y47395D01*
Y47465D01*
X1338440Y47558D01*
X1338417Y47686D01*
X1338393Y47826D01*
X1338347Y47966D01*
X1338277Y48106D01*
X1338195Y48246D01*
X1338183Y48258D01*
X1338148Y48304D01*
X1338102Y48351D01*
X1338020Y48421D01*
X1337927Y48479D01*
X1337822Y48538D01*
X1337682Y48573D01*
X1337542Y48584D01*
X1337461D01*
X1337367Y48561D01*
X1337251Y48538D01*
X1337111Y48491D01*
X1336983Y48433D01*
X1336854Y48339D01*
X1336738Y48223D01*
X1336726Y48211D01*
X1336691Y48153D01*
X1336644Y48071D01*
X1336598Y47955D01*
X1336551Y47815D01*
X1336504Y47640D01*
X1336469Y47430D01*
X1336458Y47197D01*
X1335630D01*
Y47208D01*
Y47243D01*
Y47290D01*
X1335642Y47348D01*
Y47430D01*
X1335653Y47523D01*
X1335700Y47733D01*
X1335758Y47978D01*
X1335851Y48234D01*
X1335980Y48479D01*
X1336050Y48596D01*
X1336143Y48713D01*
X1336155Y48724D01*
X1336166Y48736D01*
X1336236Y48806D01*
X1336353Y48899D01*
X1336516Y49004D01*
X1336714Y49109D01*
X1336948Y49202D01*
X1337227Y49272D01*
X1337379Y49284D01*
X1337542Y49295D01*
X1337624D01*
X1337670Y49284D01*
D02*
G37*
G36*
X1351802D02*
X1351942Y49272D01*
X1352117Y49237D01*
X1352304Y49179D01*
X1352514Y49086D01*
X1352712Y48957D01*
X1352805Y48887D01*
X1352898Y48794D01*
X1352922Y48771D01*
X1352968Y48701D01*
X1353050Y48596D01*
X1353132Y48433D01*
X1353213Y48246D01*
X1353295Y48013D01*
X1353341Y47733D01*
X1353365Y47430D01*
Y47407D01*
Y47348D01*
X1353353Y47243D01*
X1353341Y47127D01*
X1353306Y46987D01*
X1353271Y46835D01*
X1353213Y46672D01*
X1353132Y46520D01*
X1353120Y46509D01*
X1353097Y46450D01*
X1353038Y46380D01*
X1352968Y46299D01*
X1352887Y46194D01*
X1352782Y46089D01*
X1352665Y45996D01*
X1352525Y45902D01*
X1352549Y45891D01*
X1352595Y45856D01*
X1352689Y45809D01*
X1352782Y45728D01*
X1352898Y45634D01*
X1353015Y45518D01*
X1353132Y45378D01*
X1353236Y45226D01*
X1353248Y45203D01*
X1353271Y45156D01*
X1353318Y45063D01*
X1353365Y44946D01*
X1353411Y44795D01*
X1353458Y44631D01*
X1353481Y44445D01*
X1353493Y44247D01*
Y44235D01*
Y44212D01*
Y44165D01*
X1353481Y44095D01*
Y44025D01*
X1353470Y43944D01*
X1353435Y43734D01*
X1353376Y43512D01*
X1353283Y43279D01*
X1353155Y43046D01*
X1353085Y42941D01*
X1352992Y42836D01*
X1352968Y42812D01*
X1352898Y42754D01*
X1352793Y42673D01*
X1352642Y42579D01*
X1352455Y42486D01*
X1352234Y42404D01*
X1351966Y42346D01*
X1351826Y42334D01*
X1351674Y42323D01*
X1351593D01*
X1351534Y42334D01*
X1351464D01*
X1351394Y42346D01*
X1351208Y42393D01*
X1350998Y42451D01*
X1350776Y42544D01*
X1350555Y42673D01*
X1350450Y42743D01*
X1350356Y42836D01*
Y42847D01*
X1350333Y42859D01*
X1350310Y42894D01*
X1350275Y42929D01*
X1350205Y43046D01*
X1350112Y43209D01*
X1350018Y43407D01*
X1349948Y43652D01*
X1349890Y43932D01*
X1349867Y44247D01*
Y44258D01*
Y44270D01*
Y44340D01*
X1349878Y44445D01*
X1349902Y44585D01*
X1349925Y44736D01*
X1349972Y44900D01*
X1350030Y45075D01*
X1350112Y45238D01*
X1350123Y45261D01*
X1350158Y45308D01*
X1350217Y45389D01*
X1350298Y45483D01*
X1350391Y45599D01*
X1350520Y45704D01*
X1350660Y45809D01*
X1350811Y45902D01*
X1350800Y45914D01*
X1350753Y45949D01*
X1350683Y45996D01*
X1350590Y46066D01*
X1350496Y46159D01*
X1350391Y46264D01*
X1350298Y46380D01*
X1350205Y46520D01*
X1350193Y46544D01*
X1350170Y46590D01*
X1350135Y46672D01*
X1350100Y46789D01*
X1350065Y46917D01*
X1350030Y47069D01*
X1350007Y47243D01*
X1349995Y47430D01*
Y47442D01*
Y47465D01*
Y47512D01*
X1350007Y47570D01*
Y47640D01*
X1350018Y47721D01*
X1350053Y47920D01*
X1350112Y48129D01*
X1350182Y48363D01*
X1350298Y48584D01*
X1350450Y48783D01*
Y48794D01*
X1350473Y48806D01*
X1350531Y48864D01*
X1350636Y48946D01*
X1350776Y49039D01*
X1350951Y49132D01*
X1351161Y49214D01*
X1351406Y49272D01*
X1351534Y49295D01*
X1351744D01*
X1351802Y49284D01*
D02*
G37*
G36*
X1342404D02*
X1342474Y49272D01*
X1342568Y49261D01*
X1342766Y49214D01*
X1342987Y49121D01*
X1343104Y49074D01*
X1343209Y49004D01*
X1343326Y48922D01*
X1343419Y48829D01*
X1343524Y48724D01*
X1343605Y48596D01*
Y48584D01*
X1343629Y48561D01*
X1343652Y48526D01*
X1343675Y48468D01*
X1343710Y48386D01*
X1343745Y48304D01*
X1343792Y48199D01*
X1343827Y48071D01*
X1343874Y47931D01*
X1343909Y47780D01*
X1343955Y47605D01*
X1343990Y47418D01*
X1344025Y47208D01*
X1344048Y46987D01*
X1344060Y46754D01*
X1344072Y46497D01*
Y45308D01*
Y45296D01*
Y45238D01*
Y45168D01*
X1344060Y45063D01*
Y44935D01*
X1344048Y44795D01*
X1344037Y44631D01*
X1344014Y44468D01*
X1343967Y44095D01*
X1343885Y43722D01*
X1343780Y43372D01*
X1343710Y43209D01*
X1343629Y43057D01*
Y43046D01*
X1343605Y43022D01*
X1343582Y42987D01*
X1343547Y42941D01*
X1343442Y42824D01*
X1343302Y42696D01*
X1343104Y42556D01*
X1342871Y42439D01*
X1342743Y42393D01*
X1342591Y42358D01*
X1342439Y42334D01*
X1342264Y42323D01*
X1342183D01*
X1342113Y42334D01*
X1342043Y42346D01*
X1341950Y42358D01*
X1341751Y42416D01*
X1341530Y42498D01*
X1341413Y42556D01*
X1341308Y42626D01*
X1341192Y42708D01*
X1341087Y42801D01*
X1340993Y42906D01*
X1340900Y43034D01*
Y43046D01*
X1340877Y43069D01*
X1340865Y43104D01*
X1340830Y43162D01*
X1340795Y43244D01*
X1340760Y43337D01*
X1340714Y43442D01*
X1340679Y43570D01*
X1340632Y43710D01*
X1340597Y43874D01*
X1340550Y44049D01*
X1340516Y44235D01*
X1340481Y44445D01*
X1340457Y44678D01*
X1340446Y44923D01*
X1340434Y45180D01*
Y46334D01*
Y46345D01*
Y46404D01*
Y46474D01*
X1340446Y46579D01*
Y46707D01*
X1340457Y46847D01*
X1340469Y46999D01*
X1340492Y47173D01*
X1340539Y47535D01*
X1340620Y47908D01*
X1340725Y48258D01*
X1340795Y48421D01*
X1340877Y48561D01*
Y48573D01*
X1340900Y48596D01*
X1340924Y48631D01*
X1340958Y48678D01*
X1341063Y48794D01*
X1341215Y48934D01*
X1341413Y49062D01*
X1341646Y49179D01*
X1341775Y49226D01*
X1341926Y49261D01*
X1342090Y49284D01*
X1342253Y49295D01*
X1342346D01*
X1342404Y49284D01*
D02*
G37*
G36*
X1371880Y60111D02*
X1371962D01*
X1372044Y60087D01*
X1372242Y60052D01*
X1372463Y59982D01*
X1372696Y59877D01*
X1372813Y59819D01*
X1372930Y59737D01*
X1373046Y59656D01*
X1373151Y59551D01*
X1373163Y59539D01*
X1373175Y59528D01*
X1373198Y59493D01*
X1373244Y59446D01*
X1373279Y59388D01*
X1373326Y59318D01*
X1373431Y59154D01*
X1373536Y58945D01*
X1373629Y58688D01*
X1373688Y58408D01*
X1373699Y58245D01*
X1373711Y58082D01*
X1373175D01*
Y58094D01*
Y58117D01*
Y58152D01*
Y58198D01*
X1373151Y58327D01*
X1373128Y58478D01*
X1373081Y58653D01*
X1373011Y58840D01*
X1372918Y59026D01*
X1372790Y59189D01*
X1372778Y59213D01*
X1372720Y59259D01*
X1372638Y59329D01*
X1372510Y59411D01*
X1372370Y59481D01*
X1372184Y59551D01*
X1371974Y59598D01*
X1371740Y59621D01*
X1371635D01*
X1371519Y59598D01*
X1371379Y59574D01*
X1371216Y59539D01*
X1371041Y59469D01*
X1370877Y59388D01*
X1370726Y59271D01*
X1370714Y59259D01*
X1370668Y59213D01*
X1370609Y59131D01*
X1370539Y59026D01*
X1370469Y58898D01*
X1370411Y58746D01*
X1370364Y58571D01*
X1370353Y58373D01*
Y58350D01*
X1370364Y58292D01*
X1370376Y58198D01*
X1370399Y58082D01*
X1370434Y57942D01*
X1370504Y57802D01*
X1370586Y57662D01*
X1370703Y57534D01*
X1370714Y57522D01*
X1370773Y57476D01*
X1370854Y57417D01*
X1370971Y57336D01*
X1371122Y57254D01*
X1371321Y57149D01*
X1371542Y57044D01*
X1371810Y56951D01*
X1371822D01*
X1371845Y56939D01*
X1371880Y56928D01*
X1371939Y56904D01*
X1372079Y56858D01*
X1372242Y56788D01*
X1372428Y56706D01*
X1372626Y56613D01*
X1372801Y56519D01*
X1372965Y56414D01*
X1372988Y56403D01*
X1373035Y56368D01*
X1373105Y56309D01*
X1373186Y56239D01*
X1373279Y56135D01*
X1373373Y56030D01*
X1373466Y55913D01*
X1373548Y55773D01*
X1373559Y55761D01*
X1373583Y55715D01*
X1373606Y55633D01*
X1373641Y55528D01*
X1373676Y55400D01*
X1373711Y55260D01*
X1373723Y55097D01*
X1373734Y54910D01*
Y54899D01*
Y54875D01*
Y54829D01*
X1373723Y54782D01*
Y54712D01*
X1373711Y54630D01*
X1373664Y54456D01*
X1373606Y54246D01*
X1373513Y54036D01*
X1373373Y53826D01*
X1373291Y53721D01*
X1373198Y53628D01*
X1373186D01*
X1373175Y53604D01*
X1373140Y53581D01*
X1373105Y53558D01*
X1372976Y53476D01*
X1372825Y53395D01*
X1372615Y53301D01*
X1372370Y53220D01*
X1372090Y53173D01*
X1371775Y53150D01*
X1371670D01*
X1371566Y53161D01*
X1371414Y53185D01*
X1371251Y53208D01*
X1371064Y53243D01*
X1370877Y53301D01*
X1370691Y53383D01*
X1370668Y53395D01*
X1370609Y53430D01*
X1370516Y53488D01*
X1370411Y53558D01*
X1370283Y53663D01*
X1370155Y53779D01*
X1370038Y53919D01*
X1369921Y54082D01*
X1369910Y54106D01*
X1369875Y54164D01*
X1369828Y54269D01*
X1369781Y54397D01*
X1369735Y54561D01*
X1369688Y54747D01*
X1369653Y54945D01*
X1369642Y55178D01*
X1370178D01*
Y55167D01*
Y55143D01*
Y55108D01*
X1370190Y55062D01*
X1370201Y54934D01*
X1370236Y54770D01*
X1370283Y54584D01*
X1370364Y54397D01*
X1370469Y54211D01*
X1370609Y54047D01*
X1370633Y54036D01*
X1370691Y53989D01*
X1370784Y53919D01*
X1370912Y53849D01*
X1371087Y53768D01*
X1371286Y53709D01*
X1371519Y53663D01*
X1371775Y53639D01*
X1371880D01*
X1371997Y53663D01*
X1372149Y53686D01*
X1372312Y53721D01*
X1372475Y53779D01*
X1372650Y53861D01*
X1372801Y53978D01*
X1372813Y53989D01*
X1372860Y54036D01*
X1372930Y54117D01*
X1373000Y54222D01*
X1373070Y54362D01*
X1373140Y54514D01*
X1373186Y54700D01*
X1373198Y54899D01*
Y54910D01*
Y54922D01*
Y54992D01*
X1373186Y55097D01*
X1373163Y55225D01*
X1373116Y55365D01*
X1373058Y55517D01*
X1372976Y55668D01*
X1372871Y55796D01*
X1372860Y55808D01*
X1372813Y55855D01*
X1372720Y55913D01*
X1372603Y55995D01*
X1372440Y56100D01*
X1372347Y56146D01*
X1372230Y56204D01*
X1372114Y56251D01*
X1371974Y56309D01*
X1371834Y56368D01*
X1371670Y56426D01*
X1371659D01*
X1371635Y56438D01*
X1371589Y56461D01*
X1371531Y56484D01*
X1371449Y56508D01*
X1371367Y56543D01*
X1371181Y56624D01*
X1370959Y56718D01*
X1370749Y56834D01*
X1370539Y56962D01*
X1370364Y57091D01*
Y57102D01*
X1370341Y57114D01*
X1370283Y57184D01*
X1370190Y57289D01*
X1370096Y57429D01*
X1369991Y57615D01*
X1369898Y57825D01*
X1369840Y58082D01*
X1369828Y58222D01*
X1369816Y58362D01*
Y58373D01*
Y58397D01*
Y58432D01*
X1369828Y58490D01*
Y58560D01*
X1369840Y58630D01*
X1369886Y58816D01*
X1369945Y59015D01*
X1370038Y59224D01*
X1370178Y59434D01*
X1370260Y59539D01*
X1370353Y59633D01*
X1370364Y59644D01*
X1370376Y59656D01*
X1370411Y59679D01*
X1370446Y59714D01*
X1370563Y59784D01*
X1370726Y59877D01*
X1370924Y59971D01*
X1371169Y60041D01*
X1371437Y60099D01*
X1371740Y60122D01*
X1371822D01*
X1371880Y60111D01*
D02*
G37*
G36*
X1295566Y60111D02*
X1295647D01*
X1295741Y60099D01*
X1295950Y60052D01*
X1296184Y59994D01*
X1296428Y59889D01*
X1296673Y59761D01*
X1296778Y59668D01*
X1296883Y59574D01*
X1296895Y59563D01*
X1296906Y59551D01*
X1296930Y59516D01*
X1296965Y59469D01*
X1297011Y59411D01*
X1297058Y59341D01*
X1297105Y59259D01*
X1297151Y59154D01*
X1297210Y59050D01*
X1297256Y58921D01*
X1297315Y58781D01*
X1297361Y58630D01*
X1297396Y58467D01*
X1297431Y58292D01*
X1297454Y58105D01*
X1297478Y57895D01*
X1296941D01*
Y57907D01*
Y57930D01*
X1296930Y57989D01*
Y58047D01*
X1296918Y58117D01*
X1296895Y58210D01*
X1296860Y58408D01*
X1296802Y58618D01*
X1296732Y58840D01*
X1296638Y59038D01*
X1296580Y59131D01*
X1296510Y59213D01*
X1296498Y59236D01*
X1296440Y59283D01*
X1296358Y59341D01*
X1296242Y59423D01*
X1296079Y59493D01*
X1295892Y59563D01*
X1295671Y59609D01*
X1295414Y59621D01*
X1295344D01*
X1295286Y59609D01*
X1295146Y59586D01*
X1294971Y59551D01*
X1294784Y59481D01*
X1294586Y59376D01*
X1294481Y59306D01*
X1294388Y59236D01*
X1294295Y59143D01*
X1294213Y59038D01*
Y59026D01*
X1294190Y59015D01*
X1294178Y58980D01*
X1294143Y58933D01*
X1294108Y58875D01*
X1294073Y58805D01*
X1294038Y58711D01*
X1294003Y58618D01*
X1293956Y58501D01*
X1293922Y58385D01*
X1293887Y58245D01*
X1293852Y58093D01*
X1293817Y57930D01*
X1293805Y57755D01*
X1293782Y57569D01*
Y57371D01*
Y55925D01*
Y55913D01*
Y55878D01*
Y55820D01*
X1293793Y55750D01*
Y55656D01*
X1293805Y55552D01*
X1293817Y55435D01*
X1293828Y55307D01*
X1293887Y55038D01*
X1293956Y54759D01*
X1294050Y54479D01*
X1294190Y54234D01*
Y54222D01*
X1294213Y54211D01*
X1294271Y54141D01*
X1294365Y54047D01*
X1294493Y53943D01*
X1294668Y53826D01*
X1294866Y53733D01*
X1295099Y53663D01*
X1295228Y53651D01*
X1295367Y53639D01*
X1295449D01*
X1295496Y53651D01*
X1295636Y53663D01*
X1295811Y53686D01*
X1295997Y53733D01*
X1296184Y53803D01*
X1296358Y53908D01*
X1296510Y54036D01*
X1296522Y54059D01*
X1296568Y54117D01*
X1296627Y54211D01*
X1296697Y54351D01*
X1296778Y54537D01*
X1296848Y54759D01*
X1296871Y54887D01*
X1296906Y55027D01*
X1296930Y55190D01*
X1296941Y55353D01*
X1297478D01*
Y55342D01*
Y55307D01*
X1297466Y55248D01*
X1297454Y55167D01*
X1297443Y55073D01*
X1297431Y54969D01*
X1297373Y54712D01*
X1297291Y54444D01*
X1297186Y54164D01*
X1297046Y53896D01*
X1296953Y53779D01*
X1296860Y53674D01*
X1296848D01*
X1296836Y53651D01*
X1296802Y53628D01*
X1296767Y53593D01*
X1296708Y53558D01*
X1296638Y53511D01*
X1296475Y53418D01*
X1296265Y53313D01*
X1296009Y53231D01*
X1295706Y53173D01*
X1295542Y53161D01*
X1295367Y53150D01*
X1295274D01*
X1295204Y53161D01*
X1295123Y53173D01*
X1295029Y53185D01*
X1294808Y53243D01*
X1294563Y53325D01*
X1294435Y53395D01*
X1294295Y53464D01*
X1294178Y53546D01*
X1294050Y53639D01*
X1293933Y53756D01*
X1293817Y53884D01*
X1293805Y53896D01*
X1293793Y53919D01*
X1293770Y53966D01*
X1293723Y54024D01*
X1293688Y54094D01*
X1293642Y54187D01*
X1293583Y54292D01*
X1293537Y54421D01*
X1293478Y54561D01*
X1293432Y54712D01*
X1293373Y54875D01*
X1293339Y55050D01*
X1293304Y55248D01*
X1293269Y55458D01*
X1293257Y55680D01*
X1293245Y55913D01*
Y57382D01*
Y57394D01*
Y57441D01*
Y57511D01*
X1293257Y57592D01*
X1293269Y57697D01*
X1293280Y57825D01*
X1293292Y57965D01*
X1293315Y58117D01*
X1293385Y58432D01*
X1293490Y58770D01*
X1293548Y58933D01*
X1293630Y59096D01*
X1293712Y59248D01*
X1293817Y59388D01*
X1293828Y59399D01*
X1293840Y59423D01*
X1293875Y59458D01*
X1293922Y59504D01*
X1293980Y59563D01*
X1294050Y59621D01*
X1294143Y59691D01*
X1294236Y59761D01*
X1294341Y59819D01*
X1294458Y59889D01*
X1294738Y60006D01*
X1294889Y60052D01*
X1295053Y60087D01*
X1295228Y60111D01*
X1295414Y60122D01*
X1295507D01*
X1295566Y60111D01*
D02*
G37*
G36*
X1394104Y56683D02*
X1396028Y53243D01*
X1395387D01*
X1393778Y56193D01*
X1392157Y53243D01*
X1391527D01*
X1393463Y56683D01*
X1391586Y60029D01*
X1392215D01*
X1393778Y57161D01*
X1395340Y60029D01*
X1395970D01*
X1394104Y56683D01*
D02*
G37*
G36*
X1430763Y53243D02*
X1430227D01*
X1427032Y59015D01*
Y53243D01*
X1426496D01*
Y60029D01*
X1427032D01*
X1430239Y54234D01*
Y60029D01*
X1430763D01*
Y53243D01*
D02*
G37*
G36*
X1420141Y53243D02*
X1419605D01*
Y56181D01*
X1419651Y59143D01*
X1417576Y53243D01*
X1417156D01*
X1415092Y59108D01*
X1415139Y56193D01*
Y53243D01*
X1414602D01*
Y60029D01*
X1415314D01*
X1417366Y54048D01*
X1419430Y60029D01*
X1420141D01*
Y53243D01*
D02*
G37*
G36*
X1355906Y53243D02*
X1355370D01*
Y56181D01*
X1355416Y59143D01*
X1353341Y53243D01*
X1352921D01*
X1350857Y59108D01*
X1350904Y56193D01*
Y53243D01*
X1350368D01*
Y60029D01*
X1351079D01*
X1353131Y54047D01*
X1355195Y60029D01*
X1355906D01*
Y53243D01*
D02*
G37*
G36*
X1436255Y59528D02*
X1434331D01*
Y53243D01*
X1433795D01*
Y59528D01*
X1431871D01*
Y60029D01*
X1436255D01*
Y59528D01*
D02*
G37*
G36*
X1425283Y59528D02*
X1422275D01*
Y56986D01*
X1424910D01*
Y56496D01*
X1422275D01*
Y53733D01*
X1425306D01*
Y53243D01*
X1421739D01*
Y60029D01*
X1425283D01*
Y59528D01*
D02*
G37*
G36*
X1412900Y53243D02*
X1412376D01*
Y60029D01*
X1412900D01*
Y53243D01*
D02*
G37*
G36*
X1409029Y60017D02*
X1409111D01*
X1409192Y60006D01*
X1409402Y59959D01*
X1409635Y59901D01*
X1409869Y59807D01*
X1410102Y59668D01*
X1410207Y59586D01*
X1410312Y59493D01*
X1410323D01*
X1410335Y59469D01*
X1410358Y59434D01*
X1410393Y59399D01*
X1410428Y59341D01*
X1410475Y59283D01*
X1410568Y59108D01*
X1410662Y58898D01*
X1410743Y58653D01*
X1410801Y58362D01*
X1410825Y58198D01*
Y58024D01*
Y58012D01*
Y58000D01*
Y57965D01*
Y57919D01*
X1410813Y57790D01*
X1410790Y57639D01*
X1410743Y57452D01*
X1410697Y57266D01*
X1410615Y57067D01*
X1410510Y56869D01*
X1410498Y56846D01*
X1410452Y56788D01*
X1410382Y56706D01*
X1410288Y56601D01*
X1410160Y56484D01*
X1410020Y56379D01*
X1409845Y56274D01*
X1409659Y56193D01*
X1411070Y53301D01*
Y53243D01*
X1410498D01*
X1409134Y56076D01*
X1407548D01*
Y53243D01*
X1407012D01*
Y60029D01*
X1408971D01*
X1409029Y60017D01*
D02*
G37*
G36*
X1405823Y59528D02*
X1402814D01*
Y56986D01*
X1405449D01*
Y56496D01*
X1402814D01*
Y53733D01*
X1405846D01*
Y53243D01*
X1402278D01*
Y60029D01*
X1405823D01*
Y59528D01*
D02*
G37*
G36*
X1399270Y60017D02*
X1399340D01*
X1399433Y60006D01*
X1399631Y59959D01*
X1399853Y59901D01*
X1400097Y59796D01*
X1400319Y59668D01*
X1400424Y59574D01*
X1400529Y59481D01*
X1400541Y59469D01*
X1400552Y59458D01*
X1400576Y59423D01*
X1400611Y59388D01*
X1400646Y59329D01*
X1400692Y59259D01*
X1400797Y59096D01*
X1400890Y58886D01*
X1400972Y58630D01*
X1401030Y58338D01*
X1401054Y58175D01*
Y58000D01*
Y57989D01*
Y57954D01*
Y57907D01*
X1401042Y57837D01*
Y57755D01*
X1401030Y57662D01*
X1400995Y57452D01*
X1400937Y57219D01*
X1400844Y56963D01*
X1400716Y56729D01*
X1400646Y56624D01*
X1400552Y56519D01*
X1400529Y56496D01*
X1400459Y56438D01*
X1400342Y56356D01*
X1400179Y56263D01*
X1399981Y56170D01*
X1399736Y56088D01*
X1399444Y56030D01*
X1399281Y56018D01*
X1399106Y56006D01*
X1397672D01*
Y53243D01*
X1397147D01*
Y60029D01*
X1399200D01*
X1399270Y60017D01*
D02*
G37*
G36*
X1390816Y59528D02*
X1387808D01*
Y56986D01*
X1390443D01*
Y56496D01*
X1387808D01*
Y53733D01*
X1390839D01*
Y53243D01*
X1387271D01*
Y60029D01*
X1390816D01*
Y59528D01*
D02*
G37*
G36*
X1381476Y60017D02*
X1381570Y60006D01*
X1381675Y59994D01*
X1381791Y59971D01*
X1381920Y59936D01*
X1382199Y59854D01*
X1382339Y59796D01*
X1382491Y59726D01*
X1382631Y59644D01*
X1382771Y59551D01*
X1382899Y59446D01*
X1383027Y59318D01*
X1383039Y59306D01*
X1383051Y59283D01*
X1383086Y59248D01*
X1383132Y59189D01*
X1383179Y59120D01*
X1383237Y59026D01*
X1383295Y58921D01*
X1383354Y58805D01*
X1383412Y58676D01*
X1383482Y58525D01*
X1383529Y58373D01*
X1383587Y58198D01*
X1383622Y58012D01*
X1383657Y57814D01*
X1383680Y57592D01*
X1383692Y57371D01*
Y55948D01*
Y55936D01*
Y55890D01*
Y55831D01*
X1383680Y55738D01*
X1383669Y55633D01*
X1383657Y55505D01*
X1383634Y55377D01*
X1383610Y55225D01*
X1383529Y54899D01*
X1383412Y54572D01*
X1383342Y54409D01*
X1383261Y54246D01*
X1383156Y54094D01*
X1383039Y53954D01*
X1383027Y53943D01*
X1383004Y53919D01*
X1382969Y53884D01*
X1382922Y53849D01*
X1382852Y53791D01*
X1382771Y53733D01*
X1382677Y53663D01*
X1382572Y53604D01*
X1382444Y53534D01*
X1382316Y53464D01*
X1382164Y53406D01*
X1382001Y53360D01*
X1381826Y53313D01*
X1381640Y53278D01*
X1381430Y53255D01*
X1381220Y53243D01*
X1379681D01*
Y60029D01*
X1381395D01*
X1381476Y60017D01*
D02*
G37*
G36*
X1378480Y59528D02*
X1375472D01*
Y56986D01*
X1378107D01*
Y56496D01*
X1375472D01*
Y53733D01*
X1378503D01*
Y53243D01*
X1374935D01*
Y60029D01*
X1378480D01*
Y59528D01*
D02*
G37*
G36*
X1369000Y53243D02*
X1368441D01*
X1367858Y55143D01*
X1365316D01*
X1364733Y53243D01*
X1364173D01*
X1366342Y60029D01*
X1366831D01*
X1369000Y53243D01*
D02*
G37*
G36*
X1361526Y60017D02*
X1361608D01*
X1361689Y60006D01*
X1361899Y59971D01*
X1362121Y59924D01*
X1362354Y59842D01*
X1362564Y59726D01*
X1362762Y59574D01*
X1362786Y59551D01*
X1362832Y59493D01*
X1362914Y59388D01*
X1363007Y59236D01*
X1363089Y59050D01*
X1363170Y58816D01*
X1363217Y58548D01*
X1363240Y58245D01*
Y58222D01*
Y58152D01*
X1363229Y58059D01*
X1363205Y57930D01*
X1363182Y57790D01*
X1363135Y57639D01*
X1363077Y57487D01*
X1362995Y57336D01*
X1362984Y57324D01*
X1362949Y57277D01*
X1362891Y57207D01*
X1362821Y57126D01*
X1362727Y57032D01*
X1362611Y56939D01*
X1362482Y56846D01*
X1362331Y56776D01*
X1362354Y56764D01*
X1362412Y56753D01*
X1362506Y56706D01*
X1362611Y56659D01*
X1362739Y56578D01*
X1362867Y56473D01*
X1363007Y56344D01*
X1363124Y56193D01*
X1363135Y56170D01*
X1363170Y56111D01*
X1363217Y56018D01*
X1363275Y55901D01*
X1363334Y55738D01*
X1363380Y55563D01*
X1363415Y55365D01*
X1363427Y55143D01*
Y55132D01*
Y55108D01*
Y55062D01*
X1363415Y54992D01*
Y54922D01*
X1363404Y54840D01*
X1363369Y54642D01*
X1363310Y54409D01*
X1363217Y54176D01*
X1363100Y53954D01*
X1362937Y53744D01*
X1362914Y53721D01*
X1362844Y53663D01*
X1362739Y53581D01*
X1362587Y53499D01*
X1362389Y53406D01*
X1362156Y53325D01*
X1361888Y53266D01*
X1361736Y53255D01*
X1361573Y53243D01*
X1359649D01*
Y60029D01*
X1361468D01*
X1361526Y60017D01*
D02*
G37*
G36*
X1341494D02*
X1341576D01*
X1341658Y60006D01*
X1341868Y59959D01*
X1342101Y59901D01*
X1342334Y59807D01*
X1342567Y59668D01*
X1342672Y59586D01*
X1342777Y59493D01*
X1342789D01*
X1342800Y59469D01*
X1342824Y59434D01*
X1342859Y59399D01*
X1342894Y59341D01*
X1342940Y59283D01*
X1343034Y59108D01*
X1343127Y58898D01*
X1343208Y58653D01*
X1343267Y58362D01*
X1343290Y58198D01*
Y58024D01*
Y58012D01*
Y58000D01*
Y57965D01*
Y57919D01*
X1343278Y57790D01*
X1343255Y57639D01*
X1343208Y57452D01*
X1343162Y57266D01*
X1343080Y57067D01*
X1342975Y56869D01*
X1342964Y56846D01*
X1342917Y56788D01*
X1342847Y56706D01*
X1342754Y56601D01*
X1342625Y56484D01*
X1342485Y56379D01*
X1342311Y56274D01*
X1342124Y56193D01*
X1343535Y53301D01*
Y53243D01*
X1342964D01*
X1341599Y56076D01*
X1340014D01*
Y53243D01*
X1339477D01*
Y60029D01*
X1341436D01*
X1341494Y60017D01*
D02*
G37*
G36*
X1336142Y59528D02*
X1333134D01*
Y56986D01*
X1335769D01*
Y56496D01*
X1333134D01*
Y53733D01*
X1336166D01*
Y53243D01*
X1332598D01*
Y60029D01*
X1336142D01*
Y59528D01*
D02*
G37*
G36*
X1329589Y60017D02*
X1329659D01*
X1329753Y60006D01*
X1329951Y59959D01*
X1330173Y59901D01*
X1330417Y59796D01*
X1330639Y59668D01*
X1330744Y59574D01*
X1330849Y59481D01*
X1330860Y59469D01*
X1330872Y59458D01*
X1330895Y59423D01*
X1330930Y59388D01*
X1330965Y59329D01*
X1331012Y59259D01*
X1331117Y59096D01*
X1331210Y58886D01*
X1331292Y58630D01*
X1331350Y58338D01*
X1331374Y58175D01*
Y58000D01*
Y57989D01*
Y57954D01*
Y57907D01*
X1331362Y57837D01*
Y57755D01*
X1331350Y57662D01*
X1331315Y57452D01*
X1331257Y57219D01*
X1331164Y56962D01*
X1331035Y56729D01*
X1330965Y56624D01*
X1330872Y56519D01*
X1330849Y56496D01*
X1330779Y56438D01*
X1330662Y56356D01*
X1330499Y56263D01*
X1330301Y56170D01*
X1330056Y56088D01*
X1329764Y56030D01*
X1329601Y56018D01*
X1329426Y56006D01*
X1327992D01*
Y53243D01*
X1327467D01*
Y60029D01*
X1329519D01*
X1329589Y60017D01*
D02*
G37*
G36*
X1318583D02*
X1318664D01*
X1318746Y60006D01*
X1318956Y59959D01*
X1319189Y59901D01*
X1319422Y59807D01*
X1319655Y59668D01*
X1319760Y59586D01*
X1319865Y59493D01*
X1319877D01*
X1319888Y59469D01*
X1319912Y59434D01*
X1319947Y59399D01*
X1319982Y59341D01*
X1320028Y59283D01*
X1320122Y59108D01*
X1320215Y58898D01*
X1320296Y58653D01*
X1320355Y58362D01*
X1320378Y58198D01*
Y58024D01*
Y58012D01*
Y58000D01*
Y57965D01*
Y57919D01*
X1320366Y57790D01*
X1320343Y57639D01*
X1320296Y57452D01*
X1320250Y57266D01*
X1320168Y57067D01*
X1320063Y56869D01*
X1320052Y56846D01*
X1320005Y56788D01*
X1319935Y56706D01*
X1319842Y56601D01*
X1319713Y56484D01*
X1319574Y56379D01*
X1319399Y56274D01*
X1319212Y56193D01*
X1320623Y53301D01*
Y53243D01*
X1320052D01*
X1318687Y56076D01*
X1317102D01*
Y53243D01*
X1316565D01*
Y60029D01*
X1318524D01*
X1318583Y60017D01*
D02*
G37*
G36*
X1313231Y59528D02*
X1310222D01*
Y56986D01*
X1312857D01*
Y56496D01*
X1310222D01*
Y53733D01*
X1313254D01*
Y53243D01*
X1309686D01*
Y60029D01*
X1313231D01*
Y59528D01*
D02*
G37*
G36*
X1306444Y60017D02*
X1306526D01*
X1306608Y60006D01*
X1306818Y59959D01*
X1307051Y59901D01*
X1307284Y59807D01*
X1307517Y59668D01*
X1307622Y59586D01*
X1307727Y59493D01*
X1307739D01*
X1307750Y59469D01*
X1307774Y59434D01*
X1307809Y59399D01*
X1307844Y59341D01*
X1307890Y59283D01*
X1307983Y59108D01*
X1308077Y58898D01*
X1308158Y58653D01*
X1308217Y58362D01*
X1308240Y58198D01*
Y58024D01*
Y58012D01*
Y58000D01*
Y57965D01*
Y57919D01*
X1308228Y57790D01*
X1308205Y57639D01*
X1308158Y57452D01*
X1308112Y57266D01*
X1308030Y57067D01*
X1307925Y56869D01*
X1307914Y56846D01*
X1307867Y56788D01*
X1307797Y56706D01*
X1307704Y56601D01*
X1307575Y56484D01*
X1307436Y56379D01*
X1307261Y56274D01*
X1307074Y56193D01*
X1308485Y53301D01*
Y53243D01*
X1307914D01*
X1306549Y56076D01*
X1304964D01*
Y53243D01*
X1304427D01*
Y60029D01*
X1306386D01*
X1306444Y60017D01*
D02*
G37*
G36*
X1290260Y53243D02*
X1289701D01*
X1289118Y55143D01*
X1286576D01*
X1285993Y53243D01*
X1285433D01*
X1287602Y60029D01*
X1288091D01*
X1290260Y53243D01*
D02*
G37*
G36*
X1346928Y60111D02*
X1347009Y60099D01*
X1347114Y60087D01*
X1347348Y60029D01*
X1347604Y59947D01*
X1347733Y59889D01*
X1347872Y59807D01*
X1348001Y59726D01*
X1348129Y59633D01*
X1348246Y59516D01*
X1348362Y59388D01*
X1348374Y59376D01*
X1348385Y59353D01*
X1348420Y59318D01*
X1348455Y59259D01*
X1348502Y59178D01*
X1348549Y59085D01*
X1348595Y58980D01*
X1348654Y58863D01*
X1348712Y58723D01*
X1348759Y58571D01*
X1348805Y58408D01*
X1348852Y58222D01*
X1348887Y58024D01*
X1348922Y57814D01*
X1348933Y57592D01*
X1348945Y57347D01*
Y55890D01*
Y55878D01*
Y55831D01*
Y55761D01*
X1348933Y55680D01*
Y55563D01*
X1348910Y55435D01*
X1348899Y55295D01*
X1348875Y55143D01*
X1348805Y54817D01*
X1348700Y54479D01*
X1348642Y54316D01*
X1348560Y54152D01*
X1348479Y54001D01*
X1348374Y53861D01*
X1348362Y53849D01*
X1348350Y53826D01*
X1348316Y53791D01*
X1348269Y53756D01*
X1348211Y53698D01*
X1348141Y53639D01*
X1348059Y53569D01*
X1347954Y53511D01*
X1347849Y53441D01*
X1347733Y53371D01*
X1347593Y53313D01*
X1347453Y53266D01*
X1347289Y53220D01*
X1347126Y53185D01*
X1346940Y53161D01*
X1346753Y53150D01*
X1346660D01*
X1346590Y53161D01*
X1346496Y53173D01*
X1346403Y53185D01*
X1346170Y53243D01*
X1345914Y53325D01*
X1345774Y53383D01*
X1345645Y53453D01*
X1345505Y53534D01*
X1345377Y53628D01*
X1345261Y53733D01*
X1345144Y53861D01*
X1345132Y53873D01*
X1345121Y53896D01*
X1345086Y53931D01*
X1345051Y53989D01*
X1345004Y54071D01*
X1344957Y54164D01*
X1344911Y54269D01*
X1344852Y54386D01*
X1344794Y54526D01*
X1344748Y54677D01*
X1344689Y54840D01*
X1344643Y55015D01*
X1344608Y55213D01*
X1344584Y55423D01*
X1344561Y55645D01*
X1344549Y55878D01*
Y57359D01*
Y57371D01*
Y57417D01*
Y57487D01*
X1344561Y57580D01*
X1344573Y57685D01*
X1344584Y57814D01*
X1344596Y57954D01*
X1344619Y58105D01*
X1344689Y58432D01*
X1344794Y58770D01*
X1344864Y58933D01*
X1344946Y59096D01*
X1345027Y59248D01*
X1345132Y59388D01*
X1345144Y59399D01*
X1345156Y59423D01*
X1345191Y59458D01*
X1345237Y59504D01*
X1345296Y59563D01*
X1345377Y59621D01*
X1345459Y59691D01*
X1345552Y59761D01*
X1345669Y59819D01*
X1345785Y59889D01*
X1345914Y59947D01*
X1346065Y60006D01*
X1346217Y60052D01*
X1346391Y60087D01*
X1346566Y60111D01*
X1346753Y60122D01*
X1346858D01*
X1346928Y60111D01*
D02*
G37*
G36*
X1324016D02*
X1324098Y60099D01*
X1324203Y60087D01*
X1324436Y60029D01*
X1324692Y59947D01*
X1324821Y59889D01*
X1324961Y59807D01*
X1325089Y59726D01*
X1325217Y59633D01*
X1325334Y59516D01*
X1325450Y59388D01*
X1325462Y59376D01*
X1325473Y59353D01*
X1325508Y59318D01*
X1325543Y59259D01*
X1325590Y59178D01*
X1325637Y59085D01*
X1325683Y58980D01*
X1325742Y58863D01*
X1325800Y58723D01*
X1325847Y58571D01*
X1325893Y58408D01*
X1325940Y58222D01*
X1325975Y58024D01*
X1326010Y57814D01*
X1326021Y57592D01*
X1326033Y57347D01*
Y55890D01*
Y55878D01*
Y55831D01*
Y55761D01*
X1326021Y55680D01*
Y55563D01*
X1325998Y55435D01*
X1325986Y55295D01*
X1325963Y55143D01*
X1325893Y54817D01*
X1325788Y54479D01*
X1325730Y54316D01*
X1325648Y54152D01*
X1325567Y54001D01*
X1325462Y53861D01*
X1325450Y53849D01*
X1325438Y53826D01*
X1325403Y53791D01*
X1325357Y53756D01*
X1325299Y53698D01*
X1325229Y53639D01*
X1325147Y53569D01*
X1325042Y53511D01*
X1324937Y53441D01*
X1324821Y53371D01*
X1324681Y53313D01*
X1324541Y53266D01*
X1324378Y53220D01*
X1324214Y53185D01*
X1324028Y53161D01*
X1323841Y53150D01*
X1323748D01*
X1323678Y53161D01*
X1323585Y53173D01*
X1323491Y53185D01*
X1323258Y53243D01*
X1323002Y53325D01*
X1322862Y53383D01*
X1322733Y53453D01*
X1322593Y53534D01*
X1322465Y53628D01*
X1322349Y53733D01*
X1322232Y53861D01*
X1322220Y53873D01*
X1322209Y53896D01*
X1322174Y53931D01*
X1322139Y53989D01*
X1322092Y54071D01*
X1322046Y54164D01*
X1321999Y54269D01*
X1321941Y54386D01*
X1321882Y54526D01*
X1321836Y54677D01*
X1321777Y54840D01*
X1321731Y55015D01*
X1321696Y55213D01*
X1321672Y55423D01*
X1321649Y55645D01*
X1321637Y55878D01*
Y57359D01*
Y57371D01*
Y57417D01*
Y57487D01*
X1321649Y57580D01*
X1321661Y57685D01*
X1321672Y57814D01*
X1321684Y57954D01*
X1321707Y58105D01*
X1321777Y58432D01*
X1321882Y58770D01*
X1321952Y58933D01*
X1322034Y59096D01*
X1322115Y59248D01*
X1322220Y59388D01*
X1322232Y59399D01*
X1322244Y59423D01*
X1322279Y59458D01*
X1322325Y59504D01*
X1322384Y59563D01*
X1322465Y59621D01*
X1322547Y59691D01*
X1322640Y59761D01*
X1322757Y59819D01*
X1322873Y59889D01*
X1323002Y59947D01*
X1323153Y60006D01*
X1323305Y60052D01*
X1323480Y60087D01*
X1323655Y60111D01*
X1323841Y60122D01*
X1323946D01*
X1324016Y60111D01*
D02*
G37*
G36*
X1300999Y60111D02*
X1301081Y60099D01*
X1301186Y60087D01*
X1301419Y60029D01*
X1301675Y59947D01*
X1301804Y59889D01*
X1301944Y59807D01*
X1302072Y59726D01*
X1302200Y59633D01*
X1302317Y59516D01*
X1302433Y59388D01*
X1302445Y59376D01*
X1302457Y59353D01*
X1302492Y59318D01*
X1302527Y59259D01*
X1302573Y59178D01*
X1302620Y59085D01*
X1302666Y58980D01*
X1302725Y58863D01*
X1302783Y58723D01*
X1302830Y58571D01*
X1302876Y58408D01*
X1302923Y58222D01*
X1302958Y58024D01*
X1302993Y57814D01*
X1303005Y57592D01*
X1303016Y57347D01*
Y55890D01*
Y55878D01*
Y55831D01*
Y55761D01*
X1303005Y55680D01*
Y55563D01*
X1302981Y55435D01*
X1302970Y55295D01*
X1302946Y55143D01*
X1302876Y54817D01*
X1302771Y54479D01*
X1302713Y54316D01*
X1302632Y54152D01*
X1302550Y54001D01*
X1302445Y53861D01*
X1302433Y53849D01*
X1302422Y53826D01*
X1302387Y53791D01*
X1302340Y53756D01*
X1302282Y53698D01*
X1302212Y53639D01*
X1302130Y53569D01*
X1302025Y53511D01*
X1301920Y53441D01*
X1301804Y53371D01*
X1301664Y53313D01*
X1301524Y53266D01*
X1301361Y53220D01*
X1301197Y53185D01*
X1301011Y53161D01*
X1300824Y53150D01*
X1300731D01*
X1300661Y53161D01*
X1300568Y53173D01*
X1300474Y53185D01*
X1300241Y53243D01*
X1299985Y53325D01*
X1299845Y53383D01*
X1299717Y53453D01*
X1299577Y53534D01*
X1299448Y53628D01*
X1299332Y53733D01*
X1299215Y53861D01*
X1299203Y53873D01*
X1299192Y53896D01*
X1299157Y53931D01*
X1299122Y53989D01*
X1299075Y54071D01*
X1299029Y54164D01*
X1298982Y54269D01*
X1298924Y54386D01*
X1298865Y54526D01*
X1298819Y54677D01*
X1298760Y54840D01*
X1298714Y55015D01*
X1298679Y55213D01*
X1298656Y55423D01*
X1298632Y55645D01*
X1298621Y55878D01*
Y57359D01*
Y57371D01*
Y57417D01*
Y57487D01*
X1298632Y57580D01*
X1298644Y57685D01*
X1298656Y57814D01*
X1298667Y57954D01*
X1298691Y58105D01*
X1298760Y58432D01*
X1298865Y58770D01*
X1298935Y58933D01*
X1299017Y59096D01*
X1299099Y59248D01*
X1299203Y59388D01*
X1299215Y59399D01*
X1299227Y59423D01*
X1299262Y59458D01*
X1299308Y59504D01*
X1299367Y59563D01*
X1299448Y59621D01*
X1299530Y59691D01*
X1299623Y59761D01*
X1299740Y59819D01*
X1299856Y59889D01*
X1299985Y59947D01*
X1300136Y60006D01*
X1300288Y60052D01*
X1300463Y60087D01*
X1300638Y60111D01*
X1300824Y60122D01*
X1300929D01*
X1300999Y60111D01*
D02*
G37*
G36*
X1205357Y92262D02*
X1205689D01*
X1206021Y92168D01*
X1206826Y92025D01*
X1207726Y91741D01*
X1208674Y91315D01*
X1209148Y91078D01*
X1209622Y90746D01*
X1210095Y90414D01*
X1210522Y89988D01*
X1210569Y89941D01*
X1210616Y89893D01*
X1210711Y89751D01*
X1210901Y89562D01*
X1211043Y89325D01*
X1211232Y89040D01*
X1211659Y88377D01*
X1212085Y87524D01*
X1212464Y86482D01*
X1212701Y85345D01*
X1212749Y84681D01*
X1212796Y84018D01*
X1210616D01*
Y84066D01*
Y84160D01*
Y84302D01*
Y84492D01*
X1210522Y85013D01*
X1210427Y85629D01*
X1210238Y86340D01*
X1209953Y87098D01*
X1209574Y87856D01*
X1209053Y88519D01*
X1209006Y88614D01*
X1208769Y88803D01*
X1208437Y89088D01*
X1207916Y89419D01*
X1207347Y89704D01*
X1206589Y89988D01*
X1205736Y90178D01*
X1204789Y90272D01*
X1204362D01*
X1203889Y90178D01*
X1203320Y90083D01*
X1202657Y89941D01*
X1201946Y89656D01*
X1201283Y89325D01*
X1200667Y88851D01*
X1200619Y88803D01*
X1200430Y88614D01*
X1200193Y88282D01*
X1199909Y87856D01*
X1199624Y87335D01*
X1199387Y86719D01*
X1199198Y86008D01*
X1199151Y85203D01*
Y85108D01*
X1199198Y84871D01*
X1199245Y84492D01*
X1199340Y84018D01*
X1199482Y83450D01*
X1199767Y82881D01*
X1200098Y82313D01*
X1200572Y81791D01*
X1200619Y81744D01*
X1200856Y81554D01*
X1201188Y81318D01*
X1201662Y80986D01*
X1202278Y80654D01*
X1203083Y80228D01*
X1203983Y79801D01*
X1205073Y79422D01*
X1205120D01*
X1205215Y79375D01*
X1205357Y79327D01*
X1205594Y79233D01*
X1206163Y79043D01*
X1206826Y78759D01*
X1207584Y78427D01*
X1208390Y78048D01*
X1209100Y77669D01*
X1209764Y77243D01*
X1209859Y77195D01*
X1210048Y77053D01*
X1210332Y76816D01*
X1210664Y76532D01*
X1211043Y76106D01*
X1211422Y75679D01*
X1211801Y75205D01*
X1212133Y74637D01*
X1212180Y74590D01*
X1212275Y74400D01*
X1212370Y74068D01*
X1212512Y73642D01*
X1212654Y73121D01*
X1212796Y72552D01*
X1212843Y71889D01*
X1212891Y71131D01*
Y71083D01*
Y70989D01*
Y70799D01*
X1212843Y70610D01*
Y70325D01*
X1212796Y69994D01*
X1212607Y69283D01*
X1212370Y68430D01*
X1211991Y67577D01*
X1211422Y66724D01*
X1211090Y66298D01*
X1210711Y65919D01*
X1210664D01*
X1210616Y65824D01*
X1210474Y65729D01*
X1210332Y65635D01*
X1209811Y65303D01*
X1209195Y64971D01*
X1208342Y64592D01*
X1207347Y64261D01*
X1206210Y64071D01*
X1204931Y63976D01*
X1204504D01*
X1204078Y64024D01*
X1203462Y64118D01*
X1202799Y64213D01*
X1202041Y64355D01*
X1201283Y64592D01*
X1200525Y64924D01*
X1200430Y64971D01*
X1200193Y65114D01*
X1199814Y65350D01*
X1199387Y65635D01*
X1198866Y66061D01*
X1198345Y66535D01*
X1197871Y67103D01*
X1197398Y67767D01*
X1197350Y67861D01*
X1197208Y68098D01*
X1197019Y68525D01*
X1196829Y69046D01*
X1196639Y69709D01*
X1196450Y70467D01*
X1196308Y71273D01*
X1196260Y72220D01*
X1198440D01*
Y72173D01*
Y72078D01*
Y71936D01*
X1198487Y71747D01*
X1198535Y71226D01*
X1198677Y70562D01*
X1198866Y69804D01*
X1199198Y69046D01*
X1199624Y68288D01*
X1200193Y67625D01*
X1200288Y67577D01*
X1200525Y67388D01*
X1200904Y67103D01*
X1201425Y66819D01*
X1202135Y66487D01*
X1202941Y66251D01*
X1203889Y66061D01*
X1204931Y65966D01*
X1205357D01*
X1205831Y66061D01*
X1206447Y66156D01*
X1207110Y66298D01*
X1207774Y66535D01*
X1208484Y66867D01*
X1209100Y67340D01*
X1209148Y67388D01*
X1209337Y67577D01*
X1209622Y67909D01*
X1209906Y68335D01*
X1210190Y68904D01*
X1210474Y69520D01*
X1210664Y70278D01*
X1210711Y71083D01*
Y71131D01*
Y71178D01*
Y71462D01*
X1210664Y71889D01*
X1210569Y72410D01*
X1210380Y72979D01*
X1210143Y73594D01*
X1209811Y74211D01*
X1209385Y74732D01*
X1209337Y74779D01*
X1209148Y74969D01*
X1208769Y75205D01*
X1208295Y75537D01*
X1207632Y75963D01*
X1207253Y76153D01*
X1206779Y76390D01*
X1206305Y76579D01*
X1205736Y76816D01*
X1205168Y77053D01*
X1204504Y77290D01*
X1204457D01*
X1204362Y77337D01*
X1204173Y77432D01*
X1203936Y77527D01*
X1203604Y77622D01*
X1203273Y77764D01*
X1202515Y78096D01*
X1201614Y78475D01*
X1200762Y78948D01*
X1199909Y79470D01*
X1199198Y79991D01*
Y80038D01*
X1199103Y80086D01*
X1198866Y80370D01*
X1198487Y80796D01*
X1198108Y81365D01*
X1197682Y82123D01*
X1197303Y82976D01*
X1197066Y84018D01*
X1197019Y84587D01*
X1196971Y85155D01*
Y85203D01*
Y85297D01*
Y85439D01*
X1197019Y85676D01*
Y85961D01*
X1197066Y86245D01*
X1197255Y87003D01*
X1197492Y87809D01*
X1197871Y88661D01*
X1198440Y89514D01*
X1198771Y89941D01*
X1199151Y90320D01*
X1199198Y90367D01*
X1199245Y90414D01*
X1199387Y90509D01*
X1199530Y90651D01*
X1200003Y90936D01*
X1200667Y91315D01*
X1201472Y91694D01*
X1202467Y91978D01*
X1203557Y92215D01*
X1204789Y92310D01*
X1205120D01*
X1205357Y92262D01*
D02*
G37*
G36*
X1168164Y64355D02*
X1166127D01*
X1160915Y85819D01*
X1160394Y88377D01*
X1159873Y85819D01*
X1154566Y64355D01*
X1152481D01*
X1146653Y91931D01*
X1148880D01*
X1152955Y71842D01*
X1153618Y67719D01*
X1154471Y71652D01*
X1159399Y91931D01*
X1161341D01*
X1166222Y71652D01*
X1167027Y67719D01*
X1167738Y71842D01*
X1171812Y91931D01*
X1174039D01*
X1168164Y64355D01*
D02*
G37*
G36*
X1270837Y64355D02*
X1268657D01*
Y76295D01*
X1268847Y88330D01*
X1260413Y64355D01*
X1258707D01*
X1250321Y88188D01*
X1250511Y76343D01*
Y64355D01*
X1248331D01*
Y91931D01*
X1251221D01*
X1259560Y67625D01*
X1267946Y91931D01*
X1270837D01*
Y64355D01*
D02*
G37*
G36*
X1244256D02*
X1241982D01*
X1239613Y72078D01*
X1229284Y72078D01*
X1226915Y64355D01*
X1224641D01*
X1233454Y91931D01*
X1235444D01*
X1244256Y64355D01*
D02*
G37*
G36*
X1192849Y89893D02*
X1180625D01*
Y79564D01*
X1191333D01*
Y77574D01*
X1180625D01*
Y66345D01*
X1192944D01*
Y64355D01*
X1178446D01*
Y91931D01*
X1192849D01*
Y89893D01*
D02*
G37*
G36*
X1219335Y67293D02*
X1219713Y67151D01*
X1220092Y66867D01*
X1220140Y66772D01*
X1220329Y66535D01*
X1220472Y66203D01*
X1220519Y65729D01*
Y65682D01*
Y65635D01*
X1220472Y65350D01*
X1220329Y64971D01*
X1220092Y64640D01*
X1219998Y64592D01*
X1219808Y64450D01*
X1219429Y64261D01*
X1218908Y64213D01*
X1218766D01*
X1218482Y64261D01*
X1218103Y64403D01*
X1217723Y64640D01*
X1217676Y64735D01*
X1217534Y64924D01*
X1217344Y65303D01*
X1217297Y65729D01*
Y65777D01*
Y65824D01*
X1217344Y66109D01*
X1217487Y66487D01*
X1217723Y66867D01*
X1217818Y66961D01*
X1218055Y67103D01*
X1218387Y67246D01*
X1218908Y67340D01*
X1219050D01*
X1219335Y67293D01*
D02*
G37*
G36*
X1299880Y49284D02*
X1299961D01*
X1300043Y49261D01*
X1300241Y49226D01*
X1300463Y49156D01*
X1300696Y49051D01*
X1300813Y48992D01*
X1300929Y48911D01*
X1301046Y48829D01*
X1301151Y48724D01*
X1301162Y48713D01*
X1301174Y48701D01*
X1301197Y48666D01*
X1301244Y48619D01*
X1301279Y48561D01*
X1301326Y48491D01*
X1301431Y48328D01*
X1301536Y48118D01*
X1301629Y47861D01*
X1301687Y47581D01*
X1301699Y47418D01*
X1301710Y47255D01*
X1301174D01*
Y47267D01*
Y47290D01*
Y47325D01*
Y47372D01*
X1301151Y47500D01*
X1301127Y47651D01*
X1301081Y47826D01*
X1301011Y48013D01*
X1300918Y48199D01*
X1300789Y48363D01*
X1300778Y48386D01*
X1300719Y48433D01*
X1300638Y48503D01*
X1300509Y48584D01*
X1300369Y48654D01*
X1300183Y48724D01*
X1299973Y48771D01*
X1299740Y48794D01*
X1299635D01*
X1299518Y48771D01*
X1299378Y48748D01*
X1299215Y48713D01*
X1299040Y48643D01*
X1298877Y48561D01*
X1298726Y48444D01*
X1298714Y48433D01*
X1298667Y48386D01*
X1298609Y48304D01*
X1298539Y48199D01*
X1298469Y48071D01*
X1298411Y47920D01*
X1298364Y47745D01*
X1298352Y47546D01*
Y47523D01*
X1298364Y47465D01*
X1298376Y47372D01*
X1298399Y47255D01*
X1298434Y47115D01*
X1298504Y46975D01*
X1298586Y46835D01*
X1298702Y46707D01*
X1298714Y46695D01*
X1298772Y46649D01*
X1298854Y46590D01*
X1298970Y46509D01*
X1299122Y46427D01*
X1299320Y46322D01*
X1299542Y46217D01*
X1299810Y46124D01*
X1299821D01*
X1299845Y46112D01*
X1299880Y46101D01*
X1299938Y46077D01*
X1300078Y46031D01*
X1300241Y45961D01*
X1300428Y45879D01*
X1300626Y45786D01*
X1300801Y45693D01*
X1300964Y45588D01*
X1300988Y45576D01*
X1301034Y45541D01*
X1301104Y45483D01*
X1301186Y45413D01*
X1301279Y45308D01*
X1301372Y45203D01*
X1301466Y45086D01*
X1301547Y44946D01*
X1301559Y44935D01*
X1301582Y44888D01*
X1301606Y44806D01*
X1301641Y44701D01*
X1301675Y44573D01*
X1301710Y44433D01*
X1301722Y44270D01*
X1301734Y44083D01*
Y44072D01*
Y44049D01*
Y44002D01*
X1301722Y43955D01*
Y43885D01*
X1301710Y43804D01*
X1301664Y43629D01*
X1301606Y43419D01*
X1301512Y43209D01*
X1301372Y42999D01*
X1301291Y42894D01*
X1301197Y42801D01*
X1301186D01*
X1301174Y42778D01*
X1301139Y42754D01*
X1301104Y42731D01*
X1300976Y42649D01*
X1300824Y42568D01*
X1300614Y42474D01*
X1300369Y42393D01*
X1300090Y42346D01*
X1299775Y42323D01*
X1299670D01*
X1299565Y42334D01*
X1299413Y42358D01*
X1299250Y42381D01*
X1299064Y42416D01*
X1298877Y42474D01*
X1298691Y42556D01*
X1298667Y42568D01*
X1298609Y42603D01*
X1298516Y42661D01*
X1298411Y42731D01*
X1298282Y42836D01*
X1298154Y42952D01*
X1298038Y43092D01*
X1297921Y43256D01*
X1297909Y43279D01*
X1297874Y43337D01*
X1297828Y43442D01*
X1297781Y43570D01*
X1297734Y43734D01*
X1297688Y43920D01*
X1297653Y44118D01*
X1297641Y44352D01*
X1298177D01*
Y44340D01*
Y44317D01*
Y44282D01*
X1298189Y44235D01*
X1298201Y44107D01*
X1298236Y43944D01*
X1298282Y43757D01*
X1298364Y43570D01*
X1298469Y43384D01*
X1298609Y43221D01*
X1298632Y43209D01*
X1298691Y43162D01*
X1298784Y43092D01*
X1298912Y43022D01*
X1299087Y42941D01*
X1299285Y42882D01*
X1299518Y42836D01*
X1299775Y42812D01*
X1299880D01*
X1299996Y42836D01*
X1300148Y42859D01*
X1300311Y42894D01*
X1300474Y42952D01*
X1300649Y43034D01*
X1300801Y43151D01*
X1300813Y43162D01*
X1300859Y43209D01*
X1300929Y43291D01*
X1300999Y43396D01*
X1301069Y43536D01*
X1301139Y43687D01*
X1301186Y43874D01*
X1301197Y44072D01*
Y44083D01*
Y44095D01*
Y44165D01*
X1301186Y44270D01*
X1301162Y44398D01*
X1301116Y44538D01*
X1301058Y44690D01*
X1300976Y44841D01*
X1300871Y44970D01*
X1300859Y44981D01*
X1300813Y45028D01*
X1300719Y45086D01*
X1300603Y45168D01*
X1300439Y45273D01*
X1300346Y45320D01*
X1300230Y45378D01*
X1300113Y45424D01*
X1299973Y45483D01*
X1299833Y45541D01*
X1299670Y45599D01*
X1299658D01*
X1299635Y45611D01*
X1299588Y45634D01*
X1299530Y45658D01*
X1299448Y45681D01*
X1299367Y45716D01*
X1299180Y45798D01*
X1298959Y45891D01*
X1298749Y46007D01*
X1298539Y46136D01*
X1298364Y46264D01*
Y46276D01*
X1298341Y46287D01*
X1298282Y46357D01*
X1298189Y46462D01*
X1298096Y46602D01*
X1297991Y46789D01*
X1297898Y46999D01*
X1297839Y47255D01*
X1297828Y47395D01*
X1297816Y47535D01*
Y47546D01*
Y47570D01*
Y47605D01*
X1297828Y47663D01*
Y47733D01*
X1297839Y47803D01*
X1297886Y47990D01*
X1297944Y48188D01*
X1298038Y48398D01*
X1298177Y48608D01*
X1298259Y48713D01*
X1298352Y48806D01*
X1298364Y48818D01*
X1298376Y48829D01*
X1298411Y48852D01*
X1298446Y48887D01*
X1298562Y48957D01*
X1298726Y49051D01*
X1298924Y49144D01*
X1299168Y49214D01*
X1299437Y49272D01*
X1299740Y49295D01*
X1299821D01*
X1299880Y49284D01*
D02*
G37*
G36*
X1314058Y44970D02*
Y42416D01*
X1313534Y42416D01*
Y44970D01*
X1311493Y49202D01*
X1312123D01*
X1313802Y45506D01*
X1315493Y49202D01*
X1316111D01*
X1314058Y44970D01*
D02*
G37*
G36*
X1290727Y42416D02*
X1290225D01*
X1288943Y47698D01*
X1288815Y48328D01*
X1288686Y47698D01*
X1287380Y42416D01*
X1286867D01*
X1285433Y49202D01*
X1285981D01*
X1286984Y44258D01*
X1287147Y43244D01*
X1287357Y44212D01*
X1288570Y49202D01*
X1289048D01*
X1290249Y44212D01*
X1290447Y43244D01*
X1290622Y44258D01*
X1291625Y49202D01*
X1292173D01*
X1290727Y42416D01*
D02*
G37*
G36*
X1331968Y48701D02*
X1328960D01*
Y46159D01*
X1331595D01*
Y45669D01*
X1328960D01*
Y42906D01*
X1331991D01*
Y42416D01*
X1328424D01*
Y49202D01*
X1331968D01*
Y48701D01*
D02*
G37*
G36*
X1327223D02*
X1324214D01*
Y46159D01*
X1326849D01*
Y45669D01*
X1324214D01*
Y42906D01*
X1327246D01*
Y42416D01*
X1323678D01*
Y49202D01*
X1327223D01*
Y48701D01*
D02*
G37*
G36*
X1319783Y42906D02*
X1322582D01*
Y42416D01*
X1319247D01*
Y49202D01*
X1319783D01*
Y42906D01*
D02*
G37*
G36*
X1310910Y48701D02*
X1307902D01*
Y46159D01*
X1310537D01*
Y45669D01*
X1307902D01*
Y42906D01*
X1310933D01*
Y42416D01*
X1307366D01*
Y49202D01*
X1310910D01*
Y48701D01*
D02*
G37*
G36*
X1303471Y42906D02*
X1306269D01*
Y42416D01*
X1302935D01*
Y49202D01*
X1303471D01*
Y42906D01*
D02*
G37*
G36*
X1296802Y48701D02*
X1293793D01*
Y46159D01*
X1296428D01*
Y45669D01*
X1293793D01*
Y42906D01*
X1296825D01*
Y42416D01*
X1293257D01*
Y49202D01*
X1296802D01*
Y48701D01*
D02*
G37*
%LPC*%
G36*
X1368775Y88946D02*
X1364368D01*
Y80180D01*
X1369106D01*
X1369438Y80228D01*
X1369864Y80322D01*
X1370338Y80465D01*
X1370812Y80702D01*
X1371286Y80986D01*
X1371712Y81365D01*
X1371759Y81412D01*
X1371902Y81602D01*
X1372091Y81839D01*
X1372281Y82218D01*
X1372470Y82692D01*
X1372660Y83260D01*
X1372802Y83876D01*
X1372849Y84587D01*
Y84634D01*
Y84681D01*
Y84966D01*
X1372802Y85345D01*
X1372707Y85866D01*
X1372612Y86387D01*
X1372423Y86956D01*
X1372186Y87477D01*
X1371854Y87903D01*
X1371807Y87951D01*
X1371665Y88045D01*
X1371428Y88235D01*
X1371096Y88424D01*
X1370670Y88614D01*
X1370148Y88803D01*
X1369485Y88898D01*
X1368775Y88946D01*
D02*
G37*
G36*
X1369201Y77243D02*
X1364368D01*
Y67340D01*
X1369438D01*
X1369817Y67388D01*
X1370243Y67483D01*
X1370765Y67672D01*
X1371286Y67862D01*
X1371759Y68193D01*
X1372233Y68620D01*
X1372281Y68667D01*
X1372423Y68857D01*
X1372612Y69141D01*
X1372849Y69567D01*
X1373039Y70088D01*
X1373228Y70704D01*
X1373370Y71415D01*
X1373418Y72268D01*
Y72315D01*
Y72505D01*
X1373370Y72742D01*
Y73026D01*
X1373276Y73405D01*
X1373181Y73831D01*
X1373086Y74305D01*
X1372897Y74779D01*
X1372660Y75205D01*
X1372375Y75679D01*
X1372044Y76106D01*
X1371617Y76485D01*
X1371144Y76769D01*
X1370575Y77053D01*
X1369959Y77195D01*
X1369201Y77243D01*
D02*
G37*
G36*
X1346790Y89183D02*
X1345985D01*
X1345795Y89135D01*
X1345274Y89088D01*
X1344658Y88898D01*
X1343947Y88661D01*
X1343237Y88282D01*
X1342573Y87714D01*
X1342242Y87382D01*
X1341957Y87003D01*
Y86956D01*
X1341910Y86908D01*
X1341815Y86766D01*
X1341720Y86577D01*
X1341626Y86387D01*
X1341484Y86103D01*
X1341341Y85771D01*
X1341199Y85392D01*
X1341057Y84966D01*
X1340962Y84492D01*
X1340820Y83971D01*
X1340678Y83402D01*
X1340583Y82786D01*
X1340536Y82123D01*
X1340441Y80654D01*
Y75679D01*
Y75632D01*
Y75490D01*
Y75300D01*
X1340489Y74969D01*
Y74637D01*
X1340536Y74211D01*
X1340631Y73310D01*
X1340820Y72268D01*
X1341057Y71178D01*
X1341436Y70136D01*
X1341910Y69236D01*
X1341957Y69141D01*
X1342194Y68904D01*
X1342526Y68525D01*
X1343000Y68146D01*
X1343616Y67767D01*
X1344374Y67388D01*
X1345274Y67151D01*
X1345748Y67103D01*
X1346269Y67056D01*
X1346553D01*
X1346743Y67103D01*
X1347264Y67151D01*
X1347927Y67293D01*
X1348638Y67577D01*
X1349349Y67909D01*
X1350012Y68430D01*
X1350344Y68714D01*
X1350628Y69093D01*
Y69141D01*
X1350675Y69188D01*
X1350770Y69330D01*
X1350865Y69472D01*
X1350960Y69709D01*
X1351102Y69946D01*
X1351196Y70278D01*
X1351339Y70657D01*
X1351481Y71036D01*
X1351623Y71510D01*
X1351718Y72031D01*
X1351860Y72600D01*
X1351955Y73216D01*
X1352002Y73879D01*
X1352097Y74590D01*
Y75348D01*
Y80512D01*
Y80559D01*
Y80702D01*
Y80938D01*
Y81223D01*
X1352049Y81602D01*
X1352002Y82028D01*
X1351907Y82976D01*
X1351718Y84066D01*
X1351481Y85108D01*
X1351102Y86150D01*
X1350865Y86624D01*
X1350628Y87050D01*
Y87098D01*
X1350581Y87145D01*
X1350344Y87382D01*
X1350012Y87714D01*
X1349538Y88140D01*
X1348922Y88519D01*
X1348212Y88851D01*
X1347311Y89088D01*
X1346790Y89183D01*
D02*
G37*
G36*
X1351674Y48584D02*
X1351604D01*
X1351534Y48573D01*
X1351453Y48549D01*
X1351348Y48503D01*
X1351243Y48444D01*
X1351138Y48363D01*
X1351044Y48258D01*
X1351033Y48246D01*
X1351009Y48199D01*
X1350974Y48129D01*
X1350928Y48025D01*
X1350881Y47908D01*
X1350846Y47756D01*
X1350823Y47593D01*
X1350811Y47407D01*
Y47383D01*
Y47325D01*
X1350823Y47220D01*
X1350846Y47103D01*
X1350869Y46975D01*
X1350904Y46835D01*
X1350963Y46695D01*
X1351044Y46567D01*
X1351056Y46555D01*
X1351091Y46520D01*
X1351138Y46474D01*
X1351219Y46415D01*
X1351301Y46357D01*
X1351418Y46311D01*
X1351534Y46276D01*
X1351674Y46264D01*
X1351744D01*
X1351814Y46276D01*
X1351907Y46299D01*
X1352001Y46345D01*
X1352106Y46392D01*
X1352210Y46474D01*
X1352304Y46579D01*
X1352315Y46590D01*
X1352339Y46637D01*
X1352374Y46707D01*
X1352420Y46800D01*
X1352467Y46917D01*
X1352502Y47057D01*
X1352525Y47220D01*
X1352537Y47407D01*
Y47418D01*
Y47430D01*
Y47500D01*
X1352525Y47593D01*
X1352502Y47710D01*
X1352479Y47850D01*
X1352432Y47990D01*
X1352374Y48129D01*
X1352292Y48258D01*
X1352280Y48269D01*
X1352245Y48304D01*
X1352199Y48363D01*
X1352129Y48421D01*
X1352036Y48479D01*
X1351931Y48538D01*
X1351814Y48573D01*
X1351674Y48584D01*
D02*
G37*
G36*
Y45553D02*
X1351593D01*
X1351511Y45529D01*
X1351406Y45506D01*
X1351289Y45459D01*
X1351173Y45401D01*
X1351044Y45308D01*
X1350939Y45191D01*
X1350928Y45180D01*
X1350904Y45133D01*
X1350858Y45051D01*
X1350811Y44946D01*
X1350765Y44806D01*
X1350718Y44655D01*
X1350695Y44468D01*
X1350683Y44258D01*
Y44247D01*
Y44235D01*
Y44165D01*
X1350695Y44060D01*
X1350718Y43932D01*
X1350741Y43780D01*
X1350788Y43629D01*
X1350858Y43477D01*
X1350939Y43349D01*
X1350951Y43337D01*
X1350986Y43302D01*
X1351044Y43244D01*
X1351138Y43186D01*
X1351243Y43127D01*
X1351359Y43069D01*
X1351511Y43034D01*
X1351674Y43022D01*
X1351756D01*
X1351837Y43046D01*
X1351942Y43069D01*
X1352059Y43104D01*
X1352187Y43162D01*
X1352304Y43244D01*
X1352409Y43349D01*
X1352420Y43361D01*
X1352444Y43407D01*
X1352490Y43489D01*
X1352537Y43582D01*
X1352584Y43710D01*
X1352630Y43874D01*
X1352654Y44049D01*
X1352665Y44258D01*
Y44270D01*
Y44282D01*
Y44352D01*
X1352654Y44457D01*
X1352630Y44596D01*
X1352595Y44748D01*
X1352549Y44900D01*
X1352479Y45051D01*
X1352385Y45191D01*
X1352374Y45203D01*
X1352339Y45250D01*
X1352280Y45308D01*
X1352199Y45378D01*
X1352094Y45436D01*
X1351977Y45494D01*
X1351837Y45541D01*
X1351674Y45553D01*
D02*
G37*
G36*
X1342346Y48584D02*
X1342229D01*
X1342171Y48573D01*
X1342078Y48561D01*
X1341973Y48526D01*
X1341845Y48468D01*
X1341716Y48374D01*
X1341611Y48246D01*
X1341553Y48176D01*
X1341507Y48083D01*
X1341495Y48060D01*
X1341483Y48025D01*
X1341472Y47990D01*
X1341448Y47931D01*
X1341437Y47873D01*
X1341413Y47791D01*
X1341390Y47710D01*
X1341367Y47605D01*
X1341343Y47488D01*
X1341320Y47372D01*
X1341308Y47232D01*
X1341285Y47080D01*
X1341273Y46929D01*
X1341262Y46754D01*
Y46567D01*
Y45168D01*
Y45156D01*
Y45121D01*
Y45063D01*
Y44993D01*
X1341273Y44900D01*
Y44795D01*
X1341297Y44561D01*
X1341320Y44305D01*
X1341367Y44037D01*
X1341425Y43780D01*
X1341460Y43664D01*
X1341507Y43559D01*
X1341518Y43536D01*
X1341553Y43477D01*
X1341611Y43384D01*
X1341693Y43291D01*
X1341798Y43197D01*
X1341926Y43104D01*
X1342090Y43046D01*
X1342171Y43034D01*
X1342264Y43022D01*
X1342288D01*
X1342346Y43034D01*
X1342439Y43046D01*
X1342544Y43081D01*
X1342661Y43151D01*
X1342789Y43232D01*
X1342906Y43361D01*
X1342952Y43431D01*
X1342999Y43524D01*
Y43536D01*
X1343011Y43547D01*
X1343022Y43582D01*
X1343034Y43617D01*
X1343057Y43675D01*
X1343081Y43745D01*
X1343104Y43815D01*
X1343127Y43909D01*
X1343151Y44014D01*
X1343174Y44130D01*
X1343186Y44258D01*
X1343209Y44398D01*
X1343232Y44550D01*
X1343244Y44713D01*
X1343256Y44888D01*
Y45075D01*
Y46485D01*
Y46497D01*
Y46532D01*
Y46590D01*
Y46660D01*
X1343244Y46754D01*
Y46847D01*
X1343221Y47092D01*
X1343197Y47348D01*
X1343151Y47605D01*
X1343092Y47861D01*
X1343057Y47966D01*
X1343011Y48071D01*
Y48083D01*
X1342999Y48094D01*
X1342964Y48153D01*
X1342906Y48234D01*
X1342824Y48328D01*
X1342719Y48421D01*
X1342591Y48503D01*
X1342439Y48561D01*
X1342346Y48584D01*
D02*
G37*
G36*
X1408877Y59528D02*
X1407548D01*
Y56566D01*
X1408994D01*
X1409064Y56578D01*
X1409181Y56589D01*
X1409309Y56613D01*
X1409461Y56671D01*
X1409624Y56741D01*
X1409787Y56834D01*
X1409927Y56974D01*
X1409939Y56997D01*
X1409985Y57044D01*
X1410044Y57137D01*
X1410114Y57254D01*
X1410172Y57406D01*
X1410230Y57592D01*
X1410277Y57790D01*
X1410288Y58024D01*
Y58035D01*
Y58059D01*
Y58094D01*
Y58140D01*
X1410265Y58268D01*
X1410242Y58432D01*
X1410195Y58606D01*
X1410137Y58793D01*
X1410044Y58968D01*
X1409915Y59131D01*
X1409904Y59143D01*
X1409845Y59189D01*
X1409764Y59259D01*
X1409647Y59329D01*
X1409496Y59399D01*
X1409321Y59469D01*
X1409111Y59516D01*
X1408877Y59528D01*
D02*
G37*
G36*
X1399118D02*
X1397672D01*
Y56496D01*
X1399176D01*
X1399223Y56508D01*
X1399351Y56519D01*
X1399491Y56543D01*
X1399666Y56589D01*
X1399829Y56659D01*
X1399993Y56753D01*
X1400144Y56881D01*
X1400156Y56904D01*
X1400202Y56951D01*
X1400261Y57044D01*
X1400331Y57161D01*
X1400401Y57312D01*
X1400459Y57511D01*
X1400506Y57720D01*
X1400517Y57977D01*
Y57989D01*
Y58012D01*
Y58047D01*
Y58094D01*
X1400494Y58222D01*
X1400471Y58385D01*
X1400424Y58571D01*
X1400366Y58758D01*
X1400272Y58945D01*
X1400144Y59108D01*
X1400132Y59131D01*
X1400074Y59178D01*
X1399993Y59236D01*
X1399876Y59318D01*
X1399736Y59399D01*
X1399561Y59458D01*
X1399351Y59504D01*
X1399118Y59528D01*
D02*
G37*
G36*
X1381267D02*
X1380217D01*
Y53733D01*
X1381337D01*
X1381395Y53744D01*
X1381465D01*
X1381558Y53768D01*
X1381756Y53803D01*
X1381989Y53873D01*
X1382223Y53966D01*
X1382444Y54106D01*
X1382561Y54199D01*
X1382654Y54292D01*
X1382666Y54304D01*
X1382677Y54316D01*
X1382701Y54351D01*
X1382736Y54397D01*
X1382771Y54456D01*
X1382817Y54526D01*
X1382864Y54607D01*
X1382911Y54700D01*
X1382957Y54817D01*
X1383004Y54934D01*
X1383039Y55062D01*
X1383086Y55213D01*
X1383121Y55365D01*
X1383144Y55528D01*
X1383156Y55715D01*
X1383167Y55901D01*
Y57324D01*
Y57336D01*
Y57371D01*
Y57429D01*
X1383156Y57499D01*
Y57580D01*
X1383144Y57685D01*
X1383109Y57919D01*
X1383051Y58175D01*
X1382957Y58443D01*
X1382841Y58711D01*
X1382677Y58945D01*
Y58956D01*
X1382654Y58968D01*
X1382584Y59038D01*
X1382479Y59131D01*
X1382328Y59236D01*
X1382118Y59341D01*
X1381885Y59434D01*
X1381593Y59504D01*
X1381441Y59516D01*
X1381267Y59528D01*
D02*
G37*
G36*
X1366587Y59271D02*
X1365467Y55633D01*
X1367706D01*
X1366587Y59271D01*
D02*
G37*
G36*
X1361375Y59528D02*
X1360185D01*
Y56986D01*
X1361526D01*
X1361631Y56997D01*
X1361771Y57021D01*
X1361923Y57067D01*
X1362074Y57114D01*
X1362226Y57196D01*
X1362366Y57301D01*
X1362377Y57312D01*
X1362424Y57359D01*
X1362471Y57441D01*
X1362541Y57545D01*
X1362599Y57674D01*
X1362657Y57837D01*
X1362692Y58035D01*
X1362704Y58257D01*
Y58268D01*
Y58280D01*
Y58315D01*
Y58362D01*
X1362692Y58478D01*
X1362657Y58618D01*
X1362622Y58781D01*
X1362564Y58933D01*
X1362482Y59085D01*
X1362366Y59213D01*
X1362354Y59224D01*
X1362307Y59259D01*
X1362226Y59318D01*
X1362121Y59376D01*
X1361981Y59423D01*
X1361806Y59481D01*
X1361608Y59516D01*
X1361375Y59528D01*
D02*
G37*
G36*
X1361678Y56496D02*
X1360185D01*
Y53733D01*
X1361654D01*
X1361701Y53744D01*
X1361806Y53756D01*
X1361946Y53779D01*
X1362098Y53826D01*
X1362261Y53884D01*
X1362412Y53978D01*
X1362552Y54094D01*
X1362564Y54117D01*
X1362611Y54164D01*
X1362669Y54246D01*
X1362727Y54362D01*
X1362797Y54514D01*
X1362844Y54689D01*
X1362891Y54899D01*
X1362902Y55132D01*
Y55143D01*
Y55155D01*
Y55190D01*
Y55237D01*
X1362891Y55342D01*
X1362867Y55482D01*
X1362821Y55645D01*
X1362762Y55808D01*
X1362681Y55971D01*
X1362576Y56111D01*
X1362564Y56123D01*
X1362517Y56170D01*
X1362447Y56228D01*
X1362342Y56298D01*
X1362214Y56368D01*
X1362063Y56426D01*
X1361876Y56473D01*
X1361678Y56496D01*
D02*
G37*
G36*
X1341343Y59528D02*
X1340014D01*
Y56566D01*
X1341459D01*
X1341529Y56578D01*
X1341646Y56589D01*
X1341774Y56613D01*
X1341926Y56671D01*
X1342089Y56741D01*
X1342252Y56834D01*
X1342392Y56974D01*
X1342404Y56997D01*
X1342451Y57044D01*
X1342509Y57137D01*
X1342579Y57254D01*
X1342637Y57406D01*
X1342695Y57592D01*
X1342742Y57790D01*
X1342754Y58024D01*
Y58035D01*
Y58059D01*
Y58094D01*
Y58140D01*
X1342730Y58268D01*
X1342707Y58432D01*
X1342660Y58606D01*
X1342602Y58793D01*
X1342509Y58968D01*
X1342381Y59131D01*
X1342369Y59143D01*
X1342311Y59189D01*
X1342229Y59259D01*
X1342112Y59329D01*
X1341961Y59399D01*
X1341786Y59469D01*
X1341576Y59516D01*
X1341343Y59528D01*
D02*
G37*
G36*
X1329438D02*
X1327992D01*
Y56496D01*
X1329496D01*
X1329543Y56508D01*
X1329671Y56519D01*
X1329811Y56543D01*
X1329986Y56589D01*
X1330149Y56659D01*
X1330312Y56753D01*
X1330464Y56881D01*
X1330476Y56904D01*
X1330522Y56951D01*
X1330581Y57044D01*
X1330651Y57161D01*
X1330721Y57312D01*
X1330779Y57511D01*
X1330825Y57720D01*
X1330837Y57977D01*
Y57989D01*
Y58012D01*
Y58047D01*
Y58094D01*
X1330814Y58222D01*
X1330791Y58385D01*
X1330744Y58571D01*
X1330686Y58758D01*
X1330592Y58945D01*
X1330464Y59108D01*
X1330452Y59131D01*
X1330394Y59178D01*
X1330312Y59236D01*
X1330196Y59318D01*
X1330056Y59399D01*
X1329881Y59458D01*
X1329671Y59504D01*
X1329438Y59528D01*
D02*
G37*
G36*
X1318431D02*
X1317102D01*
Y56566D01*
X1318548D01*
X1318617Y56578D01*
X1318734Y56589D01*
X1318862Y56613D01*
X1319014Y56671D01*
X1319177Y56741D01*
X1319340Y56834D01*
X1319480Y56974D01*
X1319492Y56997D01*
X1319539Y57044D01*
X1319597Y57137D01*
X1319667Y57254D01*
X1319725Y57406D01*
X1319783Y57592D01*
X1319830Y57790D01*
X1319842Y58024D01*
Y58035D01*
Y58059D01*
Y58094D01*
Y58140D01*
X1319818Y58268D01*
X1319795Y58432D01*
X1319748Y58606D01*
X1319690Y58793D01*
X1319597Y58968D01*
X1319469Y59131D01*
X1319457Y59143D01*
X1319399Y59189D01*
X1319317Y59259D01*
X1319200Y59329D01*
X1319049Y59399D01*
X1318874Y59469D01*
X1318664Y59516D01*
X1318431Y59528D01*
D02*
G37*
G36*
X1306293Y59528D02*
X1304964D01*
Y56566D01*
X1306409D01*
X1306479Y56578D01*
X1306596Y56589D01*
X1306724Y56613D01*
X1306876Y56671D01*
X1307039Y56741D01*
X1307202Y56834D01*
X1307342Y56974D01*
X1307354Y56997D01*
X1307401Y57044D01*
X1307459Y57137D01*
X1307529Y57254D01*
X1307587Y57406D01*
X1307645Y57592D01*
X1307692Y57790D01*
X1307704Y58024D01*
Y58035D01*
Y58059D01*
Y58093D01*
Y58140D01*
X1307680Y58268D01*
X1307657Y58432D01*
X1307610Y58606D01*
X1307552Y58793D01*
X1307459Y58968D01*
X1307331Y59131D01*
X1307319Y59143D01*
X1307261Y59189D01*
X1307179Y59259D01*
X1307062Y59329D01*
X1306911Y59399D01*
X1306736Y59469D01*
X1306526Y59516D01*
X1306293Y59528D01*
D02*
G37*
G36*
X1287847Y59271D02*
X1286727Y55633D01*
X1288966D01*
X1287847Y59271D01*
D02*
G37*
G36*
X1346753Y59609D02*
X1346683D01*
X1346625Y59598D01*
X1346555D01*
X1346485Y59586D01*
X1346310Y59539D01*
X1346112Y59481D01*
X1345902Y59376D01*
X1345704Y59248D01*
X1345610Y59154D01*
X1345529Y59061D01*
Y59050D01*
X1345505Y59038D01*
X1345494Y59003D01*
X1345459Y58956D01*
X1345424Y58898D01*
X1345389Y58828D01*
X1345354Y58746D01*
X1345307Y58653D01*
X1345272Y58536D01*
X1345226Y58420D01*
X1345191Y58280D01*
X1345156Y58140D01*
X1345132Y57977D01*
X1345109Y57802D01*
X1345097Y57615D01*
X1345086Y57417D01*
Y55901D01*
Y55890D01*
Y55855D01*
Y55796D01*
X1345097Y55715D01*
Y55621D01*
X1345109Y55517D01*
X1345144Y55272D01*
X1345191Y55004D01*
X1345272Y54724D01*
X1345377Y54456D01*
X1345447Y54339D01*
X1345529Y54222D01*
Y54211D01*
X1345552Y54199D01*
X1345610Y54141D01*
X1345715Y54047D01*
X1345844Y53943D01*
X1346018Y53838D01*
X1346228Y53756D01*
X1346473Y53686D01*
X1346613Y53674D01*
X1346753Y53663D01*
X1346835D01*
X1346893Y53674D01*
X1346951D01*
X1347033Y53698D01*
X1347219Y53733D01*
X1347418Y53803D01*
X1347616Y53896D01*
X1347814Y54036D01*
X1347907Y54117D01*
X1347989Y54211D01*
Y54222D01*
X1348012Y54234D01*
X1348024Y54269D01*
X1348059Y54316D01*
X1348082Y54374D01*
X1348117Y54444D01*
X1348164Y54537D01*
X1348199Y54630D01*
X1348234Y54747D01*
X1348281Y54875D01*
X1348316Y55004D01*
X1348339Y55155D01*
X1348374Y55330D01*
X1348385Y55505D01*
X1348409Y55691D01*
Y55901D01*
Y57371D01*
Y57382D01*
Y57417D01*
Y57476D01*
X1348397Y57557D01*
Y57650D01*
X1348385Y57755D01*
X1348350Y58000D01*
X1348304Y58268D01*
X1348222Y58548D01*
X1348117Y58816D01*
X1348059Y58945D01*
X1347977Y59050D01*
Y59061D01*
X1347954Y59073D01*
X1347896Y59143D01*
X1347802Y59224D01*
X1347663Y59329D01*
X1347499Y59434D01*
X1347289Y59528D01*
X1347033Y59586D01*
X1346905Y59598D01*
X1346753Y59609D01*
D02*
G37*
G36*
X1323841D02*
X1323771D01*
X1323713Y59598D01*
X1323643D01*
X1323573Y59586D01*
X1323398Y59539D01*
X1323200Y59481D01*
X1322990Y59376D01*
X1322792Y59248D01*
X1322698Y59154D01*
X1322617Y59061D01*
Y59050D01*
X1322593Y59038D01*
X1322582Y59003D01*
X1322547Y58956D01*
X1322512Y58898D01*
X1322477Y58828D01*
X1322442Y58746D01*
X1322395Y58653D01*
X1322360Y58536D01*
X1322314Y58420D01*
X1322279Y58280D01*
X1322244Y58140D01*
X1322220Y57977D01*
X1322197Y57802D01*
X1322185Y57615D01*
X1322174Y57417D01*
Y55901D01*
Y55890D01*
Y55855D01*
Y55796D01*
X1322185Y55715D01*
Y55621D01*
X1322197Y55517D01*
X1322232Y55272D01*
X1322279Y55004D01*
X1322360Y54724D01*
X1322465Y54456D01*
X1322535Y54339D01*
X1322617Y54222D01*
Y54211D01*
X1322640Y54199D01*
X1322698Y54141D01*
X1322803Y54047D01*
X1322932Y53943D01*
X1323106Y53838D01*
X1323316Y53756D01*
X1323561Y53686D01*
X1323701Y53674D01*
X1323841Y53663D01*
X1323923D01*
X1323981Y53674D01*
X1324039D01*
X1324121Y53698D01*
X1324308Y53733D01*
X1324506Y53803D01*
X1324704Y53896D01*
X1324902Y54036D01*
X1324995Y54117D01*
X1325077Y54211D01*
Y54222D01*
X1325100Y54234D01*
X1325112Y54269D01*
X1325147Y54316D01*
X1325170Y54374D01*
X1325205Y54444D01*
X1325252Y54537D01*
X1325287Y54630D01*
X1325322Y54747D01*
X1325369Y54875D01*
X1325403Y55004D01*
X1325427Y55155D01*
X1325462Y55330D01*
X1325473Y55505D01*
X1325497Y55691D01*
Y55901D01*
Y57371D01*
Y57382D01*
Y57417D01*
Y57476D01*
X1325485Y57557D01*
Y57650D01*
X1325473Y57755D01*
X1325438Y58000D01*
X1325392Y58268D01*
X1325310Y58548D01*
X1325205Y58816D01*
X1325147Y58945D01*
X1325065Y59050D01*
Y59061D01*
X1325042Y59073D01*
X1324984Y59143D01*
X1324891Y59224D01*
X1324751Y59329D01*
X1324587Y59434D01*
X1324378Y59528D01*
X1324121Y59586D01*
X1323993Y59598D01*
X1323841Y59609D01*
D02*
G37*
G36*
X1300824Y59609D02*
X1300754D01*
X1300696Y59598D01*
X1300626D01*
X1300556Y59586D01*
X1300381Y59539D01*
X1300183Y59481D01*
X1299973Y59376D01*
X1299775Y59248D01*
X1299682Y59154D01*
X1299600Y59061D01*
Y59050D01*
X1299577Y59038D01*
X1299565Y59003D01*
X1299530Y58956D01*
X1299495Y58898D01*
X1299460Y58828D01*
X1299425Y58746D01*
X1299378Y58653D01*
X1299343Y58536D01*
X1299297Y58420D01*
X1299262Y58280D01*
X1299227Y58140D01*
X1299203Y57977D01*
X1299180Y57802D01*
X1299168Y57615D01*
X1299157Y57417D01*
Y55901D01*
Y55890D01*
Y55855D01*
Y55796D01*
X1299168Y55715D01*
Y55621D01*
X1299180Y55517D01*
X1299215Y55272D01*
X1299262Y55003D01*
X1299343Y54724D01*
X1299448Y54456D01*
X1299518Y54339D01*
X1299600Y54222D01*
Y54211D01*
X1299623Y54199D01*
X1299682Y54141D01*
X1299786Y54047D01*
X1299915Y53943D01*
X1300090Y53838D01*
X1300300Y53756D01*
X1300544Y53686D01*
X1300684Y53674D01*
X1300824Y53663D01*
X1300906D01*
X1300964Y53674D01*
X1301023D01*
X1301104Y53698D01*
X1301291Y53733D01*
X1301489Y53803D01*
X1301687Y53896D01*
X1301885Y54036D01*
X1301979Y54117D01*
X1302060Y54211D01*
Y54222D01*
X1302083Y54234D01*
X1302095Y54269D01*
X1302130Y54316D01*
X1302153Y54374D01*
X1302188Y54444D01*
X1302235Y54537D01*
X1302270Y54630D01*
X1302305Y54747D01*
X1302352Y54875D01*
X1302387Y55003D01*
X1302410Y55155D01*
X1302445Y55330D01*
X1302457Y55505D01*
X1302480Y55691D01*
Y55901D01*
Y57371D01*
Y57382D01*
Y57417D01*
Y57476D01*
X1302468Y57557D01*
Y57650D01*
X1302457Y57755D01*
X1302422Y58000D01*
X1302375Y58268D01*
X1302293Y58548D01*
X1302188Y58816D01*
X1302130Y58945D01*
X1302049Y59050D01*
Y59061D01*
X1302025Y59073D01*
X1301967Y59143D01*
X1301874Y59224D01*
X1301734Y59329D01*
X1301571Y59434D01*
X1301361Y59528D01*
X1301104Y59586D01*
X1300976Y59598D01*
X1300824Y59609D01*
D02*
G37*
G36*
X1234449Y88851D02*
X1229900Y74068D01*
X1238997Y74068D01*
X1234449Y88851D01*
D02*
G37*
%LPD*%
D25*
X1497047Y104437D02*
D03*
Y102469D02*
D03*
Y100500D02*
D03*
Y98532D02*
D03*
Y96563D02*
D03*
X1479331D02*
D03*
Y98532D02*
D03*
Y100500D02*
D03*
Y102469D02*
D03*
Y104437D02*
D03*
D26*
X103347Y196850D02*
D03*
X101378D02*
D03*
X99410D02*
D03*
X97441D02*
D03*
X95472D02*
D03*
X93504D02*
D03*
X91535D02*
D03*
X89567D02*
D03*
X87598D02*
D03*
X85630D02*
D03*
X83661D02*
D03*
X81693D02*
D03*
X79724D02*
D03*
X77756D02*
D03*
X75787D02*
D03*
X73819D02*
D03*
X71850D02*
D03*
X69882D02*
D03*
X67913D02*
D03*
X65945D02*
D03*
Y220472D02*
D03*
X67913D02*
D03*
X69882D02*
D03*
X71850D02*
D03*
X73819D02*
D03*
X75787D02*
D03*
X77756D02*
D03*
X79724D02*
D03*
X81693D02*
D03*
X83661D02*
D03*
X85630D02*
D03*
X87598D02*
D03*
X89567D02*
D03*
X91535D02*
D03*
X93504D02*
D03*
X95472D02*
D03*
X97441D02*
D03*
X99410D02*
D03*
X101378D02*
D03*
X103347D02*
D03*
X304134D02*
D03*
X302165D02*
D03*
X300197D02*
D03*
X298228D02*
D03*
X296260D02*
D03*
X294291D02*
D03*
X292323D02*
D03*
X290354D02*
D03*
X288386D02*
D03*
X286417D02*
D03*
X284449D02*
D03*
X282480D02*
D03*
X280512D02*
D03*
X278543D02*
D03*
X276575D02*
D03*
X274606D02*
D03*
X272638D02*
D03*
X270669D02*
D03*
X268701D02*
D03*
X266732D02*
D03*
Y196850D02*
D03*
X268701D02*
D03*
X270669D02*
D03*
X272638D02*
D03*
X274606D02*
D03*
X276575D02*
D03*
X278543D02*
D03*
X280512D02*
D03*
X282480D02*
D03*
X284449D02*
D03*
X286417D02*
D03*
X288386D02*
D03*
X290354D02*
D03*
X292323D02*
D03*
X294291D02*
D03*
X296260D02*
D03*
X298228D02*
D03*
X300197D02*
D03*
X302165D02*
D03*
X304134D02*
D03*
X504921D02*
D03*
X502953D02*
D03*
X500984D02*
D03*
X499016D02*
D03*
X497047D02*
D03*
X495079D02*
D03*
X493110D02*
D03*
X491142D02*
D03*
X489173D02*
D03*
X487205D02*
D03*
X485236D02*
D03*
X483268D02*
D03*
X481299D02*
D03*
X479331D02*
D03*
X477362D02*
D03*
X475394D02*
D03*
X473425D02*
D03*
X471457D02*
D03*
X469488D02*
D03*
X467520D02*
D03*
Y220472D02*
D03*
X469488D02*
D03*
X471457D02*
D03*
X473425D02*
D03*
X475394D02*
D03*
X477362D02*
D03*
X479331D02*
D03*
X481299D02*
D03*
X483268D02*
D03*
X485236D02*
D03*
X487205D02*
D03*
X489173D02*
D03*
X491142D02*
D03*
X493110D02*
D03*
X495079D02*
D03*
X497047D02*
D03*
X499016D02*
D03*
X500984D02*
D03*
X502953D02*
D03*
X504921D02*
D03*
X705709D02*
D03*
X703740D02*
D03*
X701772D02*
D03*
X699803D02*
D03*
X697835D02*
D03*
X695866D02*
D03*
X693898D02*
D03*
X691929D02*
D03*
X689961D02*
D03*
X687992D02*
D03*
X686024D02*
D03*
X684055D02*
D03*
X682087D02*
D03*
X680118D02*
D03*
X678150D02*
D03*
X676181D02*
D03*
X674213D02*
D03*
X672244D02*
D03*
X670276D02*
D03*
X668307D02*
D03*
Y196850D02*
D03*
X670276D02*
D03*
X672244D02*
D03*
X674213D02*
D03*
X676181D02*
D03*
X678150D02*
D03*
X680118D02*
D03*
X682087D02*
D03*
X684055D02*
D03*
X686024D02*
D03*
X687992D02*
D03*
X689961D02*
D03*
X691929D02*
D03*
X693898D02*
D03*
X695866D02*
D03*
X697835D02*
D03*
X699803D02*
D03*
X701772D02*
D03*
X703740D02*
D03*
X705709D02*
D03*
X906496D02*
D03*
X904528D02*
D03*
X902559D02*
D03*
X900591D02*
D03*
X898622D02*
D03*
X896654D02*
D03*
X894685D02*
D03*
X892717D02*
D03*
X890748D02*
D03*
X888780D02*
D03*
X886811D02*
D03*
X884842D02*
D03*
X882874D02*
D03*
X880906D02*
D03*
X878937D02*
D03*
X876968D02*
D03*
X875000D02*
D03*
X873032D02*
D03*
X871063D02*
D03*
X869094D02*
D03*
Y220472D02*
D03*
X871063D02*
D03*
X873032D02*
D03*
X875000D02*
D03*
X876968D02*
D03*
X878937D02*
D03*
X880906D02*
D03*
X882874D02*
D03*
X884842D02*
D03*
X886811D02*
D03*
X888780D02*
D03*
X890748D02*
D03*
X892717D02*
D03*
X894685D02*
D03*
X896654D02*
D03*
X898622D02*
D03*
X900591D02*
D03*
X902559D02*
D03*
X904528D02*
D03*
X906496D02*
D03*
X1107283D02*
D03*
X1105315D02*
D03*
X1103347D02*
D03*
X1101378D02*
D03*
X1099409D02*
D03*
X1097441D02*
D03*
X1095473D02*
D03*
X1093504D02*
D03*
X1091535D02*
D03*
X1089567D02*
D03*
X1087599D02*
D03*
X1085630D02*
D03*
X1083661D02*
D03*
X1081693D02*
D03*
X1079725D02*
D03*
X1077756D02*
D03*
X1075787D02*
D03*
X1073819D02*
D03*
X1071850D02*
D03*
X1069882D02*
D03*
Y196850D02*
D03*
X1071850D02*
D03*
X1073819D02*
D03*
X1075787D02*
D03*
X1077756D02*
D03*
X1079725D02*
D03*
X1081693D02*
D03*
X1083661D02*
D03*
X1085630D02*
D03*
X1087599D02*
D03*
X1089567D02*
D03*
X1091535D02*
D03*
X1093504D02*
D03*
X1095473D02*
D03*
X1097441D02*
D03*
X1099409D02*
D03*
X1101378D02*
D03*
X1103347D02*
D03*
X1105315D02*
D03*
X1107283D02*
D03*
X1308071D02*
D03*
X1306102D02*
D03*
X1304134D02*
D03*
X1302165D02*
D03*
X1300197D02*
D03*
X1298228D02*
D03*
X1296260D02*
D03*
X1294291D02*
D03*
X1292323D02*
D03*
X1290354D02*
D03*
X1288386D02*
D03*
X1286417D02*
D03*
X1284449D02*
D03*
X1282480D02*
D03*
X1280512D02*
D03*
X1278543D02*
D03*
X1276575D02*
D03*
X1274606D02*
D03*
X1272638D02*
D03*
X1270669D02*
D03*
Y220472D02*
D03*
X1272638D02*
D03*
X1274606D02*
D03*
X1276575D02*
D03*
X1278543D02*
D03*
X1280512D02*
D03*
X1282480D02*
D03*
X1284449D02*
D03*
X1286417D02*
D03*
X1288386D02*
D03*
X1290354D02*
D03*
X1292323D02*
D03*
X1294291D02*
D03*
X1296260D02*
D03*
X1298228D02*
D03*
X1300197D02*
D03*
X1302165D02*
D03*
X1304134D02*
D03*
X1306102D02*
D03*
X1308071D02*
D03*
X1508858D02*
D03*
X1506890D02*
D03*
X1504921D02*
D03*
X1502953D02*
D03*
X1500984D02*
D03*
X1499016D02*
D03*
X1497047D02*
D03*
X1495079D02*
D03*
X1493110D02*
D03*
X1491142D02*
D03*
X1489173D02*
D03*
X1487205D02*
D03*
X1485236D02*
D03*
X1483268D02*
D03*
X1481299D02*
D03*
X1479331D02*
D03*
X1477362D02*
D03*
X1475394D02*
D03*
X1473425D02*
D03*
X1471457D02*
D03*
Y196850D02*
D03*
X1473425D02*
D03*
X1475394D02*
D03*
X1477362D02*
D03*
X1479331D02*
D03*
X1481299D02*
D03*
X1483268D02*
D03*
X1485236D02*
D03*
X1487205D02*
D03*
X1489173D02*
D03*
X1491142D02*
D03*
X1493110D02*
D03*
X1495079D02*
D03*
X1497047D02*
D03*
X1499016D02*
D03*
X1500984D02*
D03*
X1502953D02*
D03*
X1504921D02*
D03*
X1506890D02*
D03*
X1508858D02*
D03*
D27*
X314173Y98228D02*
D03*
D28*
Y94488D02*
D03*
Y90748D02*
D03*
X323622Y98228D02*
D03*
Y94488D02*
D03*
Y90748D02*
D03*
D29*
X557874Y124016D02*
D03*
X564173D02*
D03*
X557874Y118110D02*
D03*
X564173D02*
D03*
X77559Y107480D02*
D03*
X83858D02*
D03*
X83858Y134843D02*
D03*
X77559D02*
D03*
X377756Y121063D02*
D03*
X371457D02*
D03*
X430512Y120079D02*
D03*
X436811D02*
D03*
X323031Y117126D02*
D03*
X316732D02*
D03*
X323031Y111221D02*
D03*
X316732D02*
D03*
X573032Y66929D02*
D03*
X566732D02*
D03*
X117323Y158465D02*
D03*
X111024D02*
D03*
X318110D02*
D03*
X311811D02*
D03*
X512598D02*
D03*
X518898D02*
D03*
X719685D02*
D03*
X713386D02*
D03*
X914173D02*
D03*
X920472D02*
D03*
X1121260D02*
D03*
X1114961D02*
D03*
X1315748D02*
D03*
X1322047D02*
D03*
X1522835D02*
D03*
X1516535D02*
D03*
X134646Y47244D02*
D03*
X140945D02*
D03*
X77559Y49213D02*
D03*
X83858D02*
D03*
X258661Y48228D02*
D03*
X264961D02*
D03*
X1518504Y114280D02*
D03*
X1524803D02*
D03*
X1518504Y94595D02*
D03*
X1524803D02*
D03*
X1518504Y104437D02*
D03*
X1524803D02*
D03*
X1518504Y84752D02*
D03*
X1524803D02*
D03*
X111024Y170276D02*
D03*
X117323D02*
D03*
X318110D02*
D03*
X311811D02*
D03*
X512598D02*
D03*
X518898D02*
D03*
X719685D02*
D03*
X713386D02*
D03*
X914173D02*
D03*
X920472D02*
D03*
X1121260D02*
D03*
X1114961D02*
D03*
X1315748D02*
D03*
X1322047D02*
D03*
X1522835D02*
D03*
X1516535D02*
D03*
X99606Y176181D02*
D03*
X93307D02*
D03*
X57874Y164370D02*
D03*
X64173D02*
D03*
X129134D02*
D03*
X122835D02*
D03*
X294094Y176181D02*
D03*
X300394D02*
D03*
X501181D02*
D03*
X494882D02*
D03*
X695669D02*
D03*
X701968D02*
D03*
X902756D02*
D03*
X896457D02*
D03*
X1097244D02*
D03*
X1103543D02*
D03*
X1304331D02*
D03*
X1298032D02*
D03*
X1498819D02*
D03*
X1505118D02*
D03*
X264961Y164370D02*
D03*
X258661D02*
D03*
X459449D02*
D03*
X465748D02*
D03*
X666536D02*
D03*
X660236D02*
D03*
X861024D02*
D03*
X867323D02*
D03*
X1068110D02*
D03*
X1061811D02*
D03*
X1262599D02*
D03*
X1268898D02*
D03*
X1469685D02*
D03*
X1463386D02*
D03*
X323622D02*
D03*
X329921D02*
D03*
X530709D02*
D03*
X524409D02*
D03*
X725197D02*
D03*
X731496D02*
D03*
X932283D02*
D03*
X925984D02*
D03*
X1126772D02*
D03*
X1133071D02*
D03*
X1333858D02*
D03*
X1327559D02*
D03*
X1528347D02*
D03*
X1534646D02*
D03*
D30*
X1494626Y69882D02*
D03*
X1515217D02*
D03*
D31*
X12795Y53347D02*
D03*
Y64764D02*
D03*
X39264Y173228D02*
D03*
X51287D02*
D03*
X240051D02*
D03*
X252075D02*
D03*
X440839D02*
D03*
X452862D02*
D03*
X641626D02*
D03*
X653650D02*
D03*
X842413D02*
D03*
X854437D02*
D03*
X1043201D02*
D03*
X1055225D02*
D03*
X1243988D02*
D03*
X1256012D02*
D03*
X1444776D02*
D03*
X1456799D02*
D03*
D32*
X20669Y46457D02*
D03*
Y71653D02*
D03*
D33*
X23327Y53937D02*
D03*
Y56496D02*
D03*
Y59055D02*
D03*
Y61614D02*
D03*
Y64173D02*
D03*
D34*
X715551Y47244D02*
D03*
X709646D02*
D03*
X969488Y112402D02*
D03*
X975394D02*
D03*
X204724Y81693D02*
D03*
X198819D02*
D03*
X212598Y79724D02*
D03*
X218504D02*
D03*
X212598Y85630D02*
D03*
X218504D02*
D03*
X441929Y125984D02*
D03*
X447835D02*
D03*
Y131890D02*
D03*
X441929D02*
D03*
X316929Y105315D02*
D03*
X322835D02*
D03*
X593504Y120079D02*
D03*
X587598D02*
D03*
X870079Y89567D02*
D03*
X875984D02*
D03*
X830709Y89567D02*
D03*
X824803D02*
D03*
X572835Y72835D02*
D03*
X566929D02*
D03*
X93504Y182087D02*
D03*
X99410D02*
D03*
X58071Y182283D02*
D03*
X63976D02*
D03*
X48228Y182087D02*
D03*
X42323D02*
D03*
X123031Y158465D02*
D03*
X128937D02*
D03*
X128937Y182087D02*
D03*
X123031D02*
D03*
X117126D02*
D03*
X111221D02*
D03*
X294291D02*
D03*
X300197D02*
D03*
X500984D02*
D03*
X495079D02*
D03*
X695866D02*
D03*
X701772D02*
D03*
X902559D02*
D03*
X896654D02*
D03*
X1097441D02*
D03*
X1103347D02*
D03*
X1304134D02*
D03*
X1298228D02*
D03*
X1499016D02*
D03*
X1504921D02*
D03*
X258858Y182283D02*
D03*
X264764D02*
D03*
X465551D02*
D03*
X459646D02*
D03*
X660433D02*
D03*
X666339D02*
D03*
X867126D02*
D03*
X861220D02*
D03*
X1062008D02*
D03*
X1067913D02*
D03*
X1268701D02*
D03*
X1262795D02*
D03*
X1463583D02*
D03*
X1469488D02*
D03*
X249016Y182087D02*
D03*
X243110D02*
D03*
X443898D02*
D03*
X449803D02*
D03*
X650591D02*
D03*
X644685D02*
D03*
X845473D02*
D03*
X851378D02*
D03*
X1052165D02*
D03*
X1046260D02*
D03*
X1247047D02*
D03*
X1252953D02*
D03*
X1453740D02*
D03*
X1447835D02*
D03*
X323819Y158465D02*
D03*
X329724D02*
D03*
X530512D02*
D03*
X524606D02*
D03*
X725394D02*
D03*
X731299D02*
D03*
X932087D02*
D03*
X926181D02*
D03*
X1126968D02*
D03*
X1132874D02*
D03*
X1333661D02*
D03*
X1327756D02*
D03*
X1528543D02*
D03*
X1534449D02*
D03*
X329724Y182087D02*
D03*
X323819D02*
D03*
X524606D02*
D03*
X530512D02*
D03*
X731299D02*
D03*
X725394D02*
D03*
X926181D02*
D03*
X932087D02*
D03*
X1132874D02*
D03*
X1126968D02*
D03*
X1327756D02*
D03*
X1333661D02*
D03*
X1534449D02*
D03*
X1528543D02*
D03*
X317913D02*
D03*
X312008D02*
D03*
X512795D02*
D03*
X518701D02*
D03*
X719488D02*
D03*
X713583D02*
D03*
X914370D02*
D03*
X920276D02*
D03*
X1121063D02*
D03*
X1115158D02*
D03*
X1315945D02*
D03*
X1321850D02*
D03*
X1522638D02*
D03*
X1516732D02*
D03*
X1485236Y110638D02*
D03*
X1479331D02*
D03*
X1497047Y110835D02*
D03*
X1491142D02*
D03*
D35*
X212598Y98425D02*
D03*
Y92520D02*
D03*
X492126Y91535D02*
D03*
Y97441D02*
D03*
X422835Y106299D02*
D03*
Y112205D02*
D03*
X444488Y112205D02*
D03*
Y106299D02*
D03*
X385433Y106299D02*
D03*
Y112205D02*
D03*
X357283Y112205D02*
D03*
Y106299D02*
D03*
X364173D02*
D03*
Y112205D02*
D03*
X385433Y78740D02*
D03*
Y72835D02*
D03*
X416929Y106299D02*
D03*
Y112205D02*
D03*
X218504Y113189D02*
D03*
Y107283D02*
D03*
X614173Y92520D02*
D03*
Y98425D02*
D03*
X587598Y71850D02*
D03*
Y65945D02*
D03*
X566929Y84646D02*
D03*
Y78740D02*
D03*
X593504Y65945D02*
D03*
Y71850D02*
D03*
X85630Y170276D02*
D03*
Y176181D02*
D03*
X286417D02*
D03*
Y170276D02*
D03*
X487205D02*
D03*
Y176181D02*
D03*
X687992D02*
D03*
Y170276D02*
D03*
X888780D02*
D03*
Y176181D02*
D03*
X1089567D02*
D03*
Y170276D02*
D03*
X1290354D02*
D03*
Y176181D02*
D03*
X1491142D02*
D03*
Y170276D02*
D03*
D36*
X620789Y83978D02*
D03*
X616613Y79802D02*
D03*
X612915Y76104D02*
D03*
X608739Y71928D02*
D03*
D37*
X224410Y113386D02*
D03*
Y107087D02*
D03*
X212598D02*
D03*
Y113386D02*
D03*
X230315Y107087D02*
D03*
Y113386D02*
D03*
X206693Y107087D02*
D03*
Y113386D02*
D03*
X218504Y92323D02*
D03*
Y98622D02*
D03*
X486221Y91339D02*
D03*
Y97638D02*
D03*
X498032Y91339D02*
D03*
Y97638D02*
D03*
X433661Y78937D02*
D03*
Y72638D02*
D03*
X599409Y72047D02*
D03*
Y65748D02*
D03*
X69882Y170079D02*
D03*
Y176378D02*
D03*
X270669Y170079D02*
D03*
Y176378D02*
D03*
X471457D02*
D03*
Y170079D02*
D03*
X672244D02*
D03*
Y176378D02*
D03*
X873032D02*
D03*
Y170079D02*
D03*
X1073819D02*
D03*
Y176378D02*
D03*
X1274606D02*
D03*
Y170079D02*
D03*
X1475394D02*
D03*
Y176378D02*
D03*
X1529527Y106103D02*
D03*
Y112402D02*
D03*
X1529528Y92823D02*
D03*
Y86524D02*
D03*
X453740Y132087D02*
D03*
Y125787D02*
D03*
X620079Y98622D02*
D03*
Y92323D02*
D03*
D38*
X845669Y115748D02*
D03*
X848819D02*
D03*
X851968D02*
D03*
X855118D02*
D03*
Y122441D02*
D03*
X851968D02*
D03*
X848819D02*
D03*
X845669D02*
D03*
X829921Y115748D02*
D03*
X833071D02*
D03*
X836220D02*
D03*
X839370D02*
D03*
Y122441D02*
D03*
X836220D02*
D03*
X833071D02*
D03*
X829921D02*
D03*
Y102953D02*
D03*
X833071D02*
D03*
X836220D02*
D03*
X839370D02*
D03*
Y109646D02*
D03*
X836220D02*
D03*
X833071D02*
D03*
X829921D02*
D03*
X845669Y102953D02*
D03*
X848819D02*
D03*
X851968D02*
D03*
X855118D02*
D03*
Y109646D02*
D03*
X851968D02*
D03*
X848819D02*
D03*
X845669D02*
D03*
X678346Y94095D02*
D03*
X681496D02*
D03*
X684646D02*
D03*
X687795D02*
D03*
Y100787D02*
D03*
X684646D02*
D03*
X681496D02*
D03*
X678346D02*
D03*
X725591Y94095D02*
D03*
X728740D02*
D03*
X731890D02*
D03*
X735039D02*
D03*
Y100787D02*
D03*
X731890D02*
D03*
X728740D02*
D03*
X725591D02*
D03*
X741339Y94095D02*
D03*
X744488D02*
D03*
X747638D02*
D03*
X750787D02*
D03*
Y100787D02*
D03*
X747638D02*
D03*
X744488D02*
D03*
X741339D02*
D03*
X428937Y92126D02*
D03*
X432087D02*
D03*
X435236D02*
D03*
X438386D02*
D03*
Y98819D02*
D03*
X435236D02*
D03*
X432087D02*
D03*
X428937D02*
D03*
X385630Y92126D02*
D03*
X388779D02*
D03*
X391929D02*
D03*
X395079D02*
D03*
Y98819D02*
D03*
X391929D02*
D03*
X388779D02*
D03*
X385630D02*
D03*
X354134Y92126D02*
D03*
X357283D02*
D03*
X360433D02*
D03*
X363583D02*
D03*
Y98819D02*
D03*
X360433D02*
D03*
X357283D02*
D03*
X354134D02*
D03*
X369882Y92126D02*
D03*
X373031D02*
D03*
X376181D02*
D03*
X379331D02*
D03*
Y98819D02*
D03*
X376181D02*
D03*
X373031D02*
D03*
X369882D02*
D03*
X537598Y123622D02*
D03*
X540748D02*
D03*
X543898D02*
D03*
X547047D02*
D03*
Y130315D02*
D03*
X543898D02*
D03*
X540748D02*
D03*
X537598D02*
D03*
D39*
X1516732Y164370D02*
D03*
X1522638D02*
D03*
X1315945D02*
D03*
X1321850D02*
D03*
X1115158D02*
D03*
X1121063D02*
D03*
X914370D02*
D03*
X920276D02*
D03*
X713583D02*
D03*
X719488D02*
D03*
X512795D02*
D03*
X518701D02*
D03*
X312008D02*
D03*
X317913D02*
D03*
X111220D02*
D03*
X117126D02*
D03*
X922244Y117815D02*
D03*
X928150D02*
D03*
X922244Y111909D02*
D03*
X928150D02*
D03*
X922244Y106004D02*
D03*
X928150D02*
D03*
X922244Y100098D02*
D03*
X928150D02*
D03*
X922244Y94193D02*
D03*
X928150D02*
D03*
X922244Y88287D02*
D03*
X928150D02*
D03*
X922244Y82382D02*
D03*
X928150D02*
D03*
X922244Y76476D02*
D03*
X928150D02*
D03*
X83661Y128937D02*
D03*
X77756D02*
D03*
Y77756D02*
D03*
X83661D02*
D03*
D40*
X758858Y108268D02*
D03*
Y114173D02*
D03*
X752953Y108268D02*
D03*
Y114173D02*
D03*
X747047Y108268D02*
D03*
Y114173D02*
D03*
X741142Y108268D02*
D03*
Y114173D02*
D03*
X735236Y108268D02*
D03*
Y114173D02*
D03*
X729331Y108268D02*
D03*
Y114173D02*
D03*
X723425Y108268D02*
D03*
Y114173D02*
D03*
X717520Y108268D02*
D03*
Y114173D02*
D03*
X703740Y95472D02*
D03*
Y101378D02*
D03*
X687992Y108268D02*
D03*
Y114173D02*
D03*
X682087Y108268D02*
D03*
Y114173D02*
D03*
X676181Y108268D02*
D03*
Y114173D02*
D03*
D41*
X75197Y169488D02*
D03*
X77756D02*
D03*
X80315D02*
D03*
X75197Y176969D02*
D03*
X80315D02*
D03*
X281102D02*
D03*
X275984D02*
D03*
X281102Y169488D02*
D03*
X278543D02*
D03*
X275984D02*
D03*
X476772D02*
D03*
X479331D02*
D03*
X481890D02*
D03*
X476772Y176969D02*
D03*
X481890D02*
D03*
X682677D02*
D03*
X677559D02*
D03*
X682677Y169488D02*
D03*
X680118D02*
D03*
X677559D02*
D03*
X878347D02*
D03*
X880906D02*
D03*
X883465D02*
D03*
X878347Y176969D02*
D03*
X883465D02*
D03*
X1084252D02*
D03*
X1079134D02*
D03*
X1084252Y169488D02*
D03*
X1081693D02*
D03*
X1079134D02*
D03*
X1279921D02*
D03*
X1282480D02*
D03*
X1285039D02*
D03*
X1279921Y176969D02*
D03*
X1285039D02*
D03*
X1485827D02*
D03*
X1480709D02*
D03*
X1485827Y169488D02*
D03*
X1483268D02*
D03*
X1480709D02*
D03*
D42*
X84350Y118898D02*
D03*
Y116339D02*
D03*
X77067Y118898D02*
D03*
Y116339D02*
D03*
Y64961D02*
D03*
Y67520D02*
D03*
X84350Y64961D02*
D03*
Y67520D02*
D03*
X57382Y170669D02*
D03*
Y173228D02*
D03*
X64665Y170669D02*
D03*
Y173228D02*
D03*
X129626D02*
D03*
Y170669D02*
D03*
X122343Y173228D02*
D03*
Y170669D02*
D03*
X258169D02*
D03*
Y173228D02*
D03*
X265453Y170669D02*
D03*
Y173228D02*
D03*
X466240D02*
D03*
Y170669D02*
D03*
X458957Y173228D02*
D03*
Y170669D02*
D03*
X659744D02*
D03*
Y173228D02*
D03*
X667028Y170669D02*
D03*
Y173228D02*
D03*
X867815D02*
D03*
Y170669D02*
D03*
X860532Y173228D02*
D03*
Y170669D02*
D03*
X1061319D02*
D03*
Y173228D02*
D03*
X1068602Y170669D02*
D03*
Y173228D02*
D03*
X1269390D02*
D03*
Y170669D02*
D03*
X1262106Y173228D02*
D03*
Y170669D02*
D03*
X1462894D02*
D03*
Y173228D02*
D03*
X1470177Y170669D02*
D03*
Y173228D02*
D03*
X330413D02*
D03*
Y170669D02*
D03*
X323130Y173228D02*
D03*
Y170669D02*
D03*
X523917D02*
D03*
Y173228D02*
D03*
X531201Y170669D02*
D03*
Y173228D02*
D03*
X731988D02*
D03*
Y170669D02*
D03*
X724705Y173228D02*
D03*
Y170669D02*
D03*
X925492D02*
D03*
Y173228D02*
D03*
X932776Y170669D02*
D03*
Y173228D02*
D03*
X1133563D02*
D03*
Y170669D02*
D03*
X1126280Y173228D02*
D03*
Y170669D02*
D03*
X1327067D02*
D03*
Y173228D02*
D03*
X1334350Y170669D02*
D03*
Y173228D02*
D03*
X1535138D02*
D03*
Y170669D02*
D03*
X1527854Y173228D02*
D03*
Y170669D02*
D03*
D43*
X84744Y113386D02*
D03*
X76673D02*
D03*
Y62008D02*
D03*
X84744D02*
D03*
X56988Y176181D02*
D03*
X65059D02*
D03*
X130020D02*
D03*
X121949D02*
D03*
X257776D02*
D03*
X265846D02*
D03*
X466634D02*
D03*
X458563D02*
D03*
X659350D02*
D03*
X667421D02*
D03*
X868209D02*
D03*
X860138D02*
D03*
X1060925D02*
D03*
X1068996D02*
D03*
X1269783D02*
D03*
X1261713D02*
D03*
X1462500D02*
D03*
X1470571D02*
D03*
X330807D02*
D03*
X322736D02*
D03*
X523524D02*
D03*
X531595D02*
D03*
X732382D02*
D03*
X724311D02*
D03*
X925099D02*
D03*
X933169D02*
D03*
X1133957D02*
D03*
X1125886D02*
D03*
X1326673D02*
D03*
X1334744D02*
D03*
X1535532D02*
D03*
X1527461D02*
D03*
D45*
X81102Y113516D02*
D03*
Y62138D02*
D03*
X60630Y176051D02*
D03*
X125591D02*
D03*
X261417D02*
D03*
X462205D02*
D03*
X662992D02*
D03*
X863780D02*
D03*
X1064567D02*
D03*
X1265354D02*
D03*
X1466142D02*
D03*
X326378D02*
D03*
X527165D02*
D03*
X727953D02*
D03*
X928740D02*
D03*
X1129528D02*
D03*
X1330315D02*
D03*
X1531102D02*
D03*
D46*
X402658Y75787D02*
D03*
X393799Y72047D02*
D03*
Y79528D02*
D03*
D47*
X40157Y61811D02*
D03*
Y54331D02*
D03*
X30709D02*
D03*
Y58071D02*
D03*
Y61811D02*
D03*
D48*
X437402Y113976D02*
D03*
X433661D02*
D03*
X429921D02*
D03*
Y104528D02*
D03*
X437402D02*
D03*
X378346Y104527D02*
D03*
X370866D02*
D03*
Y113976D02*
D03*
X374606D02*
D03*
X378346D02*
D03*
Y80512D02*
D03*
X374606D02*
D03*
X370866D02*
D03*
Y71063D02*
D03*
X378346D02*
D03*
D49*
X116929Y176181D02*
D03*
X111417D02*
D03*
X312205D02*
D03*
X317717D02*
D03*
X518504D02*
D03*
X512992D02*
D03*
X713780D02*
D03*
X719291D02*
D03*
X920079D02*
D03*
X914567D02*
D03*
X1115354D02*
D03*
X1120866D02*
D03*
X1321654D02*
D03*
X1316142D02*
D03*
X1516929D02*
D03*
X1522441D02*
D03*
D50*
X617736Y71083D02*
D03*
X621634Y74980D02*
D03*
D51*
X588583Y37598D02*
D03*
X593583D02*
D03*
X598583D02*
D03*
X583583D02*
D03*
X578583D02*
D03*
X598583Y52953D02*
D03*
X593583D02*
D03*
X588583D02*
D03*
X583583D02*
D03*
X578583D02*
D03*
D54*
X96063Y74803D02*
D03*
X104724D02*
D03*
X85039Y100591D02*
D03*
X76378D02*
D03*
D55*
X266732Y85039D02*
D03*
Y103937D02*
D03*
D56*
X167323Y62205D02*
D03*
Y95276D02*
D03*
D57*
X1542323Y74803D02*
D03*
Y64960D02*
D03*
Y84646D02*
D03*
Y94488D02*
D03*
Y104331D02*
D03*
Y114173D02*
D03*
X32480Y115157D02*
D03*
Y105315D02*
D03*
D58*
X1558858Y50787D02*
D03*
Y128346D02*
D03*
X15945Y91142D02*
D03*
Y129331D02*
D03*
D59*
X218976Y65945D02*
D03*
X194410D02*
D03*
D60*
X496654Y47244D02*
D03*
X487598D02*
D03*
X438583D02*
D03*
X429528D02*
D03*
X379528D02*
D03*
X370472D02*
D03*
D61*
X492126Y62992D02*
D03*
X434055D02*
D03*
X375000D02*
D03*
D62*
X48228Y118169D02*
D03*
Y102303D02*
D03*
D63*
X983661Y82972D02*
D03*
Y85532D02*
D03*
Y88090D02*
D03*
Y90650D02*
D03*
Y93209D02*
D03*
Y95768D02*
D03*
Y98327D02*
D03*
Y100886D02*
D03*
Y103445D02*
D03*
Y106004D02*
D03*
X961220Y82972D02*
D03*
Y85532D02*
D03*
Y88090D02*
D03*
Y90650D02*
D03*
Y93209D02*
D03*
Y95768D02*
D03*
Y98327D02*
D03*
Y100886D02*
D03*
Y103445D02*
D03*
Y106004D02*
D03*
D64*
X164016Y106299D02*
D03*
X171260D02*
D03*
D67*
X85433Y56102D02*
D03*
X75984D02*
D03*
X85433Y84646D02*
D03*
X75984D02*
D03*
D68*
X602658Y85630D02*
D03*
Y87598D02*
D03*
Y89567D02*
D03*
Y91535D02*
D03*
Y93504D02*
D03*
Y95473D02*
D03*
Y97441D02*
D03*
Y99410D02*
D03*
Y101378D02*
D03*
Y103347D02*
D03*
Y105315D02*
D03*
Y107283D02*
D03*
X574508D02*
D03*
Y105315D02*
D03*
Y103347D02*
D03*
Y101378D02*
D03*
Y99410D02*
D03*
Y97441D02*
D03*
Y95473D02*
D03*
Y93504D02*
D03*
Y91535D02*
D03*
Y89567D02*
D03*
Y87598D02*
D03*
Y85630D02*
D03*
D69*
X599409Y110531D02*
D03*
X597441D02*
D03*
X595472D02*
D03*
X593504D02*
D03*
X591535D02*
D03*
X589567D02*
D03*
X587598D02*
D03*
X585630D02*
D03*
X583661D02*
D03*
X581693D02*
D03*
X579724D02*
D03*
X577756D02*
D03*
Y82382D02*
D03*
X579724D02*
D03*
X581693D02*
D03*
X583661D02*
D03*
X585630D02*
D03*
X587598D02*
D03*
X589567D02*
D03*
X591535D02*
D03*
X593504D02*
D03*
X595472D02*
D03*
X597441D02*
D03*
X599409D02*
D03*
D70*
X300197Y78740D02*
D03*
Y90764D02*
D03*
X287402Y78740D02*
D03*
Y90764D02*
D03*
X300197Y110449D02*
D03*
Y98425D02*
D03*
X287402Y110449D02*
D03*
Y98425D02*
D03*
X1483268Y75894D02*
D03*
Y63870D02*
D03*
X1526575Y75894D02*
D03*
Y63870D02*
D03*
D71*
X310917Y82677D02*
D03*
X322941D02*
D03*
X187886Y111221D02*
D03*
X199909D02*
D03*
X51287Y161417D02*
D03*
X39264D02*
D03*
X252075D02*
D03*
X240051D02*
D03*
X452862D02*
D03*
X440839D02*
D03*
X653650D02*
D03*
X641626D02*
D03*
X854437D02*
D03*
X842413D02*
D03*
X1055225D02*
D03*
X1043201D02*
D03*
X1256012D02*
D03*
X1243988D02*
D03*
X1456799D02*
D03*
X1444776D02*
D03*
X187886Y124016D02*
D03*
X199909D02*
D03*
D72*
X760433Y87402D02*
D03*
Y84252D02*
D03*
Y81102D02*
D03*
Y77953D02*
D03*
X767126D02*
D03*
Y81102D02*
D03*
Y84252D02*
D03*
Y87402D02*
D03*
X946260Y99606D02*
D03*
Y102756D02*
D03*
Y105905D02*
D03*
Y109055D02*
D03*
X939567D02*
D03*
Y105905D02*
D03*
Y102756D02*
D03*
Y99606D02*
D03*
X946260Y84842D02*
D03*
Y87992D02*
D03*
Y91142D02*
D03*
Y94291D02*
D03*
X939567D02*
D03*
Y91142D02*
D03*
Y87992D02*
D03*
Y84842D02*
D03*
X97047Y90354D02*
D03*
Y87205D02*
D03*
Y84055D02*
D03*
Y80905D02*
D03*
X103740D02*
D03*
Y84055D02*
D03*
Y87205D02*
D03*
Y90354D02*
D03*
X693504Y64764D02*
D03*
Y61614D02*
D03*
Y58465D02*
D03*
Y55315D02*
D03*
X700197D02*
D03*
Y58465D02*
D03*
Y61614D02*
D03*
Y64764D02*
D03*
X715945Y77953D02*
D03*
Y81102D02*
D03*
Y84252D02*
D03*
Y87402D02*
D03*
X709252D02*
D03*
Y84252D02*
D03*
Y81102D02*
D03*
Y77953D02*
D03*
X851968Y79528D02*
D03*
Y76378D02*
D03*
Y73228D02*
D03*
Y70079D02*
D03*
X858661D02*
D03*
Y73228D02*
D03*
Y76378D02*
D03*
Y79528D02*
D03*
X806693D02*
D03*
Y76378D02*
D03*
Y73228D02*
D03*
Y70079D02*
D03*
X813386D02*
D03*
Y73228D02*
D03*
Y76378D02*
D03*
Y79528D02*
D03*
D75*
X63976Y120728D02*
D03*
Y100138D02*
D03*
Y69350D02*
D03*
Y48760D02*
D03*
D76*
X80709Y117618D02*
D03*
Y66240D02*
D03*
X61024Y171949D02*
D03*
X125984D02*
D03*
X261811D02*
D03*
X462598D02*
D03*
X663386D02*
D03*
X864173D02*
D03*
X1064961D02*
D03*
X1265748D02*
D03*
X1466535D02*
D03*
X326772D02*
D03*
X527559D02*
D03*
X728346D02*
D03*
X929134D02*
D03*
X1129921D02*
D03*
X1330709D02*
D03*
X1531496D02*
D03*
D77*
X1479331Y158465D02*
D03*
X1483268D02*
D03*
X1487205D02*
D03*
X1278543D02*
D03*
X1282480D02*
D03*
X1286417D02*
D03*
X1077756D02*
D03*
X1081693D02*
D03*
X1085630D02*
D03*
X876968D02*
D03*
X880906D02*
D03*
X884842D02*
D03*
X676181D02*
D03*
X680118D02*
D03*
X684055D02*
D03*
X475394D02*
D03*
X479331D02*
D03*
X483268D02*
D03*
X274606D02*
D03*
X278543D02*
D03*
X282480D02*
D03*
X73819D02*
D03*
X77756D02*
D03*
X81693D02*
D03*
X400197Y129921D02*
D03*
X404134D02*
D03*
X408071D02*
D03*
X496063Y129921D02*
D03*
X492126D02*
D03*
X488189D02*
D03*
X447441Y95472D02*
D03*
X443504D02*
D03*
X259842Y40354D02*
D03*
X263779D02*
D03*
X135827Y39370D02*
D03*
X139764D02*
D03*
D78*
X197835Y88287D02*
D03*
X195866Y100689D02*
D03*
X197835D02*
D03*
X199803D02*
D03*
X201772D02*
D03*
Y88287D02*
D03*
X199803D02*
D03*
X195866D02*
D03*
D79*
X192618Y93504D02*
D03*
Y95472D02*
D03*
Y97441D02*
D03*
X205020D02*
D03*
Y95472D02*
D03*
Y93504D02*
D03*
Y91535D02*
D03*
X192618Y91535D02*
D03*
D80*
X198819Y94488D02*
D03*
D81*
X416929Y121063D02*
D03*
Y117126D02*
D03*
X357283Y117126D02*
D03*
Y121063D02*
D03*
X295276Y135827D02*
D03*
Y139764D02*
D03*
X187992Y136319D02*
D03*
Y140256D02*
D03*
X1497047Y122047D02*
D03*
Y118110D02*
D03*
D82*
X167638Y121976D02*
D03*
D83*
X713583Y67126D02*
D03*
Y52953D02*
D03*
X711614D02*
D03*
Y67126D02*
D03*
D84*
X717717Y59055D02*
D03*
Y57087D02*
D03*
Y55118D02*
D03*
Y61024D02*
D03*
Y62992D02*
D03*
Y64961D02*
D03*
X707480Y55118D02*
D03*
Y57087D02*
D03*
Y59055D02*
D03*
Y61024D02*
D03*
Y62992D02*
D03*
Y64961D02*
D03*
D85*
X712598Y60039D02*
D03*
D86*
X588583Y96457D02*
D03*
D87*
X822835Y82284D02*
D03*
X824803D02*
D03*
X826772D02*
D03*
X828740D02*
D03*
X830709D02*
D03*
X822835Y67323D02*
D03*
X824803D02*
D03*
X826772D02*
D03*
X828740D02*
D03*
X830709D02*
D03*
X868110Y82284D02*
D03*
X870079D02*
D03*
X872047D02*
D03*
X874016D02*
D03*
X875984D02*
D03*
X868110Y67323D02*
D03*
X870079D02*
D03*
X872047D02*
D03*
X874016D02*
D03*
X875984D02*
D03*
D88*
X819291Y78740D02*
D03*
Y74803D02*
D03*
Y72835D02*
D03*
Y70866D02*
D03*
X834252D02*
D03*
Y72835D02*
D03*
Y74803D02*
D03*
Y76772D02*
D03*
Y78740D02*
D03*
X819291Y76772D02*
D03*
X864567Y78740D02*
D03*
Y74803D02*
D03*
Y72835D02*
D03*
Y70866D02*
D03*
X879528D02*
D03*
Y72835D02*
D03*
Y74803D02*
D03*
Y76772D02*
D03*
Y78740D02*
D03*
X864567Y76772D02*
D03*
D89*
X826772Y74803D02*
D03*
X872047D02*
D03*
D90*
X113189Y193996D02*
D03*
Y223327D02*
D03*
X56102Y193996D02*
D03*
Y223327D02*
D03*
X256890D02*
D03*
Y193996D02*
D03*
X313976Y223327D02*
D03*
Y193996D02*
D03*
X514764D02*
D03*
Y223327D02*
D03*
X457677Y193996D02*
D03*
Y223327D02*
D03*
X658465D02*
D03*
Y193996D02*
D03*
X715551Y223327D02*
D03*
Y193996D02*
D03*
X916339D02*
D03*
Y223327D02*
D03*
X859252Y193996D02*
D03*
Y223327D02*
D03*
X1060039D02*
D03*
Y193996D02*
D03*
X1117126Y223327D02*
D03*
Y193996D02*
D03*
X1317913D02*
D03*
Y223327D02*
D03*
X1260827Y193996D02*
D03*
Y223327D02*
D03*
X1461614D02*
D03*
Y193996D02*
D03*
X1518701Y223327D02*
D03*
Y193996D02*
D03*
X1466535Y47244D02*
D03*
X991142D02*
D03*
X883858D02*
D03*
X777559D02*
D03*
X647638D02*
D03*
D91*
X40354Y213779D02*
D03*
Y203543D02*
D03*
X128937Y213779D02*
D03*
Y203543D02*
D03*
X329724D02*
D03*
Y213779D02*
D03*
X241142Y203543D02*
D03*
Y213779D02*
D03*
X441929D02*
D03*
Y203543D02*
D03*
X530512Y213779D02*
D03*
Y203543D02*
D03*
X731299D02*
D03*
Y213779D02*
D03*
X642717Y203543D02*
D03*
Y213779D02*
D03*
X843504D02*
D03*
Y203543D02*
D03*
X932087Y213779D02*
D03*
Y203543D02*
D03*
X1132874D02*
D03*
Y213779D02*
D03*
X1044291Y203543D02*
D03*
Y213779D02*
D03*
X1245079D02*
D03*
Y203543D02*
D03*
X1333661Y213779D02*
D03*
Y203543D02*
D03*
X1534449D02*
D03*
Y213779D02*
D03*
X1445866Y203543D02*
D03*
Y213779D02*
D03*
D92*
X576772Y143701D02*
D03*
X566929D02*
D03*
X606299D02*
D03*
X596457D02*
D03*
X586614D02*
D03*
X529528Y87598D02*
D03*
Y118110D02*
D03*
Y79724D02*
D03*
Y110236D02*
D03*
X231299Y83661D02*
D03*
X137795Y118110D02*
D03*
X218504Y125984D02*
D03*
X231299Y98425D02*
D03*
X476378Y114173D02*
D03*
X507874D02*
D03*
X416339Y129921D02*
D03*
X404528Y113189D02*
D03*
X417323Y75787D02*
D03*
X391732Y129921D02*
D03*
X454724Y118110D02*
D03*
X357283Y128937D02*
D03*
X417323Y97441D02*
D03*
X61024Y154528D02*
D03*
X30512D02*
D03*
X261811D02*
D03*
X462598D02*
D03*
X663386D02*
D03*
X864173D02*
D03*
X1064961D02*
D03*
X1265748D02*
D03*
X1466535D02*
D03*
X231299D02*
D03*
X432087D02*
D03*
X632874D02*
D03*
X833661D02*
D03*
X1034449D02*
D03*
X1235236D02*
D03*
X1436024D02*
D03*
X357283Y75787D02*
D03*
X250000Y48228D02*
D03*
X273622D02*
D03*
X125984Y47244D02*
D03*
X149606D02*
D03*
X312992Y125984D02*
D03*
X63976Y131102D02*
D03*
X106299Y38386D02*
D03*
X92520Y100591D02*
D03*
X63976Y79724D02*
D03*
X90551Y49213D02*
D03*
D93*
X12795Y72047D02*
D03*
Y46063D02*
D03*
D94*
X1559055Y157480D02*
D03*
X1188976D02*
D03*
X787402D02*
D03*
X385827D02*
D03*
X15748Y165354D02*
D03*
X15748Y208661D02*
D03*
X216535D02*
D03*
X417323D02*
D03*
X618110D02*
D03*
X818898D02*
D03*
X1019685D02*
D03*
X1220473D02*
D03*
X1421260D02*
D03*
X153543D02*
D03*
X354331Y208661D02*
D03*
X555118D02*
D03*
X755905Y208661D02*
D03*
X956693Y208661D02*
D03*
X1157480D02*
D03*
X1358268D02*
D03*
X1559055Y208661D02*
D03*
X15748Y15748D02*
D03*
X787402D02*
D03*
X15748Y259842D02*
D03*
X787402D02*
D03*
X1559055D02*
D03*
Y15748D02*
D03*
D95*
X318898Y79724D02*
D03*
Y82677D02*
D03*
Y85630D02*
D03*
D96*
X403543Y47244D02*
D03*
X323819D02*
D03*
X229331D02*
D03*
M02*
