G04*
G04 #@! TF.GenerationSoftware,Altium Limited,Altium Designer,18.0.7 (293)*
G04*
G04 Layer_Color=255*
%FSLAX25Y25*%
%MOIN*%
G70*
G01*
G75*
G04:AMPARAMS|DCode=67|XSize=23.62mil|YSize=31.5mil|CornerRadius=5.91mil|HoleSize=0mil|Usage=FLASHONLY|Rotation=270.000|XOffset=0mil|YOffset=0mil|HoleType=Round|Shape=RoundedRectangle|*
%AMROUNDEDRECTD67*
21,1,0.02362,0.01968,0,0,270.0*
21,1,0.01181,0.03150,0,0,270.0*
1,1,0.01181,-0.00984,-0.00591*
1,1,0.01181,-0.00984,0.00591*
1,1,0.01181,0.00984,0.00591*
1,1,0.01181,0.00984,-0.00591*
%
%ADD67ROUNDEDRECTD67*%
%ADD90C,0.06299*%
%ADD91C,0.05512*%
%ADD92C,0.05906*%
%ADD93O,0.06299X0.03543*%
%ADD94C,0.23622*%
G04:AMPARAMS|DCode=106|XSize=19.68mil|YSize=78.74mil|CornerRadius=9.84mil|HoleSize=0mil|Usage=FLASHONLY|Rotation=270.000|XOffset=0mil|YOffset=0mil|HoleType=Round|Shape=RoundedRectangle|*
%AMROUNDEDRECTD106*
21,1,0.01968,0.05906,0,0,270.0*
21,1,0.00000,0.07874,0,0,270.0*
1,1,0.01968,-0.02953,0.00000*
1,1,0.01968,-0.02953,0.00000*
1,1,0.01968,0.02953,0.00000*
1,1,0.01968,0.02953,0.00000*
%
%ADD106ROUNDEDRECTD106*%
G04:AMPARAMS|DCode=107|XSize=105.51mil|YSize=141.73mil|CornerRadius=26.38mil|HoleSize=0mil|Usage=FLASHONLY|Rotation=270.000|XOffset=0mil|YOffset=0mil|HoleType=Round|Shape=RoundedRectangle|*
%AMROUNDEDRECTD107*
21,1,0.10551,0.08898,0,0,270.0*
21,1,0.05276,0.14173,0,0,270.0*
1,1,0.05276,-0.04449,-0.02638*
1,1,0.05276,-0.04449,0.02638*
1,1,0.05276,0.04449,0.02638*
1,1,0.05276,0.04449,-0.02638*
%
%ADD107ROUNDEDRECTD107*%
G04:AMPARAMS|DCode=108|XSize=47.24mil|YSize=125.98mil|CornerRadius=11.81mil|HoleSize=0mil|Usage=FLASHONLY|Rotation=0.000|XOffset=0mil|YOffset=0mil|HoleType=Round|Shape=RoundedRectangle|*
%AMROUNDEDRECTD108*
21,1,0.04724,0.10236,0,0,0.0*
21,1,0.02362,0.12598,0,0,0.0*
1,1,0.02362,0.01181,-0.05118*
1,1,0.02362,-0.01181,-0.05118*
1,1,0.02362,-0.01181,0.05118*
1,1,0.02362,0.01181,0.05118*
%
%ADD108ROUNDEDRECTD108*%
G04:AMPARAMS|DCode=109|XSize=86.61mil|YSize=220.47mil|CornerRadius=21.65mil|HoleSize=0mil|Usage=FLASHONLY|Rotation=0.000|XOffset=0mil|YOffset=0mil|HoleType=Round|Shape=RoundedRectangle|*
%AMROUNDEDRECTD109*
21,1,0.08661,0.17717,0,0,0.0*
21,1,0.04331,0.22047,0,0,0.0*
1,1,0.04331,0.02165,-0.08858*
1,1,0.04331,-0.02165,-0.08858*
1,1,0.04331,-0.02165,0.08858*
1,1,0.04331,0.02165,0.08858*
%
%ADD109ROUNDEDRECTD109*%
G04:AMPARAMS|DCode=110|XSize=31.5mil|YSize=125.98mil|CornerRadius=7.87mil|HoleSize=0mil|Usage=FLASHONLY|Rotation=0.000|XOffset=0mil|YOffset=0mil|HoleType=Round|Shape=RoundedRectangle|*
%AMROUNDEDRECTD110*
21,1,0.03150,0.11024,0,0,0.0*
21,1,0.01575,0.12598,0,0,0.0*
1,1,0.01575,0.00787,-0.05512*
1,1,0.01575,-0.00787,-0.05512*
1,1,0.01575,-0.00787,0.05512*
1,1,0.01575,0.00787,0.05512*
%
%ADD110ROUNDEDRECTD110*%
D67*
X189764Y225394D02*
D03*
X180315D02*
D03*
D90*
X113189Y193996D02*
D03*
Y223327D02*
D03*
X56102Y193996D02*
D03*
Y223327D02*
D03*
X256890D02*
D03*
Y193996D02*
D03*
X313976Y223327D02*
D03*
Y193996D02*
D03*
X514764D02*
D03*
Y223327D02*
D03*
X457677Y193996D02*
D03*
Y223327D02*
D03*
X658465D02*
D03*
Y193996D02*
D03*
X715551Y223327D02*
D03*
Y193996D02*
D03*
X916339D02*
D03*
Y223327D02*
D03*
X859252Y193996D02*
D03*
Y223327D02*
D03*
X1060039D02*
D03*
Y193996D02*
D03*
X1117126Y223327D02*
D03*
Y193996D02*
D03*
X1317913D02*
D03*
Y223327D02*
D03*
X1260827Y193996D02*
D03*
Y223327D02*
D03*
X1461614D02*
D03*
Y193996D02*
D03*
X1518701Y223327D02*
D03*
Y193996D02*
D03*
D91*
X40354Y213779D02*
D03*
Y203543D02*
D03*
X128937Y213779D02*
D03*
Y203543D02*
D03*
X329724D02*
D03*
Y213779D02*
D03*
X241142Y203543D02*
D03*
Y213779D02*
D03*
X441929D02*
D03*
Y203543D02*
D03*
X530512Y213779D02*
D03*
Y203543D02*
D03*
X731299D02*
D03*
Y213779D02*
D03*
X642717Y203543D02*
D03*
Y213779D02*
D03*
X843504D02*
D03*
Y203543D02*
D03*
X932087Y213779D02*
D03*
Y203543D02*
D03*
X1132874D02*
D03*
Y213779D02*
D03*
X1044291Y203543D02*
D03*
Y213779D02*
D03*
X1245079D02*
D03*
Y203543D02*
D03*
X1333661Y213779D02*
D03*
Y203543D02*
D03*
X1534449D02*
D03*
Y213779D02*
D03*
X1445866Y203543D02*
D03*
Y213779D02*
D03*
D92*
X576772Y143701D02*
D03*
X566929D02*
D03*
X606299D02*
D03*
X596457D02*
D03*
X586614D02*
D03*
X529528Y87598D02*
D03*
Y118110D02*
D03*
Y79724D02*
D03*
Y110236D02*
D03*
X231299Y83661D02*
D03*
X137795Y118110D02*
D03*
X218504Y125984D02*
D03*
X231299Y98425D02*
D03*
X476378Y114173D02*
D03*
X507874D02*
D03*
X416339Y129921D02*
D03*
X404528Y113189D02*
D03*
X417323Y75787D02*
D03*
X391732Y129921D02*
D03*
X454724Y118110D02*
D03*
X357283Y128937D02*
D03*
X417323Y97441D02*
D03*
X61024Y154528D02*
D03*
X30512D02*
D03*
X261811D02*
D03*
X462598D02*
D03*
X663386D02*
D03*
X864173D02*
D03*
X1064961D02*
D03*
X1265748D02*
D03*
X1466535D02*
D03*
X231299D02*
D03*
X432087D02*
D03*
X632874D02*
D03*
X833661D02*
D03*
X1034449D02*
D03*
X1235236D02*
D03*
X1436024D02*
D03*
X357283Y75787D02*
D03*
X250000Y48228D02*
D03*
X273622D02*
D03*
X125984Y47244D02*
D03*
X149606D02*
D03*
X312992Y125984D02*
D03*
X63976Y131102D02*
D03*
X106299Y38386D02*
D03*
X92520Y100591D02*
D03*
X63976Y79724D02*
D03*
X90551Y49213D02*
D03*
D93*
X12795Y72047D02*
D03*
Y46063D02*
D03*
D94*
X1559055Y157480D02*
D03*
X1188976D02*
D03*
X787402D02*
D03*
X385827D02*
D03*
X15748Y165354D02*
D03*
X15748Y208661D02*
D03*
X216535D02*
D03*
X417323D02*
D03*
X618110D02*
D03*
X818898D02*
D03*
X1019685D02*
D03*
X1220473D02*
D03*
X1421260D02*
D03*
X153543D02*
D03*
X354331Y208661D02*
D03*
X555118D02*
D03*
X755905Y208661D02*
D03*
X956693Y208661D02*
D03*
X1157480D02*
D03*
X1358268D02*
D03*
X1559055Y208661D02*
D03*
X15748Y15748D02*
D03*
X787402D02*
D03*
X15748Y259842D02*
D03*
X787402D02*
D03*
X1559055D02*
D03*
Y15748D02*
D03*
D106*
X1540354Y92520D02*
D03*
Y96457D02*
D03*
Y100394D02*
D03*
Y104331D02*
D03*
Y108268D02*
D03*
Y88583D02*
D03*
Y84646D02*
D03*
Y80709D02*
D03*
Y76772D02*
D03*
Y72835D02*
D03*
D107*
X1551378Y120039D02*
D03*
Y61063D02*
D03*
D108*
X190354Y240748D02*
D03*
X180512D02*
D03*
D109*
X166339Y257283D02*
D03*
X204528D02*
D03*
D110*
X558583Y36024D02*
D03*
X568583D02*
D03*
X578583D02*
D03*
X588583D02*
D03*
X598583D02*
D03*
X608583D02*
D03*
X618583D02*
D03*
Y17126D02*
D03*
X608583D02*
D03*
X598583D02*
D03*
X588583D02*
D03*
X578583D02*
D03*
X568583D02*
D03*
X558583D02*
D03*
M02*
