M48
;Layer_Color=9474304
;FILE_FORMAT=2:5
INCH,TZ
;TYPE=PLATED
T1F00S00C0.01181
T3F00S00C0.03937
T4F00S00C0.04331
T5F00S00C0.04724
T6F00S00C0.12205
%
T01
X27559Y48228
X30512
X33465
Y51181
X30512
X27559
X83661Y44094
X126969Y40354
Y37402
X129921
X132874
Y40354
X129921
X212598Y47244
X250984Y41339
Y38386
X253937
Y41339
X256890
Y38386
X275590Y35433
X311024
Y51181
X334646Y35433
X363189Y47244
X386811
X500984
X555512Y36024
X555118Y17126
X573819Y17717
X582677
X592520
X602362
X613189
X623032
X634842Y37402
X601378Y45276
X704724Y50197
X709646Y44291
X715551
X720472Y50197
X1556102Y49213
X1559055
X1562008
Y52165
X1559055
X1556102
X1554134Y58071
Y61024
X1551181
Y58071
X1530512Y57087
Y60039
X1526575
Y57087
X1522638
Y60039
X1533465Y63976
Y69882
Y80709
Y100394
Y118110
X1551181Y120079
X1554134
Y123031
X1551181
X1556102Y126969
X1559055
X1562008
Y129921
X1559055
X1556102
X1555118Y108268
Y104331
X1551181
Y108268
X1555118Y96457
Y92520
Y88583
X1566929Y90551
Y82677
Y74803
Y66929
Y98425
Y106299
Y114173
X1509842
X1515748Y104437
X1513780Y96457
X1515748Y84752
X1504921Y84646
X1492126
X1487205Y60039
Y57087
X1483268
Y60039
X1479331
Y57087
X1471457Y98425
Y102362
X1479331Y114280
X1485236
X1491142
X1497047Y125984
X1492126Y158465
X1493110Y170276
Y176181
X1496063Y182087
X1499016Y190945
X1491142
X1483268
X1475394
X1477362Y205709
X1485236
X1493110
X1500984
X1506890
X1516732Y184055
X1511811Y176181
X1512795Y164370
Y158465
X1505906Y158465
X1511811Y149606
X1520669Y160433
X1537402Y158465
X1528543Y141732
Y138779
X1532480Y184055
X1486220Y165354
X1475394
X1476378Y158465
X1453740Y158465
Y161417
Y164370
X1447835
Y161417
Y158465
X1420276Y157480
Y160433
X1417323
X1414370
Y157480
X1417323
X1336614Y158465
X1319882Y160433
X1312008Y158465
Y164370
X1311024Y176181
X1315945Y184055
X1331693
X1327756Y143701
X1327756Y140748
X1311024Y149606
X1305118Y158465
X1306102Y205709
X1300197
X1292323
X1284449
X1276575
X1274606Y190945
X1282480
X1290354
X1298228
X1295276Y182087
X1292323Y176181
Y170276
X1285433Y165354
X1274606
X1275591Y158465
X1291339
X1252953Y158465
Y161417
Y164370
X1247047
Y161417
Y158465
X1135827
X1119094Y160433
X1111220Y158465
Y164370
X1110236Y176181
X1115158Y184055
X1130906
X1094488Y182087
X1091535Y176181
Y170276
X1084646Y165354
X1073819
X1074803Y158465
X1090551
X1104331
X1110236Y149606
X1126968Y143701
Y140748
X1097441Y190945
X1089567
X1081693
X1073819
X1075787Y205709
X1083661
X1091535
X1099409
X1105315
X1052165Y164370
Y161417
Y158465
X1046260
Y161417
Y164370
X935039Y158465
X918307Y160433
X910433Y158465
Y164370
X909449Y176181
X914370Y184055
X930118
X893701Y182087
X890748Y176181
Y170276
X883858Y165354
X873032
X874016Y158465
X889764
X903543
X909449Y149606
X926181Y143701
Y140748
X912402Y109252
X914370Y106299
X912598Y102559
X914370Y99410
Y94488
X912402Y91535
X914567Y87795
X912402Y84646
X916732Y74705
X950787Y84842
X953740Y87795
Y91732
X950787Y94685
Y99606
X953740Y102559
Y106496
X950787Y109449
X969488Y115157
X975394
X979331Y82972
X966535Y82677
Y86614
X875984Y92520
X870079Y92520
X862205Y87598
X860236Y84646
X856299Y98425
X852362
X848425
X844488
X840551
X836614
Y112205
X840551
X844488
X848425
X852362
X856299
X859252Y102362
X855315Y65945
X847441
X845472Y158465
Y161417
Y164370
X851378
Y161417
Y158465
X873032Y190945
X880906
X888780
X896653
X898622Y205709
X904528
X890748
X882874
X875000
X832677Y112205
X828740
X825787Y102362
X828740Y98425
X832677
X830709Y92520
X824803
X820866Y87598
X817913Y84646
X806102Y82677
X805118Y66929
X782480Y86614
X778543Y87598
X774606Y88583
X770669Y89567
X755905Y88583
Y84646
Y80709
X747047
X744095Y84646
X741142Y88583
X735236
X732283Y84646
X729331Y80709
X720472
Y84646
Y88583
X705709
X701772Y85630
X697835Y83661
X693898Y81693
X687992Y75787
X684055Y78740
X681102Y81693
Y70866
X684055Y63976
X687992Y56102
X713583Y70866
X708661Y95472
X714567Y115157
X726378
X738189
X750000
X761811
X725394Y140748
Y143701
X708661Y149606
X709646Y158465
Y164370
X717520Y160433
X702756Y158465
X688976
X689961Y170276
Y176181
X692913Y182087
X695866Y190945
X687992
X680118
X682087Y205709
X689961
X697835
X703740
X713583Y184055
X708661Y176181
X729331Y184055
X734252Y158465
X683071Y165354
X679134Y119095
X685039Y108268
X674213Y88583
X670276Y90551
X638779Y107283
X623032Y92520
X616142
X618701Y86811
X612795Y85827
X609252Y88583
X605905Y79921
X606496Y74803
X601378Y78740
X599409Y70866
Y63976
X598425Y59055
X593504
X588583
X590551Y64961
Y67913
X593504Y74803
X578740Y70866
X575787Y77165
X573032Y79823
X575000Y82284
X564370Y84646
X564567Y78937
Y73032
X578740Y59055
X614764Y68110
X622638Y70079
X624606Y77953
X593110Y123228
X587598Y123031
X575787Y122047
X564961Y109252
X562992Y106299
X567913Y102362
X555118Y99410
X552165Y112205
X533465Y127953
X524606Y140748
Y143701
X533464Y158465
X528543Y184055
X644685Y164370
Y161417
Y158465
X650591
Y161417
Y164370
X672244Y165354
X673228Y158465
X672244Y190945
X674213Y205709
X502953
X497047
X489173
X481299
X473425
X471457Y190945
X479331
X487205
X495079
X492126Y182087
X489173Y176181
Y170276
X482283Y165354
X471457
X472441Y158465
X488189
X501968
X508858Y158465
Y164370
X516732Y160433
X507874Y149606
X492126Y142717
X454724Y135827
X450787
X441929Y128937
X438976
X440551Y117126
X447441Y112205
Y106299
X451378Y95472
X440551Y84646
X435630Y87598
X422835Y121063
X383465
X388386Y112205
Y106299
X382480Y99409
Y89567
X380512Y83661
X373622Y86614
X369685Y87598
X373622Y70866
X388386Y72835
Y78740
X393307Y75787
X368701Y109252
X443898Y158465
Y161417
Y164370
X449803
Y161417
Y158465
X507874Y176181
X512795Y184055
X486221Y101378
X492126Y87598
X363779Y84646
X357874Y87598
X352953
X360827Y106299
X334646Y98425
X318898
X318898Y101378
X313976Y104331
Y107283
X312992Y111221
X311024Y102362
X308071
Y99410
X311024Y99409
X310039Y96457
Y93504
X307087
Y96457
X304134Y94488
X300197
X296260
X291339
X287402
X283465
X275590Y88583
Y85630
Y82677
Y79724
X275590Y70866
Y59055
X251969Y55118
Y70866
X228346
X218504Y75787
X212598
X212598Y68898
X209646
Y65945
Y62992
X212598
Y65945
Y102362
X236221Y118110
X251969
X267717
X287402
X289370Y139764
Y142717
X292323
X295276
X298228
X301181
Y139764
X307087Y149606
X308071Y158465
Y164370
X315945Y160433
X301181Y158465
X287402
X288386Y170276
Y176181
X291339Y182087
X294291Y190945
X286417
X278543
X270669
X272638Y205709
X280512
X288386
X296260
X302165
X312008Y184055
X307087Y176181
X327756Y184055
X332677Y158465
X323819Y142717
Y139764
X334646Y118110
Y74803
Y55118
X318898Y79724
Y82677
Y85630
X303150Y66929
X251969Y98425
X249016Y158465
Y161417
Y164370
X243110
Y161417
Y158465
X271654Y158465
X270669Y165354
X281496
X190945Y162402
Y159449
X187992
Y162402
X185039
Y159449
Y156496
X187992
X190945
X195866Y127953
Y124016
Y120079
Y115157
Y111221
Y107283
X190945Y101378
X196850Y96457
Y92520
X200787
Y96457
X204724Y85630
X207677
Y82677
Y79724
X201772Y75787
X177165Y78740
X157480
X141732Y82677
X129921Y78740
Y59055
X141732Y55118
X94488Y58858
X91535
Y61811
X94488
X88583
Y58858
X74803Y59055
X73819Y78740
X88583Y78543
X100394Y68898
X105315Y69882
X85630Y97441
X88583Y107283
X91535
X94488
Y110236
X91535
X88583
Y113189
X91535
X94488
X87598Y128937
X86614Y158465
X87598Y170276
Y176181
X90551Y182087
X93504Y190945
X85630
X77756
X69882
X71850Y205709
X79724
X87598
X95472
X101378
X111221Y184055
X106299Y176181
X107283Y164370
Y158465
X100394Y158465
X106299Y149606
X115157Y160433
X131890Y158465
X123031Y143701
Y140748
X129921Y118110
Y102362
X149606Y118110
X203740Y120079
Y124016
Y127953
Y115157
Y111221
X126968Y184055
X80709Y165354
X69882
X70866Y158465
X48228Y158465
Y161417
Y164370
X42323
Y161417
Y158465
X45276Y115157
Y112205
Y109252
X48228
X51181Y109252
Y112205
Y115157
X48228Y115157
Y112205
X37402Y100394
Y97441
X19094Y92716
Y89764
X16142
Y92716
X13189
Y89764
Y128150
X16142
X19094
Y131102
X16142
X13189
X67913Y210630
X75787
X83661
X91535
X99410
X103347Y214567
X95472Y233268
X91535Y235236
X87598Y237205
X83661Y239173
X79724Y241142
X75787Y243110
X71850Y245079
X67913Y247047
X62008Y228346
X133858Y226378
X135827Y250000
X177165Y227362
Y224409
Y221457
X180118
X183071
Y224409
X180118
Y227362
X183071
X262795Y228346
X268701Y210630
X276575
X284449
X292323
X300197
X304134Y214567
X296260Y233268
X292323Y235236
X288386Y237205
X284449Y239173
X280512Y241142
X276575Y243110
X272638Y245079
X268701Y247047
X336614Y250000
X334646Y226378
X463583Y228346
X469488Y210630
X477362
X485236
X493110
X500984
X504921Y214567
X497047Y233268
X493110Y235236
X489173Y237205
X485236Y239173
X481299Y241142
X477362Y243110
X473425Y245079
X469488Y247047
X537402Y250000
X535433Y227362
X664370Y228346
X670276Y210630
Y247047
X674213Y245079
X678150Y243110
X682087Y241142
X686024Y239173
X689961Y237205
X693898Y235236
X697835Y233268
X705709Y214567
X701772Y210630
X693898
X686024
X678150
X736221Y226378
X738189Y250000
X765748
X769685
X773622
X777559
X797244
X801181
X805118
X809055
X801181Y227362
X797244
X793307
X789370
X785433
X781496
X777559
X773622
X865158Y228346
X871063Y210630
X878937
X886811
X894685
X902559
X906496Y214567
X898622Y233268
X894685Y235236
X890748Y237205
X886811Y239173
X882874Y241142
X878937Y243110
X875000Y245079
X871063Y247047
X938976Y250000
X937008Y226378
X974409Y227362
Y221457
X978347
X982283
X986220
Y236221
X982283Y233268
X978347Y230315
X990158Y239173
X994094Y242126
X998032Y245079
X1001968Y248031
Y221457
X998032
X994094
X990158
X1065945Y228346
X1071850Y210630
X1079725
X1087599
X1095473
X1103347
X1107283Y214567
X1099409Y233268
X1095473Y235236
X1091535Y237205
X1087599Y239173
X1083661Y241142
X1079725Y243110
X1075787Y245079
X1071850Y247047
X1139764Y250000
X1137795Y226378
X1266732Y228346
X1272638Y210630
X1280512
X1288386
X1296260
Y235236
X1300197Y233268
X1292323Y237205
X1288386Y239173
X1284449Y241142
X1280512Y243110
X1276575Y245079
X1272638Y247047
X1308071Y214567
X1304134Y210630
X1338583Y226378
X1340551Y250000
X1468504Y252953
X1473425Y247047
X1477362Y245079
X1481299Y243110
X1485236Y241142
X1489173Y239173
X1493110Y237205
X1497047Y235236
X1500984Y233268
X1508858Y214567
X1504921Y210630
X1497047
X1489173
X1481299
X1473425
X1470472Y229331
X1466535Y228346
T03
X90551Y49213
X106299Y38386
X125984Y47244
X149606
X250000Y48228
X273622
X1466535Y154528
X1534449Y203543
X1445866
X1436024Y154528
X1333661Y203543
X1245079
X1235236Y154528
X1265748
X1132874Y203543
X1044291
X1034449Y154528
X1064961
X932087Y203543
X843504
X833661Y154528
X864173
X731299Y203543
X642717
X632874Y154528
X663386
X606299Y143701
X596457
X586614
X576772
X566929
X529528Y118110
Y110236
Y87598
Y79724
X530512Y203543
X441929
X432087Y154528
X462598
X454724Y118110
X476378Y114173
X507874
X404528Y113189
X416339Y129921
X391732
X417323Y97441
Y75787
X357283
Y128937
X312992Y125984
X261811Y154528
X231299
X218504Y125984
X231299Y98425
Y83661
X241142Y203543
X329724
X128937
X137795Y118110
X92520Y100591
X63976Y79724
Y131102
X61024Y154528
X30512
X40354Y203543
Y213779
X128937
X241142
X329724
X441929
X530512
X642717
X731299
X843504
X932087
X1044291
X1132874
X1245079
X1333661
X1445866
X1534449
T04
X229331Y47244
X323819
X403543
X647638
X777559
X883858
X991142
X1466535
X1563386Y60630
Y118504
X11417Y119488
Y100984
X176181Y261811
X194685
T05
X1518701Y193996
X1461614
X1317913
X1260827
X1117126
X1060039
X916339
X859252
X715551
X658465
X514764
X457677
X313976
X256890
X113189
X56102
Y223327
X113189
X256890
X313976
X457677
X514764
X658465
X715551
X859252
X916339
X1060039
X1117126
X1260827
X1317913
X1461614
X1518701
T06
X15748Y15748
X787402
X1559055
Y157480
X1188976
X787402
X385827
X15748Y165354
X15748Y208661
X15748Y259842
X153543Y208661
X216535
X354331Y208661
X417323Y208661
X555118Y208661
X618110Y208661
X755905
X818898
X787402Y259842
X956693Y208661
X1019685Y208661
X1157480Y208661
X1220473Y208661
X1358268Y208661
X1421260Y208661
X1559055
X1559055Y259842
M30
