G04*
G04 #@! TF.GenerationSoftware,Altium Limited,Altium Designer,18.0.7 (293)*
G04*
G04 Layer_Color=16711935*
%FSLAX25Y25*%
%MOIN*%
G70*
G01*
G75*
G04:AMPARAMS|DCode=67|XSize=23.62mil|YSize=31.5mil|CornerRadius=5.91mil|HoleSize=0mil|Usage=FLASHONLY|Rotation=270.000|XOffset=0mil|YOffset=0mil|HoleType=Round|Shape=RoundedRectangle|*
%AMROUNDEDRECTD67*
21,1,0.02362,0.01968,0,0,270.0*
21,1,0.01181,0.03150,0,0,270.0*
1,1,0.01181,-0.00984,-0.00591*
1,1,0.01181,-0.00984,0.00591*
1,1,0.01181,0.00984,0.00591*
1,1,0.01181,0.00984,-0.00591*
%
%ADD67ROUNDEDRECTD67*%
%ADD90C,0.06299*%
%ADD91C,0.05512*%
%ADD92C,0.05906*%
%ADD93O,0.06299X0.03543*%
%ADD94C,0.23622*%
%ADD95C,0.01181*%
%ADD96C,0.05118*%
G04:AMPARAMS|DCode=106|XSize=19.68mil|YSize=78.74mil|CornerRadius=9.84mil|HoleSize=0mil|Usage=FLASHONLY|Rotation=270.000|XOffset=0mil|YOffset=0mil|HoleType=Round|Shape=RoundedRectangle|*
%AMROUNDEDRECTD106*
21,1,0.01968,0.05906,0,0,270.0*
21,1,0.00000,0.07874,0,0,270.0*
1,1,0.01968,-0.02953,0.00000*
1,1,0.01968,-0.02953,0.00000*
1,1,0.01968,0.02953,0.00000*
1,1,0.01968,0.02953,0.00000*
%
%ADD106ROUNDEDRECTD106*%
G04:AMPARAMS|DCode=107|XSize=105.51mil|YSize=141.73mil|CornerRadius=26.38mil|HoleSize=0mil|Usage=FLASHONLY|Rotation=270.000|XOffset=0mil|YOffset=0mil|HoleType=Round|Shape=RoundedRectangle|*
%AMROUNDEDRECTD107*
21,1,0.10551,0.08898,0,0,270.0*
21,1,0.05276,0.14173,0,0,270.0*
1,1,0.05276,-0.04449,-0.02638*
1,1,0.05276,-0.04449,0.02638*
1,1,0.05276,0.04449,0.02638*
1,1,0.05276,0.04449,-0.02638*
%
%ADD107ROUNDEDRECTD107*%
G04:AMPARAMS|DCode=108|XSize=47.24mil|YSize=125.98mil|CornerRadius=11.81mil|HoleSize=0mil|Usage=FLASHONLY|Rotation=0.000|XOffset=0mil|YOffset=0mil|HoleType=Round|Shape=RoundedRectangle|*
%AMROUNDEDRECTD108*
21,1,0.04724,0.10236,0,0,0.0*
21,1,0.02362,0.12598,0,0,0.0*
1,1,0.02362,0.01181,-0.05118*
1,1,0.02362,-0.01181,-0.05118*
1,1,0.02362,-0.01181,0.05118*
1,1,0.02362,0.01181,0.05118*
%
%ADD108ROUNDEDRECTD108*%
G04:AMPARAMS|DCode=109|XSize=86.61mil|YSize=220.47mil|CornerRadius=21.65mil|HoleSize=0mil|Usage=FLASHONLY|Rotation=0.000|XOffset=0mil|YOffset=0mil|HoleType=Round|Shape=RoundedRectangle|*
%AMROUNDEDRECTD109*
21,1,0.08661,0.17717,0,0,0.0*
21,1,0.04331,0.22047,0,0,0.0*
1,1,0.04331,0.02165,-0.08858*
1,1,0.04331,-0.02165,-0.08858*
1,1,0.04331,-0.02165,0.08858*
1,1,0.04331,0.02165,0.08858*
%
%ADD109ROUNDEDRECTD109*%
G04:AMPARAMS|DCode=110|XSize=31.5mil|YSize=125.98mil|CornerRadius=7.87mil|HoleSize=0mil|Usage=FLASHONLY|Rotation=0.000|XOffset=0mil|YOffset=0mil|HoleType=Round|Shape=RoundedRectangle|*
%AMROUNDEDRECTD110*
21,1,0.03150,0.11024,0,0,0.0*
21,1,0.01575,0.12598,0,0,0.0*
1,1,0.01575,0.00787,-0.05512*
1,1,0.01575,-0.00787,-0.05512*
1,1,0.01575,-0.00787,0.05512*
1,1,0.01575,0.00787,0.05512*
%
%ADD110ROUNDEDRECTD110*%
G36*
X1199803Y63976D02*
X1197908D01*
X1188242Y93920D01*
X1190138D01*
X1199803Y63976D01*
D02*
G37*
G36*
X1320944Y64355D02*
X1318859D01*
X1313553Y85819D01*
X1313031Y88377D01*
X1312510Y85819D01*
X1307298Y64355D01*
X1305261D01*
X1299386Y91931D01*
X1301613D01*
X1305688Y71842D01*
X1306398Y67719D01*
X1307204Y71652D01*
X1312084Y91931D01*
X1314026D01*
X1318954Y71652D01*
X1319807Y67719D01*
X1320470Y71842D01*
X1324545Y91931D01*
X1326772D01*
X1320944Y64355D01*
D02*
G37*
G36*
X1225094Y64355D02*
X1222915D01*
Y76342D01*
X1223104Y88187D01*
X1214718Y64355D01*
X1213012D01*
X1204579Y88330D01*
X1204768Y76295D01*
Y64355D01*
X1202589D01*
Y91931D01*
X1205479D01*
X1213865Y67625D01*
X1222204Y91931D01*
X1225094D01*
Y64355D01*
D02*
G37*
G36*
X1294980Y64355D02*
X1280481D01*
Y66345D01*
X1292800D01*
Y77574D01*
X1282092D01*
Y79564D01*
X1292800D01*
Y89893D01*
X1280576D01*
Y91931D01*
X1294980D01*
Y64355D01*
D02*
G37*
G36*
X1248784D02*
X1246510D01*
X1244141Y72078D01*
X1233812Y72078D01*
X1231443Y64355D01*
X1229169D01*
X1237982Y91931D01*
X1239972D01*
X1248784Y64355D01*
D02*
G37*
G36*
X1255038Y67246D02*
X1255370Y67103D01*
X1255607Y66961D01*
X1255702Y66866D01*
X1255939Y66487D01*
X1256081Y66109D01*
X1256128Y65824D01*
Y65777D01*
Y65729D01*
X1256081Y65303D01*
X1255891Y64924D01*
X1255749Y64735D01*
X1255702Y64640D01*
X1255323Y64403D01*
X1254944Y64261D01*
X1254659Y64213D01*
X1254517D01*
X1253996Y64261D01*
X1253617Y64450D01*
X1253427Y64592D01*
X1253333Y64640D01*
X1253096Y64971D01*
X1252954Y65350D01*
X1252906Y65635D01*
Y65682D01*
Y65729D01*
X1252954Y66203D01*
X1253096Y66535D01*
X1253285Y66772D01*
X1253333Y66866D01*
X1253712Y67151D01*
X1254091Y67293D01*
X1254375Y67340D01*
X1254517D01*
X1255038Y67246D01*
D02*
G37*
G36*
X1269868Y92215D02*
X1270958Y91978D01*
X1271953Y91694D01*
X1272758Y91315D01*
X1273422Y90936D01*
X1273896Y90651D01*
X1274038Y90509D01*
X1274180Y90414D01*
X1274227Y90367D01*
X1274275Y90320D01*
X1274654Y89941D01*
X1274985Y89514D01*
X1275554Y88661D01*
X1275933Y87809D01*
X1276170Y87003D01*
X1276359Y86245D01*
X1276407Y85961D01*
Y85676D01*
X1276454Y85439D01*
Y85297D01*
Y85203D01*
Y85155D01*
X1276407Y84587D01*
X1276359Y84018D01*
X1276122Y82976D01*
X1275743Y82123D01*
X1275317Y81365D01*
X1274938Y80796D01*
X1274559Y80370D01*
X1274322Y80086D01*
X1274227Y80038D01*
Y79991D01*
X1273516Y79470D01*
X1272664Y78948D01*
X1271811Y78475D01*
X1270911Y78096D01*
X1270152Y77764D01*
X1269821Y77622D01*
X1269489Y77527D01*
X1269252Y77432D01*
X1269063Y77337D01*
X1268968Y77290D01*
X1268921D01*
X1268257Y77053D01*
X1267689Y76816D01*
X1267120Y76579D01*
X1266646Y76390D01*
X1266173Y76153D01*
X1265794Y75963D01*
X1265130Y75537D01*
X1264657Y75205D01*
X1264277Y74968D01*
X1264088Y74779D01*
X1264040Y74732D01*
X1263614Y74211D01*
X1263282Y73594D01*
X1263046Y72979D01*
X1262856Y72410D01*
X1262761Y71889D01*
X1262714Y71462D01*
Y71178D01*
Y71131D01*
Y71083D01*
X1262761Y70278D01*
X1262951Y69520D01*
X1263235Y68904D01*
X1263519Y68335D01*
X1263804Y67909D01*
X1264088Y67577D01*
X1264277Y67388D01*
X1264325Y67340D01*
X1264941Y66866D01*
X1265651Y66535D01*
X1266315Y66298D01*
X1266978Y66156D01*
X1267594Y66061D01*
X1268068Y65966D01*
X1268494D01*
X1269537Y66061D01*
X1270484Y66251D01*
X1271290Y66487D01*
X1272000Y66819D01*
X1272522Y67103D01*
X1272901Y67388D01*
X1273137Y67577D01*
X1273232Y67625D01*
X1273801Y68288D01*
X1274227Y69046D01*
X1274559Y69804D01*
X1274748Y70562D01*
X1274891Y71226D01*
X1274938Y71747D01*
X1274985Y71936D01*
Y72078D01*
Y72173D01*
Y72220D01*
X1277165D01*
X1277117Y71273D01*
X1276975Y70467D01*
X1276786Y69709D01*
X1276596Y69046D01*
X1276407Y68525D01*
X1276217Y68098D01*
X1276075Y67861D01*
X1276028Y67767D01*
X1275554Y67103D01*
X1275080Y66535D01*
X1274559Y66061D01*
X1274038Y65635D01*
X1273611Y65350D01*
X1273232Y65114D01*
X1272995Y64971D01*
X1272901Y64924D01*
X1272143Y64592D01*
X1271384Y64355D01*
X1270626Y64213D01*
X1269963Y64118D01*
X1269347Y64024D01*
X1268921Y63976D01*
X1268494D01*
X1267215Y64071D01*
X1266078Y64261D01*
X1265083Y64592D01*
X1264230Y64971D01*
X1263614Y65303D01*
X1263093Y65635D01*
X1262951Y65729D01*
X1262809Y65824D01*
X1262761Y65919D01*
X1262714D01*
X1262335Y66298D01*
X1262003Y66724D01*
X1261435Y67577D01*
X1261056Y68430D01*
X1260819Y69283D01*
X1260629Y69994D01*
X1260582Y70325D01*
Y70610D01*
X1260534Y70799D01*
Y70989D01*
Y71083D01*
Y71131D01*
X1260582Y71889D01*
X1260629Y72552D01*
X1260771Y73121D01*
X1260913Y73642D01*
X1261056Y74068D01*
X1261150Y74400D01*
X1261245Y74590D01*
X1261292Y74637D01*
X1261624Y75205D01*
X1262003Y75679D01*
X1262382Y76106D01*
X1262761Y76532D01*
X1263093Y76816D01*
X1263377Y77053D01*
X1263567Y77195D01*
X1263661Y77243D01*
X1264325Y77669D01*
X1265036Y78048D01*
X1265841Y78427D01*
X1266599Y78759D01*
X1267262Y79043D01*
X1267831Y79233D01*
X1268068Y79327D01*
X1268210Y79375D01*
X1268305Y79422D01*
X1268352D01*
X1269442Y79801D01*
X1270342Y80228D01*
X1271148Y80654D01*
X1271764Y80986D01*
X1272237Y81317D01*
X1272569Y81554D01*
X1272806Y81744D01*
X1272853Y81791D01*
X1273327Y82312D01*
X1273659Y82881D01*
X1273943Y83450D01*
X1274085Y84018D01*
X1274180Y84492D01*
X1274227Y84871D01*
X1274275Y85108D01*
Y85203D01*
X1274227Y86008D01*
X1274038Y86719D01*
X1273801Y87335D01*
X1273516Y87856D01*
X1273232Y88282D01*
X1272995Y88614D01*
X1272806Y88803D01*
X1272758Y88851D01*
X1272143Y89325D01*
X1271479Y89656D01*
X1270769Y89941D01*
X1270105Y90083D01*
X1269537Y90178D01*
X1269063Y90272D01*
X1268636D01*
X1267689Y90178D01*
X1266836Y89988D01*
X1266078Y89704D01*
X1265509Y89419D01*
X1264988Y89088D01*
X1264657Y88803D01*
X1264420Y88614D01*
X1264372Y88519D01*
X1263851Y87856D01*
X1263472Y87098D01*
X1263188Y86340D01*
X1262998Y85629D01*
X1262903Y85013D01*
X1262809Y84492D01*
Y84302D01*
Y84160D01*
Y84066D01*
Y84018D01*
X1260629D01*
X1260676Y84681D01*
X1260724Y85345D01*
X1260961Y86482D01*
X1261340Y87524D01*
X1261766Y88377D01*
X1262193Y89040D01*
X1262382Y89325D01*
X1262524Y89562D01*
X1262714Y89751D01*
X1262809Y89893D01*
X1262856Y89941D01*
X1262903Y89988D01*
X1263330Y90414D01*
X1263804Y90746D01*
X1264277Y91078D01*
X1264751Y91315D01*
X1265699Y91741D01*
X1266599Y92025D01*
X1267404Y92168D01*
X1267736Y92262D01*
X1268068D01*
X1268305Y92310D01*
X1268636D01*
X1269868Y92215D01*
D02*
G37*
%LPC*%
G36*
X1238976Y88851D02*
X1234428Y74068D01*
X1243525Y74068D01*
X1238976Y88851D01*
D02*
G37*
%LPD*%
D67*
X189764Y225394D02*
D03*
X180315D02*
D03*
D90*
X113189Y193996D02*
D03*
Y223327D02*
D03*
X56102Y193996D02*
D03*
Y223327D02*
D03*
X256890D02*
D03*
Y193996D02*
D03*
X313976Y223327D02*
D03*
Y193996D02*
D03*
X514764D02*
D03*
Y223327D02*
D03*
X457677Y193996D02*
D03*
Y223327D02*
D03*
X658465D02*
D03*
Y193996D02*
D03*
X715551Y223327D02*
D03*
Y193996D02*
D03*
X916339D02*
D03*
Y223327D02*
D03*
X859252Y193996D02*
D03*
Y223327D02*
D03*
X1060039D02*
D03*
Y193996D02*
D03*
X1117126Y223327D02*
D03*
Y193996D02*
D03*
X1317913D02*
D03*
Y223327D02*
D03*
X1260827Y193996D02*
D03*
Y223327D02*
D03*
X1461614D02*
D03*
Y193996D02*
D03*
X1518701Y223327D02*
D03*
Y193996D02*
D03*
X1466535Y47244D02*
D03*
X991142D02*
D03*
X883858D02*
D03*
X777559D02*
D03*
X647638D02*
D03*
D91*
X40354Y213779D02*
D03*
Y203543D02*
D03*
X128937Y213779D02*
D03*
Y203543D02*
D03*
X329724D02*
D03*
Y213779D02*
D03*
X241142Y203543D02*
D03*
Y213779D02*
D03*
X441929D02*
D03*
Y203543D02*
D03*
X530512Y213779D02*
D03*
Y203543D02*
D03*
X731299D02*
D03*
Y213779D02*
D03*
X642717Y203543D02*
D03*
Y213779D02*
D03*
X843504D02*
D03*
Y203543D02*
D03*
X932087Y213779D02*
D03*
Y203543D02*
D03*
X1132874D02*
D03*
Y213779D02*
D03*
X1044291Y203543D02*
D03*
Y213779D02*
D03*
X1245079D02*
D03*
Y203543D02*
D03*
X1333661Y213779D02*
D03*
Y203543D02*
D03*
X1534449D02*
D03*
Y213779D02*
D03*
X1445866Y203543D02*
D03*
Y213779D02*
D03*
D92*
X576772Y143701D02*
D03*
X566929D02*
D03*
X606299D02*
D03*
X596457D02*
D03*
X586614D02*
D03*
X529528Y87598D02*
D03*
Y118110D02*
D03*
Y79724D02*
D03*
Y110236D02*
D03*
X231299Y83661D02*
D03*
X137795Y118110D02*
D03*
X218504Y125984D02*
D03*
X231299Y98425D02*
D03*
X476378Y114173D02*
D03*
X507874D02*
D03*
X416339Y129921D02*
D03*
X404528Y113189D02*
D03*
X417323Y75787D02*
D03*
X391732Y129921D02*
D03*
X454724Y118110D02*
D03*
X357283Y128937D02*
D03*
X417323Y97441D02*
D03*
X61024Y154528D02*
D03*
X30512D02*
D03*
X261811D02*
D03*
X462598D02*
D03*
X663386D02*
D03*
X864173D02*
D03*
X1064961D02*
D03*
X1265748D02*
D03*
X1466535D02*
D03*
X231299D02*
D03*
X432087D02*
D03*
X632874D02*
D03*
X833661D02*
D03*
X1034449D02*
D03*
X1235236D02*
D03*
X1436024D02*
D03*
X357283Y75787D02*
D03*
X250000Y48228D02*
D03*
X273622D02*
D03*
X125984Y47244D02*
D03*
X149606D02*
D03*
X312992Y125984D02*
D03*
X63976Y131102D02*
D03*
X106299Y38386D02*
D03*
X92520Y100591D02*
D03*
X63976Y79724D02*
D03*
X90551Y49213D02*
D03*
D93*
X12795Y72047D02*
D03*
Y46063D02*
D03*
D94*
X1559055Y157480D02*
D03*
X1188976D02*
D03*
X787402D02*
D03*
X385827D02*
D03*
X15748Y165354D02*
D03*
X15748Y208661D02*
D03*
X216535D02*
D03*
X417323D02*
D03*
X618110D02*
D03*
X818898D02*
D03*
X1019685D02*
D03*
X1220473D02*
D03*
X1421260D02*
D03*
X153543D02*
D03*
X354331Y208661D02*
D03*
X555118D02*
D03*
X755905Y208661D02*
D03*
X956693Y208661D02*
D03*
X1157480D02*
D03*
X1358268D02*
D03*
X1559055Y208661D02*
D03*
X15748Y15748D02*
D03*
X787402D02*
D03*
X15748Y259842D02*
D03*
X787402D02*
D03*
X1559055D02*
D03*
Y15748D02*
D03*
D95*
X318898Y79724D02*
D03*
Y82677D02*
D03*
Y85630D02*
D03*
D96*
X403543Y47244D02*
D03*
X323819D02*
D03*
X229331D02*
D03*
D106*
X1540354Y92520D02*
D03*
Y96457D02*
D03*
Y100394D02*
D03*
Y104331D02*
D03*
Y108268D02*
D03*
Y88583D02*
D03*
Y84646D02*
D03*
Y80709D02*
D03*
Y76772D02*
D03*
Y72835D02*
D03*
D107*
X1551378Y120039D02*
D03*
Y61063D02*
D03*
D108*
X190354Y240748D02*
D03*
X180512D02*
D03*
D109*
X166339Y257283D02*
D03*
X204528D02*
D03*
D110*
X558583Y36024D02*
D03*
X568583D02*
D03*
X578583D02*
D03*
X588583D02*
D03*
X598583D02*
D03*
X608583D02*
D03*
X618583D02*
D03*
Y17126D02*
D03*
X608583D02*
D03*
X598583D02*
D03*
X588583D02*
D03*
X578583D02*
D03*
X568583D02*
D03*
X558583D02*
D03*
M02*
