G04*
G04 #@! TF.GenerationSoftware,Altium Limited,Altium Designer,18.0.7 (293)*
G04*
G04 Layer_Color=16711935*
%FSLAX25Y25*%
%MOIN*%
G70*
G01*
G75*
%ADD10C,0.00591*%
D10*
X1559055Y0D02*
G03*
X1574803Y15748I0J15748D01*
G01*
Y259842D02*
G03*
X1559055Y275590I-15748J0D01*
G01*
X15748D02*
G03*
X0Y259842I0J-15748D01*
G01*
Y15748D02*
G03*
X15748Y0I15748J0D01*
G01*
X0Y101378D02*
G03*
X-0Y101378I0J0D01*
G01*
X1153Y40185D02*
G03*
X0Y37402I2784J-2784D01*
G01*
X4752Y44460D02*
G03*
X5906Y47244I-2784J2784D01*
G01*
X5906Y70866D02*
G03*
X4752Y73650I-3937J0D01*
G01*
X-0Y80709D02*
G03*
X1153Y77925I3937J0D01*
G01*
X38386Y-0D02*
X1559055D01*
X1574803Y15748D02*
X1574803Y259842D01*
X37402Y275590D02*
X1534449D01*
X1559055D01*
X0Y231299D02*
Y259842D01*
X15748Y275590D02*
X37402D01*
X0Y206693D02*
Y231299D01*
X15748Y-0D02*
X38386D01*
X0Y15748D02*
Y37402D01*
X1153Y40185D02*
X4752Y44460D01*
X5906Y47244D02*
X5906Y70866D01*
X1153Y77925D02*
X4752Y73650D01*
X0Y80709D02*
Y101378D01*
X-0Y101378D02*
X0Y206693D01*
M02*
