G04*
G04 #@! TF.GenerationSoftware,Altium Limited,Altium Designer,18.0.7 (293)*
G04*
G04 Layer_Physical_Order=4*
G04 Layer_Color=16711680*
%FSLAX25Y25*%
%MOIN*%
G70*
G01*
G75*
%ADD10C,0.00591*%
%ADD12C,0.00787*%
G04:AMPARAMS|DCode=67|XSize=23.62mil|YSize=31.5mil|CornerRadius=5.91mil|HoleSize=0mil|Usage=FLASHONLY|Rotation=270.000|XOffset=0mil|YOffset=0mil|HoleType=Round|Shape=RoundedRectangle|*
%AMROUNDEDRECTD67*
21,1,0.02362,0.01968,0,0,270.0*
21,1,0.01181,0.03150,0,0,270.0*
1,1,0.01181,-0.00984,-0.00591*
1,1,0.01181,-0.00984,0.00591*
1,1,0.01181,0.00984,0.00591*
1,1,0.01181,0.00984,-0.00591*
%
%ADD67ROUNDEDRECTD67*%
%ADD90C,0.06299*%
%ADD91C,0.05512*%
%ADD92C,0.05906*%
%ADD93O,0.06299X0.03543*%
%ADD94C,0.23622*%
%ADD97C,0.00984*%
%ADD98C,0.02362*%
%ADD100C,0.01968*%
%ADD104C,0.02362*%
G04:AMPARAMS|DCode=106|XSize=19.68mil|YSize=78.74mil|CornerRadius=9.84mil|HoleSize=0mil|Usage=FLASHONLY|Rotation=270.000|XOffset=0mil|YOffset=0mil|HoleType=Round|Shape=RoundedRectangle|*
%AMROUNDEDRECTD106*
21,1,0.01968,0.05906,0,0,270.0*
21,1,0.00000,0.07874,0,0,270.0*
1,1,0.01968,-0.02953,0.00000*
1,1,0.01968,-0.02953,0.00000*
1,1,0.01968,0.02953,0.00000*
1,1,0.01968,0.02953,0.00000*
%
%ADD106ROUNDEDRECTD106*%
G04:AMPARAMS|DCode=107|XSize=105.51mil|YSize=141.73mil|CornerRadius=26.38mil|HoleSize=0mil|Usage=FLASHONLY|Rotation=270.000|XOffset=0mil|YOffset=0mil|HoleType=Round|Shape=RoundedRectangle|*
%AMROUNDEDRECTD107*
21,1,0.10551,0.08898,0,0,270.0*
21,1,0.05276,0.14173,0,0,270.0*
1,1,0.05276,-0.04449,-0.02638*
1,1,0.05276,-0.04449,0.02638*
1,1,0.05276,0.04449,0.02638*
1,1,0.05276,0.04449,-0.02638*
%
%ADD107ROUNDEDRECTD107*%
G04:AMPARAMS|DCode=108|XSize=47.24mil|YSize=125.98mil|CornerRadius=11.81mil|HoleSize=0mil|Usage=FLASHONLY|Rotation=0.000|XOffset=0mil|YOffset=0mil|HoleType=Round|Shape=RoundedRectangle|*
%AMROUNDEDRECTD108*
21,1,0.04724,0.10236,0,0,0.0*
21,1,0.02362,0.12598,0,0,0.0*
1,1,0.02362,0.01181,-0.05118*
1,1,0.02362,-0.01181,-0.05118*
1,1,0.02362,-0.01181,0.05118*
1,1,0.02362,0.01181,0.05118*
%
%ADD108ROUNDEDRECTD108*%
G04:AMPARAMS|DCode=109|XSize=86.61mil|YSize=220.47mil|CornerRadius=21.65mil|HoleSize=0mil|Usage=FLASHONLY|Rotation=0.000|XOffset=0mil|YOffset=0mil|HoleType=Round|Shape=RoundedRectangle|*
%AMROUNDEDRECTD109*
21,1,0.08661,0.17717,0,0,0.0*
21,1,0.04331,0.22047,0,0,0.0*
1,1,0.04331,0.02165,-0.08858*
1,1,0.04331,-0.02165,-0.08858*
1,1,0.04331,-0.02165,0.08858*
1,1,0.04331,0.02165,0.08858*
%
%ADD109ROUNDEDRECTD109*%
G04:AMPARAMS|DCode=110|XSize=31.5mil|YSize=125.98mil|CornerRadius=7.87mil|HoleSize=0mil|Usage=FLASHONLY|Rotation=0.000|XOffset=0mil|YOffset=0mil|HoleType=Round|Shape=RoundedRectangle|*
%AMROUNDEDRECTD110*
21,1,0.03150,0.11024,0,0,0.0*
21,1,0.01575,0.12598,0,0,0.0*
1,1,0.01575,0.00787,-0.05512*
1,1,0.01575,-0.00787,-0.05512*
1,1,0.01575,-0.00787,0.05512*
1,1,0.01575,0.00787,0.05512*
%
%ADD110ROUNDEDRECTD110*%
G36*
X856299Y263779D02*
X852362D01*
Y267717D01*
X856299D01*
Y263779D01*
D02*
G37*
G36*
X848425D02*
X844488D01*
Y267717D01*
X848425D01*
Y263779D01*
D02*
G37*
G36*
X840551D02*
X836614D01*
Y267717D01*
X840551D01*
Y263779D01*
D02*
G37*
G36*
X832677D02*
X828740D01*
Y267717D01*
X832677D01*
Y263779D01*
D02*
G37*
G36*
X824803D02*
X820866D01*
Y267717D01*
X824803D01*
Y263779D01*
D02*
G37*
G36*
X816929D02*
X812992D01*
Y267717D01*
X816929D01*
Y263779D01*
D02*
G37*
G36*
X1427165Y263779D02*
X1423228D01*
Y267717D01*
X1427165D01*
Y263779D01*
D02*
G37*
G36*
X1419291D02*
X1415354D01*
Y267717D01*
X1419291D01*
Y263779D01*
D02*
G37*
G36*
X1411417D02*
X1407480D01*
Y267717D01*
X1411417D01*
Y263779D01*
D02*
G37*
G36*
X1403543D02*
X1399606D01*
Y267717D01*
X1403543D01*
Y263779D01*
D02*
G37*
G36*
X1395669D02*
X1391732D01*
Y267717D01*
X1395669D01*
Y263779D01*
D02*
G37*
G36*
X1387795D02*
X1383858D01*
Y267717D01*
X1387795D01*
Y263779D01*
D02*
G37*
G36*
X1379921D02*
X1375984D01*
Y267717D01*
X1379921D01*
Y263779D01*
D02*
G37*
G36*
X1372047D02*
X1368110D01*
Y267717D01*
X1372047D01*
Y263779D01*
D02*
G37*
G36*
X1364173D02*
X1360236D01*
Y267717D01*
X1364173D01*
Y263779D01*
D02*
G37*
G36*
X1356299D02*
X1352362D01*
Y267717D01*
X1356299D01*
Y263779D01*
D02*
G37*
G36*
X1226378D02*
X1222441D01*
Y267717D01*
X1226378D01*
Y263779D01*
D02*
G37*
G36*
X1218504D02*
X1214567D01*
Y267717D01*
X1218504D01*
Y263779D01*
D02*
G37*
G36*
X1210630D02*
X1206693D01*
Y267717D01*
X1210630D01*
Y263779D01*
D02*
G37*
G36*
X1202756D02*
X1198819D01*
Y267717D01*
X1202756D01*
Y263779D01*
D02*
G37*
G36*
X1194882D02*
X1190945D01*
Y267717D01*
X1194882D01*
Y263779D01*
D02*
G37*
G36*
X1187008D02*
X1183071D01*
Y267717D01*
X1187008D01*
Y263779D01*
D02*
G37*
G36*
X1179134D02*
X1175197D01*
Y267717D01*
X1179134D01*
Y263779D01*
D02*
G37*
G36*
X1171260D02*
X1167323D01*
Y267717D01*
X1171260D01*
Y263779D01*
D02*
G37*
G36*
X1163386D02*
X1159449D01*
Y267717D01*
X1163386D01*
Y263779D01*
D02*
G37*
G36*
X1155512D02*
X1151575D01*
Y267717D01*
X1155512D01*
Y263779D01*
D02*
G37*
G36*
X624016D02*
X620079D01*
Y267717D01*
X624016D01*
Y263779D01*
D02*
G37*
G36*
X616142D02*
X612205D01*
Y267717D01*
X616142D01*
Y263779D01*
D02*
G37*
G36*
X608268D02*
X604331D01*
Y267717D01*
X608268D01*
Y263779D01*
D02*
G37*
G36*
X600394D02*
X596457D01*
Y267717D01*
X600394D01*
Y263779D01*
D02*
G37*
G36*
X592520D02*
X588583D01*
Y267717D01*
X592520D01*
Y263779D01*
D02*
G37*
G36*
X584646D02*
X580709D01*
Y267717D01*
X584646D01*
Y263779D01*
D02*
G37*
G36*
X576772D02*
X572835D01*
Y267717D01*
X576772D01*
Y263779D01*
D02*
G37*
G36*
X568898D02*
X564961D01*
Y267717D01*
X568898D01*
Y263779D01*
D02*
G37*
G36*
X561024D02*
X557087D01*
Y267717D01*
X561024D01*
Y263779D01*
D02*
G37*
G36*
X553150D02*
X549213D01*
Y267717D01*
X553150D01*
Y263779D01*
D02*
G37*
G36*
X423228D02*
X419291D01*
Y267717D01*
X423228D01*
Y263779D01*
D02*
G37*
G36*
X415354D02*
X411417D01*
Y267717D01*
X415354D01*
Y263779D01*
D02*
G37*
G36*
X407480D02*
X403543D01*
Y267717D01*
X407480D01*
Y263779D01*
D02*
G37*
G36*
X399606D02*
X395669D01*
Y267717D01*
X399606D01*
Y263779D01*
D02*
G37*
G36*
X391732D02*
X387795D01*
Y267717D01*
X391732D01*
Y263779D01*
D02*
G37*
G36*
X383858D02*
X379921D01*
Y267717D01*
X383858D01*
Y263779D01*
D02*
G37*
G36*
X375984D02*
X372047D01*
Y267717D01*
X375984D01*
Y263779D01*
D02*
G37*
G36*
X368110D02*
X364173D01*
Y267717D01*
X368110D01*
Y263779D01*
D02*
G37*
G36*
X360236D02*
X356299D01*
Y267717D01*
X360236D01*
Y263779D01*
D02*
G37*
G36*
X352362D02*
X348425D01*
Y267717D01*
X352362D01*
Y263779D01*
D02*
G37*
G36*
X856299Y255906D02*
X852362D01*
Y259842D01*
X856299D01*
Y255906D01*
D02*
G37*
G36*
X848425D02*
X844488D01*
Y259842D01*
X848425D01*
Y255906D01*
D02*
G37*
G36*
X1427165Y255906D02*
X1423228D01*
Y259842D01*
X1427165D01*
Y255906D01*
D02*
G37*
G36*
X1419291D02*
X1415354D01*
Y259842D01*
X1419291D01*
Y255906D01*
D02*
G37*
G36*
X1411417D02*
X1407480D01*
Y259842D01*
X1411417D01*
Y255906D01*
D02*
G37*
G36*
X1403543D02*
X1399606D01*
Y259842D01*
X1403543D01*
Y255906D01*
D02*
G37*
G36*
X1395669D02*
X1391732D01*
Y259842D01*
X1395669D01*
Y255906D01*
D02*
G37*
G36*
X1387795D02*
X1383858D01*
Y259842D01*
X1387795D01*
Y255906D01*
D02*
G37*
G36*
X1379921D02*
X1375984D01*
Y259842D01*
X1379921D01*
Y255906D01*
D02*
G37*
G36*
X1372047D02*
X1368110D01*
Y259842D01*
X1372047D01*
Y255906D01*
D02*
G37*
G36*
X1364173D02*
X1360236D01*
Y259842D01*
X1364173D01*
Y255906D01*
D02*
G37*
G36*
X1356299D02*
X1352362D01*
Y259842D01*
X1356299D01*
Y255906D01*
D02*
G37*
G36*
X1226378D02*
X1222441D01*
Y259842D01*
X1226378D01*
Y255906D01*
D02*
G37*
G36*
X1218504D02*
X1214567D01*
Y259842D01*
X1218504D01*
Y255906D01*
D02*
G37*
G36*
X1210630D02*
X1206693D01*
Y259842D01*
X1210630D01*
Y255906D01*
D02*
G37*
G36*
X1202756D02*
X1198819D01*
Y259842D01*
X1202756D01*
Y255906D01*
D02*
G37*
G36*
X1194882D02*
X1190945D01*
Y259842D01*
X1194882D01*
Y255906D01*
D02*
G37*
G36*
X1187008D02*
X1183071D01*
Y259842D01*
X1187008D01*
Y255906D01*
D02*
G37*
G36*
X1179134D02*
X1175197D01*
Y259842D01*
X1179134D01*
Y255906D01*
D02*
G37*
G36*
X1171260D02*
X1167323D01*
Y259842D01*
X1171260D01*
Y255906D01*
D02*
G37*
G36*
X1163386D02*
X1159449D01*
Y259842D01*
X1163386D01*
Y255906D01*
D02*
G37*
G36*
X1155512D02*
X1151575D01*
Y259842D01*
X1155512D01*
Y255906D01*
D02*
G37*
G36*
X840551D02*
X836614D01*
Y259842D01*
X840551D01*
Y255906D01*
D02*
G37*
G36*
X832677D02*
X828740D01*
Y259842D01*
X832677D01*
Y255906D01*
D02*
G37*
G36*
X824803D02*
X820866D01*
Y259842D01*
X824803D01*
Y255906D01*
D02*
G37*
G36*
X816929D02*
X812992D01*
Y259842D01*
X816929D01*
Y255906D01*
D02*
G37*
G36*
X624016D02*
X620079D01*
Y259842D01*
X624016D01*
Y255906D01*
D02*
G37*
G36*
X616142D02*
X612205D01*
Y259842D01*
X616142D01*
Y255906D01*
D02*
G37*
G36*
X608268D02*
X604331D01*
Y259842D01*
X608268D01*
Y255906D01*
D02*
G37*
G36*
X600394D02*
X596457D01*
Y259842D01*
X600394D01*
Y255906D01*
D02*
G37*
G36*
X592520D02*
X588583D01*
Y259842D01*
X592520D01*
Y255906D01*
D02*
G37*
G36*
X584646D02*
X580709D01*
Y259842D01*
X584646D01*
Y255906D01*
D02*
G37*
G36*
X576772D02*
X572835D01*
Y259842D01*
X576772D01*
Y255906D01*
D02*
G37*
G36*
X568898D02*
X564961D01*
Y259842D01*
X568898D01*
Y255906D01*
D02*
G37*
G36*
X561024D02*
X557087D01*
Y259842D01*
X561024D01*
Y255906D01*
D02*
G37*
G36*
X553150D02*
X549213D01*
Y259842D01*
X553150D01*
Y255906D01*
D02*
G37*
G36*
X423228D02*
X419291D01*
Y259842D01*
X423228D01*
Y255906D01*
D02*
G37*
G36*
X415354D02*
X411417D01*
Y259842D01*
X415354D01*
Y255906D01*
D02*
G37*
G36*
X407480D02*
X403543D01*
Y259842D01*
X407480D01*
Y255906D01*
D02*
G37*
G36*
X399606D02*
X395669D01*
Y259842D01*
X399606D01*
Y255906D01*
D02*
G37*
G36*
X391732D02*
X387795D01*
Y259842D01*
X391732D01*
Y255906D01*
D02*
G37*
G36*
X383858D02*
X379921D01*
Y259842D01*
X383858D01*
Y255906D01*
D02*
G37*
G36*
X375984D02*
X372047D01*
Y259842D01*
X375984D01*
Y255906D01*
D02*
G37*
G36*
X368110D02*
X364173D01*
Y259842D01*
X368110D01*
Y255906D01*
D02*
G37*
G36*
X360236D02*
X356299D01*
Y259842D01*
X360236D01*
Y255906D01*
D02*
G37*
G36*
X352362D02*
X348425D01*
Y259842D01*
X352362D01*
Y255906D01*
D02*
G37*
G36*
X856299Y248031D02*
X852362D01*
Y251969D01*
X856299D01*
Y248031D01*
D02*
G37*
G36*
X848425D02*
X844488D01*
Y251969D01*
X848425D01*
Y248031D01*
D02*
G37*
G36*
X1427165Y248031D02*
X1423228D01*
Y251969D01*
X1427165D01*
Y248031D01*
D02*
G37*
G36*
X1419291D02*
X1415354D01*
Y251969D01*
X1419291D01*
Y248031D01*
D02*
G37*
G36*
X1411417D02*
X1407480D01*
Y251969D01*
X1411417D01*
Y248031D01*
D02*
G37*
G36*
X1403543D02*
X1399606D01*
Y251969D01*
X1403543D01*
Y248031D01*
D02*
G37*
G36*
X1395669D02*
X1391732D01*
Y251969D01*
X1395669D01*
Y248031D01*
D02*
G37*
G36*
X1387795D02*
X1383858D01*
Y251969D01*
X1387795D01*
Y248031D01*
D02*
G37*
G36*
X1379921D02*
X1375984D01*
Y251969D01*
X1379921D01*
Y248031D01*
D02*
G37*
G36*
X1372047D02*
X1368110D01*
Y251969D01*
X1372047D01*
Y248031D01*
D02*
G37*
G36*
X1364173D02*
X1360236D01*
Y251969D01*
X1364173D01*
Y248031D01*
D02*
G37*
G36*
X1356299D02*
X1352362D01*
Y251969D01*
X1356299D01*
Y248031D01*
D02*
G37*
G36*
X1226378D02*
X1222441D01*
Y251969D01*
X1226378D01*
Y248031D01*
D02*
G37*
G36*
X1218504D02*
X1214567D01*
Y251969D01*
X1218504D01*
Y248031D01*
D02*
G37*
G36*
X1210630D02*
X1206693D01*
Y251969D01*
X1210630D01*
Y248031D01*
D02*
G37*
G36*
X1202756D02*
X1198819D01*
Y251969D01*
X1202756D01*
Y248031D01*
D02*
G37*
G36*
X1194882D02*
X1190945D01*
Y251969D01*
X1194882D01*
Y248031D01*
D02*
G37*
G36*
X1187008D02*
X1183071D01*
Y251969D01*
X1187008D01*
Y248031D01*
D02*
G37*
G36*
X1179134D02*
X1175197D01*
Y251969D01*
X1179134D01*
Y248031D01*
D02*
G37*
G36*
X1171260D02*
X1167323D01*
Y251969D01*
X1171260D01*
Y248031D01*
D02*
G37*
G36*
X1163386D02*
X1159449D01*
Y251969D01*
X1163386D01*
Y248031D01*
D02*
G37*
G36*
X1155512D02*
X1151575D01*
Y251969D01*
X1155512D01*
Y248031D01*
D02*
G37*
G36*
X840551D02*
X836614D01*
Y251969D01*
X840551D01*
Y248031D01*
D02*
G37*
G36*
X832677D02*
X828740D01*
Y251969D01*
X832677D01*
Y248031D01*
D02*
G37*
G36*
X824803D02*
X820866D01*
Y251969D01*
X824803D01*
Y248031D01*
D02*
G37*
G36*
X816929D02*
X812992D01*
Y251969D01*
X816929D01*
Y248031D01*
D02*
G37*
G36*
X624016D02*
X620079D01*
Y251969D01*
X624016D01*
Y248031D01*
D02*
G37*
G36*
X616142D02*
X612205D01*
Y251969D01*
X616142D01*
Y248031D01*
D02*
G37*
G36*
X608268D02*
X604331D01*
Y251969D01*
X608268D01*
Y248031D01*
D02*
G37*
G36*
X600394D02*
X596457D01*
Y251969D01*
X600394D01*
Y248031D01*
D02*
G37*
G36*
X592520D02*
X588583D01*
Y251969D01*
X592520D01*
Y248031D01*
D02*
G37*
G36*
X584646D02*
X580709D01*
Y251969D01*
X584646D01*
Y248031D01*
D02*
G37*
G36*
X576772D02*
X572835D01*
Y251969D01*
X576772D01*
Y248031D01*
D02*
G37*
G36*
X568898D02*
X564961D01*
Y251969D01*
X568898D01*
Y248031D01*
D02*
G37*
G36*
X561024D02*
X557087D01*
Y251969D01*
X561024D01*
Y248031D01*
D02*
G37*
G36*
X553150D02*
X549213D01*
Y251969D01*
X553150D01*
Y248031D01*
D02*
G37*
G36*
X423228D02*
X419291D01*
Y251969D01*
X423228D01*
Y248031D01*
D02*
G37*
G36*
X415354D02*
X411417D01*
Y251969D01*
X415354D01*
Y248031D01*
D02*
G37*
G36*
X407480D02*
X403543D01*
Y251969D01*
X407480D01*
Y248031D01*
D02*
G37*
G36*
X399606D02*
X395669D01*
Y251969D01*
X399606D01*
Y248031D01*
D02*
G37*
G36*
X391732D02*
X387795D01*
Y251969D01*
X391732D01*
Y248031D01*
D02*
G37*
G36*
X383858D02*
X379921D01*
Y251969D01*
X383858D01*
Y248031D01*
D02*
G37*
G36*
X375984D02*
X372047D01*
Y251969D01*
X375984D01*
Y248031D01*
D02*
G37*
G36*
X368110D02*
X364173D01*
Y251969D01*
X368110D01*
Y248031D01*
D02*
G37*
G36*
X360236D02*
X356299D01*
Y251969D01*
X360236D01*
Y248031D01*
D02*
G37*
G36*
X352362D02*
X348425D01*
Y251969D01*
X352362D01*
Y248031D01*
D02*
G37*
G36*
X856299Y240158D02*
X852362D01*
Y244094D01*
X856299D01*
Y240158D01*
D02*
G37*
G36*
X848425D02*
X844488D01*
Y244094D01*
X848425D01*
Y240158D01*
D02*
G37*
G36*
X1427165Y240158D02*
X1423228D01*
Y244094D01*
X1427165D01*
Y240158D01*
D02*
G37*
G36*
X1419291D02*
X1415354D01*
Y244094D01*
X1419291D01*
Y240158D01*
D02*
G37*
G36*
X1411417D02*
X1407480D01*
Y244094D01*
X1411417D01*
Y240158D01*
D02*
G37*
G36*
X1403543D02*
X1399606D01*
Y244094D01*
X1403543D01*
Y240158D01*
D02*
G37*
G36*
X1395669D02*
X1391732D01*
Y244094D01*
X1395669D01*
Y240158D01*
D02*
G37*
G36*
X1387795D02*
X1383858D01*
Y244094D01*
X1387795D01*
Y240158D01*
D02*
G37*
G36*
X1379921D02*
X1375984D01*
Y244094D01*
X1379921D01*
Y240158D01*
D02*
G37*
G36*
X1372047D02*
X1368110D01*
Y244094D01*
X1372047D01*
Y240158D01*
D02*
G37*
G36*
X1364173D02*
X1360236D01*
Y244094D01*
X1364173D01*
Y240158D01*
D02*
G37*
G36*
X1356299D02*
X1352362D01*
Y244094D01*
X1356299D01*
Y240158D01*
D02*
G37*
G36*
X1226378D02*
X1222441D01*
Y244094D01*
X1226378D01*
Y240158D01*
D02*
G37*
G36*
X1218504D02*
X1214567D01*
Y244094D01*
X1218504D01*
Y240158D01*
D02*
G37*
G36*
X1210630D02*
X1206693D01*
Y244094D01*
X1210630D01*
Y240158D01*
D02*
G37*
G36*
X1202756D02*
X1198819D01*
Y244094D01*
X1202756D01*
Y240158D01*
D02*
G37*
G36*
X1194882D02*
X1190945D01*
Y244094D01*
X1194882D01*
Y240158D01*
D02*
G37*
G36*
X1187008D02*
X1183071D01*
Y244094D01*
X1187008D01*
Y240158D01*
D02*
G37*
G36*
X1179134D02*
X1175197D01*
Y244094D01*
X1179134D01*
Y240158D01*
D02*
G37*
G36*
X1171260D02*
X1167323D01*
Y244094D01*
X1171260D01*
Y240158D01*
D02*
G37*
G36*
X1163386D02*
X1159449D01*
Y244094D01*
X1163386D01*
Y240158D01*
D02*
G37*
G36*
X1155512D02*
X1151575D01*
Y244094D01*
X1155512D01*
Y240158D01*
D02*
G37*
G36*
X840551D02*
X836614D01*
Y244094D01*
X840551D01*
Y240158D01*
D02*
G37*
G36*
X832677D02*
X828740D01*
Y244094D01*
X832677D01*
Y240158D01*
D02*
G37*
G36*
X824803D02*
X820866D01*
Y244094D01*
X824803D01*
Y240158D01*
D02*
G37*
G36*
X816929D02*
X812992D01*
Y244094D01*
X816929D01*
Y240158D01*
D02*
G37*
G36*
X624016D02*
X620079D01*
Y244094D01*
X624016D01*
Y240158D01*
D02*
G37*
G36*
X616142D02*
X612205D01*
Y244094D01*
X616142D01*
Y240158D01*
D02*
G37*
G36*
X608268D02*
X604331D01*
Y244094D01*
X608268D01*
Y240158D01*
D02*
G37*
G36*
X600394D02*
X596457D01*
Y244094D01*
X600394D01*
Y240158D01*
D02*
G37*
G36*
X592520D02*
X588583D01*
Y244094D01*
X592520D01*
Y240158D01*
D02*
G37*
G36*
X584646D02*
X580709D01*
Y244094D01*
X584646D01*
Y240158D01*
D02*
G37*
G36*
X576772D02*
X572835D01*
Y244094D01*
X576772D01*
Y240158D01*
D02*
G37*
G36*
X568898D02*
X564961D01*
Y244094D01*
X568898D01*
Y240158D01*
D02*
G37*
G36*
X561024D02*
X557087D01*
Y244094D01*
X561024D01*
Y240158D01*
D02*
G37*
G36*
X553150D02*
X549213D01*
Y244094D01*
X553150D01*
Y240158D01*
D02*
G37*
G36*
X423228D02*
X419291D01*
Y244094D01*
X423228D01*
Y240158D01*
D02*
G37*
G36*
X415354D02*
X411417D01*
Y244094D01*
X415354D01*
Y240158D01*
D02*
G37*
G36*
X407480D02*
X403543D01*
Y244094D01*
X407480D01*
Y240158D01*
D02*
G37*
G36*
X399606D02*
X395669D01*
Y244094D01*
X399606D01*
Y240158D01*
D02*
G37*
G36*
X391732D02*
X387795D01*
Y244094D01*
X391732D01*
Y240158D01*
D02*
G37*
G36*
X383858D02*
X379921D01*
Y244094D01*
X383858D01*
Y240158D01*
D02*
G37*
G36*
X375984D02*
X372047D01*
Y244094D01*
X375984D01*
Y240158D01*
D02*
G37*
G36*
X368110D02*
X364173D01*
Y244094D01*
X368110D01*
Y240158D01*
D02*
G37*
G36*
X360236D02*
X356299D01*
Y244094D01*
X360236D01*
Y240158D01*
D02*
G37*
G36*
X352362D02*
X348425D01*
Y244094D01*
X352362D01*
Y240158D01*
D02*
G37*
G36*
X840551Y232283D02*
X836614D01*
Y236221D01*
X840551D01*
Y232283D01*
D02*
G37*
G36*
X832677D02*
X828740D01*
Y236221D01*
X832677D01*
Y232283D01*
D02*
G37*
G36*
X824803D02*
X820866D01*
Y236221D01*
X824803D01*
Y232283D01*
D02*
G37*
G36*
X816929D02*
X812992D01*
Y236221D01*
X816929D01*
Y232283D01*
D02*
G37*
G36*
X1427165Y232283D02*
X1423228D01*
Y236221D01*
X1427165D01*
Y232283D01*
D02*
G37*
G36*
X1419291D02*
X1415354D01*
Y236221D01*
X1419291D01*
Y232283D01*
D02*
G37*
G36*
X1411417D02*
X1407480D01*
Y236221D01*
X1411417D01*
Y232283D01*
D02*
G37*
G36*
X1403543D02*
X1399606D01*
Y236221D01*
X1403543D01*
Y232283D01*
D02*
G37*
G36*
X1395669D02*
X1391732D01*
Y236221D01*
X1395669D01*
Y232283D01*
D02*
G37*
G36*
X1387795D02*
X1383858D01*
Y236221D01*
X1387795D01*
Y232283D01*
D02*
G37*
G36*
X1379921D02*
X1375984D01*
Y236221D01*
X1379921D01*
Y232283D01*
D02*
G37*
G36*
X1372047D02*
X1368110D01*
Y236221D01*
X1372047D01*
Y232283D01*
D02*
G37*
G36*
X1364173D02*
X1360236D01*
Y236221D01*
X1364173D01*
Y232283D01*
D02*
G37*
G36*
X1356299D02*
X1352362D01*
Y236221D01*
X1356299D01*
Y232283D01*
D02*
G37*
G36*
X1226378D02*
X1222441D01*
Y236221D01*
X1226378D01*
Y232283D01*
D02*
G37*
G36*
X1218504D02*
X1214567D01*
Y236221D01*
X1218504D01*
Y232283D01*
D02*
G37*
G36*
X1210630D02*
X1206693D01*
Y236221D01*
X1210630D01*
Y232283D01*
D02*
G37*
G36*
X1202756D02*
X1198819D01*
Y236221D01*
X1202756D01*
Y232283D01*
D02*
G37*
G36*
X1194882D02*
X1190945D01*
Y236221D01*
X1194882D01*
Y232283D01*
D02*
G37*
G36*
X1187008D02*
X1183071D01*
Y236221D01*
X1187008D01*
Y232283D01*
D02*
G37*
G36*
X1179134D02*
X1175197D01*
Y236221D01*
X1179134D01*
Y232283D01*
D02*
G37*
G36*
X1171260D02*
X1167323D01*
Y236221D01*
X1171260D01*
Y232283D01*
D02*
G37*
G36*
X1163386D02*
X1159449D01*
Y236221D01*
X1163386D01*
Y232283D01*
D02*
G37*
G36*
X1155512D02*
X1151575D01*
Y236221D01*
X1155512D01*
Y232283D01*
D02*
G37*
G36*
X624016D02*
X620079D01*
Y236221D01*
X624016D01*
Y232283D01*
D02*
G37*
G36*
X616142D02*
X612205D01*
Y236221D01*
X616142D01*
Y232283D01*
D02*
G37*
G36*
X608268D02*
X604331D01*
Y236221D01*
X608268D01*
Y232283D01*
D02*
G37*
G36*
X600394D02*
X596457D01*
Y236221D01*
X600394D01*
Y232283D01*
D02*
G37*
G36*
X592520D02*
X588583D01*
Y236221D01*
X592520D01*
Y232283D01*
D02*
G37*
G36*
X584646D02*
X580709D01*
Y236221D01*
X584646D01*
Y232283D01*
D02*
G37*
G36*
X576772D02*
X572835D01*
Y236221D01*
X576772D01*
Y232283D01*
D02*
G37*
G36*
X568898D02*
X564961D01*
Y236221D01*
X568898D01*
Y232283D01*
D02*
G37*
G36*
X561024D02*
X557087D01*
Y236221D01*
X561024D01*
Y232283D01*
D02*
G37*
G36*
X553150D02*
X549213D01*
Y236221D01*
X553150D01*
Y232283D01*
D02*
G37*
G36*
X423228D02*
X419291D01*
Y236221D01*
X423228D01*
Y232283D01*
D02*
G37*
G36*
X415354D02*
X411417D01*
Y236221D01*
X415354D01*
Y232283D01*
D02*
G37*
G36*
X407480D02*
X403543D01*
Y236221D01*
X407480D01*
Y232283D01*
D02*
G37*
G36*
X399606D02*
X395669D01*
Y236221D01*
X399606D01*
Y232283D01*
D02*
G37*
G36*
X391732D02*
X387795D01*
Y236221D01*
X391732D01*
Y232283D01*
D02*
G37*
G36*
X383858D02*
X379921D01*
Y236221D01*
X383858D01*
Y232283D01*
D02*
G37*
G36*
X375984D02*
X372047D01*
Y236221D01*
X375984D01*
Y232283D01*
D02*
G37*
G36*
X368110D02*
X364173D01*
Y236221D01*
X368110D01*
Y232283D01*
D02*
G37*
G36*
X360236D02*
X356299D01*
Y236221D01*
X360236D01*
Y232283D01*
D02*
G37*
G36*
X352362D02*
X348425D01*
Y236221D01*
X352362D01*
Y232283D01*
D02*
G37*
G36*
X1427165Y224410D02*
X1423228D01*
Y228346D01*
X1427165D01*
Y224410D01*
D02*
G37*
G36*
X1419291D02*
X1415354D01*
Y228346D01*
X1419291D01*
Y224410D01*
D02*
G37*
G36*
X1411417D02*
X1407480D01*
Y228346D01*
X1411417D01*
Y224410D01*
D02*
G37*
G36*
X1403543D02*
X1399606D01*
Y228346D01*
X1403543D01*
Y224410D01*
D02*
G37*
G36*
X1395669D02*
X1391732D01*
Y228346D01*
X1395669D01*
Y224410D01*
D02*
G37*
G36*
X1387795D02*
X1383858D01*
Y228346D01*
X1387795D01*
Y224410D01*
D02*
G37*
G36*
X1379921D02*
X1375984D01*
Y228346D01*
X1379921D01*
Y224410D01*
D02*
G37*
G36*
X1372047D02*
X1368110D01*
Y228346D01*
X1372047D01*
Y224410D01*
D02*
G37*
G36*
X1364173D02*
X1360236D01*
Y228346D01*
X1364173D01*
Y224410D01*
D02*
G37*
G36*
X1356299D02*
X1352362D01*
Y228346D01*
X1356299D01*
Y224410D01*
D02*
G37*
G36*
X1226378D02*
X1222441D01*
Y228346D01*
X1226378D01*
Y224410D01*
D02*
G37*
G36*
X1218504D02*
X1214567D01*
Y228346D01*
X1218504D01*
Y224410D01*
D02*
G37*
G36*
X1210630D02*
X1206693D01*
Y228346D01*
X1210630D01*
Y224410D01*
D02*
G37*
G36*
X1202756D02*
X1198819D01*
Y228346D01*
X1202756D01*
Y224410D01*
D02*
G37*
G36*
X1194882D02*
X1190945D01*
Y228346D01*
X1194882D01*
Y224410D01*
D02*
G37*
G36*
X1187008D02*
X1183071D01*
Y228346D01*
X1187008D01*
Y224410D01*
D02*
G37*
G36*
X1179134D02*
X1175197D01*
Y228346D01*
X1179134D01*
Y224410D01*
D02*
G37*
G36*
X1171260D02*
X1167323D01*
Y228346D01*
X1171260D01*
Y224410D01*
D02*
G37*
G36*
X1163386D02*
X1159449D01*
Y228346D01*
X1163386D01*
Y224410D01*
D02*
G37*
G36*
X1155512D02*
X1151575D01*
Y228346D01*
X1155512D01*
Y224410D01*
D02*
G37*
G36*
X840551D02*
X836614D01*
Y228346D01*
X840551D01*
Y224410D01*
D02*
G37*
G36*
X832677D02*
X828740D01*
Y228346D01*
X832677D01*
Y224410D01*
D02*
G37*
G36*
X824803D02*
X820866D01*
Y228346D01*
X824803D01*
Y224410D01*
D02*
G37*
G36*
X816929D02*
X812992D01*
Y228346D01*
X816929D01*
Y224410D01*
D02*
G37*
G36*
X624016D02*
X620079D01*
Y228346D01*
X624016D01*
Y224410D01*
D02*
G37*
G36*
X616142D02*
X612205D01*
Y228346D01*
X616142D01*
Y224410D01*
D02*
G37*
G36*
X608268D02*
X604331D01*
Y228346D01*
X608268D01*
Y224410D01*
D02*
G37*
G36*
X600394D02*
X596457D01*
Y228346D01*
X600394D01*
Y224410D01*
D02*
G37*
G36*
X592520D02*
X588583D01*
Y228346D01*
X592520D01*
Y224410D01*
D02*
G37*
G36*
X584646D02*
X580709D01*
Y228346D01*
X584646D01*
Y224410D01*
D02*
G37*
G36*
X576772D02*
X572835D01*
Y228346D01*
X576772D01*
Y224410D01*
D02*
G37*
G36*
X568898D02*
X564961D01*
Y228346D01*
X568898D01*
Y224410D01*
D02*
G37*
G36*
X561024D02*
X557087D01*
Y228346D01*
X561024D01*
Y224410D01*
D02*
G37*
G36*
X553150D02*
X549213D01*
Y228346D01*
X553150D01*
Y224410D01*
D02*
G37*
G36*
X423228D02*
X419291D01*
Y228346D01*
X423228D01*
Y224410D01*
D02*
G37*
G36*
X415354D02*
X411417D01*
Y228346D01*
X415354D01*
Y224410D01*
D02*
G37*
G36*
X407480D02*
X403543D01*
Y228346D01*
X407480D01*
Y224410D01*
D02*
G37*
G36*
X399606D02*
X395669D01*
Y228346D01*
X399606D01*
Y224410D01*
D02*
G37*
G36*
X391732D02*
X387795D01*
Y228346D01*
X391732D01*
Y224410D01*
D02*
G37*
G36*
X383858D02*
X379921D01*
Y228346D01*
X383858D01*
Y224410D01*
D02*
G37*
G36*
X375984D02*
X372047D01*
Y228346D01*
X375984D01*
Y224410D01*
D02*
G37*
G36*
X368110D02*
X364173D01*
Y228346D01*
X368110D01*
Y224410D01*
D02*
G37*
G36*
X360236D02*
X356299D01*
Y228346D01*
X360236D01*
Y224410D01*
D02*
G37*
G36*
X352362D02*
X348425D01*
Y228346D01*
X352362D01*
Y224410D01*
D02*
G37*
G36*
X1403543Y216535D02*
X1399606D01*
Y220472D01*
X1403543D01*
Y216535D01*
D02*
G37*
G36*
X1395669D02*
X1391732D01*
Y220472D01*
X1395669D01*
Y216535D01*
D02*
G37*
G36*
X1387795D02*
X1383858D01*
Y220472D01*
X1387795D01*
Y216535D01*
D02*
G37*
G36*
X1379921D02*
X1375984D01*
Y220472D01*
X1379921D01*
Y216535D01*
D02*
G37*
G36*
X1202756D02*
X1198819D01*
Y220472D01*
X1202756D01*
Y216535D01*
D02*
G37*
G36*
X1194882D02*
X1190945D01*
Y220472D01*
X1194882D01*
Y216535D01*
D02*
G37*
G36*
X1187008D02*
X1183071D01*
Y220472D01*
X1187008D01*
Y216535D01*
D02*
G37*
G36*
X1179134D02*
X1175197D01*
Y220472D01*
X1179134D01*
Y216535D01*
D02*
G37*
G36*
X600394D02*
X596457D01*
Y220472D01*
X600394D01*
Y216535D01*
D02*
G37*
G36*
X592520D02*
X588583D01*
Y220472D01*
X592520D01*
Y216535D01*
D02*
G37*
G36*
X584646D02*
X580709D01*
Y220472D01*
X584646D01*
Y216535D01*
D02*
G37*
G36*
X576772D02*
X572835D01*
Y220472D01*
X576772D01*
Y216535D01*
D02*
G37*
G36*
X399606D02*
X395669D01*
Y220472D01*
X399606D01*
Y216535D01*
D02*
G37*
G36*
X391732D02*
X387795D01*
Y220472D01*
X391732D01*
Y216535D01*
D02*
G37*
G36*
X383858D02*
X379921D01*
Y220472D01*
X383858D01*
Y216535D01*
D02*
G37*
G36*
X375984D02*
X372047D01*
Y220472D01*
X375984D01*
Y216535D01*
D02*
G37*
G36*
X211614Y220259D02*
X210798Y219921D01*
X209107Y218885D01*
X207599Y217597D01*
X206312Y216090D01*
X205276Y214399D01*
X204517Y212567D01*
X204054Y210638D01*
X204053Y210630D01*
X166026D01*
X166025Y210638D01*
X165562Y212567D01*
X164803Y214399D01*
X163767Y216090D01*
X162479Y217597D01*
X160971Y218885D01*
X159281Y219921D01*
X157480Y220667D01*
Y228792D01*
X157942Y228983D01*
X170825Y216101D01*
X171476Y215665D01*
X172244Y215513D01*
X185039D01*
X185807Y215665D01*
X186459Y216101D01*
X191183Y220825D01*
X191618Y221476D01*
X191771Y222244D01*
Y223593D01*
X191883Y223668D01*
X192232Y224189D01*
X192354Y224803D01*
Y225945D01*
X192361Y225984D01*
Y233587D01*
X192380Y233590D01*
X193097Y234069D01*
X193575Y234785D01*
X193743Y235630D01*
Y245866D01*
X193575Y246711D01*
X193097Y247427D01*
X192380Y247906D01*
X191535Y248074D01*
X189173D01*
X188328Y247906D01*
X187612Y247427D01*
X187134Y246711D01*
X186966Y245866D01*
Y235630D01*
X187134Y234785D01*
X187612Y234069D01*
X188328Y233590D01*
X188347Y233587D01*
Y227504D01*
X188165Y227468D01*
X187644Y227120D01*
X187296Y226599D01*
X187174Y225984D01*
Y224803D01*
X187296Y224189D01*
X187644Y223668D01*
X187757Y223593D01*
Y223075D01*
X184208Y219527D01*
X173075D01*
X157480Y235122D01*
Y270669D01*
X211614D01*
Y220259D01*
D02*
G37*
G36*
X801181Y214567D02*
X797244D01*
Y218504D01*
X801181D01*
Y214567D01*
D02*
G37*
G36*
X793307D02*
X789370D01*
Y218504D01*
X793307D01*
Y214567D01*
D02*
G37*
G36*
X785433D02*
X781496D01*
Y218504D01*
X785433D01*
Y214567D01*
D02*
G37*
G36*
X777559D02*
X773622D01*
Y218504D01*
X777559D01*
Y214567D01*
D02*
G37*
G36*
X1403543Y208661D02*
X1399606D01*
Y212598D01*
X1403543D01*
Y208661D01*
D02*
G37*
G36*
X1395669D02*
X1391732D01*
Y212598D01*
X1395669D01*
Y208661D01*
D02*
G37*
G36*
X1387795D02*
X1383858D01*
Y212598D01*
X1387795D01*
Y208661D01*
D02*
G37*
G36*
X1379921D02*
X1375984D01*
Y212598D01*
X1379921D01*
Y208661D01*
D02*
G37*
G36*
X1202756D02*
X1198819D01*
Y212598D01*
X1202756D01*
Y208661D01*
D02*
G37*
G36*
X1194882D02*
X1190945D01*
Y212598D01*
X1194882D01*
Y208661D01*
D02*
G37*
G36*
X1187008D02*
X1183071D01*
Y212598D01*
X1187008D01*
Y208661D01*
D02*
G37*
G36*
X1179134D02*
X1175197D01*
Y212598D01*
X1179134D01*
Y208661D01*
D02*
G37*
G36*
X600394D02*
X596457D01*
Y212598D01*
X600394D01*
Y208661D01*
D02*
G37*
G36*
X592520D02*
X588583D01*
Y212598D01*
X592520D01*
Y208661D01*
D02*
G37*
G36*
X584646D02*
X580709D01*
Y212598D01*
X584646D01*
Y208661D01*
D02*
G37*
G36*
X576772D02*
X572835D01*
Y212598D01*
X576772D01*
Y208661D01*
D02*
G37*
G36*
X399606D02*
X395669D01*
Y212598D01*
X399606D01*
Y208661D01*
D02*
G37*
G36*
X391732D02*
X387795D01*
Y212598D01*
X391732D01*
Y208661D01*
D02*
G37*
G36*
X383858D02*
X379921D01*
Y212598D01*
X383858D01*
Y208661D01*
D02*
G37*
G36*
X375984D02*
X372047D01*
Y212598D01*
X375984D01*
Y208661D01*
D02*
G37*
G36*
X801181Y206693D02*
X797244D01*
Y210630D01*
X801181D01*
Y206693D01*
D02*
G37*
G36*
X793307D02*
X789370D01*
Y210630D01*
X793307D01*
Y206693D01*
D02*
G37*
G36*
X785433D02*
X781496D01*
Y210630D01*
X785433D01*
Y206693D01*
D02*
G37*
G36*
X777559D02*
X773622D01*
Y210630D01*
X777559D01*
Y206693D01*
D02*
G37*
G36*
X1403543Y200787D02*
X1399606D01*
Y204724D01*
X1403543D01*
Y200787D01*
D02*
G37*
G36*
X1395669D02*
X1391732D01*
Y204724D01*
X1395669D01*
Y200787D01*
D02*
G37*
G36*
X1387795D02*
X1383858D01*
Y204724D01*
X1387795D01*
Y200787D01*
D02*
G37*
G36*
X1379921D02*
X1375984D01*
Y204724D01*
X1379921D01*
Y200787D01*
D02*
G37*
G36*
X1202756D02*
X1198819D01*
Y204724D01*
X1202756D01*
Y200787D01*
D02*
G37*
G36*
X1194882D02*
X1190945D01*
Y204724D01*
X1194882D01*
Y200787D01*
D02*
G37*
G36*
X1187008D02*
X1183071D01*
Y204724D01*
X1187008D01*
Y200787D01*
D02*
G37*
G36*
X1179134D02*
X1175197D01*
Y204724D01*
X1179134D01*
Y200787D01*
D02*
G37*
G36*
X600394D02*
X596457D01*
Y204724D01*
X600394D01*
Y200787D01*
D02*
G37*
G36*
X592520D02*
X588583D01*
Y204724D01*
X592520D01*
Y200787D01*
D02*
G37*
G36*
X584646D02*
X580709D01*
Y204724D01*
X584646D01*
Y200787D01*
D02*
G37*
G36*
X576772D02*
X572835D01*
Y204724D01*
X576772D01*
Y200787D01*
D02*
G37*
G36*
X399606D02*
X395669D01*
Y204724D01*
X399606D01*
Y200787D01*
D02*
G37*
G36*
X391732D02*
X387795D01*
Y204724D01*
X391732D01*
Y200787D01*
D02*
G37*
G36*
X383858D02*
X379921D01*
Y204724D01*
X383858D01*
Y200787D01*
D02*
G37*
G36*
X375984D02*
X372047D01*
Y204724D01*
X375984D01*
Y200787D01*
D02*
G37*
G36*
X1001968Y198819D02*
X998032D01*
Y202756D01*
X1001968D01*
Y198819D01*
D02*
G37*
G36*
X994094D02*
X990158D01*
Y202756D01*
X994094D01*
Y198819D01*
D02*
G37*
G36*
X986220D02*
X982283D01*
Y202756D01*
X986220D01*
Y198819D01*
D02*
G37*
G36*
X978347D02*
X974409D01*
Y202756D01*
X978347D01*
Y198819D01*
D02*
G37*
G36*
X801181D02*
X797244D01*
Y202756D01*
X801181D01*
Y198819D01*
D02*
G37*
G36*
X793307D02*
X789370D01*
Y202756D01*
X793307D01*
Y198819D01*
D02*
G37*
G36*
X785433D02*
X781496D01*
Y202756D01*
X785433D01*
Y198819D01*
D02*
G37*
G36*
X777559D02*
X773622D01*
Y202756D01*
X777559D01*
Y198819D01*
D02*
G37*
G36*
X1403543Y192913D02*
X1399606D01*
Y196850D01*
X1403543D01*
Y192913D01*
D02*
G37*
G36*
X1395669D02*
X1391732D01*
Y196850D01*
X1395669D01*
Y192913D01*
D02*
G37*
G36*
X1387795D02*
X1383858D01*
Y196850D01*
X1387795D01*
Y192913D01*
D02*
G37*
G36*
X1379921D02*
X1375984D01*
Y196850D01*
X1379921D01*
Y192913D01*
D02*
G37*
G36*
X1202756D02*
X1198819D01*
Y196850D01*
X1202756D01*
Y192913D01*
D02*
G37*
G36*
X1194882D02*
X1190945D01*
Y196850D01*
X1194882D01*
Y192913D01*
D02*
G37*
G36*
X1187008D02*
X1183071D01*
Y196850D01*
X1187008D01*
Y192913D01*
D02*
G37*
G36*
X1179134D02*
X1175197D01*
Y196850D01*
X1179134D01*
Y192913D01*
D02*
G37*
G36*
X600394D02*
X596457D01*
Y196850D01*
X600394D01*
Y192913D01*
D02*
G37*
G36*
X592520D02*
X588583D01*
Y196850D01*
X592520D01*
Y192913D01*
D02*
G37*
G36*
X584646D02*
X580709D01*
Y196850D01*
X584646D01*
Y192913D01*
D02*
G37*
G36*
X576772D02*
X572835D01*
Y196850D01*
X576772D01*
Y192913D01*
D02*
G37*
G36*
X399606D02*
X395669D01*
Y196850D01*
X399606D01*
Y192913D01*
D02*
G37*
G36*
X391732D02*
X387795D01*
Y196850D01*
X391732D01*
Y192913D01*
D02*
G37*
G36*
X383858D02*
X379921D01*
Y196850D01*
X383858D01*
Y192913D01*
D02*
G37*
G36*
X375984D02*
X372047D01*
Y196850D01*
X375984D01*
Y192913D01*
D02*
G37*
G36*
X431102Y192913D02*
X427165D01*
Y196850D01*
X431102D01*
Y192913D01*
D02*
G37*
G36*
X407480D02*
X403543D01*
Y196850D01*
X407480D01*
Y192913D01*
D02*
G37*
G36*
X368110D02*
X364173D01*
Y196850D01*
X368110D01*
Y192913D01*
D02*
G37*
G36*
X344488D02*
X340551D01*
Y196850D01*
X344488D01*
Y192913D01*
D02*
G37*
G36*
X1009842Y190945D02*
X1005906D01*
Y194882D01*
X1009842D01*
Y190945D01*
D02*
G37*
G36*
X1001968D02*
X998032D01*
Y194882D01*
X1001968D01*
Y190945D01*
D02*
G37*
G36*
X994094D02*
X990158D01*
Y194882D01*
X994094D01*
Y190945D01*
D02*
G37*
G36*
X986220D02*
X982283D01*
Y194882D01*
X986220D01*
Y190945D01*
D02*
G37*
G36*
X978347D02*
X974409D01*
Y194882D01*
X978347D01*
Y190945D01*
D02*
G37*
G36*
X970472D02*
X966535D01*
Y194882D01*
X970472D01*
Y190945D01*
D02*
G37*
G36*
X832677D02*
X828740D01*
Y194882D01*
X832677D01*
Y190945D01*
D02*
G37*
G36*
X824803D02*
X820866D01*
Y194882D01*
X824803D01*
Y190945D01*
D02*
G37*
G36*
X816929D02*
X812992D01*
Y194882D01*
X816929D01*
Y190945D01*
D02*
G37*
G36*
X809055D02*
X805118D01*
Y194882D01*
X809055D01*
Y190945D01*
D02*
G37*
G36*
X801181D02*
X797244D01*
Y194882D01*
X801181D01*
Y190945D01*
D02*
G37*
G36*
X793307D02*
X789370D01*
Y194882D01*
X793307D01*
Y190945D01*
D02*
G37*
G36*
X785433D02*
X781496D01*
Y194882D01*
X785433D01*
Y190945D01*
D02*
G37*
G36*
X777559D02*
X773622D01*
Y194882D01*
X777559D01*
Y190945D01*
D02*
G37*
G36*
X769685Y190945D02*
X765748D01*
Y194882D01*
X769685D01*
Y190945D01*
D02*
G37*
G36*
X761811D02*
X757874D01*
Y194882D01*
X761811D01*
Y190945D01*
D02*
G37*
G36*
X753937D02*
X750000D01*
Y194882D01*
X753937D01*
Y190945D01*
D02*
G37*
G36*
X746063D02*
X742126D01*
Y194882D01*
X746063D01*
Y190945D01*
D02*
G37*
G36*
X214567Y190945D02*
X210630D01*
Y194882D01*
X214567D01*
Y190945D01*
D02*
G37*
G36*
X206693D02*
X202756D01*
Y194882D01*
X206693D01*
Y190945D01*
D02*
G37*
G36*
X198819D02*
X194882D01*
Y194882D01*
X198819D01*
Y190945D01*
D02*
G37*
G36*
X190945D02*
X187008D01*
Y194882D01*
X190945D01*
Y190945D01*
D02*
G37*
G36*
X183071D02*
X179134D01*
Y194882D01*
X183071D01*
Y190945D01*
D02*
G37*
G36*
X175197D02*
X171260D01*
Y194882D01*
X175197D01*
Y190945D01*
D02*
G37*
G36*
X167323D02*
X163386D01*
Y194882D01*
X167323D01*
Y190945D01*
D02*
G37*
G36*
X159449D02*
X155512D01*
Y194882D01*
X159449D01*
Y190945D01*
D02*
G37*
G36*
X624016Y185039D02*
X620079D01*
Y188976D01*
X624016D01*
Y185039D01*
D02*
G37*
G36*
X616142D02*
X612205D01*
Y188976D01*
X616142D01*
Y185039D01*
D02*
G37*
G36*
X608268D02*
X604331D01*
Y188976D01*
X608268D01*
Y185039D01*
D02*
G37*
G36*
X600394D02*
X596457D01*
Y188976D01*
X600394D01*
Y185039D01*
D02*
G37*
G36*
X592520D02*
X588583D01*
Y188976D01*
X592520D01*
Y185039D01*
D02*
G37*
G36*
X584646D02*
X580709D01*
Y188976D01*
X584646D01*
Y185039D01*
D02*
G37*
G36*
X576772D02*
X572835D01*
Y188976D01*
X576772D01*
Y185039D01*
D02*
G37*
G36*
X568898D02*
X564961D01*
Y188976D01*
X568898D01*
Y185039D01*
D02*
G37*
G36*
X561024D02*
X557087D01*
Y188976D01*
X561024D01*
Y185039D01*
D02*
G37*
G36*
X553150D02*
X549213D01*
Y188976D01*
X553150D01*
Y185039D01*
D02*
G37*
G36*
X1403543Y185039D02*
X1399606D01*
Y188976D01*
X1403543D01*
Y185039D01*
D02*
G37*
G36*
X1395669D02*
X1391732D01*
Y188976D01*
X1395669D01*
Y185039D01*
D02*
G37*
G36*
X1387795D02*
X1383858D01*
Y188976D01*
X1387795D01*
Y185039D01*
D02*
G37*
G36*
X1379921D02*
X1375984D01*
Y188976D01*
X1379921D01*
Y185039D01*
D02*
G37*
G36*
X1202756D02*
X1198819D01*
Y188976D01*
X1202756D01*
Y185039D01*
D02*
G37*
G36*
X1194882D02*
X1190945D01*
Y188976D01*
X1194882D01*
Y185039D01*
D02*
G37*
G36*
X1187008D02*
X1183071D01*
Y188976D01*
X1187008D01*
Y185039D01*
D02*
G37*
G36*
X1179134D02*
X1175197D01*
Y188976D01*
X1179134D01*
Y185039D01*
D02*
G37*
G36*
X431102D02*
X427165D01*
Y188976D01*
X431102D01*
Y185039D01*
D02*
G37*
G36*
X423228D02*
X419291D01*
Y188976D01*
X423228D01*
Y185039D01*
D02*
G37*
G36*
X415354D02*
X411417D01*
Y188976D01*
X415354D01*
Y185039D01*
D02*
G37*
G36*
X407480D02*
X403543D01*
Y188976D01*
X407480D01*
Y185039D01*
D02*
G37*
G36*
X399606D02*
X395669D01*
Y188976D01*
X399606D01*
Y185039D01*
D02*
G37*
G36*
X391732D02*
X387795D01*
Y188976D01*
X391732D01*
Y185039D01*
D02*
G37*
G36*
X383858D02*
X379921D01*
Y188976D01*
X383858D01*
Y185039D01*
D02*
G37*
G36*
X375984D02*
X372047D01*
Y188976D01*
X375984D01*
Y185039D01*
D02*
G37*
G36*
X368110D02*
X364173D01*
Y188976D01*
X368110D01*
Y185039D01*
D02*
G37*
G36*
X360236D02*
X356299D01*
Y188976D01*
X360236D01*
Y185039D01*
D02*
G37*
G36*
X352362D02*
X348425D01*
Y188976D01*
X352362D01*
Y185039D01*
D02*
G37*
G36*
X344488D02*
X340551D01*
Y188976D01*
X344488D01*
Y185039D01*
D02*
G37*
G36*
X1017717Y183071D02*
X1013780D01*
Y187008D01*
X1017717D01*
Y183071D01*
D02*
G37*
G36*
X1009842D02*
X1005906D01*
Y187008D01*
X1009842D01*
Y183071D01*
D02*
G37*
G36*
X1001968D02*
X998032D01*
Y187008D01*
X1001968D01*
Y183071D01*
D02*
G37*
G36*
X994094D02*
X990158D01*
Y187008D01*
X994094D01*
Y183071D01*
D02*
G37*
G36*
X986220D02*
X982283D01*
Y187008D01*
X986220D01*
Y183071D01*
D02*
G37*
G36*
X978347D02*
X974409D01*
Y187008D01*
X978347D01*
Y183071D01*
D02*
G37*
G36*
X970472D02*
X966535D01*
Y187008D01*
X970472D01*
Y183071D01*
D02*
G37*
G36*
X962598D02*
X958661D01*
Y187008D01*
X962598D01*
Y183071D01*
D02*
G37*
G36*
X832677D02*
X828740D01*
Y187008D01*
X832677D01*
Y183071D01*
D02*
G37*
G36*
X824803D02*
X820866D01*
Y187008D01*
X824803D01*
Y183071D01*
D02*
G37*
G36*
X816929D02*
X812992D01*
Y187008D01*
X816929D01*
Y183071D01*
D02*
G37*
G36*
X809055D02*
X805118D01*
Y187008D01*
X809055D01*
Y183071D01*
D02*
G37*
G36*
X801181D02*
X797244D01*
Y187008D01*
X801181D01*
Y183071D01*
D02*
G37*
G36*
X793307D02*
X789370D01*
Y187008D01*
X793307D01*
Y183071D01*
D02*
G37*
G36*
X785433D02*
X781496D01*
Y187008D01*
X785433D01*
Y183071D01*
D02*
G37*
G36*
X777559D02*
X773622D01*
Y187008D01*
X777559D01*
Y183071D01*
D02*
G37*
G36*
X769685D02*
X765748D01*
Y187008D01*
X769685D01*
Y183071D01*
D02*
G37*
G36*
X761811D02*
X757874D01*
Y187008D01*
X761811D01*
Y183071D01*
D02*
G37*
G36*
X753937D02*
X750000D01*
Y187008D01*
X753937D01*
Y183071D01*
D02*
G37*
G36*
X746063D02*
X742126D01*
Y187008D01*
X746063D01*
Y183071D01*
D02*
G37*
G36*
X214567Y183071D02*
X210630D01*
Y187008D01*
X214567D01*
Y183071D01*
D02*
G37*
G36*
X206693D02*
X202756D01*
Y187008D01*
X206693D01*
Y183071D01*
D02*
G37*
G36*
X198819D02*
X194882D01*
Y187008D01*
X198819D01*
Y183071D01*
D02*
G37*
G36*
X190945D02*
X187008D01*
Y187008D01*
X190945D01*
Y183071D01*
D02*
G37*
G36*
X183071D02*
X179134D01*
Y187008D01*
X183071D01*
Y183071D01*
D02*
G37*
G36*
X175197D02*
X171260D01*
Y187008D01*
X175197D01*
Y183071D01*
D02*
G37*
G36*
X167323D02*
X163386D01*
Y187008D01*
X167323D01*
Y183071D01*
D02*
G37*
G36*
X159449D02*
X155512D01*
Y187008D01*
X159449D01*
Y183071D01*
D02*
G37*
G36*
X624016Y177165D02*
X620079D01*
Y181102D01*
X624016D01*
Y177165D01*
D02*
G37*
G36*
X616142D02*
X612205D01*
Y181102D01*
X616142D01*
Y177165D01*
D02*
G37*
G36*
X608268D02*
X604331D01*
Y181102D01*
X608268D01*
Y177165D01*
D02*
G37*
G36*
X600394D02*
X596457D01*
Y181102D01*
X600394D01*
Y177165D01*
D02*
G37*
G36*
X592520D02*
X588583D01*
Y181102D01*
X592520D01*
Y177165D01*
D02*
G37*
G36*
X584646D02*
X580709D01*
Y181102D01*
X584646D01*
Y177165D01*
D02*
G37*
G36*
X576772D02*
X572835D01*
Y181102D01*
X576772D01*
Y177165D01*
D02*
G37*
G36*
X568898D02*
X564961D01*
Y181102D01*
X568898D01*
Y177165D01*
D02*
G37*
G36*
X561024D02*
X557087D01*
Y181102D01*
X561024D01*
Y177165D01*
D02*
G37*
G36*
X553150D02*
X549213D01*
Y181102D01*
X553150D01*
Y177165D01*
D02*
G37*
G36*
X1403543Y177165D02*
X1399606D01*
Y181102D01*
X1403543D01*
Y177165D01*
D02*
G37*
G36*
X1395669D02*
X1391732D01*
Y181102D01*
X1395669D01*
Y177165D01*
D02*
G37*
G36*
X1387795D02*
X1383858D01*
Y181102D01*
X1387795D01*
Y177165D01*
D02*
G37*
G36*
X1379921D02*
X1375984D01*
Y181102D01*
X1379921D01*
Y177165D01*
D02*
G37*
G36*
X1202756D02*
X1198819D01*
Y181102D01*
X1202756D01*
Y177165D01*
D02*
G37*
G36*
X1194882D02*
X1190945D01*
Y181102D01*
X1194882D01*
Y177165D01*
D02*
G37*
G36*
X1187008D02*
X1183071D01*
Y181102D01*
X1187008D01*
Y177165D01*
D02*
G37*
G36*
X1179134D02*
X1175197D01*
Y181102D01*
X1179134D01*
Y177165D01*
D02*
G37*
G36*
X431102D02*
X427165D01*
Y181102D01*
X431102D01*
Y177165D01*
D02*
G37*
G36*
X423228D02*
X419291D01*
Y181102D01*
X423228D01*
Y177165D01*
D02*
G37*
G36*
X415354D02*
X411417D01*
Y181102D01*
X415354D01*
Y177165D01*
D02*
G37*
G36*
X407480D02*
X403543D01*
Y181102D01*
X407480D01*
Y177165D01*
D02*
G37*
G36*
X399606D02*
X395669D01*
Y181102D01*
X399606D01*
Y177165D01*
D02*
G37*
G36*
X391732D02*
X387795D01*
Y181102D01*
X391732D01*
Y177165D01*
D02*
G37*
G36*
X383858D02*
X379921D01*
Y181102D01*
X383858D01*
Y177165D01*
D02*
G37*
G36*
X375984D02*
X372047D01*
Y181102D01*
X375984D01*
Y177165D01*
D02*
G37*
G36*
X368110D02*
X364173D01*
Y181102D01*
X368110D01*
Y177165D01*
D02*
G37*
G36*
X360236D02*
X356299D01*
Y181102D01*
X360236D01*
Y177165D01*
D02*
G37*
G36*
X352362D02*
X348425D01*
Y181102D01*
X352362D01*
Y177165D01*
D02*
G37*
G36*
X344488D02*
X340551D01*
Y181102D01*
X344488D01*
Y177165D01*
D02*
G37*
G36*
X1017717Y175197D02*
X1013780D01*
Y179134D01*
X1017717D01*
Y175197D01*
D02*
G37*
G36*
X1009842D02*
X1005906D01*
Y179134D01*
X1009842D01*
Y175197D01*
D02*
G37*
G36*
X1001968D02*
X998032D01*
Y179134D01*
X1001968D01*
Y175197D01*
D02*
G37*
G36*
X994094D02*
X990158D01*
Y179134D01*
X994094D01*
Y175197D01*
D02*
G37*
G36*
X986220D02*
X982283D01*
Y179134D01*
X986220D01*
Y175197D01*
D02*
G37*
G36*
X978347D02*
X974409D01*
Y179134D01*
X978347D01*
Y175197D01*
D02*
G37*
G36*
X970472D02*
X966535D01*
Y179134D01*
X970472D01*
Y175197D01*
D02*
G37*
G36*
X962598D02*
X958661D01*
Y179134D01*
X962598D01*
Y175197D01*
D02*
G37*
G36*
X832677Y175197D02*
X828740D01*
Y179134D01*
X832677D01*
Y175197D01*
D02*
G37*
G36*
X824803D02*
X820866D01*
Y179134D01*
X824803D01*
Y175197D01*
D02*
G37*
G36*
X816929D02*
X812992D01*
Y179134D01*
X816929D01*
Y175197D01*
D02*
G37*
G36*
X809055D02*
X805118D01*
Y179134D01*
X809055D01*
Y175197D01*
D02*
G37*
G36*
X801181D02*
X797244D01*
Y179134D01*
X801181D01*
Y175197D01*
D02*
G37*
G36*
X793307D02*
X789370D01*
Y179134D01*
X793307D01*
Y175197D01*
D02*
G37*
G36*
X785433D02*
X781496D01*
Y179134D01*
X785433D01*
Y175197D01*
D02*
G37*
G36*
X777559D02*
X773622D01*
Y179134D01*
X777559D01*
Y175197D01*
D02*
G37*
G36*
X769685D02*
X765748D01*
Y179134D01*
X769685D01*
Y175197D01*
D02*
G37*
G36*
X761811D02*
X757874D01*
Y179134D01*
X761811D01*
Y175197D01*
D02*
G37*
G36*
X753937D02*
X750000D01*
Y179134D01*
X753937D01*
Y175197D01*
D02*
G37*
G36*
X746063D02*
X742126D01*
Y179134D01*
X746063D01*
Y175197D01*
D02*
G37*
G36*
X214567Y175197D02*
X210630D01*
Y179134D01*
X214567D01*
Y175197D01*
D02*
G37*
G36*
X206693D02*
X202756D01*
Y179134D01*
X206693D01*
Y175197D01*
D02*
G37*
G36*
X198819D02*
X194882D01*
Y179134D01*
X198819D01*
Y175197D01*
D02*
G37*
G36*
X190945D02*
X187008D01*
Y179134D01*
X190945D01*
Y175197D01*
D02*
G37*
G36*
X183071D02*
X179134D01*
Y179134D01*
X183071D01*
Y175197D01*
D02*
G37*
G36*
X175197D02*
X171260D01*
Y179134D01*
X175197D01*
Y175197D01*
D02*
G37*
G36*
X167323D02*
X163386D01*
Y179134D01*
X167323D01*
Y175197D01*
D02*
G37*
G36*
X159449D02*
X155512D01*
Y179134D01*
X159449D01*
Y175197D01*
D02*
G37*
G36*
X624016Y169291D02*
X620079D01*
Y173228D01*
X624016D01*
Y169291D01*
D02*
G37*
G36*
X616142D02*
X612205D01*
Y173228D01*
X616142D01*
Y169291D01*
D02*
G37*
G36*
X608268D02*
X604331D01*
Y173228D01*
X608268D01*
Y169291D01*
D02*
G37*
G36*
X600394D02*
X596457D01*
Y173228D01*
X600394D01*
Y169291D01*
D02*
G37*
G36*
X592520D02*
X588583D01*
Y173228D01*
X592520D01*
Y169291D01*
D02*
G37*
G36*
X584646D02*
X580709D01*
Y173228D01*
X584646D01*
Y169291D01*
D02*
G37*
G36*
X576772D02*
X572835D01*
Y173228D01*
X576772D01*
Y169291D01*
D02*
G37*
G36*
X568898D02*
X564961D01*
Y173228D01*
X568898D01*
Y169291D01*
D02*
G37*
G36*
X561024D02*
X557087D01*
Y173228D01*
X561024D01*
Y169291D01*
D02*
G37*
G36*
X553150D02*
X549213D01*
Y173228D01*
X553150D01*
Y169291D01*
D02*
G37*
G36*
X431102Y169291D02*
X427165D01*
Y173228D01*
X431102D01*
Y169291D01*
D02*
G37*
G36*
X423228D02*
X419291D01*
Y173228D01*
X423228D01*
Y169291D01*
D02*
G37*
G36*
X415354D02*
X411417D01*
Y173228D01*
X415354D01*
Y169291D01*
D02*
G37*
G36*
X407480D02*
X403543D01*
Y173228D01*
X407480D01*
Y169291D01*
D02*
G37*
G36*
X368110D02*
X364173D01*
Y173228D01*
X368110D01*
Y169291D01*
D02*
G37*
G36*
X360236D02*
X356299D01*
Y173228D01*
X360236D01*
Y169291D01*
D02*
G37*
G36*
X352362D02*
X348425D01*
Y173228D01*
X352362D01*
Y169291D01*
D02*
G37*
G36*
X344488D02*
X340551D01*
Y173228D01*
X344488D01*
Y169291D01*
D02*
G37*
G36*
X1017717Y167323D02*
X1013780D01*
Y171260D01*
X1017717D01*
Y167323D01*
D02*
G37*
G36*
X1009842D02*
X1005906D01*
Y171260D01*
X1009842D01*
Y167323D01*
D02*
G37*
G36*
X1001968D02*
X998032D01*
Y171260D01*
X1001968D01*
Y167323D01*
D02*
G37*
G36*
X994094D02*
X990158D01*
Y171260D01*
X994094D01*
Y167323D01*
D02*
G37*
G36*
X986220D02*
X982283D01*
Y171260D01*
X986220D01*
Y167323D01*
D02*
G37*
G36*
X978347D02*
X974409D01*
Y171260D01*
X978347D01*
Y167323D01*
D02*
G37*
G36*
X970472D02*
X966535D01*
Y171260D01*
X970472D01*
Y167323D01*
D02*
G37*
G36*
X962598D02*
X958661D01*
Y171260D01*
X962598D01*
Y167323D01*
D02*
G37*
G36*
X832677D02*
X828740D01*
Y171260D01*
X832677D01*
Y167323D01*
D02*
G37*
G36*
X824803D02*
X820866D01*
Y171260D01*
X824803D01*
Y167323D01*
D02*
G37*
G36*
X816929D02*
X812992D01*
Y171260D01*
X816929D01*
Y167323D01*
D02*
G37*
G36*
X809055D02*
X805118D01*
Y171260D01*
X809055D01*
Y167323D01*
D02*
G37*
G36*
X769685D02*
X765748D01*
Y171260D01*
X769685D01*
Y167323D01*
D02*
G37*
G36*
X761811D02*
X757874D01*
Y171260D01*
X761811D01*
Y167323D01*
D02*
G37*
G36*
X753937D02*
X750000D01*
Y171260D01*
X753937D01*
Y167323D01*
D02*
G37*
G36*
X746063D02*
X742126D01*
Y171260D01*
X746063D01*
Y167323D01*
D02*
G37*
G36*
X214567Y167323D02*
X210630D01*
Y171260D01*
X214567D01*
Y167323D01*
D02*
G37*
G36*
X206693D02*
X202756D01*
Y171260D01*
X206693D01*
Y167323D01*
D02*
G37*
G36*
X198819D02*
X194882D01*
Y171260D01*
X198819D01*
Y167323D01*
D02*
G37*
G36*
X190945D02*
X187008D01*
Y171260D01*
X190945D01*
Y167323D01*
D02*
G37*
G36*
X183071D02*
X179134D01*
Y171260D01*
X183071D01*
Y167323D01*
D02*
G37*
G36*
X175197D02*
X171260D01*
Y171260D01*
X175197D01*
Y167323D01*
D02*
G37*
G36*
X167323D02*
X163386D01*
Y171260D01*
X167323D01*
Y167323D01*
D02*
G37*
G36*
X159449D02*
X155512D01*
Y171260D01*
X159449D01*
Y167323D01*
D02*
G37*
G36*
X624016Y161417D02*
X620079D01*
Y165354D01*
X624016D01*
Y161417D01*
D02*
G37*
G36*
X616142D02*
X612205D01*
Y165354D01*
X616142D01*
Y161417D01*
D02*
G37*
G36*
X608268D02*
X604331D01*
Y165354D01*
X608268D01*
Y161417D01*
D02*
G37*
G36*
X600394D02*
X596457D01*
Y165354D01*
X600394D01*
Y161417D01*
D02*
G37*
G36*
X592520D02*
X588583D01*
Y165354D01*
X592520D01*
Y161417D01*
D02*
G37*
G36*
X584646D02*
X580709D01*
Y165354D01*
X584646D01*
Y161417D01*
D02*
G37*
G36*
X576772D02*
X572835D01*
Y165354D01*
X576772D01*
Y161417D01*
D02*
G37*
G36*
X568898D02*
X564961D01*
Y165354D01*
X568898D01*
Y161417D01*
D02*
G37*
G36*
X561024D02*
X557087D01*
Y165354D01*
X561024D01*
Y161417D01*
D02*
G37*
G36*
X553150D02*
X549213D01*
Y165354D01*
X553150D01*
Y161417D01*
D02*
G37*
G36*
X431102Y161417D02*
X427165D01*
Y165354D01*
X431102D01*
Y161417D01*
D02*
G37*
G36*
X423228D02*
X419291D01*
Y165354D01*
X423228D01*
Y161417D01*
D02*
G37*
G36*
X415354D02*
X411417D01*
Y165354D01*
X415354D01*
Y161417D01*
D02*
G37*
G36*
X407480D02*
X403543D01*
Y165354D01*
X407480D01*
Y161417D01*
D02*
G37*
G36*
X368110D02*
X364173D01*
Y165354D01*
X368110D01*
Y161417D01*
D02*
G37*
G36*
X360236D02*
X356299D01*
Y165354D01*
X360236D01*
Y161417D01*
D02*
G37*
G36*
X352362D02*
X348425D01*
Y165354D01*
X352362D01*
Y161417D01*
D02*
G37*
G36*
X344488D02*
X340551D01*
Y165354D01*
X344488D01*
Y161417D01*
D02*
G37*
G36*
X1017717Y159449D02*
X1013780D01*
Y163386D01*
X1017717D01*
Y159449D01*
D02*
G37*
G36*
X1009842D02*
X1005906D01*
Y163386D01*
X1009842D01*
Y159449D01*
D02*
G37*
G36*
X1001968D02*
X998032D01*
Y163386D01*
X1001968D01*
Y159449D01*
D02*
G37*
G36*
X994094D02*
X990158D01*
Y163386D01*
X994094D01*
Y159449D01*
D02*
G37*
G36*
X986220D02*
X982283D01*
Y163386D01*
X986220D01*
Y159449D01*
D02*
G37*
G36*
X978347D02*
X974409D01*
Y163386D01*
X978347D01*
Y159449D01*
D02*
G37*
G36*
X970472D02*
X966535D01*
Y163386D01*
X970472D01*
Y159449D01*
D02*
G37*
G36*
X962598D02*
X958661D01*
Y163386D01*
X962598D01*
Y159449D01*
D02*
G37*
G36*
X824803Y159449D02*
X820866D01*
Y163386D01*
X824803D01*
Y159449D01*
D02*
G37*
G36*
X816929D02*
X812992D01*
Y163386D01*
X816929D01*
Y159449D01*
D02*
G37*
G36*
X809055D02*
X805118D01*
Y163386D01*
X809055D01*
Y159449D01*
D02*
G37*
G36*
X769685D02*
X765748D01*
Y163386D01*
X769685D01*
Y159449D01*
D02*
G37*
G36*
X761811D02*
X757874D01*
Y163386D01*
X761811D01*
Y159449D01*
D02*
G37*
G36*
X753937D02*
X750000D01*
Y163386D01*
X753937D01*
Y159449D01*
D02*
G37*
G36*
X746063D02*
X742126D01*
Y163386D01*
X746063D01*
Y159449D01*
D02*
G37*
G36*
X624016Y153543D02*
X620079D01*
Y157480D01*
X624016D01*
Y153543D01*
D02*
G37*
G36*
X616142D02*
X612205D01*
Y157480D01*
X616142D01*
Y153543D01*
D02*
G37*
G36*
X608268D02*
X604331D01*
Y157480D01*
X608268D01*
Y153543D01*
D02*
G37*
G36*
X600394D02*
X596457D01*
Y157480D01*
X600394D01*
Y153543D01*
D02*
G37*
G36*
X592520D02*
X588583D01*
Y157480D01*
X592520D01*
Y153543D01*
D02*
G37*
G36*
X584646D02*
X580709D01*
Y157480D01*
X584646D01*
Y153543D01*
D02*
G37*
G36*
X576772D02*
X572835D01*
Y157480D01*
X576772D01*
Y153543D01*
D02*
G37*
G36*
X568898D02*
X564961D01*
Y157480D01*
X568898D01*
Y153543D01*
D02*
G37*
G36*
X561024D02*
X557087D01*
Y157480D01*
X561024D01*
Y153543D01*
D02*
G37*
G36*
X553150D02*
X549213D01*
Y157480D01*
X553150D01*
Y153543D01*
D02*
G37*
G36*
X423228Y153543D02*
X419291D01*
Y157480D01*
X423228D01*
Y153543D01*
D02*
G37*
G36*
X415354D02*
X411417D01*
Y157480D01*
X415354D01*
Y153543D01*
D02*
G37*
G36*
X407480D02*
X403543D01*
Y157480D01*
X407480D01*
Y153543D01*
D02*
G37*
G36*
X368110D02*
X364173D01*
Y157480D01*
X368110D01*
Y153543D01*
D02*
G37*
G36*
X360236D02*
X356299D01*
Y157480D01*
X360236D01*
Y153543D01*
D02*
G37*
G36*
X352362D02*
X348425D01*
Y157480D01*
X352362D01*
Y153543D01*
D02*
G37*
G36*
X344488D02*
X340551D01*
Y157480D01*
X344488D01*
Y153543D01*
D02*
G37*
G36*
X1017717Y151575D02*
X1013780D01*
Y155512D01*
X1017717D01*
Y151575D01*
D02*
G37*
G36*
X1009842D02*
X1005906D01*
Y155512D01*
X1009842D01*
Y151575D01*
D02*
G37*
G36*
X1001968D02*
X998032D01*
Y155512D01*
X1001968D01*
Y151575D01*
D02*
G37*
G36*
X994094D02*
X990158D01*
Y155512D01*
X994094D01*
Y151575D01*
D02*
G37*
G36*
X986220D02*
X982283D01*
Y155512D01*
X986220D01*
Y151575D01*
D02*
G37*
G36*
X978347D02*
X974409D01*
Y155512D01*
X978347D01*
Y151575D01*
D02*
G37*
G36*
X970472D02*
X966535D01*
Y155512D01*
X970472D01*
Y151575D01*
D02*
G37*
G36*
X962598D02*
X958661D01*
Y155512D01*
X962598D01*
Y151575D01*
D02*
G37*
G36*
X769685D02*
X765748D01*
Y155512D01*
X769685D01*
Y151575D01*
D02*
G37*
G36*
X761811D02*
X757874D01*
Y155512D01*
X761811D01*
Y151575D01*
D02*
G37*
G36*
X753937D02*
X750000D01*
Y155512D01*
X753937D01*
Y151575D01*
D02*
G37*
G36*
X746063D02*
X742126D01*
Y155512D01*
X746063D01*
Y151575D01*
D02*
G37*
G36*
X824803Y151575D02*
X820866D01*
Y155512D01*
X824803D01*
Y151575D01*
D02*
G37*
G36*
X816929D02*
X812992D01*
Y155512D01*
X816929D01*
Y151575D01*
D02*
G37*
G36*
X809055D02*
X805118D01*
Y155512D01*
X809055D01*
Y151575D01*
D02*
G37*
G36*
X1017717Y143701D02*
X1013780D01*
Y147638D01*
X1017717D01*
Y143701D01*
D02*
G37*
G36*
X1009842D02*
X1005906D01*
Y147638D01*
X1009842D01*
Y143701D01*
D02*
G37*
G36*
X1001968D02*
X998032D01*
Y147638D01*
X1001968D01*
Y143701D01*
D02*
G37*
G36*
X994094D02*
X990158D01*
Y147638D01*
X994094D01*
Y143701D01*
D02*
G37*
G36*
X986220D02*
X982283D01*
Y147638D01*
X986220D01*
Y143701D01*
D02*
G37*
G36*
X978347D02*
X974409D01*
Y147638D01*
X978347D01*
Y143701D01*
D02*
G37*
G36*
X970472D02*
X966535D01*
Y147638D01*
X970472D01*
Y143701D01*
D02*
G37*
G36*
X962598D02*
X958661D01*
Y147638D01*
X962598D01*
Y143701D01*
D02*
G37*
G36*
X769685Y143701D02*
X765748D01*
Y147638D01*
X769685D01*
Y143701D01*
D02*
G37*
G36*
X761811D02*
X757874D01*
Y147638D01*
X761811D01*
Y143701D01*
D02*
G37*
G36*
X753937D02*
X750000D01*
Y147638D01*
X753937D01*
Y143701D01*
D02*
G37*
G36*
X746063D02*
X742126D01*
Y147638D01*
X746063D01*
Y143701D01*
D02*
G37*
G36*
X801181Y135827D02*
X797244D01*
Y139764D01*
X801181D01*
Y135827D01*
D02*
G37*
G36*
X793307D02*
X789370D01*
Y139764D01*
X793307D01*
Y135827D01*
D02*
G37*
G36*
X785433D02*
X781496D01*
Y139764D01*
X785433D01*
Y135827D01*
D02*
G37*
G36*
X777559D02*
X773622D01*
Y139764D01*
X777559D01*
Y135827D01*
D02*
G37*
G36*
X769685D02*
X765748D01*
Y139764D01*
X769685D01*
Y135827D01*
D02*
G37*
G36*
X761811D02*
X757874D01*
Y139764D01*
X761811D01*
Y135827D01*
D02*
G37*
G36*
X753937D02*
X750000D01*
Y139764D01*
X753937D01*
Y135827D01*
D02*
G37*
G36*
X746063D02*
X742126D01*
Y139764D01*
X746063D01*
Y135827D01*
D02*
G37*
G36*
X801181Y127953D02*
X797244D01*
Y131890D01*
X801181D01*
Y127953D01*
D02*
G37*
G36*
X793307D02*
X789370D01*
Y131890D01*
X793307D01*
Y127953D01*
D02*
G37*
G36*
X785433D02*
X781496D01*
Y131890D01*
X785433D01*
Y127953D01*
D02*
G37*
G36*
X777559D02*
X773622D01*
Y131890D01*
X777559D01*
Y127953D01*
D02*
G37*
G36*
X769685D02*
X765748D01*
Y131890D01*
X769685D01*
Y127953D01*
D02*
G37*
G36*
X761811D02*
X757874D01*
Y131890D01*
X761811D01*
Y127953D01*
D02*
G37*
G36*
X753937D02*
X750000D01*
Y131890D01*
X753937D01*
Y127953D01*
D02*
G37*
G36*
X746063D02*
X742126D01*
Y131890D01*
X746063D01*
Y127953D01*
D02*
G37*
G36*
X738189D02*
X734252D01*
Y131890D01*
X738189D01*
Y127953D01*
D02*
G37*
G36*
X730315D02*
X726378D01*
Y131890D01*
X730315D01*
Y127953D01*
D02*
G37*
G36*
X722441D02*
X718504D01*
Y131890D01*
X722441D01*
Y127953D01*
D02*
G37*
G36*
X714567D02*
X710630D01*
Y131890D01*
X714567D01*
Y127953D01*
D02*
G37*
G36*
X338583Y31496D02*
X125984D01*
Y34899D01*
X126484Y35290D01*
X126969Y35194D01*
X127813Y35362D01*
X128445Y35784D01*
X129076Y35362D01*
X129921Y35194D01*
X130766Y35362D01*
X131398Y35784D01*
X132029Y35362D01*
X132874Y35194D01*
X133719Y35362D01*
X134435Y35840D01*
X134914Y36557D01*
X135082Y37402D01*
X134914Y38246D01*
X134492Y38878D01*
X134914Y39509D01*
X135082Y40354D01*
X134914Y41199D01*
X134435Y41916D01*
X133719Y42394D01*
X132874Y42562D01*
X132029Y42394D01*
X131398Y41972D01*
X130766Y42394D01*
X129921Y42562D01*
X129076Y42394D01*
X128445Y41972D01*
X127813Y42394D01*
X126969Y42562D01*
X126484Y42466D01*
X126080Y42781D01*
X126138Y43293D01*
X127012Y43408D01*
X127970Y43805D01*
X128792Y44436D01*
X129423Y45259D01*
X129820Y46216D01*
X129955Y47244D01*
X129820Y48272D01*
X129423Y49230D01*
X128792Y50052D01*
X127970Y50683D01*
X127012Y51080D01*
X125984Y51215D01*
Y128937D01*
X215177D01*
X215423Y128437D01*
X215065Y127970D01*
X214668Y127012D01*
X214533Y125984D01*
X214668Y124957D01*
X215065Y123999D01*
X215696Y123176D01*
X216518Y122545D01*
X217476Y122149D01*
X218504Y122013D01*
X219532Y122149D01*
X220489Y122545D01*
X221312Y123176D01*
X221943Y123999D01*
X222340Y124957D01*
X222475Y125984D01*
X222340Y127012D01*
X221943Y127970D01*
X221584Y128437D01*
X221831Y128937D01*
X309665D01*
X309912Y128437D01*
X309553Y127970D01*
X309156Y127012D01*
X309021Y125984D01*
X309156Y124957D01*
X309553Y123999D01*
X310184Y123176D01*
X311007Y122545D01*
X311964Y122149D01*
X312992Y122013D01*
X314020Y122149D01*
X314978Y122545D01*
X315800Y123176D01*
X316431Y123999D01*
X316828Y124957D01*
X316963Y125984D01*
X316828Y127012D01*
X316431Y127970D01*
X316073Y128437D01*
X316319Y128937D01*
X338583D01*
Y31496D01*
D02*
G37*
G36*
X903543Y120079D02*
X899606D01*
Y124016D01*
X903543D01*
Y120079D01*
D02*
G37*
G36*
X895669D02*
X891732D01*
Y124016D01*
X895669D01*
Y120079D01*
D02*
G37*
G36*
X887795D02*
X883858D01*
Y124016D01*
X887795D01*
Y120079D01*
D02*
G37*
G36*
X879921D02*
X875984D01*
Y124016D01*
X879921D01*
Y120079D01*
D02*
G37*
G36*
X793307Y120079D02*
X789370D01*
Y124016D01*
X793307D01*
Y120079D01*
D02*
G37*
G36*
X785433D02*
X781496D01*
Y124016D01*
X785433D01*
Y120079D01*
D02*
G37*
G36*
X777559D02*
X773622D01*
Y124016D01*
X777559D01*
Y120079D01*
D02*
G37*
G36*
X769685D02*
X765748D01*
Y124016D01*
X769685D01*
Y120079D01*
D02*
G37*
G36*
X761811D02*
X757874D01*
Y124016D01*
X761811D01*
Y120079D01*
D02*
G37*
G36*
X753937D02*
X750000D01*
Y124016D01*
X753937D01*
Y120079D01*
D02*
G37*
G36*
X746063D02*
X742126D01*
Y124016D01*
X746063D01*
Y120079D01*
D02*
G37*
G36*
X738189D02*
X734252D01*
Y124016D01*
X738189D01*
Y120079D01*
D02*
G37*
G36*
X730315D02*
X726378D01*
Y124016D01*
X730315D01*
Y120079D01*
D02*
G37*
G36*
X722441D02*
X718504D01*
Y124016D01*
X722441D01*
Y120079D01*
D02*
G37*
G36*
X714567D02*
X710630D01*
Y124016D01*
X714567D01*
Y120079D01*
D02*
G37*
G36*
X903543Y112205D02*
X899606D01*
Y116142D01*
X903543D01*
Y112205D01*
D02*
G37*
G36*
X895669D02*
X891732D01*
Y116142D01*
X895669D01*
Y112205D01*
D02*
G37*
G36*
X887795D02*
X883858D01*
Y116142D01*
X887795D01*
Y112205D01*
D02*
G37*
G36*
X879921D02*
X875984D01*
Y116142D01*
X879921D01*
Y112205D01*
D02*
G37*
G36*
X769685Y112205D02*
X765748D01*
Y116142D01*
X769685D01*
Y112205D01*
D02*
G37*
G36*
X746063D02*
X742126D01*
Y116142D01*
X746063D01*
Y112205D01*
D02*
G37*
G36*
X722441D02*
X718504D01*
Y116142D01*
X722441D01*
Y112205D01*
D02*
G37*
G36*
X998032Y104331D02*
X994094D01*
Y108268D01*
X998032D01*
Y104331D01*
D02*
G37*
G36*
X990158D02*
X986220D01*
Y108268D01*
X990158D01*
Y104331D01*
D02*
G37*
G36*
X982283D02*
X978347D01*
Y108268D01*
X982283D01*
Y104331D01*
D02*
G37*
G36*
X974409D02*
X970472D01*
Y108268D01*
X974409D01*
Y104331D01*
D02*
G37*
G36*
X903543Y104331D02*
X899606D01*
Y108268D01*
X903543D01*
Y104331D01*
D02*
G37*
G36*
X895669D02*
X891732D01*
Y108268D01*
X895669D01*
Y104331D01*
D02*
G37*
G36*
X887795D02*
X883858D01*
Y108268D01*
X887795D01*
Y104331D01*
D02*
G37*
G36*
X879921D02*
X875984D01*
Y108268D01*
X879921D01*
Y104331D01*
D02*
G37*
G36*
X998032Y96457D02*
X994094D01*
Y100394D01*
X998032D01*
Y96457D01*
D02*
G37*
G36*
X990158D02*
X986220D01*
Y100394D01*
X990158D01*
Y96457D01*
D02*
G37*
G36*
X982283D02*
X978347D01*
Y100394D01*
X982283D01*
Y96457D01*
D02*
G37*
G36*
X974409D02*
X970472D01*
Y100394D01*
X974409D01*
Y96457D01*
D02*
G37*
G36*
X903543D02*
X899606D01*
Y100394D01*
X903543D01*
Y96457D01*
D02*
G37*
G36*
X895669D02*
X891732D01*
Y100394D01*
X895669D01*
Y96457D01*
D02*
G37*
G36*
X887795D02*
X883858D01*
Y100394D01*
X887795D01*
Y96457D01*
D02*
G37*
G36*
X879921D02*
X875984D01*
Y100394D01*
X879921D01*
Y96457D01*
D02*
G37*
G36*
X998032Y88583D02*
X994094D01*
Y92520D01*
X998032D01*
Y88583D01*
D02*
G37*
G36*
X990158D02*
X986220D01*
Y92520D01*
X990158D01*
Y88583D01*
D02*
G37*
G36*
X982283D02*
X978347D01*
Y92520D01*
X982283D01*
Y88583D01*
D02*
G37*
G36*
X974409D02*
X970472D01*
Y92520D01*
X974409D01*
Y88583D01*
D02*
G37*
G36*
X903543D02*
X899606D01*
Y92520D01*
X903543D01*
Y88583D01*
D02*
G37*
G36*
X895669D02*
X891732D01*
Y92520D01*
X895669D01*
Y88583D01*
D02*
G37*
G36*
X887795D02*
X883858D01*
Y92520D01*
X887795D01*
Y88583D01*
D02*
G37*
G36*
X482283Y86614D02*
X478346D01*
Y90551D01*
X482283D01*
Y86614D01*
D02*
G37*
G36*
X474409D02*
X470472D01*
Y90551D01*
X474409D01*
Y86614D01*
D02*
G37*
G36*
X466535D02*
X462598D01*
Y90551D01*
X466535D01*
Y86614D01*
D02*
G37*
G36*
X458661D02*
X454724D01*
Y90551D01*
X458661D01*
Y86614D01*
D02*
G37*
G36*
X1573800Y133858D02*
Y46260D01*
X1530512Y46260D01*
X1530512Y75467D01*
X1535906D01*
X1535982Y75352D01*
X1536633Y74917D01*
X1537402Y74765D01*
X1543307D01*
X1544075Y74917D01*
X1544726Y75352D01*
X1545161Y76004D01*
X1545314Y76772D01*
X1545161Y77540D01*
X1544726Y78191D01*
X1544075Y78626D01*
X1543307Y78779D01*
X1537402D01*
X1536633Y78626D01*
X1535982Y78191D01*
X1535906Y78076D01*
X1530512D01*
Y83341D01*
X1535906D01*
X1535982Y83227D01*
X1536633Y82791D01*
X1537402Y82639D01*
X1543307D01*
X1544075Y82791D01*
X1544726Y83227D01*
X1545161Y83878D01*
X1545314Y84646D01*
X1545161Y85414D01*
X1544726Y86065D01*
X1544075Y86500D01*
X1543307Y86653D01*
X1537402D01*
X1536633Y86500D01*
X1535982Y86065D01*
X1535906Y85950D01*
X1530512D01*
X1530512Y133858D01*
X1573800Y133858D01*
D02*
G37*
G36*
X903543Y80709D02*
X899606D01*
Y84646D01*
X903543D01*
Y80709D01*
D02*
G37*
G36*
X895669D02*
X891732D01*
Y84646D01*
X895669D01*
Y80709D01*
D02*
G37*
G36*
X887795D02*
X883858D01*
Y84646D01*
X887795D01*
Y80709D01*
D02*
G37*
G36*
X879921D02*
X875984D01*
Y84646D01*
X879921D01*
Y80709D01*
D02*
G37*
G36*
X482283Y78740D02*
X478346D01*
Y82677D01*
X482283D01*
Y78740D01*
D02*
G37*
G36*
X474409D02*
X470472D01*
Y82677D01*
X474409D01*
Y78740D01*
D02*
G37*
G36*
X466535D02*
X462598D01*
Y82677D01*
X466535D01*
Y78740D01*
D02*
G37*
G36*
X458661D02*
X454724D01*
Y82677D01*
X458661D01*
Y78740D01*
D02*
G37*
G36*
X751968Y70866D02*
X748032D01*
Y74803D01*
X751968D01*
Y70866D01*
D02*
G37*
G36*
X744095D02*
X740158D01*
Y74803D01*
X744095D01*
Y70866D01*
D02*
G37*
G36*
X736221D02*
X732283D01*
Y74803D01*
X736221D01*
Y70866D01*
D02*
G37*
G36*
X728346D02*
X724409D01*
Y74803D01*
X728346D01*
Y70866D01*
D02*
G37*
G36*
X720472D02*
X716535D01*
Y74803D01*
X720472D01*
Y70866D01*
D02*
G37*
G36*
X712598D02*
X708661D01*
Y74803D01*
X712598D01*
Y70866D01*
D02*
G37*
G36*
X704724D02*
X700787D01*
Y74803D01*
X704724D01*
Y70866D01*
D02*
G37*
G36*
X696850D02*
X692913D01*
Y74803D01*
X696850D01*
Y70866D01*
D02*
G37*
G36*
X513779D02*
X509842D01*
Y74803D01*
X513779D01*
Y70866D01*
D02*
G37*
G36*
X505905D02*
X501968D01*
Y74803D01*
X505905D01*
Y70866D01*
D02*
G37*
G36*
X498032D02*
X494095D01*
Y74803D01*
X498032D01*
Y70866D01*
D02*
G37*
G36*
X490158D02*
X486221D01*
Y74803D01*
X490158D01*
Y70866D01*
D02*
G37*
G36*
X482283D02*
X478346D01*
Y74803D01*
X482283D01*
Y70866D01*
D02*
G37*
G36*
X474409D02*
X470472D01*
Y74803D01*
X474409D01*
Y70866D01*
D02*
G37*
G36*
X466535D02*
X462598D01*
Y74803D01*
X466535D01*
Y70866D01*
D02*
G37*
G36*
X458661D02*
X454724D01*
Y74803D01*
X458661D01*
Y70866D01*
D02*
G37*
G36*
X450787D02*
X446850D01*
Y74803D01*
X450787D01*
Y70866D01*
D02*
G37*
G36*
X442913D02*
X438976D01*
Y74803D01*
X442913D01*
Y70866D01*
D02*
G37*
G36*
X435039D02*
X431102D01*
Y74803D01*
X435039D01*
Y70866D01*
D02*
G37*
G36*
X427165D02*
X423228D01*
Y74803D01*
X427165D01*
Y70866D01*
D02*
G37*
G36*
X482283Y62992D02*
X478346D01*
Y66929D01*
X482283D01*
Y62992D01*
D02*
G37*
G36*
X474409D02*
X470472D01*
Y66929D01*
X474409D01*
Y62992D01*
D02*
G37*
G36*
X466535D02*
X462598D01*
Y66929D01*
X466535D01*
Y62992D01*
D02*
G37*
G36*
X458661D02*
X454724D01*
Y66929D01*
X458661D01*
Y62992D01*
D02*
G37*
G36*
X751968Y62992D02*
X748032D01*
Y66929D01*
X751968D01*
Y62992D01*
D02*
G37*
G36*
X744095D02*
X740158D01*
Y66929D01*
X744095D01*
Y62992D01*
D02*
G37*
G36*
X736221D02*
X732283D01*
Y66929D01*
X736221D01*
Y62992D01*
D02*
G37*
G36*
X728346D02*
X724409D01*
Y66929D01*
X728346D01*
Y62992D01*
D02*
G37*
G36*
X720472D02*
X716535D01*
Y66929D01*
X720472D01*
Y62992D01*
D02*
G37*
G36*
X712598D02*
X708661D01*
Y66929D01*
X712598D01*
Y62992D01*
D02*
G37*
G36*
X704724D02*
X700787D01*
Y66929D01*
X704724D01*
Y62992D01*
D02*
G37*
G36*
X696850D02*
X692913D01*
Y66929D01*
X696850D01*
Y62992D01*
D02*
G37*
G36*
X513779D02*
X509842D01*
Y66929D01*
X513779D01*
Y62992D01*
D02*
G37*
G36*
X505905D02*
X501968D01*
Y66929D01*
X505905D01*
Y62992D01*
D02*
G37*
G36*
X498032D02*
X494095D01*
Y66929D01*
X498032D01*
Y62992D01*
D02*
G37*
G36*
X490158D02*
X486221D01*
Y66929D01*
X490158D01*
Y62992D01*
D02*
G37*
G36*
X450787D02*
X446850D01*
Y66929D01*
X450787D01*
Y62992D01*
D02*
G37*
G36*
X442913D02*
X438976D01*
Y66929D01*
X442913D01*
Y62992D01*
D02*
G37*
G36*
X435039D02*
X431102D01*
Y66929D01*
X435039D01*
Y62992D01*
D02*
G37*
G36*
X427165D02*
X423228D01*
Y66929D01*
X427165D01*
Y62992D01*
D02*
G37*
G36*
X482283Y55118D02*
X478346D01*
Y59055D01*
X482283D01*
Y55118D01*
D02*
G37*
G36*
X474409D02*
X470472D01*
Y59055D01*
X474409D01*
Y55118D01*
D02*
G37*
G36*
X466535D02*
X462598D01*
Y59055D01*
X466535D01*
Y55118D01*
D02*
G37*
G36*
X458661D02*
X454724D01*
Y59055D01*
X458661D01*
Y55118D01*
D02*
G37*
G36*
X751968Y55118D02*
X748032D01*
Y59055D01*
X751968D01*
Y55118D01*
D02*
G37*
G36*
X744095D02*
X740158D01*
Y59055D01*
X744095D01*
Y55118D01*
D02*
G37*
G36*
X736221D02*
X732283D01*
Y59055D01*
X736221D01*
Y55118D01*
D02*
G37*
G36*
X728346D02*
X724409D01*
Y59055D01*
X728346D01*
Y55118D01*
D02*
G37*
G36*
X720472D02*
X716535D01*
Y59055D01*
X720472D01*
Y55118D01*
D02*
G37*
G36*
X712598D02*
X708661D01*
Y59055D01*
X712598D01*
Y55118D01*
D02*
G37*
G36*
X704724D02*
X700787D01*
Y59055D01*
X704724D01*
Y55118D01*
D02*
G37*
G36*
X696850D02*
X692913D01*
Y59055D01*
X696850D01*
Y55118D01*
D02*
G37*
G36*
X513779D02*
X509842D01*
Y59055D01*
X513779D01*
Y55118D01*
D02*
G37*
G36*
X505905D02*
X501968D01*
Y59055D01*
X505905D01*
Y55118D01*
D02*
G37*
G36*
X498032D02*
X494095D01*
Y59055D01*
X498032D01*
Y55118D01*
D02*
G37*
G36*
X490158D02*
X486221D01*
Y59055D01*
X490158D01*
Y55118D01*
D02*
G37*
G36*
X450787D02*
X446850D01*
Y59055D01*
X450787D01*
Y55118D01*
D02*
G37*
G36*
X442913D02*
X438976D01*
Y59055D01*
X442913D01*
Y55118D01*
D02*
G37*
G36*
X435039D02*
X431102D01*
Y59055D01*
X435039D01*
Y55118D01*
D02*
G37*
G36*
X427165D02*
X423228D01*
Y59055D01*
X427165D01*
Y55118D01*
D02*
G37*
G36*
X482283Y47244D02*
X478346D01*
Y51181D01*
X482283D01*
Y47244D01*
D02*
G37*
G36*
X474409D02*
X470472D01*
Y51181D01*
X474409D01*
Y47244D01*
D02*
G37*
G36*
X466535D02*
X462598D01*
Y51181D01*
X466535D01*
Y47244D01*
D02*
G37*
G36*
X458661D02*
X454724D01*
Y51181D01*
X458661D01*
Y47244D01*
D02*
G37*
G36*
X450787Y47244D02*
X446850D01*
Y51181D01*
X450787D01*
Y47244D01*
D02*
G37*
G36*
X442913D02*
X438976D01*
Y51181D01*
X442913D01*
Y47244D01*
D02*
G37*
G36*
X435039D02*
X431102D01*
Y51181D01*
X435039D01*
Y47244D01*
D02*
G37*
G36*
X427165D02*
X423228D01*
Y51181D01*
X427165D01*
Y47244D01*
D02*
G37*
G36*
X482283Y39370D02*
X478346D01*
Y43307D01*
X482283D01*
Y39370D01*
D02*
G37*
G36*
X474409D02*
X470472D01*
Y43307D01*
X474409D01*
Y39370D01*
D02*
G37*
G36*
X466535D02*
X462598D01*
Y43307D01*
X466535D01*
Y39370D01*
D02*
G37*
G36*
X458661D02*
X454724D01*
Y43307D01*
X458661D01*
Y39370D01*
D02*
G37*
G36*
X450787Y39370D02*
X446850D01*
Y43307D01*
X450787D01*
Y39370D01*
D02*
G37*
G36*
X442913D02*
X438976D01*
Y43307D01*
X442913D01*
Y39370D01*
D02*
G37*
G36*
X435039D02*
X431102D01*
Y43307D01*
X435039D01*
Y39370D01*
D02*
G37*
G36*
X427165D02*
X423228D01*
Y43307D01*
X427165D01*
Y39370D01*
D02*
G37*
G36*
X549213Y37402D02*
X545276D01*
Y41339D01*
X549213D01*
Y37402D01*
D02*
G37*
G36*
X541339D02*
X537402D01*
Y41339D01*
X541339D01*
Y37402D01*
D02*
G37*
G36*
X533465D02*
X529528D01*
Y41339D01*
X533465D01*
Y37402D01*
D02*
G37*
G36*
X525591D02*
X521654D01*
Y41339D01*
X525591D01*
Y37402D01*
D02*
G37*
G36*
X996063Y33465D02*
X992126D01*
Y37402D01*
X996063D01*
Y33465D01*
D02*
G37*
G36*
X988189D02*
X984252D01*
Y37402D01*
X988189D01*
Y33465D01*
D02*
G37*
G36*
X980315D02*
X976378D01*
Y37402D01*
X980315D01*
Y33465D01*
D02*
G37*
G36*
X972441D02*
X968504D01*
Y37402D01*
X972441D01*
Y33465D01*
D02*
G37*
G36*
X964567D02*
X960630D01*
Y37402D01*
X964567D01*
Y33465D01*
D02*
G37*
G36*
X956693D02*
X952756D01*
Y37402D01*
X956693D01*
Y33465D01*
D02*
G37*
G36*
X948819D02*
X944882D01*
Y37402D01*
X948819D01*
Y33465D01*
D02*
G37*
G36*
X940945D02*
X937008D01*
Y37402D01*
X940945D01*
Y33465D01*
D02*
G37*
G36*
X933071D02*
X929134D01*
Y37402D01*
X933071D01*
Y33465D01*
D02*
G37*
G36*
X925197D02*
X921260D01*
Y37402D01*
X925197D01*
Y33465D01*
D02*
G37*
G36*
X917323D02*
X913386D01*
Y37402D01*
X917323D01*
Y33465D01*
D02*
G37*
G36*
X909449D02*
X905512D01*
Y37402D01*
X909449D01*
Y33465D01*
D02*
G37*
G36*
X901575D02*
X897638D01*
Y37402D01*
X901575D01*
Y33465D01*
D02*
G37*
G36*
X893701D02*
X889764D01*
Y37402D01*
X893701D01*
Y33465D01*
D02*
G37*
G36*
X885827D02*
X881890D01*
Y37402D01*
X885827D01*
Y33465D01*
D02*
G37*
G36*
X877953D02*
X874016D01*
Y37402D01*
X877953D01*
Y33465D01*
D02*
G37*
G36*
X870079D02*
X866142D01*
Y37402D01*
X870079D01*
Y33465D01*
D02*
G37*
G36*
X862205D02*
X858268D01*
Y37402D01*
X862205D01*
Y33465D01*
D02*
G37*
G36*
X854331D02*
X850394D01*
Y37402D01*
X854331D01*
Y33465D01*
D02*
G37*
G36*
X846457D02*
X842520D01*
Y37402D01*
X846457D01*
Y33465D01*
D02*
G37*
G36*
X838583D02*
X834646D01*
Y37402D01*
X838583D01*
Y33465D01*
D02*
G37*
G36*
X830709D02*
X826772D01*
Y37402D01*
X830709D01*
Y33465D01*
D02*
G37*
G36*
X822835D02*
X818898D01*
Y37402D01*
X822835D01*
Y33465D01*
D02*
G37*
G36*
X814961D02*
X811024D01*
Y37402D01*
X814961D01*
Y33465D01*
D02*
G37*
G36*
X482283Y31496D02*
X478346D01*
Y35433D01*
X482283D01*
Y31496D01*
D02*
G37*
G36*
X474409D02*
X470472D01*
Y35433D01*
X474409D01*
Y31496D01*
D02*
G37*
G36*
X466535D02*
X462598D01*
Y35433D01*
X466535D01*
Y31496D01*
D02*
G37*
G36*
X458661D02*
X454724D01*
Y35433D01*
X458661D01*
Y31496D01*
D02*
G37*
G36*
X450787Y31496D02*
X446850D01*
Y35433D01*
X450787D01*
Y31496D01*
D02*
G37*
G36*
X442913D02*
X438976D01*
Y35433D01*
X442913D01*
Y31496D01*
D02*
G37*
G36*
X435039D02*
X431102D01*
Y35433D01*
X435039D01*
Y31496D01*
D02*
G37*
G36*
X427165D02*
X423228D01*
Y35433D01*
X427165D01*
Y31496D01*
D02*
G37*
G36*
X549213Y29528D02*
X545276D01*
Y33465D01*
X549213D01*
Y29528D01*
D02*
G37*
G36*
X541339D02*
X537402D01*
Y33465D01*
X541339D01*
Y29528D01*
D02*
G37*
G36*
X533465D02*
X529528D01*
Y33465D01*
X533465D01*
Y29528D01*
D02*
G37*
G36*
X525591D02*
X521654D01*
Y33465D01*
X525591D01*
Y29528D01*
D02*
G37*
G36*
X517717D02*
X513779D01*
Y33465D01*
X517717D01*
Y29528D01*
D02*
G37*
G36*
X996063Y25591D02*
X992126D01*
Y29528D01*
X996063D01*
Y25591D01*
D02*
G37*
G36*
X988189D02*
X984252D01*
Y29528D01*
X988189D01*
Y25591D01*
D02*
G37*
G36*
X980315D02*
X976378D01*
Y29528D01*
X980315D01*
Y25591D01*
D02*
G37*
G36*
X972441D02*
X968504D01*
Y29528D01*
X972441D01*
Y25591D01*
D02*
G37*
G36*
X964567D02*
X960630D01*
Y29528D01*
X964567D01*
Y25591D01*
D02*
G37*
G36*
X956693D02*
X952756D01*
Y29528D01*
X956693D01*
Y25591D01*
D02*
G37*
G36*
X948819D02*
X944882D01*
Y29528D01*
X948819D01*
Y25591D01*
D02*
G37*
G36*
X940945D02*
X937008D01*
Y29528D01*
X940945D01*
Y25591D01*
D02*
G37*
G36*
X933071D02*
X929134D01*
Y29528D01*
X933071D01*
Y25591D01*
D02*
G37*
G36*
X925197D02*
X921260D01*
Y29528D01*
X925197D01*
Y25591D01*
D02*
G37*
G36*
X917323D02*
X913386D01*
Y29528D01*
X917323D01*
Y25591D01*
D02*
G37*
G36*
X909449D02*
X905512D01*
Y29528D01*
X909449D01*
Y25591D01*
D02*
G37*
G36*
X901575D02*
X897638D01*
Y29528D01*
X901575D01*
Y25591D01*
D02*
G37*
G36*
X893701D02*
X889764D01*
Y29528D01*
X893701D01*
Y25591D01*
D02*
G37*
G36*
X885827D02*
X881890D01*
Y29528D01*
X885827D01*
Y25591D01*
D02*
G37*
G36*
X877953D02*
X874016D01*
Y29528D01*
X877953D01*
Y25591D01*
D02*
G37*
G36*
X870079D02*
X866142D01*
Y29528D01*
X870079D01*
Y25591D01*
D02*
G37*
G36*
X862205D02*
X858268D01*
Y29528D01*
X862205D01*
Y25591D01*
D02*
G37*
G36*
X854331D02*
X850394D01*
Y29528D01*
X854331D01*
Y25591D01*
D02*
G37*
G36*
X846457D02*
X842520D01*
Y29528D01*
X846457D01*
Y25591D01*
D02*
G37*
G36*
X838583D02*
X834646D01*
Y29528D01*
X838583D01*
Y25591D01*
D02*
G37*
G36*
X830709D02*
X826772D01*
Y29528D01*
X830709D01*
Y25591D01*
D02*
G37*
G36*
X822835D02*
X818898D01*
Y29528D01*
X822835D01*
Y25591D01*
D02*
G37*
G36*
X814961D02*
X811024D01*
Y29528D01*
X814961D01*
Y25591D01*
D02*
G37*
G36*
X751968Y23622D02*
X748032D01*
Y27559D01*
X751968D01*
Y23622D01*
D02*
G37*
G36*
X744095D02*
X740158D01*
Y27559D01*
X744095D01*
Y23622D01*
D02*
G37*
G36*
X736221D02*
X732283D01*
Y27559D01*
X736221D01*
Y23622D01*
D02*
G37*
G36*
X728346D02*
X724409D01*
Y27559D01*
X728346D01*
Y23622D01*
D02*
G37*
G36*
X720472D02*
X716535D01*
Y27559D01*
X720472D01*
Y23622D01*
D02*
G37*
G36*
X712598D02*
X708661D01*
Y27559D01*
X712598D01*
Y23622D01*
D02*
G37*
G36*
X704724D02*
X700787D01*
Y27559D01*
X704724D01*
Y23622D01*
D02*
G37*
G36*
X696850D02*
X692913D01*
Y27559D01*
X696850D01*
Y23622D01*
D02*
G37*
G36*
X688976D02*
X685039D01*
Y27559D01*
X688976D01*
Y23622D01*
D02*
G37*
G36*
X681102D02*
X677165D01*
Y27559D01*
X681102D01*
Y23622D01*
D02*
G37*
G36*
X673228D02*
X669291D01*
Y27559D01*
X673228D01*
Y23622D01*
D02*
G37*
G36*
X665354D02*
X661417D01*
Y27559D01*
X665354D01*
Y23622D01*
D02*
G37*
G36*
X549213Y21654D02*
X545276D01*
Y25591D01*
X549213D01*
Y21654D01*
D02*
G37*
G36*
X541339D02*
X537402D01*
Y25591D01*
X541339D01*
Y21654D01*
D02*
G37*
G36*
X533465D02*
X529528D01*
Y25591D01*
X533465D01*
Y21654D01*
D02*
G37*
G36*
X525591D02*
X521654D01*
Y25591D01*
X525591D01*
Y21654D01*
D02*
G37*
G36*
X517717D02*
X513779D01*
Y25591D01*
X517717D01*
Y21654D01*
D02*
G37*
G36*
X509842D02*
X505905D01*
Y25591D01*
X509842D01*
Y21654D01*
D02*
G37*
G36*
X996063Y17717D02*
X992126D01*
Y21654D01*
X996063D01*
Y17717D01*
D02*
G37*
G36*
X988189D02*
X984252D01*
Y21654D01*
X988189D01*
Y17717D01*
D02*
G37*
G36*
X980315D02*
X976378D01*
Y21654D01*
X980315D01*
Y17717D01*
D02*
G37*
G36*
X972441D02*
X968504D01*
Y21654D01*
X972441D01*
Y17717D01*
D02*
G37*
G36*
X964567D02*
X960630D01*
Y21654D01*
X964567D01*
Y17717D01*
D02*
G37*
G36*
X956693D02*
X952756D01*
Y21654D01*
X956693D01*
Y17717D01*
D02*
G37*
G36*
X948819D02*
X944882D01*
Y21654D01*
X948819D01*
Y17717D01*
D02*
G37*
G36*
X940945D02*
X937008D01*
Y21654D01*
X940945D01*
Y17717D01*
D02*
G37*
G36*
X933071D02*
X929134D01*
Y21654D01*
X933071D01*
Y17717D01*
D02*
G37*
G36*
X925197D02*
X921260D01*
Y21654D01*
X925197D01*
Y17717D01*
D02*
G37*
G36*
X917323D02*
X913386D01*
Y21654D01*
X917323D01*
Y17717D01*
D02*
G37*
G36*
X909449D02*
X905512D01*
Y21654D01*
X909449D01*
Y17717D01*
D02*
G37*
G36*
X901575D02*
X897638D01*
Y21654D01*
X901575D01*
Y17717D01*
D02*
G37*
G36*
X893701D02*
X889764D01*
Y21654D01*
X893701D01*
Y17717D01*
D02*
G37*
G36*
X885827D02*
X881890D01*
Y21654D01*
X885827D01*
Y17717D01*
D02*
G37*
G36*
X877953D02*
X874016D01*
Y21654D01*
X877953D01*
Y17717D01*
D02*
G37*
G36*
X870079D02*
X866142D01*
Y21654D01*
X870079D01*
Y17717D01*
D02*
G37*
G36*
X862205D02*
X858268D01*
Y21654D01*
X862205D01*
Y17717D01*
D02*
G37*
G36*
X854331D02*
X850394D01*
Y21654D01*
X854331D01*
Y17717D01*
D02*
G37*
G36*
X846457D02*
X842520D01*
Y21654D01*
X846457D01*
Y17717D01*
D02*
G37*
G36*
X838583D02*
X834646D01*
Y21654D01*
X838583D01*
Y17717D01*
D02*
G37*
G36*
X830709D02*
X826772D01*
Y21654D01*
X830709D01*
Y17717D01*
D02*
G37*
G36*
X822835D02*
X818898D01*
Y21654D01*
X822835D01*
Y17717D01*
D02*
G37*
G36*
X814961D02*
X811024D01*
Y21654D01*
X814961D01*
Y17717D01*
D02*
G37*
G36*
X1451772Y16732D02*
X1022638Y16732D01*
X1022638Y91659D01*
X1030388Y99409D01*
X1451772Y99410D01*
X1451772Y16732D01*
D02*
G37*
G36*
X751968Y15748D02*
X748032D01*
Y19685D01*
X751968D01*
Y15748D01*
D02*
G37*
G36*
X744095D02*
X740158D01*
Y19685D01*
X744095D01*
Y15748D01*
D02*
G37*
G36*
X736221D02*
X732283D01*
Y19685D01*
X736221D01*
Y15748D01*
D02*
G37*
G36*
X728346D02*
X724409D01*
Y19685D01*
X728346D01*
Y15748D01*
D02*
G37*
G36*
X720472D02*
X716535D01*
Y19685D01*
X720472D01*
Y15748D01*
D02*
G37*
G36*
X712598D02*
X708661D01*
Y19685D01*
X712598D01*
Y15748D01*
D02*
G37*
G36*
X704724D02*
X700787D01*
Y19685D01*
X704724D01*
Y15748D01*
D02*
G37*
G36*
X696850D02*
X692913D01*
Y19685D01*
X696850D01*
Y15748D01*
D02*
G37*
G36*
X688976D02*
X685039D01*
Y19685D01*
X688976D01*
Y15748D01*
D02*
G37*
G36*
X681102D02*
X677165D01*
Y19685D01*
X681102D01*
Y15748D01*
D02*
G37*
G36*
X673228D02*
X669291D01*
Y19685D01*
X673228D01*
Y15748D01*
D02*
G37*
G36*
X665354D02*
X661417D01*
Y19685D01*
X665354D01*
Y15748D01*
D02*
G37*
G36*
X549213Y13780D02*
X545276D01*
Y17717D01*
X549213D01*
Y13780D01*
D02*
G37*
G36*
X541339D02*
X537402D01*
Y17717D01*
X541339D01*
Y13780D01*
D02*
G37*
G36*
X533465D02*
X529528D01*
Y17717D01*
X533465D01*
Y13780D01*
D02*
G37*
G36*
X525591D02*
X521654D01*
Y17717D01*
X525591D01*
Y13780D01*
D02*
G37*
G36*
X517717D02*
X513779D01*
Y17717D01*
X517717D01*
Y13780D01*
D02*
G37*
G36*
X509842D02*
X505905D01*
Y17717D01*
X509842D01*
Y13780D01*
D02*
G37*
G36*
X996063Y9843D02*
X992126D01*
Y13780D01*
X996063D01*
Y9843D01*
D02*
G37*
G36*
X988189D02*
X984252D01*
Y13780D01*
X988189D01*
Y9843D01*
D02*
G37*
G36*
X980315D02*
X976378D01*
Y13780D01*
X980315D01*
Y9843D01*
D02*
G37*
G36*
X972441D02*
X968504D01*
Y13780D01*
X972441D01*
Y9843D01*
D02*
G37*
G36*
X964567D02*
X960630D01*
Y13780D01*
X964567D01*
Y9843D01*
D02*
G37*
G36*
X956693D02*
X952756D01*
Y13780D01*
X956693D01*
Y9843D01*
D02*
G37*
G36*
X948819D02*
X944882D01*
Y13780D01*
X948819D01*
Y9843D01*
D02*
G37*
G36*
X940945D02*
X937008D01*
Y13780D01*
X940945D01*
Y9843D01*
D02*
G37*
G36*
X933071D02*
X929134D01*
Y13780D01*
X933071D01*
Y9843D01*
D02*
G37*
G36*
X925197D02*
X921260D01*
Y13780D01*
X925197D01*
Y9843D01*
D02*
G37*
G36*
X917323D02*
X913386D01*
Y13780D01*
X917323D01*
Y9843D01*
D02*
G37*
G36*
X909449D02*
X905512D01*
Y13780D01*
X909449D01*
Y9843D01*
D02*
G37*
G36*
X901575D02*
X897638D01*
Y13780D01*
X901575D01*
Y9843D01*
D02*
G37*
G36*
X893701D02*
X889764D01*
Y13780D01*
X893701D01*
Y9843D01*
D02*
G37*
G36*
X885827D02*
X881890D01*
Y13780D01*
X885827D01*
Y9843D01*
D02*
G37*
G36*
X877953D02*
X874016D01*
Y13780D01*
X877953D01*
Y9843D01*
D02*
G37*
G36*
X870079D02*
X866142D01*
Y13780D01*
X870079D01*
Y9843D01*
D02*
G37*
G36*
X862205D02*
X858268D01*
Y13780D01*
X862205D01*
Y9843D01*
D02*
G37*
G36*
X854331D02*
X850394D01*
Y13780D01*
X854331D01*
Y9843D01*
D02*
G37*
G36*
X846457D02*
X842520D01*
Y13780D01*
X846457D01*
Y9843D01*
D02*
G37*
G36*
X838583D02*
X834646D01*
Y13780D01*
X838583D01*
Y9843D01*
D02*
G37*
G36*
X830709D02*
X826772D01*
Y13780D01*
X830709D01*
Y9843D01*
D02*
G37*
G36*
X822835D02*
X818898D01*
Y13780D01*
X822835D01*
Y9843D01*
D02*
G37*
G36*
X814961D02*
X811024D01*
Y13780D01*
X814961D01*
Y9843D01*
D02*
G37*
G36*
X751968Y7874D02*
X748032D01*
Y11811D01*
X751968D01*
Y7874D01*
D02*
G37*
G36*
X744095D02*
X740158D01*
Y11811D01*
X744095D01*
Y7874D01*
D02*
G37*
G36*
X736221D02*
X732283D01*
Y11811D01*
X736221D01*
Y7874D01*
D02*
G37*
G36*
X728346D02*
X724409D01*
Y11811D01*
X728346D01*
Y7874D01*
D02*
G37*
G36*
X720472D02*
X716535D01*
Y11811D01*
X720472D01*
Y7874D01*
D02*
G37*
G36*
X712598D02*
X708661D01*
Y11811D01*
X712598D01*
Y7874D01*
D02*
G37*
G36*
X704724D02*
X700787D01*
Y11811D01*
X704724D01*
Y7874D01*
D02*
G37*
G36*
X696850D02*
X692913D01*
Y11811D01*
X696850D01*
Y7874D01*
D02*
G37*
G36*
X688976D02*
X685039D01*
Y11811D01*
X688976D01*
Y7874D01*
D02*
G37*
G36*
X681102D02*
X677165D01*
Y11811D01*
X681102D01*
Y7874D01*
D02*
G37*
G36*
X673228D02*
X669291D01*
Y11811D01*
X673228D01*
Y7874D01*
D02*
G37*
G36*
X665354D02*
X661417D01*
Y11811D01*
X665354D01*
Y7874D01*
D02*
G37*
%LPC*%
G36*
X194685Y264988D02*
X193863Y264880D01*
X193097Y264562D01*
X192439Y264057D01*
X191934Y263399D01*
X191616Y262633D01*
X191508Y261811D01*
X191616Y260989D01*
X191934Y260223D01*
X192439Y259565D01*
X193097Y259060D01*
X193863Y258742D01*
X194685Y258634D01*
X195507Y258742D01*
X196273Y259060D01*
X196931Y259565D01*
X197436Y260223D01*
X197754Y260989D01*
X197862Y261811D01*
X197754Y262633D01*
X197436Y263399D01*
X196931Y264057D01*
X196273Y264562D01*
X195507Y264880D01*
X194685Y264988D01*
D02*
G37*
G36*
X176181D02*
X175359Y264880D01*
X174593Y264562D01*
X173935Y264057D01*
X173430Y263399D01*
X173113Y262633D01*
X173004Y261811D01*
X173113Y260989D01*
X173430Y260223D01*
X173935Y259565D01*
X174593Y259060D01*
X175359Y258742D01*
X176181Y258634D01*
X177003Y258742D01*
X177769Y259060D01*
X178427Y259565D01*
X178932Y260223D01*
X179250Y260989D01*
X179358Y261811D01*
X179250Y262633D01*
X178932Y263399D01*
X178427Y264057D01*
X177769Y264562D01*
X177003Y264880D01*
X176181Y264988D01*
D02*
G37*
G36*
X137795Y122081D02*
X136767Y121946D01*
X135810Y121549D01*
X134987Y120918D01*
X134356Y120096D01*
X133960Y119138D01*
X133824Y118110D01*
X133960Y117083D01*
X134356Y116125D01*
X134987Y115302D01*
X135810Y114671D01*
X136767Y114275D01*
X137795Y114139D01*
X138823Y114275D01*
X139781Y114671D01*
X140603Y115302D01*
X141234Y116125D01*
X141631Y117083D01*
X141766Y118110D01*
X141631Y119138D01*
X141234Y120096D01*
X140603Y120918D01*
X139781Y121549D01*
X138823Y121946D01*
X137795Y122081D01*
D02*
G37*
G36*
X313976Y109491D02*
X313131Y109323D01*
X312415Y108845D01*
X311937Y108128D01*
X311769Y107283D01*
X311937Y106439D01*
X312359Y105807D01*
X311937Y105176D01*
X311769Y104331D01*
X311937Y103486D01*
X312415Y102770D01*
X313131Y102291D01*
X313976Y102123D01*
X314821Y102291D01*
X315538Y102770D01*
X316016Y103486D01*
X316184Y104331D01*
X316016Y105176D01*
X315594Y105807D01*
X316016Y106439D01*
X316184Y107283D01*
X316016Y108128D01*
X315538Y108845D01*
X314821Y109323D01*
X313976Y109491D01*
D02*
G37*
G36*
X310039Y98664D02*
X309194Y98496D01*
X308563Y98075D01*
X307931Y98496D01*
X307087Y98664D01*
X306242Y98496D01*
X305525Y98018D01*
X305047Y97302D01*
X304879Y96457D01*
X305047Y95612D01*
X305469Y94980D01*
X305047Y94349D01*
X304879Y93504D01*
X305047Y92659D01*
X305525Y91943D01*
X306242Y91464D01*
X307087Y91296D01*
X307931Y91464D01*
X308563Y91886D01*
X309194Y91464D01*
X310039Y91296D01*
X310884Y91464D01*
X311600Y91943D01*
X312079Y92659D01*
X312247Y93504D01*
X312079Y94349D01*
X311657Y94980D01*
X312079Y95612D01*
X312247Y96457D01*
X312079Y97302D01*
X311600Y98018D01*
X310884Y98496D01*
X310039Y98664D01*
D02*
G37*
G36*
X231299Y102396D02*
X230272Y102261D01*
X229314Y101864D01*
X228491Y101233D01*
X227860Y100411D01*
X227464Y99453D01*
X227328Y98425D01*
X227464Y97397D01*
X227860Y96440D01*
X228491Y95617D01*
X229314Y94986D01*
X230272Y94590D01*
X231299Y94454D01*
X232327Y94590D01*
X233285Y94986D01*
X234107Y95617D01*
X234738Y96440D01*
X235135Y97397D01*
X235270Y98425D01*
X235135Y99453D01*
X234738Y100411D01*
X234107Y101233D01*
X233285Y101864D01*
X232327Y102261D01*
X231299Y102396D01*
D02*
G37*
G36*
Y87632D02*
X230272Y87497D01*
X229314Y87100D01*
X228491Y86469D01*
X227860Y85647D01*
X227464Y84689D01*
X227328Y83661D01*
X227464Y82634D01*
X227860Y81676D01*
X228491Y80853D01*
X229314Y80222D01*
X230272Y79826D01*
X231299Y79690D01*
X232327Y79826D01*
X233285Y80222D01*
X234107Y80853D01*
X234738Y81676D01*
X235135Y82634D01*
X235270Y83661D01*
X235135Y84689D01*
X234738Y85647D01*
X234107Y86469D01*
X233285Y87100D01*
X232327Y87497D01*
X231299Y87632D01*
D02*
G37*
G36*
X275590Y90790D02*
X274746Y90622D01*
X274029Y90144D01*
X273551Y89428D01*
X273383Y88583D01*
X273551Y87738D01*
X273973Y87106D01*
X273551Y86475D01*
X273383Y85630D01*
X273551Y84785D01*
X273973Y84153D01*
X273551Y83522D01*
X273383Y82677D01*
X273551Y81832D01*
X273973Y81201D01*
X273551Y80569D01*
X273383Y79724D01*
X273551Y78879D01*
X274029Y78163D01*
X274746Y77685D01*
X275590Y77517D01*
X276435Y77685D01*
X277152Y78163D01*
X277630Y78879D01*
X277798Y79724D01*
X277630Y80569D01*
X277208Y81201D01*
X277630Y81832D01*
X277798Y82677D01*
X277630Y83522D01*
X277208Y84153D01*
X277630Y84785D01*
X277798Y85630D01*
X277630Y86475D01*
X277208Y87106D01*
X277630Y87738D01*
X277798Y88583D01*
X277630Y89428D01*
X277152Y90144D01*
X276435Y90622D01*
X275590Y90790D01*
D02*
G37*
G36*
X201772Y77995D02*
X200927Y77827D01*
X200210Y77349D01*
X199732Y76632D01*
X199564Y75787D01*
X199732Y74942D01*
X200210Y74226D01*
X200927Y73748D01*
X201772Y73580D01*
X202617Y73748D01*
X203333Y74226D01*
X203504Y74483D01*
X210866D01*
X211037Y74226D01*
X211754Y73748D01*
X212598Y73580D01*
X213443Y73748D01*
X214159Y74226D01*
X214638Y74942D01*
X214806Y75787D01*
X214638Y76632D01*
X214159Y77349D01*
X213443Y77827D01*
X212598Y77995D01*
X211754Y77827D01*
X211037Y77349D01*
X210866Y77092D01*
X203504D01*
X203333Y77349D01*
X202617Y77827D01*
X201772Y77995D01*
D02*
G37*
G36*
X273622Y52199D02*
X272594Y52064D01*
X271637Y51667D01*
X270814Y51036D01*
X270183Y50214D01*
X269786Y49256D01*
X269651Y48228D01*
X269786Y47201D01*
X270183Y46243D01*
X270814Y45420D01*
X271637Y44789D01*
X272594Y44393D01*
X273622Y44257D01*
X274650Y44393D01*
X275607Y44789D01*
X276430Y45420D01*
X277061Y46243D01*
X277458Y47201D01*
X277593Y48228D01*
X277458Y49256D01*
X277061Y50214D01*
X276430Y51036D01*
X275607Y51667D01*
X274650Y52064D01*
X273622Y52199D01*
D02*
G37*
G36*
X250000D02*
X248972Y52064D01*
X248014Y51667D01*
X247192Y51036D01*
X246561Y50214D01*
X246164Y49256D01*
X246029Y48228D01*
X246164Y47201D01*
X246561Y46243D01*
X247192Y45420D01*
X248014Y44789D01*
X248972Y44393D01*
X250000Y44257D01*
X251028Y44393D01*
X251986Y44789D01*
X252808Y45420D01*
X253439Y46243D01*
X253836Y47201D01*
X253971Y48228D01*
X253836Y49256D01*
X253439Y50214D01*
X252808Y51036D01*
X251986Y51667D01*
X251028Y52064D01*
X250000Y52199D01*
D02*
G37*
G36*
X149606Y51215D02*
X148579Y51080D01*
X147621Y50683D01*
X146798Y50052D01*
X146167Y49230D01*
X145771Y48272D01*
X145635Y47244D01*
X145771Y46216D01*
X146167Y45259D01*
X146798Y44436D01*
X147621Y43805D01*
X148579Y43408D01*
X149606Y43273D01*
X150634Y43408D01*
X151592Y43805D01*
X152414Y44436D01*
X153045Y45259D01*
X153442Y46216D01*
X153577Y47244D01*
X153442Y48272D01*
X153045Y49230D01*
X152414Y50052D01*
X151592Y50683D01*
X150634Y51080D01*
X149606Y51215D01*
D02*
G37*
G36*
X256890Y43546D02*
X256045Y43378D01*
X255413Y42956D01*
X254782Y43378D01*
X253937Y43546D01*
X253092Y43378D01*
X252461Y42956D01*
X251829Y43378D01*
X250984Y43546D01*
X250139Y43378D01*
X249423Y42900D01*
X248944Y42184D01*
X248777Y41339D01*
X248944Y40494D01*
X249366Y39862D01*
X248944Y39231D01*
X248777Y38386D01*
X248944Y37541D01*
X249423Y36825D01*
X250139Y36346D01*
X250984Y36178D01*
X251829Y36346D01*
X252461Y36768D01*
X253092Y36346D01*
X253937Y36178D01*
X254782Y36346D01*
X255413Y36768D01*
X256045Y36346D01*
X256890Y36178D01*
X257735Y36346D01*
X258451Y36825D01*
X258929Y37541D01*
X259098Y38386D01*
X258929Y39231D01*
X258507Y39862D01*
X258929Y40494D01*
X259098Y41339D01*
X258929Y42184D01*
X258451Y42900D01*
X257735Y43378D01*
X256890Y43546D01*
D02*
G37*
G36*
X1563386Y121681D02*
X1562564Y121572D01*
X1561797Y121255D01*
X1561139Y120750D01*
X1560635Y120092D01*
X1560317Y119326D01*
X1560209Y118504D01*
X1560317Y117682D01*
X1560635Y116916D01*
X1561139Y116258D01*
X1561797Y115753D01*
X1562564Y115435D01*
X1563386Y115327D01*
X1564208Y115435D01*
X1564974Y115753D01*
X1565632Y116258D01*
X1566137Y116916D01*
X1566454Y117682D01*
X1566563Y118504D01*
X1566454Y119326D01*
X1566137Y120092D01*
X1565632Y120750D01*
X1564974Y121255D01*
X1564208Y121572D01*
X1563386Y121681D01*
D02*
G37*
G36*
X1557087Y100413D02*
X1549213D01*
X1548829Y100337D01*
X1548720Y100264D01*
X1548503Y100119D01*
X1546828Y98444D01*
X1543404D01*
X1543307Y98464D01*
X1537402D01*
X1536633Y98311D01*
X1535982Y97876D01*
X1535547Y97225D01*
X1535394Y96457D01*
X1535547Y95689D01*
X1535982Y95038D01*
X1536398Y94760D01*
Y94217D01*
X1535982Y93939D01*
X1535547Y93288D01*
X1535394Y92520D01*
X1535547Y91752D01*
X1535982Y91101D01*
X1536633Y90665D01*
X1537402Y90513D01*
X1543307D01*
X1543404Y90532D01*
X1546828D01*
X1551456Y85905D01*
X1551781Y85687D01*
X1552165Y85611D01*
X1557087D01*
X1557471Y85687D01*
X1557796Y85905D01*
X1558014Y86230D01*
X1558090Y86614D01*
Y99410D01*
X1558014Y99793D01*
X1557796Y100119D01*
X1557471Y100337D01*
X1557087Y100413D01*
D02*
G37*
G36*
X1563386Y63807D02*
X1562564Y63698D01*
X1561797Y63381D01*
X1561139Y62876D01*
X1560635Y62218D01*
X1560317Y61452D01*
X1560209Y60630D01*
X1560317Y59808D01*
X1560635Y59041D01*
X1561139Y58384D01*
X1561797Y57879D01*
X1562564Y57561D01*
X1563386Y57453D01*
X1564208Y57561D01*
X1564974Y57879D01*
X1565632Y58384D01*
X1566137Y59041D01*
X1566454Y59808D01*
X1566563Y60630D01*
X1566454Y61452D01*
X1566137Y62218D01*
X1565632Y62876D01*
X1564974Y63381D01*
X1564208Y63698D01*
X1563386Y63807D01*
D02*
G37*
%LPD*%
G36*
X1557087Y86614D02*
X1552165D01*
X1547244Y91535D01*
X1537402D01*
Y97441D01*
X1547244D01*
X1549213Y99410D01*
X1557087D01*
Y86614D01*
D02*
G37*
D10*
X1089567Y157480D02*
X1090551Y158465D01*
X1068898Y136811D02*
X1089567Y157480D01*
X822835Y136811D02*
X1068898D01*
X677165Y32480D02*
X755905D01*
X646654Y62992D02*
X677165Y32480D01*
X646654Y62992D02*
Y75787D01*
X679134Y35433D02*
X753937D01*
X649606Y64961D02*
X679134Y35433D01*
X649606Y64961D02*
Y76772D01*
X681102Y38386D02*
X749016D01*
X652559Y66929D02*
X681102Y38386D01*
X652559Y66929D02*
Y77756D01*
X552165Y112205D02*
X618110D01*
X550197D02*
X552165D01*
X683071Y41339D02*
X747047D01*
X655512Y68898D02*
X683071Y41339D01*
X655512Y68898D02*
Y78740D01*
X1469488Y98425D02*
X1471457D01*
X1454724Y113189D02*
X1469488Y98425D01*
X1042323Y113189D02*
X1454724D01*
X1456693Y117126D02*
X1471457Y102362D01*
X1040354Y117126D02*
X1456693D01*
X981299Y58071D02*
X1040354Y117126D01*
X984252Y55118D02*
X1042323Y113189D01*
X564961Y109252D02*
X617126D01*
X552165D02*
X564961D01*
X562992Y106299D02*
X616142D01*
X540354Y97441D02*
X552165Y109252D01*
X617126D02*
X649606Y76772D01*
X529528Y118110D02*
X532480Y115157D01*
X383465Y106299D02*
X387402Y102362D01*
X383465Y106299D02*
Y121063D01*
X540354Y90551D02*
Y97441D01*
X529528Y79724D02*
X540354Y90551D01*
X546260Y108268D02*
X550197Y112205D01*
X546260Y108268D02*
Y108268D01*
X616142Y106299D02*
X642717Y79724D01*
X642717D01*
X646654Y75787D01*
X776575Y58071D02*
X981299D01*
X753937Y35433D02*
X776575Y58071D01*
X536417Y98425D02*
X546260Y108268D01*
X536417Y94488D02*
Y98425D01*
X529528Y87598D02*
X536417Y94488D01*
X430118Y137795D02*
X437008Y144685D01*
X327756Y137795D02*
X430118D01*
X326772Y136811D02*
X327756Y137795D01*
X319882D02*
X320866Y136811D01*
X312008Y137795D02*
X319882D01*
X301181Y148622D02*
X312008Y137795D01*
X320866Y136811D02*
X326772D01*
X385236Y97244D02*
Y100984D01*
X382874Y103347D02*
X385236Y100984D01*
X371654Y103347D02*
X382874D01*
X1527559Y84646D02*
X1540354D01*
X1523622Y80709D02*
X1527559Y84646D01*
X1471457Y98425D02*
X1478347D01*
X1492126Y84646D01*
X1504921D02*
X1508858Y80709D01*
X1523622D01*
X1471457Y102362D02*
X1480315D01*
X1505906Y76772D01*
X1540354D01*
X130905Y23622D02*
X496063D01*
X100394Y54134D02*
X130905Y23622D01*
X100394Y54134D02*
Y68898D01*
X617992Y17717D02*
X623032D01*
X617992D02*
X618583Y17126D01*
X607992Y17717D02*
X613189D01*
X607992D02*
X608583Y17126D01*
X579173Y17717D02*
X582677D01*
X578583Y17126D02*
X579173Y17717D01*
X589173D02*
X592520D01*
X588583Y17126D02*
X589173Y17717D01*
X599173D02*
X602362D01*
X598583Y17126D02*
X599173Y17717D01*
X797244Y245079D02*
Y250000D01*
Y245079D02*
X797244Y245079D01*
X801181Y241142D01*
Y227362D02*
Y241142D01*
Y246063D02*
Y250000D01*
Y246063D02*
X804134Y243110D01*
X805118Y246063D02*
Y250000D01*
Y246063D02*
X806102Y245079D01*
Y225394D02*
Y245079D01*
X804134Y220472D02*
X809055Y225394D01*
Y250000D01*
X777559Y248031D02*
Y250000D01*
X773622Y244094D02*
X777559Y248031D01*
X773622Y227362D02*
Y244094D01*
X769685Y248031D02*
Y250000D01*
X768701Y247047D02*
X769685Y248031D01*
X768701Y225394D02*
Y247047D01*
X770669Y245079D02*
X773622Y248031D01*
X770669Y226378D02*
Y245079D01*
X773622Y248031D02*
Y250000D01*
X765748Y225394D02*
X770669Y220472D01*
X765748Y225394D02*
Y250000D01*
X601378Y102362D02*
X616142Y87598D01*
X567913Y102362D02*
X601378D01*
X608583Y70197D02*
X616142Y77756D01*
X608583Y36024D02*
Y70197D01*
X616142Y77756D02*
Y87598D01*
X555118Y99410D02*
X578740D01*
X598094Y37205D02*
X598583D01*
X597402Y36513D02*
X598094Y37205D01*
X597402Y36024D02*
Y36513D01*
X585630Y56102D02*
Y77756D01*
X577756Y85630D02*
X585630Y77756D01*
X573819Y85630D02*
X577756D01*
X583661Y50197D02*
Y76772D01*
X578150Y82284D02*
X583661Y76772D01*
X575000Y82284D02*
X578150D01*
X580315Y77165D02*
X581693Y75787D01*
Y50197D02*
Y75787D01*
X588583Y36024D02*
Y45276D01*
X583661Y50197D02*
X588583Y45276D01*
X578740Y47244D02*
X581693Y50197D01*
X578583Y36024D02*
X578740Y36181D01*
Y47244D01*
X585630Y56102D02*
X598583Y43150D01*
Y37205D02*
Y43150D01*
X602362Y46260D02*
Y67913D01*
X601378Y45276D02*
X602362Y46260D01*
X589567Y88583D02*
X609252D01*
X578740Y99410D02*
X589567Y88583D01*
X633465Y36024D02*
X634842Y37402D01*
X618583Y36024D02*
X633465D01*
X630905Y107283D02*
X638779D01*
X620079Y118110D02*
X630905Y107283D01*
X579724Y118110D02*
X620079D01*
X575787Y122047D02*
X579724Y118110D01*
X584646Y88583D02*
X594488Y78740D01*
X561024Y88583D02*
X584646D01*
X496063Y23622D02*
X561024Y88583D01*
X594488Y78740D02*
X601378D01*
X568583Y17126D02*
X569173Y17717D01*
X573819D01*
X575787Y77165D02*
X580315D01*
X571850Y83661D02*
X573819Y85630D01*
X571850Y81004D02*
Y83661D01*
Y81004D02*
X573032Y79823D01*
X1468504Y231299D02*
Y252953D01*
Y231299D02*
X1470472Y229331D01*
X1473425Y210630D02*
Y247047D01*
X1466535Y185039D02*
X1486220Y165354D01*
X1466535Y185039D02*
Y228346D01*
X619095Y115157D02*
X655512Y78740D01*
X618110Y112205D02*
X652559Y77756D01*
X532480Y115157D02*
X619095D01*
X812008Y89567D02*
X813976Y87598D01*
X795276Y89567D02*
X812008D01*
X747047Y41339D02*
X795276Y89567D01*
X810039Y86614D02*
X812008Y84646D01*
X797244Y86614D02*
X810039D01*
X767717Y57087D02*
X797244Y86614D01*
X755905Y32480D02*
X778543Y55118D01*
X749016Y38386D02*
X767717Y57087D01*
X813976Y87598D02*
X820866D01*
X812008Y84646D02*
X817913D01*
X672244Y92520D02*
X677165D01*
X670276Y90551D02*
X672244Y92520D01*
X674213Y88583D02*
X677165D01*
X681102Y84646D01*
Y81693D02*
Y84646D01*
X677165Y92520D02*
X685039Y84646D01*
Y80709D02*
Y84646D01*
X684055Y79724D02*
X685039Y80709D01*
X684055Y78740D02*
Y79724D01*
X687992Y56102D02*
Y75787D01*
X684055Y63976D02*
Y78740D01*
X681102Y70866D02*
Y81693D01*
X464567Y144685D02*
X474409Y134843D01*
X437008Y144685D02*
X464567D01*
X474409Y134843D02*
X646654Y134843D01*
X473425Y131890D02*
X643701Y131890D01*
X463583Y141732D02*
X473425Y131890D01*
X437992Y141732D02*
X463583D01*
X431102Y134843D02*
X437992Y141732D01*
X114173Y134843D02*
X431102D01*
X100394Y148622D02*
X114173Y134843D01*
X649606Y137795D02*
X701772Y85630D01*
X515748Y137795D02*
X649606D01*
X501968Y151575D02*
X515748Y137795D01*
X646654Y134843D02*
X697835Y83661D01*
X778543Y55118D02*
X984252D01*
X912598Y91732D02*
X953740D01*
X912402Y91535D02*
X912598Y91732D01*
Y84842D02*
X950787D01*
X912402Y84646D02*
X912598Y84842D01*
X914567Y87795D02*
X953740D01*
X914370Y94488D02*
X914567Y94685D01*
X914370Y99410D02*
X914567Y99606D01*
X914370Y106299D02*
X916142D01*
X916339Y106496D01*
X912402Y109252D02*
X912598Y109449D01*
X804134Y226378D02*
Y243110D01*
X535433Y227362D02*
X536417D01*
X537402Y228346D01*
X1487205Y153543D02*
X1492126Y158465D01*
X1487205Y153543D02*
X1487205D01*
X1464567Y130905D02*
X1487205Y153543D01*
X826772Y130905D02*
X1464567D01*
X1288386Y155512D02*
X1291339Y158465D01*
X1288386Y155512D02*
X1288386D01*
X1266732Y133858D02*
X1288386Y155512D01*
X824803Y133858D02*
X1266732D01*
X886811Y155512D02*
X889764Y158465D01*
X886811Y155512D02*
X886811D01*
X871063Y139764D02*
X886811Y155512D01*
X820866Y139764D02*
X871063D01*
X501968Y158465D02*
X501968Y158465D01*
X501968Y151575D02*
Y158465D01*
X301181Y148622D02*
Y158465D01*
X100394Y148622D02*
Y158465D01*
X1319882Y172244D02*
X1331693Y184055D01*
X1319882Y160433D02*
Y172244D01*
X1300197Y205709D02*
Y233268D01*
X1296260Y210630D02*
Y235236D01*
X1292323Y205709D02*
Y237205D01*
X1288386Y210630D02*
Y239173D01*
X1284449Y205709D02*
Y241142D01*
X1280512Y210630D02*
Y243110D01*
X1276575Y205709D02*
Y245079D01*
X1272638Y210630D02*
Y247047D01*
X1340551Y228346D02*
Y250000D01*
X1338583Y226378D02*
X1340551Y228346D01*
X1304134Y208661D02*
Y210630D01*
X1303150Y165354D02*
Y207677D01*
X1305118Y165354D02*
X1312008Y158465D01*
X1303150Y207677D02*
X1304134Y208661D01*
X1303150Y165354D02*
X1305118D01*
X1300197Y162402D02*
X1303150Y165354D01*
X1277559Y162402D02*
X1300197D01*
X1274606Y165354D02*
X1277559Y162402D01*
X1291339Y158465D02*
X1305118D01*
X1266732Y184055D02*
Y228346D01*
Y184055D02*
X1285433Y165354D01*
X1119094Y172244D02*
X1130906Y184055D01*
X1119094Y160433D02*
Y172244D01*
X1099409Y205709D02*
Y233268D01*
X1095473Y210630D02*
Y235236D01*
X1091535Y205709D02*
Y237205D01*
X1087599Y210630D02*
Y239173D01*
X1083661Y205709D02*
Y241142D01*
X1079725Y210630D02*
Y243110D01*
X1075787Y205709D02*
Y245079D01*
X1071850Y210630D02*
Y247047D01*
X1139764Y228346D02*
Y250000D01*
X1137795Y226378D02*
X1139764Y228346D01*
X1103347Y208661D02*
Y210630D01*
X1102362Y165354D02*
Y207677D01*
X1104331Y165354D02*
X1111220Y158465D01*
X1102362Y207677D02*
X1103347Y208661D01*
X1102362Y165354D02*
X1104331D01*
X1099409Y162402D02*
X1102362Y165354D01*
X1076772Y162402D02*
X1099409D01*
X1073819Y165354D02*
X1076772Y162402D01*
X1090551Y158465D02*
X1104331D01*
X1065945Y184055D02*
Y228346D01*
Y184055D02*
X1084646Y165354D01*
X918307Y172244D02*
X930118Y184055D01*
X918307Y160433D02*
Y172244D01*
X898622Y205709D02*
Y233268D01*
X894685Y210630D02*
Y235236D01*
X890748Y205709D02*
Y237205D01*
X886811Y210630D02*
Y239173D01*
X882874Y205709D02*
Y241142D01*
X878937Y210630D02*
Y243110D01*
X875000Y205709D02*
Y245079D01*
X871063Y210630D02*
Y247047D01*
X938976Y228346D02*
Y250000D01*
X937008Y226378D02*
X938976Y228346D01*
X902559Y208661D02*
Y210630D01*
X901575Y165354D02*
Y207677D01*
X903543Y165354D02*
X910433Y158465D01*
X901575Y207677D02*
X902559Y208661D01*
X901575Y165354D02*
X903543D01*
X898622Y162402D02*
X901575Y165354D01*
X875984Y162402D02*
X898622D01*
X873032Y165354D02*
X875984Y162402D01*
X889764Y158465D02*
X903543D01*
X865158Y184055D02*
Y228346D01*
Y184055D02*
X883858Y165354D01*
X717520Y172244D02*
X729331Y184055D01*
X717520Y160433D02*
Y172244D01*
X697835Y205709D02*
Y233268D01*
X693898Y210630D02*
Y235236D01*
X689961Y205709D02*
Y237205D01*
X686024Y210630D02*
Y239173D01*
X682087Y205709D02*
Y241142D01*
X678150Y210630D02*
Y243110D01*
X674213Y205709D02*
Y245079D01*
X670276Y210630D02*
Y247047D01*
X738189Y228346D02*
Y250000D01*
X736221Y226378D02*
X738189Y228346D01*
X701772Y208661D02*
Y210630D01*
X700787Y165354D02*
Y207677D01*
X702756Y165354D02*
X709646Y158465D01*
X700787Y207677D02*
X701772Y208661D01*
X700787Y165354D02*
X702756D01*
X697835Y162402D02*
X700787Y165354D01*
X675197Y162402D02*
X697835D01*
X672244Y165354D02*
X675197Y162402D01*
X688976Y158465D02*
X702756D01*
X664370Y184055D02*
Y228346D01*
Y184055D02*
X683071Y165354D01*
X516732Y172244D02*
X528543Y184055D01*
X516732Y160433D02*
Y172244D01*
X497047Y205709D02*
Y233268D01*
X493110Y210630D02*
Y235236D01*
X489173Y205709D02*
Y237205D01*
X485236Y210630D02*
Y239173D01*
X481299Y205709D02*
Y241142D01*
X477362Y210630D02*
Y243110D01*
X473425Y205709D02*
Y245079D01*
X469488Y210630D02*
Y247047D01*
X537402Y228346D02*
Y250000D01*
X500984Y208661D02*
Y210630D01*
X500000Y165354D02*
Y207677D01*
X501968Y165354D02*
X508858Y158465D01*
X500000Y207677D02*
X500984Y208661D01*
X500000Y165354D02*
X501968D01*
X497047Y162402D02*
X500000Y165354D01*
X474409Y162402D02*
X497047D01*
X471457Y165354D02*
X474409Y162402D01*
X488189Y158465D02*
X501968D01*
X463583Y184055D02*
Y228346D01*
Y184055D02*
X482283Y165354D01*
X315945Y172244D02*
X327756Y184055D01*
X315945Y160433D02*
Y172244D01*
X296260Y205709D02*
Y233268D01*
X292323Y210630D02*
Y235236D01*
X288386Y205709D02*
Y237205D01*
X284449Y210630D02*
Y239173D01*
X280512Y205709D02*
Y241142D01*
X276575Y210630D02*
Y243110D01*
X272638Y205709D02*
Y245079D01*
X268701Y210630D02*
Y247047D01*
X336614Y228346D02*
Y250000D01*
X334646Y226378D02*
X336614Y228346D01*
X300197Y208661D02*
Y210630D01*
X299213Y165354D02*
Y207677D01*
X301181Y165354D02*
X308071Y158465D01*
X299213Y207677D02*
X300197Y208661D01*
X299213Y165354D02*
X301181D01*
X296260Y162402D02*
X299213Y165354D01*
X273622Y162402D02*
X296260D01*
X270669Y165354D02*
X273622Y162402D01*
X287402Y158465D02*
X301181D01*
X262795Y184055D02*
Y228346D01*
Y184055D02*
X281496Y165354D01*
X115157Y172244D02*
X126968Y184055D01*
X115157Y160433D02*
Y172244D01*
X95472Y205709D02*
Y233268D01*
X91535Y210630D02*
Y235236D01*
X87598Y205709D02*
Y237205D01*
X83661Y210630D02*
Y239173D01*
X79724Y205709D02*
Y241142D01*
X75787Y210630D02*
Y243110D01*
X71850Y205709D02*
Y245079D01*
X67913Y210630D02*
Y247047D01*
X135827Y228346D02*
Y250000D01*
X133858Y226378D02*
X135827Y228346D01*
X99410Y208661D02*
Y210630D01*
X98425Y165354D02*
Y207677D01*
X100394Y165354D02*
X107283Y158465D01*
X98425Y207677D02*
X99410Y208661D01*
X98425Y165354D02*
X100394D01*
X95472Y162402D02*
X98425Y165354D01*
X72835Y162402D02*
X95472D01*
X69882Y165354D02*
X72835Y162402D01*
X86614Y158465D02*
X100394D01*
X62008Y184055D02*
Y228346D01*
Y184055D02*
X80709Y165354D01*
X1503937D02*
X1505906D01*
X1512795Y158465D01*
X1520669Y172244D02*
X1532480Y184055D01*
X1520669Y160433D02*
Y172244D01*
X856201Y112106D02*
X856299Y112205D01*
X856201Y98524D02*
Y112106D01*
Y98524D02*
X856299Y98425D01*
X832677D02*
Y112205D01*
X836614Y98425D02*
Y112205D01*
X848425Y98425D02*
Y112205D01*
X840551Y98425D02*
Y112205D01*
X828740Y98425D02*
Y112205D01*
X844488Y98425D02*
Y112205D01*
X852362Y98425D02*
Y112205D01*
X795276Y220472D02*
X804134D01*
X789370Y226378D02*
X795276Y220472D01*
X789370Y226378D02*
Y227362D01*
X797244Y222441D02*
X803150D01*
X793307Y226378D02*
X797244Y222441D01*
X793307Y226378D02*
Y227362D01*
X799213Y224410D02*
X802165D01*
X797244Y226378D02*
X799213Y224410D01*
X797244Y226378D02*
Y227362D01*
X803150Y222441D02*
X806102Y225394D01*
X802165Y224410D02*
X804134Y226378D01*
X785433Y226378D02*
Y227362D01*
X779528Y220472D02*
X785433Y226378D01*
X770669Y220472D02*
X779528D01*
X777559Y222441D02*
X781496Y226378D01*
X771654Y222441D02*
X777559D01*
X775591Y224410D02*
X777559Y226378D01*
X772638Y224410D02*
X775591D01*
X770669Y226378D02*
X772638Y224410D01*
X768701Y225394D02*
X771654Y222441D01*
X777559Y226378D02*
Y227362D01*
X781496Y226378D02*
Y227362D01*
X1001968Y221457D02*
Y248031D01*
X998032Y221457D02*
Y245079D01*
X994094Y221457D02*
Y242126D01*
X990158Y221457D02*
Y239173D01*
X986220Y221457D02*
Y236221D01*
X974409Y221457D02*
Y227362D01*
X978347Y221457D02*
Y230315D01*
X982283Y221457D02*
Y233268D01*
X782480Y86614D02*
X826772Y130905D01*
X778543Y87598D02*
X824803Y133858D01*
X774606Y88583D02*
X822835Y136811D01*
X770669Y89567D02*
X820866Y139764D01*
X694882Y99410D02*
X705709Y88583D01*
X694882Y99410D02*
Y158465D01*
X1492126D02*
X1505906D01*
X643701Y131890D02*
X693898Y81693D01*
X1504921Y208661D02*
Y210630D01*
X1503937Y207677D02*
X1504921Y208661D01*
X1503937Y165354D02*
Y207677D01*
X1500984Y162402D02*
X1503937Y165354D01*
X1478347Y162402D02*
X1500984D01*
X1475394Y165354D02*
X1478347Y162402D01*
X1477362Y205709D02*
Y245079D01*
X1481299Y210630D02*
Y243110D01*
X1485236Y205709D02*
Y241142D01*
X1489173Y210630D02*
Y239173D01*
X1493110Y205709D02*
Y237205D01*
X1497047Y210630D02*
Y235236D01*
X1500984Y205709D02*
Y233268D01*
X599409Y70866D02*
X602362Y67913D01*
X914567Y94685D02*
X950787D01*
X912598Y109449D02*
X950787D01*
X916339Y106496D02*
X953740D01*
X912598Y102559D02*
X953740D01*
X914567Y99606D02*
X950787D01*
X817913Y84646D02*
X860236D01*
X820866Y87598D02*
X862205D01*
X704724Y50197D02*
X720472D01*
X747047Y80709D02*
X755905D01*
X744095Y84646D02*
X755905D01*
X741142Y88583D02*
X755905D01*
X720472Y80709D02*
X729331D01*
X720472Y84646D02*
X732283D01*
X720472Y88583D02*
X735236D01*
X201772Y75787D02*
X212598D01*
X212598Y75787D01*
X368701Y106299D02*
Y109252D01*
Y106299D02*
X371654Y103347D01*
X387402Y94488D02*
Y102362D01*
X382480Y89567D02*
X387402Y94488D01*
X379528Y91535D02*
X385236Y97244D01*
X379528Y87598D02*
Y91535D01*
Y87598D02*
X380512Y86614D01*
Y83661D02*
Y86614D01*
X357874Y87598D02*
X369685D01*
X377559Y99409D02*
X382480D01*
X377559Y74803D02*
Y99409D01*
X373622Y70866D02*
X377559Y74803D01*
X367717Y99409D02*
X377559D01*
X360827Y106299D02*
X367717Y99409D01*
X440551Y84646D02*
Y117126D01*
D12*
X73819Y60827D02*
X75591Y59055D01*
X75787D01*
X73819Y60827D02*
Y78740D01*
D67*
X189764Y225394D02*
D03*
X180315D02*
D03*
D90*
X113189Y193996D02*
D03*
Y223327D02*
D03*
X56102Y193996D02*
D03*
Y223327D02*
D03*
X256890D02*
D03*
Y193996D02*
D03*
X313976Y223327D02*
D03*
Y193996D02*
D03*
X514764D02*
D03*
Y223327D02*
D03*
X457677Y193996D02*
D03*
Y223327D02*
D03*
X658465D02*
D03*
Y193996D02*
D03*
X715551Y223327D02*
D03*
Y193996D02*
D03*
X916339D02*
D03*
Y223327D02*
D03*
X859252Y193996D02*
D03*
Y223327D02*
D03*
X1060039D02*
D03*
Y193996D02*
D03*
X1117126Y223327D02*
D03*
Y193996D02*
D03*
X1317913D02*
D03*
Y223327D02*
D03*
X1260827Y193996D02*
D03*
Y223327D02*
D03*
X1461614D02*
D03*
Y193996D02*
D03*
X1518701Y223327D02*
D03*
Y193996D02*
D03*
X1466535Y47244D02*
D03*
X991142D02*
D03*
X883858D02*
D03*
X777559D02*
D03*
X647638D02*
D03*
X403543D02*
D03*
X323819D02*
D03*
X229331D02*
D03*
D91*
X40354Y213779D02*
D03*
Y203543D02*
D03*
X128937Y213779D02*
D03*
Y203543D02*
D03*
X329724D02*
D03*
Y213779D02*
D03*
X241142Y203543D02*
D03*
Y213779D02*
D03*
X441929D02*
D03*
Y203543D02*
D03*
X530512Y213779D02*
D03*
Y203543D02*
D03*
X731299D02*
D03*
Y213779D02*
D03*
X642717Y203543D02*
D03*
Y213779D02*
D03*
X843504D02*
D03*
Y203543D02*
D03*
X932087Y213779D02*
D03*
Y203543D02*
D03*
X1132874D02*
D03*
Y213779D02*
D03*
X1044291Y203543D02*
D03*
Y213779D02*
D03*
X1245079D02*
D03*
Y203543D02*
D03*
X1333661Y213779D02*
D03*
Y203543D02*
D03*
X1534449D02*
D03*
Y213779D02*
D03*
X1445866Y203543D02*
D03*
Y213779D02*
D03*
D92*
X576772Y143701D02*
D03*
X566929D02*
D03*
X606299D02*
D03*
X596457D02*
D03*
X586614D02*
D03*
X529528Y87598D02*
D03*
Y118110D02*
D03*
Y79724D02*
D03*
Y110236D02*
D03*
X231299Y83661D02*
D03*
X137795Y118110D02*
D03*
X218504Y125984D02*
D03*
X231299Y98425D02*
D03*
X476378Y114173D02*
D03*
X507874D02*
D03*
X416339Y129921D02*
D03*
X404528Y113189D02*
D03*
X417323Y75787D02*
D03*
X391732Y129921D02*
D03*
X454724Y118110D02*
D03*
X357283Y128937D02*
D03*
X417323Y97441D02*
D03*
X61024Y154528D02*
D03*
X30512D02*
D03*
X261811D02*
D03*
X462598D02*
D03*
X663386D02*
D03*
X864173D02*
D03*
X1064961D02*
D03*
X1265748D02*
D03*
X1466535D02*
D03*
X231299D02*
D03*
X432087D02*
D03*
X632874D02*
D03*
X833661D02*
D03*
X1034449D02*
D03*
X1235236D02*
D03*
X1436024D02*
D03*
X357283Y75787D02*
D03*
X250000Y48228D02*
D03*
X273622D02*
D03*
X125984Y47244D02*
D03*
X149606D02*
D03*
X312992Y125984D02*
D03*
X63976Y131102D02*
D03*
X106299Y38386D02*
D03*
X92520Y100591D02*
D03*
X63976Y79724D02*
D03*
X90551Y49213D02*
D03*
D93*
X12795Y72047D02*
D03*
Y46063D02*
D03*
D94*
X1559055Y157480D02*
D03*
X1188976D02*
D03*
X787402D02*
D03*
X385827D02*
D03*
X15748Y165354D02*
D03*
X15748Y208661D02*
D03*
X216535D02*
D03*
X417323D02*
D03*
X618110D02*
D03*
X818898D02*
D03*
X1019685D02*
D03*
X1220473D02*
D03*
X1421260D02*
D03*
X153543D02*
D03*
X354331Y208661D02*
D03*
X555118D02*
D03*
X755905Y208661D02*
D03*
X956693Y208661D02*
D03*
X1157480D02*
D03*
X1358268D02*
D03*
X1559055Y208661D02*
D03*
X15748Y15748D02*
D03*
X787402D02*
D03*
X15748Y259842D02*
D03*
X787402D02*
D03*
X1559055D02*
D03*
Y15748D02*
D03*
D97*
X568583Y60709D02*
X578740Y70866D01*
X568583Y36024D02*
Y60709D01*
D98*
X1509842Y100394D02*
X1513780Y96457D01*
X1509842Y100394D02*
Y114173D01*
X555118Y17126D02*
X558583D01*
X555512Y36024D02*
X558583D01*
D100*
X37402Y100394D02*
Y158465D01*
X32480Y163386D02*
X37402Y158465D01*
X32480Y163386D02*
Y226378D01*
X37402Y97441D02*
Y100394D01*
X139764Y256890D02*
X153543Y243110D01*
X62992Y256890D02*
X139764D01*
X32480Y226378D02*
X62992Y256890D01*
X189764Y222244D02*
Y225394D01*
X185039Y217520D02*
X189764Y222244D01*
X172244Y217520D02*
X185039D01*
X153543Y236221D02*
X172244Y217520D01*
X153543Y236221D02*
Y243110D01*
X189764Y225394D02*
X190354Y225984D01*
Y240748D01*
D104*
X307087Y96457D02*
D03*
X190945Y101378D02*
D03*
X212598Y102362D02*
D03*
X141732Y55118D02*
D03*
X149606Y118110D02*
D03*
X177165Y78740D02*
D03*
X157480D02*
D03*
X141732Y82677D02*
D03*
X129921Y59055D02*
D03*
Y78740D02*
D03*
Y102362D02*
D03*
Y118110D02*
D03*
X236221D02*
D03*
X212598Y47244D02*
D03*
X228346Y70866D02*
D03*
X303150Y66929D02*
D03*
X275590Y70866D02*
D03*
X287402Y118110D02*
D03*
X267717D02*
D03*
X251969D02*
D03*
Y98425D02*
D03*
Y70866D02*
D03*
Y55118D02*
D03*
X275590Y35433D02*
D03*
Y59055D02*
D03*
X311024Y51181D02*
D03*
Y35433D02*
D03*
X334646D02*
D03*
Y55118D02*
D03*
Y74803D02*
D03*
Y98425D02*
D03*
Y118110D02*
D03*
X318898Y79724D02*
D03*
Y82677D02*
D03*
Y85630D02*
D03*
Y98425D02*
D03*
X311024Y102362D02*
D03*
X308071D02*
D03*
Y99410D02*
D03*
X313976Y107283D02*
D03*
X307087Y93504D02*
D03*
X310039D02*
D03*
Y96457D02*
D03*
X552165Y112205D02*
D03*
X564961Y109252D02*
D03*
X562992Y106299D02*
D03*
X533465Y127953D02*
D03*
X555118Y99410D02*
D03*
X1566929Y66929D02*
D03*
Y74803D02*
D03*
Y82677D02*
D03*
Y90551D02*
D03*
Y98425D02*
D03*
Y106299D02*
D03*
Y114173D02*
D03*
X1554134Y120079D02*
D03*
X1551181D02*
D03*
X1556102Y52165D02*
D03*
Y49213D02*
D03*
X1562008Y52165D02*
D03*
Y49213D02*
D03*
X1559055Y52165D02*
D03*
Y49213D02*
D03*
X1555118Y108268D02*
D03*
Y104331D02*
D03*
X1551181Y108268D02*
D03*
Y104331D02*
D03*
X1562008Y126969D02*
D03*
X1556102D02*
D03*
X1559055D02*
D03*
X1556102Y129921D02*
D03*
X1562008D02*
D03*
X1559055D02*
D03*
X1554134Y123031D02*
D03*
X1551181D02*
D03*
Y61024D02*
D03*
X1554134D02*
D03*
Y58071D02*
D03*
X1551181D02*
D03*
X1533465Y63976D02*
D03*
Y69882D02*
D03*
Y118110D02*
D03*
Y100394D02*
D03*
X1555118Y96457D02*
D03*
Y92520D02*
D03*
Y88583D02*
D03*
X1533465Y80709D02*
D03*
X1492126Y84646D02*
D03*
X1504921D02*
D03*
X100394Y68898D02*
D03*
X105315Y69882D02*
D03*
X623032Y17717D02*
D03*
X613189D02*
D03*
X602362D02*
D03*
X592520D02*
D03*
X37402Y100394D02*
D03*
Y97441D02*
D03*
X797244Y250000D02*
D03*
X801181D02*
D03*
X805118D02*
D03*
X809055D02*
D03*
X777559D02*
D03*
X773622D02*
D03*
X769685D02*
D03*
X765748D02*
D03*
X567913Y102362D02*
D03*
X601378Y45276D02*
D03*
X555118Y17126D02*
D03*
X555512Y36024D02*
D03*
X634842Y37402D02*
D03*
X638779Y107283D02*
D03*
X575787Y122047D02*
D03*
X587598Y123031D02*
D03*
X593504Y74803D02*
D03*
X599409Y63976D02*
D03*
X601378Y78740D02*
D03*
X573819Y17717D02*
D03*
X582677D02*
D03*
X616142Y92520D02*
D03*
X623032D02*
D03*
X250984Y38386D02*
D03*
Y41339D02*
D03*
X253937Y38386D02*
D03*
Y41339D02*
D03*
X256890Y38386D02*
D03*
Y41339D02*
D03*
X126969Y37402D02*
D03*
X129921D02*
D03*
X132874D02*
D03*
X126969Y40354D02*
D03*
X129921D02*
D03*
X132874D02*
D03*
X88583Y78543D02*
D03*
Y107283D02*
D03*
X91535D02*
D03*
X94488D02*
D03*
X88583Y58858D02*
D03*
X91535D02*
D03*
X94488D02*
D03*
Y61811D02*
D03*
X91535D02*
D03*
X88583D02*
D03*
X94488Y110236D02*
D03*
X91535D02*
D03*
X88583D02*
D03*
Y113189D02*
D03*
X91535D02*
D03*
X94488D02*
D03*
X1420276Y160433D02*
D03*
Y157480D02*
D03*
X1414370D02*
D03*
X1417323D02*
D03*
X1414370Y160433D02*
D03*
X1417323D02*
D03*
X1487205Y57087D02*
D03*
X1479331D02*
D03*
X1483268D02*
D03*
X1522638D02*
D03*
X1526575D02*
D03*
X1530512D02*
D03*
X1487205Y60039D02*
D03*
X1483268D02*
D03*
X1479331D02*
D03*
X1530512D02*
D03*
X1526575D02*
D03*
X1522638D02*
D03*
X177165Y221457D02*
D03*
X180118D02*
D03*
X183071D02*
D03*
Y224409D02*
D03*
X180118D02*
D03*
X177165D02*
D03*
X183071Y227362D02*
D03*
X180118D02*
D03*
X177165D02*
D03*
X1468504Y252953D02*
D03*
X1470472Y229331D02*
D03*
X1466535Y228346D02*
D03*
X301181Y142717D02*
D03*
X289370Y139764D02*
D03*
Y142717D02*
D03*
X209646Y68898D02*
D03*
X212598Y62992D02*
D03*
X209646D02*
D03*
Y65945D02*
D03*
X212598D02*
D03*
Y68898D02*
D03*
X207677Y79724D02*
D03*
Y82677D02*
D03*
Y85630D02*
D03*
X204724D02*
D03*
X200787Y92520D02*
D03*
X196850D02*
D03*
X200787Y96457D02*
D03*
X196850D02*
D03*
X203740Y111221D02*
D03*
Y115157D02*
D03*
Y120079D02*
D03*
Y124016D02*
D03*
Y127953D02*
D03*
X187992Y156496D02*
D03*
X185039D02*
D03*
Y159449D02*
D03*
Y162402D02*
D03*
X190945Y156496D02*
D03*
Y159449D02*
D03*
Y162402D02*
D03*
X187992D02*
D03*
Y159449D02*
D03*
X87598Y128937D02*
D03*
X85630Y97441D02*
D03*
X83661Y44094D02*
D03*
X670276Y90551D02*
D03*
X674213Y88583D02*
D03*
X685039Y108268D02*
D03*
X679134Y119095D02*
D03*
X708661Y95472D02*
D03*
X687992Y75787D02*
D03*
Y56102D02*
D03*
X684055Y63976D02*
D03*
Y78740D02*
D03*
X681102Y81693D02*
D03*
Y70866D02*
D03*
X438976Y128937D02*
D03*
X441929D02*
D03*
X450787Y135827D02*
D03*
X454724D02*
D03*
X386811Y47244D02*
D03*
X363189D02*
D03*
X870079Y92520D02*
D03*
X824803D02*
D03*
X805118Y66929D02*
D03*
X847441Y65945D02*
D03*
X855315D02*
D03*
X1499016Y190945D02*
D03*
X1491142D02*
D03*
X1483268D02*
D03*
X1475394D02*
D03*
X1298228D02*
D03*
X1290354D02*
D03*
X1282480D02*
D03*
X1274606D02*
D03*
X1097441D02*
D03*
X1089567D02*
D03*
X1081693D02*
D03*
X1073819D02*
D03*
X896653D02*
D03*
X888780D02*
D03*
X880906D02*
D03*
X873032D02*
D03*
X695866D02*
D03*
X687992D02*
D03*
X680118D02*
D03*
X672244D02*
D03*
X495079D02*
D03*
X487205D02*
D03*
X479331D02*
D03*
X471457D02*
D03*
X294291D02*
D03*
X286417D02*
D03*
X278543D02*
D03*
X270669D02*
D03*
X249016Y158465D02*
D03*
Y161417D02*
D03*
Y164370D02*
D03*
X243110Y158465D02*
D03*
Y161417D02*
D03*
Y164370D02*
D03*
X449803D02*
D03*
Y161417D02*
D03*
Y158465D02*
D03*
X443898D02*
D03*
Y161417D02*
D03*
Y164370D02*
D03*
X650591Y158465D02*
D03*
Y161417D02*
D03*
Y164370D02*
D03*
X644685Y158465D02*
D03*
Y161417D02*
D03*
Y164370D02*
D03*
X851378Y158465D02*
D03*
Y161417D02*
D03*
Y164370D02*
D03*
X845472Y158465D02*
D03*
Y164370D02*
D03*
Y161417D02*
D03*
X1052165Y158465D02*
D03*
Y161417D02*
D03*
Y164370D02*
D03*
X1046260Y158465D02*
D03*
Y161417D02*
D03*
Y164370D02*
D03*
X1252953Y158465D02*
D03*
Y161417D02*
D03*
Y164370D02*
D03*
X1247047Y158465D02*
D03*
Y161417D02*
D03*
Y164370D02*
D03*
X1447835Y158465D02*
D03*
Y161417D02*
D03*
Y164370D02*
D03*
X1453740Y158465D02*
D03*
Y161417D02*
D03*
Y164370D02*
D03*
X48228D02*
D03*
Y161417D02*
D03*
Y158465D02*
D03*
X42323D02*
D03*
Y164370D02*
D03*
Y161417D02*
D03*
X123031Y140748D02*
D03*
Y143701D02*
D03*
X323819Y139764D02*
D03*
Y142717D02*
D03*
X524606Y140748D02*
D03*
Y143701D02*
D03*
X725394Y140748D02*
D03*
Y143701D02*
D03*
X926181Y140748D02*
D03*
Y143701D02*
D03*
X1126968Y140748D02*
D03*
Y143701D02*
D03*
X1327756D02*
D03*
X1327756Y140748D02*
D03*
X1528543Y141732D02*
D03*
Y138779D02*
D03*
X1497047Y125984D02*
D03*
X1471457Y102362D02*
D03*
Y98425D02*
D03*
X912402Y84646D02*
D03*
X914567Y87795D02*
D03*
X912598Y102559D02*
D03*
X912402Y91535D02*
D03*
X914370Y94488D02*
D03*
Y99410D02*
D03*
Y106299D02*
D03*
X912402Y109252D02*
D03*
X312992Y111221D02*
D03*
X292323Y142717D02*
D03*
X301181Y139764D02*
D03*
X295276Y142717D02*
D03*
X298228D02*
D03*
X535433Y227362D02*
D03*
X1295276Y182087D02*
D03*
X1336614Y158465D02*
D03*
X1315945Y184055D02*
D03*
X1311024Y149606D02*
D03*
X1331693Y184055D02*
D03*
X1319882Y160433D02*
D03*
X1306102Y205709D02*
D03*
X1300197Y233268D02*
D03*
Y205709D02*
D03*
X1296260Y235236D02*
D03*
Y210630D02*
D03*
X1292323Y237205D02*
D03*
Y205709D02*
D03*
X1288386Y239173D02*
D03*
Y210630D02*
D03*
X1284449Y241142D02*
D03*
Y205709D02*
D03*
X1280512Y243110D02*
D03*
Y210630D02*
D03*
X1276575Y245079D02*
D03*
Y205709D02*
D03*
X1272638Y247047D02*
D03*
Y210630D02*
D03*
X1340551Y250000D02*
D03*
X1338583Y226378D02*
D03*
X1304134Y210630D02*
D03*
X1312008Y158465D02*
D03*
X1274606Y165354D02*
D03*
X1308071Y214567D02*
D03*
X1292323Y170276D02*
D03*
X1311024Y176181D02*
D03*
X1292323D02*
D03*
X1275591Y158465D02*
D03*
X1291339D02*
D03*
X1305118D02*
D03*
X1266732Y228346D02*
D03*
X1285433Y165354D02*
D03*
X1312008Y164370D02*
D03*
X1094488Y182087D02*
D03*
X1135827Y158465D02*
D03*
X1115158Y184055D02*
D03*
X1110236Y149606D02*
D03*
X1130906Y184055D02*
D03*
X1119094Y160433D02*
D03*
X1105315Y205709D02*
D03*
X1099409Y233268D02*
D03*
Y205709D02*
D03*
X1095473Y235236D02*
D03*
Y210630D02*
D03*
X1091535Y237205D02*
D03*
Y205709D02*
D03*
X1087599Y239173D02*
D03*
Y210630D02*
D03*
X1083661Y241142D02*
D03*
Y205709D02*
D03*
X1079725Y243110D02*
D03*
Y210630D02*
D03*
X1075787Y245079D02*
D03*
Y205709D02*
D03*
X1071850Y247047D02*
D03*
Y210630D02*
D03*
X1139764Y250000D02*
D03*
X1137795Y226378D02*
D03*
X1103347Y210630D02*
D03*
X1111220Y158465D02*
D03*
X1073819Y165354D02*
D03*
X1107283Y214567D02*
D03*
X1091535Y170276D02*
D03*
X1110236Y176181D02*
D03*
X1091535D02*
D03*
X1074803Y158465D02*
D03*
X1090551D02*
D03*
X1104331D02*
D03*
X1065945Y228346D02*
D03*
X1084646Y165354D02*
D03*
X1111220Y164370D02*
D03*
X893701Y182087D02*
D03*
X935039Y158465D02*
D03*
X914370Y184055D02*
D03*
X909449Y149606D02*
D03*
X930118Y184055D02*
D03*
X918307Y160433D02*
D03*
X904528Y205709D02*
D03*
X898622Y233268D02*
D03*
Y205709D02*
D03*
X894685Y235236D02*
D03*
Y210630D02*
D03*
X890748Y237205D02*
D03*
Y205709D02*
D03*
X886811Y239173D02*
D03*
Y210630D02*
D03*
X882874Y241142D02*
D03*
Y205709D02*
D03*
X878937Y243110D02*
D03*
Y210630D02*
D03*
X875000Y245079D02*
D03*
Y205709D02*
D03*
X871063Y247047D02*
D03*
Y210630D02*
D03*
X938976Y250000D02*
D03*
X937008Y226378D02*
D03*
X902559Y210630D02*
D03*
X910433Y158465D02*
D03*
X873032Y165354D02*
D03*
X906496Y214567D02*
D03*
X890748Y170276D02*
D03*
X909449Y176181D02*
D03*
X890748D02*
D03*
X874016Y158465D02*
D03*
X889764D02*
D03*
X903543D02*
D03*
X865158Y228346D02*
D03*
X883858Y165354D02*
D03*
X910433Y164370D02*
D03*
X692913Y182087D02*
D03*
X734252Y158465D02*
D03*
X713583Y184055D02*
D03*
X708661Y149606D02*
D03*
X729331Y184055D02*
D03*
X717520Y160433D02*
D03*
X703740Y205709D02*
D03*
X697835Y233268D02*
D03*
Y205709D02*
D03*
X693898Y235236D02*
D03*
Y210630D02*
D03*
X689961Y237205D02*
D03*
Y205709D02*
D03*
X686024Y239173D02*
D03*
Y210630D02*
D03*
X682087Y241142D02*
D03*
Y205709D02*
D03*
X678150Y243110D02*
D03*
Y210630D02*
D03*
X674213Y245079D02*
D03*
Y205709D02*
D03*
X670276Y247047D02*
D03*
Y210630D02*
D03*
X738189Y250000D02*
D03*
X736221Y226378D02*
D03*
X701772Y210630D02*
D03*
X709646Y158465D02*
D03*
X672244Y165354D02*
D03*
X705709Y214567D02*
D03*
X689961Y170276D02*
D03*
X708661Y176181D02*
D03*
X689961D02*
D03*
X673228Y158465D02*
D03*
X688976D02*
D03*
X702756D02*
D03*
X664370Y228346D02*
D03*
X683071Y165354D02*
D03*
X709646Y164370D02*
D03*
X492126Y182087D02*
D03*
X533464Y158465D02*
D03*
X512795Y184055D02*
D03*
X507874Y149606D02*
D03*
X528543Y184055D02*
D03*
X516732Y160433D02*
D03*
X502953Y205709D02*
D03*
X497047Y233268D02*
D03*
Y205709D02*
D03*
X493110Y235236D02*
D03*
Y210630D02*
D03*
X489173Y237205D02*
D03*
Y205709D02*
D03*
X485236Y239173D02*
D03*
Y210630D02*
D03*
X481299Y241142D02*
D03*
Y205709D02*
D03*
X477362Y243110D02*
D03*
Y210630D02*
D03*
X473425Y245079D02*
D03*
Y205709D02*
D03*
X469488Y247047D02*
D03*
Y210630D02*
D03*
X537402Y250000D02*
D03*
X500984Y210630D02*
D03*
X508858Y158465D02*
D03*
X471457Y165354D02*
D03*
X504921Y214567D02*
D03*
X489173Y170276D02*
D03*
X507874Y176181D02*
D03*
X489173D02*
D03*
X472441Y158465D02*
D03*
X488189D02*
D03*
X501968D02*
D03*
X463583Y228346D02*
D03*
X482283Y165354D02*
D03*
X508858Y164370D02*
D03*
X291339Y182087D02*
D03*
X332677Y158465D02*
D03*
X312008Y184055D02*
D03*
X307087Y149606D02*
D03*
X327756Y184055D02*
D03*
X315945Y160433D02*
D03*
X302165Y205709D02*
D03*
X296260Y233268D02*
D03*
Y205709D02*
D03*
X292323Y235236D02*
D03*
Y210630D02*
D03*
X288386Y237205D02*
D03*
Y205709D02*
D03*
X284449Y239173D02*
D03*
Y210630D02*
D03*
X280512Y241142D02*
D03*
Y205709D02*
D03*
X276575Y243110D02*
D03*
Y210630D02*
D03*
X272638Y245079D02*
D03*
Y205709D02*
D03*
X268701Y247047D02*
D03*
Y210630D02*
D03*
X336614Y250000D02*
D03*
X334646Y226378D02*
D03*
X300197Y210630D02*
D03*
X308071Y158465D02*
D03*
X270669Y165354D02*
D03*
X304134Y214567D02*
D03*
X288386Y170276D02*
D03*
X307087Y176181D02*
D03*
X288386D02*
D03*
X271654Y158465D02*
D03*
X287402D02*
D03*
X301181D02*
D03*
X262795Y228346D02*
D03*
X281496Y165354D02*
D03*
X308071Y164370D02*
D03*
X90551Y182087D02*
D03*
X131890Y158465D02*
D03*
X111221Y184055D02*
D03*
X106299Y149606D02*
D03*
X126968Y184055D02*
D03*
X115157Y160433D02*
D03*
X101378Y205709D02*
D03*
X95472Y233268D02*
D03*
Y205709D02*
D03*
X91535Y235236D02*
D03*
Y210630D02*
D03*
X87598Y237205D02*
D03*
Y205709D02*
D03*
X83661Y239173D02*
D03*
Y210630D02*
D03*
X79724Y241142D02*
D03*
Y205709D02*
D03*
X75787Y243110D02*
D03*
Y210630D02*
D03*
X71850Y245079D02*
D03*
Y205709D02*
D03*
X67913Y247047D02*
D03*
Y210630D02*
D03*
X135827Y250000D02*
D03*
X133858Y226378D02*
D03*
X99410Y210630D02*
D03*
X107283Y158465D02*
D03*
X69882Y165354D02*
D03*
X103347Y214567D02*
D03*
X87598Y170276D02*
D03*
X106299Y176181D02*
D03*
X87598D02*
D03*
X70866Y158465D02*
D03*
X86614D02*
D03*
X100394D02*
D03*
X62008Y228346D02*
D03*
X80709Y165354D02*
D03*
X107283Y164370D02*
D03*
X1511811Y149606D02*
D03*
X1512795Y158465D02*
D03*
X1532480Y184055D02*
D03*
X1520669Y160433D02*
D03*
X859252Y102362D02*
D03*
X825787Y102362D02*
D03*
X856299Y98425D02*
D03*
X852362D02*
D03*
X848425D02*
D03*
X844488D02*
D03*
X856299Y112205D02*
D03*
X852362D02*
D03*
X848425D02*
D03*
X844488D02*
D03*
X840551Y98425D02*
D03*
X836614D02*
D03*
X832677D02*
D03*
X828740D02*
D03*
X840551Y112205D02*
D03*
X828740D02*
D03*
X832677D02*
D03*
X836614D02*
D03*
X1512795Y164370D02*
D03*
X1537402Y158465D02*
D03*
X801181Y227362D02*
D03*
X797244D02*
D03*
X793307D02*
D03*
X773622D02*
D03*
X777559D02*
D03*
X781496D02*
D03*
X789370D02*
D03*
X785433D02*
D03*
X1001968Y248031D02*
D03*
X998032Y245079D02*
D03*
X994094Y242126D02*
D03*
X1001968Y221457D02*
D03*
X998032D02*
D03*
X994094D02*
D03*
X990158Y239173D02*
D03*
X986220Y236221D02*
D03*
X990158Y221457D02*
D03*
X974409D02*
D03*
X978347D02*
D03*
X982283D02*
D03*
X986220D02*
D03*
X982283Y233268D02*
D03*
X974409Y227362D02*
D03*
X978347Y230315D02*
D03*
X975394Y115157D02*
D03*
X969488D02*
D03*
X966535Y82677D02*
D03*
Y86614D02*
D03*
X979331Y82972D02*
D03*
X782480Y86614D02*
D03*
X778543Y87598D02*
D03*
X774606Y88583D02*
D03*
X770669Y89567D02*
D03*
X693898Y81693D02*
D03*
X701772Y85630D02*
D03*
X697835Y83661D02*
D03*
X705709Y88583D02*
D03*
X1511811Y176181D02*
D03*
X1493110D02*
D03*
X1492126Y158465D02*
D03*
X1505906D02*
D03*
X1476378D02*
D03*
X492126Y142717D02*
D03*
X1496063Y182087D02*
D03*
X1516732Y184055D02*
D03*
X1508858Y214567D02*
D03*
X1504921Y210630D02*
D03*
X1475394Y165354D02*
D03*
X1473425Y247047D02*
D03*
Y210630D02*
D03*
X1477362Y245079D02*
D03*
Y205709D02*
D03*
X1481299Y243110D02*
D03*
Y210630D02*
D03*
X1485236Y241142D02*
D03*
Y205709D02*
D03*
X1489173Y239173D02*
D03*
Y210630D02*
D03*
X1493110Y237205D02*
D03*
Y205709D02*
D03*
X1497047Y235236D02*
D03*
Y210630D02*
D03*
X1500984Y233268D02*
D03*
Y205709D02*
D03*
X1506890D02*
D03*
X1493110Y170276D02*
D03*
X1486220Y165354D02*
D03*
X578740Y59055D02*
D03*
X588583D02*
D03*
X598425D02*
D03*
X593504D02*
D03*
X599409Y70866D02*
D03*
X564567Y73032D02*
D03*
X500984Y47244D02*
D03*
X492126Y87598D02*
D03*
X486221Y101378D02*
D03*
X593110Y123228D02*
D03*
X564567Y78937D02*
D03*
X714567Y115157D02*
D03*
X726378D02*
D03*
X738189D02*
D03*
X750000D02*
D03*
X761811D02*
D03*
X713583Y70866D02*
D03*
X715551Y44291D02*
D03*
X709646D02*
D03*
X875984Y92520D02*
D03*
X33465Y48228D02*
D03*
X30512D02*
D03*
X27559D02*
D03*
X33465Y51181D02*
D03*
X30512D02*
D03*
X27559D02*
D03*
X51181Y109252D02*
D03*
X45276Y109252D02*
D03*
X48228D02*
D03*
X45276Y115157D02*
D03*
X13189Y92716D02*
D03*
Y89764D02*
D03*
X19094Y92716D02*
D03*
Y89764D02*
D03*
X16142D02*
D03*
Y92716D02*
D03*
X19094Y128150D02*
D03*
X16142D02*
D03*
X13189D02*
D03*
X19094Y131102D02*
D03*
X13189D02*
D03*
X16142D02*
D03*
X45276Y112205D02*
D03*
X51181Y115157D02*
D03*
Y112205D02*
D03*
X48228Y112205D02*
D03*
Y115157D02*
D03*
X74803Y59055D02*
D03*
X73819Y78740D02*
D03*
X1509842Y114173D02*
D03*
X1513780Y96457D02*
D03*
X1491142Y114280D02*
D03*
X1485236D02*
D03*
X1479331D02*
D03*
X1515748Y104437D02*
D03*
Y84752D02*
D03*
X195866Y107283D02*
D03*
Y111221D02*
D03*
Y115157D02*
D03*
Y120079D02*
D03*
Y124016D02*
D03*
Y127953D02*
D03*
X950787Y94685D02*
D03*
Y99606D02*
D03*
X953740Y102559D02*
D03*
Y106496D02*
D03*
X950787Y109449D02*
D03*
X916732Y74705D02*
D03*
X817913Y84646D02*
D03*
X820866Y87598D02*
D03*
X860236Y84646D02*
D03*
X862205Y87598D02*
D03*
X806102Y82677D02*
D03*
X830709Y92520D02*
D03*
X950787Y84842D02*
D03*
X953740Y87795D02*
D03*
Y91732D02*
D03*
X609252Y88583D02*
D03*
X624606Y77953D02*
D03*
X614764Y68110D02*
D03*
X622638Y70079D02*
D03*
X606496Y74803D02*
D03*
X618701Y86811D02*
D03*
X612795Y85827D02*
D03*
X605905Y79921D02*
D03*
X564370Y84646D02*
D03*
X590551Y67913D02*
D03*
X578740Y70866D02*
D03*
X575787Y77165D02*
D03*
X573032Y79823D02*
D03*
X575000Y82284D02*
D03*
X590551Y64961D02*
D03*
X704724Y50197D02*
D03*
X720472D02*
D03*
X755905Y80709D02*
D03*
Y84646D02*
D03*
Y88583D02*
D03*
X747047Y80709D02*
D03*
X744095Y84646D02*
D03*
X741142Y88583D02*
D03*
X720472Y80709D02*
D03*
X729331D02*
D03*
X732283Y84646D02*
D03*
X720472D02*
D03*
X735236Y88583D02*
D03*
X720472D02*
D03*
X212598Y75787D02*
D03*
X201772Y75787D02*
D03*
X218504Y75787D02*
D03*
X304134Y94488D02*
D03*
X300197D02*
D03*
X296260D02*
D03*
X291339D02*
D03*
X287402D02*
D03*
X283465D02*
D03*
X275590Y88583D02*
D03*
Y85630D02*
D03*
Y82677D02*
D03*
Y79724D02*
D03*
X313976Y104331D02*
D03*
X318898Y101378D02*
D03*
X311024Y99409D02*
D03*
X451378Y95472D02*
D03*
X422835Y121063D02*
D03*
X363779Y84646D02*
D03*
X352953Y87598D02*
D03*
X368701Y109252D02*
D03*
X380512Y83661D02*
D03*
X382480Y89567D02*
D03*
X383465Y121063D02*
D03*
X388386Y106299D02*
D03*
Y112205D02*
D03*
X447441Y112205D02*
D03*
Y106299D02*
D03*
X373622Y86614D02*
D03*
X369685Y87598D02*
D03*
X393307Y75787D02*
D03*
X388386Y72835D02*
D03*
Y78740D02*
D03*
X373622Y70866D02*
D03*
X360827Y106299D02*
D03*
X382480Y99409D02*
D03*
X435630Y87598D02*
D03*
X440551Y84646D02*
D03*
Y117126D02*
D03*
X357874Y87598D02*
D03*
X69882Y190945D02*
D03*
X77756D02*
D03*
X85630D02*
D03*
X93504D02*
D03*
D106*
X1540354Y92520D02*
D03*
Y96457D02*
D03*
Y100394D02*
D03*
Y104331D02*
D03*
Y108268D02*
D03*
Y88583D02*
D03*
Y84646D02*
D03*
Y80709D02*
D03*
Y76772D02*
D03*
Y72835D02*
D03*
D107*
X1551378Y120039D02*
D03*
Y61063D02*
D03*
D108*
X190354Y240748D02*
D03*
X180512D02*
D03*
D109*
X166339Y257283D02*
D03*
X204528D02*
D03*
D110*
X558583Y36024D02*
D03*
X568583D02*
D03*
X578583D02*
D03*
X588583D02*
D03*
X598583D02*
D03*
X608583D02*
D03*
X618583D02*
D03*
Y17126D02*
D03*
X608583D02*
D03*
X598583D02*
D03*
X588583D02*
D03*
X578583D02*
D03*
X568583D02*
D03*
X558583D02*
D03*
M02*
