G04*
G04 #@! TF.GenerationSoftware,Altium Limited,Altium Designer,18.0.7 (293)*
G04*
G04 Layer_Physical_Order=1*
G04 Layer_Color=255*
%FSLAX25Y25*%
%MOIN*%
G70*
G01*
G75*
%ADD10C,0.00591*%
G04:AMPARAMS|DCode=15|XSize=9.84mil|YSize=39.37mil|CornerRadius=4.92mil|HoleSize=0mil|Usage=FLASHONLY|Rotation=90.000|XOffset=0mil|YOffset=0mil|HoleType=Round|Shape=RoundedRectangle|*
%AMROUNDEDRECTD15*
21,1,0.00984,0.02953,0,0,90.0*
21,1,0.00000,0.03937,0,0,90.0*
1,1,0.00984,0.01476,0.00000*
1,1,0.00984,0.01476,0.00000*
1,1,0.00984,-0.01476,0.00000*
1,1,0.00984,-0.01476,0.00000*
%
%ADD15ROUNDEDRECTD15*%
G04:AMPARAMS|DCode=16|XSize=39.37mil|YSize=145.67mil|CornerRadius=3.94mil|HoleSize=0mil|Usage=FLASHONLY|Rotation=180.000|XOffset=0mil|YOffset=0mil|HoleType=Round|Shape=RoundedRectangle|*
%AMROUNDEDRECTD16*
21,1,0.03937,0.13780,0,0,180.0*
21,1,0.03150,0.14567,0,0,180.0*
1,1,0.00787,-0.01575,0.06890*
1,1,0.00787,0.01575,0.06890*
1,1,0.00787,0.01575,-0.06890*
1,1,0.00787,-0.01575,-0.06890*
%
%ADD16ROUNDEDRECTD16*%
G04:AMPARAMS|DCode=17|XSize=19.68mil|YSize=78.74mil|CornerRadius=9.84mil|HoleSize=0mil|Usage=FLASHONLY|Rotation=90.000|XOffset=0mil|YOffset=0mil|HoleType=Round|Shape=RoundedRectangle|*
%AMROUNDEDRECTD17*
21,1,0.01968,0.05906,0,0,90.0*
21,1,0.00000,0.07874,0,0,90.0*
1,1,0.01968,0.02953,0.00000*
1,1,0.01968,0.02953,0.00000*
1,1,0.01968,-0.02953,0.00000*
1,1,0.01968,-0.02953,0.00000*
%
%ADD17ROUNDEDRECTD17*%
G04:AMPARAMS|DCode=18|XSize=105.51mil|YSize=141.73mil|CornerRadius=26.38mil|HoleSize=0mil|Usage=FLASHONLY|Rotation=90.000|XOffset=0mil|YOffset=0mil|HoleType=Round|Shape=RoundedRectangle|*
%AMROUNDEDRECTD18*
21,1,0.10551,0.08898,0,0,90.0*
21,1,0.05276,0.14173,0,0,90.0*
1,1,0.05276,0.04449,0.02638*
1,1,0.05276,0.04449,-0.02638*
1,1,0.05276,-0.04449,-0.02638*
1,1,0.05276,-0.04449,0.02638*
%
%ADD18ROUNDEDRECTD18*%
G04:AMPARAMS|DCode=19|XSize=31.5mil|YSize=31.5mil|CornerRadius=7.87mil|HoleSize=0mil|Usage=FLASHONLY|Rotation=90.000|XOffset=0mil|YOffset=0mil|HoleType=Round|Shape=RoundedRectangle|*
%AMROUNDEDRECTD19*
21,1,0.03150,0.01575,0,0,90.0*
21,1,0.01575,0.03150,0,0,90.0*
1,1,0.01575,0.00787,0.00787*
1,1,0.01575,0.00787,-0.00787*
1,1,0.01575,-0.00787,-0.00787*
1,1,0.01575,-0.00787,0.00787*
%
%ADD19ROUNDEDRECTD19*%
G04:AMPARAMS|DCode=20|XSize=31.5mil|YSize=31.5mil|CornerRadius=7.87mil|HoleSize=0mil|Usage=FLASHONLY|Rotation=0.000|XOffset=0mil|YOffset=0mil|HoleType=Round|Shape=RoundedRectangle|*
%AMROUNDEDRECTD20*
21,1,0.03150,0.01575,0,0,0.0*
21,1,0.01575,0.03150,0,0,0.0*
1,1,0.01575,0.00787,-0.00787*
1,1,0.01575,-0.00787,-0.00787*
1,1,0.01575,-0.00787,0.00787*
1,1,0.01575,0.00787,0.00787*
%
%ADD20ROUNDEDRECTD20*%
G04:AMPARAMS|DCode=21|XSize=39.37mil|YSize=35.43mil|CornerRadius=8.86mil|HoleSize=0mil|Usage=FLASHONLY|Rotation=270.000|XOffset=0mil|YOffset=0mil|HoleType=Round|Shape=RoundedRectangle|*
%AMROUNDEDRECTD21*
21,1,0.03937,0.01772,0,0,270.0*
21,1,0.02165,0.03543,0,0,270.0*
1,1,0.01772,-0.00886,-0.01083*
1,1,0.01772,-0.00886,0.01083*
1,1,0.01772,0.00886,0.01083*
1,1,0.01772,0.00886,-0.01083*
%
%ADD21ROUNDEDRECTD21*%
G04:AMPARAMS|DCode=22|XSize=39.37mil|YSize=35.43mil|CornerRadius=8.86mil|HoleSize=0mil|Usage=FLASHONLY|Rotation=180.000|XOffset=0mil|YOffset=0mil|HoleType=Round|Shape=RoundedRectangle|*
%AMROUNDEDRECTD22*
21,1,0.03937,0.01772,0,0,180.0*
21,1,0.02165,0.03543,0,0,180.0*
1,1,0.01772,-0.01083,0.00886*
1,1,0.01772,0.01083,0.00886*
1,1,0.01772,0.01083,-0.00886*
1,1,0.01772,-0.01083,-0.00886*
%
%ADD22ROUNDEDRECTD22*%
%ADD23O,0.01968X0.03937*%
G04:AMPARAMS|DCode=24|XSize=39.37mil|YSize=19.68mil|CornerRadius=4.92mil|HoleSize=0mil|Usage=FLASHONLY|Rotation=90.000|XOffset=0mil|YOffset=0mil|HoleType=Round|Shape=RoundedRectangle|*
%AMROUNDEDRECTD24*
21,1,0.03937,0.00984,0,0,90.0*
21,1,0.02953,0.01968,0,0,90.0*
1,1,0.00984,0.00492,0.01476*
1,1,0.00984,0.00492,-0.01476*
1,1,0.00984,-0.00492,-0.01476*
1,1,0.00984,-0.00492,0.01476*
%
%ADD24ROUNDEDRECTD24*%
G04:AMPARAMS|DCode=25|XSize=47.24mil|YSize=125.98mil|CornerRadius=11.81mil|HoleSize=0mil|Usage=FLASHONLY|Rotation=90.000|XOffset=0mil|YOffset=0mil|HoleType=Round|Shape=RoundedRectangle|*
%AMROUNDEDRECTD25*
21,1,0.04724,0.10236,0,0,90.0*
21,1,0.02362,0.12598,0,0,90.0*
1,1,0.02362,0.05118,0.01181*
1,1,0.02362,0.05118,-0.01181*
1,1,0.02362,-0.05118,-0.01181*
1,1,0.02362,-0.05118,0.01181*
%
%ADD25ROUNDEDRECTD25*%
G04:AMPARAMS|DCode=26|XSize=86.61mil|YSize=220.47mil|CornerRadius=21.65mil|HoleSize=0mil|Usage=FLASHONLY|Rotation=90.000|XOffset=0mil|YOffset=0mil|HoleType=Round|Shape=RoundedRectangle|*
%AMROUNDEDRECTD26*
21,1,0.08661,0.17717,0,0,90.0*
21,1,0.04331,0.22047,0,0,90.0*
1,1,0.04331,0.08858,0.02165*
1,1,0.04331,0.08858,-0.02165*
1,1,0.04331,-0.08858,-0.02165*
1,1,0.04331,-0.08858,0.02165*
%
%ADD26ROUNDEDRECTD26*%
G04:AMPARAMS|DCode=27|XSize=17.72mil|YSize=35.43mil|CornerRadius=4.43mil|HoleSize=0mil|Usage=FLASHONLY|Rotation=0.000|XOffset=0mil|YOffset=0mil|HoleType=Round|Shape=RoundedRectangle|*
%AMROUNDEDRECTD27*
21,1,0.01772,0.02657,0,0,0.0*
21,1,0.00886,0.03543,0,0,0.0*
1,1,0.00886,0.00443,-0.01329*
1,1,0.00886,-0.00443,-0.01329*
1,1,0.00886,-0.00443,0.01329*
1,1,0.00886,0.00443,0.01329*
%
%ADD27ROUNDEDRECTD27*%
G04:AMPARAMS|DCode=28|XSize=13.78mil|YSize=43.31mil|CornerRadius=6.89mil|HoleSize=0mil|Usage=FLASHONLY|Rotation=90.000|XOffset=0mil|YOffset=0mil|HoleType=Round|Shape=RoundedRectangle|*
%AMROUNDEDRECTD28*
21,1,0.01378,0.02953,0,0,90.0*
21,1,0.00000,0.04331,0,0,90.0*
1,1,0.01378,0.01476,0.00000*
1,1,0.01378,0.01476,0.00000*
1,1,0.01378,-0.01476,0.00000*
1,1,0.01378,-0.01476,0.00000*
%
%ADD28ROUNDEDRECTD28*%
G04:AMPARAMS|DCode=29|XSize=13.78mil|YSize=43.31mil|CornerRadius=6.89mil|HoleSize=0mil|Usage=FLASHONLY|Rotation=180.000|XOffset=0mil|YOffset=0mil|HoleType=Round|Shape=RoundedRectangle|*
%AMROUNDEDRECTD29*
21,1,0.01378,0.02953,0,0,180.0*
21,1,0.00000,0.04331,0,0,180.0*
1,1,0.01378,0.00000,0.01476*
1,1,0.01378,0.00000,0.01476*
1,1,0.01378,0.00000,-0.01476*
1,1,0.01378,0.00000,-0.01476*
%
%ADD29ROUNDEDRECTD29*%
G04:AMPARAMS|DCode=30|XSize=98.43mil|YSize=47.24mil|CornerRadius=11.81mil|HoleSize=0mil|Usage=FLASHONLY|Rotation=270.000|XOffset=0mil|YOffset=0mil|HoleType=Round|Shape=RoundedRectangle|*
%AMROUNDEDRECTD30*
21,1,0.09843,0.02362,0,0,270.0*
21,1,0.07480,0.04724,0,0,270.0*
1,1,0.02362,-0.01181,-0.03740*
1,1,0.02362,-0.01181,0.03740*
1,1,0.02362,0.01181,0.03740*
1,1,0.02362,0.01181,-0.03740*
%
%ADD30ROUNDEDRECTD30*%
G04:AMPARAMS|DCode=31|XSize=21.65mil|YSize=43.31mil|CornerRadius=5.41mil|HoleSize=0mil|Usage=FLASHONLY|Rotation=90.000|XOffset=0mil|YOffset=0mil|HoleType=Round|Shape=RoundedRectangle|*
%AMROUNDEDRECTD31*
21,1,0.02165,0.03248,0,0,90.0*
21,1,0.01083,0.04331,0,0,90.0*
1,1,0.01083,0.01624,0.00541*
1,1,0.01083,0.01624,-0.00541*
1,1,0.01083,-0.01624,-0.00541*
1,1,0.01083,-0.01624,0.00541*
%
%ADD31ROUNDEDRECTD31*%
G04:AMPARAMS|DCode=32|XSize=27.56mil|YSize=59.06mil|CornerRadius=6.89mil|HoleSize=0mil|Usage=FLASHONLY|Rotation=90.000|XOffset=0mil|YOffset=0mil|HoleType=Round|Shape=RoundedRectangle|*
%AMROUNDEDRECTD32*
21,1,0.02756,0.04528,0,0,90.0*
21,1,0.01378,0.05906,0,0,90.0*
1,1,0.01378,0.02264,0.00689*
1,1,0.01378,0.02264,-0.00689*
1,1,0.01378,-0.02264,-0.00689*
1,1,0.01378,-0.02264,0.00689*
%
%ADD32ROUNDEDRECTD32*%
G04:AMPARAMS|DCode=33|XSize=27.56mil|YSize=59.06mil|CornerRadius=6.89mil|HoleSize=0mil|Usage=FLASHONLY|Rotation=0.000|XOffset=0mil|YOffset=0mil|HoleType=Round|Shape=RoundedRectangle|*
%AMROUNDEDRECTD33*
21,1,0.02756,0.04528,0,0,0.0*
21,1,0.01378,0.05906,0,0,0.0*
1,1,0.01378,0.00689,-0.02264*
1,1,0.01378,-0.00689,-0.02264*
1,1,0.01378,-0.00689,0.02264*
1,1,0.01378,0.00689,0.02264*
%
%ADD33ROUNDEDRECTD33*%
G04:AMPARAMS|DCode=34|XSize=157.48mil|YSize=157.48mil|CornerRadius=7.87mil|HoleSize=0mil|Usage=FLASHONLY|Rotation=90.000|XOffset=0mil|YOffset=0mil|HoleType=Round|Shape=RoundedRectangle|*
%AMROUNDEDRECTD34*
21,1,0.15748,0.14173,0,0,90.0*
21,1,0.14173,0.15748,0,0,90.0*
1,1,0.01575,0.07087,0.07087*
1,1,0.01575,0.07087,-0.07087*
1,1,0.01575,-0.07087,-0.07087*
1,1,0.01575,-0.07087,0.07087*
%
%ADD34ROUNDEDRECTD34*%
%ADD35C,0.05906*%
G04:AMPARAMS|DCode=36|XSize=62.99mil|YSize=94.49mil|CornerRadius=31.5mil|HoleSize=0mil|Usage=FLASHONLY|Rotation=180.000|XOffset=0mil|YOffset=0mil|HoleType=Round|Shape=RoundedRectangle|*
%AMROUNDEDRECTD36*
21,1,0.06299,0.03150,0,0,180.0*
21,1,0.00000,0.09449,0,0,180.0*
1,1,0.06299,0.00000,0.01575*
1,1,0.06299,0.00000,0.01575*
1,1,0.06299,0.00000,-0.01575*
1,1,0.06299,0.00000,-0.01575*
%
%ADD36ROUNDEDRECTD36*%
G04:AMPARAMS|DCode=37|XSize=62.99mil|YSize=94.49mil|CornerRadius=6.3mil|HoleSize=0mil|Usage=FLASHONLY|Rotation=180.000|XOffset=0mil|YOffset=0mil|HoleType=Round|Shape=RoundedRectangle|*
%AMROUNDEDRECTD37*
21,1,0.06299,0.08189,0,0,180.0*
21,1,0.05039,0.09449,0,0,180.0*
1,1,0.01260,-0.02520,0.04095*
1,1,0.01260,0.02520,0.04095*
1,1,0.01260,0.02520,-0.04095*
1,1,0.01260,-0.02520,-0.04095*
%
%ADD37ROUNDEDRECTD37*%
%ADD39C,0.00984*%
%ADD40C,0.02362*%
%ADD41C,0.00787*%
%ADD42C,0.01181*%
%ADD43C,0.01968*%
%ADD44C,0.02756*%
%ADD45C,0.01575*%
%ADD46C,0.20866*%
%ADD47C,0.02362*%
G36*
X185142Y274433D02*
X185869Y274132D01*
X186524Y273695D01*
X187081Y273138D01*
X187518Y272484D01*
X187819Y271756D01*
X187973Y270984D01*
Y270590D01*
Y5000D01*
Y4606D01*
X187819Y3834D01*
X187518Y3107D01*
X187081Y2452D01*
X186524Y1896D01*
X185869Y1458D01*
X185142Y1157D01*
X184370Y1003D01*
X3648D01*
X3081Y1116D01*
X2547Y1337D01*
X2067Y1658D01*
X1658Y2067D01*
X1337Y2547D01*
X1116Y3081D01*
X1003Y3648D01*
Y3937D01*
Y182848D01*
X1633Y183364D01*
X2972Y184077D01*
X3248Y184022D01*
X4626D01*
X5279Y184152D01*
X5832Y184522D01*
X5979D01*
X6532Y184152D01*
X7185Y184022D01*
X7295D01*
X7799Y183616D01*
X8718Y182307D01*
X8735Y182125D01*
Y178060D01*
X8568Y177948D01*
X8252Y177476D01*
X8141Y176919D01*
Y174262D01*
X8252Y173705D01*
X8568Y173233D01*
X9040Y172917D01*
X9596Y172807D01*
X10482D01*
X11039Y172917D01*
X11511Y173233D01*
X11717D01*
X12189Y172917D01*
X12746Y172807D01*
X13632D01*
X14189Y172917D01*
X14661Y173233D01*
X14867D01*
X15339Y172917D01*
X15896Y172807D01*
X16781D01*
X17338Y172917D01*
X17810Y173233D01*
X18016D01*
X18488Y172917D01*
X19045Y172807D01*
X19931D01*
X20488Y172917D01*
X20960Y173233D01*
X21275Y173705D01*
X21386Y174262D01*
Y176919D01*
X21275Y177476D01*
X20960Y177948D01*
X20793Y178060D01*
Y188097D01*
X21246Y188400D01*
X21725Y189116D01*
X21893Y189961D01*
X21725Y190805D01*
X21246Y191522D01*
X20530Y192000D01*
X19685Y192168D01*
X18840Y192000D01*
X18124Y191522D01*
X17645Y190805D01*
X15614Y190682D01*
X15432Y190760D01*
X14857Y191681D01*
X14835Y191790D01*
X14356Y192506D01*
X14226Y192593D01*
X14823Y194562D01*
X30512D01*
X31011Y194661D01*
X31434Y194944D01*
X34522Y198031D01*
X36491Y197216D01*
Y174162D01*
X6951Y144623D01*
X6669Y144200D01*
X6569Y143701D01*
Y60039D01*
X6669Y59540D01*
X6951Y59117D01*
X27621Y38448D01*
X28044Y38165D01*
X28543Y38065D01*
X68181D01*
Y35482D01*
X68291Y34925D01*
X68510Y34598D01*
X68607Y34291D01*
Y33756D01*
X66934Y31925D01*
X63583D01*
X62891Y31787D01*
X62305Y31395D01*
X58211Y27301D01*
X57819Y26715D01*
X57682Y26024D01*
Y24789D01*
X57403Y24674D01*
X56540Y24011D01*
X55877Y23148D01*
X55461Y22142D01*
X53516D01*
X53099Y23148D01*
X52437Y24011D01*
X51573Y24674D01*
X50567Y25091D01*
X49488Y25232D01*
X48409Y25091D01*
X47403Y24674D01*
X46540Y24011D01*
X45877Y23148D01*
X45461Y22142D01*
X45319Y21063D01*
Y17913D01*
X45461Y16834D01*
X45877Y15829D01*
X46540Y14965D01*
X47403Y14302D01*
X48409Y13886D01*
X49488Y13744D01*
X50567Y13886D01*
X51573Y14302D01*
X52437Y14965D01*
X53099Y15829D01*
X53516Y16834D01*
X55461D01*
X55877Y15829D01*
X56540Y14965D01*
X57403Y14302D01*
X58409Y13886D01*
X59488Y13744D01*
X60567Y13886D01*
X61573Y14302D01*
X62436Y14965D01*
X63099Y15829D01*
X63516Y16834D01*
X65461D01*
X65877Y15829D01*
X66540Y14965D01*
X67403Y14302D01*
X68409Y13886D01*
X69488Y13744D01*
X70567Y13886D01*
X71573Y14302D01*
X72436Y14965D01*
X73099Y15829D01*
X73516Y16834D01*
X75461D01*
X75877Y15829D01*
X76540Y14965D01*
X77403Y14302D01*
X78409Y13886D01*
X79488Y13744D01*
X80567Y13886D01*
X81573Y14302D01*
X82437Y14965D01*
X83099Y15829D01*
X83516Y16834D01*
X85461D01*
X85877Y15829D01*
X86540Y14965D01*
X87403Y14302D01*
X88409Y13886D01*
X89488Y13744D01*
X90567Y13886D01*
X91573Y14302D01*
X92436Y14965D01*
X93099Y15829D01*
X93516Y16834D01*
X95461D01*
X95877Y15829D01*
X96540Y14965D01*
X97403Y14302D01*
X98409Y13886D01*
X99488Y13744D01*
X100567Y13886D01*
X101573Y14302D01*
X102436Y14965D01*
X103099Y15829D01*
X103516Y16834D01*
X105461D01*
X105877Y15829D01*
X106540Y14965D01*
X107403Y14302D01*
X108409Y13886D01*
X109488Y13744D01*
X110567Y13886D01*
X111573Y14302D01*
X112436Y14965D01*
X113099Y15829D01*
X113516Y16834D01*
X115461D01*
X115877Y15829D01*
X116540Y14965D01*
X117403Y14302D01*
X118409Y13886D01*
X119488Y13744D01*
X120567Y13886D01*
X121573Y14302D01*
X122436Y14965D01*
X123099Y15829D01*
X123516Y16834D01*
X125461D01*
X125877Y15829D01*
X126540Y14965D01*
X127403Y14302D01*
X128409Y13886D01*
X129488Y13744D01*
X130567Y13886D01*
X131573Y14302D01*
X132437Y14965D01*
X133099Y15829D01*
X133354Y16444D01*
X135323Y16053D01*
Y15394D01*
X135448Y14764D01*
X135805Y14230D01*
X136339Y13873D01*
X136969Y13748D01*
X142008D01*
X142638Y13873D01*
X143172Y14230D01*
X143528Y14764D01*
X143654Y15394D01*
Y23583D01*
X143528Y24213D01*
X143172Y24746D01*
X142638Y25103D01*
X142008Y25229D01*
X141696D01*
Y28502D01*
X141724Y28543D01*
X141861Y29235D01*
Y30809D01*
X141724Y31501D01*
X141475Y31872D01*
Y33961D01*
X141307Y34806D01*
X140828Y35522D01*
X111797Y64553D01*
X111081Y65032D01*
X110236Y65200D01*
X61938D01*
X56679Y70459D01*
X55963Y70937D01*
X55118Y71105D01*
X41269D01*
X27798Y84576D01*
Y131959D01*
X30266Y134427D01*
X31394Y134088D01*
X32160Y133537D01*
Y88583D01*
X32259Y88083D01*
X32542Y87660D01*
X44353Y75849D01*
X44776Y75566D01*
X45276Y75467D01*
X54607D01*
X54683Y75352D01*
X55334Y74917D01*
X56102Y74765D01*
X62008D01*
X62776Y74917D01*
X63427Y75352D01*
X63504Y75467D01*
X125473D01*
X125549Y75352D01*
X126200Y74917D01*
X126969Y74765D01*
X132874D01*
X133642Y74917D01*
X134293Y75352D01*
X134728Y76004D01*
X134881Y76772D01*
X134728Y77540D01*
X134293Y78191D01*
X133642Y78626D01*
X132874Y78779D01*
X126969D01*
X126200Y78626D01*
X125549Y78191D01*
X125473Y78076D01*
X63504D01*
X63427Y78191D01*
X62776Y78626D01*
X62008Y78779D01*
X56102D01*
X55334Y78626D01*
X54683Y78191D01*
X54607Y78076D01*
X45816D01*
X34769Y89123D01*
Y133318D01*
X55371Y153920D01*
X57319Y153288D01*
X57446Y151811D01*
X38448Y132812D01*
X38165Y132389D01*
X38065Y131890D01*
Y91535D01*
X38165Y91036D01*
X38448Y90613D01*
X45337Y83723D01*
X45761Y83440D01*
X46260Y83341D01*
X54607D01*
X54683Y83227D01*
X55334Y82791D01*
X56102Y82639D01*
X62008D01*
X62776Y82791D01*
X63427Y83227D01*
X63504Y83341D01*
X125473D01*
X125549Y83227D01*
X126200Y82791D01*
X126969Y82639D01*
X132874D01*
X133642Y82791D01*
X134293Y83227D01*
X134728Y83878D01*
X134881Y84646D01*
X134728Y85414D01*
X134293Y86065D01*
X133642Y86500D01*
X132874Y86653D01*
X126969D01*
X126200Y86500D01*
X125549Y86065D01*
X125473Y85950D01*
X63504D01*
X63427Y86065D01*
X62776Y86500D01*
X62008Y86653D01*
X56102D01*
X55334Y86500D01*
X54683Y86065D01*
X54607Y85950D01*
X46800D01*
X40675Y92076D01*
Y131349D01*
X59061Y149736D01*
X60422Y150976D01*
X61163Y150519D01*
X61163Y150519D01*
X62008Y150351D01*
X65518D01*
Y150295D01*
X65648Y149642D01*
X66018Y149089D01*
X66572Y148719D01*
X67224Y148589D01*
X68602D01*
X70219Y147595D01*
X70546Y147214D01*
Y144357D01*
X68898Y142751D01*
X67870Y142615D01*
X66912Y142218D01*
X66090Y141587D01*
X65459Y140765D01*
X65062Y139807D01*
X64927Y138779D01*
X65062Y137752D01*
X65459Y136794D01*
X66090Y135972D01*
X66912Y135341D01*
X67870Y134944D01*
X68898Y134809D01*
X69925Y134944D01*
X70883Y135341D01*
X71706Y135972D01*
X71907Y136234D01*
X72613Y136327D01*
X73884Y136184D01*
X74094Y136101D01*
X81968Y128227D01*
X82293Y128010D01*
X82677Y127934D01*
X90551D01*
X90935Y128010D01*
X91261Y128227D01*
X91602Y128569D01*
X91876Y128623D01*
X92332Y128928D01*
X92383Y129004D01*
X93957Y129462D01*
X94668Y129504D01*
X95944Y128227D01*
X96270Y128010D01*
X96653Y127934D01*
X102470D01*
X102854Y128010D01*
X103179Y128227D01*
X103397Y128553D01*
X103473Y128937D01*
Y143790D01*
X103397Y144174D01*
X103179Y144500D01*
X102284Y145395D01*
X101959Y145612D01*
X101672Y145669D01*
D01*
X101575Y145689D01*
X92940Y145688D01*
X92846Y145670D01*
X92751Y145671D01*
X92656Y145632D01*
X92555Y145612D01*
X92476Y145559D01*
X92388Y145523D01*
X92315Y145451D01*
X92230Y145395D01*
X90955Y145593D01*
X90570Y145669D01*
X84745Y145669D01*
D01*
X84646D01*
Y145669D01*
X84646D01*
X84549Y145689D01*
X84077D01*
X82696Y147069D01*
Y156496D01*
X82620Y156880D01*
X82402Y157206D01*
X82083Y157526D01*
X82918Y158969D01*
X83159Y159233D01*
X83742D01*
X83858Y159210D01*
X83975Y159233D01*
X86892D01*
X87008Y159210D01*
X87124Y159233D01*
X87402D01*
X87786Y159309D01*
X88111Y159527D01*
X88182Y159598D01*
X88569Y159856D01*
X88827Y160243D01*
D01*
X88899Y160314D01*
X89116Y160640D01*
X89192Y161024D01*
Y161043D01*
Y161301D01*
X89216Y161417D01*
X89192Y161534D01*
Y164469D01*
X89116Y164852D01*
X88899Y165178D01*
X88297Y165780D01*
X88283Y165849D01*
X88100Y166123D01*
X87981Y166377D01*
X88103Y166943D01*
X88661Y168288D01*
X89600D01*
X89697Y168307D01*
X89796D01*
X89887Y168345D01*
X89984Y168364D01*
X90048Y168407D01*
X90743Y168546D01*
X90745Y168546D01*
X90747Y168546D01*
X90747Y168546D01*
X90754Y168549D01*
X90838Y168584D01*
X90936Y168603D01*
X91017Y168657D01*
X91107Y168694D01*
X91178Y168765D01*
X91255Y168816D01*
X91262Y168821D01*
X91732Y169291D01*
X92295D01*
X92814Y169528D01*
X93486Y169291D01*
X93597D01*
X93720Y169209D01*
X94488Y169056D01*
X95256Y169209D01*
X95301Y169239D01*
X95380Y169291D01*
X95380D01*
X95907Y169644D01*
X96809Y169644D01*
X97337Y169291D01*
X97337D01*
X97460Y169209D01*
X98228Y169056D01*
X98996Y169209D01*
X99648Y169644D01*
X100083Y170295D01*
X100235Y171063D01*
Y173031D01*
X100083Y173800D01*
X99648Y174451D01*
X99506Y174545D01*
X99434Y174909D01*
X99151Y175332D01*
X98363Y176119D01*
X99339Y177835D01*
X99648Y178218D01*
X100837D01*
X101432Y178337D01*
X101936Y178674D01*
X102274Y179178D01*
X102392Y179774D01*
Y180856D01*
X102274Y181452D01*
X101936Y181956D01*
X101432Y182293D01*
X100837Y182412D01*
X97589D01*
X96993Y182293D01*
X96489Y181956D01*
X96152Y181452D01*
X96033Y180856D01*
Y179774D01*
X96152Y179178D01*
X96489Y178674D01*
X95680Y176846D01*
X95431Y176516D01*
X93545D01*
X93296Y176846D01*
X92488Y178674D01*
X92825Y179178D01*
X92943Y179774D01*
Y180856D01*
X92825Y181452D01*
X92488Y181956D01*
X91983Y182293D01*
X91388Y182412D01*
X88140D01*
X87545Y182293D01*
X87040Y181956D01*
X86703Y181452D01*
X86584Y180856D01*
Y179774D01*
X86322Y179454D01*
X81249D01*
X80045Y180658D01*
Y183793D01*
X80544Y184163D01*
X82013Y184665D01*
X82183Y184552D01*
X82193Y184550D01*
D01*
X82874Y184414D01*
X84449D01*
X85140Y184552D01*
X85726Y184943D01*
X86118Y185529D01*
X86169Y185788D01*
X87689D01*
X88140Y185698D01*
X91388D01*
X91983Y185817D01*
X92488Y186154D01*
X92825Y186659D01*
X92943Y187254D01*
Y188337D01*
X92825Y188932D01*
X92488Y189436D01*
X91983Y189774D01*
X91388Y189892D01*
X88140D01*
X87838Y189832D01*
X85874Y189960D01*
X85869Y189961D01*
X85701Y190805D01*
X85223Y191522D01*
X84506Y192000D01*
X83661Y192168D01*
X82816Y192000D01*
X82100Y191522D01*
X81622Y190805D01*
X81454Y189961D01*
Y188858D01*
X81205Y188487D01*
X81170Y188312D01*
X79724D01*
X79225Y188213D01*
X78802Y187930D01*
X77818Y186946D01*
X77535Y186523D01*
X77436Y186024D01*
Y180118D01*
X77445Y180073D01*
X77395Y179253D01*
X76854Y177841D01*
X76755Y177701D01*
X76600Y177628D01*
X74975D01*
X74626Y177792D01*
X74253Y178041D01*
X73524Y178186D01*
X71752D01*
X71022Y178041D01*
X71022Y178041D01*
X70241Y177714D01*
X68862Y178446D01*
X68209Y178576D01*
X63681D01*
X63028Y178446D01*
X62475Y178076D01*
X62328Y177857D01*
X60779Y178025D01*
X60360Y178184D01*
Y187452D01*
X64961Y192053D01*
X66328Y190685D01*
X66046Y190004D01*
X65911Y188976D01*
X66046Y187949D01*
X66443Y186991D01*
X67074Y186169D01*
X67896Y185537D01*
X68854Y185141D01*
X69882Y185005D01*
X70910Y185141D01*
X71867Y185537D01*
X72690Y186169D01*
X73321Y186991D01*
X73718Y187949D01*
X73853Y188976D01*
X73718Y190004D01*
X73321Y190962D01*
X72690Y191784D01*
X71867Y192415D01*
X70910Y192812D01*
X69882Y192947D01*
X68854Y192812D01*
X68173Y192530D01*
X66806Y193898D01*
X71548Y198640D01*
X71850Y198580D01*
X72695Y198748D01*
X73412Y199226D01*
X73583Y199483D01*
X92307D01*
X92436Y199397D01*
X93012Y199282D01*
X95965D01*
X96541Y199397D01*
D01*
X97029Y199723D01*
X97029Y199723D01*
D01*
X97355Y200211D01*
X97470Y200787D01*
X97355Y201363D01*
X97355Y201363D01*
X97083Y201772D01*
X97355Y202180D01*
X97470Y202756D01*
X97355Y203332D01*
X97083Y203740D01*
X97355Y204148D01*
X97470Y204724D01*
X97355Y205300D01*
X97121Y205651D01*
X98151Y206680D01*
X98368Y207006D01*
X98425Y207293D01*
D01*
X98444Y207390D01*
X98444Y213946D01*
X108248D01*
X108248Y207677D01*
X108325Y207293D01*
X108542Y206967D01*
X109324Y206186D01*
X109338Y206117D01*
X109610Y205709D01*
X109338Y205300D01*
X109223Y204724D01*
X109338Y204148D01*
X109610Y203740D01*
X109338Y203332D01*
X109223Y202756D01*
X109338Y202180D01*
X109610Y201772D01*
X109338Y201363D01*
X109223Y200787D01*
X109338Y200211D01*
X109610Y199803D01*
X109338Y199395D01*
X109223Y198819D01*
X109338Y198243D01*
X109664Y197755D01*
X110152Y197428D01*
X110728Y197314D01*
X113681D01*
X114216Y197420D01*
X118471D01*
X125904Y189987D01*
X126392Y189661D01*
X126969Y189546D01*
X134619D01*
X134633Y189540D01*
X136184Y188091D01*
Y185925D01*
X136329Y185196D01*
X136742Y184577D01*
X137361Y184164D01*
X138091Y184019D01*
X139862D01*
X140592Y184164D01*
X141210Y184577D01*
X141624Y185196D01*
X141706Y185609D01*
X141732D01*
X142308Y185724D01*
X142702Y185987D01*
X144783D01*
X145513Y186132D01*
X146132Y186545D01*
X146217Y186674D01*
X148186Y186091D01*
Y185827D01*
X148354Y184982D01*
X148833Y184266D01*
X149549Y183787D01*
X150394Y183619D01*
X160630D01*
X161475Y183787D01*
X162191Y184266D01*
X162670Y184982D01*
X162838Y185827D01*
Y188189D01*
X162670Y189034D01*
X162191Y189750D01*
X161475Y190229D01*
X160630Y190397D01*
X151406D01*
X149793Y192009D01*
X149788Y192057D01*
X151192Y193462D01*
X160630D01*
X161475Y193630D01*
X162191Y194108D01*
X162670Y194824D01*
X162838Y195669D01*
Y198031D01*
X162670Y198876D01*
X162191Y199593D01*
X161475Y200071D01*
X160630Y200239D01*
X150394D01*
X149549Y200071D01*
X148833Y199593D01*
X148354Y198876D01*
X148186Y198031D01*
Y197767D01*
X146217Y197185D01*
X146132Y197313D01*
X145513Y197726D01*
X144783Y197871D01*
X142618D01*
X141624Y198663D01*
X141210Y199281D01*
X140592Y199695D01*
X139862Y199840D01*
X138091D01*
X137361Y199695D01*
X136989Y199446D01*
X136639Y199281D01*
X135015D01*
X134665Y199446D01*
X134293Y199695D01*
X133563Y199840D01*
X131791D01*
X131062Y199695D01*
X129514Y200380D01*
X128798Y200859D01*
X127953Y201027D01*
X127108Y200859D01*
X126392Y200380D01*
X125969Y199748D01*
X125887Y199657D01*
X123835Y199097D01*
X121054Y201878D01*
X128407Y209231D01*
X134619D01*
X134633Y209225D01*
X136184Y207776D01*
Y205610D01*
X136329Y204881D01*
X136742Y204262D01*
X137361Y203849D01*
X138091Y203703D01*
X139862D01*
X140592Y203849D01*
X141210Y204262D01*
X141624Y204881D01*
X141706Y205294D01*
X142035D01*
X142612Y205409D01*
X143006Y205672D01*
X144783D01*
X145513Y205817D01*
X146132Y206230D01*
X146217Y206359D01*
X148186Y205776D01*
Y205512D01*
X148354Y204667D01*
X148833Y203951D01*
X149549Y203472D01*
X150394Y203304D01*
X160630D01*
X161475Y203472D01*
X162191Y203951D01*
X162670Y204667D01*
X162838Y205512D01*
Y207874D01*
X162670Y208719D01*
X162191Y209435D01*
X161475Y209914D01*
X160630Y210082D01*
X151406D01*
X149767Y211721D01*
X151192Y213147D01*
X160630D01*
X161475Y213315D01*
X162191Y213793D01*
X162670Y214510D01*
X162838Y215354D01*
Y217717D01*
X162670Y218561D01*
X162191Y219278D01*
X161475Y219756D01*
X160630Y219924D01*
X150394D01*
X149549Y219756D01*
X148833Y219278D01*
X148354Y218561D01*
X148186Y217717D01*
Y217452D01*
X146217Y216870D01*
X146132Y216998D01*
X145513Y217411D01*
X144783Y217556D01*
X143037D01*
X142887Y217706D01*
X142399Y218033D01*
X141823Y218147D01*
X141664D01*
X141624Y218348D01*
X141210Y218966D01*
X140592Y219380D01*
X139862Y219525D01*
X138091D01*
X137361Y219380D01*
X136989Y219131D01*
X136639Y218966D01*
X135015D01*
X134665Y219131D01*
X134293Y219380D01*
X133563Y219525D01*
X131791D01*
X131062Y219380D01*
X130443Y218966D01*
X130030Y218348D01*
X129970Y218047D01*
X125681D01*
X125577Y218203D01*
X124861Y218682D01*
X124016Y218850D01*
X123171Y218682D01*
X122455Y218203D01*
X121976Y217487D01*
X121808Y216642D01*
X121976Y215797D01*
X122455Y215081D01*
X123171Y214602D01*
X123823Y214472D01*
X124257Y213773D01*
X124697Y212563D01*
X118471Y206336D01*
X117112D01*
X115186Y206693D01*
X115177Y206741D01*
X115177Y214567D01*
X115100Y214951D01*
X114883Y215277D01*
X114557Y215494D01*
X114173Y215570D01*
X113428D01*
X113340Y215702D01*
X113340Y215702D01*
X112356Y216687D01*
X111835Y217035D01*
X111221Y217157D01*
X111220Y217157D01*
X93096D01*
X92829Y217316D01*
X91568Y218799D01*
Y220152D01*
X91568Y220177D01*
X92562Y221794D01*
X92944Y222121D01*
X120079D01*
X120578Y222220D01*
X121001Y222503D01*
X130647Y232148D01*
X130930Y232572D01*
X131029Y233071D01*
Y236310D01*
X131196Y236422D01*
X131512Y236894D01*
X131622Y237451D01*
Y240108D01*
X131512Y240665D01*
X131293Y240992D01*
X131196Y241300D01*
Y242952D01*
X131293Y243260D01*
X131512Y243587D01*
X131620Y244131D01*
X131837Y244174D01*
X132293Y244479D01*
X134852Y247038D01*
X135156Y247494D01*
X135263Y248031D01*
Y250153D01*
X137232Y251048D01*
X137403Y250917D01*
X138409Y250500D01*
X139488Y250358D01*
X140567Y250500D01*
X141573Y250917D01*
X142437Y251579D01*
X143099Y252443D01*
X143516Y253448D01*
X143658Y254528D01*
Y257677D01*
X143516Y258756D01*
X143099Y259762D01*
X142437Y260626D01*
X141573Y261288D01*
X140567Y261705D01*
X139488Y261847D01*
X138409Y261705D01*
X137582Y261362D01*
X137065Y261483D01*
X135557Y262352D01*
X135527Y262502D01*
X135136Y263088D01*
X133167Y265057D01*
X132581Y265448D01*
X131890Y265586D01*
X62008D01*
X61317Y265448D01*
X60731Y265057D01*
X58211Y262537D01*
X57819Y261951D01*
X57713Y261416D01*
X57403Y261288D01*
X56540Y260626D01*
X55877Y259762D01*
X55461Y258756D01*
X53516D01*
X53099Y259762D01*
X52437Y260626D01*
X51573Y261288D01*
X50567Y261705D01*
X49488Y261847D01*
X48409Y261705D01*
X47403Y261288D01*
X46540Y260626D01*
X45877Y259762D01*
X45461Y258756D01*
X45319Y257677D01*
Y254528D01*
X45461Y253448D01*
X45877Y252443D01*
X46540Y251579D01*
X47280Y251011D01*
Y248053D01*
X47173Y247892D01*
X47005Y247047D01*
Y242126D01*
X47173Y241281D01*
X47651Y240565D01*
X47782Y240478D01*
X47185Y238509D01*
X44291D01*
X43792Y238410D01*
X43369Y238127D01*
X36873Y231631D01*
X36590Y231208D01*
X36491Y230709D01*
Y229701D01*
X36251Y229342D01*
X35969Y229295D01*
X34503D01*
X34222Y229342D01*
X33924Y229787D01*
X33884Y229848D01*
X33883Y229848D01*
X33330Y230218D01*
X32677Y230348D01*
X32024Y230218D01*
X32024Y230218D01*
X31692Y229996D01*
X27997Y233690D01*
X28165Y233941D01*
X28276Y234498D01*
Y237156D01*
X28165Y237712D01*
X27850Y238184D01*
X27378Y238500D01*
X26821Y238611D01*
X25935D01*
X25378Y238500D01*
X24906Y238184D01*
X24700D01*
X24228Y238500D01*
X23671Y238611D01*
X22785D01*
X22688Y238591D01*
X21892Y239691D01*
X21641Y240285D01*
X21647Y240307D01*
X21866Y240634D01*
X21977Y241191D01*
Y243848D01*
X21866Y244405D01*
X21551Y244877D01*
X21079Y245193D01*
X20522Y245304D01*
X19636D01*
X19079Y245193D01*
X18607Y244877D01*
X18401D01*
X17929Y245193D01*
X17372Y245304D01*
X16486D01*
X15929Y245193D01*
X15457Y244877D01*
X15142Y244405D01*
X15031Y243848D01*
Y243824D01*
X13189D01*
X12690Y243725D01*
X11344Y243037D01*
X10791Y243407D01*
X10138Y243537D01*
X5610D01*
X4957Y243407D01*
X4404Y243037D01*
X4034Y242484D01*
X3904Y241831D01*
Y240453D01*
X4034Y239800D01*
X4404Y239246D01*
Y239100D01*
X4034Y238547D01*
X3904Y237894D01*
Y236516D01*
X4034Y235863D01*
X4341Y235403D01*
X3999Y235174D01*
X3015Y234190D01*
X2972Y234126D01*
X1210Y234372D01*
X1003Y234454D01*
Y270590D01*
Y270984D01*
X1157Y271756D01*
X1458Y272484D01*
X1896Y273138D01*
X2452Y273695D01*
X3107Y274132D01*
X3834Y274433D01*
X4606Y274587D01*
X184370D01*
X185142Y274433D01*
D02*
G37*
G36*
X65877Y252443D02*
X66540Y251579D01*
X67403Y250917D01*
X67682Y250801D01*
Y249410D01*
X67819Y248718D01*
X68211Y248132D01*
X72148Y244195D01*
X72734Y243804D01*
X73425Y243666D01*
X78118D01*
X78134Y243587D01*
X78352Y243260D01*
X78449Y242952D01*
Y241300D01*
X78352Y240992D01*
X78134Y240665D01*
X78023Y240108D01*
Y238509D01*
X51241D01*
X50643Y240478D01*
X50774Y240565D01*
X51252Y241281D01*
X51420Y242126D01*
Y244540D01*
X51675Y244591D01*
X52262Y244983D01*
X52653Y245569D01*
X52791Y246260D01*
Y247835D01*
X52653Y248526D01*
X52262Y249112D01*
X52082Y249232D01*
X52041Y251276D01*
X52437Y251579D01*
X53099Y252443D01*
X53516Y253448D01*
X55461D01*
X55877Y252443D01*
X56540Y251579D01*
X57403Y250917D01*
X58409Y250500D01*
X59488Y250358D01*
X60567Y250500D01*
X61573Y250917D01*
X62436Y251579D01*
X63099Y252443D01*
X63516Y253448D01*
X65461D01*
X65877Y252443D01*
D02*
G37*
G36*
X105877D02*
X106540Y251579D01*
X107403Y250917D01*
X107682Y250801D01*
Y248780D01*
X107819Y248088D01*
X108211Y247502D01*
X111518Y244195D01*
X112104Y243804D01*
X112795Y243666D01*
X118473D01*
X118488Y243587D01*
X118707Y243260D01*
X118804Y242952D01*
Y241300D01*
X118707Y240992D01*
X118488Y240665D01*
X118378Y240108D01*
Y237451D01*
X118488Y236894D01*
X118804Y236422D01*
X117754Y234756D01*
X113633Y230635D01*
X87414D01*
X86661Y232454D01*
X90293Y236085D01*
X90297Y236092D01*
X90370Y236106D01*
X90842Y236422D01*
X91157Y236894D01*
X91268Y237451D01*
Y240108D01*
X91157Y240665D01*
X90939Y240992D01*
X90842Y241300D01*
Y241835D01*
X92515Y243666D01*
X95866D01*
X96557Y243804D01*
X97143Y244195D01*
X100766Y247817D01*
X101157Y248403D01*
X101295Y249095D01*
Y250801D01*
X101573Y250917D01*
X102436Y251579D01*
X103099Y252443D01*
X103516Y253448D01*
X105461D01*
X105877Y252443D01*
D02*
G37*
G36*
X30971Y225689D02*
X31101Y225036D01*
X31101Y225036D01*
X31471Y224483D01*
X31964Y224153D01*
X32024Y224113D01*
X32024Y224113D01*
X32677Y223983D01*
X33330Y224113D01*
X33883Y224483D01*
X33884Y224483D01*
X34222Y224989D01*
X34503Y225036D01*
X35969D01*
X36251Y224989D01*
X36549Y224543D01*
X36589Y224483D01*
X36589Y224483D01*
X37142Y224113D01*
X37795Y223983D01*
X38448Y224113D01*
X38448Y224113D01*
X39002Y224483D01*
X39148D01*
X39641Y224153D01*
X39702Y224113D01*
X39702Y224113D01*
X40354Y223983D01*
X41007Y224113D01*
X41634Y224444D01*
X42261Y224113D01*
X42913Y223983D01*
X43566Y224113D01*
X43566Y224113D01*
X44120Y224483D01*
X44266D01*
X44759Y224153D01*
X44820Y224113D01*
X44820Y224113D01*
X45472Y223983D01*
X46125Y224113D01*
X46752Y224444D01*
X47379Y224113D01*
X48031Y223983D01*
X48786Y223228D01*
X48916Y222575D01*
X49286Y222022D01*
Y221876D01*
X48916Y221322D01*
X48786Y220669D01*
X48916Y220016D01*
X49286Y219463D01*
Y219317D01*
X48957Y218824D01*
X48916Y218763D01*
X48916Y218763D01*
X48786Y218110D01*
X48916Y217457D01*
X49286Y216904D01*
X49286Y216904D01*
X49792Y216566D01*
X49839Y216284D01*
Y214818D01*
X49792Y214536D01*
X49346Y214239D01*
X49286Y214198D01*
X49286Y214198D01*
X48916Y213645D01*
X48786Y212992D01*
X48916Y212339D01*
X48916Y212339D01*
X49286Y211786D01*
Y211639D01*
X48916Y211086D01*
X48786Y210433D01*
X48916Y209780D01*
X49286Y209227D01*
Y209080D01*
X48916Y208527D01*
X48786Y207874D01*
X48031Y207119D01*
X47379Y206990D01*
X46752Y206658D01*
X46125Y206990D01*
X45472Y207119D01*
X44820Y206990D01*
X44820Y206990D01*
X44266Y206620D01*
X44120D01*
X43566Y206990D01*
X42913Y207119D01*
X42261Y206990D01*
X41707Y206620D01*
X41561D01*
X41007Y206990D01*
X40354Y207119D01*
X39702Y206990D01*
X39148Y206620D01*
X39002D01*
X38509Y206949D01*
X38448Y206990D01*
X38448Y206990D01*
X37795Y207119D01*
X37142Y206990D01*
X36516Y206658D01*
X35889Y206990D01*
X35236Y207119D01*
X34583Y206990D01*
X34583Y206990D01*
X34030Y206620D01*
X33884D01*
X33330Y206990D01*
X32677Y207119D01*
X31923Y207874D01*
X31793Y208527D01*
X31423Y209080D01*
Y209227D01*
X31793Y209780D01*
X31923Y210433D01*
X31793Y211086D01*
X31423Y211639D01*
Y211786D01*
X31793Y212339D01*
X31923Y212992D01*
X31793Y213645D01*
X31423Y214198D01*
Y214345D01*
X31793Y214898D01*
X31923Y215551D01*
X31793Y216204D01*
X31423Y216757D01*
Y216904D01*
X31793Y217457D01*
X31923Y218110D01*
X31793Y218763D01*
X31423Y219317D01*
Y219463D01*
X31793Y220016D01*
X31923Y220669D01*
X31793Y221322D01*
X31423Y221876D01*
X30869Y222245D01*
X30217Y222375D01*
X27264D01*
X26611Y222245D01*
X26204Y221974D01*
X25934D01*
X24703Y223205D01*
X24552Y224256D01*
X25075Y225617D01*
X25227Y225658D01*
X25730Y225323D01*
X26575Y225154D01*
X27420Y225323D01*
X28136Y225801D01*
X28176Y225861D01*
X30971D01*
Y225689D01*
D02*
G37*
G36*
X147994Y212242D02*
X141429D01*
X141429Y212242D01*
X139407D01*
X143701Y216535D01*
X147994Y212242D01*
D02*
G37*
G36*
X79571Y220459D02*
X79617Y220152D01*
X79485Y219488D01*
X79653Y218643D01*
X80132Y217927D01*
X80848Y217448D01*
X81693Y217280D01*
X81830D01*
X83629Y216240D01*
Y214862D01*
X83758Y214209D01*
X84090Y213583D01*
X83758Y212956D01*
X83629Y212303D01*
Y211648D01*
X81726Y210766D01*
X81286Y211207D01*
X80569Y211685D01*
X79724Y211853D01*
X64843D01*
X64471Y212102D01*
X63779Y212239D01*
X62205D01*
X61514Y212102D01*
X61142Y211853D01*
X61024D01*
X60179Y211685D01*
X60179Y211685D01*
X59438Y211229D01*
X58077Y212469D01*
X56631Y213915D01*
X56208Y214197D01*
X56083Y214222D01*
X55524Y215243D01*
X55324Y216265D01*
X55850Y216806D01*
X57677D01*
X58176Y216905D01*
X58600Y217188D01*
X63533Y222121D01*
X78480D01*
X79571Y220459D01*
D02*
G37*
G36*
X141642Y211200D02*
X148207D01*
X143701Y206693D01*
X139194Y211200D01*
X141642D01*
X141642Y211200D01*
D02*
G37*
G36*
X114173Y214567D02*
X114173Y206336D01*
X111221D01*
X110961Y206284D01*
X110644D01*
X109252Y207677D01*
X109252Y214567D01*
X114173Y214567D01*
D02*
G37*
G36*
X97441Y207390D02*
X96310Y206259D01*
X96181Y206284D01*
X93020D01*
X92520Y206670D01*
X92520Y213946D01*
X97441D01*
X97441Y207390D01*
D02*
G37*
G36*
X147994Y192557D02*
X139407D01*
X143701Y196850D01*
X147994Y192557D01*
D02*
G37*
G36*
X143701Y187008D02*
X139370Y191339D01*
X148031Y191339D01*
X143701Y187008D01*
D02*
G37*
G36*
X91535Y170276D02*
X91511Y170251D01*
X91348Y170219D01*
X91240Y170146D01*
X91023Y170001D01*
X90552Y169530D01*
X90551Y169531D01*
X89706Y169362D01*
X89600Y169291D01*
X84646D01*
X83661Y170276D01*
Y172244D01*
X84646Y173228D01*
X91535D01*
Y170276D01*
D02*
G37*
G36*
X82635Y167144D02*
X82881Y165403D01*
X81968Y164489D01*
X81750Y164164D01*
X81674Y163779D01*
Y161534D01*
X81651Y161417D01*
X81674Y161301D01*
Y160630D01*
X81750Y160246D01*
X81839Y160113D01*
X81725Y159853D01*
X81427Y159344D01*
X80620Y158484D01*
X78947D01*
X78831Y158507D01*
X76468D01*
X76352Y158484D01*
X75787D01*
X75403Y158407D01*
X74294Y159223D01*
X74253Y160542D01*
X74872Y160955D01*
X75285Y161574D01*
X75430Y162303D01*
Y164137D01*
X77671Y166377D01*
X78051Y166302D01*
X79823D01*
X80553Y166447D01*
X81171Y166860D01*
X81411Y167219D01*
X82635Y167144D01*
D02*
G37*
G36*
X88189Y164469D02*
Y161024D01*
X87402Y160236D01*
X83071D01*
X82677Y160630D01*
Y163779D01*
X84646Y165748D01*
X86909D01*
X88189Y164469D01*
D02*
G37*
G36*
X53813Y165524D02*
Y156052D01*
X50269Y152507D01*
X48454Y153477D01*
X48468Y153543D01*
X48300Y154388D01*
X47821Y155104D01*
X47105Y155583D01*
X46260Y155751D01*
X45415Y155583D01*
X44699Y155104D01*
X25706Y136111D01*
X23626Y136815D01*
X23472Y137966D01*
X51845Y166340D01*
X53813Y165524D01*
D02*
G37*
G36*
X81693Y156496D02*
Y146653D01*
X83661Y144685D01*
X84549D01*
X84646Y144666D01*
X90570Y144666D01*
X91535Y143701D01*
Y129921D01*
X90551Y128937D01*
X82677D01*
X74803Y136811D01*
Y156496D01*
X75787Y157480D01*
X80709D01*
X81693Y156496D01*
D02*
G37*
G36*
X102470Y143790D02*
Y128937D01*
X96653D01*
X92743Y132847D01*
Y143701D01*
X92647Y144185D01*
X92670Y144288D01*
X92940Y144685D01*
X101575Y144685D01*
X102470Y143790D01*
D02*
G37*
G36*
X38793Y67336D02*
X39509Y66858D01*
X40354Y66690D01*
X54204D01*
X59462Y61431D01*
X60179Y60952D01*
X61024Y60784D01*
X109322D01*
X137059Y33047D01*
Y31872D01*
X136811Y31501D01*
X136673Y30809D01*
Y29235D01*
X136811Y28543D01*
X137203Y27957D01*
X137280Y27905D01*
Y25229D01*
X136969D01*
X136339Y25103D01*
X135805Y24746D01*
X135448Y24213D01*
X135323Y23583D01*
Y22923D01*
X133354Y22532D01*
X133099Y23148D01*
X132437Y24011D01*
X131573Y24674D01*
X131295Y24789D01*
Y26024D01*
X131157Y26715D01*
X130765Y27301D01*
X126671Y31395D01*
X126085Y31787D01*
X125394Y31925D01*
X120701D01*
X120685Y32004D01*
X120466Y32331D01*
X120370Y32638D01*
Y34291D01*
X120466Y34598D01*
X120685Y34925D01*
X120796Y35482D01*
Y38140D01*
X120685Y38697D01*
X120370Y39169D01*
X120202Y39281D01*
Y40551D01*
X120103Y41050D01*
X119820Y41474D01*
X107222Y54072D01*
X106799Y54355D01*
X106299Y54454D01*
X35973D01*
X22958Y67470D01*
Y80388D01*
X24927Y81203D01*
X38793Y67336D01*
D02*
G37*
G36*
X107568Y38225D02*
X107551Y38140D01*
Y35482D01*
X107662Y34925D01*
X107880Y34598D01*
X107977Y34291D01*
Y33756D01*
X106304Y31925D01*
X103937D01*
X103246Y31787D01*
X102660Y31395D01*
X98211Y26947D01*
X97819Y26361D01*
X97682Y25669D01*
Y24789D01*
X97403Y24674D01*
X96540Y24011D01*
X95877Y23148D01*
X95461Y22142D01*
X93516D01*
X93099Y23148D01*
X92436Y24011D01*
X91573Y24674D01*
X91295Y24789D01*
Y25669D01*
X91157Y26361D01*
X90766Y26947D01*
X86317Y31395D01*
X85731Y31787D01*
X85039Y31925D01*
X81331D01*
X81315Y32004D01*
X81096Y32331D01*
X80999Y32638D01*
Y34291D01*
X81096Y34598D01*
X81315Y34925D01*
X81426Y35482D01*
Y38140D01*
X81315Y38697D01*
X80999Y39169D01*
X80832Y39281D01*
Y40551D01*
X80733Y41050D01*
X80450Y41474D01*
X77803Y44121D01*
X78556Y45939D01*
X99853D01*
X107568Y38225D01*
D02*
G37*
%LPC*%
G36*
X173228Y271295D02*
X171437Y271154D01*
X169689Y270735D01*
X168029Y270047D01*
X166497Y269108D01*
X165130Y267941D01*
X163963Y266574D01*
X163024Y265042D01*
X162336Y263382D01*
X161917Y261634D01*
X161776Y259842D01*
X161917Y258051D01*
X162336Y256304D01*
X163024Y254643D01*
X163963Y253111D01*
X165130Y251744D01*
X166497Y250577D01*
X168029Y249638D01*
X169689Y248950D01*
X171437Y248531D01*
X173228Y248390D01*
X175020Y248531D01*
X176767Y248950D01*
X178428Y249638D01*
X179960Y250577D01*
X181327Y251744D01*
X182494Y253111D01*
X183433Y254643D01*
X184120Y256304D01*
X184540Y258051D01*
X184681Y259842D01*
X184540Y261634D01*
X184120Y263382D01*
X183433Y265042D01*
X182494Y266574D01*
X181327Y267941D01*
X179960Y269108D01*
X178428Y270047D01*
X176767Y270735D01*
X175020Y271154D01*
X173228Y271295D01*
D02*
G37*
G36*
X15748D02*
X13957Y271154D01*
X12209Y270735D01*
X10549Y270047D01*
X9016Y269108D01*
X7650Y267941D01*
X6483Y266574D01*
X5544Y265042D01*
X4856Y263382D01*
X4436Y261634D01*
X4295Y259842D01*
X4436Y258051D01*
X4856Y256304D01*
X5544Y254643D01*
X6483Y253111D01*
X7650Y251744D01*
X9016Y250577D01*
X10549Y249638D01*
X12209Y248950D01*
X13957Y248531D01*
X15748Y248390D01*
X17540Y248531D01*
X19287Y248950D01*
X20947Y249638D01*
X22480Y250577D01*
X23846Y251744D01*
X25013Y253111D01*
X25952Y254643D01*
X26640Y256304D01*
X27060Y258051D01*
X27201Y259842D01*
X27060Y261634D01*
X26640Y263382D01*
X25952Y265042D01*
X25013Y266574D01*
X23846Y267941D01*
X22480Y269108D01*
X20947Y270047D01*
X19287Y270735D01*
X17540Y271154D01*
X15748Y271295D01*
D02*
G37*
G36*
X176575Y224043D02*
X175753Y223935D01*
X174986Y223617D01*
X174328Y223113D01*
X173824Y222455D01*
X173506Y221688D01*
X173398Y220866D01*
X173506Y220044D01*
X173824Y219278D01*
X174328Y218620D01*
X174986Y218115D01*
X175753Y217798D01*
X176575Y217689D01*
X177397Y217798D01*
X178163Y218115D01*
X178821Y218620D01*
X179326Y219278D01*
X179643Y220044D01*
X179752Y220866D01*
X179643Y221688D01*
X179326Y222455D01*
X178821Y223113D01*
X178163Y223617D01*
X177397Y223935D01*
X176575Y224043D01*
D02*
G37*
G36*
X105315Y192168D02*
X104470Y192000D01*
X103754Y191522D01*
X103275Y190805D01*
X103107Y189961D01*
X101139Y189832D01*
X100837Y189892D01*
X97589D01*
X96993Y189774D01*
X96489Y189436D01*
X96152Y188932D01*
X96033Y188337D01*
Y187254D01*
X96152Y186659D01*
X96489Y186154D01*
X96993Y185817D01*
X97589Y185698D01*
X100837D01*
X101288Y185788D01*
X102807D01*
X102859Y185529D01*
X103186Y185039D01*
X103250Y184943D01*
X103836Y184552D01*
X104527Y184414D01*
X106102D01*
X106783Y184550D01*
D01*
X106794Y184552D01*
X107380Y184943D01*
X107771Y185529D01*
X107909Y186221D01*
Y187795D01*
X107771Y188487D01*
X107523Y188858D01*
Y189961D01*
X107523Y189961D01*
X107355Y190805D01*
X106876Y191522D01*
X106160Y192000D01*
X105315Y192168D01*
D02*
G37*
G36*
X121063Y183105D02*
X120035Y182969D01*
X119078Y182573D01*
X118255Y181942D01*
X117624Y181119D01*
X117227Y180162D01*
X117092Y179134D01*
X117227Y178106D01*
X117624Y177148D01*
X118255Y176326D01*
X119078Y175695D01*
X119658Y175454D01*
Y173201D01*
X119251Y173120D01*
X118632Y172706D01*
X118219Y172088D01*
X118074Y171358D01*
Y169587D01*
X118219Y168857D01*
X118467Y168485D01*
X118550Y168310D01*
X118429Y167744D01*
X117869Y166381D01*
X113976D01*
X113131Y166213D01*
X112415Y165734D01*
X111353Y164672D01*
X109568Y166458D01*
X109242Y166675D01*
X108858Y166752D01*
X104937Y166752D01*
X104825Y166826D01*
X104308Y166929D01*
X104134Y166964D01*
X102559D01*
X102385Y166929D01*
D01*
X101868Y166826D01*
X101666Y166691D01*
X101584Y166675D01*
X101259Y166458D01*
X100372Y165570D01*
X98425D01*
X98375Y165560D01*
X98228Y165590D01*
X97460Y165437D01*
X96809Y165002D01*
X95907Y165002D01*
X95256Y165437D01*
X94488Y165590D01*
X93799Y165453D01*
X93720Y165437D01*
X93069Y165002D01*
X92634Y164351D01*
X92481Y163583D01*
Y161614D01*
X92623Y160899D01*
X92574Y160814D01*
Y160814D01*
X92466Y160626D01*
X92451Y160584D01*
X92380Y160477D01*
X92373Y160444D01*
X92357Y160415D01*
X92335Y160253D01*
X92304Y160093D01*
Y159565D01*
X92280Y159449D01*
X92304Y159333D01*
Y156612D01*
X92280Y156496D01*
X92304Y156380D01*
Y153660D01*
X92280Y153543D01*
X92304Y153427D01*
Y152756D01*
X92380Y152372D01*
X92598Y152046D01*
X92991Y151653D01*
X93317Y151435D01*
X93701Y151359D01*
X94372D01*
X94488Y151336D01*
X94604Y151359D01*
X95276D01*
X95660Y151435D01*
X95985Y151653D01*
X96379Y152046D01*
X96596Y152372D01*
X96673Y152756D01*
Y153427D01*
X96696Y153543D01*
X96673Y153660D01*
Y156380D01*
X96696Y156496D01*
X96673Y156612D01*
Y157908D01*
Y159333D01*
X96696Y159449D01*
X96673Y159565D01*
Y159685D01*
X96692Y159706D01*
X96949Y159833D01*
X97173Y159888D01*
X97230Y159850D01*
X97323Y159766D01*
X97391Y159743D01*
X97451Y159703D01*
X97574Y159678D01*
X97693Y159636D01*
X97764Y159640D01*
X97835Y159626D01*
X98131D01*
X98228Y159607D01*
X98325Y159626D01*
X99978D01*
X107264Y152340D01*
Y145669D01*
X107341Y145285D01*
X107558Y144960D01*
X107884Y144742D01*
X108268Y144666D01*
X116339D01*
X116723Y144742D01*
X117048Y144960D01*
X117266Y145285D01*
X117342Y145669D01*
Y150923D01*
X118435Y151647D01*
X119311Y151976D01*
X120035Y151676D01*
X121063Y151541D01*
X122091Y151676D01*
X123048Y152073D01*
X123871Y152704D01*
X124502Y153526D01*
X124899Y154484D01*
X125034Y155512D01*
X124899Y156540D01*
X124502Y157497D01*
X123871Y158320D01*
X123048Y158951D01*
X122468Y159191D01*
Y161445D01*
X122875Y161526D01*
X123494Y161939D01*
X123532Y161996D01*
X125036Y163089D01*
X125689Y162959D01*
X130217D01*
X130869Y163089D01*
X131423Y163459D01*
X131793Y164013D01*
X131922Y164665D01*
Y166043D01*
X133721Y167084D01*
X139524D01*
Y150521D01*
X114581Y125577D01*
X114102Y124861D01*
X113934Y124016D01*
Y98444D01*
X62105D01*
X62008Y98464D01*
X56102D01*
X55334Y98311D01*
X54683Y97876D01*
X54248Y97225D01*
X54095Y96457D01*
X54248Y95689D01*
X54683Y95038D01*
Y93939D01*
X54248Y93288D01*
X54095Y92520D01*
X54248Y91752D01*
X54683Y91101D01*
X55334Y90665D01*
X56102Y90513D01*
X62008D01*
X62105Y90532D01*
X126872D01*
X126969Y90513D01*
X132874D01*
X133642Y90665D01*
X134293Y91101D01*
X134728Y91752D01*
X134881Y92520D01*
X134728Y93288D01*
X134293Y93939D01*
Y95038D01*
X134728Y95689D01*
X134881Y96457D01*
X134728Y97225D01*
X134293Y97876D01*
X133642Y98311D01*
X132874Y98464D01*
X126969D01*
X126872Y98444D01*
X118350D01*
Y123101D01*
X143293Y148045D01*
X143772Y148761D01*
X143940Y149606D01*
Y169291D01*
Y171330D01*
X146778Y174168D01*
X148833Y174423D01*
X149549Y173944D01*
X150394Y173776D01*
X160630D01*
X161475Y173944D01*
X162191Y174423D01*
X162670Y175139D01*
X162838Y175984D01*
Y178347D01*
X162670Y179191D01*
X162191Y179908D01*
X161475Y180386D01*
X160630Y180554D01*
X150394D01*
X149549Y180386D01*
X148833Y179908D01*
X148476Y179373D01*
X146653D01*
X145809Y179205D01*
X145092Y178726D01*
X140171Y173805D01*
X139693Y173089D01*
X139524Y172244D01*
Y171499D01*
X130955D01*
X130869Y171556D01*
X130217Y171686D01*
X125689D01*
X125036Y171556D01*
X123532Y172650D01*
X123494Y172706D01*
X122875Y173120D01*
X122468Y173201D01*
Y175454D01*
X123048Y175695D01*
X123871Y176326D01*
X124502Y177148D01*
X124899Y178106D01*
X125034Y179134D01*
X124899Y180162D01*
X124502Y181119D01*
X123871Y181942D01*
X123048Y182573D01*
X122091Y182969D01*
X121063Y183105D01*
D02*
G37*
G36*
X176575Y166169D02*
X175753Y166061D01*
X174986Y165743D01*
X174328Y165238D01*
X173824Y164581D01*
X173506Y163814D01*
X173398Y162992D01*
X173506Y162170D01*
X173824Y161404D01*
X174328Y160746D01*
X174986Y160241D01*
X175753Y159924D01*
X176575Y159815D01*
X177397Y159924D01*
X178163Y160241D01*
X178821Y160746D01*
X179326Y161404D01*
X179643Y162170D01*
X179752Y162992D01*
X179643Y163814D01*
X179326Y164581D01*
X178821Y165238D01*
X178163Y165743D01*
X177397Y166061D01*
X176575Y166169D01*
D02*
G37*
G36*
X54528Y137579D02*
Y134252D01*
X57854D01*
X57778Y134835D01*
X57401Y135745D01*
X56801Y136526D01*
X56020Y137125D01*
X55110Y137502D01*
X54528Y137579D01*
D02*
G37*
G36*
X53740D02*
X53158Y137502D01*
X52248Y137125D01*
X51466Y136526D01*
X50867Y135745D01*
X50490Y134835D01*
X50413Y134252D01*
X53740D01*
Y137579D01*
D02*
G37*
G36*
X57854Y133465D02*
X54528D01*
Y130138D01*
X55110Y130214D01*
X56020Y130591D01*
X56801Y131191D01*
X57401Y131972D01*
X57778Y132882D01*
X57854Y133465D01*
D02*
G37*
G36*
X53740D02*
X50413D01*
X50490Y132882D01*
X50867Y131972D01*
X51466Y131191D01*
X52248Y130591D01*
X53158Y130214D01*
X53740Y130138D01*
Y133465D01*
D02*
G37*
G36*
X173228Y27201D02*
X171437Y27060D01*
X169689Y26640D01*
X168029Y25952D01*
X166497Y25013D01*
X165130Y23846D01*
X163963Y22480D01*
X163024Y20947D01*
X162336Y19287D01*
X161917Y17540D01*
X161776Y15748D01*
X161917Y13957D01*
X162336Y12209D01*
X163024Y10549D01*
X163963Y9016D01*
X165130Y7650D01*
X166497Y6483D01*
X168029Y5544D01*
X169689Y4856D01*
X171437Y4436D01*
X173228Y4295D01*
X175020Y4436D01*
X176767Y4856D01*
X178428Y5544D01*
X179960Y6483D01*
X181327Y7650D01*
X182494Y9016D01*
X183433Y10549D01*
X184120Y12209D01*
X184540Y13957D01*
X184681Y15748D01*
X184540Y17540D01*
X184120Y19287D01*
X183433Y20947D01*
X182494Y22480D01*
X181327Y23846D01*
X179960Y25013D01*
X178428Y25952D01*
X176767Y26640D01*
X175020Y27060D01*
X173228Y27201D01*
D02*
G37*
G36*
X15748D02*
X13957Y27060D01*
X12209Y26640D01*
X10549Y25952D01*
X9016Y25013D01*
X7650Y23846D01*
X6483Y22480D01*
X5544Y20947D01*
X4856Y19287D01*
X4436Y17540D01*
X4295Y15748D01*
X4436Y13957D01*
X4856Y12209D01*
X5544Y10549D01*
X6483Y9016D01*
X7650Y7650D01*
X9016Y6483D01*
X10549Y5544D01*
X12209Y4856D01*
X13957Y4436D01*
X15748Y4295D01*
X17540Y4436D01*
X19287Y4856D01*
X20947Y5544D01*
X22480Y6483D01*
X23846Y7650D01*
X25013Y9016D01*
X25952Y10549D01*
X26640Y12209D01*
X27060Y13957D01*
X27201Y15748D01*
X27060Y17540D01*
X26640Y19287D01*
X25952Y20947D01*
X25013Y22480D01*
X23846Y23846D01*
X22480Y25013D01*
X20947Y25952D01*
X19287Y26640D01*
X17540Y27060D01*
X15748Y27201D01*
D02*
G37*
%LPD*%
G36*
X95472Y160433D02*
X95669Y160236D01*
Y152756D01*
X95276Y152362D01*
X93701D01*
X93307Y152756D01*
Y160093D01*
X93335Y160125D01*
X93493Y160398D01*
X93545Y160552D01*
X93608Y160703D01*
Y160737D01*
X93618Y160768D01*
X93608Y160931D01*
Y161095D01*
X93504Y161616D01*
Y163386D01*
X95472D01*
Y160433D01*
D02*
G37*
G36*
X108858Y165748D02*
X116339Y158268D01*
Y145669D01*
X108268D01*
Y152756D01*
X100394Y160630D01*
X97835D01*
X97244Y161417D01*
Y163386D01*
X97638Y163779D01*
X98425Y164567D01*
X100787D01*
X101969Y165748D01*
X108858Y165748D01*
D02*
G37*
G36*
X130905Y91535D02*
X58071D01*
Y97441D01*
X130905D01*
Y91535D01*
D02*
G37*
D10*
X55118Y188976D02*
X70866Y204724D01*
X64961Y193898D02*
X71850Y200787D01*
X59055Y187992D02*
X64961Y193898D01*
X69882Y188976D01*
X71850Y200787D02*
X71850Y200787D01*
X94488D01*
X59055Y151575D02*
Y187992D01*
X20669Y215551D02*
X25591D01*
X39370Y131890D02*
X59055Y151575D01*
X39370Y91535D02*
Y131890D01*
X33465Y133858D02*
X55118Y155512D01*
X33465Y88583D02*
Y133858D01*
Y88583D02*
X45276Y76772D01*
X39370Y91535D02*
X46260Y84646D01*
X19488Y168898D02*
X22047D01*
X16339D02*
X19488D01*
X13189D02*
X16339D01*
X10039D02*
X13189D01*
X22047D02*
X23622Y167323D01*
X59055Y76772D02*
X129921D01*
X79724Y187008D02*
X83661D01*
X78740Y186024D02*
X79724Y187008D01*
X78740Y180118D02*
Y186024D01*
Y180118D02*
X80709Y178150D01*
X88583D01*
X89764Y179331D01*
Y180315D01*
X83661Y187008D02*
X84449Y187795D01*
X71850Y152559D02*
Y157480D01*
X69882Y159449D02*
X71850Y157480D01*
X64961Y159449D02*
X69882D01*
X61024Y163386D02*
X64961Y159449D01*
X61024Y163386D02*
Y171260D01*
X62008Y172244D01*
X65945D01*
X68898Y138779D02*
X71850Y141732D01*
Y152559D01*
X18701Y220472D02*
X20669D01*
X15650Y223524D02*
X18701Y220472D01*
X15650Y223524D02*
Y231201D01*
X16732Y195866D02*
X30512D01*
X7874D02*
X16732D01*
Y197834D01*
X18701Y203740D02*
X19685Y202756D01*
X7874Y203740D02*
X18701D01*
X19685Y200787D02*
Y202756D01*
Y200787D02*
X21654Y198819D01*
X30512D01*
X32677Y200984D01*
Y203937D01*
X23622Y207677D02*
X28543D01*
X16732D02*
X23622D01*
Y201772D02*
Y207677D01*
X13189Y175591D02*
Y179528D01*
X13780Y180118D01*
X10827Y183071D02*
X11811D01*
X10039Y182283D02*
X10827Y183071D01*
X12795Y216535D02*
X18898Y210433D01*
X9843Y219488D02*
X12795Y216535D01*
X11811Y214567D02*
Y215551D01*
X12795Y216535D01*
X10039Y175591D02*
Y182283D01*
X7874Y231299D02*
X7874Y231299D01*
X7874Y227362D02*
Y231299D01*
X7874Y234252D02*
X10827D01*
X4921D02*
X7874D01*
X10827D02*
X12795Y232283D01*
X3937Y233268D02*
X4921Y234252D01*
X3937Y227362D02*
Y233268D01*
X12795Y223425D02*
Y232283D01*
X20669Y220472D02*
X23031Y218110D01*
X9843Y187992D02*
X12795Y190945D01*
X26575Y227362D02*
X26772Y227165D01*
X32677D01*
X21654Y228346D02*
X23228Y229921D01*
Y235827D01*
X7874Y241142D02*
X11811D01*
X13189Y242520D01*
X16929D01*
X20079D01*
X35236Y227165D02*
Y237402D01*
X30118Y242520D02*
X35236Y237402D01*
X26378Y242520D02*
X30118D01*
X23228D02*
X26378D01*
Y233465D02*
Y235827D01*
Y233465D02*
X32677Y227165D01*
X18701Y224410D02*
Y229331D01*
X20079Y230709D01*
Y235827D01*
X21654Y224410D02*
X25394Y220669D01*
X18701Y224410D02*
X21654D01*
X16929Y232480D02*
Y235827D01*
X15650Y231201D02*
X16929Y232480D01*
X12795Y223425D02*
X20669Y215551D01*
X20276Y212992D02*
X28740D01*
X10827Y222441D02*
X20276Y212992D01*
X10827Y222441D02*
Y226378D01*
X9843Y227362D02*
X10827Y226378D01*
X32677Y223228D02*
X35236Y220669D01*
X16339Y187598D02*
X16732Y187992D01*
X19488Y189764D02*
X19685Y189961D01*
X25394Y220669D02*
X28740D01*
X23031Y218110D02*
X28740D01*
X70866Y204724D02*
X94488D01*
X55118Y155512D02*
Y188976D01*
X46260Y84646D02*
X59055D01*
X45276Y76772D02*
X59055D01*
X98228Y172047D02*
Y174409D01*
X97441Y175197D02*
X98228Y174409D01*
X78937Y175197D02*
X97441D01*
X71653Y176181D02*
X72638Y175197D01*
X65945Y176181D02*
X71653D01*
X65945Y168307D02*
X71653D01*
X72638Y169291D01*
Y163386D02*
X72835D01*
X78937Y169488D01*
Y175197D01*
X16339Y175591D02*
Y187598D01*
X19488Y175591D02*
Y189764D01*
X12795Y211614D02*
X16732Y207677D01*
X7874Y211614D02*
X12795D01*
X7874Y227362D02*
X9843D01*
X18898Y210433D02*
X28740D01*
X7874Y219488D02*
X9843D01*
X28543Y207677D02*
X28740Y207874D01*
X7874Y187992D02*
X9843D01*
X58071Y200787D02*
Y210630D01*
X28740Y223228D02*
X32677D01*
X62008Y215551D02*
X62008Y215551D01*
X35236Y200591D02*
Y203937D01*
X30512Y195866D02*
X35236Y200591D01*
X45669Y197244D02*
X48031Y199606D01*
X45669Y170361D02*
Y197244D01*
X43701Y198228D02*
X45472Y200000D01*
X43701Y171176D02*
Y198228D01*
X41732Y199213D02*
X42913Y200394D01*
X41732Y171991D02*
Y199213D01*
X40354Y200787D02*
Y203937D01*
X39764Y200197D02*
X40354Y200787D01*
X39764Y172807D02*
Y200197D01*
X51968Y212992D02*
X55709D01*
X58071Y210630D01*
X51575Y194291D02*
X58071Y200787D01*
X56102Y201772D02*
Y209252D01*
X54921Y210433D02*
X56102Y209252D01*
X51968Y210433D02*
X54921D01*
X49606Y195276D02*
X56102Y201772D01*
X51968Y200591D02*
Y207874D01*
X47638Y196260D02*
X51968Y200591D01*
X47638Y169545D02*
Y196260D01*
X48031Y199606D02*
Y203937D01*
X45472Y200000D02*
Y203937D01*
X42913Y200394D02*
Y203937D01*
X37795Y173622D02*
Y203937D01*
X106299Y53150D02*
X118898Y40551D01*
Y36811D02*
Y40551D01*
X35433Y53150D02*
X106299D01*
X21654Y66929D02*
X35433Y53150D01*
X34449Y51181D02*
X104331D01*
X115748Y39764D01*
Y36811D02*
Y39764D01*
X19685Y65945D02*
X34449Y51181D01*
X33465Y49213D02*
X102362D01*
X112598Y38976D01*
Y36811D02*
Y38976D01*
X17717Y64961D02*
X33465Y49213D01*
X32480Y47244D02*
X100394D01*
X109449Y38189D01*
Y36811D02*
Y38189D01*
X15748Y63976D02*
X32480Y47244D01*
X31496Y45276D02*
X74803D01*
X79528Y40551D01*
Y36811D02*
Y40551D01*
X13780Y62992D02*
X31496Y45276D01*
X30512Y43307D02*
X72835D01*
X76378Y39764D01*
Y36811D02*
Y39764D01*
X11811Y62008D02*
X30512Y43307D01*
X29528Y41339D02*
X70866D01*
X73228Y38976D01*
Y36811D02*
Y38976D01*
X9843Y61024D02*
X29528Y41339D01*
X28543Y39370D02*
X68898D01*
X70079Y38189D01*
Y36811D02*
Y38189D01*
X7874Y60039D02*
X28543Y39370D01*
X51575Y167914D02*
Y194291D01*
X21654Y137993D02*
X51575Y167914D01*
X49606Y168730D02*
Y195276D01*
X19685Y138809D02*
X49606Y168730D01*
X17717Y139624D02*
X47638Y169545D01*
X15748Y140439D02*
X45669Y170361D01*
X13780Y141255D02*
X43701Y171176D01*
X11811Y142070D02*
X41732Y171991D01*
X9843Y142885D02*
X39764Y172807D01*
X7874Y143701D02*
X37795Y173622D01*
X7874Y60039D02*
Y143701D01*
X9843Y61024D02*
Y142885D01*
X11811Y62008D02*
Y142070D01*
X13780Y62992D02*
Y141255D01*
X15748Y63976D02*
Y140439D01*
X17717Y64961D02*
Y139624D01*
X19685Y65945D02*
Y138809D01*
X21654Y66929D02*
Y137993D01*
X44291Y237205D02*
X79724D01*
X37795Y230709D02*
X44291Y237205D01*
X37795Y227165D02*
Y230709D01*
X45276Y235236D02*
X81693D01*
X40354Y230315D02*
X45276Y235236D01*
X40354Y227165D02*
Y230315D01*
X46260Y233268D02*
X82677D01*
X42913Y229921D02*
X46260Y233268D01*
X42913Y227165D02*
Y229921D01*
X47244Y231299D02*
X83661D01*
X45472Y229528D02*
X47244Y231299D01*
X45472Y227165D02*
Y229528D01*
X57087Y229331D02*
X114173D01*
X54921Y227165D02*
X57087Y229331D01*
X48031Y227165D02*
X54921D01*
X129724Y233071D02*
Y238779D01*
X120079Y223425D02*
X129724Y233071D01*
X62992Y223425D02*
X120079D01*
X57677Y218110D02*
X62992Y223425D01*
X51968Y218110D02*
X57677D01*
X126575Y233858D02*
Y238779D01*
X118110Y225394D02*
X126575Y233858D01*
X61024Y225394D02*
X118110D01*
X56299Y220669D02*
X61024Y225394D01*
X51968Y220669D02*
X56299D01*
X123425Y234646D02*
Y238779D01*
X116142Y227362D02*
X123425Y234646D01*
X59055Y227362D02*
X116142D01*
X54921Y223228D02*
X59055Y227362D01*
X51968Y223228D02*
X54921D01*
X120276Y235433D02*
Y238779D01*
X114173Y229331D02*
X120276Y235433D01*
X89370Y237008D02*
Y238779D01*
X83661Y231299D02*
X89370Y237008D01*
X79921Y237402D02*
Y238779D01*
X79724Y237205D02*
X79921Y237402D01*
X86221Y236811D02*
Y238779D01*
X82677Y233268D02*
X86221Y236811D01*
X83071Y236614D02*
Y238779D01*
X81693Y235236D02*
X83071Y236614D01*
X59055Y84646D02*
X129921D01*
D15*
X94488Y206693D02*
D03*
Y204724D02*
D03*
Y202756D02*
D03*
Y200787D02*
D03*
Y198819D02*
D03*
X112205D02*
D03*
Y200787D02*
D03*
Y202756D02*
D03*
Y204724D02*
D03*
Y206693D02*
D03*
D16*
X99213Y136811D02*
D03*
X89764D02*
D03*
D17*
X129921Y88583D02*
D03*
Y84646D02*
D03*
Y80709D02*
D03*
Y76772D02*
D03*
Y72835D02*
D03*
Y92520D02*
D03*
Y96457D02*
D03*
Y100394D02*
D03*
Y104331D02*
D03*
Y108268D02*
D03*
X59055Y72835D02*
D03*
Y76772D02*
D03*
Y80709D02*
D03*
Y84646D02*
D03*
Y88583D02*
D03*
Y108268D02*
D03*
Y104331D02*
D03*
Y100394D02*
D03*
Y96457D02*
D03*
Y92520D02*
D03*
D18*
X140945Y61063D02*
D03*
Y120039D02*
D03*
X48031Y61063D02*
D03*
Y120039D02*
D03*
D19*
X56102Y247047D02*
D03*
X50197D02*
D03*
X145173Y30022D02*
D03*
X139267D02*
D03*
X100394Y212598D02*
D03*
X94488D02*
D03*
X106299D02*
D03*
X112205D02*
D03*
D20*
X105315Y181102D02*
D03*
Y187008D02*
D03*
X83661Y181102D02*
D03*
Y187008D02*
D03*
X62992Y215551D02*
D03*
Y209646D02*
D03*
X103347Y170276D02*
D03*
Y164370D02*
D03*
X85827Y164370D02*
D03*
Y170276D02*
D03*
D21*
X132677Y216535D02*
D03*
X138976D02*
D03*
X132677Y196850D02*
D03*
X138976D02*
D03*
Y206693D02*
D03*
X132677D02*
D03*
X138976Y187008D02*
D03*
X132677D02*
D03*
X72638Y175197D02*
D03*
X78937D02*
D03*
X72638Y169291D02*
D03*
X78937D02*
D03*
X72638Y163386D02*
D03*
X78937D02*
D03*
D22*
X143701Y214764D02*
D03*
Y208465D02*
D03*
Y195079D02*
D03*
Y188779D02*
D03*
X121063Y164173D02*
D03*
Y170472D02*
D03*
D23*
X98228Y172047D02*
D03*
X94488D02*
D03*
X90748D02*
D03*
X98228Y162598D02*
D03*
X94488D02*
D03*
D24*
X90748D02*
D03*
D25*
X155512Y177165D02*
D03*
Y167323D02*
D03*
Y187008D02*
D03*
Y196850D02*
D03*
Y206693D02*
D03*
Y216535D02*
D03*
D26*
X172047Y153150D02*
D03*
Y230709D02*
D03*
D27*
X16929Y235827D02*
D03*
X20079D02*
D03*
X23228D02*
D03*
X26378D02*
D03*
Y242520D02*
D03*
X23228D02*
D03*
X20079D02*
D03*
X16929D02*
D03*
X19488Y175591D02*
D03*
X16339D02*
D03*
X13189D02*
D03*
X10039D02*
D03*
Y168898D02*
D03*
X13189D02*
D03*
X16339D02*
D03*
X19488D02*
D03*
X89370Y245472D02*
D03*
X86221D02*
D03*
X83071D02*
D03*
X79921D02*
D03*
Y238779D02*
D03*
X83071D02*
D03*
X86221D02*
D03*
X89370D02*
D03*
X70079Y30118D02*
D03*
X73228D02*
D03*
X76378D02*
D03*
X79528D02*
D03*
Y36811D02*
D03*
X76378D02*
D03*
X73228D02*
D03*
X70079D02*
D03*
X109449Y30118D02*
D03*
X112598D02*
D03*
X115748D02*
D03*
X118898D02*
D03*
Y36811D02*
D03*
X115748D02*
D03*
X112598D02*
D03*
X109449D02*
D03*
X129724Y245472D02*
D03*
X126575D02*
D03*
X123425D02*
D03*
X120276D02*
D03*
Y238779D02*
D03*
X123425D02*
D03*
X126575D02*
D03*
X129724D02*
D03*
D28*
X28740Y223228D02*
D03*
Y220669D02*
D03*
Y218110D02*
D03*
Y215551D02*
D03*
Y212992D02*
D03*
Y210433D02*
D03*
Y207874D02*
D03*
X51968Y223228D02*
D03*
Y220669D02*
D03*
Y218110D02*
D03*
Y215551D02*
D03*
Y212992D02*
D03*
Y210433D02*
D03*
Y207874D02*
D03*
D29*
X48031Y203937D02*
D03*
X45472D02*
D03*
X42913D02*
D03*
X40354D02*
D03*
X37795D02*
D03*
X35236D02*
D03*
X32677D02*
D03*
X48031Y227165D02*
D03*
X45472D02*
D03*
X42913D02*
D03*
X40354D02*
D03*
X37795D02*
D03*
X35236D02*
D03*
X32677D02*
D03*
D30*
X111327Y152559D02*
D03*
X99303D02*
D03*
X77650D02*
D03*
X89673D02*
D03*
D31*
X99213Y187795D02*
D03*
Y180315D02*
D03*
X89764D02*
D03*
Y184055D02*
D03*
Y187795D02*
D03*
D32*
X7874Y237205D02*
D03*
Y241142D02*
D03*
X65945Y176181D02*
D03*
Y172244D02*
D03*
Y168307D02*
D03*
X127953Y169291D02*
D03*
Y165354D02*
D03*
X87598Y219488D02*
D03*
Y215551D02*
D03*
Y211614D02*
D03*
D33*
X3937Y187992D02*
D03*
X7874D02*
D03*
X3937Y195866D02*
D03*
X7874D02*
D03*
X3937Y227362D02*
D03*
X7874D02*
D03*
X3937Y219488D02*
D03*
X7874D02*
D03*
X3937Y211614D02*
D03*
X7874D02*
D03*
X3937Y203740D02*
D03*
X7874D02*
D03*
X71850Y152559D02*
D03*
X67913D02*
D03*
D34*
X40354Y215551D02*
D03*
D35*
X54134Y133858D02*
D03*
X69882Y188976D02*
D03*
X61024Y195866D02*
D03*
X121063Y179134D02*
D03*
Y155512D02*
D03*
X68898Y138779D02*
D03*
D36*
X99488Y19488D02*
D03*
X109488D02*
D03*
X119488D02*
D03*
X129488D02*
D03*
X89488D02*
D03*
X79488D02*
D03*
X69488D02*
D03*
X59488D02*
D03*
X49488D02*
D03*
X139488Y256102D02*
D03*
X129488D02*
D03*
X119488D02*
D03*
X109488D02*
D03*
X99488D02*
D03*
X89488D02*
D03*
X79488D02*
D03*
X69488D02*
D03*
X59488D02*
D03*
X49488D02*
D03*
D37*
X139488Y19488D02*
D03*
D39*
X152452Y196850D02*
X156492D01*
X138976Y196957D02*
X140945D01*
X111221Y200894D02*
X119910D01*
X140945Y196957D02*
X143898Y194004D01*
X142913Y193020D02*
X143898Y194004D01*
X127784Y193020D02*
X142913D01*
X119910Y200894D02*
X127784Y193020D01*
X152666Y187008D02*
X156492D01*
X111221Y198925D02*
X119095D01*
X126969Y191051D01*
X111221Y204831D02*
X119095D01*
X111221Y202862D02*
X119910D01*
X127784Y210736D01*
X119095Y204831D02*
X126969Y212705D01*
X127784Y210736D02*
X141429D01*
X138976Y206799D02*
X142035D01*
X143701Y208465D01*
X126969Y212705D02*
X141642D01*
X138976Y216642D02*
X141823D01*
X143701Y214764D01*
X148622Y210736D02*
X152666Y206693D01*
X156492D01*
X148622Y212705D02*
X152452Y216535D01*
X156492D01*
X148622Y193020D02*
X152452Y196850D01*
X143898Y194004D02*
X144882Y193020D01*
X148622D01*
X138976Y187114D02*
X141732D01*
X142520Y187902D01*
X141642Y212705D02*
X141642Y212705D01*
X141429Y210736D02*
X141429Y210736D01*
X141642Y212705D02*
X148622D01*
X141642Y212705D02*
X143701Y214764D01*
X141429Y210736D02*
X148622D01*
X148729Y190945D02*
X152666Y187008D01*
X142520Y187902D02*
X143701D01*
X148515Y191051D02*
X148622Y190945D01*
X126969Y191051D02*
X148515D01*
X148622Y190945D02*
X148729D01*
D40*
X49213Y242126D02*
Y247047D01*
X110236Y62992D02*
X139267Y33961D01*
Y30022D02*
Y33961D01*
Y30022D02*
X139488Y29801D01*
Y19488D02*
Y29801D01*
X87598Y207677D02*
Y211614D01*
X81693Y207677D02*
X87598D01*
X25591Y215551D02*
X28740D01*
X25591Y132874D02*
X46260Y153543D01*
X25591Y83661D02*
Y132874D01*
Y83661D02*
X40354Y68898D01*
X61024Y62992D02*
X110236D01*
X116142Y95472D02*
Y124016D01*
X141732Y149606D01*
X62008Y152559D02*
X67913D01*
X79724Y209646D02*
X81693Y207677D01*
X105315Y189961D02*
X105315Y189961D01*
X105315Y187008D02*
Y189961D01*
X110236Y160433D02*
X113976Y164173D01*
X121063D01*
X122244Y165354D01*
X127953D01*
X121063Y170472D02*
X122244Y169291D01*
X127953D01*
X141732Y169291D02*
Y172244D01*
Y149606D02*
Y169291D01*
X141732Y169291D02*
X141732Y169291D01*
X127953Y169291D02*
X141732D01*
X141732Y172244D02*
X146653Y177165D01*
X155512D01*
X40354Y68898D02*
X55118D01*
X61024Y62992D01*
X93504Y211614D02*
X94488Y212598D01*
X87598Y211614D02*
X93504D01*
X81693Y219488D02*
X87598D01*
X49488Y247756D02*
X50197Y247047D01*
X49488Y247756D02*
Y256102D01*
X49213Y247047D02*
X50197D01*
X83661Y189961D02*
X83661Y189961D01*
X83661Y187008D02*
Y189961D01*
X104527Y187795D02*
X105315Y187008D01*
X129921Y187114D02*
X132677D01*
X129921Y206799D02*
X132677D01*
X62992Y209646D02*
X79724D01*
X61024D02*
X62992D01*
D41*
X121063Y155512D02*
Y164173D01*
Y154528D02*
Y155512D01*
Y170472D02*
Y179134D01*
X7874Y234252D02*
Y237205D01*
X35236Y220669D02*
X40354Y215551D01*
X35236Y220669D02*
Y227165D01*
X3937Y219488D02*
Y227362D01*
Y211614D02*
Y219488D01*
Y203740D02*
Y211614D01*
Y195866D02*
Y203740D01*
Y187992D02*
Y195866D01*
X82874Y167323D02*
X90551D01*
X78937Y163386D02*
X82874Y167323D01*
X129815Y196957D02*
X132677D01*
X127953Y198819D02*
X129815Y196957D01*
X124016Y216642D02*
X132677D01*
X129724Y245472D02*
X131299D01*
X133858Y248031D01*
Y261811D01*
D42*
X112205Y212598D02*
Y214567D01*
X111221Y215551D02*
X112205Y214567D01*
X87598Y215551D02*
X111221D01*
D43*
X99213Y187795D02*
X104527D01*
X84449D02*
X89764D01*
X71850Y152559D02*
X77650D01*
X51968Y215551D02*
X62008D01*
X40354D02*
X51968D01*
D44*
X65945Y215551D02*
X65945Y215551D01*
X62992Y215551D02*
X65945D01*
D45*
X109488Y248780D02*
Y256102D01*
Y248780D02*
X112795Y245472D01*
X120276D01*
X119488Y256102D02*
X123425Y252165D01*
Y245472D02*
Y252165D01*
X126575Y253189D02*
X129488Y256102D01*
X126575Y245472D02*
Y253189D01*
X131890Y263779D02*
X133858Y261811D01*
X62008Y263779D02*
X131890D01*
X59488Y261260D02*
X62008Y263779D01*
X59488Y256102D02*
Y261260D01*
X73425Y245472D02*
X79921D01*
X69488Y249410D02*
X73425Y245472D01*
X69488Y249410D02*
Y256102D01*
X89370Y245472D02*
X95866D01*
X99488Y249095D01*
Y256102D01*
X86221Y252835D02*
X89488Y256102D01*
X86221Y245472D02*
Y252835D01*
X83071Y245472D02*
Y252520D01*
X79488Y256102D02*
X83071Y252520D01*
X79528Y30118D02*
X85039D01*
X89488Y25669D01*
Y19488D02*
Y25669D01*
X63583Y30118D02*
X70079D01*
X59488Y26024D02*
X63583Y30118D01*
X59488Y19488D02*
Y26024D01*
X76378Y22598D02*
X79488Y19488D01*
X76378Y22598D02*
Y29134D01*
X69488Y19488D02*
X73228Y23228D01*
Y29134D01*
X129488Y19488D02*
Y26024D01*
X125394Y30118D02*
X129488Y26024D01*
X118898Y30118D02*
X125394D01*
X115748Y23228D02*
X119488Y19488D01*
X115748Y23228D02*
Y30118D01*
X109488Y19488D02*
X112598Y22598D01*
Y30118D01*
X103937D02*
X109449D01*
X99488Y25669D02*
X103937Y30118D01*
X99488Y19488D02*
Y25669D01*
D46*
X173228Y259842D02*
D03*
X15748Y15748D02*
D03*
X173228D02*
D03*
X15748Y259842D02*
D03*
D47*
X36417Y211614D02*
D03*
X44291D02*
D03*
X40354D02*
D03*
X44291Y219488D02*
D03*
X36417D02*
D03*
X40354D02*
D03*
X36417Y215551D02*
D03*
X44291D02*
D03*
X40354D02*
D03*
X75787Y241142D02*
D03*
X148622Y33465D02*
D03*
X145669Y26575D02*
D03*
X148622D02*
D03*
X145669Y33465D02*
D03*
X181102Y38386D02*
D03*
X184055Y85630D02*
D03*
X180118Y135827D02*
D03*
X87598Y207677D02*
D03*
X25591Y215551D02*
D03*
X91535Y233268D02*
D03*
X114173Y240158D02*
D03*
X104331Y233268D02*
D03*
X94488Y240158D02*
D03*
X105315Y249016D02*
D03*
X114173Y181102D02*
D03*
X104331Y175197D02*
D03*
X116142Y169291D02*
D03*
X144685Y182087D02*
D03*
X132874Y174213D02*
D03*
X145669Y201772D02*
D03*
X132874D02*
D03*
X121063Y189961D02*
D03*
X111221Y193898D02*
D03*
X99410D02*
D03*
X88583Y192913D02*
D03*
X82677Y196850D02*
D03*
X75787Y180118D02*
D03*
X74803Y193898D02*
D03*
X63976Y182087D02*
D03*
X72835Y66929D02*
D03*
X90551Y67913D02*
D03*
X116142Y64961D02*
D03*
X125000Y55118D02*
D03*
X135827Y44291D02*
D03*
X121063Y120079D02*
D03*
X111221Y118110D02*
D03*
X126969Y127953D02*
D03*
X137795Y137795D02*
D03*
X146653Y149606D02*
D03*
X137795Y164370D02*
D03*
X133858Y148622D02*
D03*
X122047Y136811D02*
D03*
X119095Y148622D02*
D03*
X106299Y127953D02*
D03*
Y142717D02*
D03*
X93504Y125984D02*
D03*
X79724Y126969D02*
D03*
X72835Y133858D02*
D03*
X67913Y145669D02*
D03*
X52165Y139764D02*
D03*
X40354Y152559D02*
D03*
X30512Y142717D02*
D03*
X51181Y159449D02*
D03*
X52165Y148622D02*
D03*
X42323Y138779D02*
D03*
X45276Y90551D02*
D03*
X42323Y103347D02*
D03*
X36417Y129921D02*
D03*
Y116142D02*
D03*
Y103347D02*
D03*
Y89567D02*
D03*
X35433Y80709D02*
D03*
X29528Y92520D02*
D03*
Y104331D02*
D03*
Y116142D02*
D03*
Y127953D02*
D03*
X33465Y66929D02*
D03*
X25591Y68898D02*
D03*
X70866Y57087D02*
D03*
X88583D02*
D03*
X114173Y49213D02*
D03*
X104331Y57087D02*
D03*
X125984Y35433D02*
D03*
X94488Y29528D02*
D03*
X96457Y43307D02*
D03*
X84646D02*
D03*
X151575Y7874D02*
D03*
X131890D02*
D03*
X116142D02*
D03*
X100394D02*
D03*
X84646D02*
D03*
X39370D02*
D03*
X68898D02*
D03*
X53150D02*
D03*
X57087Y33465D02*
D03*
X41339D02*
D03*
X23622Y35433D02*
D03*
X11811Y45276D02*
D03*
X3937Y55118D02*
D03*
Y68898D02*
D03*
Y163386D02*
D03*
Y179134D02*
D03*
Y86614D02*
D03*
Y104331D02*
D03*
Y118110D02*
D03*
Y135827D02*
D03*
X11811Y155512D02*
D03*
X27559Y173228D02*
D03*
X33465Y190945D02*
D03*
X31496Y234252D02*
D03*
X68898Y220472D02*
D03*
X74803Y216535D02*
D03*
X31496Y246063D02*
D03*
X43307Y242126D02*
D03*
X41339Y255906D02*
D03*
X57087Y242126D02*
D03*
X61024Y244094D02*
D03*
Y248031D02*
D03*
X53150Y263779D02*
D03*
X59055Y269685D02*
D03*
X78740D02*
D03*
X96457D02*
D03*
X116142D02*
D03*
X137795Y265748D02*
D03*
X147638Y255906D02*
D03*
X149606Y238189D02*
D03*
X139764Y246063D02*
D03*
X135827Y236221D02*
D03*
X118110Y210630D02*
D03*
X116142Y220472D02*
D03*
X104331D02*
D03*
X94488D02*
D03*
X133858Y224410D02*
D03*
X145669D02*
D03*
X157480D02*
D03*
X165354Y181102D02*
D03*
Y192913D02*
D03*
Y204724D02*
D03*
Y216535D02*
D03*
X151575Y163386D02*
D03*
X159449D02*
D03*
X155512D02*
D03*
X151575Y171260D02*
D03*
X159449D02*
D03*
X155512D02*
D03*
X62008Y152559D02*
D03*
X105315Y189961D02*
D03*
X144685Y88583D02*
D03*
Y100394D02*
D03*
X46260Y153543D02*
D03*
X23622Y167323D02*
D03*
X169291Y151575D02*
D03*
Y155512D02*
D03*
X177165Y151575D02*
D03*
X173228D02*
D03*
X177165Y155512D02*
D03*
X173228D02*
D03*
X169291Y228346D02*
D03*
X173228D02*
D03*
X177165D02*
D03*
X169291Y232283D02*
D03*
X173228D02*
D03*
X177165D02*
D03*
X127953Y198819D02*
D03*
X103347Y209646D02*
D03*
Y212598D02*
D03*
X81693Y219488D02*
D03*
X49213Y242126D02*
D03*
X137795Y122047D02*
D03*
Y118110D02*
D03*
X141732D02*
D03*
Y122047D02*
D03*
X145669D02*
D03*
Y118110D02*
D03*
X137795Y62992D02*
D03*
Y59055D02*
D03*
X141732D02*
D03*
Y62992D02*
D03*
X145669D02*
D03*
Y59055D02*
D03*
X51181Y62992D02*
D03*
X47244D02*
D03*
X43307D02*
D03*
X51181Y59055D02*
D03*
X47244D02*
D03*
X43307D02*
D03*
X51181Y122047D02*
D03*
Y118110D02*
D03*
X47244D02*
D03*
X43307D02*
D03*
X47244Y122047D02*
D03*
X43307D02*
D03*
X135827Y72835D02*
D03*
Y80709D02*
D03*
Y88583D02*
D03*
Y100394D02*
D03*
Y108268D02*
D03*
X53150Y72835D02*
D03*
Y80709D02*
D03*
Y88583D02*
D03*
Y94488D02*
D03*
Y100394D02*
D03*
Y108268D02*
D03*
X124016D02*
D03*
X108268D02*
D03*
X94488D02*
D03*
X80709D02*
D03*
X64961D02*
D03*
X124016Y100394D02*
D03*
X108268D02*
D03*
X94488D02*
D03*
X80709D02*
D03*
X64961D02*
D03*
Y88583D02*
D03*
X80709D02*
D03*
X94488D02*
D03*
X108268D02*
D03*
X124016D02*
D03*
Y72835D02*
D03*
X108268D02*
D03*
X94488D02*
D03*
X80709D02*
D03*
X64961D02*
D03*
X94488Y80709D02*
D03*
X64961D02*
D03*
X80709D02*
D03*
X108268D02*
D03*
X124016D02*
D03*
X83661Y189961D02*
D03*
X100394Y184055D02*
D03*
X107283Y181102D02*
D03*
X81693D02*
D03*
X97441Y184055D02*
D03*
X94488D02*
D03*
X23622Y201772D02*
D03*
X13780Y180118D02*
D03*
X11811Y183071D02*
D03*
Y214567D02*
D03*
X7874Y231299D02*
D03*
X16732Y197834D02*
D03*
X20669Y220472D02*
D03*
X12795Y190945D02*
D03*
X26575Y227362D02*
D03*
X21654Y228346D02*
D03*
X18701Y224410D02*
D03*
X16732Y187992D02*
D03*
X19685Y189961D02*
D03*
X71850Y200787D02*
D03*
X70866Y204724D02*
D03*
X90551Y167323D02*
D03*
X94488D02*
D03*
X98425D02*
D03*
X86614Y149606D02*
D03*
Y152559D02*
D03*
Y155512D02*
D03*
X102362Y149606D02*
D03*
Y155512D02*
D03*
Y152559D02*
D03*
X129921Y187114D02*
D03*
Y206799D02*
D03*
X124016Y216642D02*
D03*
X94488Y139764D02*
D03*
X19685Y202756D02*
D03*
X65945Y215551D02*
D03*
X61024Y209646D02*
D03*
X94488Y136811D02*
D03*
Y153543D02*
D03*
Y142717D02*
D03*
X87008Y161417D02*
D03*
X83858Y161417D02*
D03*
X94488Y156496D02*
D03*
Y159449D02*
D03*
M02*
