M48
;Layer_Color=9474304
;FILE_FORMAT=2:5
INCH,TZ
;TYPE=PLATED
T1F00S00C0.01181
T2F00S00C0.03937
T3F00S00C0.04331
T4F00S00C0.12205
%
T01
X39370Y7874
X53150
X57087Y33465
X41339
X23622Y35433
X11811Y45276
X3937Y55118
X43307Y59055
X47244
X51181
X70866Y57087
X88583
X104331
X114173Y49213
X125000Y55118
X137795Y59055
X141732
X145669
X135827Y44291
X125984Y35433
X145669Y33465
X148622
Y26575
X145669
X151575Y7874
X131890
X116142
X100394
X84646
X68898
X94488Y29528
X96457Y43307
X84646
X181102Y38386
X184055Y85630
X144685Y88583
X135827
Y80709
Y72835
X124016
Y80709
Y88583
Y100394
Y108268
X135827
Y100394
X144685
X145669Y118110
Y122047
X141732
X137795
Y118110
X141732
X121063Y120079
X111221Y118110
X108268Y108268
Y100394
Y88583
Y80709
Y72835
X94488
Y80709
Y88583
Y100394
Y108268
X80709
Y100394
Y88583
Y80709
Y72835
X72835Y66929
X64961Y72835
Y80709
Y88583
Y100394
Y108268
X79724Y126969
X72835Y133858
X67913Y145669
X62008Y152559
X86614
Y155512
Y149606
X94488Y153543
Y156496
Y159449
Y167323
X90551
X98425
X104331Y175197
X107283Y181102
X114173
X116142Y169291
X132874Y174213
X137795Y164370
X151575Y163386
X155512
X159449
Y171260
X155512
X151575
X144685Y182087
X129921Y187114
X121063Y189961
X111221Y193898
X105315Y189961
X99410Y193898
X100394Y184055
X97441
X94488
X88583Y192913
X83661Y189961
X82677Y196850
X74803Y193898
X71850Y200787
X70866Y204724
X61024Y209646
X65945Y215551
X74803Y216535
X87598Y207677
X103347Y209646
Y212598
X118110Y210630
X124016Y216642
X129921Y206799
X132874Y201772
X127953Y198819
X145669Y201772
X165354Y204724
Y192913
Y181102
X169291Y155512
Y151575
X173228
X177165
Y155512
X173228
X180118Y135827
X137795Y137795
X133858Y148622
X146653Y149606
X119095Y148622
X122047Y136811
X126969Y127953
X106299
Y142717
X102362Y149606
Y152559
Y155512
X94488Y142717
Y139764
Y136811
X93504Y125984
X87008Y161417
X83858Y161417
X81693Y181102
X75787Y180118
X63976Y182087
X165354Y216535
X145669Y62992
X141732
X137795
X116142Y64961
X90551Y67913
X53150Y72835
Y80709
Y88583
Y94488
Y100394
Y108268
X51181Y118110
Y122047
X47244
Y118110
X43307
Y122047
X36417Y116142
X29528
Y104331
X36417Y103347
X42323
X45276Y90551
X36417Y89567
X35433Y80709
X33465Y66929
X25591Y68898
X3937
Y86614
Y104331
Y118110
Y135827
X11811Y155512
X3937Y163386
Y179134
X13780Y180118
X11811Y183071
X12795Y190945
X16732Y187992
X19685Y189961
X16732Y197834
X19685Y202756
X23622Y201772
X25591Y215551
X36417
Y211614
X40354
X44291
Y215551
X40354
X11811Y214567
X33465Y190945
X27559Y173228
X23622Y167323
X40354Y152559
X46260Y153543
X51181Y159449
X52165Y148622
Y139764
X42323Y138779
X36417Y129921
X29528Y127953
X30512Y142717
X29528Y92520
X43307Y62992
X47244
X51181
X44291Y219488
X40354
X36417
X20669Y220472
X18701Y224410
X21654Y228346
X26575Y227362
X31496Y234252
Y246063
X43307Y242126
X49213
X57087
X53150Y263779
X41339Y255906
X7874Y231299
X61024Y244094
Y248031
X75787Y241142
X94488Y240158
X91535Y233268
X104331
Y220472
X94488
X81693Y219488
X68898Y220472
X116142
X114173Y240158
X105315Y249016
X96457Y269685
X78740
X59055
X116142
X137795Y265748
X147638Y255906
X139764Y246063
X135827Y236221
X133858Y224410
X145669
X157480
X169291Y228346
Y232283
X173228
Y228346
X177165
Y232283
X149606Y238189
T02
X49488Y19488
X59488
X69488
X79488
X89488
X99488
X109488
X119488
X129488
X139488
X121063Y155512
Y179134
X69882Y188976
X61024Y195866
X68898Y138779
X54134Y133858
X49488Y256102
X59488
X69488
X79488
X89488
X99488
X109488
X119488
X129488
X139488
T03
X176575Y162992
Y220866
T04
X15748Y15748
X173228
X15748Y259842
X173228
M30
