G04*
G04 #@! TF.GenerationSoftware,Altium Limited,Altium Designer,18.0.7 (293)*
G04*
G04 Layer_Physical_Order=2*
G04 Layer_Color=16711680*
%FSLAX25Y25*%
%MOIN*%
G70*
G01*
G75*
%ADD10C,0.00591*%
%ADD35C,0.05906*%
G04:AMPARAMS|DCode=36|XSize=62.99mil|YSize=94.49mil|CornerRadius=31.5mil|HoleSize=0mil|Usage=FLASHONLY|Rotation=180.000|XOffset=0mil|YOffset=0mil|HoleType=Round|Shape=RoundedRectangle|*
%AMROUNDEDRECTD36*
21,1,0.06299,0.03150,0,0,180.0*
21,1,0.00000,0.09449,0,0,180.0*
1,1,0.06299,0.00000,0.01575*
1,1,0.06299,0.00000,0.01575*
1,1,0.06299,0.00000,-0.01575*
1,1,0.06299,0.00000,-0.01575*
%
%ADD36ROUNDEDRECTD36*%
G04:AMPARAMS|DCode=37|XSize=62.99mil|YSize=94.49mil|CornerRadius=6.3mil|HoleSize=0mil|Usage=FLASHONLY|Rotation=180.000|XOffset=0mil|YOffset=0mil|HoleType=Round|Shape=RoundedRectangle|*
%AMROUNDEDRECTD37*
21,1,0.06299,0.08189,0,0,180.0*
21,1,0.05039,0.09449,0,0,180.0*
1,1,0.01260,-0.02520,0.04095*
1,1,0.01260,0.02520,0.04095*
1,1,0.01260,0.02520,-0.04095*
1,1,0.01260,-0.02520,-0.04095*
%
%ADD37ROUNDEDRECTD37*%
%ADD40C,0.02362*%
%ADD47C,0.02362*%
%ADD48C,0.13780*%
G36*
X185142Y274433D02*
X185869Y274132D01*
X186524Y273695D01*
X187081Y273138D01*
X187518Y272484D01*
X187819Y271756D01*
X187973Y270984D01*
Y270590D01*
Y5000D01*
Y4606D01*
X187819Y3834D01*
X187518Y3107D01*
X187081Y2452D01*
X186524Y1896D01*
X185869Y1458D01*
X185142Y1157D01*
X184370Y1003D01*
X3648D01*
X3081Y1116D01*
X2547Y1337D01*
X2067Y1658D01*
X1658Y2067D01*
X1337Y2547D01*
X1116Y3081D01*
X1003Y3648D01*
Y3937D01*
Y270590D01*
Y270984D01*
X1157Y271756D01*
X1458Y272484D01*
X1896Y273138D01*
X2452Y273695D01*
X3107Y274132D01*
X3834Y274433D01*
X4606Y274587D01*
X184370D01*
X185142Y274433D01*
D02*
G37*
%LPC*%
G36*
X139488Y261847D02*
X138409Y261705D01*
X137403Y261288D01*
X136540Y260626D01*
X135877Y259762D01*
X135461Y258756D01*
X133516D01*
X133099Y259762D01*
X132437Y260626D01*
X131573Y261288D01*
X130567Y261705D01*
X129488Y261847D01*
X128409Y261705D01*
X127403Y261288D01*
X126540Y260626D01*
X125877Y259762D01*
X125461Y258756D01*
X123516D01*
X123099Y259762D01*
X122436Y260626D01*
X121573Y261288D01*
X120567Y261705D01*
X119488Y261847D01*
X118409Y261705D01*
X117403Y261288D01*
X116540Y260626D01*
X115877Y259762D01*
X115461Y258756D01*
X113516D01*
X113099Y259762D01*
X112436Y260626D01*
X111573Y261288D01*
X110567Y261705D01*
X109488Y261847D01*
X108409Y261705D01*
X107403Y261288D01*
X106540Y260626D01*
X105877Y259762D01*
X105461Y258756D01*
X103516D01*
X103099Y259762D01*
X102436Y260626D01*
X101573Y261288D01*
X100567Y261705D01*
X99488Y261847D01*
X98409Y261705D01*
X97403Y261288D01*
X96540Y260626D01*
X95877Y259762D01*
X95461Y258756D01*
X93516D01*
X93099Y259762D01*
X92436Y260626D01*
X91573Y261288D01*
X90567Y261705D01*
X89488Y261847D01*
X88409Y261705D01*
X87403Y261288D01*
X86540Y260626D01*
X85877Y259762D01*
X85461Y258756D01*
X83516D01*
X83099Y259762D01*
X82437Y260626D01*
X81573Y261288D01*
X80567Y261705D01*
X79488Y261847D01*
X78409Y261705D01*
X77403Y261288D01*
X76540Y260626D01*
X75877Y259762D01*
X75461Y258756D01*
X73516D01*
X73099Y259762D01*
X72436Y260626D01*
X71573Y261288D01*
X70567Y261705D01*
X69488Y261847D01*
X68409Y261705D01*
X67403Y261288D01*
X66540Y260626D01*
X65877Y259762D01*
X65461Y258756D01*
X63516D01*
X63099Y259762D01*
X62436Y260626D01*
X61573Y261288D01*
X60567Y261705D01*
X59488Y261847D01*
X58409Y261705D01*
X57403Y261288D01*
X56540Y260626D01*
X55877Y259762D01*
X55461Y258756D01*
X53516D01*
X53099Y259762D01*
X52437Y260626D01*
X51573Y261288D01*
X50567Y261705D01*
X49488Y261847D01*
X48409Y261705D01*
X47403Y261288D01*
X46540Y260626D01*
X45877Y259762D01*
X45461Y258756D01*
X45319Y257677D01*
Y254528D01*
X45461Y253448D01*
X45877Y252443D01*
X46540Y251579D01*
X47403Y250917D01*
X48409Y250500D01*
X49488Y250358D01*
X50567Y250500D01*
X51573Y250917D01*
X52437Y251579D01*
X53099Y252443D01*
X53516Y253448D01*
X55461D01*
X55877Y252443D01*
X56540Y251579D01*
X57403Y250917D01*
X58409Y250500D01*
X59488Y250358D01*
X60567Y250500D01*
X61573Y250917D01*
X62436Y251579D01*
X63099Y252443D01*
X63516Y253448D01*
X65461D01*
X65877Y252443D01*
X66540Y251579D01*
X67403Y250917D01*
X68409Y250500D01*
X69488Y250358D01*
X70567Y250500D01*
X71573Y250917D01*
X72436Y251579D01*
X73099Y252443D01*
X73516Y253448D01*
X75461D01*
X75877Y252443D01*
X76540Y251579D01*
X77403Y250917D01*
X78409Y250500D01*
X79488Y250358D01*
X80567Y250500D01*
X81573Y250917D01*
X82437Y251579D01*
X83099Y252443D01*
X83516Y253448D01*
X85461D01*
X85877Y252443D01*
X86540Y251579D01*
X87403Y250917D01*
X88409Y250500D01*
X89488Y250358D01*
X90567Y250500D01*
X91573Y250917D01*
X92436Y251579D01*
X93099Y252443D01*
X93516Y253448D01*
X95461D01*
X95877Y252443D01*
X96540Y251579D01*
X97403Y250917D01*
X98409Y250500D01*
X99488Y250358D01*
X100567Y250500D01*
X101573Y250917D01*
X102436Y251579D01*
X103099Y252443D01*
X103516Y253448D01*
X105461D01*
X105877Y252443D01*
X106540Y251579D01*
X107403Y250917D01*
X108409Y250500D01*
X109488Y250358D01*
X110567Y250500D01*
X111573Y250917D01*
X112436Y251579D01*
X113099Y252443D01*
X113516Y253448D01*
X115461D01*
X115877Y252443D01*
X116540Y251579D01*
X117403Y250917D01*
X118409Y250500D01*
X119488Y250358D01*
X120567Y250500D01*
X121573Y250917D01*
X122436Y251579D01*
X123099Y252443D01*
X123516Y253448D01*
X125461D01*
X125877Y252443D01*
X126540Y251579D01*
X127403Y250917D01*
X128409Y250500D01*
X129488Y250358D01*
X130567Y250500D01*
X131573Y250917D01*
X132437Y251579D01*
X133099Y252443D01*
X133516Y253448D01*
X135461D01*
X135877Y252443D01*
X136540Y251579D01*
X137403Y250917D01*
X138409Y250500D01*
X139488Y250358D01*
X140567Y250500D01*
X141573Y250917D01*
X142437Y251579D01*
X143099Y252443D01*
X143516Y253448D01*
X143658Y254528D01*
Y257677D01*
X143516Y258756D01*
X143099Y259762D01*
X142437Y260626D01*
X141573Y261288D01*
X140567Y261705D01*
X139488Y261847D01*
D02*
G37*
G36*
X173228Y267755D02*
X171685Y267603D01*
X170201Y267152D01*
X168833Y266421D01*
X167634Y265437D01*
X166650Y264238D01*
X165919Y262870D01*
X165468Y261386D01*
X165316Y259842D01*
X165468Y258299D01*
X165919Y256815D01*
X166650Y255447D01*
X167634Y254248D01*
X168833Y253264D01*
X170201Y252533D01*
X171685Y252082D01*
X173228Y251930D01*
X174772Y252082D01*
X176256Y252533D01*
X177624Y253264D01*
X178823Y254248D01*
X179807Y255447D01*
X180538Y256815D01*
X180988Y258299D01*
X181140Y259842D01*
X180988Y261386D01*
X180538Y262870D01*
X179807Y264238D01*
X178823Y265437D01*
X177624Y266421D01*
X176256Y267152D01*
X174772Y267603D01*
X173228Y267755D01*
D02*
G37*
G36*
X15748D02*
X14204Y267603D01*
X12720Y267152D01*
X11352Y266421D01*
X10153Y265437D01*
X9169Y264238D01*
X8438Y262870D01*
X7988Y261386D01*
X7836Y259842D01*
X7988Y258299D01*
X8438Y256815D01*
X9169Y255447D01*
X10153Y254248D01*
X11352Y253264D01*
X12720Y252533D01*
X14204Y252082D01*
X15748Y251930D01*
X17292Y252082D01*
X18776Y252533D01*
X20144Y253264D01*
X21343Y254248D01*
X22327Y255447D01*
X23058Y256815D01*
X23508Y258299D01*
X23660Y259842D01*
X23508Y261386D01*
X23058Y262870D01*
X22327Y264238D01*
X21343Y265437D01*
X20144Y266421D01*
X18776Y267152D01*
X17292Y267603D01*
X15748Y267755D01*
D02*
G37*
G36*
X7874Y233507D02*
X7029Y233339D01*
X6313Y232860D01*
X5834Y232144D01*
X5666Y231299D01*
X5834Y230454D01*
X6313Y229738D01*
X6569Y229567D01*
Y187008D01*
X6669Y186509D01*
X6951Y186085D01*
X9663Y183373D01*
X9603Y183071D01*
X9771Y182226D01*
X10250Y181510D01*
X10966Y181031D01*
X11723Y180880D01*
X11572Y180118D01*
X11740Y179273D01*
X12218Y178557D01*
X12935Y178078D01*
X13780Y177910D01*
X14624Y178078D01*
X15341Y178557D01*
X15819Y179273D01*
X15987Y180118D01*
X15909Y180513D01*
X15969Y180603D01*
X16068Y181102D01*
Y183909D01*
X16110Y184067D01*
X16167Y184123D01*
X17373Y184955D01*
X17801Y185086D01*
X18202Y184818D01*
X18701Y184719D01*
X21654D01*
X22153Y184818D01*
X22576Y185101D01*
X24544Y187070D01*
X24827Y187493D01*
X24927Y187992D01*
Y198453D01*
X26739Y200152D01*
X27357Y200129D01*
X27621Y199865D01*
X28044Y199582D01*
X28543Y199483D01*
X56355D01*
X56983Y198650D01*
X57445Y197514D01*
X57188Y196894D01*
X57053Y195866D01*
X57188Y194838D01*
X57585Y193881D01*
X58216Y193058D01*
X59038Y192427D01*
X59996Y192031D01*
X61024Y191895D01*
X62051Y192031D01*
X63009Y192427D01*
X63832Y193058D01*
X64463Y193881D01*
X64859Y194838D01*
X64995Y195866D01*
X64859Y196894D01*
X64602Y197514D01*
X65065Y198650D01*
X65692Y199483D01*
X70118D01*
X70289Y199226D01*
X71005Y198748D01*
X71850Y198580D01*
X72695Y198748D01*
X73412Y199226D01*
X73890Y199943D01*
X74058Y200787D01*
X73890Y201632D01*
X73412Y202348D01*
X72715Y202925D01*
X72906Y203879D01*
X73074Y204724D01*
X72906Y205569D01*
X72427Y206286D01*
X71711Y206764D01*
X70866Y206932D01*
X70021Y206764D01*
X69305Y206286D01*
X68826Y205569D01*
X68722Y205045D01*
X62329D01*
X61514Y207013D01*
X62585Y208085D01*
X63063Y208801D01*
X63231Y209646D01*
X63063Y210490D01*
X62585Y211207D01*
X61869Y211685D01*
X61024Y211853D01*
X60179Y211685D01*
X59462Y211207D01*
X58141Y209885D01*
X34379D01*
X27152Y217112D01*
X26435Y217591D01*
X25591Y217759D01*
X24893Y218074D01*
X23843Y219003D01*
X23560Y219426D01*
X22817Y220170D01*
X22877Y220472D01*
X22709Y221317D01*
X22230Y222034D01*
X21514Y222512D01*
X20784Y223506D01*
X20909Y224409D01*
X21469Y225709D01*
X22390Y226285D01*
X22498Y226307D01*
X22561Y226349D01*
X23841Y226458D01*
X24969Y225868D01*
X25014Y225801D01*
X25730Y225323D01*
X26575Y225154D01*
X27420Y225323D01*
X28136Y225801D01*
X28615Y226517D01*
X28783Y227362D01*
X28615Y228207D01*
X28136Y228923D01*
X27420Y229402D01*
X26575Y229570D01*
X26272Y229510D01*
X23560Y232222D01*
X23137Y232505D01*
X22638Y232604D01*
X16732D01*
X16233Y232505D01*
X15810Y232222D01*
X11843Y228255D01*
X9776Y228972D01*
X9648Y230057D01*
X9914Y230454D01*
X10082Y231299D01*
X9914Y232144D01*
X9435Y232860D01*
X8719Y233339D01*
X7874Y233507D01*
D02*
G37*
G36*
X176575Y224043D02*
X175753Y223935D01*
X174986Y223617D01*
X174328Y223113D01*
X173824Y222455D01*
X173506Y221688D01*
X173398Y220866D01*
X173506Y220044D01*
X173824Y219278D01*
X174328Y218620D01*
X174986Y218115D01*
X175753Y217798D01*
X176575Y217689D01*
X177397Y217798D01*
X178163Y218115D01*
X178821Y218620D01*
X179326Y219278D01*
X179643Y220044D01*
X179752Y220866D01*
X179643Y221688D01*
X179326Y222455D01*
X178821Y223113D01*
X178163Y223617D01*
X177397Y223935D01*
X176575Y224043D01*
D02*
G37*
G36*
X124016Y218850D02*
X123171Y218682D01*
X122455Y218203D01*
X121976Y217487D01*
X121808Y216642D01*
X121819Y216589D01*
X121808Y216535D01*
Y202756D01*
X121976Y201911D01*
X122455Y201195D01*
X126392Y197258D01*
X126392Y197258D01*
X127108Y196779D01*
X127953Y196611D01*
X128798Y196779D01*
X129514Y197258D01*
X129992Y197974D01*
X130160Y198819D01*
X129992Y199664D01*
X129514Y200380D01*
X126224Y203670D01*
Y216535D01*
X126213Y216589D01*
X126224Y216642D01*
X126055Y217487D01*
X125577Y218203D01*
X124861Y218682D01*
X124016Y218850D01*
D02*
G37*
G36*
X49213Y244334D02*
X48368Y244166D01*
X47651Y243687D01*
X47173Y242971D01*
X47005Y242126D01*
X47173Y241281D01*
X47651Y240565D01*
X59462Y228754D01*
X60179Y228275D01*
X61024Y228107D01*
X69952D01*
X76532Y221527D01*
Y219488D01*
Y191929D01*
X76701Y191084D01*
X77179Y190368D01*
X77586Y189961D01*
X75722Y188097D01*
X73943Y188934D01*
X73849Y189007D01*
X73718Y190004D01*
X73321Y190962D01*
X72690Y191784D01*
X71867Y192415D01*
X70910Y192812D01*
X69882Y192947D01*
X68854Y192812D01*
X67896Y192415D01*
X67074Y191784D01*
X66443Y190962D01*
X66046Y190004D01*
X65911Y188976D01*
X66046Y187949D01*
X66443Y186991D01*
X67074Y186169D01*
X67896Y185537D01*
X68854Y185141D01*
X69851Y185009D01*
X69924Y184915D01*
X70762Y183136D01*
X59462Y171837D01*
X58984Y171121D01*
X58816Y170276D01*
Y155751D01*
X46260D01*
X45415Y155583D01*
X44699Y155104D01*
X44220Y154388D01*
X44052Y153543D01*
X44220Y152698D01*
X44699Y151982D01*
X45415Y151504D01*
X46260Y151336D01*
X60109D01*
X60447Y150998D01*
X61163Y150519D01*
X62008Y150351D01*
X62853Y150519D01*
X63569Y150998D01*
X64048Y151714D01*
X64216Y152559D01*
X64048Y153404D01*
X63569Y154120D01*
X63231Y154458D01*
Y169361D01*
X81623Y187753D01*
X83661D01*
X84506Y187921D01*
X85223Y188400D01*
X85701Y189116D01*
X85869Y189961D01*
X85701Y190805D01*
X85223Y191522D01*
X84506Y192000D01*
X83661Y192168D01*
X81623D01*
X80948Y192844D01*
Y217280D01*
X81693D01*
X82538Y217448D01*
X83254Y217927D01*
X83733Y218643D01*
X83901Y219488D01*
X83733Y220333D01*
X83254Y221049D01*
X82538Y221528D01*
X81693Y221696D01*
X80948D01*
Y222441D01*
X80780Y223286D01*
X80301Y224002D01*
X72427Y231876D01*
X71711Y232355D01*
X70866Y232523D01*
X61938D01*
X50774Y243687D01*
X50058Y244166D01*
X49213Y244334D01*
D02*
G37*
G36*
X87598Y209885D02*
X86753Y209717D01*
X86037Y209238D01*
X85559Y208522D01*
X85391Y207677D01*
Y199803D01*
X85559Y198958D01*
X86037Y198242D01*
X95880Y188400D01*
X96596Y187921D01*
X97441Y187753D01*
X105315D01*
X106160Y187921D01*
X106876Y188400D01*
X107355Y189116D01*
X107523Y189961D01*
X107355Y190805D01*
X106876Y191522D01*
X106160Y192000D01*
X105315Y192168D01*
X98355D01*
X89806Y200718D01*
Y207677D01*
X89638Y208522D01*
X89160Y209238D01*
X88443Y209717D01*
X87598Y209885D01*
D02*
G37*
G36*
X121063Y183105D02*
X120035Y182969D01*
X119078Y182573D01*
X118255Y181942D01*
X117624Y181119D01*
X117227Y180162D01*
X117092Y179134D01*
X117227Y178106D01*
X117624Y177148D01*
X118255Y176326D01*
X119078Y175695D01*
X120035Y175298D01*
X121063Y175163D01*
X122091Y175298D01*
X123048Y175695D01*
X123871Y176326D01*
X124502Y177148D01*
X124899Y178106D01*
X125034Y179134D01*
X124899Y180162D01*
X124502Y181119D01*
X123871Y181942D01*
X123048Y182573D01*
X122091Y182969D01*
X121063Y183105D01*
D02*
G37*
G36*
X176575Y166169D02*
X175753Y166061D01*
X174986Y165743D01*
X174328Y165238D01*
X173824Y164581D01*
X173506Y163814D01*
X173398Y162992D01*
X173506Y162170D01*
X173824Y161404D01*
X174328Y160746D01*
X174986Y160241D01*
X175753Y159924D01*
X176575Y159815D01*
X177397Y159924D01*
X178163Y160241D01*
X178821Y160746D01*
X179326Y161404D01*
X179643Y162170D01*
X179752Y162992D01*
X179643Y163814D01*
X179326Y164581D01*
X178821Y165238D01*
X178163Y165743D01*
X177397Y166061D01*
X176575Y166169D01*
D02*
G37*
G36*
X121063Y159483D02*
X120035Y159347D01*
X119078Y158951D01*
X118255Y158320D01*
X117624Y157497D01*
X117227Y156540D01*
X117092Y155512D01*
X117227Y154484D01*
X117624Y153526D01*
X118255Y152704D01*
X119078Y152073D01*
X120035Y151676D01*
X121063Y151541D01*
X122091Y151676D01*
X123048Y152073D01*
X123871Y152704D01*
X124502Y153526D01*
X124899Y154484D01*
X125034Y155512D01*
X124899Y156540D01*
X124502Y157497D01*
X123871Y158320D01*
X123048Y158951D01*
X122091Y159347D01*
X121063Y159483D01*
D02*
G37*
G36*
X68898Y142751D02*
X67870Y142615D01*
X66912Y142218D01*
X66090Y141587D01*
X65459Y140765D01*
X65062Y139807D01*
X64927Y138779D01*
X65062Y137752D01*
X65459Y136794D01*
X66090Y135972D01*
X66912Y135341D01*
X67870Y134944D01*
X68898Y134809D01*
X69925Y134944D01*
X70883Y135341D01*
X71706Y135972D01*
X72337Y136794D01*
X72733Y137752D01*
X72869Y138779D01*
X72733Y139807D01*
X72337Y140765D01*
X71706Y141587D01*
X70883Y142218D01*
X69925Y142615D01*
X68898Y142751D01*
D02*
G37*
G36*
X54528Y137579D02*
Y134252D01*
X57854D01*
X57778Y134835D01*
X57401Y135745D01*
X56801Y136526D01*
X56020Y137125D01*
X55110Y137502D01*
X54528Y137579D01*
D02*
G37*
G36*
X53740D02*
X53158Y137502D01*
X52248Y137125D01*
X51466Y136526D01*
X50867Y135745D01*
X50490Y134835D01*
X50413Y134252D01*
X53740D01*
Y137579D01*
D02*
G37*
G36*
X93701Y164389D02*
X82874D01*
X82490Y164313D01*
X82164Y164095D01*
X81947Y163770D01*
X81871Y163386D01*
Y162340D01*
X81819Y162262D01*
X81651Y161417D01*
X81819Y160572D01*
X81871Y160495D01*
X81871Y159449D01*
X81871Y159449D01*
X81947Y159065D01*
X82164Y158739D01*
X82490Y158522D01*
X82874Y158445D01*
X82874Y158445D01*
X83423Y158445D01*
X87380Y158445D01*
X90532Y155293D01*
Y134843D01*
X90608Y134458D01*
X90826Y134133D01*
X91151Y133915D01*
X91535Y133839D01*
X97038Y133839D01*
X97087Y133839D01*
X97087Y133839D01*
X97471Y133915D01*
X97797Y134133D01*
X98150Y134486D01*
X98368Y134812D01*
X98368Y134812D01*
X98444Y135196D01*
X98444Y135196D01*
X98444Y135245D01*
X98444Y159646D01*
X98368Y160030D01*
X98150Y160355D01*
X94410Y164095D01*
X94085Y164313D01*
X93701Y164389D01*
D02*
G37*
G36*
X57854Y133465D02*
X54528D01*
Y130138D01*
X55110Y130214D01*
X56020Y130591D01*
X56801Y131191D01*
X57401Y131972D01*
X57778Y132882D01*
X57854Y133465D01*
D02*
G37*
G36*
X53740D02*
X50413D01*
X50490Y132882D01*
X50867Y131972D01*
X51466Y131191D01*
X52248Y130591D01*
X53158Y130214D01*
X53740Y130138D01*
Y133465D01*
D02*
G37*
G36*
X129488Y25232D02*
X128409Y25091D01*
X127403Y24674D01*
X126540Y24011D01*
X125877Y23148D01*
X125461Y22142D01*
X123516D01*
X123099Y23148D01*
X122436Y24011D01*
X121573Y24674D01*
X120567Y25091D01*
X119488Y25232D01*
X118409Y25091D01*
X117403Y24674D01*
X116540Y24011D01*
X115877Y23148D01*
X115461Y22142D01*
X113516D01*
X113099Y23148D01*
X112436Y24011D01*
X111573Y24674D01*
X110567Y25091D01*
X109488Y25232D01*
X108409Y25091D01*
X107403Y24674D01*
X106540Y24011D01*
X105877Y23148D01*
X105461Y22142D01*
X103516D01*
X103099Y23148D01*
X102436Y24011D01*
X101573Y24674D01*
X100567Y25091D01*
X99488Y25232D01*
X98409Y25091D01*
X97403Y24674D01*
X96540Y24011D01*
X95877Y23148D01*
X95461Y22142D01*
X93516D01*
X93099Y23148D01*
X92436Y24011D01*
X91573Y24674D01*
X90567Y25091D01*
X89488Y25232D01*
X88409Y25091D01*
X87403Y24674D01*
X86540Y24011D01*
X85877Y23148D01*
X85461Y22142D01*
X83516D01*
X83099Y23148D01*
X82437Y24011D01*
X81573Y24674D01*
X80567Y25091D01*
X79488Y25232D01*
X78409Y25091D01*
X77403Y24674D01*
X76540Y24011D01*
X75877Y23148D01*
X75461Y22142D01*
X73516D01*
X73099Y23148D01*
X72436Y24011D01*
X71573Y24674D01*
X70567Y25091D01*
X69488Y25232D01*
X68409Y25091D01*
X67403Y24674D01*
X66540Y24011D01*
X65877Y23148D01*
X65461Y22142D01*
X63516D01*
X63099Y23148D01*
X62436Y24011D01*
X61573Y24674D01*
X60567Y25091D01*
X59488Y25232D01*
X58409Y25091D01*
X57403Y24674D01*
X56540Y24011D01*
X55877Y23148D01*
X55461Y22142D01*
X53516D01*
X53099Y23148D01*
X52437Y24011D01*
X51573Y24674D01*
X50567Y25091D01*
X49488Y25232D01*
X48409Y25091D01*
X47403Y24674D01*
X46540Y24011D01*
X45877Y23148D01*
X45461Y22142D01*
X45319Y21063D01*
Y17913D01*
X45461Y16834D01*
X45877Y15829D01*
X46540Y14965D01*
X47403Y14302D01*
X48409Y13886D01*
X49488Y13744D01*
X50567Y13886D01*
X51573Y14302D01*
X52437Y14965D01*
X53099Y15829D01*
X53516Y16834D01*
X55461D01*
X55877Y15829D01*
X56540Y14965D01*
X57403Y14302D01*
X58409Y13886D01*
X59488Y13744D01*
X60567Y13886D01*
X61573Y14302D01*
X62436Y14965D01*
X63099Y15829D01*
X63516Y16834D01*
X65461D01*
X65877Y15829D01*
X66540Y14965D01*
X67403Y14302D01*
X68409Y13886D01*
X69488Y13744D01*
X70567Y13886D01*
X71573Y14302D01*
X72436Y14965D01*
X73099Y15829D01*
X73516Y16834D01*
X75461D01*
X75877Y15829D01*
X76540Y14965D01*
X77403Y14302D01*
X78409Y13886D01*
X79488Y13744D01*
X80567Y13886D01*
X81573Y14302D01*
X82437Y14965D01*
X83099Y15829D01*
X83516Y16834D01*
X85461D01*
X85877Y15829D01*
X86540Y14965D01*
X87403Y14302D01*
X88409Y13886D01*
X89488Y13744D01*
X90567Y13886D01*
X91573Y14302D01*
X92436Y14965D01*
X93099Y15829D01*
X93516Y16834D01*
X95461D01*
X95877Y15829D01*
X96540Y14965D01*
X97403Y14302D01*
X98409Y13886D01*
X99488Y13744D01*
X100567Y13886D01*
X101573Y14302D01*
X102436Y14965D01*
X103099Y15829D01*
X103516Y16834D01*
X105461D01*
X105877Y15829D01*
X106540Y14965D01*
X107403Y14302D01*
X108409Y13886D01*
X109488Y13744D01*
X110567Y13886D01*
X111573Y14302D01*
X112436Y14965D01*
X113099Y15829D01*
X113516Y16834D01*
X115461D01*
X115877Y15829D01*
X116540Y14965D01*
X117403Y14302D01*
X118409Y13886D01*
X119488Y13744D01*
X120567Y13886D01*
X121573Y14302D01*
X122436Y14965D01*
X123099Y15829D01*
X123516Y16834D01*
X125461D01*
X125877Y15829D01*
X126540Y14965D01*
X127403Y14302D01*
X128409Y13886D01*
X129488Y13744D01*
X130567Y13886D01*
X131573Y14302D01*
X132437Y14965D01*
X133099Y15829D01*
X133354Y16444D01*
X135323Y16053D01*
Y15394D01*
X135448Y14764D01*
X135805Y14230D01*
X136339Y13873D01*
X136969Y13748D01*
X142008D01*
X142638Y13873D01*
X143172Y14230D01*
X143528Y14764D01*
X143654Y15394D01*
Y23583D01*
X143528Y24213D01*
X143172Y24746D01*
X142638Y25103D01*
X142008Y25229D01*
X136969D01*
X136339Y25103D01*
X135805Y24746D01*
X135448Y24213D01*
X135323Y23583D01*
Y22923D01*
X133354Y22532D01*
X133099Y23148D01*
X132437Y24011D01*
X131573Y24674D01*
X130567Y25091D01*
X129488Y25232D01*
D02*
G37*
G36*
X173228Y23660D02*
X171685Y23508D01*
X170201Y23058D01*
X168833Y22327D01*
X167634Y21343D01*
X166650Y20144D01*
X165919Y18776D01*
X165468Y17292D01*
X165316Y15748D01*
X165468Y14204D01*
X165919Y12720D01*
X166650Y11352D01*
X167634Y10153D01*
X168833Y9169D01*
X170201Y8438D01*
X171685Y7988D01*
X173228Y7836D01*
X174772Y7988D01*
X176256Y8438D01*
X177624Y9169D01*
X178823Y10153D01*
X179807Y11352D01*
X180538Y12720D01*
X180988Y14204D01*
X181140Y15748D01*
X180988Y17292D01*
X180538Y18776D01*
X179807Y20144D01*
X178823Y21343D01*
X177624Y22327D01*
X176256Y23058D01*
X174772Y23508D01*
X173228Y23660D01*
D02*
G37*
G36*
X15748D02*
X14204Y23508D01*
X12720Y23058D01*
X11352Y22327D01*
X10153Y21343D01*
X9169Y20144D01*
X8438Y18776D01*
X7988Y17292D01*
X7836Y15748D01*
X7988Y14204D01*
X8438Y12720D01*
X9169Y11352D01*
X10153Y10153D01*
X11352Y9169D01*
X12720Y8438D01*
X14204Y7988D01*
X15748Y7836D01*
X17292Y7988D01*
X18776Y8438D01*
X20144Y9169D01*
X21343Y10153D01*
X22327Y11352D01*
X23058Y12720D01*
X23508Y14204D01*
X23660Y15748D01*
X23508Y17292D01*
X23058Y18776D01*
X22327Y20144D01*
X21343Y21343D01*
X20144Y22327D01*
X18776Y23058D01*
X17292Y23508D01*
X15748Y23660D01*
D02*
G37*
%LPD*%
G36*
X97441Y159646D02*
X97441Y135196D01*
X97087Y134843D01*
X91535Y134843D01*
Y155709D01*
X87795Y159449D01*
X82874Y159449D01*
Y163386D01*
X93701D01*
X97441Y159646D01*
D02*
G37*
D10*
X69882Y203740D02*
X70866Y204724D01*
X29528Y203740D02*
X69882D01*
X22638Y210630D02*
X29528Y203740D01*
X22638Y210630D02*
Y218504D01*
X16732Y187992D02*
X18701Y186024D01*
X21654D01*
X23622Y187992D01*
Y201772D01*
X13780Y180118D02*
X14764Y181102D01*
Y184055D01*
X9843Y188976D02*
X14764Y184055D01*
X9843Y188976D02*
Y192913D01*
X10827Y193898D01*
X7874Y187008D02*
X11811Y183071D01*
X7874Y187008D02*
Y231299D01*
X10827Y193898D02*
Y211614D01*
X11811Y212598D01*
Y214567D01*
Y217520D02*
X13878Y215453D01*
X12795Y190945D02*
X13878Y192027D01*
Y215453D01*
X11811Y217520D02*
Y226378D01*
X16732Y231299D01*
X17717Y228346D02*
X21654D01*
X14764Y225394D02*
X17717Y228346D01*
X14764Y218504D02*
Y225394D01*
X16732Y197834D02*
Y216535D01*
X14764Y218504D02*
X16732Y216535D01*
X17913Y223622D02*
X18701Y224410D01*
X17913Y219291D02*
X20669Y216535D01*
X17913Y219291D02*
Y223622D01*
X20669Y220472D02*
X22638Y218504D01*
X20669Y208661D02*
Y216535D01*
Y208661D02*
X28543Y200787D01*
X16732Y231299D02*
X22638D01*
X26575Y227362D01*
X19685Y189961D02*
Y202756D01*
X28543Y200787D02*
X71850D01*
D35*
X54134Y133858D02*
D03*
X69882Y188976D02*
D03*
X61024Y195866D02*
D03*
X121063Y179134D02*
D03*
Y155512D02*
D03*
X68898Y138779D02*
D03*
D36*
X99488Y19488D02*
D03*
X109488D02*
D03*
X119488D02*
D03*
X129488D02*
D03*
X89488D02*
D03*
X79488D02*
D03*
X69488D02*
D03*
X59488D02*
D03*
X49488D02*
D03*
X139488Y256102D02*
D03*
X129488D02*
D03*
X119488D02*
D03*
X109488D02*
D03*
X99488D02*
D03*
X89488D02*
D03*
X79488D02*
D03*
X69488D02*
D03*
X59488D02*
D03*
X49488D02*
D03*
D37*
X139488Y19488D02*
D03*
D40*
X59055Y207677D02*
X61024Y209646D01*
X33465Y207677D02*
X59055D01*
X25591Y215551D02*
X33465Y207677D01*
X78740Y191929D02*
X80709Y189961D01*
X83661D01*
X61024Y170276D02*
X80709Y189961D01*
X61024Y153543D02*
Y170276D01*
X87598Y199803D02*
Y207677D01*
X61024Y153543D02*
X62008Y152559D01*
X46260Y153543D02*
X61024D01*
X97441Y189961D02*
X105315D01*
X87598Y199803D02*
X97441Y189961D01*
X70866Y230315D02*
X78740Y222441D01*
Y219488D02*
Y222441D01*
Y219488D02*
X81693D01*
X78740Y191929D02*
Y219488D01*
X61024Y230315D02*
X70866D01*
X49213Y242126D02*
X61024Y230315D01*
X124016Y202756D02*
Y216535D01*
Y202756D02*
X127953Y198819D01*
D47*
X36417Y211614D02*
D03*
X44291D02*
D03*
X40354D02*
D03*
X44291Y219488D02*
D03*
X36417D02*
D03*
X40354D02*
D03*
X36417Y215551D02*
D03*
X44291D02*
D03*
X40354D02*
D03*
X75787Y241142D02*
D03*
X148622Y33465D02*
D03*
X145669Y26575D02*
D03*
X148622D02*
D03*
X145669Y33465D02*
D03*
X181102Y38386D02*
D03*
X184055Y85630D02*
D03*
X180118Y135827D02*
D03*
X87598Y207677D02*
D03*
X25591Y215551D02*
D03*
X91535Y233268D02*
D03*
X114173Y240158D02*
D03*
X104331Y233268D02*
D03*
X94488Y240158D02*
D03*
X105315Y249016D02*
D03*
X114173Y181102D02*
D03*
X104331Y175197D02*
D03*
X116142Y169291D02*
D03*
X144685Y182087D02*
D03*
X132874Y174213D02*
D03*
X145669Y201772D02*
D03*
X132874D02*
D03*
X121063Y189961D02*
D03*
X111221Y193898D02*
D03*
X99410D02*
D03*
X88583Y192913D02*
D03*
X82677Y196850D02*
D03*
X75787Y180118D02*
D03*
X74803Y193898D02*
D03*
X63976Y182087D02*
D03*
X72835Y66929D02*
D03*
X90551Y67913D02*
D03*
X116142Y64961D02*
D03*
X125000Y55118D02*
D03*
X135827Y44291D02*
D03*
X121063Y120079D02*
D03*
X111221Y118110D02*
D03*
X126969Y127953D02*
D03*
X137795Y137795D02*
D03*
X146653Y149606D02*
D03*
X137795Y164370D02*
D03*
X133858Y148622D02*
D03*
X122047Y136811D02*
D03*
X119095Y148622D02*
D03*
X106299Y127953D02*
D03*
Y142717D02*
D03*
X93504Y125984D02*
D03*
X79724Y126969D02*
D03*
X72835Y133858D02*
D03*
X67913Y145669D02*
D03*
X52165Y139764D02*
D03*
X40354Y152559D02*
D03*
X30512Y142717D02*
D03*
X51181Y159449D02*
D03*
X52165Y148622D02*
D03*
X42323Y138779D02*
D03*
X45276Y90551D02*
D03*
X42323Y103347D02*
D03*
X36417Y129921D02*
D03*
Y116142D02*
D03*
Y103347D02*
D03*
Y89567D02*
D03*
X35433Y80709D02*
D03*
X29528Y92520D02*
D03*
Y104331D02*
D03*
Y116142D02*
D03*
Y127953D02*
D03*
X33465Y66929D02*
D03*
X25591Y68898D02*
D03*
X70866Y57087D02*
D03*
X88583D02*
D03*
X114173Y49213D02*
D03*
X104331Y57087D02*
D03*
X125984Y35433D02*
D03*
X94488Y29528D02*
D03*
X96457Y43307D02*
D03*
X84646D02*
D03*
X151575Y7874D02*
D03*
X131890D02*
D03*
X116142D02*
D03*
X100394D02*
D03*
X84646D02*
D03*
X39370D02*
D03*
X68898D02*
D03*
X53150D02*
D03*
X57087Y33465D02*
D03*
X41339D02*
D03*
X23622Y35433D02*
D03*
X11811Y45276D02*
D03*
X3937Y55118D02*
D03*
Y68898D02*
D03*
Y163386D02*
D03*
Y179134D02*
D03*
Y86614D02*
D03*
Y104331D02*
D03*
Y118110D02*
D03*
Y135827D02*
D03*
X11811Y155512D02*
D03*
X27559Y173228D02*
D03*
X33465Y190945D02*
D03*
X31496Y234252D02*
D03*
X68898Y220472D02*
D03*
X74803Y216535D02*
D03*
X31496Y246063D02*
D03*
X43307Y242126D02*
D03*
X41339Y255906D02*
D03*
X57087Y242126D02*
D03*
X61024Y244094D02*
D03*
Y248031D02*
D03*
X53150Y263779D02*
D03*
X59055Y269685D02*
D03*
X78740D02*
D03*
X96457D02*
D03*
X116142D02*
D03*
X137795Y265748D02*
D03*
X147638Y255906D02*
D03*
X149606Y238189D02*
D03*
X139764Y246063D02*
D03*
X135827Y236221D02*
D03*
X118110Y210630D02*
D03*
X116142Y220472D02*
D03*
X104331D02*
D03*
X94488D02*
D03*
X133858Y224410D02*
D03*
X145669D02*
D03*
X157480D02*
D03*
X165354Y181102D02*
D03*
Y192913D02*
D03*
Y204724D02*
D03*
Y216535D02*
D03*
X151575Y163386D02*
D03*
X159449D02*
D03*
X155512D02*
D03*
X151575Y171260D02*
D03*
X159449D02*
D03*
X155512D02*
D03*
X62008Y152559D02*
D03*
X105315Y189961D02*
D03*
X144685Y88583D02*
D03*
Y100394D02*
D03*
X46260Y153543D02*
D03*
X23622Y167323D02*
D03*
X169291Y151575D02*
D03*
Y155512D02*
D03*
X177165Y151575D02*
D03*
X173228D02*
D03*
X177165Y155512D02*
D03*
X173228D02*
D03*
X169291Y228346D02*
D03*
X173228D02*
D03*
X177165D02*
D03*
X169291Y232283D02*
D03*
X173228D02*
D03*
X177165D02*
D03*
X127953Y198819D02*
D03*
X103347Y209646D02*
D03*
Y212598D02*
D03*
X81693Y219488D02*
D03*
X49213Y242126D02*
D03*
X137795Y122047D02*
D03*
Y118110D02*
D03*
X141732D02*
D03*
Y122047D02*
D03*
X145669D02*
D03*
Y118110D02*
D03*
X137795Y62992D02*
D03*
Y59055D02*
D03*
X141732D02*
D03*
Y62992D02*
D03*
X145669D02*
D03*
Y59055D02*
D03*
X51181Y62992D02*
D03*
X47244D02*
D03*
X43307D02*
D03*
X51181Y59055D02*
D03*
X47244D02*
D03*
X43307D02*
D03*
X51181Y122047D02*
D03*
Y118110D02*
D03*
X47244D02*
D03*
X43307D02*
D03*
X47244Y122047D02*
D03*
X43307D02*
D03*
X135827Y72835D02*
D03*
Y80709D02*
D03*
Y88583D02*
D03*
Y100394D02*
D03*
Y108268D02*
D03*
X53150Y72835D02*
D03*
Y80709D02*
D03*
Y88583D02*
D03*
Y94488D02*
D03*
Y100394D02*
D03*
Y108268D02*
D03*
X124016D02*
D03*
X108268D02*
D03*
X94488D02*
D03*
X80709D02*
D03*
X64961D02*
D03*
X124016Y100394D02*
D03*
X108268D02*
D03*
X94488D02*
D03*
X80709D02*
D03*
X64961D02*
D03*
Y88583D02*
D03*
X80709D02*
D03*
X94488D02*
D03*
X108268D02*
D03*
X124016D02*
D03*
Y72835D02*
D03*
X108268D02*
D03*
X94488D02*
D03*
X80709D02*
D03*
X64961D02*
D03*
X94488Y80709D02*
D03*
X64961D02*
D03*
X80709D02*
D03*
X108268D02*
D03*
X124016D02*
D03*
X83661Y189961D02*
D03*
X100394Y184055D02*
D03*
X107283Y181102D02*
D03*
X81693D02*
D03*
X97441Y184055D02*
D03*
X94488D02*
D03*
X23622Y201772D02*
D03*
X13780Y180118D02*
D03*
X11811Y183071D02*
D03*
Y214567D02*
D03*
X7874Y231299D02*
D03*
X16732Y197834D02*
D03*
X20669Y220472D02*
D03*
X12795Y190945D02*
D03*
X26575Y227362D02*
D03*
X21654Y228346D02*
D03*
X18701Y224410D02*
D03*
X16732Y187992D02*
D03*
X19685Y189961D02*
D03*
X71850Y200787D02*
D03*
X70866Y204724D02*
D03*
X90551Y167323D02*
D03*
X94488D02*
D03*
X98425D02*
D03*
X86614Y149606D02*
D03*
Y152559D02*
D03*
Y155512D02*
D03*
X102362Y149606D02*
D03*
Y155512D02*
D03*
Y152559D02*
D03*
X129921Y187114D02*
D03*
Y206799D02*
D03*
X124016Y216642D02*
D03*
X94488Y139764D02*
D03*
X19685Y202756D02*
D03*
X65945Y215551D02*
D03*
X61024Y209646D02*
D03*
X94488Y136811D02*
D03*
Y153543D02*
D03*
Y142717D02*
D03*
X87008Y161417D02*
D03*
X83858Y161417D02*
D03*
X94488Y156496D02*
D03*
Y159449D02*
D03*
D48*
X173228Y259842D02*
D03*
X15748Y15748D02*
D03*
X173228D02*
D03*
X15748Y259842D02*
D03*
M02*
