M48
;Layer_Color=9474304
;FILE_FORMAT=2:5
INCH,TZ
;TYPE=PLATED
T1F00S00C0.01181
T2F00S00C0.03937
T3F00S00C0.04331
T4F00S00C0.04724
T5F00S00C0.07874
T6F00S00C0.10236
T7F00S00C0.12205
;TYPE=NON_PLATED
T8F00S00C0.11811
%
T01
X22638Y10827
X25351Y18701
X27559Y22638
X31496
X35433Y16732
Y31496
X27559
X45276
X53150
X59055Y28543
X62992Y31496
X61024Y16732
X57087
X69390Y47244
X70866Y53150
Y56102
X67913
Y53150
Y59055
X70866
X73819Y66929
X76772
X79724
Y69882
X76772
X73819
X84646Y73819
X81693Y87598
X36417Y83661
Y77756
X32480Y76772
X25591Y87598
X22638Y92520
X28543
X34449
Y99410
X37402
Y102362
X34449
Y105315
X37402
X31496Y113189
Y117126
X4921
X16732Y95472
Y92520
Y89567
X13780
Y68898
X20669Y62008
X22638Y56102
X25591
Y53150
Y50197
X31496Y54134
X8858Y56102
X5906
Y53150
Y50197
Y62008
X62992Y154528
X68898
X74803
X80709
X77756Y158465
X71850
X65945
X60039
X59055Y172244
X81693Y172244
Y180118
Y186024
Y194095
Y198622
Y204724
X58071Y204921
Y210827
Y217717
Y223622
X60039Y250984
X81693
Y258858
Y264764
Y272638
Y277362
X81693Y283465
X58071Y283661
Y289567
Y296457
Y302362
X60039Y329724
X81693
Y337598
Y343504
Y351378
Y355315
Y362205
X58071Y362402
Y368307
Y375197
Y381102
X60039Y408465
X81693
Y416339
Y422244
Y430118
Y434842
X81693Y440945
X58071Y441142
Y447047
Y453937
Y459842
X60039Y487205
X81693
Y495079
Y500984
Y508858
X81496Y513779
X81693Y519685
X58071Y519882
Y525787
Y532677
Y538583
X60039Y565945
X81693
Y573819
Y579724
Y587598
Y591535
Y598425
X58071Y598622
Y604528
Y611417
Y617323
X60039Y644685
X81693
Y652559
Y658465
Y666339
Y670276
Y677165
X58071Y677362
Y683268
Y690158
Y696063
X60039Y723425
X81693
Y731299
Y737205
Y745079
Y749803
Y755904
X58071Y756102
Y762008
Y768898
Y774803
X59055Y791339
Y794291
X52165
Y791339
X80709Y792323
X59055Y846457
X55118
Y850394
X59055
X35433
Y846457
X31496
Y850394
T02
X6890Y14567
X81693
X17717Y127953
Y147638
T03
X45276Y118110
T04
X19094Y32874
X12402Y39764
X69488
X76181Y32874
X7874Y127953
Y147638
T05
X37402Y167323
Y226378
Y246063
Y305118
Y324803
Y383858
Y403543
Y462598
Y482283
Y541339
Y561024
Y620079
Y639764
Y698819
Y718504
Y777559
T06
X19685Y236221
Y314961
Y393701
Y472441
Y551181
Y629921
Y708661
Y787402
X15748Y826772
X74803
T07
X45276Y137795
T08
X45276Y826772
M30
