G04*
G04 #@! TF.GenerationSoftware,Altium Limited,Altium Designer,18.0.7 (293)*
G04*
G04 Layer_Color=16711935*
%FSLAX25Y25*%
%MOIN*%
G70*
G01*
G75*
%ADD61C,0.00197*%
D61*
X8255Y163194D02*
G03*
X0Y147168I11430J-16027D01*
G01*
X8255Y163194D02*
G03*
X10089Y229120I-24003J33656D01*
G01*
X7874Y233730D02*
G03*
X10089Y229120I5906J0D01*
G01*
Y243321D02*
G03*
X7874Y238711I3691J-4610D01*
G01*
X10089Y243321D02*
G03*
X10089Y307860I-25837J32270D01*
G01*
X7874Y312471D02*
G03*
X10089Y307860I5906J0D01*
G01*
Y322061D02*
G03*
X7874Y317451I3691J-4610D01*
G01*
X10089Y322061D02*
G03*
X10089Y386601I-25837J32270D01*
G01*
X7874Y391211D02*
G03*
X10089Y386601I5906J0D01*
G01*
Y400801D02*
G03*
X7874Y396191I3691J-4610D01*
G01*
X10089Y400801D02*
G03*
X10089Y465341I-25837J32270D01*
G01*
X7874Y469951D02*
G03*
X10089Y465341I5906J0D01*
G01*
Y479541D02*
G03*
X7874Y474931I3691J-4610D01*
G01*
X10089Y479541D02*
G03*
X10089Y544081I-25837J32270D01*
G01*
X7874Y548691D02*
G03*
X10089Y544081I5906J0D01*
G01*
Y558281D02*
G03*
X7874Y553671I3691J-4610D01*
G01*
X10089Y558281D02*
G03*
X10089Y622821I-25837J32270D01*
G01*
X7874Y627431D02*
G03*
X10089Y622821I5906J0D01*
G01*
Y637021D02*
G03*
X7874Y632411I3691J-4610D01*
G01*
X10089Y637021D02*
G03*
X10089Y701561I-25837J32270D01*
G01*
X7874Y706171D02*
G03*
X10089Y701561I5906J0D01*
G01*
Y715762D02*
G03*
X7874Y711152I3691J-4610D01*
G01*
X10089Y715762D02*
G03*
X8255Y781688I-25837J32270D01*
G01*
X0Y797714D02*
G03*
X8255Y781688I19685J0D01*
G01*
X19685Y866142D02*
G03*
X0Y846457I0J-19685D01*
G01*
X90551D02*
G03*
X70866Y866142I-19685J0D01*
G01*
X0Y0D02*
Y147168D01*
X7874Y233730D02*
Y238711D01*
Y312471D02*
Y317451D01*
Y391211D02*
Y396191D01*
Y469951D02*
Y474931D01*
Y548691D02*
Y553671D01*
Y627431D02*
Y632411D01*
Y706171D02*
Y711152D01*
X0Y797714D02*
Y846457D01*
X19685Y866142D02*
X70866D01*
X90551Y0D02*
Y846457D01*
X0Y0D02*
X90551D01*
M02*
