G04*
G04 #@! TF.GenerationSoftware,Altium Limited,Altium Designer,18.0.7 (293)*
G04*
G04 Layer_Physical_Order=1*
G04 Layer_Color=255*
%FSLAX25Y25*%
%MOIN*%
G70*
G01*
G75*
%ADD10C,0.00591*%
%ADD12C,0.00787*%
%ADD13C,0.00610*%
%ADD17C,0.03937*%
G04:AMPARAMS|DCode=18|XSize=23.62mil|YSize=45.28mil|CornerRadius=5.91mil|HoleSize=0mil|Usage=FLASHONLY|Rotation=270.000|XOffset=0mil|YOffset=0mil|HoleType=Round|Shape=RoundedRectangle|*
%AMROUNDEDRECTD18*
21,1,0.02362,0.03347,0,0,270.0*
21,1,0.01181,0.04528,0,0,270.0*
1,1,0.01181,-0.01673,-0.00591*
1,1,0.01181,-0.01673,0.00591*
1,1,0.01181,0.01673,0.00591*
1,1,0.01181,0.01673,-0.00591*
%
%ADD18ROUNDEDRECTD18*%
G04:AMPARAMS|DCode=19|XSize=118.11mil|YSize=78.74mil|CornerRadius=19.68mil|HoleSize=0mil|Usage=FLASHONLY|Rotation=0.000|XOffset=0mil|YOffset=0mil|HoleType=Round|Shape=RoundedRectangle|*
%AMROUNDEDRECTD19*
21,1,0.11811,0.03937,0,0,0.0*
21,1,0.07874,0.07874,0,0,0.0*
1,1,0.03937,0.03937,-0.01968*
1,1,0.03937,-0.03937,-0.01968*
1,1,0.03937,-0.03937,0.01968*
1,1,0.03937,0.03937,0.01968*
%
%ADD19ROUNDEDRECTD19*%
G04:AMPARAMS|DCode=20|XSize=21.65mil|YSize=43.31mil|CornerRadius=5.41mil|HoleSize=0mil|Usage=FLASHONLY|Rotation=0.000|XOffset=0mil|YOffset=0mil|HoleType=Round|Shape=RoundedRectangle|*
%AMROUNDEDRECTD20*
21,1,0.02165,0.03248,0,0,0.0*
21,1,0.01083,0.04331,0,0,0.0*
1,1,0.01083,0.00541,-0.01624*
1,1,0.01083,-0.00541,-0.01624*
1,1,0.01083,-0.00541,0.01624*
1,1,0.01083,0.00541,0.01624*
%
%ADD20ROUNDEDRECTD20*%
G04:AMPARAMS|DCode=21|XSize=39.37mil|YSize=35.43mil|CornerRadius=8.86mil|HoleSize=0mil|Usage=FLASHONLY|Rotation=270.000|XOffset=0mil|YOffset=0mil|HoleType=Round|Shape=RoundedRectangle|*
%AMROUNDEDRECTD21*
21,1,0.03937,0.01772,0,0,270.0*
21,1,0.02165,0.03543,0,0,270.0*
1,1,0.01772,-0.00886,-0.01083*
1,1,0.01772,-0.00886,0.01083*
1,1,0.01772,0.00886,0.01083*
1,1,0.01772,0.00886,-0.01083*
%
%ADD21ROUNDEDRECTD21*%
G04:AMPARAMS|DCode=22|XSize=70.87mil|YSize=39.37mil|CornerRadius=3.94mil|HoleSize=0mil|Usage=FLASHONLY|Rotation=270.000|XOffset=0mil|YOffset=0mil|HoleType=Round|Shape=RoundedRectangle|*
%AMROUNDEDRECTD22*
21,1,0.07087,0.03150,0,0,270.0*
21,1,0.06299,0.03937,0,0,270.0*
1,1,0.00787,-0.01575,-0.03150*
1,1,0.00787,-0.01575,0.03150*
1,1,0.00787,0.01575,0.03150*
1,1,0.00787,0.01575,-0.03150*
%
%ADD22ROUNDEDRECTD22*%
G04:AMPARAMS|DCode=23|XSize=70.87mil|YSize=39.37mil|CornerRadius=3.94mil|HoleSize=0mil|Usage=FLASHONLY|Rotation=180.000|XOffset=0mil|YOffset=0mil|HoleType=Round|Shape=RoundedRectangle|*
%AMROUNDEDRECTD23*
21,1,0.07087,0.03150,0,0,180.0*
21,1,0.06299,0.03937,0,0,180.0*
1,1,0.00787,-0.03150,0.01575*
1,1,0.00787,0.03150,0.01575*
1,1,0.00787,0.03150,-0.01575*
1,1,0.00787,-0.03150,-0.01575*
%
%ADD23ROUNDEDRECTD23*%
G04:AMPARAMS|DCode=24|XSize=11.81mil|YSize=70.87mil|CornerRadius=2.95mil|HoleSize=0mil|Usage=FLASHONLY|Rotation=0.000|XOffset=0mil|YOffset=0mil|HoleType=Round|Shape=RoundedRectangle|*
%AMROUNDEDRECTD24*
21,1,0.01181,0.06496,0,0,0.0*
21,1,0.00591,0.07087,0,0,0.0*
1,1,0.00591,0.00295,-0.03248*
1,1,0.00591,-0.00295,-0.03248*
1,1,0.00591,-0.00295,0.03248*
1,1,0.00591,0.00295,0.03248*
%
%ADD24ROUNDEDRECTD24*%
G04:AMPARAMS|DCode=25|XSize=11.81mil|YSize=64.96mil|CornerRadius=2.95mil|HoleSize=0mil|Usage=FLASHONLY|Rotation=0.000|XOffset=0mil|YOffset=0mil|HoleType=Round|Shape=RoundedRectangle|*
%AMROUNDEDRECTD25*
21,1,0.01181,0.05906,0,0,0.0*
21,1,0.00591,0.06496,0,0,0.0*
1,1,0.00591,0.00295,-0.02953*
1,1,0.00591,-0.00295,-0.02953*
1,1,0.00591,-0.00295,0.02953*
1,1,0.00591,0.00295,0.02953*
%
%ADD25ROUNDEDRECTD25*%
G04:AMPARAMS|DCode=26|XSize=31.5mil|YSize=31.5mil|CornerRadius=4.72mil|HoleSize=0mil|Usage=FLASHONLY|Rotation=180.000|XOffset=0mil|YOffset=0mil|HoleType=Round|Shape=RoundedRectangle|*
%AMROUNDEDRECTD26*
21,1,0.03150,0.02205,0,0,180.0*
21,1,0.02205,0.03150,0,0,180.0*
1,1,0.00945,-0.01102,0.01102*
1,1,0.00945,0.01102,0.01102*
1,1,0.00945,0.01102,-0.01102*
1,1,0.00945,-0.01102,-0.01102*
%
%ADD26ROUNDEDRECTD26*%
G04:AMPARAMS|DCode=27|XSize=55.12mil|YSize=64.57mil|CornerRadius=5.51mil|HoleSize=0mil|Usage=FLASHONLY|Rotation=0.000|XOffset=0mil|YOffset=0mil|HoleType=Round|Shape=RoundedRectangle|*
%AMROUNDEDRECTD27*
21,1,0.05512,0.05354,0,0,0.0*
21,1,0.04409,0.06457,0,0,0.0*
1,1,0.01102,0.02205,-0.02677*
1,1,0.01102,-0.02205,-0.02677*
1,1,0.01102,-0.02205,0.02677*
1,1,0.01102,0.02205,0.02677*
%
%ADD27ROUNDEDRECTD27*%
%ADD28O,0.01378X0.06693*%
G04:AMPARAMS|DCode=29|XSize=23.62mil|YSize=31.5mil|CornerRadius=5.91mil|HoleSize=0mil|Usage=FLASHONLY|Rotation=90.000|XOffset=0mil|YOffset=0mil|HoleType=Round|Shape=RoundedRectangle|*
%AMROUNDEDRECTD29*
21,1,0.02362,0.01968,0,0,90.0*
21,1,0.01181,0.03150,0,0,90.0*
1,1,0.01181,0.00984,0.00591*
1,1,0.01181,0.00984,-0.00591*
1,1,0.01181,-0.00984,-0.00591*
1,1,0.01181,-0.00984,0.00591*
%
%ADD29ROUNDEDRECTD29*%
G04:AMPARAMS|DCode=30|XSize=23.62mil|YSize=31.5mil|CornerRadius=5.91mil|HoleSize=0mil|Usage=FLASHONLY|Rotation=0.000|XOffset=0mil|YOffset=0mil|HoleType=Round|Shape=RoundedRectangle|*
%AMROUNDEDRECTD30*
21,1,0.02362,0.01968,0,0,0.0*
21,1,0.01181,0.03150,0,0,0.0*
1,1,0.01181,0.00591,-0.00984*
1,1,0.01181,-0.00591,-0.00984*
1,1,0.01181,-0.00591,0.00984*
1,1,0.01181,0.00591,0.00984*
%
%ADD30ROUNDEDRECTD30*%
G04:AMPARAMS|DCode=31|XSize=74.8mil|YSize=55.12mil|CornerRadius=13.78mil|HoleSize=0mil|Usage=FLASHONLY|Rotation=270.000|XOffset=0mil|YOffset=0mil|HoleType=Round|Shape=RoundedRectangle|*
%AMROUNDEDRECTD31*
21,1,0.07480,0.02756,0,0,270.0*
21,1,0.04724,0.05512,0,0,270.0*
1,1,0.02756,-0.01378,-0.02362*
1,1,0.02756,-0.01378,0.02362*
1,1,0.02756,0.01378,0.02362*
1,1,0.02756,0.01378,-0.02362*
%
%ADD31ROUNDEDRECTD31*%
G04:AMPARAMS|DCode=32|XSize=31.5mil|YSize=31.5mil|CornerRadius=7.87mil|HoleSize=0mil|Usage=FLASHONLY|Rotation=270.000|XOffset=0mil|YOffset=0mil|HoleType=Round|Shape=RoundedRectangle|*
%AMROUNDEDRECTD32*
21,1,0.03150,0.01575,0,0,270.0*
21,1,0.01575,0.03150,0,0,270.0*
1,1,0.01575,-0.00787,-0.00787*
1,1,0.01575,-0.00787,0.00787*
1,1,0.01575,0.00787,0.00787*
1,1,0.01575,0.00787,-0.00787*
%
%ADD32ROUNDEDRECTD32*%
G04:AMPARAMS|DCode=33|XSize=31.5mil|YSize=31.5mil|CornerRadius=7.87mil|HoleSize=0mil|Usage=FLASHONLY|Rotation=180.000|XOffset=0mil|YOffset=0mil|HoleType=Round|Shape=RoundedRectangle|*
%AMROUNDEDRECTD33*
21,1,0.03150,0.01575,0,0,180.0*
21,1,0.01575,0.03150,0,0,180.0*
1,1,0.01575,-0.00787,0.00787*
1,1,0.01575,0.00787,0.00787*
1,1,0.01575,0.00787,-0.00787*
1,1,0.01575,-0.00787,-0.00787*
%
%ADD33ROUNDEDRECTD33*%
G04:AMPARAMS|DCode=34|XSize=17.72mil|YSize=35.43mil|CornerRadius=4.43mil|HoleSize=0mil|Usage=FLASHONLY|Rotation=180.000|XOffset=0mil|YOffset=0mil|HoleType=Round|Shape=RoundedRectangle|*
%AMROUNDEDRECTD34*
21,1,0.01772,0.02657,0,0,180.0*
21,1,0.00886,0.03543,0,0,180.0*
1,1,0.00886,-0.00443,0.01329*
1,1,0.00886,0.00443,0.01329*
1,1,0.00886,0.00443,-0.01329*
1,1,0.00886,-0.00443,-0.01329*
%
%ADD34ROUNDEDRECTD34*%
G04:AMPARAMS|DCode=35|XSize=17.72mil|YSize=35.43mil|CornerRadius=4.43mil|HoleSize=0mil|Usage=FLASHONLY|Rotation=270.000|XOffset=0mil|YOffset=0mil|HoleType=Round|Shape=RoundedRectangle|*
%AMROUNDEDRECTD35*
21,1,0.01772,0.02657,0,0,270.0*
21,1,0.00886,0.03543,0,0,270.0*
1,1,0.00886,-0.01329,-0.00443*
1,1,0.00886,-0.01329,0.00443*
1,1,0.00886,0.01329,0.00443*
1,1,0.00886,0.01329,-0.00443*
%
%ADD35ROUNDEDRECTD35*%
G04:AMPARAMS|DCode=36|XSize=39.37mil|YSize=35.43mil|CornerRadius=8.86mil|HoleSize=0mil|Usage=FLASHONLY|Rotation=0.000|XOffset=0mil|YOffset=0mil|HoleType=Round|Shape=RoundedRectangle|*
%AMROUNDEDRECTD36*
21,1,0.03937,0.01772,0,0,0.0*
21,1,0.02165,0.03543,0,0,0.0*
1,1,0.01772,0.01083,-0.00886*
1,1,0.01772,-0.01083,-0.00886*
1,1,0.01772,-0.01083,0.00886*
1,1,0.01772,0.01083,0.00886*
%
%ADD36ROUNDEDRECTD36*%
G04:AMPARAMS|DCode=37|XSize=47.24mil|YSize=47.24mil|CornerRadius=11.81mil|HoleSize=0mil|Usage=FLASHONLY|Rotation=90.000|XOffset=0mil|YOffset=0mil|HoleType=Round|Shape=RoundedRectangle|*
%AMROUNDEDRECTD37*
21,1,0.04724,0.02362,0,0,90.0*
21,1,0.02362,0.04724,0,0,90.0*
1,1,0.02362,0.01181,0.01181*
1,1,0.02362,0.01181,-0.01181*
1,1,0.02362,-0.01181,-0.01181*
1,1,0.02362,-0.01181,0.01181*
%
%ADD37ROUNDEDRECTD37*%
G04:AMPARAMS|DCode=38|XSize=47.24mil|YSize=47.24mil|CornerRadius=11.81mil|HoleSize=0mil|Usage=FLASHONLY|Rotation=0.000|XOffset=0mil|YOffset=0mil|HoleType=Round|Shape=RoundedRectangle|*
%AMROUNDEDRECTD38*
21,1,0.04724,0.02362,0,0,0.0*
21,1,0.02362,0.04724,0,0,0.0*
1,1,0.02362,0.01181,-0.01181*
1,1,0.02362,-0.01181,-0.01181*
1,1,0.02362,-0.01181,0.01181*
1,1,0.02362,0.01181,0.01181*
%
%ADD38ROUNDEDRECTD38*%
%ADD41C,0.19685*%
%ADD42C,0.15748*%
%ADD43C,0.07874*%
%ADD44C,0.06299*%
%ADD45C,0.05512*%
%ADD46C,0.05906*%
G04:AMPARAMS|DCode=47|XSize=118.11mil|YSize=157.48mil|CornerRadius=29.53mil|HoleSize=0mil|Usage=FLASHONLY|Rotation=180.000|XOffset=0mil|YOffset=0mil|HoleType=Round|Shape=RoundedRectangle|*
%AMROUNDEDRECTD47*
21,1,0.11811,0.09843,0,0,180.0*
21,1,0.05906,0.15748,0,0,180.0*
1,1,0.05906,-0.02953,0.04921*
1,1,0.05906,0.02953,0.04921*
1,1,0.05906,0.02953,-0.04921*
1,1,0.05906,-0.02953,-0.04921*
%
%ADD47ROUNDEDRECTD47*%
G04:AMPARAMS|DCode=48|XSize=59.06mil|YSize=118.11mil|CornerRadius=17.72mil|HoleSize=0mil|Usage=FLASHONLY|Rotation=180.000|XOffset=0mil|YOffset=0mil|HoleType=Round|Shape=RoundedRectangle|*
%AMROUNDEDRECTD48*
21,1,0.05906,0.08268,0,0,180.0*
21,1,0.02362,0.11811,0,0,180.0*
1,1,0.03543,-0.01181,0.04134*
1,1,0.03543,0.01181,0.04134*
1,1,0.03543,0.01181,-0.04134*
1,1,0.03543,-0.01181,-0.04134*
%
%ADD48ROUNDEDRECTD48*%
%ADD49C,0.02362*%
%ADD50C,0.01968*%
%ADD51C,0.01000*%
%ADD52C,0.01181*%
%ADD53C,0.01378*%
%ADD54C,0.20866*%
%ADD55C,0.02362*%
G36*
X83661Y332874D02*
X70659Y332874D01*
X70488Y332988D01*
X69931Y333099D01*
X69045D01*
X68488Y332988D01*
X68413Y332938D01*
X67913Y333100D01*
X67913Y339764D01*
X83661Y339764D01*
X83661Y332874D01*
D02*
G37*
G36*
X60039Y277450D02*
X59361Y276772D01*
X54134D01*
Y308071D01*
X60039D01*
Y277450D01*
D02*
G37*
G36*
X68898Y264961D02*
X69882Y263976D01*
X70089D01*
X70517Y263690D01*
X71112Y263572D01*
X72195D01*
X72790Y263690D01*
X73295Y264028D01*
X73632Y264532D01*
X73692Y264834D01*
X73819Y264961D01*
X73819Y266402D01*
X74322Y266502D01*
X74748Y266787D01*
X75678Y267717D01*
X83661Y267717D01*
X83661Y262027D01*
X67913Y262027D01*
X67529Y261951D01*
X67429Y261884D01*
X66929Y262151D01*
Y268810D01*
X67017Y268898D01*
X68898D01*
Y264961D01*
D02*
G37*
G36*
X83661Y254134D02*
X70659Y254134D01*
X70488Y254248D01*
X69931Y254359D01*
X69045D01*
X68488Y254248D01*
X68413Y254198D01*
X67913Y254360D01*
X67913Y261024D01*
X83661Y261024D01*
X83661Y254134D01*
D02*
G37*
G36*
X60039Y198709D02*
X59361Y198031D01*
X54134D01*
Y229331D01*
X60039D01*
Y198709D01*
D02*
G37*
G36*
X68898Y186221D02*
X69882Y185236D01*
X70089D01*
X70517Y184950D01*
X71112Y184832D01*
X72195D01*
X72790Y184950D01*
X73295Y185287D01*
X73632Y185792D01*
X73692Y186093D01*
X73819Y186221D01*
X73819Y187662D01*
X74322Y187762D01*
X74748Y188047D01*
X75678Y188976D01*
X83661Y188976D01*
X83661Y183287D01*
X67913Y183287D01*
X67529Y183211D01*
X67429Y183144D01*
X66929Y183411D01*
Y190070D01*
X67017Y190157D01*
X68898D01*
Y186221D01*
D02*
G37*
G36*
X83661Y175394D02*
X70659Y175394D01*
X70488Y175508D01*
X69931Y175619D01*
X69045D01*
X68488Y175508D01*
X68413Y175458D01*
X67913Y175620D01*
X67913Y182283D01*
X83661Y182283D01*
X83661Y175394D01*
D02*
G37*
G36*
X22599Y120910D02*
X21768Y120079D01*
X18701D01*
X17927Y119305D01*
X17806Y119281D01*
X17299Y118942D01*
X16959Y118434D01*
X16935Y118313D01*
X13681Y115059D01*
Y114250D01*
X13386Y114007D01*
X12205D01*
X11590Y113885D01*
X11069Y113537D01*
X10721Y113016D01*
X10599Y112402D01*
Y110433D01*
X10721Y109819D01*
X11069Y109298D01*
X11590Y108950D01*
X12205Y108827D01*
X13181D01*
X13681Y108450D01*
Y102362D01*
X11516D01*
X11516Y105949D01*
X10508Y106845D01*
X10499Y106858D01*
X10476Y106873D01*
X10125Y107185D01*
X10010D01*
X9995Y107195D01*
X9400Y107313D01*
X8317D01*
X7722Y107195D01*
X7707Y107185D01*
X7480D01*
X6201Y105905D01*
Y102362D01*
X4035Y102362D01*
Y114585D01*
X4535Y114995D01*
X4921Y114918D01*
X5766Y115086D01*
X6482Y115565D01*
X6961Y116281D01*
X7129Y117126D01*
Y121063D01*
X7118Y121121D01*
Y121850D01*
X6995Y122465D01*
X6647Y122986D01*
X6126Y123334D01*
X5512Y123456D01*
X4331D01*
X4035Y123698D01*
Y131890D01*
X22599Y131890D01*
Y120910D01*
D02*
G37*
G36*
X39370Y111436D02*
X29528D01*
Y119095D01*
X39370D01*
X39370Y111436D01*
D02*
G37*
G36*
X27559Y96476D02*
X19666Y96476D01*
X17717Y98425D01*
X7874D01*
X6299Y96850D01*
Y92913D01*
X5906Y92520D01*
X4331D01*
X3937Y92913D01*
Y98425D01*
X6299Y100787D01*
X17126Y100787D01*
X23622Y107283D01*
X27559D01*
Y96476D01*
D02*
G37*
G36*
X39370Y107283D02*
X39370Y96976D01*
X39370Y96476D01*
X29528Y96476D01*
X29528Y107283D01*
X39370Y107283D01*
D02*
G37*
G36*
X18810Y95472D02*
X39370Y95472D01*
Y90551D01*
X32480Y90551D01*
X21654D01*
X16732Y85630D01*
X12795D01*
X11417Y87008D01*
Y92520D01*
Y96457D01*
X12205Y97244D01*
X16842D01*
X18810Y95472D01*
D02*
G37*
G36*
X45910Y94972D02*
X45833Y94587D01*
Y89272D01*
X45963Y88619D01*
X46260Y88175D01*
Y84646D01*
X44291Y82677D01*
X38386D01*
X38386Y84646D01*
X41339Y87598D01*
X41339Y92520D01*
X44291Y95472D01*
X45563Y95472D01*
X45910Y94972D01*
D02*
G37*
G36*
X68898Y74803D02*
Y73819D01*
X65618D01*
X65453Y73852D01*
X65288Y73819D01*
X63059D01*
X62894Y73852D01*
X62729Y73819D01*
X60499D01*
X60335Y73852D01*
X60170Y73819D01*
X57940D01*
X57776Y73852D01*
X57611Y73819D01*
X55381D01*
X55216Y73852D01*
X55052Y73819D01*
X52822D01*
X52658Y73852D01*
X52493Y73819D01*
X50263D01*
X50098Y73852D01*
X49934Y73819D01*
X47704D01*
X47539Y73852D01*
X47375Y73819D01*
X45145D01*
X44980Y73852D01*
X44816Y73819D01*
X41339D01*
X38386Y76772D01*
Y78740D01*
X64961D01*
X68898Y74803D01*
D02*
G37*
G36*
X18701Y65945D02*
X8858D01*
Y69882D01*
X18701D01*
Y65945D01*
D02*
G37*
G36*
X81693Y62008D02*
X71850D01*
Y64789D01*
X71936Y64875D01*
X72264Y65366D01*
X72283Y65462D01*
X72379Y65945D01*
X72379Y65945D01*
Y71850D01*
X81693D01*
Y62008D01*
D02*
G37*
G36*
X71850Y61004D02*
X74822D01*
X75787Y60039D01*
Y51181D01*
X74803Y50197D01*
X66929Y50197D01*
X65945Y51181D01*
X65945Y60039D01*
X66929Y61024D01*
X71753D01*
X71850Y61004D01*
D02*
G37*
G36*
X14764Y44291D02*
X15729Y43326D01*
Y38367D01*
X13780Y36417D01*
X7874Y36417D01*
X3937Y40354D01*
Y58071D01*
X14764D01*
X14764Y44291D01*
D02*
G37*
G36*
X27559Y58071D02*
X27559Y46260D01*
X22638Y41339D01*
X22638Y30512D01*
X21654Y29528D01*
X17717D01*
X16732Y30512D01*
X16732Y58071D01*
X27559Y58071D01*
D02*
G37*
G36*
X25959Y39370D02*
Y34350D01*
X26059Y33851D01*
X26341Y33428D01*
X26765Y33145D01*
X27264Y33046D01*
X27854D01*
X28354Y33145D01*
X28777Y33428D01*
X29060Y33851D01*
X29159Y34350D01*
Y39370D01*
X29896D01*
Y34350D01*
X29996Y33851D01*
X30278Y33428D01*
X30702Y33145D01*
X31201Y33046D01*
X31791D01*
X32291Y33145D01*
X32714Y33428D01*
X32997Y33851D01*
X33096Y34350D01*
Y39370D01*
X33833D01*
Y34350D01*
X33933Y33851D01*
X34215Y33428D01*
X34639Y33145D01*
X35138Y33046D01*
X35728D01*
X36228Y33145D01*
X36651Y33428D01*
X36934Y33851D01*
X37033Y34350D01*
Y39370D01*
X37770D01*
Y34350D01*
X37870Y33851D01*
X38152Y33428D01*
X38576Y33145D01*
X39075Y33046D01*
X39665D01*
X40165Y33145D01*
X40588Y33428D01*
X40871Y33851D01*
X40970Y34350D01*
Y39370D01*
X41707D01*
Y34350D01*
X41807Y33851D01*
X42089Y33428D01*
X42513Y33145D01*
X43012Y33046D01*
X43602D01*
X44102Y33145D01*
X44525Y33428D01*
X44808Y33851D01*
X44907Y34350D01*
Y39370D01*
X45644D01*
Y34350D01*
X45744Y33851D01*
X46026Y33428D01*
X46450Y33145D01*
X46949Y33046D01*
X47539D01*
X48039Y33145D01*
X48462Y33428D01*
X48745Y33851D01*
X48844Y34350D01*
Y39370D01*
X49581D01*
Y34350D01*
X49681Y33851D01*
X49963Y33428D01*
X50387Y33145D01*
X50886Y33046D01*
X51476D01*
X51976Y33145D01*
X52399Y33428D01*
X52682Y33851D01*
X52781Y34350D01*
Y39370D01*
X53518D01*
Y34350D01*
X53618Y33851D01*
X53900Y33428D01*
X54324Y33145D01*
X54823Y33046D01*
X55413D01*
X55913Y33145D01*
X56336Y33428D01*
X56619Y33851D01*
X56718Y34350D01*
Y39370D01*
X57455D01*
Y34350D01*
X57542Y33915D01*
Y30136D01*
X57494Y30104D01*
X57015Y29388D01*
X56847Y28543D01*
X57015Y27698D01*
X57494Y26982D01*
X58210Y26504D01*
X59055Y26335D01*
X59900Y26504D01*
X60616Y26982D01*
X61095Y27698D01*
X61263Y28543D01*
X61095Y29388D01*
X60616Y30104D01*
X60568Y30136D01*
Y33915D01*
X60655Y34350D01*
Y39370D01*
X61392D01*
Y34350D01*
X61492Y33851D01*
X61774Y33428D01*
X62198Y33145D01*
X62697Y33046D01*
X63287D01*
X63787Y33145D01*
X64210Y33428D01*
X64877Y33526D01*
X64961Y33464D01*
X64961Y14371D01*
X64876Y14309D01*
X64210Y14407D01*
X63787Y14690D01*
X63287Y14789D01*
X62697D01*
X62198Y14690D01*
X61774Y14407D01*
X61492Y13984D01*
X61392Y13484D01*
Y7874D01*
X60655D01*
Y13484D01*
X60556Y13984D01*
X60273Y14407D01*
X59850Y14690D01*
X59350Y14789D01*
X58760D01*
X58261Y14690D01*
X57837Y14407D01*
X57555Y13984D01*
X57455Y13484D01*
Y7874D01*
X56718D01*
Y13484D01*
X56619Y13984D01*
X56336Y14407D01*
X55913Y14690D01*
X55413Y14789D01*
X54823D01*
X54324Y14690D01*
X54134Y14563D01*
X53944Y14690D01*
X53445Y14789D01*
X52854D01*
X52355Y14690D01*
X52165Y14563D01*
X51976Y14690D01*
X51476Y14789D01*
X50886D01*
X50387Y14690D01*
X50197Y14563D01*
X50007Y14690D01*
X49508Y14789D01*
X48917D01*
X48418Y14690D01*
X48228Y14563D01*
X48039Y14690D01*
X47539Y14789D01*
X46949D01*
X46450Y14690D01*
X46260Y14563D01*
X46070Y14690D01*
X45571Y14789D01*
X44980D01*
X44481Y14690D01*
X44291Y14563D01*
X44102Y14690D01*
X43602Y14789D01*
X43012D01*
X42513Y14690D01*
X42323Y14563D01*
X42133Y14690D01*
X41634Y14789D01*
X41043D01*
X40544Y14690D01*
X40354Y14563D01*
X40165Y14690D01*
X39665Y14789D01*
X39075D01*
X38576Y14690D01*
X38386Y14563D01*
X38196Y14690D01*
X37697Y14789D01*
X37106D01*
X36607Y14690D01*
X36417Y14563D01*
X36228Y14690D01*
X35728Y14789D01*
X35138D01*
X34639Y14690D01*
X34215Y14407D01*
X33933Y13984D01*
X33833Y13484D01*
Y7874D01*
X33096D01*
Y13484D01*
X32997Y13984D01*
X32811Y14262D01*
Y20912D01*
X33057Y21077D01*
X33536Y21793D01*
X33704Y22638D01*
X33536Y23483D01*
X33057Y24199D01*
X32341Y24678D01*
X31496Y24846D01*
X30651Y24678D01*
X29935Y24199D01*
X29456Y23483D01*
X29288Y22638D01*
X29456Y21793D01*
X29935Y21077D01*
X30181Y20912D01*
Y14262D01*
X29996Y13984D01*
X29896Y13484D01*
Y7874D01*
X29159D01*
Y13484D01*
X29060Y13984D01*
X28874Y14262D01*
Y15354D01*
X28774Y15857D01*
X28489Y16284D01*
X27201Y17572D01*
X27391Y17856D01*
X27559Y18701D01*
X27391Y19546D01*
X26912Y20262D01*
X26196Y20741D01*
X25351Y20909D01*
X24506Y20741D01*
X23790Y20262D01*
X23312Y19546D01*
X23144Y18701D01*
X23312Y17856D01*
X23790Y17140D01*
X24319Y16786D01*
X24422Y16633D01*
X26244Y14810D01*
Y14262D01*
X26059Y13984D01*
X25959Y13484D01*
Y7874D01*
X19685D01*
Y20669D01*
X24606Y25591D01*
Y39370D01*
X25959D01*
D02*
G37*
G36*
X68898Y343701D02*
X69882Y342717D01*
X70089D01*
X70517Y342431D01*
X71112Y342312D01*
X72195D01*
X72790Y342431D01*
X73295Y342768D01*
X73632Y343272D01*
X73692Y343574D01*
X73819Y343701D01*
X73819Y345142D01*
X74322Y345242D01*
X74748Y345527D01*
X74748Y345527D01*
X75678Y346457D01*
X83661Y346457D01*
X83661Y340767D01*
X67913Y340767D01*
X67529Y340691D01*
X67429Y340624D01*
X66929Y340891D01*
Y347550D01*
X67017Y347638D01*
X68898D01*
Y343701D01*
D02*
G37*
G36*
X60039Y356190D02*
X59361Y355512D01*
X54134D01*
Y386811D01*
X60039D01*
Y356190D01*
D02*
G37*
G36*
X83661Y411614D02*
X70659Y411614D01*
X70488Y411728D01*
X69931Y411839D01*
X69045D01*
X68488Y411728D01*
X68413Y411678D01*
X67913Y411840D01*
X67913Y418504D01*
X83661Y418504D01*
X83661Y411614D01*
D02*
G37*
G36*
X68898Y422441D02*
X69882Y421457D01*
X70089D01*
X70517Y421171D01*
X71112Y421052D01*
X72195D01*
X72790Y421171D01*
X73295Y421508D01*
X73632Y422013D01*
X73692Y422314D01*
X73819Y422441D01*
X73819Y423882D01*
X74322Y423982D01*
X74748Y424267D01*
X75678Y425197D01*
X83661Y425197D01*
X83661Y419508D01*
X67913Y419508D01*
X67529Y419431D01*
X67429Y419364D01*
X66929Y419631D01*
Y426290D01*
X67017Y426378D01*
X68898D01*
Y422441D01*
D02*
G37*
G36*
X60039Y435127D02*
X59165Y434252D01*
X54134D01*
Y465551D01*
X60039D01*
Y435127D01*
D02*
G37*
G36*
X83661Y490354D02*
X70659Y490354D01*
X70488Y490468D01*
X69931Y490579D01*
X69045D01*
X68488Y490468D01*
X68413Y490418D01*
X67913Y490581D01*
X67913Y497244D01*
X83661Y497244D01*
X83661Y490354D01*
D02*
G37*
G36*
X68898Y501181D02*
X69882Y500197D01*
X70089D01*
X70517Y499911D01*
X71112Y499792D01*
X72195D01*
X72790Y499911D01*
X73295Y500248D01*
X73632Y500753D01*
X73692Y501054D01*
X73819Y501181D01*
X73819Y502622D01*
X74322Y502722D01*
X74748Y503007D01*
X75678Y503937D01*
X83661Y503937D01*
X83661Y498248D01*
X67913Y498248D01*
X67529Y498171D01*
X67429Y498104D01*
X66929Y498372D01*
Y505031D01*
X67017Y505118D01*
X68898D01*
Y501181D01*
D02*
G37*
G36*
X60039Y513670D02*
X59361Y512992D01*
X54134D01*
Y544291D01*
X60039D01*
Y513670D01*
D02*
G37*
G36*
X83661Y569095D02*
X70659Y569095D01*
X70488Y569208D01*
X69931Y569319D01*
X69045D01*
X68488Y569208D01*
X68413Y569158D01*
X67913Y569321D01*
X67913Y575984D01*
X83661Y575984D01*
X83661Y569095D01*
D02*
G37*
G36*
X68898Y579921D02*
X69882Y578937D01*
X70089D01*
X70517Y578651D01*
X71112Y578533D01*
X72195D01*
X72790Y578651D01*
X73295Y578988D01*
X73632Y579493D01*
X73692Y579794D01*
X73819Y579921D01*
X73819Y581362D01*
X74322Y581463D01*
X74748Y581748D01*
X75678Y582677D01*
X83661Y582677D01*
X83661Y576988D01*
X67913Y576988D01*
X67529Y576911D01*
X67429Y576844D01*
X66929Y577112D01*
Y583771D01*
X67017Y583858D01*
X68898D01*
Y579921D01*
D02*
G37*
G36*
X60039Y592410D02*
X59361Y591732D01*
X54134D01*
Y623032D01*
X60039D01*
Y592410D01*
D02*
G37*
G36*
X68898Y658661D02*
X69882Y657677D01*
X70089D01*
X70517Y657391D01*
X71112Y657273D01*
X72195D01*
X72790Y657391D01*
X73295Y657728D01*
X73632Y658233D01*
X73692Y658534D01*
X73819Y658661D01*
X73819Y660103D01*
X74322Y660203D01*
X74748Y660488D01*
X75678Y661417D01*
X83661Y661417D01*
X83661Y655728D01*
X67913Y655728D01*
X67529Y655652D01*
X67429Y655585D01*
X66929Y655852D01*
Y662511D01*
X67017Y662598D01*
X68898D01*
Y658661D01*
D02*
G37*
G36*
X83661Y647835D02*
X70659Y647835D01*
X70488Y647949D01*
X69931Y648060D01*
X69045D01*
X68488Y647949D01*
X68413Y647899D01*
X67913Y648061D01*
X67913Y654724D01*
X83661Y654724D01*
X83661Y647835D01*
D02*
G37*
G36*
X60039Y671150D02*
X59361Y670472D01*
X54134D01*
Y701772D01*
X60039D01*
Y671150D01*
D02*
G37*
G36*
X68898Y737402D02*
X69882Y736417D01*
X70089D01*
X70517Y736131D01*
X71112Y736013D01*
X72195D01*
X72790Y736131D01*
X73295Y736469D01*
X73632Y736973D01*
X73692Y737275D01*
X73819Y737402D01*
X73819Y738843D01*
X74322Y738943D01*
X74748Y739228D01*
X75678Y740158D01*
X83661Y740158D01*
X83661Y734468D01*
X67913Y734468D01*
X67529Y734392D01*
X67429Y734325D01*
X66929Y734592D01*
Y741251D01*
X67017Y741339D01*
X68898D01*
Y737402D01*
D02*
G37*
G36*
X83661Y726575D02*
X70659Y726575D01*
X70488Y726689D01*
X69931Y726800D01*
X69045D01*
X68488Y726689D01*
X68413Y726639D01*
X67913Y726801D01*
X67913Y733465D01*
X83661Y733465D01*
X83661Y726575D01*
D02*
G37*
G36*
X62992Y838583D02*
X57173D01*
X57133Y838629D01*
X55484Y840075D01*
X53660Y841293D01*
X51692Y842264D01*
X49616Y842968D01*
X47464Y843396D01*
X45276Y843540D01*
X43087Y843396D01*
X40936Y842968D01*
X38859Y842264D01*
X36891Y841293D01*
X35068Y840075D01*
X33419Y838629D01*
X33378Y838583D01*
X27559D01*
X27559Y854331D01*
X62992Y854331D01*
X62992Y838583D01*
D02*
G37*
G36*
X61024Y793717D02*
X60981Y793504D01*
Y791142D01*
X61024Y790929D01*
Y789370D01*
X50197D01*
Y796260D01*
X61024D01*
Y793717D01*
D02*
G37*
G36*
X60039Y749891D02*
X59361Y749213D01*
X54134D01*
Y780512D01*
X60039D01*
Y749891D01*
D02*
G37*
D10*
X4921Y62992D02*
Y66142D01*
Y62992D02*
X5906Y62008D01*
X10827D01*
X16732D02*
X20669D01*
D12*
X59055Y801181D02*
X64370Y795866D01*
X50197Y801181D02*
X59055D01*
X45276Y806102D02*
X50197Y801181D01*
X45276Y806102D02*
Y812992D01*
X68898Y63976D02*
X70866Y65945D01*
X66929Y63976D02*
X68898D01*
X65453Y65453D02*
X66929Y63976D01*
X64370Y792323D02*
X70669D01*
X64370D02*
Y795866D01*
X12795Y111221D02*
X14173D01*
X16142Y109252D01*
X68012Y79626D02*
X70866Y76772D01*
Y65945D02*
Y73819D01*
Y76772D01*
Y73819D02*
X70965Y73917D01*
X73917D01*
X65453Y65453D02*
Y69488D01*
X68012Y79626D02*
Y91929D01*
X16142Y102953D02*
X19685Y99410D01*
X16142Y102953D02*
Y109252D01*
D13*
X30529Y79724D02*
G03*
X31004Y79921I0J672D01*
G01*
X27559Y10236D02*
Y15354D01*
X25351Y17562D02*
X27559Y15354D01*
X25351Y17562D02*
Y18701D01*
X71653Y188011D02*
X72619Y188976D01*
X72835D01*
X72835Y188976D01*
X73819D01*
X74803Y189961D01*
Y196850D01*
X73819Y197835D02*
X74803Y196850D01*
X68898Y197835D02*
X73819D01*
X65945Y194882D02*
X68898Y197835D01*
X64173Y194882D02*
X65945D01*
X69095Y194095D02*
X71653D01*
X64173Y189173D02*
X69095Y194095D01*
X64173Y188011D02*
Y189173D01*
X58071Y186417D02*
Y188976D01*
X63976Y194882D01*
X64173D01*
X58071D02*
X64173Y200984D01*
X57874Y194882D02*
X58071D01*
X71653Y266752D02*
X72619Y267717D01*
X73819D01*
X73819Y267717D01*
X74803Y268701D01*
Y275590D01*
X73819Y276575D02*
X74803Y275590D01*
X68898Y276575D02*
X73819D01*
X65945Y273622D02*
X68898Y276575D01*
X64173Y273622D02*
X65945D01*
X69095Y272835D02*
X71653D01*
X64173Y267913D02*
X69095Y272835D01*
X64173Y266752D02*
Y267913D01*
X58071Y267520D02*
X64173Y273622D01*
X58071Y265158D02*
Y267520D01*
X57874Y273622D02*
X58071D01*
X64173Y279724D01*
X71653Y345492D02*
X72619Y346457D01*
X73819D01*
X73819Y346457D01*
X74803Y347441D01*
Y354331D01*
X73819Y355315D02*
X74803Y354331D01*
X67913Y355315D02*
X73819D01*
X64961Y352362D02*
X67913Y355315D01*
X64173Y352362D02*
X64961D01*
X69095Y351575D02*
X71653D01*
X64173Y346654D02*
X69095Y351575D01*
X64173Y345492D02*
Y346654D01*
X64173Y351575D02*
Y352362D01*
X58071Y345472D02*
X64173Y351575D01*
X58071Y343898D02*
Y345472D01*
X58071Y352362D02*
X64173Y358465D01*
X57874Y352362D02*
X58071D01*
X71653Y424232D02*
X72619Y425197D01*
X72835D01*
X72835Y425197D01*
X73819D01*
X74803Y426181D01*
Y433071D01*
X73819Y434055D02*
X74803Y433071D01*
X67913Y434055D02*
X73819D01*
X64961Y431102D02*
X67913Y434055D01*
X64173Y431102D02*
X64961D01*
X69095Y430315D02*
X71653D01*
X64173Y425394D02*
X69095Y430315D01*
X64173Y424232D02*
Y425394D01*
X58071Y422638D02*
Y425000D01*
X64173Y431102D01*
X63976Y437205D02*
X64173D01*
X57874Y431102D02*
X63976Y437205D01*
X71653Y502972D02*
X72619Y503937D01*
X72835D01*
X72835Y503937D01*
X73819D01*
X74803Y504921D01*
Y511811D01*
X73819Y512795D02*
X74803Y511811D01*
X68898Y512795D02*
X73819D01*
X65945Y509842D02*
X68898Y512795D01*
X64173Y509842D02*
X65945D01*
X64173Y502972D02*
Y504134D01*
X69095Y509055D01*
X71653D01*
X58465Y501378D02*
Y504134D01*
X58071Y501378D02*
X58465D01*
Y504134D02*
X64173Y509842D01*
X58071D02*
X64173Y515945D01*
X57874Y509842D02*
X58071D01*
X64173Y581712D02*
Y582874D01*
X69095Y587795D01*
X71653D01*
X72493Y582552D02*
X72503Y582542D01*
X72493Y582552D02*
X72619Y582677D01*
X72493Y582552D02*
Y582552D01*
X72619Y582677D02*
X73819D01*
X74803Y583661D01*
Y590551D01*
X73819Y591535D02*
X74803Y590551D01*
X68898Y591535D02*
X73819D01*
X65945Y588583D02*
X68898Y591535D01*
X64173Y588583D02*
X65945D01*
X58465Y580118D02*
Y582874D01*
X58071Y580118D02*
X58465D01*
Y582874D02*
X64173Y588583D01*
X58071D02*
X64173Y594685D01*
X57874Y588583D02*
X58071D01*
X71653Y660452D02*
X72619Y661417D01*
X72835D01*
X72835Y661417D01*
X73819D01*
X74803Y662402D01*
Y668307D01*
X72835Y670276D02*
X74803Y668307D01*
X67913Y670276D02*
X72835D01*
X64961Y667323D02*
X67913Y670276D01*
X64173Y667323D02*
X64961D01*
X69095Y666535D02*
X71653D01*
X64173Y661614D02*
X69095Y666535D01*
X64173Y660452D02*
Y661614D01*
X58465Y658858D02*
Y661614D01*
X58071Y658858D02*
X58465D01*
Y661614D02*
X64173Y667323D01*
X58071D02*
X64173Y673425D01*
X57874Y667323D02*
X58071D01*
X64173Y758858D02*
X70866D01*
X57874Y745079D02*
X58071D01*
X58071Y746063D02*
X64173Y752165D01*
X57874Y746063D02*
X58071D01*
X64173Y740354D02*
X69095Y745276D01*
X64173Y739192D02*
Y740354D01*
X69095Y745276D02*
X71653D01*
X71653Y739192D02*
X72619Y740158D01*
X72835D01*
X72835Y740158D01*
X73819D01*
X74803Y741142D01*
Y748032D01*
X73819Y749016D02*
X74803Y748032D01*
X68110Y749016D02*
X73819D01*
X64173Y745079D02*
X68110Y749016D01*
X58071Y737598D02*
Y738976D01*
X64173Y745079D01*
X31299Y75590D02*
X32480Y76772D01*
X31299Y74213D02*
Y75590D01*
X76772Y87598D02*
X81693D01*
X73917Y84744D02*
X76772Y87598D01*
X73917Y83366D02*
Y84744D01*
X71653Y414783D02*
X72638Y413799D01*
Y409055D02*
Y413799D01*
X15748Y79134D02*
X16535Y79921D01*
X15748Y75000D02*
Y79134D01*
Y75000D02*
X16732Y74016D01*
X16535Y79921D02*
X18406D01*
X14272D02*
X16535D01*
X25000Y65551D02*
X31496Y59055D01*
Y54134D02*
Y59055D01*
X62992Y5906D02*
Y10236D01*
X62008Y4921D02*
X62992Y5906D01*
X60039Y4921D02*
X62008D01*
X59055Y5906D02*
X60039Y4921D01*
X59055Y5906D02*
Y10236D01*
X72638Y166142D02*
Y167520D01*
X69488Y170669D02*
X72638Y167520D01*
X69488Y170669D02*
Y172835D01*
X77756Y164370D02*
Y166339D01*
X76772Y163386D02*
X77756Y164370D01*
X71729Y163386D02*
X76772D01*
X69488Y165627D02*
X71729Y163386D01*
X69488Y165627D02*
Y166142D01*
X71653Y178563D02*
X72638Y177578D01*
Y172835D02*
Y177578D01*
X71653Y257303D02*
X72638Y256318D01*
Y251575D02*
Y256318D01*
X77756Y243110D02*
Y245079D01*
X76860Y242215D02*
X77756Y243110D01*
X71640Y242215D02*
X76860D01*
X69488Y244367D02*
X71640Y242215D01*
X69488Y244367D02*
Y244882D01*
X72638D02*
Y246260D01*
X69488Y249410D02*
X72638Y246260D01*
X69488Y249410D02*
Y251575D01*
X77756Y321850D02*
Y323819D01*
X71653Y336043D02*
X72638Y335059D01*
Y330315D02*
Y335059D01*
Y323622D02*
Y325000D01*
X69488Y328150D02*
X72638Y325000D01*
X69488Y328150D02*
Y330315D01*
X76860Y320955D02*
X77756Y321850D01*
X71640Y320955D02*
X76860D01*
X69488Y323107D02*
X71640Y320955D01*
X69488Y323107D02*
Y323622D01*
X72638Y402362D02*
Y403740D01*
X69488Y406890D02*
X72638Y403740D01*
X69488Y406890D02*
Y409055D01*
X77756Y400591D02*
Y402559D01*
X76772Y399606D02*
X77756Y400591D01*
X70866Y399606D02*
X76772D01*
X69488Y400984D02*
X70866Y399606D01*
X69488Y400984D02*
Y402362D01*
X77756Y479331D02*
Y481299D01*
X76860Y478435D02*
X77756Y479331D01*
X71640Y478435D02*
X76860D01*
X69488Y480587D02*
X71640Y478435D01*
X69488Y480587D02*
Y481102D01*
X72638D02*
Y482480D01*
X69488Y485630D02*
X72638Y482480D01*
X69488Y485630D02*
Y487795D01*
X71653Y493523D02*
X72638Y492539D01*
Y487795D02*
Y492539D01*
X70778Y557175D02*
X76860D01*
X69488Y558465D02*
X70778Y557175D01*
X69488Y558465D02*
Y559842D01*
X77756Y558071D02*
Y560039D01*
X76860Y557175D02*
X77756Y558071D01*
X72638Y559842D02*
Y561221D01*
X69488Y564370D02*
X72638Y561221D01*
X69488Y564370D02*
Y566535D01*
X71653Y572263D02*
X72638Y571279D01*
Y566535D02*
Y571279D01*
X71653Y651004D02*
X72638Y650019D01*
Y645276D02*
Y650019D01*
X77756Y636811D02*
Y638779D01*
X76860Y635915D02*
X77756Y636811D01*
X71640Y635915D02*
X76860D01*
X69488Y638068D02*
X71640Y635915D01*
X69488Y638068D02*
Y638583D01*
X72638D02*
Y639961D01*
X69488Y643110D02*
X72638Y639961D01*
X69488Y643110D02*
Y645276D01*
X74803Y714567D02*
X77756Y717520D01*
X70866Y714567D02*
X74803D01*
X69488Y715945D02*
X70866Y714567D01*
X69488Y715945D02*
Y717323D01*
X71653Y729744D02*
X72638Y728759D01*
Y724016D02*
Y728759D01*
Y717323D02*
Y719685D01*
X71850Y720472D02*
X72638Y719685D01*
X70866Y720472D02*
X71850D01*
X69488Y721850D02*
X70866Y720472D01*
X69488Y721850D02*
Y724016D01*
X31496Y10236D02*
Y22638D01*
X9252Y75590D02*
X10827Y74016D01*
X4921Y75590D02*
X9252D01*
X4921D02*
X5413Y76083D01*
Y83661D01*
X79528Y200787D02*
X81693Y198622D01*
X80709Y204724D02*
X81693D01*
X77953Y207480D02*
X80709Y204724D01*
Y283465D02*
X81693D01*
X77953Y286221D02*
X80709Y283465D01*
X79528Y279528D02*
X81693Y277362D01*
X80709Y362205D02*
X81693D01*
X77953Y364961D02*
X80709Y362205D01*
Y440945D02*
X81693D01*
X77953Y443701D02*
X80709Y440945D01*
Y519685D02*
X81693D01*
X77953Y522441D02*
X80709Y519685D01*
Y598425D02*
X81693D01*
X77953Y601181D02*
X80709Y598425D01*
X79527Y677165D02*
X81693D01*
X76968Y792323D02*
X80709D01*
X27756Y87402D02*
X31004D01*
X27559Y87598D02*
X27756Y87402D01*
X25591Y87598D02*
X27559D01*
X79724Y767913D02*
Y778740D01*
X63976Y764961D02*
X76772D01*
X79724Y689173D02*
Y700000D01*
X63976Y686221D02*
X76772D01*
X79724Y610433D02*
Y621260D01*
X63976Y607480D02*
X76772D01*
X79724Y531693D02*
Y542520D01*
X63976Y528740D02*
X76772D01*
X79724Y452953D02*
Y463779D01*
X63976Y450000D02*
X76772D01*
X79724Y374213D02*
Y385039D01*
X63976Y371260D02*
X76772D01*
X79724Y295472D02*
Y306299D01*
X63976Y292520D02*
X76772D01*
X79724Y216732D02*
Y227559D01*
X63976Y213779D02*
X76772D01*
X64173Y680118D02*
X70866D01*
X64173Y601378D02*
X70866D01*
X64173Y522638D02*
X70866D01*
X64173Y443898D02*
X70866D01*
X64173Y365158D02*
X70866D01*
X64173Y286417D02*
X70866D01*
X64173Y207677D02*
X70866D01*
X62008Y775197D02*
X65551Y771654D01*
X62008Y696457D02*
X65551Y692913D01*
X62008Y617717D02*
X65551Y614173D01*
X62008Y538976D02*
X65551Y535433D01*
X77756Y469488D02*
X79724D01*
X62008Y460236D02*
X65551Y456693D01*
X62008Y381496D02*
X65551Y377953D01*
X62008Y302756D02*
X65551Y299213D01*
X62008Y224016D02*
X65551Y220472D01*
X24606Y79724D02*
X30529D01*
X52165Y197835D02*
Y230315D01*
X46850Y192520D02*
X52165Y197835D01*
X39370Y192520D02*
X46850D01*
X46654Y201181D02*
X50197Y204724D01*
X39370Y201181D02*
X46654D01*
X52165Y276575D02*
Y309055D01*
X46850Y271260D02*
X52165Y276575D01*
X39370Y271260D02*
X46850D01*
X46654Y279921D02*
X50197Y283465D01*
X39370Y279921D02*
X46654D01*
X52165Y355315D02*
Y387795D01*
X46850Y350000D02*
X52165Y355315D01*
X39370Y350000D02*
X46850D01*
X46654Y358661D02*
X50197Y362205D01*
X39370Y358661D02*
X46654D01*
X52165Y434055D02*
Y466535D01*
X46850Y428740D02*
X52165Y434055D01*
X39370Y428740D02*
X46850D01*
X46654Y437402D02*
X50197Y440945D01*
X39370Y437402D02*
X46654D01*
X52165Y512795D02*
Y545276D01*
X46850Y507480D02*
X52165Y512795D01*
X39370Y507480D02*
X46850D01*
X46654Y516142D02*
X50197Y519685D01*
X39370Y516142D02*
X46654D01*
X52165Y591535D02*
Y624016D01*
X46850Y586221D02*
X52165Y591535D01*
X39370Y586221D02*
X46850D01*
X46654Y594882D02*
X50197Y598425D01*
X39370Y594882D02*
X46654D01*
X52165Y670276D02*
Y702756D01*
X46850Y664961D02*
X52165Y670276D01*
X39370Y664961D02*
X46850D01*
X46654Y673622D02*
X50197Y677165D01*
X39370Y673622D02*
X46654D01*
X52165Y749016D02*
Y781496D01*
X46850Y743701D02*
X52165Y749016D01*
X39370Y743701D02*
X46850D01*
X46654Y752362D02*
X50197Y755905D01*
X39370Y752362D02*
X46654D01*
X50197Y755905D02*
Y782480D01*
X76772Y207480D02*
X77953D01*
X70866Y207677D02*
X73819Y210630D01*
X83661D01*
X76772Y286221D02*
X77953D01*
X70866Y286417D02*
X73819Y289370D01*
X83661D01*
X76772Y364961D02*
X77953D01*
X70866Y365158D02*
X73819Y368110D01*
X83661D01*
X76772Y443701D02*
X77953D01*
X70866Y443898D02*
X73819Y446850D01*
X83661D01*
X76772Y522441D02*
X77953D01*
X70866Y522638D02*
X73819Y525591D01*
X83661D01*
X76772Y601181D02*
X77953D01*
X70866Y601378D02*
X73819Y604331D01*
X83661D01*
X76772Y679921D02*
X79527Y677165D01*
X70866Y679921D02*
X74016Y683071D01*
X83661D01*
X68898Y307480D02*
Y312008D01*
Y307480D02*
X70079Y306299D01*
X57087Y244094D02*
Y248031D01*
X60039Y250984D01*
X60630Y251575D01*
X63189D01*
X70079Y299410D02*
X72047D01*
X74803Y302165D01*
Y307087D01*
X79724Y312008D01*
X58071Y258858D02*
X59646Y257283D01*
X64173D01*
X63189Y251575D02*
Y255118D01*
X64173Y256102D01*
Y257283D01*
X66339Y251575D02*
X69488D01*
X63189D02*
X66339D01*
X63189Y244882D02*
X66339D01*
X69488D01*
X63976Y286614D02*
X64173Y286417D01*
Y279724D02*
X70079D01*
X64173D02*
Y286417D01*
X76772Y292520D02*
X79724Y295472D01*
X64764Y306299D02*
X65748D01*
X63976Y307087D02*
X64764Y306299D01*
X63976Y307087D02*
Y310039D01*
X61024Y312992D02*
X63976Y310039D01*
X65748Y306299D02*
X70079D01*
X54134Y311024D02*
X60039D01*
X65551Y299213D02*
X65748Y299410D01*
X62008Y302756D02*
Y309055D01*
X60039Y311024D02*
X62008Y309055D01*
X65748Y299410D02*
X70079D01*
X79528Y279528D02*
Y279724D01*
X68898Y543701D02*
Y548228D01*
Y543701D02*
X70079Y542520D01*
X57087Y484252D02*
X60039Y487205D01*
X57087Y480315D02*
Y484252D01*
X60039Y487205D02*
X60630Y487795D01*
X63189D01*
X70079Y535630D02*
X72047D01*
X74803Y538386D01*
Y543307D01*
X79724Y548228D01*
X63189Y487795D02*
Y491339D01*
X64173Y492323D01*
X58071Y495079D02*
X59646Y493504D01*
X64173Y492323D02*
Y493504D01*
X59646D02*
X64173D01*
X66339Y487795D02*
X69488D01*
X63189D02*
X66339D01*
X63189Y481102D02*
X66339D01*
X69488D01*
X63976Y522835D02*
X64173Y522638D01*
Y515945D02*
X70079D01*
X64173D02*
Y522638D01*
X76772Y528740D02*
X79724Y531693D01*
X64764Y542520D02*
X65748D01*
X63976Y543307D02*
X64764Y542520D01*
X63976Y543307D02*
Y546260D01*
X61024Y549213D02*
X63976Y546260D01*
X65748Y542520D02*
X70079D01*
X54134Y547244D02*
X60039D01*
X65551Y535433D02*
X65748Y535630D01*
X62008Y538976D02*
Y545276D01*
X60039Y547244D02*
X62008Y545276D01*
X65748Y535630D02*
X70079D01*
X79528Y515748D02*
Y515945D01*
Y515748D02*
X81496Y513779D01*
X68898Y464961D02*
Y469488D01*
Y464961D02*
X70079Y463779D01*
X57087Y405512D02*
X60039Y408465D01*
X57087Y401575D02*
Y405512D01*
X60039Y408465D02*
X60630Y409055D01*
X63189D01*
X70079Y456890D02*
X73032D01*
X74803Y458661D01*
Y466535D01*
X77756Y469488D01*
X63189Y409055D02*
Y412598D01*
X64173Y413583D01*
X58071Y416339D02*
X59646Y414764D01*
X64173Y413583D02*
Y414764D01*
X59646D02*
X64173D01*
X66339Y409055D02*
X69488D01*
X63189D02*
X66339D01*
X63189Y402362D02*
X66339D01*
X69488D01*
X63976Y444095D02*
X64173Y443898D01*
Y437205D02*
X70079D01*
X64173D02*
Y443898D01*
X76772Y450000D02*
X79724Y452953D01*
X64764Y463779D02*
X65748D01*
X63976Y464567D02*
X64764Y463779D01*
X63976Y464567D02*
Y467520D01*
X61024Y470472D02*
X63976Y467520D01*
X65748Y463779D02*
X70079D01*
X54134Y468504D02*
X60039D01*
X65551Y456693D02*
X65748Y456890D01*
X62008Y460236D02*
Y466535D01*
X60039Y468504D02*
X62008Y466535D01*
X65748Y456890D02*
X70079D01*
X79528Y437008D02*
Y437205D01*
Y437008D02*
X81693Y434842D01*
X68898Y701181D02*
X70079Y700000D01*
X68898Y701181D02*
Y705709D01*
X57087Y641732D02*
X60039Y644685D01*
X57087Y637795D02*
Y641732D01*
X60039Y644685D02*
X60630Y645276D01*
X63189D01*
X70079Y693110D02*
X72047D01*
X74803Y695866D01*
Y700787D01*
X79724Y705709D01*
X63189Y645276D02*
Y648819D01*
X64173Y649803D01*
X58071Y652559D02*
X59646Y650984D01*
X64173Y649803D02*
Y650984D01*
X59646D02*
X64173D01*
X66339Y645276D02*
X69488D01*
X63189D02*
X66339D01*
X63189Y638583D02*
X66339D01*
X69488D01*
X63976Y680315D02*
X64173Y680118D01*
Y673425D02*
X70079D01*
X64173D02*
Y680118D01*
X76772Y686221D02*
X79724Y689173D01*
X63976Y700787D02*
X64764Y700000D01*
X65748D02*
X70079D01*
X63976Y700787D02*
Y703740D01*
X61024Y706693D02*
X63976Y703740D01*
X64764Y700000D02*
X65748D01*
X63976Y703740D02*
X63976D01*
X54134Y704724D02*
X60039D01*
X65551Y692913D02*
X65748Y693110D01*
X62008Y696457D02*
Y702756D01*
X60039Y704724D02*
X62008Y702756D01*
X65748Y693110D02*
X70079D01*
X79528Y673228D02*
Y673425D01*
Y673228D02*
X81693Y671063D01*
Y670276D02*
Y671063D01*
X68898Y622441D02*
Y626968D01*
Y622441D02*
X70079Y621260D01*
X57087Y562992D02*
X60039Y565945D01*
X57087Y559055D02*
Y562992D01*
X60039Y565945D02*
X60630Y566535D01*
X63189D01*
X70276Y614173D02*
X72835D01*
X70079Y614370D02*
X70276Y614173D01*
X72835D02*
X74803Y616142D01*
Y622047D01*
X79724Y626968D01*
X63189Y566535D02*
Y570079D01*
X64173Y571063D01*
X58071Y573819D02*
X59646Y572244D01*
X64173Y571063D02*
Y572244D01*
X59646D02*
X64173D01*
X66339Y566535D02*
X69488D01*
X63189D02*
X66339D01*
X63189Y559842D02*
X66339D01*
X69488D01*
X63976Y601575D02*
X64173Y601378D01*
Y594685D02*
X70079D01*
X64173D02*
Y601378D01*
X76772Y607480D02*
X79724Y610433D01*
X64764Y621260D02*
X65748D01*
X63976Y622047D02*
X64764Y621260D01*
X63976Y622047D02*
Y625000D01*
X61024Y627953D02*
X63976Y625000D01*
X65748Y621260D02*
X70079D01*
X54134Y625984D02*
X60039D01*
X65551Y614173D02*
X65748Y614370D01*
X62008Y617717D02*
Y624016D01*
X60039Y625984D02*
X62008Y624016D01*
X65748Y614370D02*
X70079D01*
X79528Y594488D02*
Y594685D01*
Y594488D02*
X81693Y592323D01*
Y591535D02*
Y592323D01*
X68898Y228740D02*
Y233268D01*
Y228740D02*
X70079Y227559D01*
X57087Y165354D02*
Y170275D01*
X59055Y172244D01*
X59646Y172835D01*
X63189D01*
X70079Y220669D02*
X71063D01*
X74803Y224410D01*
Y228346D01*
X79724Y233268D01*
X58071Y180118D02*
X59646Y178543D01*
X64173D01*
X63189Y172835D02*
Y176378D01*
X64173Y177362D01*
Y178543D01*
X66339Y172835D02*
X69488D01*
X63189D02*
X66339D01*
X63189Y166142D02*
X66339D01*
X69488D01*
X63976Y207874D02*
X64173Y207677D01*
Y200984D02*
X70079D01*
X64173D02*
Y207677D01*
X76772Y213779D02*
X79724Y216732D01*
X64764Y227559D02*
X65748D01*
X63976Y228346D02*
X64764Y227559D01*
X63976Y228346D02*
Y231299D01*
X61024Y234252D02*
X63976Y231299D01*
X65748Y227559D02*
X70079D01*
X54134Y232283D02*
X60039D01*
X65551Y220472D02*
X65748Y220669D01*
X62008Y224016D02*
Y230315D01*
X60039Y232283D02*
X62008Y230315D01*
X65748Y220669D02*
X70079D01*
X79528Y200787D02*
Y200984D01*
X68898Y386221D02*
Y390748D01*
Y386221D02*
X70079Y385039D01*
X57087Y326772D02*
X60039Y329724D01*
X57087Y322835D02*
Y326772D01*
X60039Y329724D02*
X60630Y330315D01*
X63189D01*
X70079Y378150D02*
X71063D01*
X74803Y381890D01*
Y385827D01*
X79724Y390748D01*
X63189Y333858D02*
X64173Y334842D01*
X58071Y337598D02*
X59646Y336024D01*
X64173D01*
X63189Y330315D02*
Y333858D01*
X64173Y334842D02*
Y336024D01*
X66339Y330315D02*
X69488D01*
X63189D02*
X66339D01*
X63189Y323622D02*
X66339D01*
X69488D01*
X63976Y365354D02*
X64173Y365158D01*
Y358465D02*
X70079D01*
X64173D02*
Y365158D01*
X76772Y371260D02*
X79724Y374213D01*
X64764Y385039D02*
X65748D01*
X63976Y385827D02*
X64764Y385039D01*
X63976Y385827D02*
Y388779D01*
X61024Y391732D02*
X63976Y388779D01*
X65748Y385039D02*
X70079D01*
X54134Y389764D02*
X60039D01*
X65551Y377953D02*
X65748Y378150D01*
X62008Y381496D02*
Y387795D01*
X60039Y389764D02*
X62008Y387795D01*
X65748Y378150D02*
X70079D01*
X79528Y358268D02*
Y358465D01*
Y358268D02*
X81693Y356102D01*
Y355315D02*
Y356102D01*
X70866Y758661D02*
X74016Y761811D01*
X83661D01*
X64173Y752165D02*
X70079D01*
X64173D02*
Y758858D01*
X63976Y759055D02*
X64173Y758858D01*
X80709Y120079D02*
Y154528D01*
X74803Y122047D02*
Y154528D01*
X68898Y124016D02*
Y154528D01*
X62992Y125984D02*
Y154528D01*
X60039Y126969D02*
Y158465D01*
X77756Y121063D02*
Y158465D01*
X71850Y123031D02*
Y158465D01*
X65945Y125000D02*
Y158465D01*
X56299Y123228D02*
X60039Y126969D01*
X25000Y65551D02*
Y67520D01*
X62992Y43307D02*
X66929Y47244D01*
X69390D01*
X80610Y73917D02*
X80709Y73819D01*
X84646D01*
X62992Y37303D02*
Y43307D01*
X38583Y51378D02*
Y52756D01*
X27559Y40354D02*
X38583Y51378D01*
X27559Y37303D02*
Y40354D01*
X41732Y50591D02*
Y52756D01*
X31496Y40354D02*
X41732Y50591D01*
X31496Y37303D02*
Y40354D01*
X44882Y49803D02*
Y52756D01*
X35433Y40354D02*
X44882Y49803D01*
X35433Y37303D02*
Y40354D01*
X48031Y49016D02*
Y52756D01*
X39370Y40354D02*
X48031Y49016D01*
X39370Y37303D02*
Y40354D01*
X53347Y50394D02*
Y52756D01*
X43307Y40354D02*
X53347Y50394D01*
X43307Y37303D02*
Y40354D01*
X56496Y49606D02*
Y52756D01*
X47244Y40354D02*
X56496Y49606D01*
X47244Y37303D02*
Y40354D01*
X59646Y48819D02*
Y52756D01*
X51181Y40354D02*
X59646Y48819D01*
X51181Y37303D02*
Y40354D01*
X62795Y48031D02*
Y52756D01*
X55118Y40354D02*
X62795Y48031D01*
X55118Y37303D02*
Y40354D01*
X38583Y59449D02*
Y61221D01*
X40354Y62992D01*
X41339D01*
X44980Y66634D01*
Y69488D01*
X41732Y59449D02*
Y60433D01*
X47539Y66240D01*
Y69488D01*
X44882Y59449D02*
Y60630D01*
X50098Y65847D01*
Y69488D01*
X48031Y59449D02*
Y60827D01*
X52658Y65453D01*
Y69488D01*
X53347Y59449D02*
Y62205D01*
X55216Y64075D01*
Y69488D01*
X56496Y59449D02*
Y62402D01*
X57776Y63681D01*
Y69488D01*
X59646Y59449D02*
Y62598D01*
X60335Y63287D01*
Y69488D01*
X62795Y59449D02*
X62894Y59547D01*
Y69488D01*
X80512Y107087D02*
Y109843D01*
X71850Y98425D02*
X80512Y107087D01*
X67913Y98425D02*
X71850D01*
X77362Y106890D02*
Y109843D01*
X70866Y100394D02*
X77362Y106890D01*
X66929Y100394D02*
X70866D01*
X74213Y106693D02*
Y109843D01*
X69882Y102362D02*
X74213Y106693D01*
X65945Y102362D02*
X69882D01*
X65453Y95965D02*
X67913Y98425D01*
X65453Y91929D02*
Y95965D01*
X62894Y96358D02*
X66929Y100394D01*
X62894Y91929D02*
Y96358D01*
X60335Y96752D02*
X65945Y102362D01*
X60335Y91929D02*
Y96752D01*
X71063Y106496D02*
Y109843D01*
X68898Y104331D02*
X71063Y106496D01*
X64961Y104331D02*
X68898D01*
X57776Y97146D02*
X64961Y104331D01*
X57776Y91929D02*
Y97146D01*
X65748Y108071D02*
Y109843D01*
X55216Y97539D02*
X65748Y108071D01*
X55216Y91929D02*
Y97539D01*
X62598Y107874D02*
Y109843D01*
X52658Y97933D02*
X62598Y107874D01*
X52658Y91929D02*
Y97933D01*
X59449Y107677D02*
Y109843D01*
X50098Y98327D02*
X59449Y107677D01*
X47539Y98721D02*
X56299Y107480D01*
X47539Y91929D02*
Y98721D01*
X56299Y107480D02*
Y109843D01*
X50098Y91929D02*
Y98327D01*
X56299Y116535D02*
Y123228D01*
X59449Y122441D02*
X62992Y125984D01*
X59449Y116535D02*
Y122441D01*
X62598Y121653D02*
X65945Y125000D01*
X62598Y116535D02*
Y121653D01*
X65748Y120866D02*
X68898Y124016D01*
X65748Y116535D02*
Y120866D01*
X71063Y122244D02*
X71850Y123031D01*
X71063Y116535D02*
Y122244D01*
X74213Y121457D02*
X74803Y122047D01*
X74213Y116535D02*
Y121457D01*
X77362Y120669D02*
X77756Y121063D01*
X77362Y116535D02*
Y120669D01*
X80512Y119882D02*
X80709Y120079D01*
X80512Y116535D02*
Y119882D01*
X79528Y751968D02*
X81693Y749803D01*
X57087Y720472D02*
X60039Y723425D01*
X57087Y716535D02*
Y720472D01*
X70079Y771850D02*
X73032D01*
X74803Y773622D01*
Y779528D01*
X79724Y784449D01*
X68898Y779921D02*
X70079Y778740D01*
X68898Y779921D02*
Y784449D01*
X60039Y723425D02*
X60630Y724016D01*
X28150Y67520D02*
X31299D01*
X25000Y74213D02*
X28150D01*
X21850Y67520D02*
X25000D01*
X5413Y83661D02*
X8858Y87106D01*
Y94685D01*
X18406Y79921D02*
X22146Y83661D01*
X21850Y76968D02*
X24606Y79724D01*
X21850Y74213D02*
Y76968D01*
X50197Y204724D02*
Y231299D01*
X53150Y234252D01*
X61024D01*
X52165Y230315D02*
X54134Y232283D01*
X50197Y283465D02*
Y310039D01*
X53150Y312992D01*
X61024D01*
X52165Y309055D02*
X54134Y311024D01*
X53150Y470472D02*
X61024D01*
X50197Y467520D02*
X53150Y470472D01*
X50197Y440945D02*
Y467520D01*
X52165Y466535D02*
X54134Y468504D01*
X50197Y362205D02*
Y388779D01*
X53150Y391732D01*
X61024D01*
X52165Y387795D02*
X54134Y389764D01*
X50197Y519685D02*
Y546260D01*
X53150Y549213D01*
X61024D01*
X52165Y545276D02*
X54134Y547244D01*
X50197Y598425D02*
Y625000D01*
X53150Y627953D02*
X61024D01*
X50197Y625000D02*
X53150Y627953D01*
X52165Y624016D02*
X54134Y625984D01*
X50197Y677165D02*
Y703740D01*
X53150Y706693D01*
X61024D01*
X52165Y702756D02*
X54134Y704724D01*
X60630Y724016D02*
X63189D01*
Y727559D02*
X64173Y728543D01*
X63189Y724016D02*
Y727559D01*
X64173Y728543D02*
Y729724D01*
X79528Y751968D02*
Y752165D01*
X62008Y775197D02*
Y781496D01*
X63976Y779528D02*
Y782480D01*
X61024Y785433D02*
X63976Y782480D01*
X53150Y785433D02*
X61024D01*
X50197Y782480D02*
X53150Y785433D01*
X64764Y778740D02*
X65748D01*
X63976Y779528D02*
X64764Y778740D01*
X65551Y771654D02*
X65748Y771850D01*
X60039Y783465D02*
X62008Y781496D01*
X54134Y783465D02*
X60039D01*
X52165Y781496D02*
X54134Y783465D01*
X65748Y778740D02*
X70079D01*
X65748Y771850D02*
X70079D01*
X66339Y717323D02*
X69488D01*
X63189D02*
X66339D01*
Y724016D02*
X69488D01*
X63189D02*
X66339D01*
X58071Y731299D02*
X59646Y729724D01*
X64173D01*
X76772Y764961D02*
X79724Y767913D01*
X73917Y77067D02*
Y80216D01*
X80610D02*
Y83366D01*
Y73917D02*
Y77067D01*
D17*
X39370Y758858D02*
Y759842D01*
X39370Y736221D02*
Y743701D01*
X39370Y736221D02*
X39370Y736221D01*
X39370Y752362D02*
Y757874D01*
Y752362D02*
X39370Y752362D01*
X39370Y673622D02*
Y681102D01*
Y673622D02*
X39370Y673622D01*
X39370Y657480D02*
Y664961D01*
X39370Y664961D01*
X39370Y578740D02*
Y586221D01*
X39370Y586221D01*
X39370Y594882D02*
Y602362D01*
Y594882D02*
X39370Y594882D01*
X39370Y500000D02*
Y507480D01*
X39370Y507480D01*
X39370Y516142D02*
Y523622D01*
Y516142D02*
X39370Y516142D01*
Y421260D02*
Y428740D01*
X39370Y421260D02*
X39370Y421260D01*
X39370Y437402D02*
Y444882D01*
Y437402D02*
X39370Y437402D01*
X39370Y358661D02*
Y366142D01*
Y358661D02*
X39370Y358661D01*
X39370Y342520D02*
Y350000D01*
X39370Y350000D01*
Y279921D02*
Y287402D01*
X39370Y287402D02*
X39370Y287402D01*
Y263780D02*
Y271260D01*
X39370Y263779D02*
X39370Y263780D01*
D18*
X14272Y79921D02*
D03*
Y87402D02*
D03*
X5413Y83661D02*
D03*
X22146Y83661D02*
D03*
X31004Y87402D02*
D03*
Y79921D02*
D03*
D19*
X39370Y736221D02*
D03*
Y759842D02*
D03*
Y681102D02*
D03*
Y657480D02*
D03*
Y578740D02*
D03*
Y602362D02*
D03*
Y523622D02*
D03*
Y500000D02*
D03*
Y421260D02*
D03*
Y444882D02*
D03*
Y366142D02*
D03*
Y342520D02*
D03*
Y263779D02*
D03*
Y287402D02*
D03*
Y208661D02*
D03*
Y185039D02*
D03*
D20*
X71653Y739192D02*
D03*
X67913D02*
D03*
X64173D02*
D03*
Y729744D02*
D03*
X71653D02*
D03*
Y651004D02*
D03*
X64173D02*
D03*
Y660452D02*
D03*
X67913D02*
D03*
X71653D02*
D03*
Y581712D02*
D03*
X67913D02*
D03*
X64173D02*
D03*
Y572263D02*
D03*
X71653D02*
D03*
Y493523D02*
D03*
X64173D02*
D03*
Y502972D02*
D03*
X67913D02*
D03*
X71653D02*
D03*
Y424232D02*
D03*
X67913D02*
D03*
X64173D02*
D03*
Y414783D02*
D03*
X71653D02*
D03*
Y336043D02*
D03*
X64173D02*
D03*
Y345492D02*
D03*
X67913D02*
D03*
X71653D02*
D03*
Y266752D02*
D03*
X67913D02*
D03*
X64173D02*
D03*
Y257303D02*
D03*
X71653D02*
D03*
Y178563D02*
D03*
X64173D02*
D03*
Y188011D02*
D03*
X67913D02*
D03*
X71653D02*
D03*
X8858Y104134D02*
D03*
X5118Y94685D02*
D03*
X8858D02*
D03*
X12598D02*
D03*
Y104134D02*
D03*
X5118D02*
D03*
D21*
X73819Y52658D02*
D03*
X80118D02*
D03*
X25394Y105315D02*
D03*
X31693D02*
D03*
X64173Y752165D02*
D03*
X57874D02*
D03*
X64173Y673425D02*
D03*
X57874D02*
D03*
X64173Y594685D02*
D03*
X57874D02*
D03*
X64173Y515945D02*
D03*
X57874D02*
D03*
X64173Y437205D02*
D03*
X57874D02*
D03*
X64173Y358465D02*
D03*
X57874D02*
D03*
X64173Y279724D02*
D03*
X57874D02*
D03*
X64173Y200984D02*
D03*
X57874D02*
D03*
X64173Y746063D02*
D03*
X57874D02*
D03*
X64173Y667323D02*
D03*
X57874D02*
D03*
X64173Y588583D02*
D03*
X57874D02*
D03*
X64173Y509842D02*
D03*
X57874D02*
D03*
X64173Y431102D02*
D03*
X57874D02*
D03*
X64173Y352362D02*
D03*
X57874D02*
D03*
X64173Y273622D02*
D03*
X57874D02*
D03*
X64173Y194882D02*
D03*
X57874D02*
D03*
X71653Y745276D02*
D03*
X77953D02*
D03*
X71653Y666535D02*
D03*
X77953D02*
D03*
X71653Y587795D02*
D03*
X77953D02*
D03*
X71653Y509055D02*
D03*
X77953D02*
D03*
X71653Y430315D02*
D03*
X77953D02*
D03*
X71653Y351575D02*
D03*
X77953D02*
D03*
X71653Y272835D02*
D03*
X77953D02*
D03*
X71653Y194095D02*
D03*
X77953D02*
D03*
X70669Y792323D02*
D03*
X76968D02*
D03*
D22*
X83661Y761811D02*
D03*
Y683071D02*
D03*
Y604331D02*
D03*
Y525591D02*
D03*
Y446850D02*
D03*
Y368110D02*
D03*
Y289370D02*
D03*
Y210630D02*
D03*
X57087Y716535D02*
D03*
Y637795D02*
D03*
Y559055D02*
D03*
Y480315D02*
D03*
Y401575D02*
D03*
Y322835D02*
D03*
Y244094D02*
D03*
Y165354D02*
D03*
D23*
X79724Y785433D02*
D03*
Y706693D02*
D03*
Y627953D02*
D03*
Y549213D02*
D03*
Y470472D02*
D03*
Y391732D02*
D03*
Y312992D02*
D03*
Y234252D02*
D03*
X68898Y785433D02*
D03*
Y706693D02*
D03*
Y627953D02*
D03*
Y549213D02*
D03*
Y470472D02*
D03*
Y391732D02*
D03*
Y312992D02*
D03*
Y234252D02*
D03*
D24*
X62992Y10236D02*
D03*
X61024D02*
D03*
X59055D02*
D03*
X57087D02*
D03*
X55118D02*
D03*
X53150D02*
D03*
X51181D02*
D03*
X49213D02*
D03*
X47244D02*
D03*
X45276D02*
D03*
X43307D02*
D03*
X41339D02*
D03*
X39370D02*
D03*
X37402D02*
D03*
X35433D02*
D03*
X33465D02*
D03*
X31496D02*
D03*
X29528D02*
D03*
X27559D02*
D03*
X25591D02*
D03*
D25*
X62992Y37303D02*
D03*
X61024D02*
D03*
X59055D02*
D03*
X57087D02*
D03*
X55118D02*
D03*
X53150D02*
D03*
X51181D02*
D03*
X49213D02*
D03*
X47244D02*
D03*
X45276D02*
D03*
X43307D02*
D03*
X41339D02*
D03*
X39370D02*
D03*
X37402D02*
D03*
X35433D02*
D03*
X33465D02*
D03*
X31496D02*
D03*
X29528D02*
D03*
X27559D02*
D03*
X25591D02*
D03*
D26*
X77756Y723425D02*
D03*
Y717520D02*
D03*
Y644685D02*
D03*
Y638779D02*
D03*
Y565945D02*
D03*
Y560039D02*
D03*
Y487205D02*
D03*
Y481299D02*
D03*
Y408465D02*
D03*
Y402559D02*
D03*
Y329724D02*
D03*
Y323819D02*
D03*
Y250984D02*
D03*
Y245079D02*
D03*
Y172244D02*
D03*
Y166339D02*
D03*
D27*
X36476Y115157D02*
D03*
X20610D02*
D03*
D28*
X68012Y91929D02*
D03*
X65453D02*
D03*
X62894D02*
D03*
X60335D02*
D03*
X57776D02*
D03*
X55216D02*
D03*
X52658D02*
D03*
X50098D02*
D03*
X47539D02*
D03*
X44980D02*
D03*
X68012Y69488D02*
D03*
X65453D02*
D03*
X62894D02*
D03*
X60335D02*
D03*
X57776D02*
D03*
X55216D02*
D03*
X52658D02*
D03*
X50098D02*
D03*
X47539D02*
D03*
X44980D02*
D03*
D29*
X70079Y752165D02*
D03*
X79528D02*
D03*
X70079Y673425D02*
D03*
X79528D02*
D03*
X70079Y594685D02*
D03*
X79528D02*
D03*
X70079Y515945D02*
D03*
X79528D02*
D03*
X70079Y437205D02*
D03*
X79528D02*
D03*
X70079Y358465D02*
D03*
X79528D02*
D03*
X70079Y279724D02*
D03*
X79528D02*
D03*
X70079Y200984D02*
D03*
X79528D02*
D03*
X70079Y771850D02*
D03*
X79528D02*
D03*
X70079Y693110D02*
D03*
X79528D02*
D03*
X70079Y614370D02*
D03*
X79528D02*
D03*
X70079Y535630D02*
D03*
X79528D02*
D03*
X70079Y456890D02*
D03*
X79528D02*
D03*
X70079Y378150D02*
D03*
X79528D02*
D03*
X70079Y299410D02*
D03*
X79528D02*
D03*
X70079Y220669D02*
D03*
X79528D02*
D03*
X56299Y771850D02*
D03*
X65748D02*
D03*
X56299Y693110D02*
D03*
X65748D02*
D03*
X56299Y614370D02*
D03*
X65748D02*
D03*
X56299Y535630D02*
D03*
X65748D02*
D03*
X56299Y456890D02*
D03*
X65748D02*
D03*
X56299Y378150D02*
D03*
X65748D02*
D03*
X56299Y299410D02*
D03*
X65748D02*
D03*
X56299Y220669D02*
D03*
X65748D02*
D03*
X70079Y778740D02*
D03*
X79528D02*
D03*
X70079Y700000D02*
D03*
X79528D02*
D03*
X70079Y621260D02*
D03*
X79528D02*
D03*
X70079Y542520D02*
D03*
X79528D02*
D03*
X70079Y463779D02*
D03*
X79528D02*
D03*
X70079Y385039D02*
D03*
X79528D02*
D03*
X70079Y306299D02*
D03*
X79528D02*
D03*
X70079Y227559D02*
D03*
X79528D02*
D03*
X56299Y778740D02*
D03*
X65748D02*
D03*
X56299Y700000D02*
D03*
X65748D02*
D03*
X56299Y621260D02*
D03*
X65748D02*
D03*
X56299Y542520D02*
D03*
X65748D02*
D03*
X56299Y463779D02*
D03*
X65748D02*
D03*
X56299Y385039D02*
D03*
X65748D02*
D03*
X56299Y306299D02*
D03*
X65748D02*
D03*
X56299Y227559D02*
D03*
X65748D02*
D03*
D30*
X12795Y120866D02*
D03*
Y111417D02*
D03*
X4921Y120866D02*
D03*
Y111417D02*
D03*
Y74606D02*
D03*
Y65158D02*
D03*
D31*
X9736Y50197D02*
D03*
X21760D02*
D03*
D32*
X63976Y764961D02*
D03*
X58071D02*
D03*
X63976Y686221D02*
D03*
X58071D02*
D03*
X63976Y607480D02*
D03*
X58071D02*
D03*
X63976Y528740D02*
D03*
X58071D02*
D03*
X63976Y450000D02*
D03*
X58071D02*
D03*
X63976Y371260D02*
D03*
X58071D02*
D03*
X63976Y292520D02*
D03*
X58071D02*
D03*
X63976Y213779D02*
D03*
X58071D02*
D03*
X63976Y759055D02*
D03*
X58071D02*
D03*
X63976Y680315D02*
D03*
X58071D02*
D03*
X63976Y601575D02*
D03*
X58071D02*
D03*
X63976Y522835D02*
D03*
X58071D02*
D03*
X63976Y444095D02*
D03*
X58071D02*
D03*
X63976Y365354D02*
D03*
X58071D02*
D03*
X63976Y286614D02*
D03*
X58071D02*
D03*
X63976Y207874D02*
D03*
X58071D02*
D03*
X10827Y62008D02*
D03*
X16732D02*
D03*
D33*
X39370Y77756D02*
D03*
Y83661D02*
D03*
X78740Y731299D02*
D03*
Y737205D02*
D03*
Y652559D02*
D03*
Y658465D02*
D03*
Y573819D02*
D03*
Y579724D02*
D03*
Y495079D02*
D03*
Y500984D02*
D03*
Y416339D02*
D03*
Y422244D02*
D03*
Y337598D02*
D03*
Y343504D02*
D03*
Y258858D02*
D03*
Y264764D02*
D03*
Y180118D02*
D03*
Y186024D02*
D03*
X79724Y58563D02*
D03*
Y64468D02*
D03*
X73819Y58563D02*
D03*
Y64468D02*
D03*
X31496Y99410D02*
D03*
Y93504D02*
D03*
X25591Y99410D02*
D03*
Y93504D02*
D03*
X19685Y99410D02*
D03*
Y93504D02*
D03*
D34*
X80512Y116535D02*
D03*
X77362D02*
D03*
X74213D02*
D03*
X71063D02*
D03*
Y109843D02*
D03*
X74213D02*
D03*
X77362D02*
D03*
X80512D02*
D03*
X62795Y59449D02*
D03*
X59646D02*
D03*
X56496D02*
D03*
X53347D02*
D03*
Y52756D02*
D03*
X56496D02*
D03*
X59646D02*
D03*
X62795D02*
D03*
X65748Y116535D02*
D03*
X62598D02*
D03*
X59449D02*
D03*
X56299D02*
D03*
Y109843D02*
D03*
X59449D02*
D03*
X62598D02*
D03*
X65748D02*
D03*
X48031Y59449D02*
D03*
X44882D02*
D03*
X41732D02*
D03*
X38583D02*
D03*
Y52756D02*
D03*
X41732D02*
D03*
X44882D02*
D03*
X48031D02*
D03*
X72638Y724016D02*
D03*
X69488D02*
D03*
X66339D02*
D03*
X63189D02*
D03*
Y717323D02*
D03*
X66339D02*
D03*
X69488D02*
D03*
X72638D02*
D03*
Y645276D02*
D03*
X69488D02*
D03*
X66339D02*
D03*
X63189D02*
D03*
Y638583D02*
D03*
X66339D02*
D03*
X69488D02*
D03*
X72638D02*
D03*
Y566535D02*
D03*
X69488D02*
D03*
X66339D02*
D03*
X63189D02*
D03*
Y559842D02*
D03*
X66339D02*
D03*
X69488D02*
D03*
X72638D02*
D03*
Y487795D02*
D03*
X69488D02*
D03*
X66339D02*
D03*
X63189D02*
D03*
Y481102D02*
D03*
X66339D02*
D03*
X69488D02*
D03*
X72638D02*
D03*
Y409055D02*
D03*
X69488D02*
D03*
X66339D02*
D03*
X63189D02*
D03*
Y402362D02*
D03*
X66339D02*
D03*
X69488D02*
D03*
X72638D02*
D03*
Y330315D02*
D03*
X69488D02*
D03*
X66339D02*
D03*
X63189D02*
D03*
Y323622D02*
D03*
X66339D02*
D03*
X69488D02*
D03*
X72638D02*
D03*
Y251575D02*
D03*
X69488D02*
D03*
X66339D02*
D03*
X63189D02*
D03*
Y244882D02*
D03*
X66339D02*
D03*
X69488D02*
D03*
X72638D02*
D03*
Y172835D02*
D03*
X69488D02*
D03*
X66339D02*
D03*
X63189D02*
D03*
Y166142D02*
D03*
X66339D02*
D03*
X69488D02*
D03*
X72638D02*
D03*
X21850Y67520D02*
D03*
X25000D02*
D03*
X28150D02*
D03*
X31299D02*
D03*
Y74213D02*
D03*
X28150D02*
D03*
X25000D02*
D03*
X21850D02*
D03*
D35*
X73917Y83366D02*
D03*
Y80216D02*
D03*
Y77067D02*
D03*
Y73917D02*
D03*
X80610D02*
D03*
Y77067D02*
D03*
Y80216D02*
D03*
Y83366D02*
D03*
D36*
X70866Y758661D02*
D03*
Y764961D02*
D03*
Y679921D02*
D03*
Y686221D02*
D03*
Y601181D02*
D03*
Y607480D02*
D03*
Y522441D02*
D03*
Y528740D02*
D03*
Y443701D02*
D03*
Y450000D02*
D03*
Y364961D02*
D03*
Y371260D02*
D03*
Y286221D02*
D03*
Y292520D02*
D03*
Y207480D02*
D03*
Y213779D02*
D03*
X58071Y731299D02*
D03*
Y737598D02*
D03*
Y652559D02*
D03*
Y658858D02*
D03*
Y573819D02*
D03*
Y580118D02*
D03*
Y495079D02*
D03*
Y501378D02*
D03*
Y416339D02*
D03*
Y422638D02*
D03*
Y337598D02*
D03*
Y343898D02*
D03*
Y258858D02*
D03*
Y265158D02*
D03*
Y180118D02*
D03*
Y186417D02*
D03*
X10827Y67716D02*
D03*
Y74016D02*
D03*
X16732Y67716D02*
D03*
Y74016D02*
D03*
X76772Y764961D02*
D03*
Y758661D02*
D03*
Y686221D02*
D03*
Y679921D02*
D03*
Y607480D02*
D03*
Y601181D02*
D03*
Y528740D02*
D03*
Y522441D02*
D03*
Y450000D02*
D03*
Y443701D02*
D03*
Y371260D02*
D03*
Y364961D02*
D03*
Y292520D02*
D03*
Y286221D02*
D03*
Y213779D02*
D03*
Y207480D02*
D03*
D37*
X64370Y792323D02*
D03*
X55709D02*
D03*
D38*
X39370Y752362D02*
D03*
Y743701D02*
D03*
Y664961D02*
D03*
Y673622D02*
D03*
Y594882D02*
D03*
Y586221D02*
D03*
Y507480D02*
D03*
Y516142D02*
D03*
Y437402D02*
D03*
Y428740D02*
D03*
Y350000D02*
D03*
Y358661D02*
D03*
Y279921D02*
D03*
Y271260D02*
D03*
Y192520D02*
D03*
Y201181D02*
D03*
D41*
X15748Y826772D02*
D03*
X74803D02*
D03*
X19685Y393701D02*
D03*
Y787402D02*
D03*
Y708661D02*
D03*
Y629921D02*
D03*
Y551181D02*
D03*
Y472441D02*
D03*
Y314961D02*
D03*
Y236221D02*
D03*
D42*
X37402Y718504D02*
D03*
Y777559D02*
D03*
Y698819D02*
D03*
Y639764D02*
D03*
Y561024D02*
D03*
Y620079D02*
D03*
Y541339D02*
D03*
Y482283D02*
D03*
Y403543D02*
D03*
Y462598D02*
D03*
Y383858D02*
D03*
Y324803D02*
D03*
Y246063D02*
D03*
Y305118D02*
D03*
Y226378D02*
D03*
Y167323D02*
D03*
D43*
X17717Y147638D02*
D03*
Y127953D02*
D03*
X7874Y147638D02*
D03*
Y127953D02*
D03*
D44*
X76181Y32874D02*
D03*
X69488Y39764D02*
D03*
X19094Y32874D02*
D03*
X12402Y39764D02*
D03*
D45*
X81693Y14567D02*
D03*
X6890D02*
D03*
D46*
X45276Y118110D02*
D03*
D47*
X57087Y837008D02*
D03*
X33465D02*
D03*
D48*
X45276Y814173D02*
D03*
D49*
X77756Y644685D02*
X81693D01*
X77756Y565945D02*
X81693D01*
X77756Y487205D02*
X81693D01*
X4921Y117126D02*
Y121063D01*
X77756Y172244D02*
X81693D01*
X77756Y250984D02*
X81693D01*
X77756Y329724D02*
X81693D01*
X77756Y408465D02*
X81693D01*
X77756Y723425D02*
X81693D01*
D50*
X80118Y36811D02*
Y47638D01*
X76181Y32874D02*
X80118Y36811D01*
Y47638D02*
Y52658D01*
X45276Y113189D02*
Y118110D01*
X41516Y109429D02*
X45276Y113189D01*
X26339Y109429D02*
X41516D01*
X24606Y120079D02*
Y141732D01*
X18701Y147638D02*
X24606Y141732D01*
X17717Y147638D02*
X18701D01*
X36417Y83661D02*
X39370D01*
X36417Y77756D02*
X39370D01*
X39370Y77756D01*
X20610Y116083D02*
X24606Y120079D01*
X20610Y115157D02*
Y116083D01*
Y115157D02*
X26339Y109429D01*
X39370Y201181D02*
Y208661D01*
Y201181D02*
X39370Y201181D01*
Y185039D02*
Y192520D01*
X39370Y185039D02*
X39370Y185039D01*
X79724Y58563D02*
X80118Y58169D01*
Y52658D02*
Y58169D01*
X45276Y118110D02*
Y137795D01*
X7874Y147638D02*
X17717D01*
D51*
X77953Y194095D02*
X81693D01*
X77953Y272835D02*
X78150Y272638D01*
X81693D01*
X77953Y509055D02*
X78150Y508858D01*
X81693D01*
X77953Y430315D02*
X78150Y430118D01*
X81693D01*
X77953Y666535D02*
X78150Y666339D01*
X81693D01*
X77953Y587795D02*
X78150Y587598D01*
X81693D01*
X77953Y351575D02*
X78150Y351378D01*
X81693D01*
X59055Y28543D02*
Y37303D01*
X81496Y745276D02*
X81693Y745079D01*
X77953Y745276D02*
X81496D01*
D52*
X79529Y755904D02*
X81693D01*
X76772Y758661D02*
X79529Y755904D01*
D53*
X68012Y69488D02*
Y74508D01*
D54*
X45276Y137795D02*
D03*
D55*
X35433Y16732D02*
D03*
X27559Y22638D02*
D03*
X22638Y10827D02*
D03*
X57087Y16732D02*
D03*
X61024D02*
D03*
X25351Y18701D02*
D03*
X62992Y31496D02*
D03*
X53150D02*
D03*
X45276D02*
D03*
X27559D02*
D03*
X32480Y76772D02*
D03*
X81693Y87598D02*
D03*
X13780Y68898D02*
D03*
X79724Y66929D02*
D03*
X31496Y54134D02*
D03*
X81693Y644685D02*
D03*
Y565945D02*
D03*
Y487205D02*
D03*
Y172244D02*
D03*
Y250984D02*
D03*
Y329724D02*
D03*
Y408465D02*
D03*
Y723425D02*
D03*
Y731299D02*
D03*
X31496Y22638D02*
D03*
X5906Y62008D02*
D03*
X20669D02*
D03*
X81693Y198622D02*
D03*
Y204724D02*
D03*
Y194095D02*
D03*
X81693Y283465D02*
D03*
X81693Y277362D02*
D03*
Y362205D02*
D03*
X81693Y440945D02*
D03*
X81693Y519685D02*
D03*
Y598425D02*
D03*
Y755904D02*
D03*
Y749803D02*
D03*
Y677165D02*
D03*
X80709Y792323D02*
D03*
X31496Y846457D02*
D03*
X35433D02*
D03*
X59055D02*
D03*
X55118D02*
D03*
X59055Y850394D02*
D03*
X55118D02*
D03*
X35433D02*
D03*
X5906Y56102D02*
D03*
X22638D02*
D03*
X25591Y50197D02*
D03*
Y56102D02*
D03*
Y53150D02*
D03*
X5906Y50197D02*
D03*
X8858Y56102D02*
D03*
X5906Y53150D02*
D03*
X36417Y83661D02*
D03*
Y77756D02*
D03*
X4921Y117126D02*
D03*
X25591Y87598D02*
D03*
X22638Y92520D02*
D03*
X60039Y250984D02*
D03*
X81693Y272638D02*
D03*
X58071Y283661D02*
D03*
Y289567D02*
D03*
Y296457D02*
D03*
Y302362D02*
D03*
X81693Y258858D02*
D03*
Y264764D02*
D03*
X60039Y487205D02*
D03*
X81693Y508858D02*
D03*
X81496Y513779D02*
D03*
X58071Y532677D02*
D03*
Y538583D02*
D03*
Y519882D02*
D03*
Y525787D02*
D03*
X81693Y495079D02*
D03*
Y500984D02*
D03*
X60039Y408465D02*
D03*
X81693Y430118D02*
D03*
Y434842D02*
D03*
X58071Y441142D02*
D03*
Y459842D02*
D03*
Y453937D02*
D03*
Y447047D02*
D03*
X81693Y416339D02*
D03*
Y422244D02*
D03*
X60039Y644685D02*
D03*
X81693Y666339D02*
D03*
Y670276D02*
D03*
X58071Y683268D02*
D03*
Y690158D02*
D03*
Y696063D02*
D03*
Y677362D02*
D03*
X81693Y652559D02*
D03*
Y658465D02*
D03*
X60039Y565945D02*
D03*
X81693Y587598D02*
D03*
Y591535D02*
D03*
X58071Y604528D02*
D03*
Y611417D02*
D03*
Y617323D02*
D03*
Y598622D02*
D03*
X81693Y579724D02*
D03*
Y573819D02*
D03*
X59055Y172244D02*
D03*
X58071Y210827D02*
D03*
Y217717D02*
D03*
Y204921D02*
D03*
Y223622D02*
D03*
X81693Y180118D02*
D03*
Y186024D02*
D03*
X60039Y329724D02*
D03*
X81693Y351378D02*
D03*
Y355315D02*
D03*
X58071Y362402D02*
D03*
Y368307D02*
D03*
Y381102D02*
D03*
Y375197D02*
D03*
X81693Y337598D02*
D03*
Y343504D02*
D03*
X80709Y154528D02*
D03*
X74803D02*
D03*
X68898D02*
D03*
X62992D02*
D03*
X60039Y158465D02*
D03*
X77756D02*
D03*
X71850D02*
D03*
X65945D02*
D03*
X31496Y850394D02*
D03*
X69390Y47244D02*
D03*
X84646Y73819D02*
D03*
X16732Y89567D02*
D03*
X37402Y99410D02*
D03*
Y102362D02*
D03*
Y105315D02*
D03*
X79724Y69882D02*
D03*
X76772D02*
D03*
X73819D02*
D03*
X76772Y66929D02*
D03*
X70866Y56102D02*
D03*
X67913Y59055D02*
D03*
Y56102D02*
D03*
Y53150D02*
D03*
X70866D02*
D03*
X35433Y31496D02*
D03*
X59055Y28543D02*
D03*
X81693Y745079D02*
D03*
X70866Y59055D02*
D03*
X73819Y66929D02*
D03*
X34449Y105315D02*
D03*
X52165Y794291D02*
D03*
Y791339D02*
D03*
X60039Y723425D02*
D03*
X59055Y791339D02*
D03*
Y794291D02*
D03*
X34449Y102362D02*
D03*
Y99410D02*
D03*
Y92520D02*
D03*
X28543D02*
D03*
X13780Y89567D02*
D03*
X16732Y92520D02*
D03*
Y95472D02*
D03*
X31496Y113189D02*
D03*
Y117126D02*
D03*
X81693Y737205D02*
D03*
X58071Y774803D02*
D03*
Y768898D02*
D03*
Y762008D02*
D03*
Y756102D02*
D03*
M02*
