G04*
G04 #@! TF.GenerationSoftware,Altium Limited,Altium Designer,18.0.7 (293)*
G04*
G04 Layer_Color=32768*
%FSLAX25Y25*%
%MOIN*%
G70*
G01*
G75*
%ADD60C,0.00197*%
G36*
X75206Y21367D02*
X75916D01*
Y20765D01*
X75107D01*
X74845Y19213D01*
X75632D01*
Y18612D01*
X74747D01*
X74451Y16820D01*
X73861D01*
X74156Y18612D01*
X73249D01*
X72954Y16820D01*
X72375D01*
X72670Y18612D01*
X71817D01*
Y19213D01*
X72768D01*
X73031Y20765D01*
X72091D01*
Y21367D01*
X73129D01*
X73424Y23181D01*
X74014D01*
X73708Y21367D01*
X74615D01*
X74910Y23181D01*
X75501D01*
X75206Y21367D01*
D02*
G37*
G36*
X48318Y23257D02*
X48460Y23236D01*
X48613Y23203D01*
X48777Y23159D01*
X48952Y23104D01*
X49116Y23017D01*
X49137Y23006D01*
X49192Y22973D01*
X49269Y22919D01*
X49367Y22831D01*
X49476Y22733D01*
X49586Y22613D01*
X49684Y22481D01*
X49782Y22318D01*
X49793Y22296D01*
X49815Y22241D01*
X49859Y22143D01*
X49903Y22022D01*
X49946Y21880D01*
X49990Y21716D01*
X50012Y21531D01*
X50023Y21334D01*
X49214D01*
Y21345D01*
Y21356D01*
Y21388D01*
Y21432D01*
X49203Y21542D01*
X49181Y21673D01*
X49148Y21815D01*
X49094Y21968D01*
X49028Y22121D01*
X48930Y22252D01*
X48919Y22263D01*
X48875Y22307D01*
X48821Y22361D01*
X48722Y22416D01*
X48613Y22481D01*
X48471Y22525D01*
X48307Y22569D01*
X48121Y22580D01*
X48044D01*
X47957Y22569D01*
X47848Y22547D01*
X47717Y22514D01*
X47596Y22460D01*
X47476Y22394D01*
X47367Y22307D01*
X47356Y22296D01*
X47323Y22252D01*
X47279Y22197D01*
X47236Y22110D01*
X47192Y22001D01*
X47148Y21869D01*
X47115Y21716D01*
X47105Y21542D01*
Y21520D01*
Y21476D01*
X47115Y21399D01*
X47137Y21301D01*
X47170Y21203D01*
X47225Y21082D01*
X47290Y20973D01*
X47389Y20864D01*
X47400Y20853D01*
X47443Y20820D01*
X47509Y20765D01*
X47607Y20711D01*
X47728Y20634D01*
X47892Y20547D01*
X48066Y20470D01*
X48285Y20383D01*
X48296D01*
X48329Y20372D01*
X48372Y20350D01*
X48438Y20328D01*
X48515Y20295D01*
X48602Y20263D01*
X48799Y20175D01*
X49017Y20066D01*
X49236Y19935D01*
X49444Y19782D01*
X49542Y19705D01*
X49619Y19618D01*
X49640Y19596D01*
X49684Y19541D01*
X49750Y19432D01*
X49826Y19301D01*
X49892Y19126D01*
X49957Y18929D01*
X50001Y18689D01*
X50023Y18426D01*
Y18416D01*
Y18394D01*
Y18350D01*
X50012Y18295D01*
Y18230D01*
X50001Y18164D01*
X49957Y17989D01*
X49903Y17793D01*
X49815Y17585D01*
X49684Y17377D01*
X49608Y17279D01*
X49520Y17191D01*
X49509D01*
X49498Y17169D01*
X49465Y17148D01*
X49433Y17115D01*
X49378Y17082D01*
X49312Y17049D01*
X49159Y16962D01*
X48963Y16874D01*
X48733Y16809D01*
X48460Y16754D01*
X48154Y16732D01*
X48066D01*
X47957Y16743D01*
X47826Y16765D01*
X47662Y16787D01*
X47498Y16831D01*
X47312Y16896D01*
X47137Y16973D01*
X47115Y16984D01*
X47061Y17017D01*
X46973Y17071D01*
X46864Y17148D01*
X46755Y17246D01*
X46624Y17355D01*
X46503Y17497D01*
X46394Y17650D01*
X46383Y17672D01*
X46350Y17727D01*
X46307Y17814D01*
X46263Y17945D01*
X46208Y18088D01*
X46165Y18262D01*
X46132Y18448D01*
X46121Y18656D01*
X46930D01*
Y18645D01*
Y18634D01*
Y18601D01*
X46941Y18558D01*
X46951Y18448D01*
X46973Y18317D01*
X47006Y18175D01*
X47072Y18022D01*
X47148Y17869D01*
X47258Y17738D01*
X47269Y17727D01*
X47323Y17694D01*
X47389Y17639D01*
X47498Y17585D01*
X47618Y17519D01*
X47771Y17476D01*
X47957Y17432D01*
X48154Y17421D01*
X48241D01*
X48340Y17432D01*
X48460Y17454D01*
X48580Y17487D01*
X48722Y17530D01*
X48842Y17596D01*
X48952Y17683D01*
X48963Y17694D01*
X48995Y17738D01*
X49039Y17793D01*
X49083Y17880D01*
X49127Y17989D01*
X49170Y18110D01*
X49203Y18262D01*
X49214Y18426D01*
Y18437D01*
Y18448D01*
Y18503D01*
X49203Y18590D01*
X49181Y18689D01*
X49148Y18809D01*
X49105Y18929D01*
X49039Y19049D01*
X48952Y19148D01*
X48941Y19159D01*
X48897Y19192D01*
X48831Y19246D01*
X48744Y19312D01*
X48613Y19388D01*
X48449Y19476D01*
X48252Y19563D01*
X48023Y19651D01*
X48012D01*
X47990Y19661D01*
X47957Y19672D01*
X47913Y19694D01*
X47793Y19738D01*
X47640Y19804D01*
X47476Y19880D01*
X47312Y19968D01*
X47148Y20055D01*
X46995Y20153D01*
X46984Y20164D01*
X46941Y20197D01*
X46875Y20252D01*
X46799Y20328D01*
X46711Y20416D01*
X46624Y20514D01*
X46547Y20634D01*
X46471Y20754D01*
X46460Y20765D01*
X46449Y20820D01*
X46416Y20886D01*
X46383Y20984D01*
X46350Y21093D01*
X46328Y21225D01*
X46307Y21367D01*
X46296Y21531D01*
Y21542D01*
Y21563D01*
Y21607D01*
X46307Y21662D01*
Y21716D01*
X46318Y21793D01*
X46361Y21968D01*
X46416Y22164D01*
X46503Y22372D01*
X46635Y22580D01*
X46711Y22678D01*
X46799Y22777D01*
X46809Y22787D01*
X46820Y22798D01*
X46853Y22820D01*
X46886Y22853D01*
X47006Y22930D01*
X47148Y23028D01*
X47345Y23115D01*
X47564Y23192D01*
X47826Y23247D01*
X47968Y23268D01*
X48219D01*
X48318Y23257D01*
D02*
G37*
G36*
X19922Y23257D02*
X19998Y23247D01*
X20086Y23236D01*
X20293Y23203D01*
X20523Y23137D01*
X20763Y23039D01*
X20884Y22973D01*
X20993Y22897D01*
X21102Y22809D01*
X21201Y22711D01*
X21211Y22700D01*
X21222Y22689D01*
X21244Y22656D01*
X21277Y22613D01*
X21321Y22558D01*
X21364Y22481D01*
X21408Y22405D01*
X21463Y22307D01*
X21507Y22208D01*
X21550Y22088D01*
X21605Y21957D01*
X21649Y21815D01*
X21681Y21662D01*
X21714Y21498D01*
X21736Y21323D01*
X21747Y21137D01*
X20938D01*
Y21148D01*
Y21170D01*
X20927Y21214D01*
Y21268D01*
X20916Y21323D01*
X20905Y21399D01*
X20873Y21563D01*
X20840Y21749D01*
X20774Y21935D01*
X20698Y22099D01*
X20610Y22241D01*
X20599Y22252D01*
X20556Y22296D01*
X20490Y22350D01*
X20403Y22416D01*
X20282Y22470D01*
X20140Y22525D01*
X19965Y22569D01*
X19769Y22580D01*
X19703D01*
X19659Y22569D01*
X19550Y22558D01*
X19408Y22514D01*
X19244Y22460D01*
X19080Y22361D01*
X18916Y22241D01*
X18840Y22154D01*
X18774Y22066D01*
Y22055D01*
X18763Y22044D01*
X18741Y22012D01*
X18719Y21968D01*
X18698Y21913D01*
X18665Y21847D01*
X18632Y21771D01*
X18599Y21684D01*
X18566Y21585D01*
X18533Y21476D01*
X18501Y21356D01*
X18479Y21225D01*
X18457Y21082D01*
X18435Y20919D01*
X18424Y20580D01*
Y19410D01*
Y19399D01*
Y19366D01*
Y19323D01*
X18435Y19257D01*
Y19170D01*
X18446Y19082D01*
X18468Y18864D01*
X18501Y18623D01*
X18566Y18383D01*
X18643Y18142D01*
X18752Y17935D01*
X18763Y17913D01*
X18818Y17858D01*
X18894Y17771D01*
X18993Y17683D01*
X19124Y17585D01*
X19288Y17497D01*
X19484Y17443D01*
X19594Y17432D01*
X19703Y17421D01*
X19801D01*
X19911Y17443D01*
X20053Y17465D01*
X20195Y17497D01*
X20348Y17552D01*
X20479Y17628D01*
X20599Y17727D01*
X20610Y17738D01*
X20643Y17793D01*
X20687Y17869D01*
X20741Y17978D01*
X20807Y18131D01*
X20862Y18328D01*
X20884Y18437D01*
X20905Y18558D01*
X20927Y18700D01*
X20938Y18842D01*
X21747D01*
Y18831D01*
Y18798D01*
X21736Y18743D01*
Y18678D01*
X21714Y18590D01*
X21703Y18492D01*
X21659Y18262D01*
X21583Y18011D01*
X21485Y17749D01*
X21342Y17497D01*
X21266Y17377D01*
X21168Y17268D01*
X21157Y17257D01*
X21146Y17246D01*
X21113Y17224D01*
X21069Y17180D01*
X21015Y17148D01*
X20960Y17104D01*
X20884Y17049D01*
X20796Y17006D01*
X20698Y16951D01*
X20588Y16907D01*
X20337Y16820D01*
X20042Y16754D01*
X19878Y16743D01*
X19703Y16732D01*
X19616D01*
X19539Y16743D01*
X19463Y16754D01*
X19364Y16776D01*
X19157Y16820D01*
X18905Y16907D01*
X18785Y16962D01*
X18654Y17038D01*
X18523Y17115D01*
X18402Y17213D01*
X18282Y17323D01*
X18173Y17454D01*
X18162Y17465D01*
X18151Y17486D01*
X18118Y17530D01*
X18085Y17585D01*
X18042Y17661D01*
X17998Y17749D01*
X17943Y17858D01*
X17900Y17978D01*
X17845Y18110D01*
X17790Y18262D01*
X17747Y18426D01*
X17703Y18601D01*
X17670Y18787D01*
X17637Y18995D01*
X17626Y19203D01*
X17615Y19432D01*
Y20580D01*
Y20591D01*
Y20634D01*
Y20700D01*
X17626Y20787D01*
X17637Y20886D01*
X17648Y21017D01*
X17659Y21148D01*
X17692Y21290D01*
X17758Y21607D01*
X17856Y21935D01*
X17921Y22099D01*
X18009Y22252D01*
X18096Y22405D01*
X18195Y22547D01*
X18206Y22558D01*
X18217Y22580D01*
X18260Y22613D01*
X18304Y22656D01*
X18359Y22711D01*
X18435Y22777D01*
X18512Y22842D01*
X18610Y22908D01*
X18719Y22973D01*
X18829Y23039D01*
X18960Y23104D01*
X19102Y23159D01*
X19255Y23203D01*
X19419Y23236D01*
X19583Y23257D01*
X19769Y23268D01*
X19856D01*
X19922Y23257D01*
D02*
G37*
G36*
X41749Y19192D02*
Y16820D01*
X40951Y16820D01*
Y19192D01*
X39147Y23181D01*
X40055D01*
X41355Y19978D01*
X42656Y23181D01*
X43563D01*
X41749Y19192D01*
D02*
G37*
G36*
X32349Y16820D02*
X31628D01*
X30567Y21454D01*
X30502Y21826D01*
X30436Y21454D01*
X29332Y16820D01*
X28600D01*
X27343Y23181D01*
X28141D01*
X28928Y18820D01*
X29015Y18110D01*
X29147Y18733D01*
X30163Y23181D01*
X30830D01*
X31813Y18733D01*
X31945Y18088D01*
X32032Y18820D01*
X32819Y23181D01*
X33617D01*
X32349Y16820D01*
D02*
G37*
G36*
X68484Y17508D02*
X70976D01*
Y16820D01*
X67675D01*
Y23181D01*
X68484D01*
Y17508D01*
D02*
G37*
G36*
X66811Y16820D02*
X65992D01*
X65489Y18481D01*
X63336D01*
X62844Y16820D01*
X62024D01*
X64068Y23181D01*
X64757D01*
X66811Y16820D01*
D02*
G37*
G36*
X61117D02*
X60308D01*
Y23181D01*
X61117D01*
Y16820D01*
D02*
G37*
G36*
X57466Y23170D02*
X57543D01*
X57630Y23159D01*
X57838Y23115D01*
X58067Y23061D01*
X58297Y22973D01*
X58526Y22853D01*
X58625Y22777D01*
X58723Y22689D01*
X58734D01*
X58745Y22667D01*
X58767Y22635D01*
X58800Y22602D01*
X58832Y22547D01*
X58876Y22481D01*
X58920Y22416D01*
X58964Y22329D01*
X59007Y22230D01*
X59051Y22121D01*
X59127Y21880D01*
X59182Y21585D01*
X59204Y21432D01*
Y21257D01*
Y21246D01*
Y21236D01*
Y21203D01*
Y21159D01*
X59193Y21050D01*
X59171Y20908D01*
X59139Y20744D01*
X59095Y20580D01*
X59029Y20405D01*
X58942Y20230D01*
X58931Y20208D01*
X58898Y20153D01*
X58832Y20077D01*
X58756Y19978D01*
X58658Y19880D01*
X58526Y19760D01*
X58384Y19661D01*
X58209Y19563D01*
X59444Y16863D01*
Y16820D01*
X58581D01*
X57444Y19388D01*
X56330D01*
Y16820D01*
X55521D01*
Y23181D01*
X57401D01*
X57466Y23170D01*
D02*
G37*
G36*
X54449Y22492D02*
X51870D01*
Y20448D01*
X54122D01*
Y19760D01*
X51870D01*
Y17508D01*
X54493D01*
Y16820D01*
X51072D01*
Y23181D01*
X54449D01*
Y22492D01*
D02*
G37*
G36*
X38831Y16820D02*
X38011D01*
X37508Y18481D01*
X35355D01*
X34863Y16820D01*
X34043D01*
X36087Y23181D01*
X36776D01*
X38831Y16820D01*
D02*
G37*
G36*
X24785Y23170D02*
X24862D01*
X24938Y23159D01*
X25135Y23126D01*
X25343Y23083D01*
X25561Y23006D01*
X25769Y22897D01*
X25955Y22755D01*
X25977Y22733D01*
X26021Y22678D01*
X26097Y22580D01*
X26174Y22438D01*
X26250Y22252D01*
X26327Y22033D01*
X26370Y21771D01*
X26392Y21476D01*
Y21454D01*
Y21399D01*
X26381Y21323D01*
X26359Y21214D01*
X26338Y21093D01*
X26294Y20962D01*
X26239Y20820D01*
X26163Y20689D01*
X26152Y20678D01*
X26119Y20634D01*
X26075Y20569D01*
X26010Y20492D01*
X25922Y20416D01*
X25824Y20328D01*
X25704Y20241D01*
X25572Y20164D01*
X25594Y20153D01*
X25649Y20142D01*
X25725Y20099D01*
X25824Y20044D01*
X25933Y19978D01*
X26042Y19880D01*
X26163Y19771D01*
X26261Y19629D01*
X26272Y19607D01*
X26305Y19552D01*
X26338Y19476D01*
X26392Y19355D01*
X26436Y19213D01*
X26469Y19038D01*
X26502Y18853D01*
X26512Y18645D01*
Y18634D01*
Y18612D01*
Y18568D01*
X26502Y18503D01*
Y18437D01*
X26491Y18350D01*
X26458Y18153D01*
X26403Y17945D01*
X26316Y17716D01*
X26195Y17497D01*
X26130Y17399D01*
X26042Y17301D01*
X26021Y17279D01*
X25955Y17224D01*
X25846Y17148D01*
X25704Y17060D01*
X25507Y16973D01*
X25277Y16896D01*
X25015Y16842D01*
X24862Y16831D01*
X24709Y16820D01*
X22829D01*
Y23181D01*
X24731D01*
X24785Y23170D01*
D02*
G37*
G36*
X14970D02*
X15047D01*
X15134Y23148D01*
X15331Y23115D01*
X15561Y23050D01*
X15790Y22951D01*
X15899Y22897D01*
X16009Y22820D01*
X16118Y22744D01*
X16216Y22645D01*
X16227Y22635D01*
X16238Y22624D01*
X16260Y22591D01*
X16293Y22547D01*
X16337Y22492D01*
X16380Y22427D01*
X16479Y22274D01*
X16566Y22066D01*
X16654Y21826D01*
X16708Y21552D01*
X16730Y21399D01*
Y21235D01*
Y21225D01*
Y21192D01*
Y21148D01*
X16719Y21082D01*
Y21006D01*
X16708Y20919D01*
X16665Y20711D01*
X16610Y20481D01*
X16522Y20252D01*
X16402Y20022D01*
X16326Y19913D01*
X16238Y19815D01*
X16216Y19793D01*
X16184Y19771D01*
X16151Y19738D01*
X16041Y19661D01*
X15889Y19563D01*
X15692Y19476D01*
X15462Y19399D01*
X15189Y19334D01*
X15047Y19323D01*
X14883Y19312D01*
X13604D01*
Y16820D01*
X12795D01*
Y23181D01*
X14916D01*
X14970Y23170D01*
D02*
G37*
%LPC*%
G36*
X74517Y20765D02*
X73610D01*
X73358Y19213D01*
X74255D01*
X74517Y20765D01*
D02*
G37*
G36*
X64418Y22055D02*
X63543Y19170D01*
X65281D01*
X64418Y22055D01*
D02*
G37*
G36*
X57291Y22492D02*
X56330D01*
Y20077D01*
X57390D01*
X57477Y20099D01*
X57586Y20121D01*
X57718Y20153D01*
X57849Y20208D01*
X57980Y20285D01*
X58100Y20394D01*
X58111Y20405D01*
X58144Y20448D01*
X58198Y20525D01*
X58253Y20623D01*
X58308Y20754D01*
X58363Y20897D01*
X58395Y21071D01*
X58406Y21257D01*
Y21268D01*
Y21312D01*
X58395Y21367D01*
X58384Y21454D01*
X58373Y21542D01*
X58351Y21651D01*
X58308Y21760D01*
X58264Y21880D01*
X58209Y21990D01*
X58133Y22099D01*
X58046Y22208D01*
X57936Y22296D01*
X57805Y22383D01*
X57663Y22438D01*
X57488Y22481D01*
X57291Y22492D01*
D02*
G37*
G36*
X36437Y22055D02*
X35563Y19170D01*
X37300D01*
X36437Y22055D01*
D02*
G37*
G36*
X24643Y22492D02*
X23627D01*
Y20470D01*
X24720D01*
X24796Y20481D01*
X24895Y20503D01*
X25004Y20536D01*
X25113Y20591D01*
X25223Y20656D01*
X25321Y20744D01*
X25332Y20754D01*
X25365Y20798D01*
X25409Y20853D01*
X25452Y20940D01*
X25496Y21050D01*
X25540Y21181D01*
X25572Y21323D01*
X25583Y21487D01*
Y21498D01*
Y21509D01*
Y21574D01*
X25572Y21662D01*
X25551Y21782D01*
X25529Y21902D01*
X25485Y22033D01*
X25430Y22154D01*
X25354Y22252D01*
X25343Y22263D01*
X25310Y22285D01*
X25256Y22328D01*
X25179Y22372D01*
X25081Y22416D01*
X24960Y22460D01*
X24807Y22481D01*
X24643Y22492D01*
D02*
G37*
G36*
X24742Y19793D02*
X23627D01*
Y17508D01*
X24796D01*
X24884Y17519D01*
X24982Y17541D01*
X25102Y17585D01*
X25223Y17628D01*
X25332Y17705D01*
X25441Y17803D01*
X25452Y17814D01*
X25485Y17858D01*
X25529Y17924D01*
X25583Y18022D01*
X25627Y18142D01*
X25671Y18284D01*
X25704Y18448D01*
X25714Y18645D01*
Y18656D01*
Y18700D01*
X25704Y18754D01*
Y18820D01*
X25682Y18907D01*
X25660Y19006D01*
X25638Y19115D01*
X25594Y19224D01*
X25540Y19323D01*
X25474Y19432D01*
X25398Y19530D01*
X25299Y19618D01*
X25190Y19683D01*
X25059Y19749D01*
X24917Y19782D01*
X24742Y19793D01*
D02*
G37*
G36*
X14828Y22492D02*
X13604D01*
Y20000D01*
X14916D01*
X15014Y20022D01*
X15134Y20044D01*
X15266Y20077D01*
X15397Y20132D01*
X15528Y20208D01*
X15648Y20317D01*
X15659Y20328D01*
X15692Y20372D01*
X15735Y20448D01*
X15790Y20547D01*
X15845Y20678D01*
X15889Y20831D01*
X15921Y21017D01*
X15932Y21225D01*
Y21235D01*
Y21246D01*
Y21279D01*
Y21323D01*
X15921Y21421D01*
X15899Y21552D01*
X15856Y21695D01*
X15812Y21847D01*
X15735Y22001D01*
X15637Y22143D01*
X15626Y22154D01*
X15582Y22197D01*
X15517Y22252D01*
X15429Y22318D01*
X15309Y22383D01*
X15167Y22438D01*
X15014Y22481D01*
X14828Y22492D01*
D02*
G37*
%LPD*%
D60*
X11811Y14764D02*
Y27559D01*
X76772D01*
Y14764D02*
Y27559D01*
X11811Y14764D02*
X76772D01*
M02*
