M48
;Layer_Color=9474304
;FILE_FORMAT=2:5
INCH,TZ
;TYPE=PLATED
T1F00S00C0.01181
T2F00S00C0.03937
T3F00S00C0.04724
T4F00S00C0.07874
T5F00S00C0.10236
T6F00S00C0.12205
;TYPE=NON_PLATED
T7F00S00C0.11811
%
T01
X34449Y26575
X59055Y28543
X69390Y47244
X69882Y53150
Y56102
X66929
Y53150
X66929Y59055
X69882
X73819Y67913
Y70866
X76772
Y67913
X79724Y67913
X79724Y70866
X84646Y73819
X73819Y86614
X36417Y83661
Y77756
X34449Y73819
Y92520
X28543
X22638
X16732
Y95472
Y89567
X13780
X25591Y87598
X34449Y99410
X37402
Y102362
X34449
Y105315
X37402
X31496Y113189
Y117126
X4921
X10827Y69882
X11811Y59055
X8858
Y56102
X11811
X19685
X22638
Y59055
X19685
X62992Y154528
X68898
X74803
X80709
X77756Y158465
X71850
X65945
X60039
X59055Y172244
X81693Y180118
Y186024
Y194095
Y198622
Y204724
X58071Y204921
Y210827
Y217717
Y223622
X60039Y250984
X81693Y258858
Y264764
Y272638
Y277362
X81693Y283465
X58071Y283661
Y289567
Y296457
Y302362
X60039Y329724
X81693Y337598
Y343504
Y351378
Y355315
Y362205
X58071Y362402
Y368307
Y375197
Y381102
X60039Y408465
X81693Y416339
Y422244
Y430118
Y434842
X81693Y440945
X58071Y441142
Y447047
Y453937
Y459842
X60039Y487205
X81693Y495079
Y500984
Y508858
X81496Y513779
X81693Y519685
X58071Y519882
Y525787
Y532677
Y538583
X60039Y565945
X81693Y573819
Y579724
Y587598
Y591535
Y598425
X58071Y598622
Y604528
Y611417
Y617323
X60039Y644685
X81693Y652559
Y658465
Y666339
Y670276
Y677165
X58071Y677362
Y683268
Y690158
Y696063
X60039Y723425
X81693Y731299
Y737205
Y745079
Y749803
Y755904
X58071Y756102
Y762008
Y768898
Y774803
X59055Y791339
Y794291
X52165
Y791339
X80709Y792323
X59055Y846457
X55118
Y850394
X59055
X35433
Y846457
X31496
Y850394
T02
X6890Y14567
X81693
X17717Y127953
Y147638
T03
X19094Y32874
X12402Y39764
X69488
X76181Y32874
X45276Y118110
X7874Y127953
Y147638
T04
X37402Y167323
Y226378
Y246063
Y305118
Y324803
Y383858
Y403543
Y462598
Y482283
Y541339
Y561024
Y620079
Y639764
Y698819
Y718504
Y777559
T05
X19685Y236221
Y314961
Y393701
Y472441
Y551181
Y629921
Y708661
Y787402
X15748Y826772
X74803
T06
X45276Y137795
T07
X45276Y826772
M30
