G04*
G04 #@! TF.GenerationSoftware,Altium Limited,Altium Designer,18.0.7 (293)*
G04*
G04 Layer_Color=16711935*
%FSLAX25Y25*%
%MOIN*%
G70*
G01*
G75*
%ADD41C,0.19685*%
%ADD42C,0.15748*%
%ADD43C,0.07874*%
%ADD44C,0.06299*%
%ADD45C,0.05512*%
%ADD46C,0.05906*%
%ADD56C,0.13780*%
G36*
X78536Y147453D02*
Y146330D01*
X66980Y143473D01*
X65602Y143193D01*
X66980Y142912D01*
X78536Y140106D01*
Y139009D01*
X63689Y135846D01*
Y137045D01*
X74506Y139239D01*
X76725Y139621D01*
X74608Y140055D01*
X63689Y142683D01*
Y143728D01*
X74608Y146381D01*
X76725Y146841D01*
X74506Y147198D01*
X63689Y149392D01*
Y150591D01*
X78536Y147453D01*
D02*
G37*
G36*
Y125667D02*
X77465D01*
Y132300D01*
X71419D01*
Y126535D01*
X70347D01*
Y132300D01*
X64786D01*
Y125718D01*
X63689D01*
Y133473D01*
X78536D01*
Y125667D01*
D02*
G37*
G36*
X74812Y123856D02*
X75245Y123779D01*
X75653Y123678D01*
X76011Y123575D01*
X76291Y123473D01*
X76521Y123371D01*
X76648Y123295D01*
X76699Y123269D01*
X77056Y123014D01*
X77363Y122759D01*
X77618Y122478D01*
X77847Y122198D01*
X78000Y121968D01*
X78128Y121764D01*
X78205Y121637D01*
X78230Y121586D01*
X78408Y121177D01*
X78536Y120769D01*
X78613Y120361D01*
X78664Y120004D01*
X78715Y119672D01*
X78740Y119443D01*
Y119213D01*
X78689Y118525D01*
X78587Y117912D01*
X78408Y117376D01*
X78205Y116917D01*
X78026Y116586D01*
X77847Y116305D01*
X77796Y116229D01*
X77745Y116152D01*
X77694Y116127D01*
Y116101D01*
X77490Y115897D01*
X77261Y115718D01*
X76801Y115412D01*
X76342Y115208D01*
X75883Y115081D01*
X75500Y114979D01*
X75322Y114953D01*
X75169D01*
X75067Y114928D01*
X74965D01*
X74914D01*
X74888D01*
X74480Y114953D01*
X74123Y114979D01*
X73817Y115055D01*
X73536Y115132D01*
X73307Y115208D01*
X73128Y115259D01*
X73026Y115310D01*
X73000Y115336D01*
X72694Y115514D01*
X72439Y115718D01*
X72210Y115922D01*
X71980Y116127D01*
X71827Y116305D01*
X71699Y116458D01*
X71623Y116560D01*
X71597Y116611D01*
X71368Y116968D01*
X71164Y117351D01*
X70960Y117785D01*
X70781Y118193D01*
X70628Y118550D01*
X70526Y118856D01*
X70475Y118984D01*
X70449Y119060D01*
X70424Y119111D01*
Y119137D01*
X70220Y119723D01*
X69990Y120208D01*
X69761Y120642D01*
X69582Y120974D01*
X69403Y121229D01*
X69276Y121407D01*
X69174Y121535D01*
X69148Y121560D01*
X68868Y121815D01*
X68562Y121994D01*
X68256Y122147D01*
X67949Y122223D01*
X67694Y122274D01*
X67490Y122300D01*
X67363Y122326D01*
X67312D01*
X66878Y122300D01*
X66495Y122198D01*
X66164Y122070D01*
X65883Y121917D01*
X65654Y121764D01*
X65475Y121637D01*
X65373Y121535D01*
X65347Y121509D01*
X65092Y121177D01*
X64914Y120820D01*
X64761Y120438D01*
X64684Y120081D01*
X64633Y119774D01*
X64582Y119519D01*
Y119290D01*
X64633Y118780D01*
X64735Y118320D01*
X64888Y117912D01*
X65041Y117606D01*
X65220Y117325D01*
X65373Y117147D01*
X65475Y117019D01*
X65526Y116994D01*
X65883Y116713D01*
X66291Y116509D01*
X66699Y116356D01*
X67082Y116254D01*
X67414Y116203D01*
X67694Y116152D01*
X67796D01*
X67873D01*
X67924D01*
X67949D01*
Y114979D01*
X67592Y115004D01*
X67235Y115030D01*
X66623Y115157D01*
X66062Y115361D01*
X65602Y115591D01*
X65245Y115820D01*
X65092Y115922D01*
X64965Y115999D01*
X64863Y116101D01*
X64786Y116152D01*
X64761Y116178D01*
X64735Y116203D01*
X64506Y116433D01*
X64327Y116688D01*
X64148Y116943D01*
X64021Y117198D01*
X63791Y117708D01*
X63638Y118193D01*
X63562Y118626D01*
X63511Y118805D01*
Y118984D01*
X63485Y119111D01*
Y119290D01*
X63536Y119953D01*
X63664Y120540D01*
X63817Y121075D01*
X64021Y121509D01*
X64225Y121866D01*
X64378Y122121D01*
X64455Y122198D01*
X64506Y122274D01*
X64531Y122300D01*
X64557Y122326D01*
X64761Y122530D01*
X64990Y122708D01*
X65450Y123014D01*
X65909Y123218D01*
X66342Y123346D01*
X66751Y123448D01*
X66904Y123473D01*
X67057D01*
X67184Y123499D01*
X67261D01*
X67312D01*
X67337D01*
X67643Y123473D01*
X67949Y123448D01*
X68511Y123320D01*
X68970Y123116D01*
X69378Y122887D01*
X69684Y122683D01*
X69914Y122478D01*
X70067Y122351D01*
X70092Y122300D01*
X70118D01*
X70398Y121917D01*
X70679Y121458D01*
X70934Y120999D01*
X71138Y120514D01*
X71317Y120106D01*
X71393Y119928D01*
X71444Y119749D01*
X71495Y119621D01*
X71546Y119519D01*
X71572Y119468D01*
Y119443D01*
X71699Y119086D01*
X71827Y118780D01*
X71955Y118473D01*
X72057Y118218D01*
X72184Y117963D01*
X72286Y117759D01*
X72516Y117402D01*
X72694Y117147D01*
X72822Y116943D01*
X72924Y116841D01*
X72949Y116815D01*
X73230Y116586D01*
X73562Y116407D01*
X73893Y116280D01*
X74199Y116178D01*
X74480Y116127D01*
X74710Y116101D01*
X74863D01*
X74888D01*
X74914D01*
X75347Y116127D01*
X75756Y116229D01*
X76087Y116382D01*
X76393Y116535D01*
X76623Y116688D01*
X76801Y116841D01*
X76903Y116943D01*
X76929Y116968D01*
X77184Y117300D01*
X77363Y117683D01*
X77490Y118040D01*
X77567Y118397D01*
X77618Y118729D01*
X77669Y118984D01*
Y119213D01*
X77618Y119774D01*
X77516Y120285D01*
X77388Y120718D01*
X77210Y121101D01*
X77056Y121382D01*
X76903Y121586D01*
X76801Y121713D01*
X76776Y121764D01*
X76419Y122070D01*
X76011Y122300D01*
X75602Y122478D01*
X75194Y122581D01*
X74837Y122657D01*
X74556Y122683D01*
X74454Y122708D01*
X74378D01*
X74327D01*
X74301D01*
Y123882D01*
X74812Y123856D01*
D02*
G37*
G36*
X78026Y112530D02*
X78230Y112428D01*
X78332Y112351D01*
X78383Y112326D01*
X78511Y112121D01*
X78587Y111917D01*
X78613Y111764D01*
Y111688D01*
X78587Y111407D01*
X78485Y111203D01*
X78408Y111101D01*
X78383Y111050D01*
X78205Y110923D01*
X78000Y110846D01*
X77847Y110820D01*
X77822D01*
X77796D01*
X77541Y110846D01*
X77363Y110923D01*
X77235Y111024D01*
X77184Y111050D01*
X77031Y111254D01*
X76955Y111458D01*
X76929Y111611D01*
Y111688D01*
X76980Y111968D01*
X77056Y112147D01*
X77133Y112275D01*
X77184Y112326D01*
X77388Y112453D01*
X77592Y112530D01*
X77745Y112555D01*
X77771D01*
X77796D01*
X78026Y112530D01*
D02*
G37*
G36*
X78536Y107377D02*
X74378Y106101D01*
Y100540D01*
X78536Y99264D01*
Y98040D01*
X63689Y102785D01*
Y103856D01*
X78536Y108601D01*
Y107377D01*
D02*
G37*
G36*
Y94673D02*
X72082D01*
X65705Y94775D01*
X78536Y90259D01*
Y89341D01*
X65628Y84800D01*
X72108Y84902D01*
X78536D01*
Y83729D01*
X63689D01*
Y85285D01*
X76776Y89800D01*
X63689Y94290D01*
Y95846D01*
X78536D01*
Y94673D01*
D02*
G37*
%LPC*%
G36*
X73307Y105770D02*
X65347Y103321D01*
X73307Y100872D01*
Y105770D01*
D02*
G37*
%LPD*%
D41*
X15748Y826772D02*
D03*
X74803D02*
D03*
X19685Y393701D02*
D03*
Y787402D02*
D03*
Y708661D02*
D03*
Y629921D02*
D03*
Y551181D02*
D03*
Y472441D02*
D03*
Y314961D02*
D03*
Y236221D02*
D03*
D42*
X37402Y718504D02*
D03*
Y777559D02*
D03*
Y698819D02*
D03*
Y639764D02*
D03*
Y561024D02*
D03*
Y620079D02*
D03*
Y541339D02*
D03*
Y482283D02*
D03*
Y403543D02*
D03*
Y462598D02*
D03*
Y383858D02*
D03*
Y324803D02*
D03*
Y246063D02*
D03*
Y305118D02*
D03*
Y226378D02*
D03*
Y167323D02*
D03*
D43*
X17717Y147638D02*
D03*
Y127953D02*
D03*
X7874Y147638D02*
D03*
Y127953D02*
D03*
D44*
X76181Y32874D02*
D03*
X69488Y39764D02*
D03*
X19094Y32874D02*
D03*
X12402Y39764D02*
D03*
D45*
X81693Y14567D02*
D03*
X6890D02*
D03*
D46*
X45276Y118110D02*
D03*
D56*
Y137795D02*
D03*
M02*
