G04*
G04 #@! TF.GenerationSoftware,Altium Limited,Altium Designer,18.0.7 (293)*
G04*
G04 Layer_Color=16711935*
%FSLAX25Y25*%
%MOIN*%
G70*
G01*
G75*
%ADD10C,0.01000*%
%ADD14C,0.00394*%
%ADD62C,0.12598*%
%ADD63R,0.02436X0.11496*%
D10*
X23622Y748032D02*
G03*
X23622Y748032I-39370J0D01*
G01*
Y669291D02*
G03*
X23622Y669291I-39370J0D01*
G01*
Y590551D02*
G03*
X23622Y590551I-39370J0D01*
G01*
Y511811D02*
G03*
X23622Y511811I-39370J0D01*
G01*
Y433071D02*
G03*
X23622Y433071I-39370J0D01*
G01*
Y354331D02*
G03*
X23622Y354331I-39370J0D01*
G01*
Y275591D02*
G03*
X23622Y275591I-39370J0D01*
G01*
Y196850D02*
G03*
X23622Y196850I-39370J0D01*
G01*
D14*
X67913Y86024D02*
G03*
X67913Y86024I-1969J0D01*
G01*
X71260Y749508D02*
X78347D01*
X71260Y754823D02*
X78347D01*
Y749508D02*
Y754823D01*
X71260Y749508D02*
Y754823D01*
Y670768D02*
Y676083D01*
X78347Y670768D02*
Y676083D01*
X71260D02*
X78347D01*
X71260Y670768D02*
X78347D01*
X71260Y592028D02*
X78347D01*
X71260Y597342D02*
X78347D01*
Y592028D02*
Y597342D01*
X71260Y592028D02*
Y597342D01*
Y513287D02*
Y518602D01*
X78347Y513287D02*
Y518602D01*
X71260D02*
X78347D01*
X71260Y513287D02*
X78347D01*
X71260Y434547D02*
X78347D01*
X71260Y439862D02*
X78347D01*
Y434547D02*
Y439862D01*
X71260Y434547D02*
Y439862D01*
Y355807D02*
Y361122D01*
X78347Y355807D02*
Y361122D01*
X71260D02*
X78347D01*
X71260Y355807D02*
X78347D01*
X71260Y277067D02*
X78347D01*
X71260Y282382D02*
X78347D01*
Y277067D02*
Y282382D01*
X71260Y277067D02*
Y282382D01*
Y198327D02*
Y203642D01*
X78347Y198327D02*
Y203642D01*
X71260D02*
X78347D01*
X71260Y198327D02*
X78347D01*
X71260Y769193D02*
X78347D01*
X71260Y774508D02*
X78347D01*
Y769193D02*
Y774508D01*
X71260Y769193D02*
Y774508D01*
Y690453D02*
Y695768D01*
X78347Y690453D02*
Y695768D01*
X71260D02*
X78347D01*
X71260Y690453D02*
X78347D01*
X71260Y611713D02*
X78347D01*
X71260Y617028D02*
X78347D01*
Y611713D02*
Y617028D01*
X71260Y611713D02*
Y617028D01*
Y532972D02*
Y538287D01*
X78347Y532972D02*
Y538287D01*
X71260D02*
X78347D01*
X71260Y532972D02*
X78347D01*
X71260Y454232D02*
X78347D01*
X71260Y459547D02*
X78347D01*
Y454232D02*
Y459547D01*
X71260Y454232D02*
Y459547D01*
Y375492D02*
Y380807D01*
X78347Y375492D02*
Y380807D01*
X71260D02*
X78347D01*
X71260Y375492D02*
X78347D01*
X71260Y296752D02*
X78347D01*
X71260Y302067D02*
X78347D01*
Y296752D02*
Y302067D01*
X71260Y296752D02*
Y302067D01*
Y218012D02*
Y223327D01*
X78347Y218012D02*
Y223327D01*
X71260D02*
X78347D01*
X71260Y218012D02*
X78347D01*
X57480Y769193D02*
X64567D01*
X57480Y774508D02*
X64567D01*
Y769193D02*
Y774508D01*
X57480Y769193D02*
Y774508D01*
Y690453D02*
Y695768D01*
X64567Y690453D02*
Y695768D01*
X57480D02*
X64567D01*
X57480Y690453D02*
X64567D01*
X57480Y611713D02*
X64567D01*
X57480Y617028D02*
X64567D01*
Y611713D02*
Y617028D01*
X57480Y611713D02*
Y617028D01*
Y532972D02*
Y538287D01*
X64567Y532972D02*
Y538287D01*
X57480D02*
X64567D01*
X57480Y532972D02*
X64567D01*
X57480Y454232D02*
X64567D01*
X57480Y459547D02*
X64567D01*
Y454232D02*
Y459547D01*
X57480Y454232D02*
Y459547D01*
Y375492D02*
Y380807D01*
X64567Y375492D02*
Y380807D01*
X57480D02*
X64567D01*
X57480Y375492D02*
X64567D01*
X57480Y296752D02*
X64567D01*
X57480Y302067D02*
X64567D01*
Y296752D02*
Y302067D01*
X57480Y296752D02*
Y302067D01*
Y218012D02*
Y223327D01*
X64567Y218012D02*
Y223327D01*
X57480D02*
X64567D01*
X57480Y218012D02*
X64567D01*
X71260Y776083D02*
X78347D01*
X71260Y781398D02*
X78347D01*
Y776083D02*
Y781398D01*
X71260Y776083D02*
Y781398D01*
Y697342D02*
Y702658D01*
X78347Y697342D02*
Y702658D01*
X71260D02*
X78347D01*
X71260Y697342D02*
X78347D01*
X71260Y618602D02*
X78347D01*
X71260Y623917D02*
X78347D01*
Y618602D02*
Y623917D01*
X71260Y618602D02*
Y623917D01*
Y539862D02*
Y545177D01*
X78347Y539862D02*
Y545177D01*
X71260D02*
X78347D01*
X71260Y539862D02*
X78347D01*
X71260Y461122D02*
X78347D01*
X71260Y466437D02*
X78347D01*
Y461122D02*
Y466437D01*
X71260Y461122D02*
Y466437D01*
Y382382D02*
Y387697D01*
X78347Y382382D02*
Y387697D01*
X71260D02*
X78347D01*
X71260Y382382D02*
X78347D01*
X71260Y303642D02*
X78347D01*
X71260Y308957D02*
X78347D01*
Y303642D02*
Y308957D01*
X71260Y303642D02*
Y308957D01*
Y224902D02*
Y230217D01*
X78347Y224902D02*
Y230217D01*
X71260D02*
X78347D01*
X71260Y224902D02*
X78347D01*
X57480Y776083D02*
X64567D01*
X57480Y781398D02*
X64567D01*
Y776083D02*
Y781398D01*
X57480Y776083D02*
Y781398D01*
Y697342D02*
Y702658D01*
X64567Y697342D02*
Y702658D01*
X57480D02*
X64567D01*
X57480Y697342D02*
X64567D01*
X57480Y618602D02*
X64567D01*
X57480Y623917D02*
X64567D01*
Y618602D02*
Y623917D01*
X57480Y618602D02*
Y623917D01*
Y539862D02*
Y545177D01*
X64567Y539862D02*
Y545177D01*
X57480D02*
X64567D01*
X57480Y539862D02*
X64567D01*
X57480Y461122D02*
X64567D01*
X57480Y466437D02*
X64567D01*
Y461122D02*
Y466437D01*
X57480Y461122D02*
Y466437D01*
Y382382D02*
Y387697D01*
X64567Y382382D02*
Y387697D01*
X57480D02*
X64567D01*
X57480Y382382D02*
X64567D01*
X57480Y303642D02*
X64567D01*
X57480Y308957D02*
X64567D01*
Y303642D02*
Y308957D01*
X57480Y303642D02*
Y308957D01*
Y224902D02*
Y230217D01*
X64567Y224902D02*
Y230217D01*
X57480D02*
X64567D01*
X57480Y224902D02*
X64567D01*
X10138Y112598D02*
Y119685D01*
X15453Y112598D02*
Y119685D01*
X10138Y112598D02*
X15453D01*
X10138Y119685D02*
X15453D01*
X2264D02*
X7579D01*
X2264Y112598D02*
X7579D01*
Y119685D01*
X2264Y112598D02*
Y119685D01*
X56496Y789665D02*
X63583D01*
X56496Y794980D02*
X63583D01*
Y789665D02*
Y794980D01*
X56496Y789665D02*
Y794980D01*
X36713Y751575D02*
X42028D01*
X36713Y744488D02*
X42028D01*
Y751575D01*
X36713Y744488D02*
Y751575D01*
Y665748D02*
Y672835D01*
X42028Y665748D02*
Y672835D01*
X36713Y665748D02*
X42028D01*
X36713Y672835D02*
X42028D01*
X36713Y594095D02*
X42028D01*
X36713Y587008D02*
X42028D01*
Y594095D01*
X36713Y587008D02*
Y594095D01*
Y508268D02*
Y515354D01*
X42028Y508268D02*
Y515354D01*
X36713Y508268D02*
X42028D01*
X36713Y515354D02*
X42028D01*
X36713Y436614D02*
X42028D01*
X36713Y429528D02*
X42028D01*
Y436614D01*
X36713Y429528D02*
Y436614D01*
Y350787D02*
Y357874D01*
X42028Y350787D02*
Y357874D01*
X36713Y350787D02*
X42028D01*
X36713Y357874D02*
X42028D01*
X36713Y279134D02*
X42028D01*
X36713Y272047D02*
X42028D01*
Y279134D01*
X36713Y272047D02*
Y279134D01*
Y193307D02*
Y200394D01*
X42028Y193307D02*
Y200394D01*
X36713Y193307D02*
X42028D01*
X36713Y200394D02*
X42028D01*
X22638Y46457D02*
Y53937D01*
X8858Y46457D02*
Y53937D01*
Y46457D02*
X22638D01*
X8858Y53937D02*
X22638D01*
X7087Y89567D02*
X12598D01*
X7087Y77756D02*
X12598D01*
X7087D02*
Y89567D01*
X12598Y77756D02*
Y89567D01*
X23819Y89567D02*
X29331D01*
X23819Y77756D02*
X29331D01*
X23819D02*
Y89567D01*
X29331Y77756D02*
Y89567D01*
X14961Y95866D02*
Y102953D01*
X2756Y95866D02*
Y102953D01*
X14961D01*
X2756Y95866D02*
X14961D01*
X19488Y109409D02*
Y120905D01*
X37598Y109409D02*
Y120905D01*
X19488D02*
X37598D01*
X19488Y109409D02*
X37598D01*
X17717Y92913D02*
Y100000D01*
X21654Y92913D02*
Y100000D01*
X17717Y92913D02*
X21654D01*
X17717Y100000D02*
X21654D01*
X23622Y92913D02*
Y100000D01*
X27559Y92913D02*
Y100000D01*
X23622Y92913D02*
X27559D01*
X23622Y100000D02*
X27559D01*
X29528Y92913D02*
Y100000D01*
X33465Y92913D02*
Y100000D01*
X29528Y92913D02*
X33465D01*
X29528Y100000D02*
X33465D01*
X81693Y57972D02*
Y65059D01*
X77756Y57972D02*
Y65059D01*
X81693D01*
X77756Y57972D02*
X81693D01*
X75787D02*
Y65059D01*
X71850Y57972D02*
Y65059D01*
X75787D01*
X71850Y57972D02*
X75787D01*
X61811Y186811D02*
X74016D01*
X61811Y179724D02*
X74016D01*
Y186811D01*
X61811Y179724D02*
Y186811D01*
Y265551D02*
X74016D01*
X61811Y258465D02*
X74016D01*
Y265551D01*
X61811Y258465D02*
Y265551D01*
Y344291D02*
X74016D01*
X61811Y337205D02*
X74016D01*
Y344291D01*
X61811Y337205D02*
Y344291D01*
Y423032D02*
X74016D01*
X61811Y415945D02*
X74016D01*
Y423032D01*
X61811Y415945D02*
Y423032D01*
Y501772D02*
X74016D01*
X61811Y494685D02*
X74016D01*
Y501772D01*
X61811Y494685D02*
Y501772D01*
Y580512D02*
X74016D01*
X61811Y573425D02*
X74016D01*
Y580512D01*
X61811Y573425D02*
Y580512D01*
Y659252D02*
X74016D01*
X61811Y652165D02*
X74016D01*
Y659252D01*
X61811Y652165D02*
Y659252D01*
Y737992D02*
X74016D01*
X61811Y730905D02*
X74016D01*
Y737992D01*
X61811Y730905D02*
Y737992D01*
X75787Y179724D02*
X79724D01*
X75787Y186811D02*
X79724D01*
X75787Y179724D02*
Y186811D01*
X79724Y179724D02*
Y186811D01*
X75787Y258465D02*
X79724D01*
X75787Y265551D02*
X79724D01*
X75787Y258465D02*
Y265551D01*
X79724Y258465D02*
Y265551D01*
X75787Y337205D02*
X79724D01*
X75787Y344291D02*
X79724D01*
X75787Y337205D02*
Y344291D01*
X79724Y337205D02*
Y344291D01*
X75787Y415945D02*
X79724D01*
X75787Y423032D02*
X79724D01*
X75787Y415945D02*
Y423032D01*
X79724Y415945D02*
Y423032D01*
X75787Y494685D02*
X79724D01*
X75787Y501772D02*
X79724D01*
X75787Y494685D02*
Y501772D01*
X79724Y494685D02*
Y501772D01*
X75787Y573425D02*
X79724D01*
X75787Y580512D02*
X79724D01*
X75787Y573425D02*
Y580512D01*
X79724Y573425D02*
Y580512D01*
X75787Y652165D02*
X79724D01*
X75787Y659252D02*
X79724D01*
X75787Y652165D02*
Y659252D01*
X79724Y652165D02*
Y659252D01*
X75787Y730905D02*
X79724D01*
X75787Y737992D02*
X79724D01*
X75787Y730905D02*
Y737992D01*
X79724Y730905D02*
Y737992D01*
X64567Y205906D02*
Y209842D01*
X57480Y205906D02*
Y209842D01*
Y205906D02*
X64567D01*
X57480Y209842D02*
X64567D01*
Y211811D02*
Y215748D01*
X57480Y211811D02*
Y215748D01*
Y211811D02*
X64567D01*
X57480Y215748D02*
X64567D01*
X79626Y165846D02*
Y172736D01*
X75886Y165846D02*
Y172736D01*
X79626D01*
X75886Y165846D02*
X79626D01*
X64567Y284646D02*
Y288583D01*
X57480Y284646D02*
Y288583D01*
Y284646D02*
X64567D01*
X57480Y288583D02*
X64567D01*
Y290551D02*
Y294488D01*
X57480Y290551D02*
Y294488D01*
Y290551D02*
X64567D01*
X57480Y294488D02*
X64567D01*
X79626Y244587D02*
Y251476D01*
X75886Y244587D02*
Y251476D01*
X79626D01*
X75886Y244587D02*
X79626D01*
X64567Y363386D02*
Y367323D01*
X57480Y363386D02*
Y367323D01*
Y363386D02*
X64567D01*
X57480Y367323D02*
X64567D01*
Y369291D02*
Y373228D01*
X57480Y369291D02*
Y373228D01*
Y369291D02*
X64567D01*
X57480Y373228D02*
X64567D01*
X79626Y323327D02*
Y330217D01*
X75886Y323327D02*
Y330217D01*
X79626D01*
X75886Y323327D02*
X79626D01*
X64567Y442126D02*
Y446063D01*
X57480Y442126D02*
Y446063D01*
Y442126D02*
X64567D01*
X57480Y446063D02*
X64567D01*
Y448032D02*
Y451968D01*
X57480Y448032D02*
Y451968D01*
Y448032D02*
X64567D01*
X57480Y451968D02*
X64567D01*
X79626Y402067D02*
Y408957D01*
X75886Y402067D02*
Y408957D01*
X79626D01*
X75886Y402067D02*
X79626D01*
X64567Y520866D02*
Y524803D01*
X57480Y520866D02*
Y524803D01*
Y520866D02*
X64567D01*
X57480Y524803D02*
X64567D01*
Y526772D02*
Y530709D01*
X57480Y526772D02*
Y530709D01*
Y526772D02*
X64567D01*
X57480Y530709D02*
X64567D01*
X79626Y480807D02*
Y487697D01*
X75886Y480807D02*
Y487697D01*
X79626D01*
X75886Y480807D02*
X79626D01*
X64567Y599606D02*
Y603543D01*
X57480Y599606D02*
Y603543D01*
Y599606D02*
X64567D01*
X57480Y603543D02*
X64567D01*
Y605512D02*
Y609449D01*
X57480Y605512D02*
Y609449D01*
Y605512D02*
X64567D01*
X57480Y609449D02*
X64567D01*
X79626Y559547D02*
Y566437D01*
X75886Y559547D02*
Y566437D01*
X79626D01*
X75886Y559547D02*
X79626D01*
X64567Y678346D02*
Y682283D01*
X57480Y678346D02*
Y682283D01*
Y678346D02*
X64567D01*
X57480Y682283D02*
X64567D01*
Y684252D02*
Y688189D01*
X57480Y684252D02*
Y688189D01*
Y684252D02*
X64567D01*
X57480Y688189D02*
X64567D01*
X79626Y638287D02*
Y645177D01*
X75886Y638287D02*
Y645177D01*
X79626D01*
X75886Y638287D02*
X79626D01*
X64567Y757087D02*
Y761024D01*
X57480Y757087D02*
Y761024D01*
Y757087D02*
X64567D01*
X57480Y761024D02*
X64567D01*
Y762992D02*
Y766929D01*
X57480Y762992D02*
Y766929D01*
Y762992D02*
X64567D01*
X57480Y766929D02*
X64567D01*
X79626Y717028D02*
Y723917D01*
X75886Y717028D02*
Y723917D01*
X79626D01*
X75886Y717028D02*
X79626D01*
X43504Y89567D02*
X69488D01*
X43504Y71850D02*
X69488D01*
Y89567D01*
X43504Y71850D02*
Y89567D01*
X37402Y77165D02*
X41339D01*
X37402Y84252D02*
X41339D01*
X37402Y77165D02*
Y84252D01*
X41339Y77165D02*
Y84252D01*
D62*
X9449Y748032D02*
G03*
X9449Y748032I-25197J0D01*
G01*
Y669291D02*
G03*
X9449Y669291I-25197J0D01*
G01*
Y590551D02*
G03*
X9449Y590551I-25197J0D01*
G01*
Y511811D02*
G03*
X9449Y511811I-25197J0D01*
G01*
Y433071D02*
G03*
X9449Y433071I-25197J0D01*
G01*
Y354331D02*
G03*
X9449Y354331I-25197J0D01*
G01*
Y275591D02*
G03*
X9449Y275591I-25197J0D01*
G01*
Y196850D02*
G03*
X9449Y196850I-25197J0D01*
G01*
D63*
X36380Y115157D02*
D03*
M02*
