G04*
G04 #@! TF.GenerationSoftware,Altium Limited,Altium Designer,18.0.7 (293)*
G04*
G04 Layer_Color=12040119*
%FSLAX25Y25*%
%MOIN*%
G70*
G01*
G75*
%ADD10C,0.01000*%
%ADD11C,0.00591*%
%ADD12C,0.00610*%
%ADD13C,0.00787*%
%ADD14C,0.00394*%
%ADD15R,0.02362X0.10236*%
%ADD16R,0.11811X0.01575*%
%ADD17R,0.01575X0.11811*%
G36*
X10827Y78740D02*
D01*
D02*
G37*
G36*
X27559Y78740D02*
D01*
D02*
G37*
G36*
X2756Y97835D02*
X14961D01*
Y100984D01*
X2756D01*
Y97835D01*
D02*
G37*
G36*
X74016Y184843D02*
X61811D01*
Y181693D01*
X74016D01*
Y184843D01*
D02*
G37*
G36*
Y263583D02*
X61811D01*
Y260433D01*
X74016D01*
Y263583D01*
D02*
G37*
G36*
Y342323D02*
X61811D01*
Y339173D01*
X74016D01*
Y342323D01*
D02*
G37*
G36*
Y421063D02*
X61811D01*
Y417913D01*
X74016D01*
Y421063D01*
D02*
G37*
G36*
Y499803D02*
X61811D01*
Y496654D01*
X74016D01*
Y499803D01*
D02*
G37*
G36*
Y578543D02*
X61811D01*
Y575394D01*
X74016D01*
Y578543D01*
D02*
G37*
G36*
Y657283D02*
X61811D01*
Y654134D01*
X74016D01*
Y657283D01*
D02*
G37*
G36*
Y736024D02*
X61811D01*
Y732874D01*
X74016D01*
Y736024D01*
D02*
G37*
D10*
X-1609Y709186D02*
G03*
X-1609Y786877I-14139J38846D01*
G01*
Y630446D02*
G03*
X-1609Y708137I-14139J38846D01*
G01*
Y551706D02*
G03*
X-1609Y629397I-14139J38846D01*
G01*
Y472965D02*
G03*
X-1609Y550657I-14139J38846D01*
G01*
Y394225D02*
G03*
X-1609Y471916I-14139J38846D01*
G01*
Y315485D02*
G03*
X-1609Y393176I-14139J38846D01*
G01*
Y236745D02*
G03*
X-1609Y314436I-14139J38846D01*
G01*
Y158005D02*
G03*
X-1609Y235696I-14139J38846D01*
G01*
D11*
X61811Y826772D02*
G03*
X61811Y826772I-16535J0D01*
G01*
X77165Y750197D02*
Y754134D01*
Y671457D02*
Y675394D01*
Y592717D02*
Y596654D01*
Y513976D02*
Y517913D01*
Y435236D02*
Y439173D01*
Y356496D02*
Y360433D01*
Y277756D02*
Y281693D01*
Y199016D02*
Y202953D01*
Y769882D02*
Y773819D01*
Y691142D02*
Y695079D01*
Y612402D02*
Y616339D01*
Y533661D02*
Y537598D01*
Y454921D02*
Y458858D01*
Y376181D02*
Y380118D01*
Y297441D02*
Y301378D01*
Y218701D02*
Y222638D01*
X63386Y769882D02*
Y773819D01*
Y691142D02*
Y695079D01*
Y612402D02*
Y616339D01*
Y533661D02*
Y537598D01*
Y454921D02*
Y458858D01*
Y376181D02*
Y380118D01*
Y297441D02*
Y301378D01*
Y218701D02*
Y222638D01*
X77165Y776772D02*
Y780709D01*
Y698032D02*
Y701968D01*
Y619291D02*
Y623228D01*
Y540551D02*
Y544488D01*
Y461811D02*
Y465748D01*
Y383071D02*
Y387008D01*
Y304331D02*
Y308268D01*
Y225590D02*
Y229528D01*
X63386Y776772D02*
Y780709D01*
Y698032D02*
Y701968D01*
Y619291D02*
Y623228D01*
Y540551D02*
Y544488D01*
Y461811D02*
Y465748D01*
Y383071D02*
Y387008D01*
Y304331D02*
Y308268D01*
Y225590D02*
Y229528D01*
X10827Y113779D02*
X14764D01*
X2953D02*
X6890D01*
X75590Y210236D02*
Y211024D01*
X77953Y210236D02*
Y211024D01*
X75590Y288976D02*
Y289764D01*
X77953Y288976D02*
Y289764D01*
X75590Y367717D02*
Y368504D01*
X77953Y367717D02*
Y368504D01*
X75590Y446457D02*
Y447244D01*
X77953Y446457D02*
Y447244D01*
X75590Y525197D02*
Y525984D01*
X77953Y525197D02*
Y525984D01*
X75590Y603937D02*
Y604724D01*
X77953Y603937D02*
Y604724D01*
X75590Y682677D02*
Y683465D01*
X77953Y682677D02*
Y683465D01*
X75590Y761417D02*
Y762205D01*
X77953Y761417D02*
Y762205D01*
X30020Y123622D02*
X31890D01*
Y125492D01*
X3543Y123622D02*
X5413D01*
X3543D02*
Y125492D01*
Y150098D02*
Y151969D01*
X5413D01*
X31890Y150098D02*
Y151969D01*
X30020D02*
X31890D01*
X8071Y70472D02*
Y71260D01*
X5709Y70472D02*
Y71260D01*
X15945Y70472D02*
Y71260D01*
X13583Y70472D02*
Y71260D01*
X13780Y75787D02*
Y77756D01*
X30512Y75787D02*
Y77756D01*
X73425Y791142D02*
X74213D01*
X73425Y793504D02*
X74213D01*
X4921Y89567D02*
Y91535D01*
X28150Y104134D02*
X28937D01*
X28150Y106496D02*
X28937D01*
X18110Y95669D02*
Y97244D01*
X21260Y95669D02*
Y97244D01*
X24016Y95669D02*
Y97244D01*
X27165Y95669D02*
Y97244D01*
X29921Y95669D02*
Y97244D01*
X33071Y95669D02*
Y97244D01*
X76575Y51476D02*
X77362D01*
X76575Y53839D02*
X77362D01*
X81299Y60728D02*
Y62303D01*
X78150Y60728D02*
Y62303D01*
X75394Y60728D02*
Y62303D01*
X72244Y60728D02*
Y62303D01*
X74410Y195276D02*
X75197D01*
X74410Y192913D02*
X75197D01*
X74410Y274016D02*
X75197D01*
X74410Y271654D02*
X75197D01*
X74410Y352756D02*
X75197D01*
X74410Y350394D02*
X75197D01*
X74410Y431496D02*
X75197D01*
X74410Y429134D02*
X75197D01*
X74410Y510236D02*
X75197D01*
X74410Y507874D02*
X75197D01*
X74410Y588976D02*
X75197D01*
X74410Y586614D02*
X75197D01*
X74410Y667717D02*
X75197D01*
X74410Y665354D02*
X75197D01*
X74410Y746457D02*
X75197D01*
X74410Y744095D02*
X75197D01*
X56890Y182874D02*
Y183661D01*
X59252Y182874D02*
Y183661D01*
X71850Y191142D02*
Y193110D01*
X60630Y195276D02*
X61417D01*
X60630Y192913D02*
X61417D01*
X56890Y261614D02*
Y262402D01*
X59252Y261614D02*
Y262402D01*
X71850Y269882D02*
Y271850D01*
X60630Y274016D02*
X61417D01*
X60630Y271654D02*
X61417D01*
X56890Y340354D02*
Y341142D01*
X59252Y340354D02*
Y341142D01*
X71850Y348622D02*
Y350590D01*
X60630Y352756D02*
X61417D01*
X60630Y350394D02*
X61417D01*
X56890Y419095D02*
Y419882D01*
X59252Y419095D02*
Y419882D01*
X71850Y427362D02*
Y429331D01*
X60630Y431496D02*
X61417D01*
X60630Y429134D02*
X61417D01*
X56890Y497835D02*
Y498622D01*
X59252Y497835D02*
Y498622D01*
X71850Y506102D02*
Y508071D01*
X60630Y510236D02*
X61417D01*
X60630Y507874D02*
X61417D01*
X56890Y576575D02*
Y577362D01*
X59252Y576575D02*
Y577362D01*
X71850Y584842D02*
Y586811D01*
X60630Y588976D02*
X61417D01*
X60630Y586614D02*
X61417D01*
X56890Y655315D02*
Y656102D01*
X59252Y655315D02*
Y656102D01*
X71850Y663583D02*
Y665551D01*
X60630Y667717D02*
X61417D01*
X60630Y665354D02*
X61417D01*
X56890Y734055D02*
Y734842D01*
X59252Y734055D02*
Y734842D01*
X71850Y742323D02*
Y744291D01*
X60630Y746457D02*
X61417D01*
X60630Y744095D02*
X61417D01*
X25591Y42323D02*
Y45276D01*
X82677Y9843D02*
X84646D01*
Y11811D01*
X3937Y9843D02*
X5906D01*
X3937D02*
Y11811D01*
X84646Y36417D02*
Y38386D01*
X81693Y41339D02*
X84646Y38386D01*
X79724Y41339D02*
X81693D01*
X6890D02*
X8858D01*
X3937Y38386D02*
X6890Y41339D01*
X3937Y36417D02*
Y38386D01*
X76181Y182480D02*
Y184055D01*
X79331Y182480D02*
Y184055D01*
X76181Y261221D02*
Y262795D01*
X79331Y261221D02*
Y262795D01*
X76181Y339961D02*
Y341535D01*
X79331Y339961D02*
Y341535D01*
X76181Y418701D02*
Y420276D01*
X79331Y418701D02*
Y420276D01*
X76181Y497441D02*
Y499016D01*
X79331Y497441D02*
Y499016D01*
X76181Y576181D02*
Y577756D01*
X79331Y576181D02*
Y577756D01*
X76181Y654921D02*
Y656496D01*
X79331Y654921D02*
Y656496D01*
X76181Y733661D02*
Y735236D01*
X79331Y733661D02*
Y735236D01*
X69685Y210236D02*
Y211024D01*
X72047Y210236D02*
Y211024D01*
X60630Y199803D02*
X61417D01*
X60630Y202165D02*
X61417D01*
X60236Y206299D02*
X61811D01*
X60236Y209449D02*
X61811D01*
X60236Y212205D02*
X61811D01*
X60236Y215354D02*
X61811D01*
X76181Y174803D02*
X79331D01*
X69685Y288976D02*
Y289764D01*
X72047Y288976D02*
Y289764D01*
X60630Y278543D02*
X61417D01*
X60630Y280906D02*
X61417D01*
X60236Y285039D02*
X61811D01*
X60236Y288189D02*
X61811D01*
X60236Y290945D02*
X61811D01*
X60236Y294094D02*
X61811D01*
X76181Y253543D02*
X79331D01*
X69685Y367717D02*
Y368504D01*
X72047Y367717D02*
Y368504D01*
X60630Y357283D02*
X61417D01*
X60630Y359646D02*
X61417D01*
X60236Y363779D02*
X61811D01*
X60236Y366929D02*
X61811D01*
X60236Y369685D02*
X61811D01*
X60236Y372835D02*
X61811D01*
X76181Y332283D02*
X79331D01*
X69685Y446457D02*
Y447244D01*
X72047Y446457D02*
Y447244D01*
X60630Y436024D02*
X61417D01*
X60630Y438386D02*
X61417D01*
X60236Y442520D02*
X61811D01*
X60236Y445669D02*
X61811D01*
X60236Y448425D02*
X61811D01*
X60236Y451575D02*
X61811D01*
X76181Y411024D02*
X79331D01*
X69685Y525197D02*
Y525984D01*
X72047Y525197D02*
Y525984D01*
X60630Y514764D02*
X61417D01*
X60630Y517126D02*
X61417D01*
X60236Y521260D02*
X61811D01*
X60236Y524409D02*
X61811D01*
X60236Y527165D02*
X61811D01*
X60236Y530315D02*
X61811D01*
X76181Y489764D02*
X79331D01*
X69685Y603937D02*
Y604724D01*
X72047Y603937D02*
Y604724D01*
X60630Y593504D02*
X61417D01*
X60630Y595866D02*
X61417D01*
X60236Y600000D02*
X61811D01*
X60236Y603150D02*
X61811D01*
X60236Y605905D02*
X61811D01*
X60236Y609055D02*
X61811D01*
X76181Y568504D02*
X79331D01*
X69685Y682677D02*
Y683465D01*
X72047Y682677D02*
Y683465D01*
X60630Y672244D02*
X61417D01*
X60630Y674606D02*
X61417D01*
X60236Y678740D02*
X61811D01*
X60236Y681890D02*
X61811D01*
X60236Y684646D02*
X61811D01*
X60236Y687795D02*
X61811D01*
X76181Y647244D02*
X79331D01*
X69685Y761417D02*
Y762205D01*
X72047Y761417D02*
Y762205D01*
X60630Y750984D02*
X61417D01*
X60630Y753346D02*
X61417D01*
X60236Y757480D02*
X61811D01*
X60236Y760630D02*
X61811D01*
X60236Y763386D02*
X61811D01*
X60236Y766535D02*
X61811D01*
X76181Y725984D02*
X79331D01*
X69882Y91732D02*
X71850D01*
X37795Y79921D02*
Y81496D01*
X40945Y79921D02*
Y81496D01*
D12*
X61221Y790354D02*
Y794291D01*
X37402Y746850D02*
X41339D01*
X37402Y668110D02*
X41339D01*
X37402Y589370D02*
X41339D01*
X37402Y510630D02*
X41339D01*
X37402Y431890D02*
X41339D01*
X37402Y353150D02*
X41339D01*
X37402Y274410D02*
X41339D01*
X37402Y195669D02*
X41339D01*
D13*
X14567Y46850D02*
X16929D01*
X14567Y53543D02*
X16929D01*
X32480Y113189D02*
Y117126D01*
X44685Y87008D02*
X68307D01*
X44685Y74409D02*
X68307D01*
Y87008D01*
X44685Y74409D02*
Y87008D01*
D14*
X77756Y169980D02*
X78740Y168602D01*
X77756D02*
X78740D01*
X77756Y169980D02*
X78642D01*
X76870D02*
X77756D01*
X76772Y168602D02*
X77756D01*
X76772D02*
X77756Y169980D01*
Y248721D02*
X78740Y247342D01*
X77756D02*
X78740D01*
X77756Y248721D02*
X78642D01*
X76870D02*
X77756D01*
X76772Y247342D02*
X77756D01*
X76772D02*
X77756Y248721D01*
Y327461D02*
X78740Y326083D01*
X77756D02*
X78740D01*
X77756Y327461D02*
X78642D01*
X76870D02*
X77756D01*
X76772Y326083D02*
X77756D01*
X76772D02*
X77756Y327461D01*
Y406201D02*
X78740Y404823D01*
X77756D02*
X78740D01*
X77756Y406201D02*
X78642D01*
X76870D02*
X77756D01*
X76772Y404823D02*
X77756D01*
X76772D02*
X77756Y406201D01*
Y484941D02*
X78740Y483563D01*
X77756D02*
X78740D01*
X77756Y484941D02*
X78642D01*
X76870D02*
X77756D01*
X76772Y483563D02*
X77756D01*
X76772D02*
X77756Y484941D01*
Y563681D02*
X78740Y562303D01*
X77756D02*
X78740D01*
X77756Y563681D02*
X78642D01*
X76870D02*
X77756D01*
X76772Y562303D02*
X77756D01*
X76772D02*
X77756Y563681D01*
Y642421D02*
X78740Y641043D01*
X77756D02*
X78740D01*
X77756Y642421D02*
X78642D01*
X76870D02*
X77756D01*
X76772Y641043D02*
X77756D01*
X76772D02*
X77756Y642421D01*
Y721161D02*
X78740Y719783D01*
X77756D02*
X78740D01*
X77756Y721161D02*
X78642D01*
X76870D02*
X77756D01*
X76772Y719783D02*
X77756D01*
X76772D02*
X77756Y721161D01*
D15*
X9842Y83661D02*
D03*
X26575D02*
D03*
D16*
X26575Y70866D02*
D03*
X67914Y169488D02*
D03*
Y248228D02*
D03*
Y326969D02*
D03*
X67914Y405709D02*
D03*
X67914Y484449D02*
D03*
X67914Y563189D02*
D03*
X67914Y641929D02*
D03*
Y720669D02*
D03*
X58071Y56102D02*
D03*
X75788Y113189D02*
D03*
X43307Y56102D02*
D03*
X61024Y113189D02*
D03*
D17*
X77264Y78642D02*
D03*
M02*
