G04*
G04 #@! TF.GenerationSoftware,Altium Limited,Altium Designer,18.0.7 (293)*
G04*
G04 Layer_Color=255*
%FSLAX25Y25*%
%MOIN*%
G70*
G01*
G75*
%ADD41C,0.03898*%
%ADD42C,0.15748*%
%ADD44C,0.19685*%
%ADD45C,0.05906*%
%ADD46C,0.07874*%
%ADD47C,0.06299*%
%ADD48C,0.05512*%
%ADD57C,0.13780*%
D41*
X78740Y47244D02*
D03*
X39370Y755906D02*
D03*
X23622Y7874D02*
D03*
X70866Y850394D02*
D03*
X31496Y661417D02*
D03*
X62992Y685040D02*
D03*
X55118Y622047D02*
D03*
X15748Y850394D02*
D03*
X78740Y472441D02*
D03*
X55118Y653543D02*
D03*
X62992Y503937D02*
D03*
X78740Y795276D02*
D03*
X55118Y149606D02*
D03*
Y7874D02*
D03*
X70866Y858268D02*
D03*
X31496Y496063D02*
D03*
X62992Y803150D02*
D03*
Y47244D02*
D03*
X78740Y370079D02*
D03*
X39370Y39370D02*
D03*
X62992Y677165D02*
D03*
X78740Y94488D02*
D03*
X55118Y275590D02*
D03*
X47244Y795276D02*
D03*
X78740Y228346D02*
D03*
X39370Y188976D02*
D03*
X70866Y94488D02*
D03*
X55118Y173228D02*
D03*
X31496Y425197D02*
D03*
X55118Y629921D02*
D03*
X39370Y732284D02*
D03*
X15748Y15748D02*
D03*
X23622Y39370D02*
D03*
X70866Y842520D02*
D03*
Y118110D02*
D03*
X78740Y708662D02*
D03*
X62992Y15748D02*
D03*
X7874Y157480D02*
D03*
X62992Y102362D02*
D03*
X31496Y803150D02*
D03*
X78740Y39370D02*
D03*
X70866Y110236D02*
D03*
X55118Y708662D02*
D03*
X70866Y102362D02*
D03*
X7874Y23622D02*
D03*
X39370Y204724D02*
D03*
X23622Y23622D02*
D03*
X70866Y755906D02*
D03*
Y740158D02*
D03*
X39370D02*
D03*
X7874Y850394D02*
D03*
X62992Y496063D02*
D03*
Y464567D02*
D03*
Y23622D02*
D03*
X23622Y456693D02*
D03*
X31496Y133858D02*
D03*
X70866Y15748D02*
D03*
X39370Y125984D02*
D03*
X70866Y771654D02*
D03*
X39370Y661417D02*
D03*
X47244Y125984D02*
D03*
X39370Y55118D02*
D03*
Y338583D02*
D03*
Y15748D02*
D03*
Y291338D02*
D03*
X31496Y125984D02*
D03*
Y795276D02*
D03*
X55118Y425197D02*
D03*
X31496Y362205D02*
D03*
X47244Y31496D02*
D03*
X55118Y748032D02*
D03*
X62992Y527559D02*
D03*
X31496Y181102D02*
D03*
X15748Y102362D02*
D03*
X39370Y346457D02*
D03*
X62992Y535433D02*
D03*
X39370Y275590D02*
D03*
X23622Y692913D02*
D03*
X62992Y598425D02*
D03*
Y425197D02*
D03*
Y811024D02*
D03*
X39370Y787402D02*
D03*
X78740Y464567D02*
D03*
X47244Y70866D02*
D03*
X39370Y763780D02*
D03*
X55118Y165354D02*
D03*
X39370Y62992D02*
D03*
X62992Y338583D02*
D03*
X78740Y842520D02*
D03*
X55118Y322834D02*
D03*
X23622Y614173D02*
D03*
X39370Y440945D02*
D03*
Y433071D02*
D03*
X78740Y125984D02*
D03*
X31496Y582677D02*
D03*
X23622Y566929D02*
D03*
X78740Y614173D02*
D03*
X62992Y448819D02*
D03*
X39370Y362205D02*
D03*
Y370079D02*
D03*
Y354331D02*
D03*
X31496Y653543D02*
D03*
X55118Y496063D02*
D03*
Y15748D02*
D03*
X78740Y763780D02*
D03*
X55118Y157480D02*
D03*
X78740Y314961D02*
D03*
X55118Y236220D02*
D03*
X62992Y551181D02*
D03*
X78740Y480315D02*
D03*
X31496Y354331D02*
D03*
X78740Y566929D02*
D03*
X47244Y102362D02*
D03*
X55118Y503937D02*
D03*
X31496Y598425D02*
D03*
X78740Y771654D02*
D03*
Y267716D02*
D03*
X31496Y31496D02*
D03*
X78740Y559055D02*
D03*
X62992Y795276D02*
D03*
X70866Y724410D02*
D03*
X78740Y456693D02*
D03*
X39370Y448819D02*
D03*
X70866Y149606D02*
D03*
X62992Y740158D02*
D03*
X39370Y94488D02*
D03*
X55118Y858268D02*
D03*
X39370D02*
D03*
X78740Y629921D02*
D03*
Y7874D02*
D03*
X62992Y661417D02*
D03*
X55118Y433071D02*
D03*
X15748Y110236D02*
D03*
X47244Y149606D02*
D03*
X70866Y133858D02*
D03*
X78740Y212598D02*
D03*
X47244Y110236D02*
D03*
X39370Y795276D02*
D03*
X62992Y94488D02*
D03*
Y818898D02*
D03*
X31496Y590551D02*
D03*
X78740Y803150D02*
D03*
X23622Y811024D02*
D03*
X55118Y472441D02*
D03*
X70866Y637795D02*
D03*
X62992Y377953D02*
D03*
X39370Y519685D02*
D03*
X62992Y574803D02*
D03*
X70866Y653543D02*
D03*
X23622Y141732D02*
D03*
X55118Y55118D02*
D03*
X62992Y78740D02*
D03*
X31496Y275590D02*
D03*
Y417323D02*
D03*
X78740Y488189D02*
D03*
X39370Y417323D02*
D03*
X55118Y385827D02*
D03*
X31496Y188976D02*
D03*
X39370Y803150D02*
D03*
X78740Y346457D02*
D03*
Y622047D02*
D03*
X31496Y149606D02*
D03*
X39370Y685040D02*
D03*
X70866Y645669D02*
D03*
X23622Y377953D02*
D03*
Y409449D02*
D03*
X78740Y385827D02*
D03*
X39370Y748032D02*
D03*
X62992Y771654D02*
D03*
X31496Y346457D02*
D03*
Y858268D02*
D03*
X62992Y7874D02*
D03*
X31496Y755906D02*
D03*
X55118Y551181D02*
D03*
X31496Y574803D02*
D03*
X55118Y188976D02*
D03*
X31496Y15748D02*
D03*
Y811024D02*
D03*
X62992Y582677D02*
D03*
X23622Y251968D02*
D03*
X31496Y503937D02*
D03*
X70866Y669291D02*
D03*
X7874Y86614D02*
D03*
X62992Y858268D02*
D03*
Y110236D02*
D03*
X55118Y480315D02*
D03*
X39370Y259842D02*
D03*
X47244Y62992D02*
D03*
X23622Y488189D02*
D03*
X62992Y433071D02*
D03*
X70866Y685040D02*
D03*
X15748Y850394D02*
D03*
X39370Y86614D02*
D03*
Y598425D02*
D03*
X62992Y763780D02*
D03*
X31496Y511811D02*
D03*
X15748Y157480D02*
D03*
X31496Y55118D02*
D03*
X70866Y779528D02*
D03*
X23622Y299213D02*
D03*
X78740Y23622D02*
D03*
X7874Y7874D02*
D03*
X55118Y70866D02*
D03*
Y94488D02*
D03*
X7874Y78740D02*
D03*
Y31496D02*
D03*
X15748Y842520D02*
D03*
X78740Y543307D02*
D03*
X23622Y842520D02*
D03*
X78740Y330709D02*
D03*
X70866Y763780D02*
D03*
X47244Y55118D02*
D03*
X39370Y582677D02*
D03*
Y669291D02*
D03*
X23622Y47244D02*
D03*
X55118Y700787D02*
D03*
X78740Y692913D02*
D03*
Y740158D02*
D03*
X70866Y700787D02*
D03*
X55118Y645669D02*
D03*
X62992Y834646D02*
D03*
Y86614D02*
D03*
X31496Y62992D02*
D03*
X7874Y110236D02*
D03*
X47244Y94488D02*
D03*
X55118Y582677D02*
D03*
X78740Y401575D02*
D03*
X55118Y86614D02*
D03*
X78740Y645669D02*
D03*
Y551181D02*
D03*
X39370Y653543D02*
D03*
X55118Y125984D02*
D03*
X39370Y677165D02*
D03*
X62992Y708662D02*
D03*
Y472441D02*
D03*
X39370Y118110D02*
D03*
X55118Y590551D02*
D03*
X7874Y842520D02*
D03*
X31496Y196850D02*
D03*
X78740Y244094D02*
D03*
Y393701D02*
D03*
Y307086D02*
D03*
X62992Y622047D02*
D03*
X47244Y858268D02*
D03*
X7874Y803150D02*
D03*
X78740Y527559D02*
D03*
Y251968D02*
D03*
X55118Y78740D02*
D03*
X62992Y519685D02*
D03*
Y653543D02*
D03*
X78740Y850394D02*
D03*
X55118Y740158D02*
D03*
X39370Y7874D02*
D03*
X23622Y771654D02*
D03*
Y724410D02*
D03*
X15748Y133858D02*
D03*
X39370Y606299D02*
D03*
X62992Y141732D02*
D03*
X23622Y78740D02*
D03*
X15748Y62992D02*
D03*
X31496Y204724D02*
D03*
X15748Y78740D02*
D03*
X39370Y110236D02*
D03*
X78740Y716536D02*
D03*
X55118Y31496D02*
D03*
Y259842D02*
D03*
Y196850D02*
D03*
X78740Y118110D02*
D03*
X62992Y456693D02*
D03*
X39370Y283464D02*
D03*
X15748Y23622D02*
D03*
X78740Y606299D02*
D03*
Y299213D02*
D03*
X55118Y661417D02*
D03*
X78740Y724410D02*
D03*
X55118Y181102D02*
D03*
X62992Y700787D02*
D03*
X23622Y157480D02*
D03*
X55118Y23622D02*
D03*
X31496Y677165D02*
D03*
X55118Y543307D02*
D03*
X47244Y787402D02*
D03*
X78740Y858268D02*
D03*
Y188976D02*
D03*
X31496Y7874D02*
D03*
X62992Y346457D02*
D03*
X78740Y637795D02*
D03*
X70866Y716536D02*
D03*
X62992Y362205D02*
D03*
X23622Y220472D02*
D03*
X55118Y716536D02*
D03*
Y566929D02*
D03*
X31496Y39370D02*
D03*
X55118Y464567D02*
D03*
Y559055D02*
D03*
X15748Y118110D02*
D03*
X55118Y228346D02*
D03*
X78740Y409449D02*
D03*
X47244Y803150D02*
D03*
X70866Y795276D02*
D03*
X39370Y425197D02*
D03*
Y511811D02*
D03*
X55118D02*
D03*
Y39370D02*
D03*
X47244Y86614D02*
D03*
X78740Y811024D02*
D03*
X39370Y47244D02*
D03*
X62992Y370079D02*
D03*
X70866Y23622D02*
D03*
X78740Y535433D02*
D03*
X55118Y488189D02*
D03*
X31496Y740158D02*
D03*
X70866Y62992D02*
D03*
X62992Y125984D02*
D03*
X55118Y669291D02*
D03*
X7874Y47244D02*
D03*
X70866Y125984D02*
D03*
X78740Y661417D02*
D03*
Y291338D02*
D03*
X15748Y811024D02*
D03*
X70866D02*
D03*
X78740Y779528D02*
D03*
X62992Y614173D02*
D03*
X39370Y23622D02*
D03*
X23622Y803150D02*
D03*
X15748Y70866D02*
D03*
X62992Y732284D02*
D03*
X23622Y535433D02*
D03*
X78740Y149606D02*
D03*
X55118Y307086D02*
D03*
X7874Y102362D02*
D03*
X78740Y236220D02*
D03*
X70866Y803150D02*
D03*
X55118Y244094D02*
D03*
X39370Y496063D02*
D03*
Y574803D02*
D03*
X31496Y259842D02*
D03*
Y440945D02*
D03*
X39370Y527559D02*
D03*
X55118Y787402D02*
D03*
X70866Y748032D02*
D03*
X15748Y803150D02*
D03*
X55118Y314961D02*
D03*
X70866Y732284D02*
D03*
X23622Y62992D02*
D03*
X39370Y31496D02*
D03*
X70866Y677165D02*
D03*
X55118Y401575D02*
D03*
X31496Y732284D02*
D03*
X62992Y511811D02*
D03*
X31496Y606299D02*
D03*
X55118Y354331D02*
D03*
X31496Y748032D02*
D03*
Y519685D02*
D03*
X55118Y803150D02*
D03*
X23622Y173228D02*
D03*
X70866Y7874D02*
D03*
X62992Y133858D02*
D03*
X23622Y330709D02*
D03*
X55118Y141732D02*
D03*
X31496Y669291D02*
D03*
X23622Y165354D02*
D03*
X78740Y685040D02*
D03*
X31496Y433071D02*
D03*
X70866Y661417D02*
D03*
X55118Y732284D02*
D03*
X78740Y425197D02*
D03*
X62992Y31496D02*
D03*
X47244Y850394D02*
D03*
X23622Y858268D02*
D03*
Y850394D02*
D03*
X62992Y748032D02*
D03*
X55118Y393701D02*
D03*
Y118110D02*
D03*
X39370Y196850D02*
D03*
X7874Y62992D02*
D03*
X78740Y220472D02*
D03*
Y133858D02*
D03*
X39370Y503937D02*
D03*
X31496Y212598D02*
D03*
X78740Y110236D02*
D03*
X23622Y15748D02*
D03*
X15748Y7874D02*
D03*
X78740Y141732D02*
D03*
X7874Y811024D02*
D03*
X31496Y338583D02*
D03*
X39370Y590551D02*
D03*
X23622Y645669D02*
D03*
X62992Y118110D02*
D03*
X23622Y70866D02*
D03*
X70866Y692913D02*
D03*
X55118Y62992D02*
D03*
Y637795D02*
D03*
Y110236D02*
D03*
Y409449D02*
D03*
Y724410D02*
D03*
X39370Y181102D02*
D03*
X7874Y795276D02*
D03*
X31496Y47244D02*
D03*
X62992Y393701D02*
D03*
X31496Y78740D02*
D03*
X62992Y669291D02*
D03*
X31496Y283464D02*
D03*
Y267716D02*
D03*
X47244Y7874D02*
D03*
X62992Y385827D02*
D03*
X78740Y102362D02*
D03*
X55118Y47244D02*
D03*
Y574803D02*
D03*
Y346457D02*
D03*
X47244Y39370D02*
D03*
X31496Y448819D02*
D03*
X78740Y322834D02*
D03*
X31496Y527559D02*
D03*
X62992Y755906D02*
D03*
X31496Y685040D02*
D03*
X62992Y606299D02*
D03*
X31496Y763780D02*
D03*
X39370Y70866D02*
D03*
Y212598D02*
D03*
X62992Y543307D02*
D03*
X70866Y141732D02*
D03*
X78740Y582677D02*
D03*
X62992Y440945D02*
D03*
Y629921D02*
D03*
X78740Y700787D02*
D03*
X55118Y251968D02*
D03*
X62992Y417323D02*
D03*
Y590551D02*
D03*
X47244Y23622D02*
D03*
X62992Y354331D02*
D03*
X7874Y94488D02*
D03*
X78740Y377953D02*
D03*
X15748Y47244D02*
D03*
X55118Y330709D02*
D03*
X31496Y291338D02*
D03*
X78740Y448819D02*
D03*
X55118Y133858D02*
D03*
Y338583D02*
D03*
X39370Y267716D02*
D03*
X31496Y86614D02*
D03*
X47244Y78740D02*
D03*
X62992Y692913D02*
D03*
X78740Y503937D02*
D03*
X62992Y842520D02*
D03*
Y39370D02*
D03*
X31496Y370079D02*
D03*
X62992Y779528D02*
D03*
X47244Y47244D02*
D03*
X31496Y94488D02*
D03*
X55118Y417323D02*
D03*
Y267716D02*
D03*
X47244Y15748D02*
D03*
X55118Y102362D02*
D03*
D42*
X37402Y777559D02*
D03*
Y718504D02*
D03*
Y639764D02*
D03*
Y698819D02*
D03*
Y620079D02*
D03*
Y561024D02*
D03*
Y482283D02*
D03*
Y541339D02*
D03*
Y462598D02*
D03*
Y403543D02*
D03*
Y324803D02*
D03*
Y383858D02*
D03*
Y305118D02*
D03*
Y246063D02*
D03*
Y167323D02*
D03*
Y226378D02*
D03*
D44*
X19685Y393701D02*
D03*
Y787402D02*
D03*
Y708661D02*
D03*
Y629921D02*
D03*
Y551181D02*
D03*
Y472441D02*
D03*
Y314961D02*
D03*
Y236221D02*
D03*
X74803Y826772D02*
D03*
X15748D02*
D03*
D45*
X45276Y118110D02*
D03*
D46*
X7874Y147638D02*
D03*
Y127953D02*
D03*
X17717Y147638D02*
D03*
Y127953D02*
D03*
D47*
X76181Y32874D02*
D03*
X69488Y39764D02*
D03*
X19094Y32874D02*
D03*
X12402Y39764D02*
D03*
D48*
X81693Y14567D02*
D03*
X6890D02*
D03*
D57*
X45276Y137795D02*
D03*
M02*
