G04*
G04 #@! TF.GenerationSoftware,Altium Limited,Altium Designer,18.0.7 (293)*
G04*
G04 Layer_Physical_Order=1*
G04 Layer_Color=255*
%FSLAX25Y25*%
%MOIN*%
G70*
G01*
G75*
%ADD10C,0.01000*%
%ADD12C,0.00610*%
%ADD13C,0.00787*%
%ADD18C,0.03937*%
G04:AMPARAMS|DCode=19|XSize=118.11mil|YSize=78.74mil|CornerRadius=19.68mil|HoleSize=0mil|Usage=FLASHONLY|Rotation=0.000|XOffset=0mil|YOffset=0mil|HoleType=Round|Shape=RoundedRectangle|*
%AMROUNDEDRECTD19*
21,1,0.11811,0.03937,0,0,0.0*
21,1,0.07874,0.07874,0,0,0.0*
1,1,0.03937,0.03937,-0.01968*
1,1,0.03937,-0.03937,-0.01968*
1,1,0.03937,-0.03937,0.01968*
1,1,0.03937,0.03937,0.01968*
%
%ADD19ROUNDEDRECTD19*%
G04:AMPARAMS|DCode=20|XSize=23.62mil|YSize=31.5mil|CornerRadius=5.91mil|HoleSize=0mil|Usage=FLASHONLY|Rotation=90.000|XOffset=0mil|YOffset=0mil|HoleType=Round|Shape=RoundedRectangle|*
%AMROUNDEDRECTD20*
21,1,0.02362,0.01968,0,0,90.0*
21,1,0.01181,0.03150,0,0,90.0*
1,1,0.01181,0.00984,0.00591*
1,1,0.01181,0.00984,-0.00591*
1,1,0.01181,-0.00984,-0.00591*
1,1,0.01181,-0.00984,0.00591*
%
%ADD20ROUNDEDRECTD20*%
G04:AMPARAMS|DCode=21|XSize=23.62mil|YSize=31.5mil|CornerRadius=5.91mil|HoleSize=0mil|Usage=FLASHONLY|Rotation=0.000|XOffset=0mil|YOffset=0mil|HoleType=Round|Shape=RoundedRectangle|*
%AMROUNDEDRECTD21*
21,1,0.02362,0.01968,0,0,0.0*
21,1,0.01181,0.03150,0,0,0.0*
1,1,0.01181,0.00591,-0.00984*
1,1,0.01181,-0.00591,-0.00984*
1,1,0.01181,-0.00591,0.00984*
1,1,0.01181,0.00591,0.00984*
%
%ADD21ROUNDEDRECTD21*%
G04:AMPARAMS|DCode=22|XSize=47.24mil|YSize=47.24mil|CornerRadius=11.81mil|HoleSize=0mil|Usage=FLASHONLY|Rotation=90.000|XOffset=0mil|YOffset=0mil|HoleType=Round|Shape=RoundedRectangle|*
%AMROUNDEDRECTD22*
21,1,0.04724,0.02362,0,0,90.0*
21,1,0.02362,0.04724,0,0,90.0*
1,1,0.02362,0.01181,0.01181*
1,1,0.02362,0.01181,-0.01181*
1,1,0.02362,-0.01181,-0.01181*
1,1,0.02362,-0.01181,0.01181*
%
%ADD22ROUNDEDRECTD22*%
G04:AMPARAMS|DCode=23|XSize=47.24mil|YSize=47.24mil|CornerRadius=11.81mil|HoleSize=0mil|Usage=FLASHONLY|Rotation=0.000|XOffset=0mil|YOffset=0mil|HoleType=Round|Shape=RoundedRectangle|*
%AMROUNDEDRECTD23*
21,1,0.04724,0.02362,0,0,0.0*
21,1,0.02362,0.04724,0,0,0.0*
1,1,0.02362,0.01181,-0.01181*
1,1,0.02362,-0.01181,-0.01181*
1,1,0.02362,-0.01181,0.01181*
1,1,0.02362,0.01181,0.01181*
%
%ADD23ROUNDEDRECTD23*%
G04:AMPARAMS|DCode=24|XSize=39.37mil|YSize=35.43mil|CornerRadius=8.86mil|HoleSize=0mil|Usage=FLASHONLY|Rotation=180.000|XOffset=0mil|YOffset=0mil|HoleType=Round|Shape=RoundedRectangle|*
%AMROUNDEDRECTD24*
21,1,0.03937,0.01772,0,0,180.0*
21,1,0.02165,0.03543,0,0,180.0*
1,1,0.01772,-0.01083,0.00886*
1,1,0.01772,0.01083,0.00886*
1,1,0.01772,0.01083,-0.00886*
1,1,0.01772,-0.01083,-0.00886*
%
%ADD24ROUNDEDRECTD24*%
G04:AMPARAMS|DCode=25|XSize=70.87mil|YSize=39.37mil|CornerRadius=3.94mil|HoleSize=0mil|Usage=FLASHONLY|Rotation=270.000|XOffset=0mil|YOffset=0mil|HoleType=Round|Shape=RoundedRectangle|*
%AMROUNDEDRECTD25*
21,1,0.07087,0.03150,0,0,270.0*
21,1,0.06299,0.03937,0,0,270.0*
1,1,0.00787,-0.01575,-0.03150*
1,1,0.00787,-0.01575,0.03150*
1,1,0.00787,0.01575,0.03150*
1,1,0.00787,0.01575,-0.03150*
%
%ADD25ROUNDEDRECTD25*%
G04:AMPARAMS|DCode=26|XSize=70.87mil|YSize=39.37mil|CornerRadius=3.94mil|HoleSize=0mil|Usage=FLASHONLY|Rotation=180.000|XOffset=0mil|YOffset=0mil|HoleType=Round|Shape=RoundedRectangle|*
%AMROUNDEDRECTD26*
21,1,0.07087,0.03150,0,0,180.0*
21,1,0.06299,0.03937,0,0,180.0*
1,1,0.00787,-0.03150,0.01575*
1,1,0.00787,0.03150,0.01575*
1,1,0.00787,0.03150,-0.01575*
1,1,0.00787,-0.03150,-0.01575*
%
%ADD26ROUNDEDRECTD26*%
G04:AMPARAMS|DCode=27|XSize=74.8mil|YSize=55.12mil|CornerRadius=13.78mil|HoleSize=0mil|Usage=FLASHONLY|Rotation=270.000|XOffset=0mil|YOffset=0mil|HoleType=Round|Shape=RoundedRectangle|*
%AMROUNDEDRECTD27*
21,1,0.07480,0.02756,0,0,270.0*
21,1,0.04724,0.05512,0,0,270.0*
1,1,0.02756,-0.01378,-0.02362*
1,1,0.02756,-0.01378,0.02362*
1,1,0.02756,0.01378,0.02362*
1,1,0.02756,0.01378,-0.02362*
%
%ADD27ROUNDEDRECTD27*%
G04:AMPARAMS|DCode=28|XSize=23.62mil|YSize=45.28mil|CornerRadius=5.91mil|HoleSize=0mil|Usage=FLASHONLY|Rotation=270.000|XOffset=0mil|YOffset=0mil|HoleType=Round|Shape=RoundedRectangle|*
%AMROUNDEDRECTD28*
21,1,0.02362,0.03347,0,0,270.0*
21,1,0.01181,0.04528,0,0,270.0*
1,1,0.01181,-0.01673,-0.00591*
1,1,0.01181,-0.01673,0.00591*
1,1,0.01181,0.01673,0.00591*
1,1,0.01181,0.01673,-0.00591*
%
%ADD28ROUNDEDRECTD28*%
G04:AMPARAMS|DCode=29|XSize=17.72mil|YSize=35.43mil|CornerRadius=4.43mil|HoleSize=0mil|Usage=FLASHONLY|Rotation=0.000|XOffset=0mil|YOffset=0mil|HoleType=Round|Shape=RoundedRectangle|*
%AMROUNDEDRECTD29*
21,1,0.01772,0.02657,0,0,0.0*
21,1,0.00886,0.03543,0,0,0.0*
1,1,0.00886,0.00443,-0.01329*
1,1,0.00886,-0.00443,-0.01329*
1,1,0.00886,-0.00443,0.01329*
1,1,0.00886,0.00443,0.01329*
%
%ADD29ROUNDEDRECTD29*%
G04:AMPARAMS|DCode=30|XSize=39.37mil|YSize=35.43mil|CornerRadius=8.86mil|HoleSize=0mil|Usage=FLASHONLY|Rotation=270.000|XOffset=0mil|YOffset=0mil|HoleType=Round|Shape=RoundedRectangle|*
%AMROUNDEDRECTD30*
21,1,0.03937,0.01772,0,0,270.0*
21,1,0.02165,0.03543,0,0,270.0*
1,1,0.01772,-0.00886,-0.01083*
1,1,0.01772,-0.00886,0.01083*
1,1,0.01772,0.00886,0.01083*
1,1,0.01772,0.00886,-0.01083*
%
%ADD30ROUNDEDRECTD30*%
G04:AMPARAMS|DCode=31|XSize=21.65mil|YSize=43.31mil|CornerRadius=5.41mil|HoleSize=0mil|Usage=FLASHONLY|Rotation=180.000|XOffset=0mil|YOffset=0mil|HoleType=Round|Shape=RoundedRectangle|*
%AMROUNDEDRECTD31*
21,1,0.02165,0.03248,0,0,180.0*
21,1,0.01083,0.04331,0,0,180.0*
1,1,0.01083,-0.00541,0.01624*
1,1,0.01083,0.00541,0.01624*
1,1,0.01083,0.00541,-0.01624*
1,1,0.01083,-0.00541,-0.01624*
%
%ADD31ROUNDEDRECTD31*%
G04:AMPARAMS|DCode=32|XSize=55.12mil|YSize=64.57mil|CornerRadius=5.51mil|HoleSize=0mil|Usage=FLASHONLY|Rotation=0.000|XOffset=0mil|YOffset=0mil|HoleType=Round|Shape=RoundedRectangle|*
%AMROUNDEDRECTD32*
21,1,0.05512,0.05354,0,0,0.0*
21,1,0.04409,0.06457,0,0,0.0*
1,1,0.01102,0.02205,-0.02677*
1,1,0.01102,-0.02205,-0.02677*
1,1,0.01102,-0.02205,0.02677*
1,1,0.01102,0.02205,0.02677*
%
%ADD32ROUNDEDRECTD32*%
G04:AMPARAMS|DCode=33|XSize=31.5mil|YSize=31.5mil|CornerRadius=7.87mil|HoleSize=0mil|Usage=FLASHONLY|Rotation=0.000|XOffset=0mil|YOffset=0mil|HoleType=Round|Shape=RoundedRectangle|*
%AMROUNDEDRECTD33*
21,1,0.03150,0.01575,0,0,0.0*
21,1,0.01575,0.03150,0,0,0.0*
1,1,0.01575,0.00787,-0.00787*
1,1,0.01575,-0.00787,-0.00787*
1,1,0.01575,-0.00787,0.00787*
1,1,0.01575,0.00787,0.00787*
%
%ADD33ROUNDEDRECTD33*%
G04:AMPARAMS|DCode=34|XSize=11.81mil|YSize=70.87mil|CornerRadius=2.95mil|HoleSize=0mil|Usage=FLASHONLY|Rotation=0.000|XOffset=0mil|YOffset=0mil|HoleType=Round|Shape=RoundedRectangle|*
%AMROUNDEDRECTD34*
21,1,0.01181,0.06496,0,0,0.0*
21,1,0.00591,0.07087,0,0,0.0*
1,1,0.00591,0.00295,-0.03248*
1,1,0.00591,-0.00295,-0.03248*
1,1,0.00591,-0.00295,0.03248*
1,1,0.00591,0.00295,0.03248*
%
%ADD34ROUNDEDRECTD34*%
G04:AMPARAMS|DCode=35|XSize=11.81mil|YSize=64.96mil|CornerRadius=2.95mil|HoleSize=0mil|Usage=FLASHONLY|Rotation=0.000|XOffset=0mil|YOffset=0mil|HoleType=Round|Shape=RoundedRectangle|*
%AMROUNDEDRECTD35*
21,1,0.01181,0.05906,0,0,0.0*
21,1,0.00591,0.06496,0,0,0.0*
1,1,0.00591,0.00295,-0.02953*
1,1,0.00591,-0.00295,-0.02953*
1,1,0.00591,-0.00295,0.02953*
1,1,0.00591,0.00295,0.02953*
%
%ADD35ROUNDEDRECTD35*%
G04:AMPARAMS|DCode=36|XSize=31.5mil|YSize=31.5mil|CornerRadius=7.87mil|HoleSize=0mil|Usage=FLASHONLY|Rotation=270.000|XOffset=0mil|YOffset=0mil|HoleType=Round|Shape=RoundedRectangle|*
%AMROUNDEDRECTD36*
21,1,0.03150,0.01575,0,0,270.0*
21,1,0.01575,0.03150,0,0,270.0*
1,1,0.01575,-0.00787,-0.00787*
1,1,0.01575,-0.00787,0.00787*
1,1,0.01575,0.00787,0.00787*
1,1,0.01575,0.00787,-0.00787*
%
%ADD36ROUNDEDRECTD36*%
G04:AMPARAMS|DCode=37|XSize=31.5mil|YSize=31.5mil|CornerRadius=4.72mil|HoleSize=0mil|Usage=FLASHONLY|Rotation=180.000|XOffset=0mil|YOffset=0mil|HoleType=Round|Shape=RoundedRectangle|*
%AMROUNDEDRECTD37*
21,1,0.03150,0.02205,0,0,180.0*
21,1,0.02205,0.03150,0,0,180.0*
1,1,0.00945,-0.01102,0.01102*
1,1,0.00945,0.01102,0.01102*
1,1,0.00945,0.01102,-0.01102*
1,1,0.00945,-0.01102,-0.01102*
%
%ADD37ROUNDEDRECTD37*%
%ADD38O,0.01378X0.06693*%
G04:AMPARAMS|DCode=39|XSize=17.72mil|YSize=35.43mil|CornerRadius=4.43mil|HoleSize=0mil|Usage=FLASHONLY|Rotation=270.000|XOffset=0mil|YOffset=0mil|HoleType=Round|Shape=RoundedRectangle|*
%AMROUNDEDRECTD39*
21,1,0.01772,0.02657,0,0,270.0*
21,1,0.00886,0.03543,0,0,270.0*
1,1,0.00886,-0.01329,-0.00443*
1,1,0.00886,-0.01329,0.00443*
1,1,0.00886,0.01329,0.00443*
1,1,0.00886,0.01329,-0.00443*
%
%ADD39ROUNDEDRECTD39*%
%ADD41C,0.03898*%
%ADD42C,0.15748*%
%ADD43C,0.20866*%
%ADD44C,0.19685*%
%ADD45C,0.05906*%
%ADD46C,0.07874*%
%ADD47C,0.06299*%
%ADD48C,0.05512*%
G04:AMPARAMS|DCode=49|XSize=59.06mil|YSize=118.11mil|CornerRadius=17.72mil|HoleSize=0mil|Usage=FLASHONLY|Rotation=180.000|XOffset=0mil|YOffset=0mil|HoleType=Round|Shape=RoundedRectangle|*
%AMROUNDEDRECTD49*
21,1,0.05906,0.08268,0,0,180.0*
21,1,0.02362,0.11811,0,0,180.0*
1,1,0.03543,-0.01181,0.04134*
1,1,0.03543,0.01181,0.04134*
1,1,0.03543,0.01181,-0.04134*
1,1,0.03543,-0.01181,-0.04134*
%
%ADD49ROUNDEDRECTD49*%
G04:AMPARAMS|DCode=50|XSize=118.11mil|YSize=157.48mil|CornerRadius=29.53mil|HoleSize=0mil|Usage=FLASHONLY|Rotation=180.000|XOffset=0mil|YOffset=0mil|HoleType=Round|Shape=RoundedRectangle|*
%AMROUNDEDRECTD50*
21,1,0.11811,0.09843,0,0,180.0*
21,1,0.05906,0.15748,0,0,180.0*
1,1,0.05906,-0.02953,0.04921*
1,1,0.05906,0.02953,0.04921*
1,1,0.05906,0.02953,-0.04921*
1,1,0.05906,-0.02953,-0.04921*
%
%ADD50ROUNDEDRECTD50*%
%ADD51C,0.01181*%
%ADD52C,0.01968*%
%ADD53C,0.02362*%
%ADD54C,0.01378*%
%ADD55C,0.02362*%
G36*
X68898Y343701D02*
X69882Y342717D01*
X70060D01*
X70517Y342411D01*
X71112Y342293D01*
X72195D01*
X72790Y342411D01*
X73295Y342748D01*
X73632Y343253D01*
X73697Y343579D01*
X73819Y343701D01*
X73819Y346457D01*
X83661Y346457D01*
X83661Y340767D01*
X67913Y340767D01*
X67529Y340691D01*
X67429Y340624D01*
X66929Y340891D01*
Y347638D01*
X68898D01*
Y343701D01*
D02*
G37*
G36*
X83661Y332874D02*
X73808Y332874D01*
X73637Y332988D01*
X73081Y333099D01*
X72195D01*
X71638Y332988D01*
X71467Y332874D01*
X70659D01*
X70488Y332988D01*
X69931Y333099D01*
X69045D01*
X68488Y332988D01*
X68413Y332938D01*
X67913Y333100D01*
X67913Y339764D01*
X83661Y339764D01*
X83661Y332874D01*
D02*
G37*
G36*
X60039Y276772D02*
X54134D01*
Y308071D01*
X60039D01*
Y276772D01*
D02*
G37*
G36*
X68898Y264961D02*
X69882Y263976D01*
X70060D01*
X70517Y263671D01*
X71112Y263553D01*
X72195D01*
X72790Y263671D01*
X73295Y264008D01*
X73632Y264513D01*
X73697Y264838D01*
X73819Y264961D01*
X73819Y267717D01*
X83661Y267717D01*
X83661Y262027D01*
X67913Y262027D01*
X67529Y261951D01*
X67429Y261884D01*
X66929Y262151D01*
Y268898D01*
X68898D01*
Y264961D01*
D02*
G37*
G36*
X83661Y254134D02*
X73808Y254134D01*
X73637Y254248D01*
X73081Y254359D01*
X72195D01*
X71638Y254248D01*
X71467Y254134D01*
X70659D01*
X70488Y254248D01*
X69931Y254359D01*
X69045D01*
X68488Y254248D01*
X68413Y254198D01*
X67913Y254360D01*
X67913Y261024D01*
X83661Y261024D01*
X83661Y254134D01*
D02*
G37*
G36*
X60039Y198031D02*
X54134D01*
Y229331D01*
X60039D01*
Y198031D01*
D02*
G37*
G36*
X68898Y186221D02*
X69882Y185236D01*
X70060D01*
X70517Y184931D01*
X71112Y184813D01*
X72195D01*
X72790Y184931D01*
X73295Y185268D01*
X73632Y185773D01*
X73697Y186098D01*
X73819Y186221D01*
X73819Y188976D01*
X83661Y188976D01*
X83661Y183287D01*
X67913Y183287D01*
X67529Y183211D01*
X67429Y183144D01*
X66929Y183411D01*
Y190157D01*
X68898D01*
Y186221D01*
D02*
G37*
G36*
X83661Y175394D02*
X73808Y175394D01*
X73637Y175508D01*
X73081Y175619D01*
X72195D01*
X71638Y175508D01*
X71467Y175394D01*
X70659D01*
X70488Y175508D01*
X69931Y175619D01*
X69045D01*
X68488Y175508D01*
X68413Y175458D01*
X67913Y175620D01*
X67913Y182283D01*
X83661Y182283D01*
X83661Y175394D01*
D02*
G37*
G36*
X22599Y120910D02*
X21768Y120079D01*
X18701D01*
X17927Y119305D01*
X17806Y119281D01*
X17299Y118942D01*
X16959Y118434D01*
X16935Y118313D01*
X13681Y115059D01*
Y114250D01*
X13386Y114007D01*
X12205D01*
X11590Y113885D01*
X11069Y113537D01*
X10721Y113016D01*
X10599Y112402D01*
Y110433D01*
X10721Y109819D01*
X11069Y109298D01*
X11590Y108950D01*
X12205Y108827D01*
X13181D01*
X13681Y108450D01*
Y102362D01*
X11516D01*
X11516Y105949D01*
X10508Y106845D01*
X10499Y106858D01*
X10476Y106873D01*
X10125Y107185D01*
X10010D01*
X9995Y107195D01*
X9400Y107313D01*
X8317D01*
X7722Y107195D01*
X7707Y107185D01*
X7480D01*
X6201Y105905D01*
Y102362D01*
X4035Y102362D01*
Y114585D01*
X4535Y114995D01*
X4921Y114918D01*
X5766Y115086D01*
X6482Y115565D01*
X6961Y116281D01*
X7129Y117126D01*
Y121063D01*
X7118Y121121D01*
Y121850D01*
X6995Y122465D01*
X6647Y122986D01*
X6126Y123334D01*
X5512Y123456D01*
X4331D01*
X4035Y123698D01*
Y131890D01*
X22599Y131890D01*
Y120910D01*
D02*
G37*
G36*
X39370Y111436D02*
X29528D01*
Y119095D01*
X39370D01*
X39370Y111436D01*
D02*
G37*
G36*
X27559Y96476D02*
X19666Y96476D01*
X17717Y98425D01*
X7874D01*
X6299Y96850D01*
Y92913D01*
X5906Y92520D01*
X4331D01*
X3937Y92913D01*
Y98425D01*
X6299Y100787D01*
X17126Y100787D01*
X23622Y107283D01*
X27559D01*
Y96476D01*
D02*
G37*
G36*
X39370Y107283D02*
X39370Y96976D01*
X39370Y96476D01*
X29528Y96476D01*
X29528Y107283D01*
X39370Y107283D01*
D02*
G37*
G36*
X18810Y95472D02*
X39370Y95472D01*
Y90551D01*
X32480Y90551D01*
X21654D01*
X16732Y85630D01*
X12795D01*
X11417Y87008D01*
Y92520D01*
Y96457D01*
X12205Y97244D01*
X16842D01*
X18810Y95472D01*
D02*
G37*
G36*
X45910Y94972D02*
X45833Y94587D01*
Y89272D01*
X45963Y88619D01*
X46260Y88175D01*
Y84646D01*
X44291Y82677D01*
X38386D01*
X38386Y84646D01*
X41339Y87598D01*
X41339Y92520D01*
X44291Y95472D01*
X45563Y95472D01*
X45910Y94972D01*
D02*
G37*
G36*
X68898Y74803D02*
Y73819D01*
X65618D01*
X65453Y73852D01*
X65288Y73819D01*
X63059D01*
X62894Y73852D01*
X62729Y73819D01*
X60499D01*
X60335Y73852D01*
X60170Y73819D01*
X57940D01*
X57776Y73852D01*
X57611Y73819D01*
X55381D01*
X55216Y73852D01*
X55052Y73819D01*
X52822D01*
X52658Y73852D01*
X52493Y73819D01*
X50263D01*
X50098Y73852D01*
X49934Y73819D01*
X47704D01*
X47539Y73852D01*
X47375Y73819D01*
X45145D01*
X44980Y73852D01*
X44816Y73819D01*
X41339D01*
X38386Y76772D01*
Y78740D01*
X64961D01*
X68898Y74803D01*
D02*
G37*
G36*
X81693Y62008D02*
X71850D01*
Y64789D01*
X71936Y64875D01*
X72264Y65366D01*
X72283Y65462D01*
X72379Y65945D01*
X72379Y65945D01*
Y71850D01*
X81693D01*
Y62008D01*
D02*
G37*
G36*
X71850Y61004D02*
X74822D01*
X75787Y60039D01*
Y51181D01*
X74803Y50197D01*
X67913Y50197D01*
X64961Y53150D01*
X64961Y59055D01*
X66929Y61024D01*
X71753D01*
X71850Y61004D01*
D02*
G37*
G36*
X14764Y44291D02*
X15729Y43326D01*
X15729Y36417D01*
X5906Y36417D01*
X5906Y63976D01*
X14764D01*
X14764Y44291D01*
D02*
G37*
G36*
X25591Y63102D02*
X25591Y45166D01*
X22693Y42268D01*
X22408Y41842D01*
X22307Y41339D01*
Y29528D01*
X16732D01*
X16732Y63976D01*
X24716D01*
X25591Y63102D01*
D02*
G37*
G36*
X25959Y37402D02*
Y34350D01*
X26059Y33851D01*
X26341Y33428D01*
X26765Y33145D01*
X27264Y33046D01*
X27854D01*
X28354Y33145D01*
X28777Y33428D01*
X29060Y33851D01*
X29159Y34350D01*
Y37402D01*
X29896D01*
Y34350D01*
X29996Y33851D01*
X30278Y33428D01*
X30702Y33145D01*
X31201Y33046D01*
X31791D01*
X32291Y33145D01*
X32714Y33428D01*
X32997Y33851D01*
X33096Y34350D01*
Y37402D01*
X33833D01*
Y34350D01*
X33933Y33851D01*
X34215Y33428D01*
X34639Y33145D01*
X35138Y33046D01*
X35728D01*
X36228Y33145D01*
X36651Y33428D01*
X36934Y33851D01*
X37033Y34350D01*
Y37402D01*
X37770D01*
Y34350D01*
X37870Y33851D01*
X38152Y33428D01*
X38576Y33145D01*
X39075Y33046D01*
X39665D01*
X40165Y33145D01*
X40588Y33428D01*
X40871Y33851D01*
X40970Y34350D01*
Y37402D01*
X41707D01*
Y34350D01*
X41807Y33851D01*
X42089Y33428D01*
X42513Y33145D01*
X43012Y33046D01*
X43602D01*
X44102Y33145D01*
X44525Y33428D01*
X44808Y33851D01*
X44907Y34350D01*
Y37402D01*
X45644Y37402D01*
Y34350D01*
X45744Y33851D01*
X46026Y33428D01*
X46450Y33145D01*
X46949Y33046D01*
X47539D01*
X48039Y33145D01*
X48462Y33428D01*
X48745Y33851D01*
X48844Y34350D01*
Y37402D01*
X49581D01*
Y34350D01*
X49681Y33851D01*
X49963Y33428D01*
X50387Y33145D01*
X50886Y33046D01*
X51476D01*
X51976Y33145D01*
X52399Y33428D01*
X52682Y33851D01*
X52781Y34350D01*
Y37402D01*
X53518D01*
Y34350D01*
X53618Y33851D01*
X53900Y33428D01*
X54324Y33145D01*
X54823Y33046D01*
X55413D01*
X55913Y33145D01*
X56336Y33428D01*
X56619Y33851D01*
X56718Y34350D01*
Y37402D01*
X57455D01*
Y34350D01*
X57542Y33915D01*
Y30136D01*
X57494Y30104D01*
X57015Y29388D01*
X56847Y28543D01*
X57015Y27698D01*
X57494Y26982D01*
X58210Y26504D01*
X59055Y26335D01*
X59900Y26504D01*
X60616Y26982D01*
X61095Y27698D01*
X61263Y28543D01*
X61095Y29388D01*
X60616Y30104D01*
X60568Y30136D01*
Y33915D01*
X60655Y34350D01*
Y37402D01*
X61392D01*
Y34350D01*
X61492Y33851D01*
X61774Y33428D01*
X62198Y33145D01*
X62697Y33046D01*
X63287D01*
X63787Y33145D01*
X64210Y33428D01*
X64493Y33851D01*
X64592Y34350D01*
Y37402D01*
X66090D01*
X66540Y36816D01*
X66929Y36517D01*
X66929Y23622D01*
X28874Y23622D01*
Y24606D01*
X28774Y25109D01*
X28489Y25536D01*
X24937Y29088D01*
Y37402D01*
X25959D01*
D02*
G37*
G36*
X60039Y355512D02*
X54134D01*
Y386811D01*
X60039D01*
Y355512D01*
D02*
G37*
G36*
X83661Y411614D02*
X73808Y411614D01*
X73637Y411728D01*
X73081Y411839D01*
X72195D01*
X71638Y411728D01*
X71467Y411614D01*
X70659D01*
X70488Y411728D01*
X69931Y411839D01*
X69045D01*
X68488Y411728D01*
X68413Y411678D01*
X67913Y411840D01*
X67913Y418504D01*
X83661Y418504D01*
X83661Y411614D01*
D02*
G37*
G36*
X68898Y422441D02*
X69882Y421457D01*
X70060D01*
X70517Y421151D01*
X71112Y421033D01*
X72195D01*
X72790Y421151D01*
X73295Y421489D01*
X73632Y421993D01*
X73697Y422319D01*
X73819Y422441D01*
X73819Y425197D01*
X83661Y425197D01*
X83661Y419508D01*
X67913Y419508D01*
X67529Y419431D01*
X67429Y419364D01*
X66929Y419631D01*
Y426378D01*
X68898D01*
Y422441D01*
D02*
G37*
G36*
X60039Y434252D02*
X54134D01*
Y465551D01*
X60039D01*
Y434252D01*
D02*
G37*
G36*
X83661Y490354D02*
X73808Y490354D01*
X73637Y490468D01*
X73081Y490579D01*
X72195D01*
X71638Y490468D01*
X71467Y490354D01*
X70659D01*
X70488Y490468D01*
X69931Y490579D01*
X69045D01*
X68488Y490468D01*
X68413Y490418D01*
X67913Y490581D01*
X67913Y497244D01*
X83661Y497244D01*
X83661Y490354D01*
D02*
G37*
G36*
X68898Y501181D02*
X69882Y500197D01*
X70060D01*
X70517Y499892D01*
X71112Y499773D01*
X72195D01*
X72790Y499892D01*
X73295Y500229D01*
X73632Y500734D01*
X73697Y501059D01*
X73819Y501181D01*
X73819Y503937D01*
X83661Y503937D01*
X83661Y498248D01*
X67913Y498248D01*
X67529Y498171D01*
X67429Y498104D01*
X66929Y498372D01*
Y505118D01*
X68898D01*
Y501181D01*
D02*
G37*
G36*
X60039Y512992D02*
X54134D01*
Y544291D01*
X60039D01*
Y512992D01*
D02*
G37*
G36*
X83661Y569095D02*
X73808Y569095D01*
X73637Y569208D01*
X73081Y569319D01*
X72195D01*
X71638Y569208D01*
X71467Y569095D01*
X70659D01*
X70488Y569208D01*
X69931Y569319D01*
X69045D01*
X68488Y569208D01*
X68413Y569158D01*
X67913Y569321D01*
X67913Y575984D01*
X83661Y575984D01*
X83661Y569095D01*
D02*
G37*
G36*
X68898Y579921D02*
X69882Y578937D01*
X70060D01*
X70517Y578632D01*
X71112Y578513D01*
X72195D01*
X72790Y578632D01*
X73295Y578969D01*
X73632Y579474D01*
X73697Y579799D01*
X73819Y579921D01*
X73819Y582677D01*
X83661Y582677D01*
X83661Y576988D01*
X67913Y576988D01*
X67529Y576911D01*
X67429Y576844D01*
X66929Y577112D01*
Y583858D01*
X68898D01*
Y579921D01*
D02*
G37*
G36*
X60039Y591732D02*
X54134D01*
Y623032D01*
X60039D01*
Y591732D01*
D02*
G37*
G36*
X68898Y658661D02*
X69882Y657677D01*
X70060D01*
X70517Y657372D01*
X71112Y657254D01*
X72195D01*
X72790Y657372D01*
X73295Y657709D01*
X73632Y658214D01*
X73697Y658539D01*
X73819Y658661D01*
X73819Y661417D01*
X83661Y661417D01*
X83661Y655728D01*
X67913Y655728D01*
X67529Y655652D01*
X67429Y655585D01*
X66929Y655852D01*
Y662598D01*
X68898D01*
Y658661D01*
D02*
G37*
G36*
X83661Y647835D02*
X73808Y647835D01*
X73637Y647949D01*
X73081Y648060D01*
X72195D01*
X71638Y647949D01*
X71467Y647835D01*
X70659D01*
X70488Y647949D01*
X69931Y648060D01*
X69045D01*
X68488Y647949D01*
X68413Y647899D01*
X67913Y648061D01*
X67913Y654724D01*
X83661Y654724D01*
X83661Y647835D01*
D02*
G37*
G36*
X60039Y670472D02*
X54134D01*
Y701772D01*
X60039D01*
Y670472D01*
D02*
G37*
G36*
X68898Y737402D02*
X69882Y736417D01*
X70060D01*
X70517Y736112D01*
X71112Y735994D01*
X72195D01*
X72790Y736112D01*
X73295Y736449D01*
X73632Y736954D01*
X73697Y737279D01*
X73819Y737402D01*
X73819Y740158D01*
X83661Y740158D01*
X83661Y734468D01*
X67913Y734468D01*
X67529Y734392D01*
X67429Y734325D01*
X66929Y734592D01*
Y741339D01*
X68898D01*
Y737402D01*
D02*
G37*
G36*
X83661Y726575D02*
X73808Y726575D01*
X73637Y726689D01*
X73081Y726800D01*
X72195D01*
X71638Y726689D01*
X71467Y726575D01*
X70659D01*
X70488Y726689D01*
X69931Y726800D01*
X69045D01*
X68488Y726689D01*
X68413Y726639D01*
X67913Y726801D01*
X67913Y733465D01*
X83661Y733465D01*
X83661Y726575D01*
D02*
G37*
G36*
X62992Y838583D02*
X57173D01*
X57133Y838629D01*
X55484Y840075D01*
X53660Y841293D01*
X51692Y842264D01*
X49616Y842968D01*
X47464Y843396D01*
X45276Y843540D01*
X43087Y843396D01*
X40936Y842968D01*
X38859Y842264D01*
X36891Y841293D01*
X35068Y840075D01*
X33419Y838629D01*
X33378Y838583D01*
X27559D01*
X27559Y854331D01*
X62992Y854331D01*
X62992Y838583D01*
D02*
G37*
G36*
X61024Y793717D02*
X60981Y793504D01*
Y791142D01*
X61024Y790929D01*
Y789370D01*
X50197D01*
Y796260D01*
X61024D01*
Y793717D01*
D02*
G37*
G36*
X60039Y749213D02*
X54134D01*
Y780512D01*
X60039D01*
Y749213D01*
D02*
G37*
D10*
X77953Y194095D02*
X81693D01*
X77953Y272835D02*
X78150Y272638D01*
X81693D01*
X77953Y509055D02*
X78150Y508858D01*
X81693D01*
X77953Y430315D02*
X78150Y430118D01*
X81693D01*
X77953Y666535D02*
X78150Y666339D01*
X81693D01*
X77953Y587795D02*
X78150Y587598D01*
X81693D01*
X77953Y351575D02*
X78150Y351378D01*
X81693D01*
X68012Y79626D02*
X70866Y76772D01*
Y65945D02*
Y73819D01*
X69882Y64961D02*
X70866Y65945D01*
X65945Y64961D02*
X69882D01*
X70866Y73819D02*
Y76772D01*
Y73819D02*
X70965Y73917D01*
X73917D01*
X65453Y65453D02*
Y69488D01*
Y65453D02*
X65945Y64961D01*
X68012Y79626D02*
Y91929D01*
X59055Y28543D02*
Y37303D01*
X81496Y745276D02*
X81693Y745079D01*
X77953Y745276D02*
X81496D01*
D12*
X30529Y79724D02*
G03*
X31004Y79921I0J672D01*
G01*
X79528Y200787D02*
X81693Y198622D01*
X80709Y204724D02*
X81693D01*
X77953Y207480D02*
X80709Y204724D01*
Y283465D02*
X81693D01*
X77953Y286221D02*
X80709Y283465D01*
X79528Y279528D02*
X81693Y277362D01*
X80709Y362205D02*
X81693D01*
X77953Y364961D02*
X80709Y362205D01*
Y440945D02*
X81693D01*
X77953Y443701D02*
X80709Y440945D01*
Y519685D02*
X81693D01*
X77953Y522441D02*
X80709Y519685D01*
Y598425D02*
X81693D01*
X77953Y601181D02*
X80709Y598425D01*
X79527Y677165D02*
X81693D01*
X76968Y792323D02*
X80709D01*
X64370D02*
X70669D01*
X64370D02*
Y795866D01*
X61024Y799213D02*
X64370Y795866D01*
X52165Y799213D02*
X61024D01*
X45276Y806102D02*
X52165Y799213D01*
X45276Y806102D02*
Y812992D01*
X27756Y87402D02*
X31004D01*
X27559Y87598D02*
X27756Y87402D01*
X25591Y87598D02*
X27559D01*
X79724Y767913D02*
Y778740D01*
X63976Y764961D02*
X76772D01*
X79724Y689173D02*
Y700000D01*
X63976Y686221D02*
X76772D01*
X79724Y610433D02*
Y621260D01*
X63976Y607480D02*
X76772D01*
X79724Y531693D02*
Y542520D01*
X63976Y528740D02*
X76772D01*
X79724Y452953D02*
Y463779D01*
X63976Y450000D02*
X76772D01*
X79724Y374213D02*
Y385039D01*
X63976Y371260D02*
X76772D01*
X79724Y295472D02*
Y306299D01*
X63976Y292520D02*
X76772D01*
X79724Y216732D02*
Y227559D01*
X63976Y213779D02*
X76772D01*
X64173Y758858D02*
X70866D01*
X64173Y680118D02*
X70866D01*
X64173Y601378D02*
X70866D01*
X64173Y522638D02*
X70866D01*
X64173Y443898D02*
X70866D01*
X64173Y365158D02*
X70866D01*
X64173Y286417D02*
X70866D01*
X64173Y207677D02*
X70866D01*
X57874Y737795D02*
X59252Y739173D01*
X57874Y659055D02*
X59252Y660433D01*
X57874Y580315D02*
X59252Y581693D01*
X57874Y501575D02*
X59252Y502953D01*
X57874Y422835D02*
X59252Y424213D01*
X57874Y344094D02*
X59252Y345472D01*
X57874Y265354D02*
X59252Y266732D01*
X57874Y186614D02*
X59252Y187992D01*
X62008Y775197D02*
X65551Y771654D01*
X62008Y696457D02*
X65551Y692913D01*
X62008Y617717D02*
X65551Y614173D01*
X62008Y538976D02*
X65551Y535433D01*
X77756Y469488D02*
X79724D01*
X62008Y460236D02*
X65551Y456693D01*
X62008Y381496D02*
X65551Y377953D01*
X62008Y302756D02*
X65551Y299213D01*
X62008Y224016D02*
X65551Y220472D01*
X13780Y74016D02*
Y79429D01*
X24606Y79724D02*
X30529D01*
X52165Y197835D02*
Y230315D01*
X46850Y192520D02*
X52165Y197835D01*
X39370Y192520D02*
X46850D01*
X46654Y201181D02*
X50197Y204724D01*
X39370Y201181D02*
X46654D01*
X52165Y276575D02*
Y309055D01*
X46850Y271260D02*
X52165Y276575D01*
X39370Y271260D02*
X46850D01*
X46654Y279921D02*
X50197Y283465D01*
X39370Y279921D02*
X46654D01*
X52165Y355315D02*
Y387795D01*
X46850Y350000D02*
X52165Y355315D01*
X39370Y350000D02*
X46850D01*
X46654Y358661D02*
X50197Y362205D01*
X39370Y358661D02*
X46654D01*
X52165Y434055D02*
Y466535D01*
X46850Y428740D02*
X52165Y434055D01*
X39370Y428740D02*
X46850D01*
X46654Y437402D02*
X50197Y440945D01*
X39370Y437402D02*
X46654D01*
X52165Y512795D02*
Y545276D01*
X46850Y507480D02*
X52165Y512795D01*
X39370Y507480D02*
X46850D01*
X46654Y516142D02*
X50197Y519685D01*
X39370Y516142D02*
X46654D01*
X52165Y591535D02*
Y624016D01*
X46850Y586221D02*
X52165Y591535D01*
X39370Y586221D02*
X46850D01*
X46654Y594882D02*
X50197Y598425D01*
X39370Y594882D02*
X46654D01*
X52165Y670276D02*
Y702756D01*
X46850Y664961D02*
X52165Y670276D01*
X39370Y664961D02*
X46850D01*
X46654Y673622D02*
X50197Y677165D01*
X39370Y673622D02*
X46654D01*
X52165Y749016D02*
Y781496D01*
X46850Y743701D02*
X52165Y749016D01*
X39370Y743701D02*
X46850D01*
X46654Y752362D02*
X50197Y755905D01*
X39370Y752362D02*
X46654D01*
X50197Y755905D02*
Y782480D01*
X76772Y207480D02*
X77953D01*
X70866Y207677D02*
X73819Y210630D01*
X83661D01*
X76772Y286221D02*
X77953D01*
X70866Y286417D02*
X73819Y289370D01*
X83661D01*
X76772Y364961D02*
X77953D01*
X70866Y365158D02*
X73819Y368110D01*
X83661D01*
X76772Y443701D02*
X77953D01*
X70866Y443898D02*
X73819Y446850D01*
X83661D01*
X76772Y522441D02*
X77953D01*
X70866Y522638D02*
X73819Y525591D01*
X83661D01*
X76772Y601181D02*
X77953D01*
X70866Y601378D02*
X73819Y604331D01*
X83661D01*
X76772Y679921D02*
X79527Y677165D01*
X70866Y679921D02*
X74016Y683071D01*
X83661D01*
X68898Y307480D02*
Y312008D01*
Y307480D02*
X70079Y306299D01*
X57087Y244094D02*
Y248031D01*
X60039Y250984D01*
X60630Y251575D01*
X63189D01*
X70079Y299410D02*
X72047D01*
X74803Y302165D01*
Y307087D01*
X79724Y312008D01*
X71653Y266732D02*
X71653Y266732D01*
X71653Y266732D02*
Y272835D01*
X59252Y266732D02*
X64173D01*
X58071Y258858D02*
X59646Y257283D01*
X64173D01*
X63189Y251575D02*
Y255118D01*
X64173Y256102D01*
Y257283D01*
X57874Y265354D02*
Y272835D01*
X64173D02*
Y279724D01*
X69488Y251575D02*
X72638D01*
X66339D02*
X69488D01*
X63189D02*
X66339D01*
X63189Y244882D02*
X66339D01*
X69488D01*
Y246654D01*
X70866Y248031D01*
X74803D01*
X77756Y250984D01*
Y250984D01*
X72638Y244882D02*
X77559D01*
X77756Y245079D01*
X63976Y286614D02*
X64173Y286417D01*
Y279724D02*
X70079D01*
X64173D02*
Y286417D01*
X76772Y292520D02*
X79724Y295472D01*
X77756Y245079D02*
X79724D01*
X80709Y246063D02*
Y254921D01*
X79724Y245079D02*
X80709Y246063D01*
X79724Y255906D02*
X80709Y254921D01*
X64764Y306299D02*
X65748D01*
X63976Y307087D02*
X64764Y306299D01*
X63976Y307087D02*
Y310039D01*
X61024Y312992D02*
X63976Y310039D01*
X65748Y306299D02*
X70079D01*
X54134Y311024D02*
X60039D01*
X65551Y299213D02*
X65748Y299410D01*
X62008Y302756D02*
Y309055D01*
X60039Y311024D02*
X62008Y309055D01*
X65748Y299410D02*
X70079D01*
X79528Y279528D02*
Y279724D01*
X68898Y543701D02*
Y548228D01*
Y543701D02*
X70079Y542520D01*
X57087Y484252D02*
X60039Y487205D01*
X57087Y480315D02*
Y484252D01*
X60039Y487205D02*
X60630Y487795D01*
X63189D01*
X70079Y535630D02*
X72047D01*
X74803Y538386D01*
Y543307D01*
X79724Y548228D01*
X71653Y502953D02*
X71653Y502953D01*
X71653Y502953D02*
Y509055D01*
X59252Y502953D02*
X64173D01*
X63189Y487795D02*
Y491339D01*
X64173Y492323D01*
X58071Y495079D02*
X59646Y493504D01*
X64173Y492323D02*
Y493504D01*
X59646D02*
X64173D01*
X57874Y501575D02*
Y509055D01*
X64173D02*
Y515945D01*
X69488Y487795D02*
X72638D01*
X66339D02*
X69488D01*
X63189D02*
X66339D01*
X63189Y481102D02*
X66339D01*
X69488D01*
Y482874D01*
X70866Y484252D01*
X74803D01*
X77756Y487205D01*
Y487205D01*
X72638Y481102D02*
X77559D01*
X77756Y481299D01*
X63976Y522835D02*
X64173Y522638D01*
Y515945D02*
X70079D01*
X64173D02*
Y522638D01*
X76772Y528740D02*
X79724Y531693D01*
X77756Y481299D02*
X79724D01*
X80709Y482283D01*
X79724Y492126D02*
X80709Y491142D01*
Y482283D02*
Y491142D01*
X64764Y542520D02*
X65748D01*
X63976Y543307D02*
X64764Y542520D01*
X63976Y543307D02*
Y546260D01*
X61024Y549213D02*
X63976Y546260D01*
X65748Y542520D02*
X70079D01*
X54134Y547244D02*
X60039D01*
X65551Y535433D02*
X65748Y535630D01*
X62008Y538976D02*
Y545276D01*
X60039Y547244D02*
X62008Y545276D01*
X65748Y535630D02*
X70079D01*
X79528Y515748D02*
Y515945D01*
Y515748D02*
X81496Y513779D01*
X68898Y464961D02*
Y469488D01*
Y464961D02*
X70079Y463779D01*
X57087Y405512D02*
X60039Y408465D01*
X57087Y401575D02*
Y405512D01*
X60039Y408465D02*
X60630Y409055D01*
X63189D01*
X70079Y456890D02*
X73032D01*
X74803Y458661D01*
Y466535D01*
X77756Y469488D01*
X71653Y424213D02*
X71653Y424213D01*
X71653Y424213D02*
Y430315D01*
X59252Y424213D02*
X64173D01*
X63189Y409055D02*
Y412598D01*
X64173Y413583D01*
X58071Y416339D02*
X59646Y414764D01*
X64173Y413583D02*
Y414764D01*
X59646D02*
X64173D01*
X57874Y422835D02*
Y430315D01*
X64173D02*
Y437205D01*
X69488Y409055D02*
X72638D01*
X66339D02*
X69488D01*
X63189D02*
X66339D01*
X63189Y402362D02*
X66339D01*
X69488D01*
Y404134D01*
X70866Y405512D01*
X74803D01*
X77756Y408465D01*
Y408465D01*
X72638Y402362D02*
X77559D01*
X77756Y402559D01*
X63976Y444095D02*
X64173Y443898D01*
Y437205D02*
X70079D01*
X64173D02*
Y443898D01*
X76772Y450000D02*
X79724Y452953D01*
X77756Y402559D02*
X79724D01*
X79724Y413386D02*
X80709Y412402D01*
X79724Y402559D02*
X80709Y403543D01*
Y412402D01*
X64764Y463779D02*
X65748D01*
X63976Y464567D02*
X64764Y463779D01*
X63976Y464567D02*
Y467520D01*
X61024Y470472D02*
X63976Y467520D01*
X65748Y463779D02*
X70079D01*
X54134Y468504D02*
X60039D01*
X65551Y456693D02*
X65748Y456890D01*
X62008Y460236D02*
Y466535D01*
X60039Y468504D02*
X62008Y466535D01*
X65748Y456890D02*
X70079D01*
X79528Y437008D02*
Y437205D01*
Y437008D02*
X81693Y434842D01*
X68898Y701181D02*
X70079Y700000D01*
X68898Y701181D02*
Y705709D01*
X57087Y641732D02*
X60039Y644685D01*
X57087Y637795D02*
Y641732D01*
X60039Y644685D02*
X60630Y645276D01*
X63189D01*
X70079Y693110D02*
X72047D01*
X74803Y695866D01*
Y700787D01*
X79724Y705709D01*
X71653Y660433D02*
X71653Y660433D01*
X71653Y660433D02*
Y666535D01*
X59252Y660433D02*
X64173D01*
X63189Y645276D02*
Y648819D01*
X64173Y649803D01*
X58071Y652559D02*
X59646Y650984D01*
X64173Y649803D02*
Y650984D01*
X59646D02*
X64173D01*
X57874Y659055D02*
Y666535D01*
X64173D02*
Y673425D01*
X69488Y645276D02*
X72638D01*
X66339D02*
X69488D01*
X63189D02*
X66339D01*
X63189Y638583D02*
X66339D01*
X69488D01*
Y640354D01*
X70866Y641732D01*
X74803D01*
X77756Y644685D01*
Y644685D01*
X72638Y638583D02*
X77559D01*
X77756Y638779D01*
X63976Y680315D02*
X64173Y680118D01*
Y673425D02*
X70079D01*
X64173D02*
Y680118D01*
X76772Y686221D02*
X79724Y689173D01*
X77756Y638779D02*
X79724D01*
X80709Y639764D01*
X79724Y649606D02*
X80709Y648622D01*
Y639764D02*
Y648622D01*
X63976Y700787D02*
X64764Y700000D01*
X65748D02*
X70079D01*
X63976Y700787D02*
Y703740D01*
X61024Y706693D02*
X63976Y703740D01*
X64764Y700000D02*
X65748D01*
X63976Y703740D02*
X63976D01*
X54134Y704724D02*
X60039D01*
X65551Y692913D02*
X65748Y693110D01*
X62008Y696457D02*
Y702756D01*
X60039Y704724D02*
X62008Y702756D01*
X65748Y693110D02*
X70079D01*
X79528Y673228D02*
Y673425D01*
Y673228D02*
X81693Y671063D01*
Y670276D02*
Y671063D01*
X68898Y622441D02*
Y626968D01*
Y622441D02*
X70079Y621260D01*
X57087Y562992D02*
X60039Y565945D01*
X57087Y559055D02*
Y562992D01*
X60039Y565945D02*
X60630Y566535D01*
X63189D01*
X70276Y614173D02*
X72835D01*
X70079Y614370D02*
X70276Y614173D01*
X72835D02*
X74803Y616142D01*
Y622047D01*
X79724Y626968D01*
X71653Y581693D02*
X71653Y581693D01*
X71653Y581693D02*
Y587795D01*
X59252Y581693D02*
X64173D01*
X63189Y566535D02*
Y570079D01*
X64173Y571063D01*
X58071Y573819D02*
X59646Y572244D01*
X64173Y571063D02*
Y572244D01*
X59646D02*
X64173D01*
X57874Y580315D02*
Y587795D01*
X64173D02*
Y594685D01*
X69488Y566535D02*
X72638D01*
X66339D02*
X69488D01*
X63189D02*
X66339D01*
X63189Y559842D02*
X66339D01*
X69488D01*
Y561614D01*
X70866Y562992D01*
X74803D01*
X77756Y565945D01*
Y565945D01*
X72638Y559842D02*
X77559D01*
X77756Y560039D01*
X63976Y601575D02*
X64173Y601378D01*
Y594685D02*
X70079D01*
X64173D02*
Y601378D01*
X76772Y607480D02*
X79724Y610433D01*
X77756Y560039D02*
X79724D01*
X79724Y570866D02*
X80709Y569882D01*
X79724Y560039D02*
X80709Y561024D01*
Y569882D01*
X64764Y621260D02*
X65748D01*
X63976Y622047D02*
X64764Y621260D01*
X63976Y622047D02*
Y625000D01*
X61024Y627953D02*
X63976Y625000D01*
X65748Y621260D02*
X70079D01*
X54134Y625984D02*
X60039D01*
X65551Y614173D02*
X65748Y614370D01*
X62008Y617717D02*
Y624016D01*
X60039Y625984D02*
X62008Y624016D01*
X65748Y614370D02*
X70079D01*
X79528Y594488D02*
Y594685D01*
Y594488D02*
X81693Y592323D01*
Y591535D02*
Y592323D01*
X68898Y228740D02*
Y233268D01*
Y228740D02*
X70079Y227559D01*
X57087Y165354D02*
Y170275D01*
X59055Y172244D01*
X59646Y172835D01*
X63189D01*
X70079Y220669D02*
X71063D01*
X74803Y224410D01*
Y228346D01*
X79724Y233268D01*
X71653Y187992D02*
X71653Y187992D01*
X71653Y187992D02*
Y194095D01*
X59252Y187992D02*
X64173D01*
X58071Y180118D02*
X59646Y178543D01*
X64173D01*
X63189Y172835D02*
Y176378D01*
X64173Y177362D01*
Y178543D01*
X57874Y186614D02*
Y194095D01*
X64173D02*
Y200984D01*
X69488Y172835D02*
X72638D01*
X66339D02*
X69488D01*
X63189D02*
X66339D01*
X63189Y166142D02*
X66339D01*
X69488D01*
Y167913D01*
X70866Y169291D01*
X74803D01*
X77756Y172244D01*
Y172244D01*
X72638Y166142D02*
X77559D01*
X77756Y166339D01*
X63976Y207874D02*
X64173Y207677D01*
Y200984D02*
X70079D01*
X64173D02*
Y207677D01*
X76772Y213779D02*
X79724Y216732D01*
X77756Y166339D02*
X79724D01*
X80709Y167323D01*
X79724Y177165D02*
X80709Y176181D01*
Y167323D02*
Y176181D01*
X64764Y227559D02*
X65748D01*
X63976Y228346D02*
X64764Y227559D01*
X63976Y228346D02*
Y231299D01*
X61024Y234252D02*
X63976Y231299D01*
X65748Y227559D02*
X70079D01*
X54134Y232283D02*
X60039D01*
X65551Y220472D02*
X65748Y220669D01*
X62008Y224016D02*
Y230315D01*
X60039Y232283D02*
X62008Y230315D01*
X65748Y220669D02*
X70079D01*
X79528Y200787D02*
Y200984D01*
X68898Y386221D02*
Y390748D01*
Y386221D02*
X70079Y385039D01*
X57087Y326772D02*
X60039Y329724D01*
X57087Y322835D02*
Y326772D01*
X60039Y329724D02*
X60630Y330315D01*
X63189D01*
X70079Y378150D02*
X71063D01*
X74803Y381890D01*
Y385827D01*
X79724Y390748D01*
X71653Y345472D02*
X71653Y345472D01*
X71653Y345472D02*
Y351575D01*
X59252Y345472D02*
X64173D01*
X63189Y333858D02*
X64173Y334842D01*
X58071Y337598D02*
X59646Y336024D01*
X64173D01*
X63189Y330315D02*
Y333858D01*
X64173Y334842D02*
Y336024D01*
X57874Y344094D02*
Y351575D01*
X64173D02*
Y358465D01*
X69488Y330315D02*
X72638D01*
X66339D02*
X69488D01*
X63189D02*
X66339D01*
X63189Y323622D02*
X66339D01*
X69488D01*
Y325394D01*
X70866Y326772D01*
X74803D01*
X77756Y329724D01*
Y329724D01*
X72638Y323622D02*
X77559D01*
X77756Y323819D01*
X63976Y365354D02*
X64173Y365158D01*
Y358465D02*
X70079D01*
X64173D02*
Y365158D01*
X76772Y371260D02*
X79724Y374213D01*
X77756Y323819D02*
X79724D01*
X80709Y324803D01*
X79724Y334646D02*
X80709Y333661D01*
Y324803D02*
Y333661D01*
X64764Y385039D02*
X65748D01*
X63976Y385827D02*
X64764Y385039D01*
X63976Y385827D02*
Y388779D01*
X61024Y391732D02*
X63976Y388779D01*
X65748Y385039D02*
X70079D01*
X54134Y389764D02*
X60039D01*
X65551Y377953D02*
X65748Y378150D01*
X62008Y381496D02*
Y387795D01*
X60039Y389764D02*
X62008Y387795D01*
X65748Y378150D02*
X70079D01*
X79528Y358268D02*
Y358465D01*
Y358268D02*
X81693Y356102D01*
Y355315D02*
Y356102D01*
X70866Y758661D02*
X74016Y761811D01*
X83661D01*
X64173Y752165D02*
X70079D01*
X64173Y745276D02*
Y752165D01*
Y758858D01*
X63976Y759055D02*
X64173Y758858D01*
X80709Y120079D02*
Y154528D01*
X74803Y122047D02*
Y154528D01*
X68898Y124016D02*
Y154528D01*
X62992Y125984D02*
Y154528D01*
X60039Y126969D02*
Y158465D01*
X77756Y121063D02*
Y158465D01*
X71850Y123031D02*
Y158465D01*
X65945Y125000D02*
Y158465D01*
X56299Y123228D02*
X60039Y126969D01*
X27559Y10236D02*
Y24606D01*
X23622Y28543D02*
X27559Y24606D01*
X23622Y28543D02*
Y41339D01*
X28543Y46260D01*
Y62008D01*
X25000Y65551D02*
X28543Y62008D01*
X25000Y65551D02*
Y67520D01*
X62992Y43307D02*
X66929Y47244D01*
X69390D01*
X80610Y73917D02*
X80709Y73819D01*
X84646D01*
X62992Y37303D02*
Y43307D01*
X73917Y83366D02*
Y86024D01*
X73819Y86122D02*
X73917Y86024D01*
X73819Y86122D02*
Y86614D01*
X38583Y51378D02*
Y52756D01*
X27559Y40354D02*
X38583Y51378D01*
X27559Y37303D02*
Y40354D01*
X41732Y50591D02*
Y52756D01*
X31496Y40354D02*
X41732Y50591D01*
X31496Y37303D02*
Y40354D01*
X44882Y49803D02*
Y52756D01*
X35433Y40354D02*
X44882Y49803D01*
X35433Y37303D02*
Y40354D01*
X48031Y49016D02*
Y52756D01*
X39370Y40354D02*
X48031Y49016D01*
X39370Y37303D02*
Y40354D01*
X53347Y50394D02*
Y52756D01*
X43307Y40354D02*
X53347Y50394D01*
X43307Y37303D02*
Y40354D01*
X56496Y49606D02*
Y52756D01*
X47244Y40354D02*
X56496Y49606D01*
X47244Y37303D02*
Y40354D01*
X59646Y48819D02*
Y52756D01*
X51181Y40354D02*
X59646Y48819D01*
X51181Y37303D02*
Y40354D01*
X62795Y48031D02*
Y52756D01*
X55118Y40354D02*
X62795Y48031D01*
X55118Y37303D02*
Y40354D01*
X38583Y59449D02*
Y61221D01*
X40354Y62992D01*
X41339D01*
X44980Y66634D01*
Y69488D01*
X41732Y59449D02*
Y60433D01*
X47539Y66240D01*
Y69488D01*
X44882Y59449D02*
Y60630D01*
X50098Y65847D01*
Y69488D01*
X48031Y59449D02*
Y60827D01*
X52658Y65453D01*
Y69488D01*
X53347Y59449D02*
Y62205D01*
X55216Y64075D01*
Y69488D01*
X56496Y59449D02*
Y62402D01*
X57776Y63681D01*
Y69488D01*
X59646Y59449D02*
Y62598D01*
X60335Y63287D01*
Y69488D01*
X62795Y59449D02*
X62894Y59547D01*
Y69488D01*
X80512Y107087D02*
Y109843D01*
X71850Y98425D02*
X80512Y107087D01*
X67913Y98425D02*
X71850D01*
X77362Y106890D02*
Y109843D01*
X70866Y100394D02*
X77362Y106890D01*
X66929Y100394D02*
X70866D01*
X74213Y106693D02*
Y109843D01*
X69882Y102362D02*
X74213Y106693D01*
X65945Y102362D02*
X69882D01*
X65453Y95965D02*
X67913Y98425D01*
X65453Y91929D02*
Y95965D01*
X62894Y96358D02*
X66929Y100394D01*
X62894Y91929D02*
Y96358D01*
X60335Y96752D02*
X65945Y102362D01*
X60335Y91929D02*
Y96752D01*
X71063Y106496D02*
Y109843D01*
X68898Y104331D02*
X71063Y106496D01*
X64961Y104331D02*
X68898D01*
X57776Y97146D02*
X64961Y104331D01*
X57776Y91929D02*
Y97146D01*
X65748Y108071D02*
Y109843D01*
X55216Y97539D02*
X65748Y108071D01*
X55216Y91929D02*
Y97539D01*
X62598Y107874D02*
Y109843D01*
X52658Y97933D02*
X62598Y107874D01*
X52658Y91929D02*
Y97933D01*
X59449Y107677D02*
Y109843D01*
X50098Y98327D02*
X59449Y107677D01*
X47539Y98721D02*
X56299Y107480D01*
X47539Y91929D02*
Y98721D01*
X56299Y107480D02*
Y109843D01*
X50098Y91929D02*
Y98327D01*
X56299Y116535D02*
Y123228D01*
X59449Y122441D02*
X62992Y125984D01*
X59449Y116535D02*
Y122441D01*
X62598Y121653D02*
X65945Y125000D01*
X62598Y116535D02*
Y121653D01*
X65748Y120866D02*
X68898Y124016D01*
X65748Y116535D02*
Y120866D01*
X71063Y122244D02*
X71850Y123031D01*
X71063Y116535D02*
Y122244D01*
X74213Y121457D02*
X74803Y122047D01*
X74213Y116535D02*
Y121457D01*
X77362Y120669D02*
X77756Y121063D01*
X77362Y116535D02*
Y120669D01*
X80512Y119882D02*
X80709Y120079D01*
X80512Y116535D02*
Y119882D01*
X79528Y751968D02*
X81693Y749803D01*
X10827Y69882D02*
X12992Y67716D01*
X14764D01*
X8661D02*
X10827Y69882D01*
X6890Y67716D02*
X8661D01*
X57087Y720472D02*
X60039Y723425D01*
X57087Y716535D02*
Y720472D01*
X70079Y771850D02*
X73032D01*
X74803Y773622D01*
Y779528D01*
X79724Y784449D01*
X68898Y779921D02*
X70079Y778740D01*
X68898Y779921D02*
Y784449D01*
X60039Y723425D02*
X60630Y724016D01*
X28150Y67520D02*
X31299D01*
X25000Y74213D02*
X28150D01*
X21850Y67520D02*
X25000D01*
X5413Y83661D02*
X8858Y87106D01*
Y94685D01*
X5413Y81201D02*
Y83661D01*
Y81201D02*
X6890Y79724D01*
Y74016D02*
Y79724D01*
X18406Y79921D02*
X22146Y83661D01*
X14272Y79921D02*
X18406D01*
X13780Y79429D02*
X14272Y79921D01*
X21850Y76968D02*
X24606Y79724D01*
X21850Y74213D02*
Y76968D01*
X50197Y204724D02*
Y231299D01*
X53150Y234252D01*
X61024D01*
X52165Y230315D02*
X54134Y232283D01*
X50197Y283465D02*
Y310039D01*
X53150Y312992D01*
X61024D01*
X52165Y309055D02*
X54134Y311024D01*
X53150Y470472D02*
X61024D01*
X50197Y467520D02*
X53150Y470472D01*
X50197Y440945D02*
Y467520D01*
X52165Y466535D02*
X54134Y468504D01*
X50197Y362205D02*
Y388779D01*
X53150Y391732D01*
X61024D01*
X52165Y387795D02*
X54134Y389764D01*
X50197Y519685D02*
Y546260D01*
X53150Y549213D01*
X61024D01*
X52165Y545276D02*
X54134Y547244D01*
X50197Y598425D02*
Y625000D01*
X53150Y627953D02*
X61024D01*
X50197Y625000D02*
X53150Y627953D01*
X52165Y624016D02*
X54134Y625984D01*
X50197Y677165D02*
Y703740D01*
X53150Y706693D01*
X61024D01*
X52165Y702756D02*
X54134Y704724D01*
X60630Y724016D02*
X63189D01*
X70866Y720472D02*
X74803D01*
X69488Y719095D02*
X70866Y720472D01*
X69488Y717323D02*
Y719095D01*
X63189Y727559D02*
X64173Y728543D01*
X63189Y724016D02*
Y727559D01*
X64173Y728543D02*
Y729724D01*
X79528Y751968D02*
Y752165D01*
X62008Y775197D02*
Y781496D01*
X63976Y779528D02*
Y782480D01*
X61024Y785433D02*
X63976Y782480D01*
X53150Y785433D02*
X61024D01*
X50197Y782480D02*
X53150Y785433D01*
X64764Y778740D02*
X65748D01*
X63976Y779528D02*
X64764Y778740D01*
X65551Y771654D02*
X65748Y771850D01*
X60039Y783465D02*
X62008Y781496D01*
X54134Y783465D02*
X60039D01*
X52165Y781496D02*
X54134Y783465D01*
X65748Y778740D02*
X70079D01*
X65748Y771850D02*
X70079D01*
X79724Y728346D02*
X80709Y727362D01*
Y718504D02*
Y727362D01*
X79724Y717520D02*
X80709Y718504D01*
X77756Y717520D02*
X79724D01*
X77559Y717323D02*
X77756Y717520D01*
X72638Y717323D02*
X77559D01*
X74803Y720472D02*
X77756Y723425D01*
Y723425D01*
X66339Y717323D02*
X69488D01*
X63189D02*
X66339D01*
X69488Y724016D02*
X72638D01*
X66339D02*
X69488D01*
X63189D02*
X66339D01*
X58071Y731299D02*
X59646Y729724D01*
X64173D01*
X71653Y739173D02*
X71653Y739173D01*
X71653Y739173D02*
Y745276D01*
X59252Y739173D02*
X64173D01*
X57874Y737795D02*
Y745276D01*
X76772Y764961D02*
X79724Y767913D01*
X73917Y77067D02*
Y80216D01*
X80610D02*
Y83366D01*
Y73917D02*
Y77067D01*
D13*
X12795Y111221D02*
X14173D01*
X16142Y109252D01*
Y102953D02*
X19685Y99410D01*
X16142Y102953D02*
Y109252D01*
D18*
X39370Y758858D02*
Y759842D01*
X39370Y736221D02*
Y743701D01*
X39370Y736221D02*
X39370Y736221D01*
X39370Y752362D02*
Y757874D01*
Y752362D02*
X39370Y752362D01*
X39370Y673622D02*
Y681102D01*
Y673622D02*
X39370Y673622D01*
X39370Y657480D02*
Y664961D01*
X39370Y664961D01*
X39370Y578740D02*
Y586221D01*
X39370Y586221D01*
X39370Y594882D02*
Y602362D01*
Y594882D02*
X39370Y594882D01*
X39370Y500000D02*
Y507480D01*
X39370Y507480D01*
X39370Y516142D02*
Y523622D01*
Y516142D02*
X39370Y516142D01*
Y421260D02*
Y428740D01*
X39370Y421260D02*
X39370Y421260D01*
X39370Y437402D02*
Y444882D01*
Y437402D02*
X39370Y437402D01*
X39370Y358661D02*
Y366142D01*
Y358661D02*
X39370Y358661D01*
X39370Y342520D02*
Y350000D01*
X39370Y350000D01*
Y279921D02*
Y287402D01*
X39370Y287402D02*
X39370Y287402D01*
Y263780D02*
Y271260D01*
X39370Y263779D02*
X39370Y263780D01*
D19*
X39370Y759842D02*
D03*
Y736221D02*
D03*
Y657480D02*
D03*
Y681102D02*
D03*
Y602362D02*
D03*
Y578740D02*
D03*
Y500000D02*
D03*
Y523622D02*
D03*
Y444882D02*
D03*
Y421260D02*
D03*
Y342520D02*
D03*
Y366142D02*
D03*
Y287402D02*
D03*
Y263779D02*
D03*
Y185039D02*
D03*
Y208661D02*
D03*
D20*
X79528Y752165D02*
D03*
X70079D02*
D03*
Y673425D02*
D03*
X79528D02*
D03*
Y594685D02*
D03*
X70079D02*
D03*
Y515945D02*
D03*
X79528D02*
D03*
Y437205D02*
D03*
X70079D02*
D03*
Y358465D02*
D03*
X79528D02*
D03*
Y279724D02*
D03*
X70079D02*
D03*
Y200984D02*
D03*
X79528D02*
D03*
Y771850D02*
D03*
X70079D02*
D03*
Y693110D02*
D03*
X79528D02*
D03*
Y614370D02*
D03*
X70079D02*
D03*
Y535630D02*
D03*
X79528D02*
D03*
Y456890D02*
D03*
X70079D02*
D03*
Y378150D02*
D03*
X79528D02*
D03*
Y299410D02*
D03*
X70079D02*
D03*
Y220669D02*
D03*
X79528D02*
D03*
X65748Y771850D02*
D03*
X56299D02*
D03*
Y693110D02*
D03*
X65748D02*
D03*
Y614370D02*
D03*
X56299D02*
D03*
Y535630D02*
D03*
X65748D02*
D03*
Y456890D02*
D03*
X56299D02*
D03*
Y378150D02*
D03*
X65748D02*
D03*
Y299410D02*
D03*
X56299D02*
D03*
Y220669D02*
D03*
X65748D02*
D03*
X79528Y778740D02*
D03*
X70079D02*
D03*
Y700000D02*
D03*
X79528D02*
D03*
Y621260D02*
D03*
X70079D02*
D03*
Y542520D02*
D03*
X79528D02*
D03*
Y463779D02*
D03*
X70079D02*
D03*
Y385039D02*
D03*
X79528D02*
D03*
Y306299D02*
D03*
X70079D02*
D03*
Y227559D02*
D03*
X79528D02*
D03*
X65748Y778740D02*
D03*
X56299D02*
D03*
Y700000D02*
D03*
X65748D02*
D03*
Y621260D02*
D03*
X56299D02*
D03*
Y542520D02*
D03*
X65748D02*
D03*
Y463779D02*
D03*
X56299D02*
D03*
Y385039D02*
D03*
X65748D02*
D03*
Y306299D02*
D03*
X56299D02*
D03*
Y227559D02*
D03*
X65748D02*
D03*
D21*
X12795Y111417D02*
D03*
Y120866D02*
D03*
X4921D02*
D03*
Y111417D02*
D03*
D22*
X64370Y792323D02*
D03*
X55709D02*
D03*
D23*
X39370Y752362D02*
D03*
Y743701D02*
D03*
Y664961D02*
D03*
Y673622D02*
D03*
Y594882D02*
D03*
Y586221D02*
D03*
Y507480D02*
D03*
Y516142D02*
D03*
Y437402D02*
D03*
Y428740D02*
D03*
Y350000D02*
D03*
Y358661D02*
D03*
Y279921D02*
D03*
Y271260D02*
D03*
Y192520D02*
D03*
Y201181D02*
D03*
D24*
X76772Y207480D02*
D03*
Y213779D02*
D03*
Y286221D02*
D03*
Y292520D02*
D03*
Y364961D02*
D03*
Y371260D02*
D03*
Y443701D02*
D03*
Y450000D02*
D03*
Y522441D02*
D03*
Y528740D02*
D03*
Y601181D02*
D03*
Y607480D02*
D03*
Y679921D02*
D03*
Y686221D02*
D03*
Y758661D02*
D03*
Y764961D02*
D03*
X6890Y74016D02*
D03*
Y67716D02*
D03*
X14764Y74016D02*
D03*
Y67716D02*
D03*
X58071Y180118D02*
D03*
Y186417D02*
D03*
Y258858D02*
D03*
Y265158D02*
D03*
Y337598D02*
D03*
Y343898D02*
D03*
Y416339D02*
D03*
Y422638D02*
D03*
Y495079D02*
D03*
Y501378D02*
D03*
Y573819D02*
D03*
Y580118D02*
D03*
Y652559D02*
D03*
Y658858D02*
D03*
Y731299D02*
D03*
Y737598D02*
D03*
X70866Y207480D02*
D03*
Y213779D02*
D03*
Y286221D02*
D03*
Y292520D02*
D03*
Y364961D02*
D03*
Y371260D02*
D03*
Y443701D02*
D03*
Y450000D02*
D03*
Y522441D02*
D03*
Y528740D02*
D03*
Y601181D02*
D03*
Y607480D02*
D03*
Y679921D02*
D03*
Y686221D02*
D03*
Y758661D02*
D03*
Y764961D02*
D03*
D25*
X83661Y210630D02*
D03*
X57087Y165354D02*
D03*
X83661Y289370D02*
D03*
X57087Y244094D02*
D03*
X83661Y368110D02*
D03*
X57087Y322835D02*
D03*
X83661Y446850D02*
D03*
X57087Y401575D02*
D03*
X83661Y525591D02*
D03*
X57087Y480315D02*
D03*
X83661Y604331D02*
D03*
X57087Y559055D02*
D03*
X83661Y683071D02*
D03*
X57087Y637795D02*
D03*
X83661Y761811D02*
D03*
X57087Y716535D02*
D03*
D26*
X79724Y234252D02*
D03*
X68898D02*
D03*
X79724Y312992D02*
D03*
X68898D02*
D03*
X79724Y391732D02*
D03*
X68898D02*
D03*
X79724Y470472D02*
D03*
X68898D02*
D03*
X79724Y549213D02*
D03*
X68898D02*
D03*
X79724Y627953D02*
D03*
X68898D02*
D03*
X79724Y706693D02*
D03*
X68898D02*
D03*
X79724Y785433D02*
D03*
X68898D02*
D03*
D27*
X21760Y50197D02*
D03*
X9736D02*
D03*
D28*
X5413Y83661D02*
D03*
X14272Y87402D02*
D03*
Y79921D02*
D03*
X22146Y83661D02*
D03*
X31004Y87402D02*
D03*
Y79921D02*
D03*
D29*
X21850Y67520D02*
D03*
X25000D02*
D03*
X28150D02*
D03*
X31299D02*
D03*
Y74213D02*
D03*
X28150D02*
D03*
X25000D02*
D03*
X21850D02*
D03*
X72638Y172835D02*
D03*
X69488D02*
D03*
X66339D02*
D03*
X63189D02*
D03*
Y166142D02*
D03*
X66339D02*
D03*
X69488D02*
D03*
X72638D02*
D03*
Y251575D02*
D03*
X69488D02*
D03*
X66339D02*
D03*
X63189D02*
D03*
Y244882D02*
D03*
X66339D02*
D03*
X69488D02*
D03*
X72638D02*
D03*
Y330315D02*
D03*
X69488D02*
D03*
X66339D02*
D03*
X63189D02*
D03*
Y323622D02*
D03*
X66339D02*
D03*
X69488D02*
D03*
X72638D02*
D03*
Y409055D02*
D03*
X69488D02*
D03*
X66339D02*
D03*
X63189D02*
D03*
Y402362D02*
D03*
X66339D02*
D03*
X69488D02*
D03*
X72638D02*
D03*
Y487795D02*
D03*
X69488D02*
D03*
X66339D02*
D03*
X63189D02*
D03*
Y481102D02*
D03*
X66339D02*
D03*
X69488D02*
D03*
X72638D02*
D03*
Y566535D02*
D03*
X69488D02*
D03*
X66339D02*
D03*
X63189D02*
D03*
Y559842D02*
D03*
X66339D02*
D03*
X69488D02*
D03*
X72638D02*
D03*
Y645276D02*
D03*
X69488D02*
D03*
X66339D02*
D03*
X63189D02*
D03*
Y638583D02*
D03*
X66339D02*
D03*
X69488D02*
D03*
X72638D02*
D03*
Y724016D02*
D03*
X69488D02*
D03*
X66339D02*
D03*
X63189D02*
D03*
Y717323D02*
D03*
X66339D02*
D03*
X69488D02*
D03*
X72638D02*
D03*
X62795Y59449D02*
D03*
X59646D02*
D03*
X56496D02*
D03*
X53347D02*
D03*
Y52756D02*
D03*
X56496D02*
D03*
X59646D02*
D03*
X62795D02*
D03*
X80512Y116535D02*
D03*
X77362D02*
D03*
X74213D02*
D03*
X71063D02*
D03*
Y109843D02*
D03*
X74213D02*
D03*
X77362D02*
D03*
X80512D02*
D03*
X48031Y59449D02*
D03*
X44882D02*
D03*
X41732D02*
D03*
X38583D02*
D03*
Y52756D02*
D03*
X41732D02*
D03*
X44882D02*
D03*
X48031D02*
D03*
X65748Y116535D02*
D03*
X62598D02*
D03*
X59449D02*
D03*
X56299D02*
D03*
Y109843D02*
D03*
X59449D02*
D03*
X62598D02*
D03*
X65748D02*
D03*
D30*
X76968Y792323D02*
D03*
X70669D02*
D03*
X31693Y105315D02*
D03*
X25394D02*
D03*
X80118Y52658D02*
D03*
X73819D02*
D03*
X71653Y194095D02*
D03*
X77953D02*
D03*
X71653Y272835D02*
D03*
X77953D02*
D03*
X71653Y351575D02*
D03*
X77953D02*
D03*
X71653Y430315D02*
D03*
X77953D02*
D03*
X71653Y509055D02*
D03*
X77953D02*
D03*
X71653Y587795D02*
D03*
X77953D02*
D03*
X71653Y666535D02*
D03*
X77953D02*
D03*
X71653Y745276D02*
D03*
X77953D02*
D03*
X57874Y194095D02*
D03*
X64173D02*
D03*
X57874Y272835D02*
D03*
X64173D02*
D03*
X57874Y351575D02*
D03*
X64173D02*
D03*
X57874Y430315D02*
D03*
X64173D02*
D03*
X57874Y509055D02*
D03*
X64173D02*
D03*
X57874Y587795D02*
D03*
X64173D02*
D03*
X57874Y666535D02*
D03*
X64173D02*
D03*
X57874Y745276D02*
D03*
X64173D02*
D03*
Y200984D02*
D03*
X57874D02*
D03*
X64173Y279724D02*
D03*
X57874D02*
D03*
X64173Y358465D02*
D03*
X57874D02*
D03*
X64173Y437205D02*
D03*
X57874D02*
D03*
X64173Y515945D02*
D03*
X57874D02*
D03*
X64173Y594685D02*
D03*
X57874D02*
D03*
X64173Y673425D02*
D03*
X57874D02*
D03*
X64173Y752165D02*
D03*
X57874D02*
D03*
D31*
X5118Y104134D02*
D03*
X12598D02*
D03*
Y94685D02*
D03*
X8858D02*
D03*
X5118D02*
D03*
X8858Y104134D02*
D03*
X71653Y187992D02*
D03*
X67913D02*
D03*
X64173D02*
D03*
Y178543D02*
D03*
X71653D02*
D03*
Y266732D02*
D03*
X67913D02*
D03*
X64173D02*
D03*
Y257283D02*
D03*
X71653D02*
D03*
Y345472D02*
D03*
X67913D02*
D03*
X64173D02*
D03*
Y336024D02*
D03*
X71653D02*
D03*
Y424213D02*
D03*
X67913D02*
D03*
X64173D02*
D03*
Y414764D02*
D03*
X71653D02*
D03*
Y502953D02*
D03*
X67913D02*
D03*
X64173D02*
D03*
Y493504D02*
D03*
X71653D02*
D03*
Y581693D02*
D03*
X67913D02*
D03*
X64173D02*
D03*
Y572244D02*
D03*
X71653D02*
D03*
Y660433D02*
D03*
X67913D02*
D03*
X64173D02*
D03*
Y650984D02*
D03*
X71653D02*
D03*
Y739173D02*
D03*
X67913D02*
D03*
X64173D02*
D03*
Y729724D02*
D03*
X71653D02*
D03*
D32*
X20610Y115157D02*
D03*
X36476D02*
D03*
D33*
X19685Y93504D02*
D03*
Y99410D02*
D03*
X25591Y93504D02*
D03*
Y99410D02*
D03*
X31496Y93504D02*
D03*
Y99410D02*
D03*
X79724Y64468D02*
D03*
Y58563D02*
D03*
X73819Y64468D02*
D03*
Y58563D02*
D03*
X77756Y180315D02*
D03*
Y186221D02*
D03*
Y259055D02*
D03*
Y264961D02*
D03*
Y337795D02*
D03*
Y343701D02*
D03*
Y416535D02*
D03*
Y422441D02*
D03*
Y495276D02*
D03*
Y501181D02*
D03*
Y574016D02*
D03*
Y579921D02*
D03*
Y652756D02*
D03*
Y658661D02*
D03*
Y731496D02*
D03*
Y737402D02*
D03*
X39370Y77756D02*
D03*
Y83661D02*
D03*
D34*
X62992Y10236D02*
D03*
X61024D02*
D03*
X59055D02*
D03*
X57087D02*
D03*
X55118D02*
D03*
X53150D02*
D03*
X51181D02*
D03*
X49213D02*
D03*
X47244D02*
D03*
X45276D02*
D03*
X43307D02*
D03*
X41339D02*
D03*
X39370D02*
D03*
X37402D02*
D03*
X35433D02*
D03*
X33465D02*
D03*
X31496D02*
D03*
X29528D02*
D03*
X27559D02*
D03*
X25591D02*
D03*
D35*
X62992Y37303D02*
D03*
X61024D02*
D03*
X59055D02*
D03*
X57087D02*
D03*
X55118D02*
D03*
X53150D02*
D03*
X51181D02*
D03*
X49213D02*
D03*
X47244D02*
D03*
X45276D02*
D03*
X43307D02*
D03*
X41339D02*
D03*
X39370D02*
D03*
X37402D02*
D03*
X35433D02*
D03*
X33465D02*
D03*
X31496D02*
D03*
X29528D02*
D03*
X27559D02*
D03*
X25591D02*
D03*
D36*
X63976Y207874D02*
D03*
X58071D02*
D03*
X63976Y213779D02*
D03*
X58071D02*
D03*
X63976Y286614D02*
D03*
X58071D02*
D03*
X63976Y292520D02*
D03*
X58071D02*
D03*
X63976Y365354D02*
D03*
X58071D02*
D03*
X63976Y371260D02*
D03*
X58071D02*
D03*
X63976Y444095D02*
D03*
X58071D02*
D03*
X63976Y450000D02*
D03*
X58071D02*
D03*
X63976Y522835D02*
D03*
X58071D02*
D03*
X63976Y528740D02*
D03*
X58071D02*
D03*
X63976Y601575D02*
D03*
X58071D02*
D03*
X63976Y607480D02*
D03*
X58071D02*
D03*
X63976Y680315D02*
D03*
X58071D02*
D03*
X63976Y686221D02*
D03*
X58071D02*
D03*
X63976Y759055D02*
D03*
X58071D02*
D03*
X63976Y764961D02*
D03*
X58071D02*
D03*
D37*
X77756Y172244D02*
D03*
Y166339D02*
D03*
Y250984D02*
D03*
Y245079D02*
D03*
Y329724D02*
D03*
Y323819D02*
D03*
Y408465D02*
D03*
Y402559D02*
D03*
Y487205D02*
D03*
Y481299D02*
D03*
Y565945D02*
D03*
Y560039D02*
D03*
Y644685D02*
D03*
Y638779D02*
D03*
Y723425D02*
D03*
Y717520D02*
D03*
D38*
X68012Y91929D02*
D03*
X65453D02*
D03*
X62894D02*
D03*
X60335D02*
D03*
X57776D02*
D03*
X55216D02*
D03*
X52658D02*
D03*
X50098D02*
D03*
X47539D02*
D03*
X44980D02*
D03*
X68012Y69488D02*
D03*
X65453D02*
D03*
X62894D02*
D03*
X60335D02*
D03*
X57776D02*
D03*
X55216D02*
D03*
X52658D02*
D03*
X50098D02*
D03*
X47539D02*
D03*
X44980D02*
D03*
D39*
X73917Y83366D02*
D03*
Y80216D02*
D03*
Y77067D02*
D03*
Y73917D02*
D03*
X80610D02*
D03*
Y77067D02*
D03*
Y80216D02*
D03*
Y83366D02*
D03*
D41*
X78740Y47244D02*
D03*
X39370Y755906D02*
D03*
X23622Y7874D02*
D03*
X70866Y850394D02*
D03*
X31496Y661417D02*
D03*
X62992Y685040D02*
D03*
X55118Y622047D02*
D03*
X15748Y850394D02*
D03*
X78740Y472441D02*
D03*
X55118Y653543D02*
D03*
X62992Y503937D02*
D03*
X78740Y795276D02*
D03*
X55118Y149606D02*
D03*
Y7874D02*
D03*
X70866Y858268D02*
D03*
X31496Y496063D02*
D03*
X62992Y803150D02*
D03*
Y47244D02*
D03*
X78740Y370079D02*
D03*
X39370Y39370D02*
D03*
X62992Y677165D02*
D03*
X78740Y94488D02*
D03*
X55118Y275590D02*
D03*
X47244Y795276D02*
D03*
X78740Y228346D02*
D03*
X39370Y188976D02*
D03*
X70866Y94488D02*
D03*
X55118Y173228D02*
D03*
X31496Y425197D02*
D03*
X55118Y629921D02*
D03*
X39370Y732284D02*
D03*
X15748Y15748D02*
D03*
X23622Y39370D02*
D03*
X70866Y842520D02*
D03*
Y118110D02*
D03*
X78740Y708662D02*
D03*
X62992Y15748D02*
D03*
X7874Y157480D02*
D03*
X62992Y102362D02*
D03*
X31496Y803150D02*
D03*
X78740Y39370D02*
D03*
X70866Y110236D02*
D03*
X55118Y708662D02*
D03*
X70866Y102362D02*
D03*
X7874Y23622D02*
D03*
X39370Y204724D02*
D03*
X23622Y23622D02*
D03*
X70866Y755906D02*
D03*
Y740158D02*
D03*
X39370D02*
D03*
X7874Y850394D02*
D03*
X62992Y496063D02*
D03*
Y464567D02*
D03*
Y23622D02*
D03*
X23622Y456693D02*
D03*
X31496Y133858D02*
D03*
X70866Y15748D02*
D03*
X39370Y125984D02*
D03*
X70866Y771654D02*
D03*
X39370Y661417D02*
D03*
X47244Y125984D02*
D03*
X39370Y55118D02*
D03*
Y338583D02*
D03*
Y15748D02*
D03*
Y291338D02*
D03*
X31496Y125984D02*
D03*
Y795276D02*
D03*
X55118Y425197D02*
D03*
X31496Y362205D02*
D03*
X47244Y31496D02*
D03*
X55118Y748032D02*
D03*
X62992Y527559D02*
D03*
X31496Y181102D02*
D03*
X15748Y102362D02*
D03*
X39370Y346457D02*
D03*
X62992Y535433D02*
D03*
X39370Y275590D02*
D03*
X23622Y692913D02*
D03*
X62992Y598425D02*
D03*
Y425197D02*
D03*
Y811024D02*
D03*
X39370Y787402D02*
D03*
X78740Y464567D02*
D03*
X47244Y70866D02*
D03*
X39370Y763780D02*
D03*
X55118Y165354D02*
D03*
X39370Y62992D02*
D03*
X62992Y338583D02*
D03*
X78740Y842520D02*
D03*
X55118Y322834D02*
D03*
X23622Y614173D02*
D03*
X39370Y440945D02*
D03*
Y433071D02*
D03*
X78740Y125984D02*
D03*
X31496Y582677D02*
D03*
X23622Y566929D02*
D03*
X78740Y614173D02*
D03*
X62992Y448819D02*
D03*
X39370Y362205D02*
D03*
Y370079D02*
D03*
Y354331D02*
D03*
X31496Y653543D02*
D03*
X55118Y496063D02*
D03*
Y15748D02*
D03*
X78740Y763780D02*
D03*
X55118Y157480D02*
D03*
X78740Y314961D02*
D03*
X55118Y236220D02*
D03*
X62992Y551181D02*
D03*
X78740Y480315D02*
D03*
X31496Y354331D02*
D03*
X78740Y566929D02*
D03*
X47244Y102362D02*
D03*
X55118Y503937D02*
D03*
X31496Y598425D02*
D03*
X78740Y771654D02*
D03*
Y267716D02*
D03*
X31496Y31496D02*
D03*
X78740Y559055D02*
D03*
X62992Y795276D02*
D03*
X70866Y724410D02*
D03*
X78740Y456693D02*
D03*
X39370Y448819D02*
D03*
X70866Y149606D02*
D03*
X62992Y740158D02*
D03*
X39370Y94488D02*
D03*
X55118Y858268D02*
D03*
X39370D02*
D03*
X78740Y629921D02*
D03*
Y7874D02*
D03*
X62992Y661417D02*
D03*
X55118Y433071D02*
D03*
X15748Y110236D02*
D03*
X47244Y149606D02*
D03*
X70866Y133858D02*
D03*
X78740Y212598D02*
D03*
X47244Y110236D02*
D03*
X39370Y795276D02*
D03*
X62992Y94488D02*
D03*
Y818898D02*
D03*
X31496Y590551D02*
D03*
X78740Y803150D02*
D03*
X23622Y811024D02*
D03*
X55118Y472441D02*
D03*
X70866Y637795D02*
D03*
X62992Y377953D02*
D03*
X39370Y519685D02*
D03*
X62992Y574803D02*
D03*
X70866Y653543D02*
D03*
X23622Y141732D02*
D03*
X55118Y55118D02*
D03*
X62992Y78740D02*
D03*
X31496Y275590D02*
D03*
Y417323D02*
D03*
X78740Y488189D02*
D03*
X39370Y417323D02*
D03*
X55118Y385827D02*
D03*
X31496Y188976D02*
D03*
X39370Y803150D02*
D03*
X78740Y346457D02*
D03*
Y622047D02*
D03*
X31496Y149606D02*
D03*
X39370Y685040D02*
D03*
X70866Y645669D02*
D03*
X23622Y377953D02*
D03*
Y409449D02*
D03*
X78740Y385827D02*
D03*
X39370Y748032D02*
D03*
X62992Y771654D02*
D03*
X31496Y346457D02*
D03*
Y858268D02*
D03*
X62992Y7874D02*
D03*
X31496Y755906D02*
D03*
X55118Y551181D02*
D03*
X31496Y574803D02*
D03*
X55118Y188976D02*
D03*
X31496Y15748D02*
D03*
Y811024D02*
D03*
X62992Y582677D02*
D03*
X23622Y251968D02*
D03*
X31496Y503937D02*
D03*
X70866Y669291D02*
D03*
X7874Y86614D02*
D03*
X62992Y858268D02*
D03*
Y110236D02*
D03*
X55118Y480315D02*
D03*
X39370Y259842D02*
D03*
X47244Y62992D02*
D03*
X23622Y488189D02*
D03*
X62992Y433071D02*
D03*
X70866Y685040D02*
D03*
X15748Y850394D02*
D03*
X39370Y86614D02*
D03*
Y598425D02*
D03*
X62992Y763780D02*
D03*
X31496Y511811D02*
D03*
X15748Y157480D02*
D03*
X31496Y55118D02*
D03*
X70866Y779528D02*
D03*
X23622Y299213D02*
D03*
X78740Y23622D02*
D03*
X7874Y7874D02*
D03*
X55118Y70866D02*
D03*
Y94488D02*
D03*
X7874Y78740D02*
D03*
Y31496D02*
D03*
X15748Y842520D02*
D03*
X78740Y543307D02*
D03*
X23622Y842520D02*
D03*
X78740Y330709D02*
D03*
X70866Y763780D02*
D03*
X47244Y55118D02*
D03*
X39370Y582677D02*
D03*
Y669291D02*
D03*
X23622Y47244D02*
D03*
X55118Y700787D02*
D03*
X78740Y692913D02*
D03*
Y740158D02*
D03*
X70866Y700787D02*
D03*
X55118Y645669D02*
D03*
X62992Y834646D02*
D03*
Y86614D02*
D03*
X31496Y62992D02*
D03*
X7874Y110236D02*
D03*
X47244Y94488D02*
D03*
X55118Y582677D02*
D03*
X78740Y401575D02*
D03*
X55118Y86614D02*
D03*
X78740Y645669D02*
D03*
Y551181D02*
D03*
X39370Y653543D02*
D03*
X55118Y125984D02*
D03*
X39370Y677165D02*
D03*
X62992Y708662D02*
D03*
Y472441D02*
D03*
X39370Y118110D02*
D03*
X55118Y590551D02*
D03*
X7874Y842520D02*
D03*
X31496Y196850D02*
D03*
X78740Y244094D02*
D03*
Y393701D02*
D03*
Y307086D02*
D03*
X62992Y622047D02*
D03*
X47244Y858268D02*
D03*
X7874Y803150D02*
D03*
X78740Y527559D02*
D03*
Y251968D02*
D03*
X55118Y78740D02*
D03*
X62992Y519685D02*
D03*
Y653543D02*
D03*
X78740Y850394D02*
D03*
X55118Y740158D02*
D03*
X39370Y7874D02*
D03*
X23622Y771654D02*
D03*
Y724410D02*
D03*
X15748Y133858D02*
D03*
X39370Y606299D02*
D03*
X62992Y141732D02*
D03*
X23622Y78740D02*
D03*
X15748Y62992D02*
D03*
X31496Y204724D02*
D03*
X15748Y78740D02*
D03*
X39370Y110236D02*
D03*
X78740Y716536D02*
D03*
X55118Y31496D02*
D03*
Y259842D02*
D03*
Y196850D02*
D03*
X78740Y118110D02*
D03*
X62992Y456693D02*
D03*
X39370Y283464D02*
D03*
X15748Y23622D02*
D03*
X78740Y606299D02*
D03*
Y299213D02*
D03*
X55118Y661417D02*
D03*
X78740Y724410D02*
D03*
X55118Y181102D02*
D03*
X62992Y700787D02*
D03*
X23622Y157480D02*
D03*
X55118Y23622D02*
D03*
X31496Y677165D02*
D03*
X55118Y543307D02*
D03*
X47244Y787402D02*
D03*
X78740Y858268D02*
D03*
Y188976D02*
D03*
X31496Y7874D02*
D03*
X62992Y346457D02*
D03*
X78740Y637795D02*
D03*
X70866Y716536D02*
D03*
X62992Y362205D02*
D03*
X23622Y220472D02*
D03*
X55118Y716536D02*
D03*
Y566929D02*
D03*
X31496Y39370D02*
D03*
X55118Y464567D02*
D03*
Y559055D02*
D03*
X15748Y118110D02*
D03*
X55118Y228346D02*
D03*
X78740Y409449D02*
D03*
X47244Y803150D02*
D03*
X70866Y795276D02*
D03*
X39370Y425197D02*
D03*
Y511811D02*
D03*
X55118D02*
D03*
Y39370D02*
D03*
X47244Y86614D02*
D03*
X78740Y811024D02*
D03*
X39370Y47244D02*
D03*
X62992Y370079D02*
D03*
X70866Y23622D02*
D03*
X78740Y535433D02*
D03*
X55118Y488189D02*
D03*
X31496Y740158D02*
D03*
X70866Y62992D02*
D03*
X62992Y125984D02*
D03*
X55118Y669291D02*
D03*
X7874Y47244D02*
D03*
X70866Y125984D02*
D03*
X78740Y661417D02*
D03*
Y291338D02*
D03*
X15748Y811024D02*
D03*
X70866D02*
D03*
X78740Y779528D02*
D03*
X62992Y614173D02*
D03*
X39370Y23622D02*
D03*
X23622Y803150D02*
D03*
X15748Y70866D02*
D03*
X62992Y732284D02*
D03*
X23622Y535433D02*
D03*
X78740Y149606D02*
D03*
X55118Y307086D02*
D03*
X7874Y102362D02*
D03*
X78740Y236220D02*
D03*
X70866Y803150D02*
D03*
X55118Y244094D02*
D03*
X39370Y496063D02*
D03*
Y574803D02*
D03*
X31496Y259842D02*
D03*
Y440945D02*
D03*
X39370Y527559D02*
D03*
X55118Y787402D02*
D03*
X70866Y748032D02*
D03*
X15748Y803150D02*
D03*
X55118Y314961D02*
D03*
X70866Y732284D02*
D03*
X23622Y62992D02*
D03*
X39370Y31496D02*
D03*
X70866Y677165D02*
D03*
X55118Y401575D02*
D03*
X31496Y732284D02*
D03*
X62992Y511811D02*
D03*
X31496Y606299D02*
D03*
X55118Y354331D02*
D03*
X31496Y748032D02*
D03*
Y519685D02*
D03*
X55118Y803150D02*
D03*
X23622Y173228D02*
D03*
X70866Y7874D02*
D03*
X62992Y133858D02*
D03*
X23622Y330709D02*
D03*
X55118Y141732D02*
D03*
X31496Y669291D02*
D03*
X23622Y165354D02*
D03*
X78740Y685040D02*
D03*
X31496Y433071D02*
D03*
X70866Y661417D02*
D03*
X55118Y732284D02*
D03*
X78740Y425197D02*
D03*
X62992Y31496D02*
D03*
X47244Y850394D02*
D03*
X23622Y858268D02*
D03*
Y850394D02*
D03*
X62992Y748032D02*
D03*
X55118Y393701D02*
D03*
Y118110D02*
D03*
X39370Y196850D02*
D03*
X7874Y62992D02*
D03*
X78740Y220472D02*
D03*
Y133858D02*
D03*
X39370Y503937D02*
D03*
X31496Y212598D02*
D03*
X78740Y110236D02*
D03*
X23622Y15748D02*
D03*
X15748Y7874D02*
D03*
X78740Y141732D02*
D03*
X7874Y811024D02*
D03*
X31496Y338583D02*
D03*
X39370Y590551D02*
D03*
X23622Y645669D02*
D03*
X62992Y118110D02*
D03*
X23622Y70866D02*
D03*
X70866Y692913D02*
D03*
X55118Y62992D02*
D03*
Y637795D02*
D03*
Y110236D02*
D03*
Y409449D02*
D03*
Y724410D02*
D03*
X39370Y181102D02*
D03*
X7874Y795276D02*
D03*
X31496Y47244D02*
D03*
X62992Y393701D02*
D03*
X31496Y78740D02*
D03*
X62992Y669291D02*
D03*
X31496Y283464D02*
D03*
Y267716D02*
D03*
X47244Y7874D02*
D03*
X62992Y385827D02*
D03*
X78740Y102362D02*
D03*
X55118Y47244D02*
D03*
Y574803D02*
D03*
Y346457D02*
D03*
X47244Y39370D02*
D03*
X31496Y448819D02*
D03*
X78740Y322834D02*
D03*
X31496Y527559D02*
D03*
X62992Y755906D02*
D03*
X31496Y685040D02*
D03*
X62992Y606299D02*
D03*
X31496Y763780D02*
D03*
X39370Y70866D02*
D03*
Y212598D02*
D03*
X62992Y543307D02*
D03*
X70866Y141732D02*
D03*
X78740Y582677D02*
D03*
X62992Y440945D02*
D03*
Y629921D02*
D03*
X78740Y700787D02*
D03*
X55118Y251968D02*
D03*
X62992Y417323D02*
D03*
Y590551D02*
D03*
X47244Y23622D02*
D03*
X62992Y354331D02*
D03*
X7874Y94488D02*
D03*
X78740Y377953D02*
D03*
X15748Y47244D02*
D03*
X55118Y330709D02*
D03*
X31496Y291338D02*
D03*
X78740Y448819D02*
D03*
X55118Y133858D02*
D03*
Y338583D02*
D03*
X39370Y267716D02*
D03*
X31496Y86614D02*
D03*
X47244Y78740D02*
D03*
X62992Y692913D02*
D03*
X78740Y503937D02*
D03*
X62992Y842520D02*
D03*
Y39370D02*
D03*
X31496Y370079D02*
D03*
X62992Y779528D02*
D03*
X47244Y47244D02*
D03*
X31496Y94488D02*
D03*
X55118Y417323D02*
D03*
Y267716D02*
D03*
X47244Y15748D02*
D03*
X55118Y102362D02*
D03*
D42*
X37402Y777559D02*
D03*
Y718504D02*
D03*
Y639764D02*
D03*
Y698819D02*
D03*
Y620079D02*
D03*
Y561024D02*
D03*
Y482283D02*
D03*
Y541339D02*
D03*
Y462598D02*
D03*
Y403543D02*
D03*
Y324803D02*
D03*
Y383858D02*
D03*
Y305118D02*
D03*
Y246063D02*
D03*
Y167323D02*
D03*
Y226378D02*
D03*
D43*
X45276Y137795D02*
D03*
D44*
X19685Y393701D02*
D03*
Y787402D02*
D03*
Y708661D02*
D03*
Y629921D02*
D03*
Y551181D02*
D03*
Y472441D02*
D03*
Y314961D02*
D03*
Y236221D02*
D03*
X74803Y826772D02*
D03*
X15748D02*
D03*
D45*
X45276Y118110D02*
D03*
D46*
X7874Y147638D02*
D03*
Y127953D02*
D03*
X17717Y147638D02*
D03*
Y127953D02*
D03*
D47*
X76181Y32874D02*
D03*
X69488Y39764D02*
D03*
X19094Y32874D02*
D03*
X12402Y39764D02*
D03*
D48*
X81693Y14567D02*
D03*
X6890D02*
D03*
D49*
X45276Y814173D02*
D03*
D50*
X33465Y837008D02*
D03*
X57087D02*
D03*
D51*
X79529Y755904D02*
X81693D01*
X76772Y758661D02*
X79529Y755904D01*
D52*
X45276Y113189D02*
Y118110D01*
X41516Y109429D02*
X45276Y113189D01*
X26339Y109429D02*
X41516D01*
X24606Y120079D02*
Y141732D01*
X18701Y147638D02*
X24606Y141732D01*
X17717Y147638D02*
X18701D01*
X36417Y83661D02*
X39370D01*
X36417Y77756D02*
X39370D01*
X39370Y77756D01*
X20610Y116083D02*
X24606Y120079D01*
X20610Y115157D02*
Y116083D01*
Y115157D02*
X26339Y109429D01*
X39370Y201181D02*
Y208661D01*
Y201181D02*
X39370Y201181D01*
Y185039D02*
Y192520D01*
X39370Y185039D02*
X39370Y185039D01*
X80118Y47638D02*
Y52658D01*
X72244Y39764D02*
X80118Y47638D01*
X69488Y39764D02*
X72244D01*
X79724Y58563D02*
X80118Y58169D01*
Y52658D02*
Y58169D01*
X45276Y118110D02*
Y137795D01*
X7874Y147638D02*
X17717D01*
X34055Y74213D02*
X34449Y73819D01*
X31299Y74213D02*
X34055D01*
D53*
X4921Y117126D02*
Y121063D01*
D54*
X79724Y67913D02*
X79724Y67913D01*
X68012Y69488D02*
Y74508D01*
D55*
X81693Y198622D02*
D03*
Y204724D02*
D03*
Y194095D02*
D03*
X81693Y283465D02*
D03*
X81693Y277362D02*
D03*
Y362205D02*
D03*
X81693Y440945D02*
D03*
X81693Y519685D02*
D03*
Y598425D02*
D03*
Y755904D02*
D03*
Y749803D02*
D03*
Y677165D02*
D03*
X80709Y792323D02*
D03*
X31496Y846457D02*
D03*
X35433D02*
D03*
X59055D02*
D03*
X55118D02*
D03*
X59055Y850394D02*
D03*
X55118D02*
D03*
X35433D02*
D03*
X8858Y59055D02*
D03*
X22638Y56102D02*
D03*
X19685D02*
D03*
X22638Y59055D02*
D03*
X19685D02*
D03*
X11811Y56102D02*
D03*
X8858D02*
D03*
X11811Y59055D02*
D03*
X36417Y83661D02*
D03*
Y77756D02*
D03*
X4921Y117126D02*
D03*
X25591Y87598D02*
D03*
X22638Y92520D02*
D03*
X60039Y250984D02*
D03*
X81693Y272638D02*
D03*
X58071Y283661D02*
D03*
Y289567D02*
D03*
Y296457D02*
D03*
Y302362D02*
D03*
X81693Y258858D02*
D03*
Y264764D02*
D03*
X60039Y487205D02*
D03*
X81693Y508858D02*
D03*
X81496Y513779D02*
D03*
X58071Y532677D02*
D03*
Y538583D02*
D03*
Y519882D02*
D03*
Y525787D02*
D03*
X81693Y495079D02*
D03*
Y500984D02*
D03*
X60039Y408465D02*
D03*
X81693Y430118D02*
D03*
Y434842D02*
D03*
X58071Y441142D02*
D03*
Y459842D02*
D03*
Y453937D02*
D03*
Y447047D02*
D03*
X81693Y416339D02*
D03*
Y422244D02*
D03*
X60039Y644685D02*
D03*
X81693Y666339D02*
D03*
Y670276D02*
D03*
X58071Y683268D02*
D03*
Y690158D02*
D03*
Y696063D02*
D03*
Y677362D02*
D03*
X81693Y652559D02*
D03*
Y658465D02*
D03*
X60039Y565945D02*
D03*
X81693Y587598D02*
D03*
Y591535D02*
D03*
X58071Y604528D02*
D03*
Y611417D02*
D03*
Y617323D02*
D03*
Y598622D02*
D03*
X81693Y579724D02*
D03*
Y573819D02*
D03*
X59055Y172244D02*
D03*
X58071Y210827D02*
D03*
Y217717D02*
D03*
Y204921D02*
D03*
Y223622D02*
D03*
X81693Y180118D02*
D03*
Y186024D02*
D03*
X60039Y329724D02*
D03*
X81693Y351378D02*
D03*
Y355315D02*
D03*
X58071Y362402D02*
D03*
Y368307D02*
D03*
Y381102D02*
D03*
Y375197D02*
D03*
X81693Y337598D02*
D03*
Y343504D02*
D03*
X80709Y154528D02*
D03*
X74803D02*
D03*
X68898D02*
D03*
X62992D02*
D03*
X60039Y158465D02*
D03*
X77756D02*
D03*
X71850D02*
D03*
X65945D02*
D03*
X31496Y850394D02*
D03*
X69390Y47244D02*
D03*
X84646Y73819D02*
D03*
X16732Y89567D02*
D03*
X37402Y99410D02*
D03*
Y102362D02*
D03*
Y105315D02*
D03*
X79724Y70866D02*
D03*
X76772D02*
D03*
X73819D02*
D03*
X76772Y67913D02*
D03*
X69882Y56102D02*
D03*
X66929Y59055D02*
D03*
X66929Y56102D02*
D03*
Y53150D02*
D03*
X69882Y53150D02*
D03*
X73819Y86614D02*
D03*
X34449Y26575D02*
D03*
X59055Y28543D02*
D03*
X81693Y745079D02*
D03*
X69882Y59055D02*
D03*
X79724Y67913D02*
D03*
X73819D02*
D03*
X34449Y105315D02*
D03*
X10827Y69882D02*
D03*
X52165Y794291D02*
D03*
Y791339D02*
D03*
X60039Y723425D02*
D03*
X59055Y791339D02*
D03*
Y794291D02*
D03*
X34449Y102362D02*
D03*
Y99410D02*
D03*
Y92520D02*
D03*
X28543D02*
D03*
X13780Y89567D02*
D03*
X16732Y92520D02*
D03*
Y95472D02*
D03*
X31496Y113189D02*
D03*
Y117126D02*
D03*
X34449Y73819D02*
D03*
X81693Y731299D02*
D03*
Y737205D02*
D03*
X58071Y774803D02*
D03*
Y768898D02*
D03*
Y762008D02*
D03*
Y756102D02*
D03*
M02*
